<?xml version="1.0" encoding="utf-8" standalone="no"?>
<!DOCTYPE svg PUBLIC "-//W3C//DTD SVG 1.1//EN"
  "http://www.w3.org/Graphics/SVG/1.1/DTD/svg11.dtd">
<svg xmlns:xlink="http://www.w3.org/1999/xlink" width="576pt" height="432pt" viewBox="0 0 576 432" xmlns="http://www.w3.org/2000/svg" version="1.1">
 <metadata>
  <rdf:RDF xmlns:dc="http://purl.org/dc/elements/1.1/" xmlns:cc="http://creativecommons.org/ns#" xmlns:rdf="http://www.w3.org/1999/02/22-rdf-syntax-ns#">
   <cc:Work>
    <dc:type rdf:resource="http://purl.org/dc/dcmitype/StillImage"/>
    <dc:date>2025-11-24T01:09:39.881873</dc:date>
    <dc:format>image/svg+xml</dc:format>
    <dc:creator>
     <cc:Agent>
      <dc:title>Matplotlib v3.10.7, https://matplotlib.org/</dc:title>
     </cc:Agent>
    </dc:creator>
   </cc:Work>
  </rdf:RDF>
 </metadata>
 <defs>
  <style type="text/css">*{stroke-linejoin: round; stroke-linecap: butt}</style>
 </defs>
 <g id="figure_1">
  <g id="patch_1">
   <path d="M 0 432 
L 576 432 
L 576 0 
L 0 0 
z
" style="fill: #ffffff"/>
  </g>
  <g id="axes_1">
   <g id="patch_2">
    <path d="M 101.593469 389.852449 
C 116.962206 389.852449 131.703547 383.746385 142.570885 372.879048 
C 153.438222 362.01171 159.544286 347.270369 159.544286 331.901633 
C 159.544286 316.532897 153.438222 301.791555 142.570885 290.924217 
C 131.703547 280.05688 116.962206 273.950816 101.593469 273.950816 
C 86.224733 273.950816 71.483392 280.05688 60.616054 290.924217 
C 49.748717 301.791555 43.642653 316.532897 43.642653 331.901633 
C 43.642653 347.270369 49.748717 362.01171 60.616054 372.879048 
C 71.483392 383.746385 86.224733 389.852449 101.593469 389.852449 
z
" clip-path="url(#pbb7e009876)" style="fill: #e6f3ff; stroke: #0066cc; stroke-width: 2; stroke-linejoin: miter"/>
   </g>
   <g id="patch_3">
    <path d="M 150.851663 246.583938 
L 148.402374 258.553008 
L 145.073311 256.630972 
L 130.585607 281.724412 
L 130.552149 281.705095 
L 145.039853 256.611656 
L 141.71079 254.68962 
z
" clip-path="url(#pbb7e009876)" style="fill: #808080; stroke-dasharray: 1,1.65; stroke-dashoffset: 0; stroke: #808080; stroke-linejoin: miter"/>
   </g>
   <g id="patch_4">
    <path d="M 436.099459 164.648638 
C 439.457503 171.364726 444.089086 177.364574 449.736036 182.31374 
C 455.382986 187.262907 461.938392 191.067692 469.036845 193.51601 
C 476.135297 195.964329 483.642406 197.009828 491.13971 196.59423 
C 498.637014 196.178631 505.982572 194.309804 512.76693 191.091919 
C 519.551288 187.874035 525.646001 183.368015 530.71134 177.825034 
C 535.776678 172.282053 539.716743 165.807052 542.311907 158.76096 
C 544.907072 151.714868 546.108204 144.231084 545.84835 136.726767 
C 545.588495 129.222451 543.872575 121.839676 540.796237 114.989973 
C 537.719898 108.14027 533.341385 101.953319 527.904762 96.773992 
C 522.468139 91.594665 516.076335 87.52102 509.085641 84.780128 
C 502.094947 82.039236 494.637713 80.682989 487.129619 80.786987 
C 479.621525 80.890985 472.204717 82.453259 465.292621 85.386725 
C 458.380525 88.32019 452.104004 92.56931 446.812921 97.897231 
C 441.521839 103.225152 437.316369 109.531004 434.430931 116.463286 
C 431.545493 123.395569 430.034716 130.823038 429.982813 138.331672 
C 429.93091 145.840307 431.338864 153.287952 434.128192 160.259461 
" clip-path="url(#pbb7e009876)" style="fill: none; stroke: #800080; stroke-width: 1.5; stroke-linejoin: miter"/>
   </g>
   <g id="patch_5">
    <path d="M 165.124068 264.437158 
C 163.440703 261.070429 161.274306 257.967717 158.693641 255.227508 
C 156.112975 252.487298 153.145638 250.138893 149.885816 248.256834 
" clip-path="url(#pbb7e009876)" style="fill: none; stroke: #0000ff; stroke-linejoin: miter"/>
   </g>
   <g id="patch_6">
    <path d="M 184.37293 260.187537 
C 181.975729 254.196093 178.594497 248.64693 174.369036 243.769487 
C 170.143574 238.892044 165.132933 234.754482 159.544286 231.527874 
" clip-path="url(#pbb7e009876)" style="fill: none; stroke: #ff0000; stroke-linejoin: miter"/>
   </g>
   <g id="line2d_1">
    <defs>
     <path id="m28230ab29d" d="M 0 3 
C 0.795609 3 1.55874 2.683901 2.12132 2.12132 
C 2.683901 1.55874 3 0.795609 3 0 
C 3 -0.795609 2.683901 -1.55874 2.12132 -2.12132 
C 1.55874 -2.683901 0.795609 -3 0 -3 
C -0.795609 -3 -1.55874 -2.683901 -2.12132 -2.12132 
C -2.683901 -1.55874 -3 -0.795609 -3 0 
C -3 0.795609 -2.683901 1.55874 -2.12132 2.12132 
C -1.55874 2.683901 -0.795609 3 0 3 
z
" style="stroke: #000000"/>
    </defs>
    <g clip-path="url(#pbb7e009876)">
     <use xlink:href="#m28230ab29d" x="101.593469" y="331.901633" style="stroke: #000000"/>
    </g>
   </g>
   <g id="line2d_2">
    <defs>
     <path id="m1525085234" d="M 0 3 
C 0.795609 3 1.55874 2.683901 2.12132 2.12132 
C 2.683901 1.55874 3 0.795609 3 0 
C 3 -0.795609 2.683901 -1.55874 2.12132 -2.12132 
C 1.55874 -2.683901 0.795609 -3 0 -3 
C -0.795609 -3 -1.55874 -2.683901 -2.12132 -2.12132 
C -2.683901 -1.55874 -3 -0.795609 -3 0 
C -3 0.795609 -2.683901 1.55874 -2.12132 2.12132 
C -1.55874 2.683901 -0.795609 3 0 3 
z
" style="stroke: #ff0000"/>
    </defs>
    <g clip-path="url(#pbb7e009876)">
     <use xlink:href="#m1525085234" x="130.568878" y="281.714754" style="fill: #ff0000; stroke: #ff0000"/>
    </g>
   </g>
   <g id="line2d_3">
    <defs>
     <path id="m40fc802f23" d="M 0 4 
C 1.060812 4 2.078319 3.578535 2.828427 2.828427 
C 3.578535 2.078319 4 1.060812 4 0 
C 4 -1.060812 3.578535 -2.078319 2.828427 -2.828427 
C 2.078319 -3.578535 1.060812 -4 0 -4 
C -1.060812 -4 -2.078319 -3.578535 -2.828427 -2.828427 
C -3.578535 -2.078319 -4 -1.060812 -4 0 
C -4 1.060812 -3.578535 2.078319 -2.828427 2.828427 
C -2.078319 3.578535 -1.060812 4 0 4 
z
" style="stroke: #000000"/>
    </defs>
    <g clip-path="url(#pbb7e009876)">
     <use xlink:href="#m40fc802f23" x="487.932245" y="138.732245" style="stroke: #000000"/>
    </g>
   </g>
   <g id="line2d_4">
    <path d="M 101.593469 331.901633 
L 487.932245 138.732245 
" clip-path="url(#pbb7e009876)" style="fill: none; stroke-dasharray: 3.7,1.6; stroke-dashoffset: 0; stroke: #000000"/>
   </g>
   <g id="line2d_5">
    <path d="M 130.568878 281.714754 
L 487.932245 138.732245 
" clip-path="url(#pbb7e009876)" style="fill: none; stroke: #ff0000; stroke-width: 1.5; stroke-linecap: square"/>
   </g>
   <g id="line2d_6">
    <path d="M 101.593469 331.901633 
L 130.568878 281.714754 
" clip-path="url(#pbb7e009876)" style="fill: none; stroke: #000000; stroke-width: 0.5; stroke-linecap: square"/>
   </g>
   <g id="line2d_7">
    <path d="M 130.568878 281.714754 
L 246.47051 223.763937 
" clip-path="url(#pbb7e009876)" style="fill: none; stroke-dasharray: 5.55,2.4; stroke-dashoffset: 0; stroke: #000000; stroke-opacity: 0.5; stroke-width: 1.5"/>
   </g>
   <g id="text_1">
    <!-- Earth -->
    <g style="fill: #0066cc" transform="translate(86.388782 347.226846) scale(0.1 -0.1)">
     <defs>
      <path id="DejaVuSans-Bold-45" d="M 588 4666 
L 3834 4666 
L 3834 3756 
L 1791 3756 
L 1791 2888 
L 3713 2888 
L 3713 1978 
L 1791 1978 
L 1791 909 
L 3903 909 
L 3903 0 
L 588 0 
L 588 4666 
z
" transform="scale(0.015625)"/>
      <path id="DejaVuSans-Bold-61" d="M 2106 1575 
Q 1756 1575 1579 1456 
Q 1403 1338 1403 1106 
Q 1403 894 1545 773 
Q 1688 653 1941 653 
Q 2256 653 2472 879 
Q 2688 1106 2688 1447 
L 2688 1575 
L 2106 1575 
z
M 3816 1997 
L 3816 0 
L 2688 0 
L 2688 519 
Q 2463 200 2181 54 
Q 1900 -91 1497 -91 
Q 953 -91 614 226 
Q 275 544 275 1050 
Q 275 1666 698 1953 
Q 1122 2241 2028 2241 
L 2688 2241 
L 2688 2328 
Q 2688 2594 2478 2717 
Q 2269 2841 1825 2841 
Q 1466 2841 1156 2769 
Q 847 2697 581 2553 
L 581 3406 
Q 941 3494 1303 3539 
Q 1666 3584 2028 3584 
Q 2975 3584 3395 3211 
Q 3816 2838 3816 1997 
z
" transform="scale(0.015625)"/>
      <path id="DejaVuSans-Bold-72" d="M 3138 2547 
Q 2991 2616 2845 2648 
Q 2700 2681 2553 2681 
Q 2122 2681 1889 2404 
Q 1656 2128 1656 1613 
L 1656 0 
L 538 0 
L 538 3500 
L 1656 3500 
L 1656 2925 
Q 1872 3269 2151 3426 
Q 2431 3584 2822 3584 
Q 2878 3584 2943 3579 
Q 3009 3575 3134 3559 
L 3138 2547 
z
" transform="scale(0.015625)"/>
      <path id="DejaVuSans-Bold-74" d="M 1759 4494 
L 1759 3500 
L 2913 3500 
L 2913 2700 
L 1759 2700 
L 1759 1216 
Q 1759 972 1856 886 
Q 1953 800 2241 800 
L 2816 800 
L 2816 0 
L 1856 0 
Q 1194 0 917 276 
Q 641 553 641 1216 
L 641 2700 
L 84 2700 
L 84 3500 
L 641 3500 
L 641 4494 
L 1759 4494 
z
" transform="scale(0.015625)"/>
      <path id="DejaVuSans-Bold-68" d="M 4056 2131 
L 4056 0 
L 2931 0 
L 2931 347 
L 2931 1625 
Q 2931 2084 2911 2256 
Q 2891 2428 2841 2509 
Q 2775 2619 2662 2680 
Q 2550 2741 2406 2741 
Q 2056 2741 1856 2470 
Q 1656 2200 1656 1722 
L 1656 0 
L 538 0 
L 538 4863 
L 1656 4863 
L 1656 2988 
Q 1909 3294 2193 3439 
Q 2478 3584 2822 3584 
Q 3428 3584 3742 3212 
Q 4056 2841 4056 2131 
z
" transform="scale(0.015625)"/>
     </defs>
     <use xlink:href="#DejaVuSans-Bold-45"/>
     <use xlink:href="#DejaVuSans-Bold-61" transform="translate(68.310547 0)"/>
     <use xlink:href="#DejaVuSans-Bold-72" transform="translate(135.791016 0)"/>
     <use xlink:href="#DejaVuSans-Bold-74" transform="translate(185.107422 0)"/>
     <use xlink:href="#DejaVuSans-Bold-68" transform="translate(232.910156 0)"/>
    </g>
   </g>
   <g id="text_2">
    <!-- O (Geocenter) -->
    <g transform="translate(22.819819 339.628408) scale(0.1 -0.1)">
     <defs>
      <path id="DejaVuSans-4f" d="M 2522 4238 
Q 1834 4238 1429 3725 
Q 1025 3213 1025 2328 
Q 1025 1447 1429 934 
Q 1834 422 2522 422 
Q 3209 422 3611 934 
Q 4013 1447 4013 2328 
Q 4013 3213 3611 3725 
Q 3209 4238 2522 4238 
z
M 2522 4750 
Q 3503 4750 4090 4092 
Q 4678 3434 4678 2328 
Q 4678 1225 4090 567 
Q 3503 -91 2522 -91 
Q 1538 -91 948 565 
Q 359 1222 359 2328 
Q 359 3434 948 4092 
Q 1538 4750 2522 4750 
z
" transform="scale(0.015625)"/>
      <path id="DejaVuSans-20" transform="scale(0.015625)"/>
      <path id="DejaVuSans-28" d="M 1984 4856 
Q 1566 4138 1362 3434 
Q 1159 2731 1159 2009 
Q 1159 1288 1364 580 
Q 1569 -128 1984 -844 
L 1484 -844 
Q 1016 -109 783 600 
Q 550 1309 550 2009 
Q 550 2706 781 3412 
Q 1013 4119 1484 4856 
L 1984 4856 
z
" transform="scale(0.015625)"/>
      <path id="DejaVuSans-47" d="M 3809 666 
L 3809 1919 
L 2778 1919 
L 2778 2438 
L 4434 2438 
L 4434 434 
Q 4069 175 3628 42 
Q 3188 -91 2688 -91 
Q 1594 -91 976 548 
Q 359 1188 359 2328 
Q 359 3472 976 4111 
Q 1594 4750 2688 4750 
Q 3144 4750 3555 4637 
Q 3966 4525 4313 4306 
L 4313 3634 
Q 3963 3931 3569 4081 
Q 3175 4231 2741 4231 
Q 1884 4231 1454 3753 
Q 1025 3275 1025 2328 
Q 1025 1384 1454 906 
Q 1884 428 2741 428 
Q 3075 428 3337 486 
Q 3600 544 3809 666 
z
" transform="scale(0.015625)"/>
      <path id="DejaVuSans-65" d="M 3597 1894 
L 3597 1613 
L 953 1613 
Q 991 1019 1311 708 
Q 1631 397 2203 397 
Q 2534 397 2845 478 
Q 3156 559 3463 722 
L 3463 178 
Q 3153 47 2828 -22 
Q 2503 -91 2169 -91 
Q 1331 -91 842 396 
Q 353 884 353 1716 
Q 353 2575 817 3079 
Q 1281 3584 2069 3584 
Q 2775 3584 3186 3129 
Q 3597 2675 3597 1894 
z
M 3022 2063 
Q 3016 2534 2758 2815 
Q 2500 3097 2075 3097 
Q 1594 3097 1305 2825 
Q 1016 2553 972 2059 
L 3022 2063 
z
" transform="scale(0.015625)"/>
      <path id="DejaVuSans-6f" d="M 1959 3097 
Q 1497 3097 1228 2736 
Q 959 2375 959 1747 
Q 959 1119 1226 758 
Q 1494 397 1959 397 
Q 2419 397 2687 759 
Q 2956 1122 2956 1747 
Q 2956 2369 2687 2733 
Q 2419 3097 1959 3097 
z
M 1959 3584 
Q 2709 3584 3137 3096 
Q 3566 2609 3566 1747 
Q 3566 888 3137 398 
Q 2709 -91 1959 -91 
Q 1206 -91 779 398 
Q 353 888 353 1747 
Q 353 2609 779 3096 
Q 1206 3584 1959 3584 
z
" transform="scale(0.015625)"/>
      <path id="DejaVuSans-63" d="M 3122 3366 
L 3122 2828 
Q 2878 2963 2633 3030 
Q 2388 3097 2138 3097 
Q 1578 3097 1268 2742 
Q 959 2388 959 1747 
Q 959 1106 1268 751 
Q 1578 397 2138 397 
Q 2388 397 2633 464 
Q 2878 531 3122 666 
L 3122 134 
Q 2881 22 2623 -34 
Q 2366 -91 2075 -91 
Q 1284 -91 818 406 
Q 353 903 353 1747 
Q 353 2603 823 3093 
Q 1294 3584 2113 3584 
Q 2378 3584 2631 3529 
Q 2884 3475 3122 3366 
z
" transform="scale(0.015625)"/>
      <path id="DejaVuSans-6e" d="M 3513 2113 
L 3513 0 
L 2938 0 
L 2938 2094 
Q 2938 2591 2744 2837 
Q 2550 3084 2163 3084 
Q 1697 3084 1428 2787 
Q 1159 2491 1159 1978 
L 1159 0 
L 581 0 
L 581 3500 
L 1159 3500 
L 1159 2956 
Q 1366 3272 1645 3428 
Q 1925 3584 2291 3584 
Q 2894 3584 3203 3211 
Q 3513 2838 3513 2113 
z
" transform="scale(0.015625)"/>
      <path id="DejaVuSans-74" d="M 1172 4494 
L 1172 3500 
L 2356 3500 
L 2356 3053 
L 1172 3053 
L 1172 1153 
Q 1172 725 1289 603 
Q 1406 481 1766 481 
L 2356 481 
L 2356 0 
L 1766 0 
Q 1100 0 847 248 
Q 594 497 594 1153 
L 594 3053 
L 172 3053 
L 172 3500 
L 594 3500 
L 594 4494 
L 1172 4494 
z
" transform="scale(0.015625)"/>
      <path id="DejaVuSans-72" d="M 2631 2963 
Q 2534 3019 2420 3045 
Q 2306 3072 2169 3072 
Q 1681 3072 1420 2755 
Q 1159 2438 1159 1844 
L 1159 0 
L 581 0 
L 581 3500 
L 1159 3500 
L 1159 2956 
Q 1341 3275 1631 3429 
Q 1922 3584 2338 3584 
Q 2397 3584 2469 3576 
Q 2541 3569 2628 3553 
L 2631 2963 
z
" transform="scale(0.015625)"/>
      <path id="DejaVuSans-29" d="M 513 4856 
L 1013 4856 
Q 1481 4119 1714 3412 
Q 1947 2706 1947 2009 
Q 1947 1309 1714 600 
Q 1481 -109 1013 -844 
L 513 -844 
Q 928 -128 1133 580 
Q 1338 1288 1338 2009 
Q 1338 2731 1133 3434 
Q 928 4138 513 4856 
z
" transform="scale(0.015625)"/>
     </defs>
     <use xlink:href="#DejaVuSans-4f"/>
     <use xlink:href="#DejaVuSans-20" transform="translate(78.710938 0)"/>
     <use xlink:href="#DejaVuSans-28" transform="translate(110.498047 0)"/>
     <use xlink:href="#DejaVuSans-47" transform="translate(149.511719 0)"/>
     <use xlink:href="#DejaVuSans-65" transform="translate(227.001953 0)"/>
     <use xlink:href="#DejaVuSans-6f" transform="translate(288.525391 0)"/>
     <use xlink:href="#DejaVuSans-63" transform="translate(349.707031 0)"/>
     <use xlink:href="#DejaVuSans-65" transform="translate(404.6875 0)"/>
     <use xlink:href="#DejaVuSans-6e" transform="translate(466.210938 0)"/>
     <use xlink:href="#DejaVuSans-74" transform="translate(529.589844 0)"/>
     <use xlink:href="#DejaVuSans-65" transform="translate(568.798828 0)"/>
     <use xlink:href="#DejaVuSans-72" transform="translate(630.322266 0)"/>
     <use xlink:href="#DejaVuSans-29" transform="translate(671.435547 0)"/>
    </g>
   </g>
   <g id="text_3">
    <!-- P (Observer) -->
    <g style="fill: #ff0000" transform="translate(59.954602 273.987978) scale(0.1 -0.1)">
     <defs>
      <path id="DejaVuSans-50" d="M 1259 4147 
L 1259 2394 
L 2053 2394 
Q 2494 2394 2734 2622 
Q 2975 2850 2975 3272 
Q 2975 3691 2734 3919 
Q 2494 4147 2053 4147 
L 1259 4147 
z
M 628 4666 
L 2053 4666 
Q 2838 4666 3239 4311 
Q 3641 3956 3641 3272 
Q 3641 2581 3239 2228 
Q 2838 1875 2053 1875 
L 1259 1875 
L 1259 0 
L 628 0 
L 628 4666 
z
" transform="scale(0.015625)"/>
      <path id="DejaVuSans-62" d="M 3116 1747 
Q 3116 2381 2855 2742 
Q 2594 3103 2138 3103 
Q 1681 3103 1420 2742 
Q 1159 2381 1159 1747 
Q 1159 1113 1420 752 
Q 1681 391 2138 391 
Q 2594 391 2855 752 
Q 3116 1113 3116 1747 
z
M 1159 2969 
Q 1341 3281 1617 3432 
Q 1894 3584 2278 3584 
Q 2916 3584 3314 3078 
Q 3713 2572 3713 1747 
Q 3713 922 3314 415 
Q 2916 -91 2278 -91 
Q 1894 -91 1617 61 
Q 1341 213 1159 525 
L 1159 0 
L 581 0 
L 581 4863 
L 1159 4863 
L 1159 2969 
z
" transform="scale(0.015625)"/>
      <path id="DejaVuSans-73" d="M 2834 3397 
L 2834 2853 
Q 2591 2978 2328 3040 
Q 2066 3103 1784 3103 
Q 1356 3103 1142 2972 
Q 928 2841 928 2578 
Q 928 2378 1081 2264 
Q 1234 2150 1697 2047 
L 1894 2003 
Q 2506 1872 2764 1633 
Q 3022 1394 3022 966 
Q 3022 478 2636 193 
Q 2250 -91 1575 -91 
Q 1294 -91 989 -36 
Q 684 19 347 128 
L 347 722 
Q 666 556 975 473 
Q 1284 391 1588 391 
Q 1994 391 2212 530 
Q 2431 669 2431 922 
Q 2431 1156 2273 1281 
Q 2116 1406 1581 1522 
L 1381 1569 
Q 847 1681 609 1914 
Q 372 2147 372 2553 
Q 372 3047 722 3315 
Q 1072 3584 1716 3584 
Q 2034 3584 2315 3537 
Q 2597 3491 2834 3397 
z
" transform="scale(0.015625)"/>
      <path id="DejaVuSans-76" d="M 191 3500 
L 800 3500 
L 1894 563 
L 2988 3500 
L 3597 3500 
L 2284 0 
L 1503 0 
L 191 3500 
z
" transform="scale(0.015625)"/>
     </defs>
     <use xlink:href="#DejaVuSans-50"/>
     <use xlink:href="#DejaVuSans-20" transform="translate(60.302734 0)"/>
     <use xlink:href="#DejaVuSans-28" transform="translate(92.089844 0)"/>
     <use xlink:href="#DejaVuSans-4f" transform="translate(131.103516 0)"/>
     <use xlink:href="#DejaVuSans-62" transform="translate(209.814453 0)"/>
     <use xlink:href="#DejaVuSans-73" transform="translate(273.291016 0)"/>
     <use xlink:href="#DejaVuSans-65" transform="translate(325.390625 0)"/>
     <use xlink:href="#DejaVuSans-72" transform="translate(386.914062 0)"/>
     <use xlink:href="#DejaVuSans-76" transform="translate(428.027344 0)"/>
     <use xlink:href="#DejaVuSans-65" transform="translate(487.207031 0)"/>
     <use xlink:href="#DejaVuSans-72" transform="translate(548.730469 0)"/>
     <use xlink:href="#DejaVuSans-29" transform="translate(589.84375 0)"/>
    </g>
   </g>
   <g id="text_4">
    <!-- M (Moon) -->
    <g transform="translate(499.522408 138.732245) scale(0.1 -0.1)">
     <defs>
      <path id="DejaVuSans-4d" d="M 628 4666 
L 1569 4666 
L 2759 1491 
L 3956 4666 
L 4897 4666 
L 4897 0 
L 4281 0 
L 4281 4097 
L 3078 897 
L 2444 897 
L 1241 4097 
L 1241 0 
L 628 0 
L 628 4666 
z
" transform="scale(0.015625)"/>
     </defs>
     <use xlink:href="#DejaVuSans-4d"/>
     <use xlink:href="#DejaVuSans-20" transform="translate(86.279297 0)"/>
     <use xlink:href="#DejaVuSans-28" transform="translate(118.066406 0)"/>
     <use xlink:href="#DejaVuSans-4d" transform="translate(157.080078 0)"/>
     <use xlink:href="#DejaVuSans-6f" transform="translate(243.359375 0)"/>
     <use xlink:href="#DejaVuSans-6f" transform="translate(304.541016 0)"/>
     <use xlink:href="#DejaVuSans-6e" transform="translate(365.722656 0)"/>
     <use xlink:href="#DejaVuSans-29" transform="translate(429.101562 0)"/>
    </g>
   </g>
   <g id="text_5">
    <!-- Z (Zenith) -->
    <g style="fill: #808080" transform="translate(145.056582 248.894538) scale(0.1 -0.1)">
     <defs>
      <path id="DejaVuSans-5a" d="M 359 4666 
L 4025 4666 
L 4025 4184 
L 1075 531 
L 4097 531 
L 4097 0 
L 288 0 
L 288 481 
L 3238 4134 
L 359 4134 
L 359 4666 
z
" transform="scale(0.015625)"/>
      <path id="DejaVuSans-69" d="M 603 3500 
L 1178 3500 
L 1178 0 
L 603 0 
L 603 3500 
z
M 603 4863 
L 1178 4863 
L 1178 4134 
L 603 4134 
L 603 4863 
z
" transform="scale(0.015625)"/>
      <path id="DejaVuSans-68" d="M 3513 2113 
L 3513 0 
L 2938 0 
L 2938 2094 
Q 2938 2591 2744 2837 
Q 2550 3084 2163 3084 
Q 1697 3084 1428 2787 
Q 1159 2491 1159 1978 
L 1159 0 
L 581 0 
L 581 4863 
L 1159 4863 
L 1159 2956 
Q 1366 3272 1645 3428 
Q 1925 3584 2291 3584 
Q 2894 3584 3203 3211 
Q 3513 2838 3513 2113 
z
" transform="scale(0.015625)"/>
     </defs>
     <use xlink:href="#DejaVuSans-5a"/>
     <use xlink:href="#DejaVuSans-20" transform="translate(68.505859 0)"/>
     <use xlink:href="#DejaVuSans-28" transform="translate(100.292969 0)"/>
     <use xlink:href="#DejaVuSans-5a" transform="translate(139.306641 0)"/>
     <use xlink:href="#DejaVuSans-65" transform="translate(207.8125 0)"/>
     <use xlink:href="#DejaVuSans-6e" transform="translate(269.335938 0)"/>
     <use xlink:href="#DejaVuSans-69" transform="translate(332.714844 0)"/>
     <use xlink:href="#DejaVuSans-74" transform="translate(360.498047 0)"/>
     <use xlink:href="#DejaVuSans-68" transform="translate(399.707031 0)"/>
     <use xlink:href="#DejaVuSans-29" transform="translate(463.085938 0)"/>
    </g>
   </g>
   <g id="text_6">
    <!-- $\pi$ (Parallax) -->
    <g style="fill: #800080" transform="translate(418.391265 150.322408) scale(0.12 -0.12)">
     <defs>
      <path id="DejaVuSans-Oblique-3c0" d="M 584 3500 
L 3938 3500 
L 3825 2925 
L 3384 2925 
L 2966 775 
Q 2922 550 2981 450 
Q 3038 353 3209 353 
Q 3256 353 3325 363 
Q 3397 369 3419 372 
L 3338 -44 
Q 3222 -84 3103 -103 
Q 2981 -122 2866 -122 
Q 2491 -122 2388 81 
Q 2284 288 2391 838 
L 2797 2925 
L 1506 2925 
L 938 0 
L 350 0 
L 919 2925 
L 472 2925 
L 584 3500 
z
" transform="scale(0.015625)"/>
      <path id="DejaVuSans-61" d="M 2194 1759 
Q 1497 1759 1228 1600 
Q 959 1441 959 1056 
Q 959 750 1161 570 
Q 1363 391 1709 391 
Q 2188 391 2477 730 
Q 2766 1069 2766 1631 
L 2766 1759 
L 2194 1759 
z
M 3341 1997 
L 3341 0 
L 2766 0 
L 2766 531 
Q 2569 213 2275 61 
Q 1981 -91 1556 -91 
Q 1019 -91 701 211 
Q 384 513 384 1019 
Q 384 1609 779 1909 
Q 1175 2209 1959 2209 
L 2766 2209 
L 2766 2266 
Q 2766 2663 2505 2880 
Q 2244 3097 1772 3097 
Q 1472 3097 1187 3025 
Q 903 2953 641 2809 
L 641 3341 
Q 956 3463 1253 3523 
Q 1550 3584 1831 3584 
Q 2591 3584 2966 3190 
Q 3341 2797 3341 1997 
z
" transform="scale(0.015625)"/>
      <path id="DejaVuSans-6c" d="M 603 4863 
L 1178 4863 
L 1178 0 
L 603 0 
L 603 4863 
z
" transform="scale(0.015625)"/>
      <path id="DejaVuSans-78" d="M 3513 3500 
L 2247 1797 
L 3578 0 
L 2900 0 
L 1881 1375 
L 863 0 
L 184 0 
L 1544 1831 
L 300 3500 
L 978 3500 
L 1906 2253 
L 2834 3500 
L 3513 3500 
z
" transform="scale(0.015625)"/>
     </defs>
     <use xlink:href="#DejaVuSans-Oblique-3c0" transform="translate(0 0.015625)"/>
     <use xlink:href="#DejaVuSans-20" transform="translate(60.205078 0.015625)"/>
     <use xlink:href="#DejaVuSans-28" transform="translate(91.992188 0.015625)"/>
     <use xlink:href="#DejaVuSans-50" transform="translate(131.005859 0.015625)"/>
     <use xlink:href="#DejaVuSans-61" transform="translate(191.308594 0.015625)"/>
     <use xlink:href="#DejaVuSans-72" transform="translate(252.587891 0.015625)"/>
     <use xlink:href="#DejaVuSans-61" transform="translate(293.701172 0.015625)"/>
     <use xlink:href="#DejaVuSans-6c" transform="translate(354.980469 0.015625)"/>
     <use xlink:href="#DejaVuSans-6c" transform="translate(382.763672 0.015625)"/>
     <use xlink:href="#DejaVuSans-61" transform="translate(410.546875 0.015625)"/>
     <use xlink:href="#DejaVuSans-78" transform="translate(471.826172 0.015625)"/>
     <use xlink:href="#DejaVuSans-29" transform="translate(531.005859 0.015625)"/>
    </g>
   </g>
   <g id="text_7">
    <!-- Parallel to OM -->
    <g style="opacity: 0.6" transform="translate(246.47051 223.763937) scale(0.08 -0.08)">
     <use xlink:href="#DejaVuSans-50"/>
     <use xlink:href="#DejaVuSans-61" transform="translate(55.802734 0)"/>
     <use xlink:href="#DejaVuSans-72" transform="translate(117.082031 0)"/>
     <use xlink:href="#DejaVuSans-61" transform="translate(158.195312 0)"/>
     <use xlink:href="#DejaVuSans-6c" transform="translate(219.474609 0)"/>
     <use xlink:href="#DejaVuSans-6c" transform="translate(247.257812 0)"/>
     <use xlink:href="#DejaVuSans-65" transform="translate(275.041016 0)"/>
     <use xlink:href="#DejaVuSans-6c" transform="translate(336.564453 0)"/>
     <use xlink:href="#DejaVuSans-20" transform="translate(364.347656 0)"/>
     <use xlink:href="#DejaVuSans-74" transform="translate(396.134766 0)"/>
     <use xlink:href="#DejaVuSans-6f" transform="translate(435.34375 0)"/>
     <use xlink:href="#DejaVuSans-20" transform="translate(496.525391 0)"/>
     <use xlink:href="#DejaVuSans-4f" transform="translate(528.3125 0)"/>
     <use xlink:href="#DejaVuSans-4d" transform="translate(607.023438 0)"/>
    </g>
   </g>
   <g id="text_8">
    <!-- $z$ -->
    <g style="fill: #0000ff" transform="translate(149.885816 235.3541) scale(0.12 -0.12)">
     <defs>
      <path id="DejaVuSans-Oblique-7a" d="M 744 3500 
L 3475 3500 
L 3372 2975 
L 738 459 
L 2913 459 
L 2822 0 
L -19 0 
L 84 525 
L 2719 3041 
L 653 3041 
L 744 3500 
z
" transform="scale(0.015625)"/>
     </defs>
     <use xlink:href="#DejaVuSans-Oblique-7a" transform="translate(0 0.3125)"/>
    </g>
   </g>
   <g id="text_9">
    <!-- $z'$ -->
    <g style="fill: #ff0000" transform="translate(161.47598 212.173774) scale(0.12 -0.12)">
     <defs>
      <path id="Cmsy10-30" d="M 225 347 
Q 184 359 184 409 
L 966 3316 
Q 1003 3434 1093 3506 
Q 1184 3578 1300 3578 
Q 1450 3578 1564 3479 
Q 1678 3381 1678 3231 
Q 1678 3166 1644 3084 
L 488 319 
Q 466 275 428 275 
Q 394 275 320 306 
Q 247 338 225 347 
z
" transform="scale(0.015625)"/>
     </defs>
     <use xlink:href="#DejaVuSans-Oblique-7a" transform="translate(0 0.584375)"/>
     <use xlink:href="#Cmsy10-30" transform="translate(56.95638 38.865625) scale(0.7)"/>
    </g>
   </g>
   <g id="text_10">
    <!-- $\pi = z' - z$ -->
    <g style="fill: #800080" transform="translate(120.910408 61.46449) scale(0.14 -0.14)">
     <defs>
      <path id="DejaVuSans-3d" d="M 678 2906 
L 4684 2906 
L 4684 2381 
L 678 2381 
L 678 2906 
z
M 678 1631 
L 4684 1631 
L 4684 1100 
L 678 1100 
L 678 1631 
z
" transform="scale(0.015625)"/>
      <path id="DejaVuSans-2212" d="M 678 2272 
L 4684 2272 
L 4684 1741 
L 678 1741 
L 678 2272 
z
" transform="scale(0.015625)"/>
     </defs>
     <use xlink:href="#DejaVuSans-Oblique-3c0" transform="translate(0 0.584375)"/>
     <use xlink:href="#DejaVuSans-3d" transform="translate(79.6875 0.584375)"/>
     <use xlink:href="#DejaVuSans-Oblique-7a" transform="translate(182.958984 0.584375)"/>
     <use xlink:href="#Cmsy10-30" transform="translate(239.915365 38.865625) scale(0.7)"/>
     <use xlink:href="#DejaVuSans-2212" transform="translate(281.375326 0.584375)"/>
     <use xlink:href="#DejaVuSans-Oblique-7a" transform="translate(384.64681 0.584375)"/>
    </g>
   </g>
   <g id="text_11">
    <!-- Parallax Effect: The moon appears lower -->
    <g transform="translate(120.910408 69.341741) scale(0.1 -0.1)">
     <defs>
      <path id="DejaVuSans-45" d="M 628 4666 
L 3578 4666 
L 3578 4134 
L 1259 4134 
L 1259 2753 
L 3481 2753 
L 3481 2222 
L 1259 2222 
L 1259 531 
L 3634 531 
L 3634 0 
L 628 0 
L 628 4666 
z
" transform="scale(0.015625)"/>
      <path id="DejaVuSans-66" d="M 2375 4863 
L 2375 4384 
L 1825 4384 
Q 1516 4384 1395 4259 
Q 1275 4134 1275 3809 
L 1275 3500 
L 2222 3500 
L 2222 3053 
L 1275 3053 
L 1275 0 
L 697 0 
L 697 3053 
L 147 3053 
L 147 3500 
L 697 3500 
L 697 3744 
Q 697 4328 969 4595 
Q 1241 4863 1831 4863 
L 2375 4863 
z
" transform="scale(0.015625)"/>
      <path id="DejaVuSans-3a" d="M 750 794 
L 1409 794 
L 1409 0 
L 750 0 
L 750 794 
z
M 750 3309 
L 1409 3309 
L 1409 2516 
L 750 2516 
L 750 3309 
z
" transform="scale(0.015625)"/>
      <path id="DejaVuSans-54" d="M -19 4666 
L 3928 4666 
L 3928 4134 
L 2272 4134 
L 2272 0 
L 1638 0 
L 1638 4134 
L -19 4134 
L -19 4666 
z
" transform="scale(0.015625)"/>
      <path id="DejaVuSans-6d" d="M 3328 2828 
Q 3544 3216 3844 3400 
Q 4144 3584 4550 3584 
Q 5097 3584 5394 3201 
Q 5691 2819 5691 2113 
L 5691 0 
L 5113 0 
L 5113 2094 
Q 5113 2597 4934 2840 
Q 4756 3084 4391 3084 
Q 3944 3084 3684 2787 
Q 3425 2491 3425 1978 
L 3425 0 
L 2847 0 
L 2847 2094 
Q 2847 2600 2669 2842 
Q 2491 3084 2119 3084 
Q 1678 3084 1418 2786 
Q 1159 2488 1159 1978 
L 1159 0 
L 581 0 
L 581 3500 
L 1159 3500 
L 1159 2956 
Q 1356 3278 1631 3431 
Q 1906 3584 2284 3584 
Q 2666 3584 2933 3390 
Q 3200 3197 3328 2828 
z
" transform="scale(0.015625)"/>
      <path id="DejaVuSans-70" d="M 1159 525 
L 1159 -1331 
L 581 -1331 
L 581 3500 
L 1159 3500 
L 1159 2969 
Q 1341 3281 1617 3432 
Q 1894 3584 2278 3584 
Q 2916 3584 3314 3078 
Q 3713 2572 3713 1747 
Q 3713 922 3314 415 
Q 2916 -91 2278 -91 
Q 1894 -91 1617 61 
Q 1341 213 1159 525 
z
M 3116 1747 
Q 3116 2381 2855 2742 
Q 2594 3103 2138 3103 
Q 1681 3103 1420 2742 
Q 1159 2381 1159 1747 
Q 1159 1113 1420 752 
Q 1681 391 2138 391 
Q 2594 391 2855 752 
Q 3116 1113 3116 1747 
z
" transform="scale(0.015625)"/>
      <path id="DejaVuSans-77" d="M 269 3500 
L 844 3500 
L 1563 769 
L 2278 3500 
L 2956 3500 
L 3675 769 
L 4391 3500 
L 4966 3500 
L 4050 0 
L 3372 0 
L 2619 2869 
L 1863 0 
L 1184 0 
L 269 3500 
z
" transform="scale(0.015625)"/>
     </defs>
     <use xlink:href="#DejaVuSans-50"/>
     <use xlink:href="#DejaVuSans-61" transform="translate(55.802734 0)"/>
     <use xlink:href="#DejaVuSans-72" transform="translate(117.082031 0)"/>
     <use xlink:href="#DejaVuSans-61" transform="translate(158.195312 0)"/>
     <use xlink:href="#DejaVuSans-6c" transform="translate(219.474609 0)"/>
     <use xlink:href="#DejaVuSans-6c" transform="translate(247.257812 0)"/>
     <use xlink:href="#DejaVuSans-61" transform="translate(275.041016 0)"/>
     <use xlink:href="#DejaVuSans-78" transform="translate(336.320312 0)"/>
     <use xlink:href="#DejaVuSans-20" transform="translate(395.5 0)"/>
     <use xlink:href="#DejaVuSans-45" transform="translate(427.287109 0)"/>
     <use xlink:href="#DejaVuSans-66" transform="translate(490.470703 0)"/>
     <use xlink:href="#DejaVuSans-66" transform="translate(525.675781 0)"/>
     <use xlink:href="#DejaVuSans-65" transform="translate(560.880859 0)"/>
     <use xlink:href="#DejaVuSans-63" transform="translate(622.404297 0)"/>
     <use xlink:href="#DejaVuSans-74" transform="translate(677.384766 0)"/>
     <use xlink:href="#DejaVuSans-3a" transform="translate(716.59375 0)"/>
     <use xlink:href="#DejaVuSans-20" transform="translate(750.285156 0)"/>
     <use xlink:href="#DejaVuSans-54" transform="translate(782.072266 0)"/>
     <use xlink:href="#DejaVuSans-68" transform="translate(843.15625 0)"/>
     <use xlink:href="#DejaVuSans-65" transform="translate(906.535156 0)"/>
     <use xlink:href="#DejaVuSans-20" transform="translate(968.058594 0)"/>
     <use xlink:href="#DejaVuSans-6d" transform="translate(999.845703 0)"/>
     <use xlink:href="#DejaVuSans-6f" transform="translate(1097.257812 0)"/>
     <use xlink:href="#DejaVuSans-6f" transform="translate(1158.439453 0)"/>
     <use xlink:href="#DejaVuSans-6e" transform="translate(1219.621094 0)"/>
     <use xlink:href="#DejaVuSans-20" transform="translate(1283 0)"/>
     <use xlink:href="#DejaVuSans-61" transform="translate(1314.787109 0)"/>
     <use xlink:href="#DejaVuSans-70" transform="translate(1376.066406 0)"/>
     <use xlink:href="#DejaVuSans-70" transform="translate(1439.542969 0)"/>
     <use xlink:href="#DejaVuSans-65" transform="translate(1503.019531 0)"/>
     <use xlink:href="#DejaVuSans-61" transform="translate(1564.542969 0)"/>
     <use xlink:href="#DejaVuSans-72" transform="translate(1625.822266 0)"/>
     <use xlink:href="#DejaVuSans-73" transform="translate(1666.935547 0)"/>
     <use xlink:href="#DejaVuSans-20" transform="translate(1719.035156 0)"/>
     <use xlink:href="#DejaVuSans-6c" transform="translate(1750.822266 0)"/>
     <use xlink:href="#DejaVuSans-6f" transform="translate(1778.605469 0)"/>
     <use xlink:href="#DejaVuSans-77" transform="translate(1839.787109 0)"/>
     <use xlink:href="#DejaVuSans-65" transform="translate(1921.574219 0)"/>
     <use xlink:href="#DejaVuSans-72" transform="translate(1983.097656 0)"/>
    </g>
    <!-- in the sky to the observer ($z' &gt; z$) -->
    <g transform="translate(120.910408 80.781429) scale(0.1 -0.1)">
     <defs>
      <path id="DejaVuSans-6b" d="M 581 4863 
L 1159 4863 
L 1159 1991 
L 2875 3500 
L 3609 3500 
L 1753 1863 
L 3688 0 
L 2938 0 
L 1159 1709 
L 1159 0 
L 581 0 
L 581 4863 
z
" transform="scale(0.015625)"/>
      <path id="DejaVuSans-79" d="M 2059 -325 
Q 1816 -950 1584 -1140 
Q 1353 -1331 966 -1331 
L 506 -1331 
L 506 -850 
L 844 -850 
Q 1081 -850 1212 -737 
Q 1344 -625 1503 -206 
L 1606 56 
L 191 3500 
L 800 3500 
L 1894 763 
L 2988 3500 
L 3597 3500 
L 2059 -325 
z
" transform="scale(0.015625)"/>
      <path id="DejaVuSans-3e" d="M 678 3150 
L 678 3719 
L 4684 2266 
L 4684 1747 
L 678 294 
L 678 863 
L 3897 2003 
L 678 3150 
z
" transform="scale(0.015625)"/>
     </defs>
     <use xlink:href="#DejaVuSans-69" transform="translate(0 0.584375)"/>
     <use xlink:href="#DejaVuSans-6e" transform="translate(27.783203 0.584375)"/>
     <use xlink:href="#DejaVuSans-20" transform="translate(91.162109 0.584375)"/>
     <use xlink:href="#DejaVuSans-74" transform="translate(122.949219 0.584375)"/>
     <use xlink:href="#DejaVuSans-68" transform="translate(162.158203 0.584375)"/>
     <use xlink:href="#DejaVuSans-65" transform="translate(225.537109 0.584375)"/>
     <use xlink:href="#DejaVuSans-20" transform="translate(287.060547 0.584375)"/>
     <use xlink:href="#DejaVuSans-73" transform="translate(318.847656 0.584375)"/>
     <use xlink:href="#DejaVuSans-6b" transform="translate(370.947266 0.584375)"/>
     <use xlink:href="#DejaVuSans-79" transform="translate(428.857422 0.584375)"/>
     <use xlink:href="#DejaVuSans-20" transform="translate(488.037109 0.584375)"/>
     <use xlink:href="#DejaVuSans-74" transform="translate(519.824219 0.584375)"/>
     <use xlink:href="#DejaVuSans-6f" transform="translate(559.033203 0.584375)"/>
     <use xlink:href="#DejaVuSans-20" transform="translate(620.214844 0.584375)"/>
     <use xlink:href="#DejaVuSans-74" transform="translate(652.001953 0.584375)"/>
     <use xlink:href="#DejaVuSans-68" transform="translate(691.210938 0.584375)"/>
     <use xlink:href="#DejaVuSans-65" transform="translate(754.589844 0.584375)"/>
     <use xlink:href="#DejaVuSans-20" transform="translate(816.113281 0.584375)"/>
     <use xlink:href="#DejaVuSans-6f" transform="translate(847.900391 0.584375)"/>
     <use xlink:href="#DejaVuSans-62" transform="translate(909.082031 0.584375)"/>
     <use xlink:href="#DejaVuSans-73" transform="translate(972.558594 0.584375)"/>
     <use xlink:href="#DejaVuSans-65" transform="translate(1024.658203 0.584375)"/>
     <use xlink:href="#DejaVuSans-72" transform="translate(1086.181641 0.584375)"/>
     <use xlink:href="#DejaVuSans-76" transform="translate(1127.294922 0.584375)"/>
     <use xlink:href="#DejaVuSans-65" transform="translate(1186.474609 0.584375)"/>
     <use xlink:href="#DejaVuSans-72" transform="translate(1247.998047 0.584375)"/>
     <use xlink:href="#DejaVuSans-20" transform="translate(1289.111328 0.584375)"/>
     <use xlink:href="#DejaVuSans-28" transform="translate(1320.898438 0.584375)"/>
     <use xlink:href="#DejaVuSans-Oblique-7a" transform="translate(1359.912109 0.584375)"/>
     <use xlink:href="#Cmsy10-30" transform="translate(1416.86849 38.865625) scale(0.7)"/>
     <use xlink:href="#DejaVuSans-3e" transform="translate(1458.328451 0.584375)"/>
     <use xlink:href="#DejaVuSans-Oblique-7a" transform="translate(1561.599935 0.584375)"/>
     <use xlink:href="#DejaVuSans-29" transform="translate(1614.090169 0.584375)"/>
    </g>
   </g>
  </g>
 </g>
 <defs>
  <clipPath id="pbb7e009876">
   <rect x="24.325714" y="22.830612" width="540.874286" height="386.338776"/>
  </clipPath>
 </defs>
</svg>
