<?xml version="1.0" encoding="utf-8" standalone="no"?>
<!DOCTYPE svg PUBLIC "-//W3C//DTD SVG 1.1//EN"
  "http://www.w3.org/Graphics/SVG/1.1/DTD/svg11.dtd">
<svg xmlns:xlink="http://www.w3.org/1999/xlink" width="504pt" height="504pt" viewBox="0 0 504 504" xmlns="http://www.w3.org/2000/svg" version="1.1">
 <metadata>
  <rdf:RDF xmlns:dc="http://purl.org/dc/elements/1.1/" xmlns:cc="http://creativecommons.org/ns#" xmlns:rdf="http://www.w3.org/1999/02/22-rdf-syntax-ns#">
   <cc:Work>
    <dc:type rdf:resource="http://purl.org/dc/dcmitype/StillImage"/>
    <dc:date>2025-11-30T19:56:31.756313</dc:date>
    <dc:format>image/svg+xml</dc:format>
    <dc:creator>
     <cc:Agent>
      <dc:title>Matplotlib v3.10.8, https://matplotlib.org/</dc:title>
     </cc:Agent>
    </dc:creator>
   </cc:Work>
  </rdf:RDF>
 </metadata>
 <defs>
  <style type="text/css">*{stroke-linejoin: round; stroke-linecap: butt}</style>
 </defs>
 <g id="figure_1">
  <g id="patch_1">
   <path d="M 0 504 
L 504 504 
L 504 0 
L 0 0 
z
" style="fill: #ffffff"/>
  </g>
  <g id="axes_1">
   <g id="patch_2">
    <path d="M 121.827972 474.055944 
C 146.365441 474.055944 169.901221 464.307104 187.251832 446.956494 
C 204.602442 429.605883 214.351282 406.070103 214.351282 381.532634 
C 214.351282 356.995165 204.602442 333.459384 187.251832 316.108774 
C 169.901221 298.758164 146.365441 289.009324 121.827972 289.009324 
C 97.290503 289.009324 73.754723 298.758164 56.404112 316.108774 
C 39.053502 333.459384 29.304662 356.995165 29.304662 381.532634 
C 29.304662 406.070103 39.053502 429.605883 56.404112 446.956494 
C 73.754723 464.307104 97.290503 474.055944 121.827972 474.055944 
z
" clip-path="url(#pf0950c5d2b)" style="fill: #e6f3ff; stroke: #0066cc; stroke-width: 2; stroke-linejoin: miter"/>
   </g>
   <g id="patch_3">
    <path d="M 229.155011 195.636748 
L 226.808714 207.102519 
L 223.619638 205.261305 
L 168.105652 301.414349 
L 168.073601 301.395845 
L 223.587587 205.242801 
L 220.398511 203.401587 
z
" clip-path="url(#pf0950c5d2b)" style="fill: #808080; stroke: #808080; stroke-linejoin: miter"/>
   </g>
   <g id="patch_4">
    <path d="M 200.140642 282.900435 
C 198.523503 280.099469 196.54615 277.522533 194.259171 275.235553 
C 191.972191 272.948574 189.395255 270.971221 186.594289 269.354082 
" clip-path="url(#pf0950c5d2b)" style="fill: none; stroke: #0000ff; stroke-width: 1.5; stroke-linejoin: miter"/>
   </g>
   <g id="patch_5">
    <path d="M 237.803807 276.531549 
C 234.875777 268.325032 230.521549 260.699624 224.942024 254.007152 
C 219.362498 247.31468 212.644825 241.65968 205.098951 237.303068 
" clip-path="url(#pf0950c5d2b)" style="fill: none; stroke: #ff0000; stroke-width: 1.5; stroke-linejoin: miter"/>
   </g>
   <g id="patch_6">
    <path d="M 255.232352 270.313163 
C 254.294848 267.68558 253.238981 265.101745 252.067988 262.569576 
C 250.896996 260.037408 249.612074 257.559498 248.217164 255.143442 
" clip-path="url(#pf0950c5d2b)" style="fill: none; stroke: #800080; stroke-width: 1.5; stroke-linejoin: miter"/>
   </g>
   <g id="patch_7">
    <path d="M 358.00147 233.645837 
C 358.563972 235.222386 359.197492 236.772687 359.900088 238.291988 
C 360.602683 239.811289 361.373636 241.298036 362.210582 242.747669 
" clip-path="url(#pf0950c5d2b)" style="fill: none; stroke: #800080; stroke-width: 1.5; stroke-linejoin: miter"/>
   </g>
   <g id="line2d_1">
    <defs>
     <path id="mbdfc3739e0" d="M 0 3 
C 0.795609 3 1.55874 2.683901 2.12132 2.12132 
C 2.683901 1.55874 3 0.795609 3 0 
C 3 -0.795609 2.683901 -1.55874 2.12132 -2.12132 
C 1.55874 -2.683901 0.795609 -3 0 -3 
C -0.795609 -3 -1.55874 -2.683901 -2.12132 -2.12132 
C -2.683901 -1.55874 -3 -0.795609 -3 0 
C -3 0.795609 -2.683901 1.55874 -2.12132 2.12132 
C -1.55874 2.683901 -0.795609 3 0 3 
z
" style="stroke: #000000"/>
    </defs>
    <g clip-path="url(#pf0950c5d2b)">
     <use xlink:href="#mbdfc3739e0" x="121.827972" y="381.532634" style="stroke: #000000"/>
    </g>
   </g>
   <g id="line2d_2">
    <defs>
     <path id="m3cd4f949c1" d="M 0 3 
C 0.795609 3 1.55874 2.683901 2.12132 2.12132 
C 2.683901 1.55874 3 0.795609 3 0 
C 3 -0.795609 2.683901 -1.55874 2.12132 -2.12132 
C 1.55874 -2.683901 0.795609 -3 0 -3 
C -0.795609 -3 -1.55874 -2.683901 -2.12132 -2.12132 
C -2.683901 -1.55874 -3 -0.795609 -3 0 
C -3 0.795609 -2.683901 1.55874 -2.12132 2.12132 
C -1.55874 2.683901 -0.795609 3 0 3 
z
" style="stroke: #ff0000"/>
    </defs>
    <g clip-path="url(#pf0950c5d2b)">
     <use xlink:href="#m3cd4f949c1" x="168.089627" y="301.405097" style="fill: #ff0000; stroke: #ff0000"/>
    </g>
   </g>
   <g id="patch_8">
    <path d="M 410.287105 226.093473 
C 413.231601 226.093473 416.055895 224.923612 418.137968 222.841539 
C 420.220041 220.759466 421.389902 217.935172 421.389902 214.990676 
C 421.389902 212.04618 420.220041 209.221886 418.137968 207.139813 
C 416.055895 205.05774 413.231601 203.887879 410.287105 203.887879 
C 407.342608 203.887879 404.518315 205.05774 402.436241 207.139813 
C 400.354168 209.221886 399.184307 212.04618 399.184307 214.990676 
C 399.184307 217.935172 400.354168 220.759466 402.436241 222.841539 
C 404.518315 224.923612 407.342608 226.093473 410.287105 226.093473 
z
" clip-path="url(#pf0950c5d2b)" style="fill: #808080; stroke: #000000; stroke-linejoin: miter"/>
   </g>
   <g id="line2d_3">
    <path d="M 121.827972 381.532634 
L 168.089627 301.405097 
" clip-path="url(#pf0950c5d2b)" style="fill: none; stroke-dasharray: 1,1.65; stroke-dashoffset: 0; stroke: #000000"/>
   </g>
   <g id="line2d_4">
    <path d="M 121.827972 381.532634 
L 410.287105 214.990676 
" clip-path="url(#pf0950c5d2b)" style="fill: none; stroke-dasharray: 5.55,2.4; stroke-dashoffset: 0; stroke: #000000; stroke-width: 1.5"/>
   </g>
   <g id="line2d_5">
    <path d="M 168.089627 301.405097 
L 410.287105 214.990676 
" clip-path="url(#pf0950c5d2b)" style="fill: none; stroke: #ff0000; stroke-width: 2; stroke-linecap: square"/>
   </g>
   <g id="line2d_6">
    <path d="M 168.089627 301.405097 
L 296.293686 227.386449 
" clip-path="url(#pf0950c5d2b)" style="fill: none; stroke-dasharray: 3.7,1.6; stroke-dashoffset: 0; stroke: #000000; stroke-opacity: 0.6"/>
   </g>
   <g id="text_1">
    <!-- Earth -->
    <g style="fill: #0066cc" transform="translate(106.623284 407.635733) scale(0.1 -0.1)">
     <defs>
      <path id="DejaVuSans-Bold-45" d="M 588 4666 
L 3834 4666 
L 3834 3756 
L 1791 3756 
L 1791 2888 
L 3713 2888 
L 3713 1978 
L 1791 1978 
L 1791 909 
L 3903 909 
L 3903 0 
L 588 0 
L 588 4666 
z
" transform="scale(0.015625)"/>
      <path id="DejaVuSans-Bold-61" d="M 2106 1575 
Q 1756 1575 1579 1456 
Q 1403 1338 1403 1106 
Q 1403 894 1545 773 
Q 1688 653 1941 653 
Q 2256 653 2472 879 
Q 2688 1106 2688 1447 
L 2688 1575 
L 2106 1575 
z
M 3816 1997 
L 3816 0 
L 2688 0 
L 2688 519 
Q 2463 200 2181 54 
Q 1900 -91 1497 -91 
Q 953 -91 614 226 
Q 275 544 275 1050 
Q 275 1666 698 1953 
Q 1122 2241 2028 2241 
L 2688 2241 
L 2688 2328 
Q 2688 2594 2478 2717 
Q 2269 2841 1825 2841 
Q 1466 2841 1156 2769 
Q 847 2697 581 2553 
L 581 3406 
Q 941 3494 1303 3539 
Q 1666 3584 2028 3584 
Q 2975 3584 3395 3211 
Q 3816 2838 3816 1997 
z
" transform="scale(0.015625)"/>
      <path id="DejaVuSans-Bold-72" d="M 3138 2547 
Q 2991 2616 2845 2648 
Q 2700 2681 2553 2681 
Q 2122 2681 1889 2404 
Q 1656 2128 1656 1613 
L 1656 0 
L 538 0 
L 538 3500 
L 1656 3500 
L 1656 2925 
Q 1872 3269 2151 3426 
Q 2431 3584 2822 3584 
Q 2878 3584 2943 3579 
Q 3009 3575 3134 3559 
L 3138 2547 
z
" transform="scale(0.015625)"/>
      <path id="DejaVuSans-Bold-74" d="M 1759 4494 
L 1759 3500 
L 2913 3500 
L 2913 2700 
L 1759 2700 
L 1759 1216 
Q 1759 972 1856 886 
Q 1953 800 2241 800 
L 2816 800 
L 2816 0 
L 1856 0 
Q 1194 0 917 276 
Q 641 553 641 1216 
L 641 2700 
L 84 2700 
L 84 3500 
L 641 3500 
L 641 4494 
L 1759 4494 
z
" transform="scale(0.015625)"/>
      <path id="DejaVuSans-Bold-68" d="M 4056 2131 
L 4056 0 
L 2931 0 
L 2931 347 
L 2931 1625 
Q 2931 2084 2911 2256 
Q 2891 2428 2841 2509 
Q 2775 2619 2662 2680 
Q 2550 2741 2406 2741 
Q 2056 2741 1856 2470 
Q 1656 2200 1656 1722 
L 1656 0 
L 538 0 
L 538 4863 
L 1656 4863 
L 1656 2988 
Q 1909 3294 2193 3439 
Q 2478 3584 2822 3584 
Q 3428 3584 3742 3212 
Q 4056 2841 4056 2131 
z
" transform="scale(0.015625)"/>
     </defs>
     <use xlink:href="#DejaVuSans-Bold-45"/>
     <use xlink:href="#DejaVuSans-Bold-61" transform="translate(68.310547 0)"/>
     <use xlink:href="#DejaVuSans-Bold-72" transform="translate(135.791016 0)"/>
     <use xlink:href="#DejaVuSans-Bold-74" transform="translate(185.107422 0)"/>
     <use xlink:href="#DejaVuSans-Bold-68" transform="translate(232.910156 0)"/>
    </g>
   </g>
   <g id="text_2">
    <!-- O (Geocenter) -->
    <g transform="translate(39.6783 392.635431) scale(0.1 -0.1)">
     <defs>
      <path id="DejaVuSans-4f" d="M 2522 4238 
Q 1834 4238 1429 3725 
Q 1025 3213 1025 2328 
Q 1025 1447 1429 934 
Q 1834 422 2522 422 
Q 3209 422 3611 934 
Q 4013 1447 4013 2328 
Q 4013 3213 3611 3725 
Q 3209 4238 2522 4238 
z
M 2522 4750 
Q 3503 4750 4090 4092 
Q 4678 3434 4678 2328 
Q 4678 1225 4090 567 
Q 3503 -91 2522 -91 
Q 1538 -91 948 565 
Q 359 1222 359 2328 
Q 359 3434 948 4092 
Q 1538 4750 2522 4750 
z
" transform="scale(0.015625)"/>
      <path id="DejaVuSans-20" transform="scale(0.015625)"/>
      <path id="DejaVuSans-28" d="M 1984 4856 
Q 1566 4138 1362 3434 
Q 1159 2731 1159 2009 
Q 1159 1288 1364 580 
Q 1569 -128 1984 -844 
L 1484 -844 
Q 1016 -109 783 600 
Q 550 1309 550 2009 
Q 550 2706 781 3412 
Q 1013 4119 1484 4856 
L 1984 4856 
z
" transform="scale(0.015625)"/>
      <path id="DejaVuSans-47" d="M 3809 666 
L 3809 1919 
L 2778 1919 
L 2778 2438 
L 4434 2438 
L 4434 434 
Q 4069 175 3628 42 
Q 3188 -91 2688 -91 
Q 1594 -91 976 548 
Q 359 1188 359 2328 
Q 359 3472 976 4111 
Q 1594 4750 2688 4750 
Q 3144 4750 3555 4637 
Q 3966 4525 4313 4306 
L 4313 3634 
Q 3963 3931 3569 4081 
Q 3175 4231 2741 4231 
Q 1884 4231 1454 3753 
Q 1025 3275 1025 2328 
Q 1025 1384 1454 906 
Q 1884 428 2741 428 
Q 3075 428 3337 486 
Q 3600 544 3809 666 
z
" transform="scale(0.015625)"/>
      <path id="DejaVuSans-65" d="M 3597 1894 
L 3597 1613 
L 953 1613 
Q 991 1019 1311 708 
Q 1631 397 2203 397 
Q 2534 397 2845 478 
Q 3156 559 3463 722 
L 3463 178 
Q 3153 47 2828 -22 
Q 2503 -91 2169 -91 
Q 1331 -91 842 396 
Q 353 884 353 1716 
Q 353 2575 817 3079 
Q 1281 3584 2069 3584 
Q 2775 3584 3186 3129 
Q 3597 2675 3597 1894 
z
M 3022 2063 
Q 3016 2534 2758 2815 
Q 2500 3097 2075 3097 
Q 1594 3097 1305 2825 
Q 1016 2553 972 2059 
L 3022 2063 
z
" transform="scale(0.015625)"/>
      <path id="DejaVuSans-6f" d="M 1959 3097 
Q 1497 3097 1228 2736 
Q 959 2375 959 1747 
Q 959 1119 1226 758 
Q 1494 397 1959 397 
Q 2419 397 2687 759 
Q 2956 1122 2956 1747 
Q 2956 2369 2687 2733 
Q 2419 3097 1959 3097 
z
M 1959 3584 
Q 2709 3584 3137 3096 
Q 3566 2609 3566 1747 
Q 3566 888 3137 398 
Q 2709 -91 1959 -91 
Q 1206 -91 779 398 
Q 353 888 353 1747 
Q 353 2609 779 3096 
Q 1206 3584 1959 3584 
z
" transform="scale(0.015625)"/>
      <path id="DejaVuSans-63" d="M 3122 3366 
L 3122 2828 
Q 2878 2963 2633 3030 
Q 2388 3097 2138 3097 
Q 1578 3097 1268 2742 
Q 959 2388 959 1747 
Q 959 1106 1268 751 
Q 1578 397 2138 397 
Q 2388 397 2633 464 
Q 2878 531 3122 666 
L 3122 134 
Q 2881 22 2623 -34 
Q 2366 -91 2075 -91 
Q 1284 -91 818 406 
Q 353 903 353 1747 
Q 353 2603 823 3093 
Q 1294 3584 2113 3584 
Q 2378 3584 2631 3529 
Q 2884 3475 3122 3366 
z
" transform="scale(0.015625)"/>
      <path id="DejaVuSans-6e" d="M 3513 2113 
L 3513 0 
L 2938 0 
L 2938 2094 
Q 2938 2591 2744 2837 
Q 2550 3084 2163 3084 
Q 1697 3084 1428 2787 
Q 1159 2491 1159 1978 
L 1159 0 
L 581 0 
L 581 3500 
L 1159 3500 
L 1159 2956 
Q 1366 3272 1645 3428 
Q 1925 3584 2291 3584 
Q 2894 3584 3203 3211 
Q 3513 2838 3513 2113 
z
" transform="scale(0.015625)"/>
      <path id="DejaVuSans-74" d="M 1172 4494 
L 1172 3500 
L 2356 3500 
L 2356 3053 
L 1172 3053 
L 1172 1153 
Q 1172 725 1289 603 
Q 1406 481 1766 481 
L 2356 481 
L 2356 0 
L 1766 0 
Q 1100 0 847 248 
Q 594 497 594 1153 
L 594 3053 
L 172 3053 
L 172 3500 
L 594 3500 
L 594 4494 
L 1172 4494 
z
" transform="scale(0.015625)"/>
      <path id="DejaVuSans-72" d="M 2631 2963 
Q 2534 3019 2420 3045 
Q 2306 3072 2169 3072 
Q 1681 3072 1420 2755 
Q 1159 2438 1159 1844 
L 1159 0 
L 581 0 
L 581 3500 
L 1159 3500 
L 1159 2956 
Q 1341 3275 1631 3429 
Q 1922 3584 2338 3584 
Q 2397 3584 2469 3576 
Q 2541 3569 2628 3553 
L 2631 2963 
z
" transform="scale(0.015625)"/>
      <path id="DejaVuSans-29" d="M 513 4856 
L 1013 4856 
Q 1481 4119 1714 3412 
Q 1947 2706 1947 2009 
Q 1947 1309 1714 600 
Q 1481 -109 1013 -844 
L 513 -844 
Q 928 -128 1133 580 
Q 1338 1288 1338 2009 
Q 1338 2731 1133 3434 
Q 928 4138 513 4856 
z
" transform="scale(0.015625)"/>
     </defs>
     <use xlink:href="#DejaVuSans-4f"/>
     <use xlink:href="#DejaVuSans-20" transform="translate(78.710938 0)"/>
     <use xlink:href="#DejaVuSans-28" transform="translate(110.498047 0)"/>
     <use xlink:href="#DejaVuSans-47" transform="translate(149.511719 0)"/>
     <use xlink:href="#DejaVuSans-65" transform="translate(227.001953 0)"/>
     <use xlink:href="#DejaVuSans-6f" transform="translate(288.525391 0)"/>
     <use xlink:href="#DejaVuSans-63" transform="translate(349.707031 0)"/>
     <use xlink:href="#DejaVuSans-65" transform="translate(404.6875 0)"/>
     <use xlink:href="#DejaVuSans-6e" transform="translate(466.210938 0)"/>
     <use xlink:href="#DejaVuSans-74" transform="translate(529.589844 0)"/>
     <use xlink:href="#DejaVuSans-65" transform="translate(568.798828 0)"/>
     <use xlink:href="#DejaVuSans-72" transform="translate(630.322266 0)"/>
     <use xlink:href="#DejaVuSans-29" transform="translate(671.435547 0)"/>
    </g>
   </g>
   <g id="text_3">
    <!-- P (Observer) -->
    <g style="fill: #ff0000" transform="translate(96.580252 282.900435) scale(0.1 -0.1)">
     <defs>
      <path id="DejaVuSans-Bold-50" d="M 588 4666 
L 2584 4666 
Q 3475 4666 3951 4270 
Q 4428 3875 4428 3144 
Q 4428 2409 3951 2014 
Q 3475 1619 2584 1619 
L 1791 1619 
L 1791 0 
L 588 0 
L 588 4666 
z
M 1791 3794 
L 1791 2491 
L 2456 2491 
Q 2806 2491 2997 2661 
Q 3188 2831 3188 3144 
Q 3188 3456 2997 3625 
Q 2806 3794 2456 3794 
L 1791 3794 
z
" transform="scale(0.015625)"/>
      <path id="DejaVuSans-Bold-20" transform="scale(0.015625)"/>
      <path id="DejaVuSans-Bold-28" d="M 2413 -844 
L 1484 -844 
Q 1006 -72 778 623 
Q 550 1319 550 2003 
Q 550 2688 779 3389 
Q 1009 4091 1484 4856 
L 2413 4856 
Q 2013 4116 1813 3408 
Q 1613 2700 1613 2009 
Q 1613 1319 1811 609 
Q 2009 -100 2413 -844 
z
" transform="scale(0.015625)"/>
      <path id="DejaVuSans-Bold-4f" d="M 2719 3878 
Q 2169 3878 1866 3472 
Q 1563 3066 1563 2328 
Q 1563 1594 1866 1187 
Q 2169 781 2719 781 
Q 3272 781 3575 1187 
Q 3878 1594 3878 2328 
Q 3878 3066 3575 3472 
Q 3272 3878 2719 3878 
z
M 2719 4750 
Q 3844 4750 4481 4106 
Q 5119 3463 5119 2328 
Q 5119 1197 4481 553 
Q 3844 -91 2719 -91 
Q 1597 -91 958 553 
Q 319 1197 319 2328 
Q 319 3463 958 4106 
Q 1597 4750 2719 4750 
z
" transform="scale(0.015625)"/>
      <path id="DejaVuSans-Bold-62" d="M 2400 722 
Q 2759 722 2948 984 
Q 3138 1247 3138 1747 
Q 3138 2247 2948 2509 
Q 2759 2772 2400 2772 
Q 2041 2772 1848 2508 
Q 1656 2244 1656 1747 
Q 1656 1250 1848 986 
Q 2041 722 2400 722 
z
M 1656 2988 
Q 1888 3294 2169 3439 
Q 2450 3584 2816 3584 
Q 3463 3584 3878 3070 
Q 4294 2556 4294 1747 
Q 4294 938 3878 423 
Q 3463 -91 2816 -91 
Q 2450 -91 2169 54 
Q 1888 200 1656 506 
L 1656 0 
L 538 0 
L 538 4863 
L 1656 4863 
L 1656 2988 
z
" transform="scale(0.015625)"/>
      <path id="DejaVuSans-Bold-73" d="M 3272 3391 
L 3272 2541 
Q 2913 2691 2578 2766 
Q 2244 2841 1947 2841 
Q 1628 2841 1473 2761 
Q 1319 2681 1319 2516 
Q 1319 2381 1436 2309 
Q 1553 2238 1856 2203 
L 2053 2175 
Q 2913 2066 3209 1816 
Q 3506 1566 3506 1031 
Q 3506 472 3093 190 
Q 2681 -91 1863 -91 
Q 1516 -91 1145 -36 
Q 775 19 384 128 
L 384 978 
Q 719 816 1070 734 
Q 1422 653 1784 653 
Q 2113 653 2278 743 
Q 2444 834 2444 1013 
Q 2444 1163 2330 1236 
Q 2216 1309 1875 1350 
L 1678 1375 
Q 931 1469 631 1722 
Q 331 1975 331 2491 
Q 331 3047 712 3315 
Q 1094 3584 1881 3584 
Q 2191 3584 2531 3537 
Q 2872 3491 3272 3391 
z
" transform="scale(0.015625)"/>
      <path id="DejaVuSans-Bold-65" d="M 4031 1759 
L 4031 1441 
L 1416 1441 
Q 1456 1047 1700 850 
Q 1944 653 2381 653 
Q 2734 653 3104 758 
Q 3475 863 3866 1075 
L 3866 213 
Q 3469 63 3072 -14 
Q 2675 -91 2278 -91 
Q 1328 -91 801 392 
Q 275 875 275 1747 
Q 275 2603 792 3093 
Q 1309 3584 2216 3584 
Q 3041 3584 3536 3087 
Q 4031 2591 4031 1759 
z
M 2881 2131 
Q 2881 2450 2695 2645 
Q 2509 2841 2209 2841 
Q 1884 2841 1681 2658 
Q 1478 2475 1428 2131 
L 2881 2131 
z
" transform="scale(0.015625)"/>
      <path id="DejaVuSans-Bold-76" d="M 97 3500 
L 1216 3500 
L 2088 1081 
L 2956 3500 
L 4078 3500 
L 2700 0 
L 1472 0 
L 97 3500 
z
" transform="scale(0.015625)"/>
      <path id="DejaVuSans-Bold-29" d="M 513 -844 
Q 913 -100 1113 609 
Q 1313 1319 1313 2009 
Q 1313 2700 1113 3408 
Q 913 4116 513 4856 
L 1441 4856 
Q 1916 4091 2145 3389 
Q 2375 2688 2375 2003 
Q 2375 1319 2147 623 
Q 1919 -72 1441 -844 
L 513 -844 
z
" transform="scale(0.015625)"/>
     </defs>
     <use xlink:href="#DejaVuSans-Bold-50"/>
     <use xlink:href="#DejaVuSans-Bold-20" transform="translate(73.291016 0)"/>
     <use xlink:href="#DejaVuSans-Bold-28" transform="translate(108.105469 0)"/>
     <use xlink:href="#DejaVuSans-Bold-4f" transform="translate(153.808594 0)"/>
     <use xlink:href="#DejaVuSans-Bold-62" transform="translate(238.818359 0)"/>
     <use xlink:href="#DejaVuSans-Bold-73" transform="translate(310.400391 0)"/>
     <use xlink:href="#DejaVuSans-Bold-65" transform="translate(369.921875 0)"/>
     <use xlink:href="#DejaVuSans-Bold-72" transform="translate(437.744141 0)"/>
     <use xlink:href="#DejaVuSans-Bold-76" transform="translate(487.060547 0)"/>
     <use xlink:href="#DejaVuSans-Bold-65" transform="translate(552.246094 0)"/>
     <use xlink:href="#DejaVuSans-Bold-72" transform="translate(620.068359 0)"/>
     <use xlink:href="#DejaVuSans-Bold-29" transform="translate(669.384766 0)"/>
    </g>
   </g>
   <g id="text_4">
    <!-- M (Moon) -->
    <g transform="translate(428.791767 217.750051) scale(0.1 -0.1)">
     <defs>
      <path id="DejaVuSans-Bold-4d" d="M 588 4666 
L 2119 4666 
L 3181 2169 
L 4250 4666 
L 5778 4666 
L 5778 0 
L 4641 0 
L 4641 3413 
L 3566 897 
L 2803 897 
L 1728 3413 
L 1728 0 
L 588 0 
L 588 4666 
z
" transform="scale(0.015625)"/>
      <path id="DejaVuSans-Bold-6f" d="M 2203 2784 
Q 1831 2784 1636 2517 
Q 1441 2250 1441 1747 
Q 1441 1244 1636 976 
Q 1831 709 2203 709 
Q 2569 709 2762 976 
Q 2956 1244 2956 1747 
Q 2956 2250 2762 2517 
Q 2569 2784 2203 2784 
z
M 2203 3584 
Q 3106 3584 3614 3096 
Q 4122 2609 4122 1747 
Q 4122 884 3614 396 
Q 3106 -91 2203 -91 
Q 1297 -91 786 396 
Q 275 884 275 1747 
Q 275 2609 786 3096 
Q 1297 3584 2203 3584 
z
" transform="scale(0.015625)"/>
      <path id="DejaVuSans-Bold-6e" d="M 4056 2131 
L 4056 0 
L 2931 0 
L 2931 347 
L 2931 1631 
Q 2931 2084 2911 2256 
Q 2891 2428 2841 2509 
Q 2775 2619 2662 2680 
Q 2550 2741 2406 2741 
Q 2056 2741 1856 2470 
Q 1656 2200 1656 1722 
L 1656 0 
L 538 0 
L 538 3500 
L 1656 3500 
L 1656 2988 
Q 1909 3294 2193 3439 
Q 2478 3584 2822 3584 
Q 3428 3584 3742 3212 
Q 4056 2841 4056 2131 
z
" transform="scale(0.015625)"/>
     </defs>
     <use xlink:href="#DejaVuSans-Bold-4d"/>
     <use xlink:href="#DejaVuSans-Bold-20" transform="translate(99.511719 0)"/>
     <use xlink:href="#DejaVuSans-Bold-28" transform="translate(134.326172 0)"/>
     <use xlink:href="#DejaVuSans-Bold-4d" transform="translate(180.029297 0)"/>
     <use xlink:href="#DejaVuSans-Bold-6f" transform="translate(279.541016 0)"/>
     <use xlink:href="#DejaVuSans-Bold-6f" transform="translate(348.242188 0)"/>
     <use xlink:href="#DejaVuSans-Bold-6e" transform="translate(416.943359 0)"/>
     <use xlink:href="#DejaVuSans-Bold-29" transform="translate(488.134766 0)"/>
    </g>
   </g>
   <g id="text_5">
    <!-- Z (Zenith) -->
    <g style="fill: #808080" transform="translate(198.499707 194.149256) scale(0.1 -0.1)">
     <defs>
      <path id="DejaVuSans-5a" d="M 359 4666 
L 4025 4666 
L 4025 4184 
L 1075 531 
L 4097 531 
L 4097 0 
L 288 0 
L 288 481 
L 3238 4134 
L 359 4134 
L 359 4666 
z
" transform="scale(0.015625)"/>
      <path id="DejaVuSans-69" d="M 603 3500 
L 1178 3500 
L 1178 0 
L 603 0 
L 603 3500 
z
M 603 4863 
L 1178 4863 
L 1178 4134 
L 603 4134 
L 603 4863 
z
" transform="scale(0.015625)"/>
      <path id="DejaVuSans-68" d="M 3513 2113 
L 3513 0 
L 2938 0 
L 2938 2094 
Q 2938 2591 2744 2837 
Q 2550 3084 2163 3084 
Q 1697 3084 1428 2787 
Q 1159 2491 1159 1978 
L 1159 0 
L 581 0 
L 581 4863 
L 1159 4863 
L 1159 2956 
Q 1366 3272 1645 3428 
Q 1925 3584 2291 3584 
Q 2894 3584 3203 3211 
Q 3513 2838 3513 2113 
z
" transform="scale(0.015625)"/>
     </defs>
     <use xlink:href="#DejaVuSans-5a"/>
     <use xlink:href="#DejaVuSans-20" transform="translate(68.505859 0)"/>
     <use xlink:href="#DejaVuSans-28" transform="translate(100.292969 0)"/>
     <use xlink:href="#DejaVuSans-5a" transform="translate(139.306641 0)"/>
     <use xlink:href="#DejaVuSans-65" transform="translate(207.8125 0)"/>
     <use xlink:href="#DejaVuSans-6e" transform="translate(269.335938 0)"/>
     <use xlink:href="#DejaVuSans-69" transform="translate(332.714844 0)"/>
     <use xlink:href="#DejaVuSans-74" transform="translate(360.498047 0)"/>
     <use xlink:href="#DejaVuSans-68" transform="translate(399.707031 0)"/>
     <use xlink:href="#DejaVuSans-29" transform="translate(463.085938 0)"/>
    </g>
   </g>
   <g id="text_6">
    <!-- Parallel to OM -->
    <g style="opacity: 0.6" transform="translate(296.293686 227.386449) scale(0.09 -0.09)">
     <defs>
      <path id="DejaVuSans-50" d="M 1259 4147 
L 1259 2394 
L 2053 2394 
Q 2494 2394 2734 2622 
Q 2975 2850 2975 3272 
Q 2975 3691 2734 3919 
Q 2494 4147 2053 4147 
L 1259 4147 
z
M 628 4666 
L 2053 4666 
Q 2838 4666 3239 4311 
Q 3641 3956 3641 3272 
Q 3641 2581 3239 2228 
Q 2838 1875 2053 1875 
L 1259 1875 
L 1259 0 
L 628 0 
L 628 4666 
z
" transform="scale(0.015625)"/>
      <path id="DejaVuSans-61" d="M 2194 1759 
Q 1497 1759 1228 1600 
Q 959 1441 959 1056 
Q 959 750 1161 570 
Q 1363 391 1709 391 
Q 2188 391 2477 730 
Q 2766 1069 2766 1631 
L 2766 1759 
L 2194 1759 
z
M 3341 1997 
L 3341 0 
L 2766 0 
L 2766 531 
Q 2569 213 2275 61 
Q 1981 -91 1556 -91 
Q 1019 -91 701 211 
Q 384 513 384 1019 
Q 384 1609 779 1909 
Q 1175 2209 1959 2209 
L 2766 2209 
L 2766 2266 
Q 2766 2663 2505 2880 
Q 2244 3097 1772 3097 
Q 1472 3097 1187 3025 
Q 903 2953 641 2809 
L 641 3341 
Q 956 3463 1253 3523 
Q 1550 3584 1831 3584 
Q 2591 3584 2966 3190 
Q 3341 2797 3341 1997 
z
" transform="scale(0.015625)"/>
      <path id="DejaVuSans-6c" d="M 603 4863 
L 1178 4863 
L 1178 0 
L 603 0 
L 603 4863 
z
" transform="scale(0.015625)"/>
      <path id="DejaVuSans-4d" d="M 628 4666 
L 1569 4666 
L 2759 1491 
L 3956 4666 
L 4897 4666 
L 4897 0 
L 4281 0 
L 4281 4097 
L 3078 897 
L 2444 897 
L 1241 4097 
L 1241 0 
L 628 0 
L 628 4666 
z
" transform="scale(0.015625)"/>
     </defs>
     <use xlink:href="#DejaVuSans-50"/>
     <use xlink:href="#DejaVuSans-61" transform="translate(55.802734 0)"/>
     <use xlink:href="#DejaVuSans-72" transform="translate(117.082031 0)"/>
     <use xlink:href="#DejaVuSans-61" transform="translate(158.195312 0)"/>
     <use xlink:href="#DejaVuSans-6c" transform="translate(219.474609 0)"/>
     <use xlink:href="#DejaVuSans-6c" transform="translate(247.257812 0)"/>
     <use xlink:href="#DejaVuSans-65" transform="translate(275.041016 0)"/>
     <use xlink:href="#DejaVuSans-6c" transform="translate(336.564453 0)"/>
     <use xlink:href="#DejaVuSans-20" transform="translate(364.347656 0)"/>
     <use xlink:href="#DejaVuSans-74" transform="translate(396.134766 0)"/>
     <use xlink:href="#DejaVuSans-6f" transform="translate(435.34375 0)"/>
     <use xlink:href="#DejaVuSans-20" transform="translate(496.525391 0)"/>
     <use xlink:href="#DejaVuSans-4f" transform="translate(528.3125 0)"/>
     <use xlink:href="#DejaVuSans-4d" transform="translate(607.023438 0)"/>
    </g>
   </g>
   <g id="text_7">
    <!-- $z$ -->
    <g style="fill: #0000ff" transform="translate(199.49308 270.001644) scale(0.14 -0.14)">
     <defs>
      <path id="DejaVuSans-Oblique-7a" d="M 744 3500 
L 3475 3500 
L 3372 2975 
L 738 459 
L 2913 459 
L 2822 0 
L -19 0 
L 84 525 
L 2719 3041 
L 653 3041 
L 744 3500 
z
" transform="scale(0.015625)"/>
     </defs>
     <use xlink:href="#DejaVuSans-Oblique-7a" transform="translate(0 0.3125)"/>
    </g>
   </g>
   <g id="text_8">
    <!-- $z'$ -->
    <g style="fill: #ff0000" transform="translate(233.469883 246.89746) scale(0.14 -0.14)">
     <defs>
      <path id="Cmsy10-30" d="M 225 347 
Q 184 359 184 409 
L 966 3316 
Q 1003 3434 1093 3506 
Q 1184 3578 1300 3578 
Q 1450 3578 1564 3479 
Q 1678 3381 1678 3231 
Q 1678 3166 1644 3084 
L 488 319 
Q 466 275 428 275 
Q 394 275 320 306 
Q 247 338 225 347 
z
" transform="scale(0.015625)"/>
     </defs>
     <use xlink:href="#DejaVuSans-Oblique-7a" transform="translate(0 0.584375)"/>
     <use xlink:href="#Cmsy10-30" transform="translate(56.95638 38.865625) scale(0.7)"/>
    </g>
   </g>
   <g id="text_9">
    <!-- $\pi_p$ -->
    <g style="fill: #800080" transform="translate(262.145392 257.909314) scale(0.14 -0.14)">
     <defs>
      <path id="DejaVuSans-Oblique-3c0" d="M 584 3500 
L 3938 3500 
L 3825 2925 
L 3384 2925 
L 2966 775 
Q 2922 550 2981 450 
Q 3038 353 3209 353 
Q 3256 353 3325 363 
Q 3397 369 3419 372 
L 3338 -44 
Q 3222 -84 3103 -103 
Q 2981 -122 2866 -122 
Q 2491 -122 2388 81 
Q 2284 288 2391 838 
L 2797 2925 
L 1506 2925 
L 938 0 
L 350 0 
L 919 2925 
L 472 2925 
L 584 3500 
z
" transform="scale(0.015625)"/>
      <path id="DejaVuSans-Oblique-70" d="M 3175 2156 
Q 3175 2616 2975 2859 
Q 2775 3103 2400 3103 
Q 2144 3103 1911 2972 
Q 1678 2841 1497 2591 
Q 1319 2344 1212 1994 
Q 1106 1644 1106 1300 
Q 1106 863 1306 627 
Q 1506 391 1875 391 
Q 2147 391 2380 519 
Q 2613 647 2778 891 
Q 2956 1147 3065 1494 
Q 3175 1841 3175 2156 
z
M 1394 2969 
Q 1625 3272 1939 3428 
Q 2253 3584 2638 3584 
Q 3175 3584 3472 3232 
Q 3769 2881 3769 2247 
Q 3769 1728 3584 1258 
Q 3400 788 3053 416 
Q 2822 169 2531 39 
Q 2241 -91 1919 -91 
Q 1547 -91 1294 64 
Q 1041 219 916 525 
L 556 -1331 
L -19 -1331 
L 922 3500 
L 1497 3500 
L 1394 2969 
z
" transform="scale(0.015625)"/>
     </defs>
     <use xlink:href="#DejaVuSans-Oblique-3c0" transform="translate(0 0.3125)"/>
     <use xlink:href="#DejaVuSans-Oblique-70" transform="translate(60.205078 -16.09375) scale(0.7)"/>
    </g>
   </g>
   <g id="text_10">
    <!-- $\pi_p$ -->
    <g style="fill: #800080" transform="translate(373.277781 252) scale(0.12 -0.12)">
     <use xlink:href="#DejaVuSans-Oblique-3c0" transform="translate(0 0.3125)"/>
     <use xlink:href="#DejaVuSans-Oblique-70" transform="translate(60.205078 -16.09375) scale(0.7)"/>
    </g>
   </g>
   <g id="text_11">
    <g id="patch_9">
     <path d="M 30.896061 94.43683 
L 225.896061 94.43683 
L 225.896061 31.535455 
L 30.896061 31.535455 
z
" style="fill: #ffffff; opacity: 0.8; stroke: #808080; stroke-linejoin: miter"/>
    </g>
    <!-- $\pi_p$: Parallax Angle -->
    <g transform="translate(34.856061 44.615455) scale(0.12 -0.12)">
     <defs>
      <path id="DejaVuSans-3a" d="M 750 794 
L 1409 794 
L 1409 0 
L 750 0 
L 750 794 
z
M 750 3309 
L 1409 3309 
L 1409 2516 
L 750 2516 
L 750 3309 
z
" transform="scale(0.015625)"/>
      <path id="DejaVuSans-78" d="M 3513 3500 
L 2247 1797 
L 3578 0 
L 2900 0 
L 1881 1375 
L 863 0 
L 184 0 
L 1544 1831 
L 300 3500 
L 978 3500 
L 1906 2253 
L 2834 3500 
L 3513 3500 
z
" transform="scale(0.015625)"/>
      <path id="DejaVuSans-41" d="M 2188 4044 
L 1331 1722 
L 3047 1722 
L 2188 4044 
z
M 1831 4666 
L 2547 4666 
L 4325 0 
L 3669 0 
L 3244 1197 
L 1141 1197 
L 716 0 
L 50 0 
L 1831 4666 
z
" transform="scale(0.015625)"/>
      <path id="DejaVuSans-67" d="M 2906 1791 
Q 2906 2416 2648 2759 
Q 2391 3103 1925 3103 
Q 1463 3103 1205 2759 
Q 947 2416 947 1791 
Q 947 1169 1205 825 
Q 1463 481 1925 481 
Q 2391 481 2648 825 
Q 2906 1169 2906 1791 
z
M 3481 434 
Q 3481 -459 3084 -895 
Q 2688 -1331 1869 -1331 
Q 1566 -1331 1297 -1286 
Q 1028 -1241 775 -1147 
L 775 -588 
Q 1028 -725 1275 -790 
Q 1522 -856 1778 -856 
Q 2344 -856 2625 -561 
Q 2906 -266 2906 331 
L 2906 616 
Q 2728 306 2450 153 
Q 2172 0 1784 0 
Q 1141 0 747 490 
Q 353 981 353 1791 
Q 353 2603 747 3093 
Q 1141 3584 1784 3584 
Q 2172 3584 2450 3431 
Q 2728 3278 2906 2969 
L 2906 3500 
L 3481 3500 
L 3481 434 
z
" transform="scale(0.015625)"/>
     </defs>
     <use xlink:href="#DejaVuSans-Oblique-3c0" transform="translate(0 0.015625)"/>
     <use xlink:href="#DejaVuSans-Oblique-70" transform="translate(60.205078 -16.390625) scale(0.7)"/>
     <use xlink:href="#DejaVuSans-3a" transform="translate(107.373047 0.015625)"/>
     <use xlink:href="#DejaVuSans-20" transform="translate(141.064453 0.015625)"/>
     <use xlink:href="#DejaVuSans-50" transform="translate(172.851562 0.015625)"/>
     <use xlink:href="#DejaVuSans-61" transform="translate(233.154297 0.015625)"/>
     <use xlink:href="#DejaVuSans-72" transform="translate(294.433594 0.015625)"/>
     <use xlink:href="#DejaVuSans-61" transform="translate(335.546875 0.015625)"/>
     <use xlink:href="#DejaVuSans-6c" transform="translate(396.826172 0.015625)"/>
     <use xlink:href="#DejaVuSans-6c" transform="translate(424.609375 0.015625)"/>
     <use xlink:href="#DejaVuSans-61" transform="translate(452.392578 0.015625)"/>
     <use xlink:href="#DejaVuSans-78" transform="translate(513.671875 0.015625)"/>
     <use xlink:href="#DejaVuSans-20" transform="translate(572.851562 0.015625)"/>
     <use xlink:href="#DejaVuSans-41" transform="translate(604.638672 0.015625)"/>
     <use xlink:href="#DejaVuSans-6e" transform="translate(673.046875 0.015625)"/>
     <use xlink:href="#DejaVuSans-67" transform="translate(736.425781 0.015625)"/>
     <use xlink:href="#DejaVuSans-6c" transform="translate(799.902344 0.015625)"/>
     <use xlink:href="#DejaVuSans-65" transform="translate(827.685547 0.015625)"/>
    </g>
    <!-- $z$: Geocentric Zenith Distance -->
    <g transform="translate(34.856061 59.277205) scale(0.12 -0.12)">
     <defs>
      <path id="DejaVuSans-44" d="M 1259 4147 
L 1259 519 
L 2022 519 
Q 2988 519 3436 956 
Q 3884 1394 3884 2338 
Q 3884 3275 3436 3711 
Q 2988 4147 2022 4147 
L 1259 4147 
z
M 628 4666 
L 1925 4666 
Q 3281 4666 3915 4102 
Q 4550 3538 4550 2338 
Q 4550 1131 3912 565 
Q 3275 0 1925 0 
L 628 0 
L 628 4666 
z
" transform="scale(0.015625)"/>
      <path id="DejaVuSans-73" d="M 2834 3397 
L 2834 2853 
Q 2591 2978 2328 3040 
Q 2066 3103 1784 3103 
Q 1356 3103 1142 2972 
Q 928 2841 928 2578 
Q 928 2378 1081 2264 
Q 1234 2150 1697 2047 
L 1894 2003 
Q 2506 1872 2764 1633 
Q 3022 1394 3022 966 
Q 3022 478 2636 193 
Q 2250 -91 1575 -91 
Q 1294 -91 989 -36 
Q 684 19 347 128 
L 347 722 
Q 666 556 975 473 
Q 1284 391 1588 391 
Q 1994 391 2212 530 
Q 2431 669 2431 922 
Q 2431 1156 2273 1281 
Q 2116 1406 1581 1522 
L 1381 1569 
Q 847 1681 609 1914 
Q 372 2147 372 2553 
Q 372 3047 722 3315 
Q 1072 3584 1716 3584 
Q 2034 3584 2315 3537 
Q 2597 3491 2834 3397 
z
" transform="scale(0.015625)"/>
     </defs>
     <use xlink:href="#DejaVuSans-Oblique-7a" transform="translate(0 0.015625)"/>
     <use xlink:href="#DejaVuSans-3a" transform="translate(52.490234 0.015625)"/>
     <use xlink:href="#DejaVuSans-20" transform="translate(86.181641 0.015625)"/>
     <use xlink:href="#DejaVuSans-47" transform="translate(117.96875 0.015625)"/>
     <use xlink:href="#DejaVuSans-65" transform="translate(195.458984 0.015625)"/>
     <use xlink:href="#DejaVuSans-6f" transform="translate(256.982422 0.015625)"/>
     <use xlink:href="#DejaVuSans-63" transform="translate(318.164062 0.015625)"/>
     <use xlink:href="#DejaVuSans-65" transform="translate(373.144531 0.015625)"/>
     <use xlink:href="#DejaVuSans-6e" transform="translate(434.667969 0.015625)"/>
     <use xlink:href="#DejaVuSans-74" transform="translate(498.046875 0.015625)"/>
     <use xlink:href="#DejaVuSans-72" transform="translate(537.255859 0.015625)"/>
     <use xlink:href="#DejaVuSans-69" transform="translate(578.369141 0.015625)"/>
     <use xlink:href="#DejaVuSans-63" transform="translate(606.152344 0.015625)"/>
     <use xlink:href="#DejaVuSans-20" transform="translate(661.132812 0.015625)"/>
     <use xlink:href="#DejaVuSans-5a" transform="translate(692.919922 0.015625)"/>
     <use xlink:href="#DejaVuSans-65" transform="translate(761.425781 0.015625)"/>
     <use xlink:href="#DejaVuSans-6e" transform="translate(822.949219 0.015625)"/>
     <use xlink:href="#DejaVuSans-69" transform="translate(886.328125 0.015625)"/>
     <use xlink:href="#DejaVuSans-74" transform="translate(914.111328 0.015625)"/>
     <use xlink:href="#DejaVuSans-68" transform="translate(953.320312 0.015625)"/>
     <use xlink:href="#DejaVuSans-20" transform="translate(1016.699219 0.015625)"/>
     <use xlink:href="#DejaVuSans-44" transform="translate(1048.486328 0.015625)"/>
     <use xlink:href="#DejaVuSans-69" transform="translate(1125.488281 0.015625)"/>
     <use xlink:href="#DejaVuSans-73" transform="translate(1153.271484 0.015625)"/>
     <use xlink:href="#DejaVuSans-74" transform="translate(1205.371094 0.015625)"/>
     <use xlink:href="#DejaVuSans-61" transform="translate(1244.580078 0.015625)"/>
     <use xlink:href="#DejaVuSans-6e" transform="translate(1305.859375 0.015625)"/>
     <use xlink:href="#DejaVuSans-63" transform="translate(1369.238281 0.015625)"/>
     <use xlink:href="#DejaVuSans-65" transform="translate(1424.21875 0.015625)"/>
    </g>
    <!-- $z'$: Topocentric Zenith Distance -->
    <g transform="translate(34.856061 73.00483) scale(0.12 -0.12)">
     <defs>
      <path id="DejaVuSans-54" d="M -19 4666 
L 3928 4666 
L 3928 4134 
L 2272 4134 
L 2272 0 
L 1638 0 
L 1638 4134 
L -19 4134 
L -19 4666 
z
" transform="scale(0.015625)"/>
      <path id="DejaVuSans-70" d="M 1159 525 
L 1159 -1331 
L 581 -1331 
L 581 3500 
L 1159 3500 
L 1159 2969 
Q 1341 3281 1617 3432 
Q 1894 3584 2278 3584 
Q 2916 3584 3314 3078 
Q 3713 2572 3713 1747 
Q 3713 922 3314 415 
Q 2916 -91 2278 -91 
Q 1894 -91 1617 61 
Q 1341 213 1159 525 
z
M 3116 1747 
Q 3116 2381 2855 2742 
Q 2594 3103 2138 3103 
Q 1681 3103 1420 2742 
Q 1159 2381 1159 1747 
Q 1159 1113 1420 752 
Q 1681 391 2138 391 
Q 2594 391 2855 752 
Q 3116 1113 3116 1747 
z
" transform="scale(0.015625)"/>
     </defs>
     <use xlink:href="#DejaVuSans-Oblique-7a" transform="translate(0 0.584375)"/>
     <use xlink:href="#Cmsy10-30" transform="translate(56.95638 38.865625) scale(0.7)"/>
     <use xlink:href="#DejaVuSans-3a" transform="translate(78.933919 0.584375)"/>
     <use xlink:href="#DejaVuSans-20" transform="translate(112.625326 0.584375)"/>
     <use xlink:href="#DejaVuSans-54" transform="translate(144.412435 0.584375)"/>
     <use xlink:href="#DejaVuSans-6f" transform="translate(205.496419 0.584375)"/>
     <use xlink:href="#DejaVuSans-70" transform="translate(266.67806 0.584375)"/>
     <use xlink:href="#DejaVuSans-6f" transform="translate(330.154622 0.584375)"/>
     <use xlink:href="#DejaVuSans-63" transform="translate(391.336263 0.584375)"/>
     <use xlink:href="#DejaVuSans-65" transform="translate(446.316732 0.584375)"/>
     <use xlink:href="#DejaVuSans-6e" transform="translate(507.840169 0.584375)"/>
     <use xlink:href="#DejaVuSans-74" transform="translate(571.219076 0.584375)"/>
     <use xlink:href="#DejaVuSans-72" transform="translate(610.42806 0.584375)"/>
     <use xlink:href="#DejaVuSans-69" transform="translate(651.541341 0.584375)"/>
     <use xlink:href="#DejaVuSans-63" transform="translate(679.324544 0.584375)"/>
     <use xlink:href="#DejaVuSans-20" transform="translate(734.305013 0.584375)"/>
     <use xlink:href="#DejaVuSans-5a" transform="translate(766.092122 0.584375)"/>
     <use xlink:href="#DejaVuSans-65" transform="translate(834.597982 0.584375)"/>
     <use xlink:href="#DejaVuSans-6e" transform="translate(896.121419 0.584375)"/>
     <use xlink:href="#DejaVuSans-69" transform="translate(959.500326 0.584375)"/>
     <use xlink:href="#DejaVuSans-74" transform="translate(987.283529 0.584375)"/>
     <use xlink:href="#DejaVuSans-68" transform="translate(1026.492513 0.584375)"/>
     <use xlink:href="#DejaVuSans-20" transform="translate(1089.871419 0.584375)"/>
     <use xlink:href="#DejaVuSans-44" transform="translate(1121.658529 0.584375)"/>
     <use xlink:href="#DejaVuSans-69" transform="translate(1198.660482 0.584375)"/>
     <use xlink:href="#DejaVuSans-73" transform="translate(1226.443685 0.584375)"/>
     <use xlink:href="#DejaVuSans-74" transform="translate(1278.543294 0.584375)"/>
     <use xlink:href="#DejaVuSans-61" transform="translate(1317.752279 0.584375)"/>
     <use xlink:href="#DejaVuSans-6e" transform="translate(1379.031576 0.584375)"/>
     <use xlink:href="#DejaVuSans-63" transform="translate(1442.410482 0.584375)"/>
     <use xlink:href="#DejaVuSans-65" transform="translate(1497.390951 0.584375)"/>
    </g>
    <!-- $z' = z + \pi_p$ -->
    <g transform="translate(34.856061 86.75683) scale(0.12 -0.12)">
     <defs>
      <path id="DejaVuSans-3d" d="M 678 2906 
L 4684 2906 
L 4684 2381 
L 678 2381 
L 678 2906 
z
M 678 1631 
L 4684 1631 
L 4684 1100 
L 678 1100 
L 678 1631 
z
" transform="scale(0.015625)"/>
      <path id="DejaVuSans-2b" d="M 2944 4013 
L 2944 2272 
L 4684 2272 
L 4684 1741 
L 2944 1741 
L 2944 0 
L 2419 0 
L 2419 1741 
L 678 1741 
L 678 2272 
L 2419 2272 
L 2419 4013 
L 2944 4013 
z
" transform="scale(0.015625)"/>
     </defs>
     <use xlink:href="#DejaVuSans-Oblique-7a" transform="translate(0 0.584375)"/>
     <use xlink:href="#Cmsy10-30" transform="translate(56.95638 38.865625) scale(0.7)"/>
     <use xlink:href="#DejaVuSans-3d" transform="translate(98.416341 0.584375)"/>
     <use xlink:href="#DejaVuSans-Oblique-7a" transform="translate(201.687826 0.584375)"/>
     <use xlink:href="#DejaVuSans-2b" transform="translate(273.660482 0.584375)"/>
     <use xlink:href="#DejaVuSans-Oblique-3c0" transform="translate(376.931966 0.584375)"/>
     <use xlink:href="#DejaVuSans-Oblique-70" transform="translate(437.137044 -15.821875) scale(0.7)"/>
    </g>
   </g>
  </g>
 </g>
 <defs>
  <clipPath id="pf0950c5d2b">
   <rect x="10.8" y="11.439394" width="481.121212" height="481.121212"/>
  </clipPath>
 </defs>
</svg>
