<?xml version="1.0" encoding="utf-8" standalone="no"?>
<!DOCTYPE svg PUBLIC "-//W3C//DTD SVG 1.1//EN"
  "http://www.w3.org/Graphics/SVG/1.1/DTD/svg11.dtd">
<svg xmlns:xlink="http://www.w3.org/1999/xlink" width="704.187531pt" height="620.084071pt" viewBox="0 0 704.187531 620.084071" xmlns="http://www.w3.org/2000/svg" version="1.1">
 <metadata>
  <rdf:RDF xmlns:dc="http://purl.org/dc/elements/1.1/" xmlns:cc="http://creativecommons.org/ns#" xmlns:rdf="http://www.w3.org/1999/02/22-rdf-syntax-ns#">
   <cc:Work>
    <dc:type rdf:resource="http://purl.org/dc/dcmitype/StillImage"/>
    <dc:date>2025-11-24T02:45:34.854519</dc:date>
    <dc:format>image/svg+xml</dc:format>
    <dc:creator>
     <cc:Agent>
      <dc:title>Matplotlib v3.10.7, https://matplotlib.org/</dc:title>
     </cc:Agent>
    </dc:creator>
   </cc:Work>
  </rdf:RDF>
 </metadata>
 <defs>
  <style type="text/css">*{stroke-linejoin: round; stroke-linecap: butt}</style>
 </defs>
 <g id="figure_1">
  <g id="patch_1">
   <path d="M 0 620.084071 
L 704.187531 620.084071 
L 704.187531 0 
L 0 0 
z
" style="fill: #ffffff"/>
  </g>
  <g id="axes_1">
   <g id="patch_2">
    <path d="M 690.464388 325.865786 
L 677.418103 332.388929 
L 677.418103 327.170414 
L 612.186674 327.170414 
L 612.186674 324.561157 
L 677.418103 324.561157 
L 677.418103 319.342643 
z
" clip-path="url(#pa38ad4a1f8)" style="fill: #ffcc00; stroke: #e6b800; stroke-linejoin: miter"/>
   </g>
   <g id="patch_3">
    <path d="M 299.075817 508.513786 
C 347.514633 508.513786 393.976041 489.26884 428.227456 455.017425 
C 462.478871 420.76601 481.723817 374.304602 481.723817 325.865786 
C 481.723817 277.42697 462.478871 230.965561 428.227456 196.714146 
C 393.976041 162.462731 347.514633 143.217786 299.075817 143.217786 
C 250.637001 143.217786 204.175593 162.462731 169.924178 196.714146 
C 135.672762 230.965561 116.427817 277.42697 116.427817 325.865786 
C 116.427817 374.304602 135.672762 420.76601 169.924178 455.017425 
C 204.175593 489.26884 250.637001 508.513786 299.075817 508.513786 
L 299.075817 508.513786 
z
" clip-path="url(#pa38ad4a1f8)" style="fill: none; stroke-dasharray: 5.55,2.4; stroke-dashoffset: 0; stroke: #b3b3b3; stroke-width: 1.5; stroke-linejoin: miter"/>
   </g>
   <g id="patch_4">
    <path d="M 520.862674 325.865786 
C 520.862674 267.066813 497.47996 210.615947 455.902808 169.038795 
C 414.325656 127.461643 357.874789 104.078929 299.075817 104.078929 
L 299.075817 325.865786 
C 299.075817 325.865786 299.075817 325.865786 299.075817 325.865786 
C 299.075817 325.865786 299.075817 325.865786 299.075817 325.865786 
z
" clip-path="url(#pa38ad4a1f8)" style="fill: #ffcccc; opacity: 0.2"/>
   </g>
   <g id="patch_5">
    <path d="M 77.28896 325.865786 
C 77.28896 384.664758 100.671674 441.115624 142.248826 482.692776 
C 183.825978 524.269928 240.276845 547.652643 299.075817 547.652643 
L 299.075817 325.865786 
C 299.075817 325.865786 299.075817 325.865786 299.075817 325.865786 
C 299.075817 325.865786 299.075817 325.865786 299.075817 325.865786 
z
" clip-path="url(#pa38ad4a1f8)" style="fill: #ffcccc; opacity: 0.2"/>
   </g>
   <g id="patch_6">
    <path d="M 299.075817 104.078929 
C 240.276845 104.078929 183.825978 127.461643 142.248826 169.038795 
C 100.671674 210.615947 77.28896 267.066813 77.28896 325.865786 
L 299.075817 325.865786 
C 299.075817 325.865786 299.075817 325.865786 299.075817 325.865786 
C 299.075817 325.865786 299.075817 325.865786 299.075817 325.865786 
z
" clip-path="url(#pa38ad4a1f8)" style="fill: #ccffcc; opacity: 0.2"/>
   </g>
   <g id="patch_7">
    <path d="M 299.075817 547.652643 
C 357.874789 547.652643 414.325656 524.269928 455.902808 482.692776 
C 497.47996 441.115624 520.862674 384.664758 520.862674 325.865786 
L 299.075817 325.865786 
C 299.075817 325.865786 299.075817 325.865786 299.075817 325.865786 
C 299.075817 325.865786 299.075817 325.865786 299.075817 325.865786 
z
" clip-path="url(#pa38ad4a1f8)" style="fill: #ccffcc; opacity: 0.2"/>
   </g>
   <g id="patch_8">
    <path d="M 67.504246 77.986357 
L 57.719531 81.247929 
L 57.719531 78.051589 
L 18.580674 78.051589 
L 18.580674 77.921126 
L 57.719531 77.921126 
L 57.719531 74.724786 
z
" clip-path="url(#pa38ad4a1f8)" style="fill: #009933; stroke: #009933; stroke-linejoin: miter"/>
   </g>
   <g id="patch_9">
    <path d="M 67.504246 104.078929 
L 57.719531 107.3405 
L 57.719531 104.14416 
L 18.580674 104.14416 
L 18.580674 104.013697 
L 57.719531 104.013697 
L 57.719531 100.817357 
z
" clip-path="url(#pa38ad4a1f8)" style="fill: #cc0000; stroke: #cc0000; stroke-linejoin: miter"/>
   </g>
   <g id="text_1">
    <!-- Earth -->
    <g style="fill: #004d99" transform="translate(283.739254 380.117161) scale(0.12 -0.12)">
     <defs>
      <path id="Arial-BoldMT-45" d="M 466 0 
L 466 4581 
L 3863 4581 
L 3863 3806 
L 1391 3806 
L 1391 2791 
L 3691 2791 
L 3691 2019 
L 1391 2019 
L 1391 772 
L 3950 772 
L 3950 0 
L 466 0 
z
" transform="scale(0.015625)"/>
      <path id="Arial-BoldMT-61" d="M 1116 2306 
L 319 2450 
Q 453 2931 781 3162 
Q 1109 3394 1756 3394 
Q 2344 3394 2631 3255 
Q 2919 3116 3036 2902 
Q 3153 2688 3153 2116 
L 3144 1091 
Q 3144 653 3186 445 
Q 3228 238 3344 0 
L 2475 0 
Q 2441 88 2391 259 
Q 2369 338 2359 363 
Q 2134 144 1878 34 
Q 1622 -75 1331 -75 
Q 819 -75 523 203 
Q 228 481 228 906 
Q 228 1188 362 1408 
Q 497 1628 739 1745 
Q 981 1863 1438 1950 
Q 2053 2066 2291 2166 
L 2291 2253 
Q 2291 2506 2166 2614 
Q 2041 2722 1694 2722 
Q 1459 2722 1328 2630 
Q 1197 2538 1116 2306 
z
M 2291 1594 
Q 2122 1538 1756 1459 
Q 1391 1381 1278 1306 
Q 1106 1184 1106 997 
Q 1106 813 1243 678 
Q 1381 544 1594 544 
Q 1831 544 2047 700 
Q 2206 819 2256 991 
Q 2291 1103 2291 1419 
L 2291 1594 
z
" transform="scale(0.015625)"/>
      <path id="Arial-BoldMT-72" d="M 1300 0 
L 422 0 
L 422 3319 
L 1238 3319 
L 1238 2847 
Q 1447 3181 1614 3287 
Q 1781 3394 1994 3394 
Q 2294 3394 2572 3228 
L 2300 2463 
Q 2078 2606 1888 2606 
Q 1703 2606 1575 2504 
Q 1447 2403 1373 2137 
Q 1300 1872 1300 1025 
L 1300 0 
z
" transform="scale(0.015625)"/>
      <path id="Arial-BoldMT-74" d="M 1981 3319 
L 1981 2619 
L 1381 2619 
L 1381 1281 
Q 1381 875 1398 808 
Q 1416 741 1477 697 
Q 1538 653 1625 653 
Q 1747 653 1978 738 
L 2053 56 
Q 1747 -75 1359 -75 
Q 1122 -75 931 4 
Q 741 84 652 211 
Q 563 338 528 553 
Q 500 706 500 1172 
L 500 2619 
L 97 2619 
L 97 3319 
L 500 3319 
L 500 3978 
L 1381 4491 
L 1381 3319 
L 1981 3319 
z
" transform="scale(0.015625)"/>
      <path id="Arial-BoldMT-68" d="M 1334 4581 
L 1334 2897 
Q 1759 3394 2350 3394 
Q 2653 3394 2897 3281 
Q 3141 3169 3264 2994 
Q 3388 2819 3433 2606 
Q 3478 2394 3478 1947 
L 3478 0 
L 2600 0 
L 2600 1753 
Q 2600 2275 2550 2415 
Q 2500 2556 2373 2639 
Q 2247 2722 2056 2722 
Q 1838 2722 1666 2615 
Q 1494 2509 1414 2295 
Q 1334 2081 1334 1663 
L 1334 0 
L 456 0 
L 456 4581 
L 1334 4581 
z
" transform="scale(0.015625)"/>
     </defs>
     <use xlink:href="#Arial-BoldMT-45"/>
     <use xlink:href="#Arial-BoldMT-61" transform="translate(66.699219 0)"/>
     <use xlink:href="#Arial-BoldMT-72" transform="translate(122.314453 0)"/>
     <use xlink:href="#Arial-BoldMT-74" transform="translate(161.230469 0)"/>
     <use xlink:href="#Arial-BoldMT-68" transform="translate(194.53125 0)"/>
    </g>
   </g>
   <g id="text_2">
    <!-- To Sun -->
    <g style="fill: #e6b800" transform="translate(618.393933 306.296357) scale(0.12 -0.12)">
     <defs>
      <path id="Arial-BoldMT-54" d="M 1497 0 
L 1497 3806 
L 138 3806 
L 138 4581 
L 3778 4581 
L 3778 3806 
L 2422 3806 
L 2422 0 
L 1497 0 
z
" transform="scale(0.015625)"/>
      <path id="Arial-BoldMT-6f" d="M 256 1706 
Q 256 2144 472 2553 
Q 688 2963 1083 3178 
Q 1478 3394 1966 3394 
Q 2719 3394 3200 2905 
Q 3681 2416 3681 1669 
Q 3681 916 3195 420 
Q 2709 -75 1972 -75 
Q 1516 -75 1102 131 
Q 688 338 472 736 
Q 256 1134 256 1706 
z
M 1156 1659 
Q 1156 1166 1390 903 
Q 1625 641 1969 641 
Q 2313 641 2545 903 
Q 2778 1166 2778 1666 
Q 2778 2153 2545 2415 
Q 2313 2678 1969 2678 
Q 1625 2678 1390 2415 
Q 1156 2153 1156 1659 
z
" transform="scale(0.015625)"/>
      <path id="Arial-BoldMT-20" transform="scale(0.015625)"/>
      <path id="Arial-BoldMT-53" d="M 231 1491 
L 1131 1578 
Q 1213 1125 1461 912 
Q 1709 700 2131 700 
Q 2578 700 2804 889 
Q 3031 1078 3031 1331 
Q 3031 1494 2936 1608 
Q 2841 1722 2603 1806 
Q 2441 1863 1863 2006 
Q 1119 2191 819 2459 
Q 397 2838 397 3381 
Q 397 3731 595 4036 
Q 794 4341 1167 4500 
Q 1541 4659 2069 4659 
Q 2931 4659 3367 4281 
Q 3803 3903 3825 3272 
L 2900 3231 
Q 2841 3584 2645 3739 
Q 2450 3894 2059 3894 
Q 1656 3894 1428 3728 
Q 1281 3622 1281 3444 
Q 1281 3281 1419 3166 
Q 1594 3019 2269 2859 
Q 2944 2700 3267 2529 
Q 3591 2359 3773 2064 
Q 3956 1769 3956 1334 
Q 3956 941 3737 597 
Q 3519 253 3119 86 
Q 2719 -81 2122 -81 
Q 1253 -81 787 320 
Q 322 722 231 1491 
z
" transform="scale(0.015625)"/>
      <path id="Arial-BoldMT-75" d="M 2644 0 
L 2644 497 
Q 2463 231 2167 78 
Q 1872 -75 1544 -75 
Q 1209 -75 943 72 
Q 678 219 559 484 
Q 441 750 441 1219 
L 441 3319 
L 1319 3319 
L 1319 1794 
Q 1319 1094 1367 936 
Q 1416 778 1544 686 
Q 1672 594 1869 594 
Q 2094 594 2272 717 
Q 2450 841 2515 1023 
Q 2581 1206 2581 1919 
L 2581 3319 
L 3459 3319 
L 3459 0 
L 2644 0 
z
" transform="scale(0.015625)"/>
      <path id="Arial-BoldMT-6e" d="M 3478 0 
L 2600 0 
L 2600 1694 
Q 2600 2231 2544 2389 
Q 2488 2547 2361 2634 
Q 2234 2722 2056 2722 
Q 1828 2722 1647 2597 
Q 1466 2472 1398 2265 
Q 1331 2059 1331 1503 
L 1331 0 
L 453 0 
L 453 3319 
L 1269 3319 
L 1269 2831 
Q 1703 3394 2363 3394 
Q 2653 3394 2893 3289 
Q 3134 3184 3257 3021 
Q 3381 2859 3429 2653 
Q 3478 2447 3478 2063 
L 3478 0 
z
" transform="scale(0.015625)"/>
     </defs>
     <use xlink:href="#Arial-BoldMT-54"/>
     <use xlink:href="#Arial-BoldMT-6f" transform="translate(53.708984 0)"/>
     <use xlink:href="#Arial-BoldMT-20" transform="translate(114.792969 0)"/>
     <use xlink:href="#Arial-BoldMT-53" transform="translate(142.576172 0)"/>
     <use xlink:href="#Arial-BoldMT-75" transform="translate(209.275391 0)"/>
     <use xlink:href="#Arial-BoldMT-6e" transform="translate(270.359375 0)"/>
    </g>
   </g>
   <g id="text_3">
    <!-- New Moon -->
    <g style="fill: #333333" transform="translate(540.432103 318.501958) scale(0.09 -0.09)">
     <defs>
      <path id="ArialMT-4e" d="M 488 0 
L 488 4581 
L 1109 4581 
L 3516 984 
L 3516 4581 
L 4097 4581 
L 4097 0 
L 3475 0 
L 1069 3600 
L 1069 0 
L 488 0 
z
" transform="scale(0.015625)"/>
      <path id="ArialMT-65" d="M 2694 1069 
L 3275 997 
Q 3138 488 2766 206 
Q 2394 -75 1816 -75 
Q 1088 -75 661 373 
Q 234 822 234 1631 
Q 234 2469 665 2931 
Q 1097 3394 1784 3394 
Q 2450 3394 2872 2941 
Q 3294 2488 3294 1666 
Q 3294 1616 3291 1516 
L 816 1516 
Q 847 969 1125 678 
Q 1403 388 1819 388 
Q 2128 388 2347 550 
Q 2566 713 2694 1069 
z
M 847 1978 
L 2700 1978 
Q 2663 2397 2488 2606 
Q 2219 2931 1791 2931 
Q 1403 2931 1139 2672 
Q 875 2413 847 1978 
z
" transform="scale(0.015625)"/>
      <path id="ArialMT-77" d="M 1034 0 
L 19 3319 
L 600 3319 
L 1128 1403 
L 1325 691 
Q 1338 744 1497 1375 
L 2025 3319 
L 2603 3319 
L 3100 1394 
L 3266 759 
L 3456 1400 
L 4025 3319 
L 4572 3319 
L 3534 0 
L 2950 0 
L 2422 1988 
L 2294 2553 
L 1622 0 
L 1034 0 
z
" transform="scale(0.015625)"/>
      <path id="ArialMT-20" transform="scale(0.015625)"/>
      <path id="ArialMT-4d" d="M 475 0 
L 475 4581 
L 1388 4581 
L 2472 1338 
Q 2622 884 2691 659 
Q 2769 909 2934 1394 
L 4031 4581 
L 4847 4581 
L 4847 0 
L 4263 0 
L 4263 3834 
L 2931 0 
L 2384 0 
L 1059 3900 
L 1059 0 
L 475 0 
z
" transform="scale(0.015625)"/>
      <path id="ArialMT-6f" d="M 213 1659 
Q 213 2581 725 3025 
Q 1153 3394 1769 3394 
Q 2453 3394 2887 2945 
Q 3322 2497 3322 1706 
Q 3322 1066 3130 698 
Q 2938 331 2570 128 
Q 2203 -75 1769 -75 
Q 1072 -75 642 372 
Q 213 819 213 1659 
z
M 791 1659 
Q 791 1022 1069 705 
Q 1347 388 1769 388 
Q 2188 388 2466 706 
Q 2744 1025 2744 1678 
Q 2744 2294 2464 2611 
Q 2184 2928 1769 2928 
Q 1347 2928 1069 2612 
Q 791 2297 791 1659 
z
" transform="scale(0.015625)"/>
      <path id="ArialMT-6e" d="M 422 0 
L 422 3319 
L 928 3319 
L 928 2847 
Q 1294 3394 1984 3394 
Q 2284 3394 2536 3286 
Q 2788 3178 2913 3003 
Q 3038 2828 3088 2588 
Q 3119 2431 3119 2041 
L 3119 0 
L 2556 0 
L 2556 2019 
Q 2556 2363 2490 2533 
Q 2425 2703 2258 2804 
Q 2091 2906 1866 2906 
Q 1506 2906 1245 2678 
Q 984 2450 984 1813 
L 984 0 
L 422 0 
z
" transform="scale(0.015625)"/>
     </defs>
     <use xlink:href="#ArialMT-4e"/>
     <use xlink:href="#ArialMT-65" transform="translate(72.216797 0)"/>
     <use xlink:href="#ArialMT-77" transform="translate(127.832031 0)"/>
     <use xlink:href="#ArialMT-20" transform="translate(200.048828 0)"/>
     <use xlink:href="#ArialMT-4d" transform="translate(227.832031 0)"/>
     <use xlink:href="#ArialMT-6f" transform="translate(311.132812 0)"/>
     <use xlink:href="#ArialMT-6f" transform="translate(366.748047 0)"/>
     <use xlink:href="#ArialMT-6e" transform="translate(422.363281 0)"/>
    </g>
    <!-- (Syzygy) -->
    <g style="fill: #333333" transform="translate(540.432103 328.15277) scale(0.09 -0.09)">
     <defs>
      <path id="ArialMT-28" d="M 1497 -1347 
Q 1031 -759 709 28 
Q 388 816 388 1659 
Q 388 2403 628 3084 
Q 909 3875 1497 4659 
L 1900 4659 
Q 1522 4009 1400 3731 
Q 1209 3300 1100 2831 
Q 966 2247 966 1656 
Q 966 153 1900 -1347 
L 1497 -1347 
z
" transform="scale(0.015625)"/>
      <path id="ArialMT-53" d="M 288 1472 
L 859 1522 
Q 900 1178 1048 958 
Q 1197 738 1509 602 
Q 1822 466 2213 466 
Q 2559 466 2825 569 
Q 3091 672 3220 851 
Q 3350 1031 3350 1244 
Q 3350 1459 3225 1620 
Q 3100 1781 2813 1891 
Q 2628 1963 1997 2114 
Q 1366 2266 1113 2400 
Q 784 2572 623 2826 
Q 463 3081 463 3397 
Q 463 3744 659 4045 
Q 856 4347 1234 4503 
Q 1613 4659 2075 4659 
Q 2584 4659 2973 4495 
Q 3363 4331 3572 4012 
Q 3781 3694 3797 3291 
L 3216 3247 
Q 3169 3681 2898 3903 
Q 2628 4125 2100 4125 
Q 1550 4125 1298 3923 
Q 1047 3722 1047 3438 
Q 1047 3191 1225 3031 
Q 1400 2872 2139 2705 
Q 2878 2538 3153 2413 
Q 3553 2228 3743 1945 
Q 3934 1663 3934 1294 
Q 3934 928 3725 604 
Q 3516 281 3123 101 
Q 2731 -78 2241 -78 
Q 1619 -78 1198 103 
Q 778 284 539 648 
Q 300 1013 288 1472 
z
" transform="scale(0.015625)"/>
      <path id="ArialMT-79" d="M 397 -1278 
L 334 -750 
Q 519 -800 656 -800 
Q 844 -800 956 -737 
Q 1069 -675 1141 -563 
Q 1194 -478 1313 -144 
Q 1328 -97 1363 -6 
L 103 3319 
L 709 3319 
L 1400 1397 
Q 1534 1031 1641 628 
Q 1738 1016 1872 1384 
L 2581 3319 
L 3144 3319 
L 1881 -56 
Q 1678 -603 1566 -809 
Q 1416 -1088 1222 -1217 
Q 1028 -1347 759 -1347 
Q 597 -1347 397 -1278 
z
" transform="scale(0.015625)"/>
      <path id="ArialMT-7a" d="M 125 0 
L 125 456 
L 2238 2881 
Q 1878 2863 1603 2863 
L 250 2863 
L 250 3319 
L 2963 3319 
L 2963 2947 
L 1166 841 
L 819 456 
Q 1197 484 1528 484 
L 3063 484 
L 3063 0 
L 125 0 
z
" transform="scale(0.015625)"/>
      <path id="ArialMT-67" d="M 319 -275 
L 866 -356 
Q 900 -609 1056 -725 
Q 1266 -881 1628 -881 
Q 2019 -881 2231 -725 
Q 2444 -569 2519 -288 
Q 2563 -116 2559 434 
Q 2191 0 1641 0 
Q 956 0 581 494 
Q 206 988 206 1678 
Q 206 2153 378 2554 
Q 550 2956 876 3175 
Q 1203 3394 1644 3394 
Q 2231 3394 2613 2919 
L 2613 3319 
L 3131 3319 
L 3131 450 
Q 3131 -325 2973 -648 
Q 2816 -972 2473 -1159 
Q 2131 -1347 1631 -1347 
Q 1038 -1347 672 -1080 
Q 306 -813 319 -275 
z
M 784 1719 
Q 784 1066 1043 766 
Q 1303 466 1694 466 
Q 2081 466 2343 764 
Q 2606 1063 2606 1700 
Q 2606 2309 2336 2618 
Q 2066 2928 1684 2928 
Q 1309 2928 1046 2623 
Q 784 2319 784 1719 
z
" transform="scale(0.015625)"/>
      <path id="ArialMT-29" d="M 791 -1347 
L 388 -1347 
Q 1322 153 1322 1656 
Q 1322 2244 1188 2822 
Q 1081 3291 891 3722 
Q 769 4003 388 4659 
L 791 4659 
Q 1378 3875 1659 3084 
Q 1900 2403 1900 1659 
Q 1900 816 1576 28 
Q 1253 -759 791 -1347 
z
" transform="scale(0.015625)"/>
     </defs>
     <use xlink:href="#ArialMT-28"/>
     <use xlink:href="#ArialMT-53" transform="translate(33.300781 0)"/>
     <use xlink:href="#ArialMT-79" transform="translate(100 0)"/>
     <use xlink:href="#ArialMT-7a" transform="translate(150 0)"/>
     <use xlink:href="#ArialMT-79" transform="translate(200 0)"/>
     <use xlink:href="#ArialMT-67" transform="translate(250 0)"/>
     <use xlink:href="#ArialMT-79" transform="translate(305.615234 0)"/>
     <use xlink:href="#ArialMT-29" transform="translate(355.615234 0)"/>
    </g>
    <!-- Max Velocity -->
    <g style="fill: #333333" transform="translate(540.432103 337.777426) scale(0.09 -0.09)">
     <defs>
      <path id="ArialMT-61" d="M 2588 409 
Q 2275 144 1986 34 
Q 1697 -75 1366 -75 
Q 819 -75 525 192 
Q 231 459 231 875 
Q 231 1119 342 1320 
Q 453 1522 633 1644 
Q 813 1766 1038 1828 
Q 1203 1872 1538 1913 
Q 2219 1994 2541 2106 
Q 2544 2222 2544 2253 
Q 2544 2597 2384 2738 
Q 2169 2928 1744 2928 
Q 1347 2928 1158 2789 
Q 969 2650 878 2297 
L 328 2372 
Q 403 2725 575 2942 
Q 747 3159 1072 3276 
Q 1397 3394 1825 3394 
Q 2250 3394 2515 3294 
Q 2781 3194 2906 3042 
Q 3031 2891 3081 2659 
Q 3109 2516 3109 2141 
L 3109 1391 
Q 3109 606 3145 398 
Q 3181 191 3288 0 
L 2700 0 
Q 2613 175 2588 409 
z
M 2541 1666 
Q 2234 1541 1622 1453 
Q 1275 1403 1131 1340 
Q 988 1278 909 1158 
Q 831 1038 831 891 
Q 831 666 1001 516 
Q 1172 366 1500 366 
Q 1825 366 2078 508 
Q 2331 650 2450 897 
Q 2541 1088 2541 1459 
L 2541 1666 
z
" transform="scale(0.015625)"/>
      <path id="ArialMT-78" d="M 47 0 
L 1259 1725 
L 138 3319 
L 841 3319 
L 1350 2541 
Q 1494 2319 1581 2169 
Q 1719 2375 1834 2534 
L 2394 3319 
L 3066 3319 
L 1919 1756 
L 3153 0 
L 2463 0 
L 1781 1031 
L 1600 1309 
L 728 0 
L 47 0 
z
" transform="scale(0.015625)"/>
      <path id="ArialMT-56" d="M 1803 0 
L 28 4581 
L 684 4581 
L 1875 1253 
Q 2019 853 2116 503 
Q 2222 878 2363 1253 
L 3600 4581 
L 4219 4581 
L 2425 0 
L 1803 0 
z
" transform="scale(0.015625)"/>
      <path id="ArialMT-6c" d="M 409 0 
L 409 4581 
L 972 4581 
L 972 0 
L 409 0 
z
" transform="scale(0.015625)"/>
      <path id="ArialMT-63" d="M 2588 1216 
L 3141 1144 
Q 3050 572 2676 248 
Q 2303 -75 1759 -75 
Q 1078 -75 664 370 
Q 250 816 250 1647 
Q 250 2184 428 2587 
Q 606 2991 970 3192 
Q 1334 3394 1763 3394 
Q 2303 3394 2647 3120 
Q 2991 2847 3088 2344 
L 2541 2259 
Q 2463 2594 2264 2762 
Q 2066 2931 1784 2931 
Q 1359 2931 1093 2626 
Q 828 2322 828 1663 
Q 828 994 1084 691 
Q 1341 388 1753 388 
Q 2084 388 2306 591 
Q 2528 794 2588 1216 
z
" transform="scale(0.015625)"/>
      <path id="ArialMT-69" d="M 425 3934 
L 425 4581 
L 988 4581 
L 988 3934 
L 425 3934 
z
M 425 0 
L 425 3319 
L 988 3319 
L 988 0 
L 425 0 
z
" transform="scale(0.015625)"/>
      <path id="ArialMT-74" d="M 1650 503 
L 1731 6 
Q 1494 -44 1306 -44 
Q 1000 -44 831 53 
Q 663 150 594 308 
Q 525 466 525 972 
L 525 2881 
L 113 2881 
L 113 3319 
L 525 3319 
L 525 4141 
L 1084 4478 
L 1084 3319 
L 1650 3319 
L 1650 2881 
L 1084 2881 
L 1084 941 
Q 1084 700 1114 631 
Q 1144 563 1211 522 
Q 1278 481 1403 481 
Q 1497 481 1650 503 
z
" transform="scale(0.015625)"/>
     </defs>
     <use xlink:href="#ArialMT-4d"/>
     <use xlink:href="#ArialMT-61" transform="translate(83.300781 0)"/>
     <use xlink:href="#ArialMT-78" transform="translate(138.916016 0)"/>
     <use xlink:href="#ArialMT-20" transform="translate(188.916016 0)"/>
     <use xlink:href="#ArialMT-56" transform="translate(216.699219 0)"/>
     <use xlink:href="#ArialMT-65" transform="translate(277.898438 0)"/>
     <use xlink:href="#ArialMT-6c" transform="translate(333.513672 0)"/>
     <use xlink:href="#ArialMT-6f" transform="translate(355.730469 0)"/>
     <use xlink:href="#ArialMT-63" transform="translate(411.345703 0)"/>
     <use xlink:href="#ArialMT-69" transform="translate(461.345703 0)"/>
     <use xlink:href="#ArialMT-74" transform="translate(483.5625 0)"/>
     <use xlink:href="#ArialMT-79" transform="translate(511.345703 0)"/>
    </g>
   </g>
   <g id="text_4">
    <!-- Max Ahead -->
    <g style="fill: #333333" transform="translate(416.492388 110.961943) scale(0.09 -0.09)">
     <defs>
      <path id="Arial-BoldMT-4d" d="M 453 0 
L 453 4581 
L 1838 4581 
L 2669 1456 
L 3491 4581 
L 4878 4581 
L 4878 0 
L 4019 0 
L 4019 3606 
L 3109 0 
L 2219 0 
L 1313 3606 
L 1313 0 
L 453 0 
z
" transform="scale(0.015625)"/>
      <path id="Arial-BoldMT-78" d="M 38 0 
L 1234 1709 
L 88 3319 
L 1159 3319 
L 1747 2406 
L 2366 3319 
L 3397 3319 
L 2272 1747 
L 3500 0 
L 2422 0 
L 1747 1028 
L 1066 0 
L 38 0 
z
" transform="scale(0.015625)"/>
      <path id="Arial-BoldMT-41" d="M 4597 0 
L 3591 0 
L 3191 1041 
L 1359 1041 
L 981 0 
L 0 0 
L 1784 4581 
L 2763 4581 
L 4597 0 
z
M 2894 1813 
L 2263 3513 
L 1644 1813 
L 2894 1813 
z
" transform="scale(0.015625)"/>
      <path id="Arial-BoldMT-65" d="M 2381 1056 
L 3256 909 
Q 3088 428 2723 176 
Q 2359 -75 1813 -75 
Q 947 -75 531 491 
Q 203 944 203 1634 
Q 203 2459 634 2926 
Q 1066 3394 1725 3394 
Q 2466 3394 2894 2905 
Q 3322 2416 3303 1406 
L 1103 1406 
Q 1113 1016 1316 798 
Q 1519 581 1822 581 
Q 2028 581 2168 693 
Q 2309 806 2381 1056 
z
M 2431 1944 
Q 2422 2325 2234 2523 
Q 2047 2722 1778 2722 
Q 1491 2722 1303 2513 
Q 1116 2303 1119 1944 
L 2431 1944 
z
" transform="scale(0.015625)"/>
      <path id="Arial-BoldMT-64" d="M 3503 0 
L 2688 0 
L 2688 488 
Q 2484 203 2207 64 
Q 1931 -75 1650 -75 
Q 1078 -75 670 386 
Q 263 847 263 1672 
Q 263 2516 659 2955 
Q 1056 3394 1663 3394 
Q 2219 3394 2625 2931 
L 2625 4581 
L 3503 4581 
L 3503 0 
z
M 1159 1731 
Q 1159 1200 1306 963 
Q 1519 619 1900 619 
Q 2203 619 2415 876 
Q 2628 1134 2628 1647 
Q 2628 2219 2422 2470 
Q 2216 2722 1894 2722 
Q 1581 2722 1370 2473 
Q 1159 2225 1159 1731 
z
" transform="scale(0.015625)"/>
     </defs>
     <use xlink:href="#Arial-BoldMT-4d"/>
     <use xlink:href="#Arial-BoldMT-61" transform="translate(83.300781 0)"/>
     <use xlink:href="#Arial-BoldMT-78" transform="translate(138.916016 0)"/>
     <use xlink:href="#Arial-BoldMT-20" transform="translate(194.53125 0)"/>
     <use xlink:href="#Arial-BoldMT-41" transform="translate(218.564453 0)"/>
     <use xlink:href="#Arial-BoldMT-68" transform="translate(290.78125 0)"/>
     <use xlink:href="#Arial-BoldMT-65" transform="translate(351.865234 0)"/>
     <use xlink:href="#Arial-BoldMT-61" transform="translate(407.480469 0)"/>
     <use xlink:href="#Arial-BoldMT-64" transform="translate(463.095703 0)"/>
    </g>
    <!-- (Variation) -->
    <g style="fill: #333333" transform="translate(416.492388 120.6001) scale(0.09 -0.09)">
     <defs>
      <path id="Arial-BoldMT-28" d="M 1916 -1347 
L 1313 -1347 
Q 834 -625 584 153 
Q 334 931 334 1659 
Q 334 2563 644 3369 
Q 913 4069 1325 4659 
L 1925 4659 
Q 1497 3713 1336 3048 
Q 1175 2384 1175 1641 
Q 1175 1128 1270 590 
Q 1366 53 1531 -431 
Q 1641 -750 1916 -1347 
z
" transform="scale(0.015625)"/>
      <path id="Arial-BoldMT-56" d="M 1634 0 
L -3 4581 
L 1000 4581 
L 2159 1191 
L 3281 4581 
L 4263 4581 
L 2622 0 
L 1634 0 
z
" transform="scale(0.015625)"/>
      <path id="Arial-BoldMT-69" d="M 459 3769 
L 459 4581 
L 1338 4581 
L 1338 3769 
L 459 3769 
z
M 459 0 
L 459 3319 
L 1338 3319 
L 1338 0 
L 459 0 
z
" transform="scale(0.015625)"/>
      <path id="Arial-BoldMT-29" d="M 216 -1347 
Q 475 -791 581 -494 
Q 688 -197 778 190 
Q 869 578 912 926 
Q 956 1275 956 1641 
Q 956 2384 797 3048 
Q 638 3713 209 4659 
L 806 4659 
Q 1278 3988 1539 3234 
Q 1800 2481 1800 1706 
Q 1800 1053 1594 306 
Q 1359 -531 822 -1347 
L 216 -1347 
z
" transform="scale(0.015625)"/>
     </defs>
     <use xlink:href="#Arial-BoldMT-28"/>
     <use xlink:href="#Arial-BoldMT-56" transform="translate(33.300781 0)"/>
     <use xlink:href="#Arial-BoldMT-61" transform="translate(94.5 0)"/>
     <use xlink:href="#Arial-BoldMT-72" transform="translate(150.115234 0)"/>
     <use xlink:href="#Arial-BoldMT-69" transform="translate(189.03125 0)"/>
     <use xlink:href="#Arial-BoldMT-61" transform="translate(216.814453 0)"/>
     <use xlink:href="#Arial-BoldMT-74" transform="translate(272.429688 0)"/>
     <use xlink:href="#Arial-BoldMT-69" transform="translate(305.730469 0)"/>
     <use xlink:href="#Arial-BoldMT-6f" transform="translate(333.513672 0)"/>
     <use xlink:href="#Arial-BoldMT-6e" transform="translate(394.597656 0)"/>
     <use xlink:href="#Arial-BoldMT-29" transform="translate(455.681641 0)"/>
    </g>
   </g>
   <g id="text_5">
    <!-- First Quarter -->
    <g style="fill: #333333" transform="translate(273.824489 76.379348) scale(0.09 -0.09)">
     <defs>
      <path id="ArialMT-46" d="M 525 0 
L 525 4581 
L 3616 4581 
L 3616 4041 
L 1131 4041 
L 1131 2622 
L 3281 2622 
L 3281 2081 
L 1131 2081 
L 1131 0 
L 525 0 
z
" transform="scale(0.015625)"/>
      <path id="ArialMT-72" d="M 416 0 
L 416 3319 
L 922 3319 
L 922 2816 
Q 1116 3169 1280 3281 
Q 1444 3394 1641 3394 
Q 1925 3394 2219 3213 
L 2025 2691 
Q 1819 2813 1613 2813 
Q 1428 2813 1281 2702 
Q 1134 2591 1072 2394 
Q 978 2094 978 1738 
L 978 0 
L 416 0 
z
" transform="scale(0.015625)"/>
      <path id="ArialMT-73" d="M 197 991 
L 753 1078 
Q 800 744 1014 566 
Q 1228 388 1613 388 
Q 2000 388 2187 545 
Q 2375 703 2375 916 
Q 2375 1106 2209 1216 
Q 2094 1291 1634 1406 
Q 1016 1563 777 1677 
Q 538 1791 414 1992 
Q 291 2194 291 2438 
Q 291 2659 392 2848 
Q 494 3038 669 3163 
Q 800 3259 1026 3326 
Q 1253 3394 1513 3394 
Q 1903 3394 2198 3281 
Q 2494 3169 2634 2976 
Q 2775 2784 2828 2463 
L 2278 2388 
Q 2241 2644 2061 2787 
Q 1881 2931 1553 2931 
Q 1166 2931 1000 2803 
Q 834 2675 834 2503 
Q 834 2394 903 2306 
Q 972 2216 1119 2156 
Q 1203 2125 1616 2013 
Q 2213 1853 2448 1751 
Q 2684 1650 2818 1456 
Q 2953 1263 2953 975 
Q 2953 694 2789 445 
Q 2625 197 2315 61 
Q 2006 -75 1616 -75 
Q 969 -75 630 194 
Q 291 463 197 991 
z
" transform="scale(0.015625)"/>
      <path id="ArialMT-51" d="M 3966 491 
Q 4388 200 4744 66 
L 4566 -356 
Q 4072 -178 3581 206 
Q 3072 -78 2456 -78 
Q 1834 -78 1328 222 
Q 822 522 548 1065 
Q 275 1609 275 2291 
Q 275 2969 550 3525 
Q 825 4081 1333 4372 
Q 1841 4663 2469 4663 
Q 3103 4663 3612 4361 
Q 4122 4059 4389 3517 
Q 4656 2975 4656 2294 
Q 4656 1728 4484 1276 
Q 4313 825 3966 491 
z
M 2631 1266 
Q 3156 1119 3497 828 
Q 4031 1316 4031 2294 
Q 4031 2850 3842 3265 
Q 3653 3681 3289 3911 
Q 2925 4141 2472 4141 
Q 1794 4141 1347 3677 
Q 900 3213 900 2291 
Q 900 1397 1342 919 
Q 1784 441 2472 441 
Q 2797 441 3084 563 
Q 2800 747 2484 825 
L 2631 1266 
z
" transform="scale(0.015625)"/>
      <path id="ArialMT-75" d="M 2597 0 
L 2597 488 
Q 2209 -75 1544 -75 
Q 1250 -75 995 37 
Q 741 150 617 320 
Q 494 491 444 738 
Q 409 903 409 1263 
L 409 3319 
L 972 3319 
L 972 1478 
Q 972 1038 1006 884 
Q 1059 663 1231 536 
Q 1403 409 1656 409 
Q 1909 409 2131 539 
Q 2353 669 2445 892 
Q 2538 1116 2538 1541 
L 2538 3319 
L 3100 3319 
L 3100 0 
L 2597 0 
z
" transform="scale(0.015625)"/>
     </defs>
     <use xlink:href="#ArialMT-46"/>
     <use xlink:href="#ArialMT-69" transform="translate(61.083984 0)"/>
     <use xlink:href="#ArialMT-72" transform="translate(83.300781 0)"/>
     <use xlink:href="#ArialMT-73" transform="translate(116.601562 0)"/>
     <use xlink:href="#ArialMT-74" transform="translate(166.601562 0)"/>
     <use xlink:href="#ArialMT-20" transform="translate(194.384766 0)"/>
     <use xlink:href="#ArialMT-51" transform="translate(222.167969 0)"/>
     <use xlink:href="#ArialMT-75" transform="translate(299.951172 0)"/>
     <use xlink:href="#ArialMT-61" transform="translate(355.566406 0)"/>
     <use xlink:href="#ArialMT-72" transform="translate(411.181641 0)"/>
     <use xlink:href="#ArialMT-74" transform="translate(444.482422 0)"/>
     <use xlink:href="#ArialMT-65" transform="translate(472.265625 0)"/>
     <use xlink:href="#ArialMT-72" transform="translate(527.880859 0)"/>
    </g>
    <!-- (Quadrature) -->
    <g style="fill: #333333" transform="translate(273.317536 86.036911) scale(0.09 -0.09)">
     <defs>
      <path id="ArialMT-64" d="M 2575 0 
L 2575 419 
Q 2259 -75 1647 -75 
Q 1250 -75 917 144 
Q 584 363 401 755 
Q 219 1147 219 1656 
Q 219 2153 384 2558 
Q 550 2963 881 3178 
Q 1213 3394 1622 3394 
Q 1922 3394 2156 3267 
Q 2391 3141 2538 2938 
L 2538 4581 
L 3097 4581 
L 3097 0 
L 2575 0 
z
M 797 1656 
Q 797 1019 1065 703 
Q 1334 388 1700 388 
Q 2069 388 2326 689 
Q 2584 991 2584 1609 
Q 2584 2291 2321 2609 
Q 2059 2928 1675 2928 
Q 1300 2928 1048 2622 
Q 797 2316 797 1656 
z
" transform="scale(0.015625)"/>
     </defs>
     <use xlink:href="#ArialMT-28"/>
     <use xlink:href="#ArialMT-51" transform="translate(33.300781 0)"/>
     <use xlink:href="#ArialMT-75" transform="translate(111.083984 0)"/>
     <use xlink:href="#ArialMT-61" transform="translate(166.699219 0)"/>
     <use xlink:href="#ArialMT-64" transform="translate(222.314453 0)"/>
     <use xlink:href="#ArialMT-72" transform="translate(277.929688 0)"/>
     <use xlink:href="#ArialMT-61" transform="translate(311.230469 0)"/>
     <use xlink:href="#ArialMT-74" transform="translate(366.845703 0)"/>
     <use xlink:href="#ArialMT-75" transform="translate(394.628906 0)"/>
     <use xlink:href="#ArialMT-72" transform="translate(450.244141 0)"/>
     <use xlink:href="#ArialMT-65" transform="translate(483.544922 0)"/>
     <use xlink:href="#ArialMT-29" transform="translate(539.160156 0)"/>
    </g>
    <!-- Min Velocity -->
    <g style="fill: #333333" transform="translate(275.066208 95.661567) scale(0.09 -0.09)">
     <use xlink:href="#ArialMT-4d"/>
     <use xlink:href="#ArialMT-69" transform="translate(83.300781 0)"/>
     <use xlink:href="#ArialMT-6e" transform="translate(105.517578 0)"/>
     <use xlink:href="#ArialMT-20" transform="translate(161.132812 0)"/>
     <use xlink:href="#ArialMT-56" transform="translate(188.916016 0)"/>
     <use xlink:href="#ArialMT-65" transform="translate(250.115234 0)"/>
     <use xlink:href="#ArialMT-6c" transform="translate(305.730469 0)"/>
     <use xlink:href="#ArialMT-6f" transform="translate(327.947266 0)"/>
     <use xlink:href="#ArialMT-63" transform="translate(383.5625 0)"/>
     <use xlink:href="#ArialMT-69" transform="translate(433.5625 0)"/>
     <use xlink:href="#ArialMT-74" transform="translate(455.779297 0)"/>
     <use xlink:href="#ArialMT-79" transform="translate(483.5625 0)"/>
    </g>
   </g>
   <g id="text_6">
    <!-- Max Behind -->
    <g style="fill: #333333" transform="translate(131.156589 110.961943) scale(0.09 -0.09)">
     <defs>
      <path id="Arial-BoldMT-42" d="M 469 4581 
L 2300 4581 
Q 2844 4581 3111 4536 
Q 3378 4491 3589 4347 
Q 3800 4203 3940 3964 
Q 4081 3725 4081 3428 
Q 4081 3106 3907 2837 
Q 3734 2569 3438 2434 
Q 3856 2313 4081 2019 
Q 4306 1725 4306 1328 
Q 4306 1016 4161 720 
Q 4016 425 3764 248 
Q 3513 72 3144 31 
Q 2913 6 2028 0 
L 469 0 
L 469 4581 
z
M 1394 3819 
L 1394 2759 
L 2000 2759 
Q 2541 2759 2672 2775 
Q 2909 2803 3045 2939 
Q 3181 3075 3181 3297 
Q 3181 3509 3064 3642 
Q 2947 3775 2716 3803 
Q 2578 3819 1925 3819 
L 1394 3819 
z
M 1394 1997 
L 1394 772 
L 2250 772 
Q 2750 772 2884 800 
Q 3091 838 3220 983 
Q 3350 1128 3350 1372 
Q 3350 1578 3250 1722 
Q 3150 1866 2961 1931 
Q 2772 1997 2141 1997 
L 1394 1997 
z
" transform="scale(0.015625)"/>
     </defs>
     <use xlink:href="#Arial-BoldMT-4d"/>
     <use xlink:href="#Arial-BoldMT-61" transform="translate(83.300781 0)"/>
     <use xlink:href="#Arial-BoldMT-78" transform="translate(138.916016 0)"/>
     <use xlink:href="#Arial-BoldMT-20" transform="translate(194.53125 0)"/>
     <use xlink:href="#Arial-BoldMT-42" transform="translate(222.314453 0)"/>
     <use xlink:href="#Arial-BoldMT-65" transform="translate(294.53125 0)"/>
     <use xlink:href="#Arial-BoldMT-68" transform="translate(350.146484 0)"/>
     <use xlink:href="#Arial-BoldMT-69" transform="translate(411.230469 0)"/>
     <use xlink:href="#Arial-BoldMT-6e" transform="translate(439.013672 0)"/>
     <use xlink:href="#Arial-BoldMT-64" transform="translate(500.097656 0)"/>
    </g>
    <!-- (Variation) -->
    <g style="fill: #333333" transform="translate(137.653464 120.6001) scale(0.09 -0.09)">
     <use xlink:href="#Arial-BoldMT-28"/>
     <use xlink:href="#Arial-BoldMT-56" transform="translate(33.300781 0)"/>
     <use xlink:href="#Arial-BoldMT-61" transform="translate(94.5 0)"/>
     <use xlink:href="#Arial-BoldMT-72" transform="translate(150.115234 0)"/>
     <use xlink:href="#Arial-BoldMT-69" transform="translate(189.03125 0)"/>
     <use xlink:href="#Arial-BoldMT-61" transform="translate(216.814453 0)"/>
     <use xlink:href="#Arial-BoldMT-74" transform="translate(272.429688 0)"/>
     <use xlink:href="#Arial-BoldMT-69" transform="translate(305.730469 0)"/>
     <use xlink:href="#Arial-BoldMT-6f" transform="translate(333.513672 0)"/>
     <use xlink:href="#Arial-BoldMT-6e" transform="translate(394.597656 0)"/>
     <use xlink:href="#Arial-BoldMT-29" transform="translate(455.681641 0)"/>
    </g>
   </g>
   <g id="text_7">
    <!-- Full Moon -->
    <g style="fill: #333333" transform="translate(18.206719 318.501958) scale(0.09 -0.09)">
     <use xlink:href="#ArialMT-46"/>
     <use xlink:href="#ArialMT-75" transform="translate(61.083984 0)"/>
     <use xlink:href="#ArialMT-6c" transform="translate(116.699219 0)"/>
     <use xlink:href="#ArialMT-6c" transform="translate(138.916016 0)"/>
     <use xlink:href="#ArialMT-20" transform="translate(161.132812 0)"/>
     <use xlink:href="#ArialMT-4d" transform="translate(188.916016 0)"/>
     <use xlink:href="#ArialMT-6f" transform="translate(272.216797 0)"/>
     <use xlink:href="#ArialMT-6f" transform="translate(327.832031 0)"/>
     <use xlink:href="#ArialMT-6e" transform="translate(383.447266 0)"/>
    </g>
    <!-- (Syzygy) -->
    <g style="fill: #333333" transform="translate(22.717969 328.15277) scale(0.09 -0.09)">
     <use xlink:href="#ArialMT-28"/>
     <use xlink:href="#ArialMT-53" transform="translate(33.300781 0)"/>
     <use xlink:href="#ArialMT-79" transform="translate(100 0)"/>
     <use xlink:href="#ArialMT-7a" transform="translate(150 0)"/>
     <use xlink:href="#ArialMT-79" transform="translate(200 0)"/>
     <use xlink:href="#ArialMT-67" transform="translate(250 0)"/>
     <use xlink:href="#ArialMT-79" transform="translate(305.615234 0)"/>
     <use xlink:href="#ArialMT-29" transform="translate(355.615234 0)"/>
    </g>
    <!-- Max Velocity -->
    <g style="fill: #333333" transform="translate(7.2 337.777426) scale(0.09 -0.09)">
     <use xlink:href="#ArialMT-4d"/>
     <use xlink:href="#ArialMT-61" transform="translate(83.300781 0)"/>
     <use xlink:href="#ArialMT-78" transform="translate(138.916016 0)"/>
     <use xlink:href="#ArialMT-20" transform="translate(188.916016 0)"/>
     <use xlink:href="#ArialMT-56" transform="translate(216.699219 0)"/>
     <use xlink:href="#ArialMT-65" transform="translate(277.898438 0)"/>
     <use xlink:href="#ArialMT-6c" transform="translate(333.513672 0)"/>
     <use xlink:href="#ArialMT-6f" transform="translate(355.730469 0)"/>
     <use xlink:href="#ArialMT-63" transform="translate(411.345703 0)"/>
     <use xlink:href="#ArialMT-69" transform="translate(461.345703 0)"/>
     <use xlink:href="#ArialMT-74" transform="translate(483.5625 0)"/>
     <use xlink:href="#ArialMT-79" transform="translate(511.345703 0)"/>
    </g>
   </g>
   <g id="text_8">
    <!-- Max Ahead -->
    <g style="fill: #333333" transform="translate(134.486589 535.679284) scale(0.09 -0.09)">
     <use xlink:href="#Arial-BoldMT-4d"/>
     <use xlink:href="#Arial-BoldMT-61" transform="translate(83.300781 0)"/>
     <use xlink:href="#Arial-BoldMT-78" transform="translate(138.916016 0)"/>
     <use xlink:href="#Arial-BoldMT-20" transform="translate(194.53125 0)"/>
     <use xlink:href="#Arial-BoldMT-41" transform="translate(218.564453 0)"/>
     <use xlink:href="#Arial-BoldMT-68" transform="translate(290.78125 0)"/>
     <use xlink:href="#Arial-BoldMT-65" transform="translate(351.865234 0)"/>
     <use xlink:href="#Arial-BoldMT-61" transform="translate(407.480469 0)"/>
     <use xlink:href="#Arial-BoldMT-64" transform="translate(463.095703 0)"/>
    </g>
    <!-- (Variation) -->
    <g style="fill: #333333" transform="translate(137.653464 545.317441) scale(0.09 -0.09)">
     <use xlink:href="#Arial-BoldMT-28"/>
     <use xlink:href="#Arial-BoldMT-56" transform="translate(33.300781 0)"/>
     <use xlink:href="#Arial-BoldMT-61" transform="translate(94.5 0)"/>
     <use xlink:href="#Arial-BoldMT-72" transform="translate(150.115234 0)"/>
     <use xlink:href="#Arial-BoldMT-69" transform="translate(189.03125 0)"/>
     <use xlink:href="#Arial-BoldMT-61" transform="translate(216.814453 0)"/>
     <use xlink:href="#Arial-BoldMT-74" transform="translate(272.429688 0)"/>
     <use xlink:href="#Arial-BoldMT-69" transform="translate(305.730469 0)"/>
     <use xlink:href="#Arial-BoldMT-6f" transform="translate(333.513672 0)"/>
     <use xlink:href="#Arial-BoldMT-6e" transform="translate(394.597656 0)"/>
     <use xlink:href="#Arial-BoldMT-29" transform="translate(455.681641 0)"/>
    </g>
   </g>
   <g id="text_9">
    <!-- Last Quarter -->
    <g style="fill: #333333" transform="translate(274.066364 560.617817) scale(0.09 -0.09)">
     <defs>
      <path id="ArialMT-4c" d="M 469 0 
L 469 4581 
L 1075 4581 
L 1075 541 
L 3331 541 
L 3331 0 
L 469 0 
z
" transform="scale(0.015625)"/>
     </defs>
     <use xlink:href="#ArialMT-4c"/>
     <use xlink:href="#ArialMT-61" transform="translate(55.615234 0)"/>
     <use xlink:href="#ArialMT-73" transform="translate(111.230469 0)"/>
     <use xlink:href="#ArialMT-74" transform="translate(161.230469 0)"/>
     <use xlink:href="#ArialMT-20" transform="translate(189.013672 0)"/>
     <use xlink:href="#ArialMT-51" transform="translate(216.796875 0)"/>
     <use xlink:href="#ArialMT-75" transform="translate(294.580078 0)"/>
     <use xlink:href="#ArialMT-61" transform="translate(350.195312 0)"/>
     <use xlink:href="#ArialMT-72" transform="translate(405.810547 0)"/>
     <use xlink:href="#ArialMT-74" transform="translate(439.111328 0)"/>
     <use xlink:href="#ArialMT-65" transform="translate(466.894531 0)"/>
     <use xlink:href="#ArialMT-72" transform="translate(522.509766 0)"/>
    </g>
    <!-- (Quadrature) -->
    <g style="fill: #333333" transform="translate(273.317536 570.275379) scale(0.09 -0.09)">
     <use xlink:href="#ArialMT-28"/>
     <use xlink:href="#ArialMT-51" transform="translate(33.300781 0)"/>
     <use xlink:href="#ArialMT-75" transform="translate(111.083984 0)"/>
     <use xlink:href="#ArialMT-61" transform="translate(166.699219 0)"/>
     <use xlink:href="#ArialMT-64" transform="translate(222.314453 0)"/>
     <use xlink:href="#ArialMT-72" transform="translate(277.929688 0)"/>
     <use xlink:href="#ArialMT-61" transform="translate(311.230469 0)"/>
     <use xlink:href="#ArialMT-74" transform="translate(366.845703 0)"/>
     <use xlink:href="#ArialMT-75" transform="translate(394.628906 0)"/>
     <use xlink:href="#ArialMT-72" transform="translate(450.244141 0)"/>
     <use xlink:href="#ArialMT-65" transform="translate(483.544922 0)"/>
     <use xlink:href="#ArialMT-29" transform="translate(539.160156 0)"/>
    </g>
    <!-- Min Velocity -->
    <g style="fill: #333333" transform="translate(275.066208 579.900036) scale(0.09 -0.09)">
     <use xlink:href="#ArialMT-4d"/>
     <use xlink:href="#ArialMT-69" transform="translate(83.300781 0)"/>
     <use xlink:href="#ArialMT-6e" transform="translate(105.517578 0)"/>
     <use xlink:href="#ArialMT-20" transform="translate(161.132812 0)"/>
     <use xlink:href="#ArialMT-56" transform="translate(188.916016 0)"/>
     <use xlink:href="#ArialMT-65" transform="translate(250.115234 0)"/>
     <use xlink:href="#ArialMT-6c" transform="translate(305.730469 0)"/>
     <use xlink:href="#ArialMT-6f" transform="translate(327.947266 0)"/>
     <use xlink:href="#ArialMT-63" transform="translate(383.5625 0)"/>
     <use xlink:href="#ArialMT-69" transform="translate(433.5625 0)"/>
     <use xlink:href="#ArialMT-74" transform="translate(455.779297 0)"/>
     <use xlink:href="#ArialMT-79" transform="translate(483.5625 0)"/>
    </g>
   </g>
   <g id="text_10">
    <!-- Max Behind -->
    <g style="fill: #333333" transform="translate(416.492388 535.679284) scale(0.09 -0.09)">
     <use xlink:href="#Arial-BoldMT-4d"/>
     <use xlink:href="#Arial-BoldMT-61" transform="translate(83.300781 0)"/>
     <use xlink:href="#Arial-BoldMT-78" transform="translate(138.916016 0)"/>
     <use xlink:href="#Arial-BoldMT-20" transform="translate(194.53125 0)"/>
     <use xlink:href="#Arial-BoldMT-42" transform="translate(222.314453 0)"/>
     <use xlink:href="#Arial-BoldMT-65" transform="translate(294.53125 0)"/>
     <use xlink:href="#Arial-BoldMT-68" transform="translate(350.146484 0)"/>
     <use xlink:href="#Arial-BoldMT-69" transform="translate(411.230469 0)"/>
     <use xlink:href="#Arial-BoldMT-6e" transform="translate(439.013672 0)"/>
     <use xlink:href="#Arial-BoldMT-64" transform="translate(500.097656 0)"/>
    </g>
    <!-- (Variation) -->
    <g style="fill: #333333" transform="translate(416.492388 545.317441) scale(0.09 -0.09)">
     <use xlink:href="#Arial-BoldMT-28"/>
     <use xlink:href="#Arial-BoldMT-56" transform="translate(33.300781 0)"/>
     <use xlink:href="#Arial-BoldMT-61" transform="translate(94.5 0)"/>
     <use xlink:href="#Arial-BoldMT-72" transform="translate(150.115234 0)"/>
     <use xlink:href="#Arial-BoldMT-69" transform="translate(189.03125 0)"/>
     <use xlink:href="#Arial-BoldMT-61" transform="translate(216.814453 0)"/>
     <use xlink:href="#Arial-BoldMT-74" transform="translate(272.429688 0)"/>
     <use xlink:href="#Arial-BoldMT-69" transform="translate(305.730469 0)"/>
     <use xlink:href="#Arial-BoldMT-6f" transform="translate(333.513672 0)"/>
     <use xlink:href="#Arial-BoldMT-6e" transform="translate(394.597656 0)"/>
     <use xlink:href="#Arial-BoldMT-29" transform="translate(455.681641 0)"/>
    </g>
   </g>
   <g id="text_11">
    <!-- Tangential Force: -->
    <g transform="translate(25.103817 51.893786) scale(0.1 -0.1)">
     <defs>
      <path id="Arial-BoldMT-67" d="M 378 -219 
L 1381 -341 
Q 1406 -516 1497 -581 
Q 1622 -675 1891 -675 
Q 2234 -675 2406 -572 
Q 2522 -503 2581 -350 
Q 2622 -241 2622 53 
L 2622 538 
Q 2228 0 1628 0 
Q 959 0 569 566 
Q 263 1013 263 1678 
Q 263 2513 664 2953 
Q 1066 3394 1663 3394 
Q 2278 3394 2678 2853 
L 2678 3319 
L 3500 3319 
L 3500 341 
Q 3500 -247 3403 -537 
Q 3306 -828 3131 -993 
Q 2956 -1159 2664 -1253 
Q 2372 -1347 1925 -1347 
Q 1081 -1347 728 -1058 
Q 375 -769 375 -325 
Q 375 -281 378 -219 
z
M 1163 1728 
Q 1163 1200 1367 954 
Q 1572 709 1872 709 
Q 2194 709 2416 961 
Q 2638 1213 2638 1706 
Q 2638 2222 2425 2472 
Q 2213 2722 1888 2722 
Q 1572 2722 1367 2476 
Q 1163 2231 1163 1728 
z
" transform="scale(0.015625)"/>
      <path id="Arial-BoldMT-6c" d="M 459 0 
L 459 4581 
L 1338 4581 
L 1338 0 
L 459 0 
z
" transform="scale(0.015625)"/>
      <path id="Arial-BoldMT-46" d="M 472 0 
L 472 4581 
L 3613 4581 
L 3613 3806 
L 1397 3806 
L 1397 2722 
L 3309 2722 
L 3309 1947 
L 1397 1947 
L 1397 0 
L 472 0 
z
" transform="scale(0.015625)"/>
      <path id="Arial-BoldMT-63" d="M 3353 2338 
L 2488 2181 
Q 2444 2441 2289 2572 
Q 2134 2703 1888 2703 
Q 1559 2703 1364 2476 
Q 1169 2250 1169 1719 
Q 1169 1128 1367 884 
Q 1566 641 1900 641 
Q 2150 641 2309 783 
Q 2469 925 2534 1272 
L 3397 1125 
Q 3263 531 2881 228 
Q 2500 -75 1859 -75 
Q 1131 -75 698 384 
Q 266 844 266 1656 
Q 266 2478 700 2936 
Q 1134 3394 1875 3394 
Q 2481 3394 2839 3133 
Q 3197 2872 3353 2338 
z
" transform="scale(0.015625)"/>
      <path id="Arial-BoldMT-3a" d="M 628 2441 
L 628 3319 
L 1506 3319 
L 1506 2441 
L 628 2441 
z
M 628 0 
L 628 878 
L 1506 878 
L 1506 0 
L 628 0 
z
" transform="scale(0.015625)"/>
     </defs>
     <use xlink:href="#Arial-BoldMT-54"/>
     <use xlink:href="#Arial-BoldMT-61" transform="translate(53.708984 0)"/>
     <use xlink:href="#Arial-BoldMT-6e" transform="translate(109.324219 0)"/>
     <use xlink:href="#Arial-BoldMT-67" transform="translate(170.408203 0)"/>
     <use xlink:href="#Arial-BoldMT-65" transform="translate(231.492188 0)"/>
     <use xlink:href="#Arial-BoldMT-6e" transform="translate(287.107422 0)"/>
     <use xlink:href="#Arial-BoldMT-74" transform="translate(348.191406 0)"/>
     <use xlink:href="#Arial-BoldMT-69" transform="translate(381.492188 0)"/>
     <use xlink:href="#Arial-BoldMT-61" transform="translate(409.275391 0)"/>
     <use xlink:href="#Arial-BoldMT-6c" transform="translate(464.890625 0)"/>
     <use xlink:href="#Arial-BoldMT-20" transform="translate(492.673828 0)"/>
     <use xlink:href="#Arial-BoldMT-46" transform="translate(520.457031 0)"/>
     <use xlink:href="#Arial-BoldMT-6f" transform="translate(581.541016 0)"/>
     <use xlink:href="#Arial-BoldMT-72" transform="translate(642.625 0)"/>
     <use xlink:href="#Arial-BoldMT-63" transform="translate(681.541016 0)"/>
     <use xlink:href="#Arial-BoldMT-65" transform="translate(737.15625 0)"/>
     <use xlink:href="#Arial-BoldMT-3a" transform="translate(792.771484 0)"/>
    </g>
   </g>
   <g id="text_12">
    <!-- Accelerating -->
    <g transform="translate(70.765817 80.260263) scale(0.09 -0.09)">
     <defs>
      <path id="ArialMT-41" d="M -9 0 
L 1750 4581 
L 2403 4581 
L 4278 0 
L 3588 0 
L 3053 1388 
L 1138 1388 
L 634 0 
L -9 0 
z
M 1313 1881 
L 2866 1881 
L 2388 3150 
Q 2169 3728 2063 4100 
Q 1975 3659 1816 3225 
L 1313 1881 
z
" transform="scale(0.015625)"/>
     </defs>
     <use xlink:href="#ArialMT-41"/>
     <use xlink:href="#ArialMT-63" transform="translate(66.699219 0)"/>
     <use xlink:href="#ArialMT-63" transform="translate(116.699219 0)"/>
     <use xlink:href="#ArialMT-65" transform="translate(166.699219 0)"/>
     <use xlink:href="#ArialMT-6c" transform="translate(222.314453 0)"/>
     <use xlink:href="#ArialMT-65" transform="translate(244.53125 0)"/>
     <use xlink:href="#ArialMT-72" transform="translate(300.146484 0)"/>
     <use xlink:href="#ArialMT-61" transform="translate(333.447266 0)"/>
     <use xlink:href="#ArialMT-74" transform="translate(389.0625 0)"/>
     <use xlink:href="#ArialMT-69" transform="translate(416.845703 0)"/>
     <use xlink:href="#ArialMT-6e" transform="translate(439.0625 0)"/>
     <use xlink:href="#ArialMT-67" transform="translate(494.677734 0)"/>
    </g>
   </g>
   <g id="text_13">
    <!-- Decelerating -->
    <g transform="translate(70.765817 106.352835) scale(0.09 -0.09)">
     <defs>
      <path id="ArialMT-44" d="M 494 0 
L 494 4581 
L 2072 4581 
Q 2606 4581 2888 4516 
Q 3281 4425 3559 4188 
Q 3922 3881 4101 3404 
Q 4281 2928 4281 2316 
Q 4281 1794 4159 1391 
Q 4038 988 3847 723 
Q 3656 459 3429 307 
Q 3203 156 2883 78 
Q 2563 0 2147 0 
L 494 0 
z
M 1100 541 
L 2078 541 
Q 2531 541 2789 625 
Q 3047 709 3200 863 
Q 3416 1078 3536 1442 
Q 3656 1806 3656 2325 
Q 3656 3044 3420 3430 
Q 3184 3816 2847 3947 
Q 2603 4041 2063 4041 
L 1100 4041 
L 1100 541 
z
" transform="scale(0.015625)"/>
     </defs>
     <use xlink:href="#ArialMT-44"/>
     <use xlink:href="#ArialMT-65" transform="translate(72.216797 0)"/>
     <use xlink:href="#ArialMT-63" transform="translate(127.832031 0)"/>
     <use xlink:href="#ArialMT-65" transform="translate(177.832031 0)"/>
     <use xlink:href="#ArialMT-6c" transform="translate(233.447266 0)"/>
     <use xlink:href="#ArialMT-65" transform="translate(255.664062 0)"/>
     <use xlink:href="#ArialMT-72" transform="translate(311.279297 0)"/>
     <use xlink:href="#ArialMT-61" transform="translate(344.580078 0)"/>
     <use xlink:href="#ArialMT-74" transform="translate(400.195312 0)"/>
     <use xlink:href="#ArialMT-69" transform="translate(427.978516 0)"/>
     <use xlink:href="#ArialMT-6e" transform="translate(450.195312 0)"/>
     <use xlink:href="#ArialMT-67" transform="translate(505.810547 0)"/>
    </g>
   </g>
   <g id="text_14">
    <!-- Effect of Sun's Tangential Force on Moon's Longitude -->
    <g transform="translate(180.893004 51.893786) scale(0.1 -0.1)">
     <defs>
      <path id="Arial-ItalicMT-45" d="M 288 0 
L 1247 4581 
L 4553 4581 
L 4444 4059 
L 1750 4059 
L 1450 2634 
L 4075 2634 
L 3966 2113 
L 1341 2113 
L 1009 519 
L 3894 519 
L 3784 0 
L 288 0 
z
" transform="scale(0.015625)"/>
      <path id="Arial-ItalicMT-66" d="M 291 0 
L 894 2881 
L 388 2881 
L 478 3319 
L 984 3319 
L 1081 3791 
Q 1156 4144 1236 4300 
Q 1316 4456 1495 4557 
Q 1675 4659 1984 4659 
Q 2200 4659 2609 4569 
L 2506 4075 
Q 2219 4150 2025 4150 
Q 1859 4150 1773 4067 
Q 1688 3984 1625 3675 
L 1550 3319 
L 2181 3319 
L 2091 2881 
L 1459 2881 
L 856 0 
L 291 0 
z
" transform="scale(0.015625)"/>
      <path id="Arial-ItalicMT-65" d="M 2650 1128 
L 3200 1072 
Q 3081 663 2654 294 
Q 2228 -75 1638 -75 
Q 1269 -75 961 95 
Q 653 266 492 591 
Q 331 916 331 1331 
Q 331 1875 582 2386 
Q 834 2897 1234 3145 
Q 1634 3394 2100 3394 
Q 2694 3394 3048 3025 
Q 3403 2656 3403 2019 
Q 3403 1775 3359 1519 
L 916 1519 
Q 903 1422 903 1344 
Q 903 878 1117 633 
Q 1331 388 1641 388 
Q 1931 388 2212 578 
Q 2494 769 2650 1128 
z
M 1006 1950 
L 2869 1950 
Q 2872 2038 2872 2075 
Q 2872 2500 2659 2726 
Q 2447 2953 2113 2953 
Q 1750 2953 1451 2703 
Q 1153 2453 1006 1950 
z
" transform="scale(0.015625)"/>
      <path id="Arial-ItalicMT-63" d="M 2503 1209 
L 3069 1150 
Q 2856 528 2464 226 
Q 2072 -75 1572 -75 
Q 1031 -75 695 275 
Q 359 625 359 1253 
Q 359 1797 575 2322 
Q 791 2847 1192 3120 
Q 1594 3394 2109 3394 
Q 2644 3394 2956 3092 
Q 3269 2791 3269 2294 
L 2713 2256 
Q 2709 2572 2529 2750 
Q 2350 2928 2056 2928 
Q 1716 2928 1466 2712 
Q 1216 2497 1073 2058 
Q 931 1619 931 1213 
Q 931 788 1118 575 
Q 1306 363 1581 363 
Q 1856 363 2107 572 
Q 2359 781 2503 1209 
z
" transform="scale(0.015625)"/>
      <path id="Arial-ItalicMT-74" d="M 1534 459 
L 1441 -3 
Q 1238 -56 1047 -56 
Q 709 -56 509 109 
Q 359 234 359 450 
Q 359 559 441 953 
L 844 2881 
L 397 2881 
L 488 3319 
L 934 3319 
L 1106 4134 
L 1753 4525 
L 1500 3319 
L 2056 3319 
L 1963 2881 
L 1409 2881 
L 1025 1047 
Q 953 697 953 628 
Q 953 528 1011 475 
Q 1069 422 1200 422 
Q 1388 422 1534 459 
z
" transform="scale(0.015625)"/>
      <path id="Arial-ItalicMT-20" transform="scale(0.015625)"/>
      <path id="Arial-ItalicMT-6f" d="M 313 1259 
Q 313 2231 884 2869 
Q 1356 3394 2122 3394 
Q 2722 3394 3089 3019 
Q 3456 2644 3456 2006 
Q 3456 1434 3225 942 
Q 2994 450 2567 187 
Q 2141 -75 1669 -75 
Q 1281 -75 964 90 
Q 647 256 480 559 
Q 313 863 313 1259 
z
M 878 1316 
Q 878 847 1103 605 
Q 1328 363 1675 363 
Q 1856 363 2034 436 
Q 2213 509 2366 659 
Q 2519 809 2626 1001 
Q 2734 1194 2800 1416 
Q 2897 1725 2897 2009 
Q 2897 2459 2670 2707 
Q 2444 2956 2100 2956 
Q 1834 2956 1615 2829 
Q 1397 2703 1220 2459 
Q 1044 2216 961 1892 
Q 878 1569 878 1316 
z
" transform="scale(0.015625)"/>
      <path id="Arial-ItalicMT-53" d="M 450 1481 
L 1050 1538 
L 1044 1378 
Q 1044 1113 1166 892 
Q 1288 672 1569 551 
Q 1850 431 2238 431 
Q 2788 431 3077 672 
Q 3366 913 3366 1222 
Q 3366 1438 3213 1616 
Q 3056 1791 2359 2091 
Q 1819 2325 1622 2450 
Q 1313 2653 1166 2892 
Q 1019 3131 1019 3438 
Q 1019 3791 1212 4075 
Q 1406 4359 1779 4509 
Q 2153 4659 2622 4659 
Q 3181 4659 3565 4471 
Q 3950 4284 4123 3971 
Q 4297 3659 4297 3375 
Q 4297 3347 4294 3281 
L 3703 3234 
Q 3703 3428 3669 3538 
Q 3606 3728 3475 3859 
Q 3344 3991 3114 4070 
Q 2884 4150 2600 4150 
Q 2100 4150 1822 3925 
Q 1609 3753 1609 3469 
Q 1609 3300 1696 3167 
Q 1784 3034 2013 2906 
Q 2175 2816 2784 2547 
Q 3278 2328 3466 2203 
Q 3716 2038 3850 1802 
Q 3984 1566 3984 1266 
Q 3984 894 3757 580 
Q 3531 266 3131 94 
Q 2731 -78 2216 -78 
Q 1438 -78 945 261 
Q 453 600 450 1481 
z
" transform="scale(0.015625)"/>
      <path id="Arial-ItalicMT-75" d="M 2478 600 
Q 1881 -75 1256 -75 
Q 872 -75 636 145 
Q 400 366 400 684 
Q 400 894 506 1403 
L 906 3319 
L 1472 3319 
L 1028 1197 
Q 972 931 972 784 
Q 972 597 1086 492 
Q 1200 388 1422 388 
Q 1659 388 1886 503 
Q 2113 619 2277 816 
Q 2441 1013 2544 1281 
Q 2613 1453 2703 1884 
L 3003 3319 
L 3569 3319 
L 2875 0 
L 2353 0 
L 2478 600 
z
" transform="scale(0.015625)"/>
      <path id="Arial-ItalicMT-6e" d="M 213 0 
L 906 3319 
L 1419 3319 
L 1297 2741 
Q 1631 3081 1922 3237 
Q 2213 3394 2516 3394 
Q 2919 3394 3148 3175 
Q 3378 2956 3378 2591 
Q 3378 2406 3297 2009 
L 2875 0 
L 2309 0 
L 2750 2103 
Q 2816 2409 2816 2556 
Q 2816 2722 2702 2825 
Q 2588 2928 2372 2928 
Q 1938 2928 1598 2615 
Q 1259 2303 1100 1544 
L 778 0 
L 213 0 
z
" transform="scale(0.015625)"/>
      <path id="Arial-ItalicMT-27" d="M 813 2959 
L 850 3816 
L 1013 4581 
L 1656 4581 
L 1491 3816 
L 1163 2959 
L 813 2959 
z
" transform="scale(0.015625)"/>
      <path id="Arial-ItalicMT-73" d="M 266 1134 
L 831 1169 
Q 831 925 906 753 
Q 981 581 1182 472 
Q 1384 363 1653 363 
Q 2028 363 2215 513 
Q 2403 663 2403 866 
Q 2403 1013 2291 1144 
Q 2175 1275 1726 1467 
Q 1278 1659 1153 1738 
Q 944 1866 837 2039 
Q 731 2213 731 2438 
Q 731 2831 1043 3112 
Q 1356 3394 1919 3394 
Q 2544 3394 2870 3105 
Q 3197 2816 3209 2344 
L 2656 2306 
Q 2644 2606 2444 2781 
Q 2244 2956 1878 2956 
Q 1584 2956 1421 2822 
Q 1259 2688 1259 2531 
Q 1259 2375 1400 2256 
Q 1494 2175 1884 2006 
Q 2534 1725 2703 1563 
Q 2972 1303 2972 931 
Q 2972 684 2820 446 
Q 2669 209 2358 67 
Q 2047 -75 1625 -75 
Q 1050 -75 647 209 
Q 244 494 266 1134 
z
" transform="scale(0.015625)"/>
      <path id="Arial-ItalicMT-54" d="M 1453 0 
L 2300 4059 
L 797 4059 
L 906 4581 
L 4513 4581 
L 4403 4059 
L 2913 4059 
L 2066 0 
L 1453 0 
z
" transform="scale(0.015625)"/>
      <path id="Arial-ItalicMT-61" d="M 2450 413 
Q 2156 159 1884 42 
Q 1613 -75 1303 -75 
Q 844 -75 562 195 
Q 281 466 281 888 
Q 281 1166 407 1380 
Q 534 1594 743 1723 
Q 953 1853 1256 1909 
Q 1447 1947 1980 1969 
Q 2513 1991 2744 2081 
Q 2809 2313 2809 2466 
Q 2809 2663 2666 2775 
Q 2469 2931 2091 2931 
Q 1734 2931 1507 2773 
Q 1281 2616 1178 2325 
L 606 2375 
Q 781 2869 1161 3131 
Q 1541 3394 2119 3394 
Q 2734 3394 3094 3100 
Q 3369 2881 3369 2531 
Q 3369 2266 3291 1916 
L 3106 1091 
Q 3019 697 3019 450 
Q 3019 294 3088 0 
L 2516 0 
Q 2469 163 2450 413 
z
M 2659 1681 
Q 2541 1634 2405 1609 
Q 2269 1584 1950 1556 
Q 1456 1513 1253 1445 
Q 1050 1378 947 1231 
Q 844 1084 844 906 
Q 844 669 1008 516 
Q 1172 363 1475 363 
Q 1756 363 2015 511 
Q 2275 659 2425 925 
Q 2575 1191 2659 1681 
z
" transform="scale(0.015625)"/>
      <path id="Arial-ItalicMT-67" d="M 181 -300 
L 753 -353 
Q 747 -547 800 -644 
Q 853 -741 969 -794 
Q 1122 -863 1366 -863 
Q 1878 -863 2103 -597 
Q 2250 -419 2375 178 
L 2431 447 
Q 1991 0 1494 0 
Q 991 0 652 370 
Q 313 741 313 1419 
Q 313 1978 580 2447 
Q 847 2916 1215 3155 
Q 1584 3394 1975 3394 
Q 2628 3394 2981 2775 
L 3094 3319 
L 3613 3319 
L 2944 116 
Q 2834 -413 2656 -708 
Q 2478 -1003 2161 -1165 
Q 1844 -1328 1428 -1328 
Q 1028 -1328 739 -1225 
Q 450 -1122 308 -923 
Q 166 -725 166 -469 
Q 166 -391 181 -300 
z
M 888 1469 
Q 888 1128 953 956 
Q 1047 716 1220 589 
Q 1394 463 1606 463 
Q 1884 463 2159 658 
Q 2434 853 2604 1262 
Q 2775 1672 2775 2044 
Q 2775 2453 2548 2695 
Q 2322 2938 1988 2938 
Q 1781 2938 1587 2827 
Q 1394 2716 1226 2489 
Q 1059 2263 973 1947 
Q 888 1631 888 1469 
z
" transform="scale(0.015625)"/>
      <path id="Arial-ItalicMT-69" d="M 1016 3941 
L 1150 4581 
L 1713 4581 
L 1578 3941 
L 1016 3941 
z
M 191 0 
L 884 3319 
L 1450 3319 
L 756 0 
L 191 0 
z
" transform="scale(0.015625)"/>
      <path id="Arial-ItalicMT-6c" d="M 169 0 
L 1125 4581 
L 1691 4581 
L 734 0 
L 169 0 
z
" transform="scale(0.015625)"/>
      <path id="Arial-ItalicMT-46" d="M 291 0 
L 1247 4581 
L 4225 4581 
L 4116 4059 
L 1750 4059 
L 1447 2600 
L 3856 2600 
L 3747 2078 
L 1338 2078 
L 903 0 
L 291 0 
z
" transform="scale(0.015625)"/>
      <path id="Arial-ItalicMT-72" d="M 213 0 
L 906 3319 
L 1406 3319 
L 1266 2641 
Q 1522 3025 1767 3209 
Q 2013 3394 2269 3394 
Q 2438 3394 2684 3272 
L 2453 2747 
Q 2306 2853 2131 2853 
Q 1834 2853 1521 2522 
Q 1209 2191 1031 1331 
L 750 0 
L 213 0 
z
" transform="scale(0.015625)"/>
      <path id="Arial-ItalicMT-4d" d="M 281 0 
L 1238 4581 
L 1991 4581 
L 2453 1613 
Q 2544 1028 2572 491 
Q 2763 953 3209 1744 
L 4816 4581 
L 5581 4581 
L 4625 0 
L 4022 0 
L 4500 2228 
Q 4666 3000 4975 3959 
Q 4778 3513 4488 2997 
L 2781 0 
L 2191 0 
L 1731 2938 
Q 1669 3341 1641 3878 
Q 1563 3275 1488 2922 
L 878 0 
L 281 0 
z
" transform="scale(0.015625)"/>
      <path id="Arial-ItalicMT-4c" d="M 256 0 
L 1213 4581 
L 1825 4581 
L 978 519 
L 3356 519 
L 3247 0 
L 256 0 
z
" transform="scale(0.015625)"/>
      <path id="Arial-ItalicMT-64" d="M 2450 481 
Q 1966 -75 1438 -75 
Q 966 -75 652 273 
Q 338 622 338 1284 
Q 338 1891 586 2392 
Q 834 2894 1207 3144 
Q 1581 3394 1956 3394 
Q 2575 3394 2891 2797 
L 3266 4581 
L 3828 4581 
L 2872 0 
L 2350 0 
L 2450 481 
z
M 900 1391 
Q 900 1044 969 844 
Q 1038 644 1203 511 
Q 1369 378 1600 378 
Q 1984 378 2297 778 
Q 2716 1309 2716 2091 
Q 2716 2484 2509 2706 
Q 2303 2928 1991 2928 
Q 1788 2928 1620 2837 
Q 1453 2747 1289 2530 
Q 1125 2313 1012 1978 
Q 900 1644 900 1391 
z
" transform="scale(0.015625)"/>
     </defs>
     <use xlink:href="#Arial-ItalicMT-45"/>
     <use xlink:href="#Arial-ItalicMT-66" transform="translate(66.699219 0)"/>
     <use xlink:href="#Arial-ItalicMT-66" transform="translate(94.482422 0)"/>
     <use xlink:href="#Arial-ItalicMT-65" transform="translate(122.265625 0)"/>
     <use xlink:href="#Arial-ItalicMT-63" transform="translate(177.880859 0)"/>
     <use xlink:href="#Arial-ItalicMT-74" transform="translate(227.880859 0)"/>
     <use xlink:href="#Arial-ItalicMT-20" transform="translate(255.664062 0)"/>
     <use xlink:href="#Arial-ItalicMT-6f" transform="translate(283.447266 0)"/>
     <use xlink:href="#Arial-ItalicMT-66" transform="translate(339.0625 0)"/>
     <use xlink:href="#Arial-ItalicMT-20" transform="translate(366.845703 0)"/>
     <use xlink:href="#Arial-ItalicMT-53" transform="translate(394.628906 0)"/>
     <use xlink:href="#Arial-ItalicMT-75" transform="translate(461.328125 0)"/>
     <use xlink:href="#Arial-ItalicMT-6e" transform="translate(516.943359 0)"/>
     <use xlink:href="#Arial-ItalicMT-27" transform="translate(572.558594 0)"/>
     <use xlink:href="#Arial-ItalicMT-73" transform="translate(591.650391 0)"/>
     <use xlink:href="#Arial-ItalicMT-20" transform="translate(641.650391 0)"/>
     <use xlink:href="#Arial-ItalicMT-54" transform="translate(669.433594 0)"/>
     <use xlink:href="#Arial-ItalicMT-61" transform="translate(721.392578 0)"/>
     <use xlink:href="#Arial-ItalicMT-6e" transform="translate(777.007812 0)"/>
     <use xlink:href="#Arial-ItalicMT-67" transform="translate(832.623047 0)"/>
     <use xlink:href="#Arial-ItalicMT-65" transform="translate(888.238281 0)"/>
     <use xlink:href="#Arial-ItalicMT-6e" transform="translate(943.853516 0)"/>
     <use xlink:href="#Arial-ItalicMT-74" transform="translate(999.46875 0)"/>
     <use xlink:href="#Arial-ItalicMT-69" transform="translate(1027.251953 0)"/>
     <use xlink:href="#Arial-ItalicMT-61" transform="translate(1049.46875 0)"/>
     <use xlink:href="#Arial-ItalicMT-6c" transform="translate(1105.083984 0)"/>
     <use xlink:href="#Arial-ItalicMT-20" transform="translate(1127.300781 0)"/>
     <use xlink:href="#Arial-ItalicMT-46" transform="translate(1155.083984 0)"/>
     <use xlink:href="#Arial-ItalicMT-6f" transform="translate(1216.167969 0)"/>
     <use xlink:href="#Arial-ItalicMT-72" transform="translate(1271.783203 0)"/>
     <use xlink:href="#Arial-ItalicMT-63" transform="translate(1305.083984 0)"/>
     <use xlink:href="#Arial-ItalicMT-65" transform="translate(1355.083984 0)"/>
     <use xlink:href="#Arial-ItalicMT-20" transform="translate(1410.699219 0)"/>
     <use xlink:href="#Arial-ItalicMT-6f" transform="translate(1438.482422 0)"/>
     <use xlink:href="#Arial-ItalicMT-6e" transform="translate(1494.097656 0)"/>
     <use xlink:href="#Arial-ItalicMT-20" transform="translate(1549.712891 0)"/>
     <use xlink:href="#Arial-ItalicMT-4d" transform="translate(1577.496094 0)"/>
     <use xlink:href="#Arial-ItalicMT-6f" transform="translate(1660.796875 0)"/>
     <use xlink:href="#Arial-ItalicMT-6f" transform="translate(1716.412109 0)"/>
     <use xlink:href="#Arial-ItalicMT-6e" transform="translate(1772.027344 0)"/>
     <use xlink:href="#Arial-ItalicMT-27" transform="translate(1827.642578 0)"/>
     <use xlink:href="#Arial-ItalicMT-73" transform="translate(1846.734375 0)"/>
     <use xlink:href="#Arial-ItalicMT-20" transform="translate(1896.734375 0)"/>
     <use xlink:href="#Arial-ItalicMT-4c" transform="translate(1924.517578 0)"/>
     <use xlink:href="#Arial-ItalicMT-6f" transform="translate(1980.132812 0)"/>
     <use xlink:href="#Arial-ItalicMT-6e" transform="translate(2035.748047 0)"/>
     <use xlink:href="#Arial-ItalicMT-67" transform="translate(2091.363281 0)"/>
     <use xlink:href="#Arial-ItalicMT-69" transform="translate(2146.978516 0)"/>
     <use xlink:href="#Arial-ItalicMT-74" transform="translate(2169.195312 0)"/>
     <use xlink:href="#Arial-ItalicMT-75" transform="translate(2196.978516 0)"/>
     <use xlink:href="#Arial-ItalicMT-64" transform="translate(2252.59375 0)"/>
     <use xlink:href="#Arial-ItalicMT-65" transform="translate(2308.208984 0)"/>
    </g>
   </g>
   <g id="text_15">
    <!-- The Variation (Lunar Perturbation) -->
    <g transform="translate(224.740031 18.8475) scale(0.16 -0.16)">
     <defs>
      <path id="Arial-BoldMT-4c" d="M 491 0 
L 491 4544 
L 1416 4544 
L 1416 772 
L 3716 772 
L 3716 0 
L 491 0 
z
" transform="scale(0.015625)"/>
      <path id="Arial-BoldMT-50" d="M 466 0 
L 466 4581 
L 1950 4581 
Q 2794 4581 3050 4513 
Q 3444 4409 3709 4064 
Q 3975 3719 3975 3172 
Q 3975 2750 3822 2462 
Q 3669 2175 3433 2011 
Q 3197 1847 2953 1794 
Q 2622 1728 1994 1728 
L 1391 1728 
L 1391 0 
L 466 0 
z
M 1391 3806 
L 1391 2506 
L 1897 2506 
Q 2444 2506 2628 2578 
Q 2813 2650 2917 2803 
Q 3022 2956 3022 3159 
Q 3022 3409 2875 3571 
Q 2728 3734 2503 3775 
Q 2338 3806 1838 3806 
L 1391 3806 
z
" transform="scale(0.015625)"/>
      <path id="Arial-BoldMT-62" d="M 422 0 
L 422 4581 
L 1300 4581 
L 1300 2931 
Q 1706 3394 2263 3394 
Q 2869 3394 3266 2955 
Q 3663 2516 3663 1694 
Q 3663 844 3258 384 
Q 2853 -75 2275 -75 
Q 1991 -75 1714 67 
Q 1438 209 1238 488 
L 1238 0 
L 422 0 
z
M 1294 1731 
Q 1294 1216 1456 969 
Q 1684 619 2063 619 
Q 2353 619 2558 867 
Q 2763 1116 2763 1650 
Q 2763 2219 2556 2470 
Q 2350 2722 2028 2722 
Q 1713 2722 1503 2476 
Q 1294 2231 1294 1731 
z
" transform="scale(0.015625)"/>
     </defs>
     <use xlink:href="#Arial-BoldMT-54"/>
     <use xlink:href="#Arial-BoldMT-68" transform="translate(61.083984 0)"/>
     <use xlink:href="#Arial-BoldMT-65" transform="translate(122.167969 0)"/>
     <use xlink:href="#Arial-BoldMT-20" transform="translate(177.783203 0)"/>
     <use xlink:href="#Arial-BoldMT-56" transform="translate(205.566406 0)"/>
     <use xlink:href="#Arial-BoldMT-61" transform="translate(266.765625 0)"/>
     <use xlink:href="#Arial-BoldMT-72" transform="translate(322.380859 0)"/>
     <use xlink:href="#Arial-BoldMT-69" transform="translate(361.296875 0)"/>
     <use xlink:href="#Arial-BoldMT-61" transform="translate(389.080078 0)"/>
     <use xlink:href="#Arial-BoldMT-74" transform="translate(444.695312 0)"/>
     <use xlink:href="#Arial-BoldMT-69" transform="translate(477.996094 0)"/>
     <use xlink:href="#Arial-BoldMT-6f" transform="translate(505.779297 0)"/>
     <use xlink:href="#Arial-BoldMT-6e" transform="translate(566.863281 0)"/>
     <use xlink:href="#Arial-BoldMT-20" transform="translate(627.947266 0)"/>
     <use xlink:href="#Arial-BoldMT-28" transform="translate(655.730469 0)"/>
     <use xlink:href="#Arial-BoldMT-4c" transform="translate(689.03125 0)"/>
     <use xlink:href="#Arial-BoldMT-75" transform="translate(750.115234 0)"/>
     <use xlink:href="#Arial-BoldMT-6e" transform="translate(811.199219 0)"/>
     <use xlink:href="#Arial-BoldMT-61" transform="translate(872.283203 0)"/>
     <use xlink:href="#Arial-BoldMT-72" transform="translate(927.898438 0)"/>
     <use xlink:href="#Arial-BoldMT-20" transform="translate(966.814453 0)"/>
     <use xlink:href="#Arial-BoldMT-50" transform="translate(994.597656 0)"/>
     <use xlink:href="#Arial-BoldMT-65" transform="translate(1061.296875 0)"/>
     <use xlink:href="#Arial-BoldMT-72" transform="translate(1116.912109 0)"/>
     <use xlink:href="#Arial-BoldMT-74" transform="translate(1155.828125 0)"/>
     <use xlink:href="#Arial-BoldMT-75" transform="translate(1189.128906 0)"/>
     <use xlink:href="#Arial-BoldMT-72" transform="translate(1250.212891 0)"/>
     <use xlink:href="#Arial-BoldMT-62" transform="translate(1289.128906 0)"/>
     <use xlink:href="#Arial-BoldMT-61" transform="translate(1350.212891 0)"/>
     <use xlink:href="#Arial-BoldMT-74" transform="translate(1405.828125 0)"/>
     <use xlink:href="#Arial-BoldMT-69" transform="translate(1439.128906 0)"/>
     <use xlink:href="#Arial-BoldMT-6f" transform="translate(1466.912109 0)"/>
     <use xlink:href="#Arial-BoldMT-6e" transform="translate(1527.996094 0)"/>
     <use xlink:href="#Arial-BoldMT-29" transform="translate(1589.080078 0)"/>
    </g>
   </g>
   <g id="patch_10">
    <path d="M 480.565178 297.495621 
L 475.726428 292.038906 
L 477.931734 291.447996 
L 474.555106 278.846252 
L 476.445368 278.339758 
L 479.821995 290.941502 
L 482.027301 290.350592 
z
" clip-path="url(#pa38ad4a1f8)" style="fill: #cc0000; stroke: #cc0000; stroke-linejoin: miter"/>
   </g>
   <g id="patch_11">
    <path d="M 451.290249 219.776939 
L 444.371411 217.47066 
L 445.985807 215.856264 
L 427.535573 197.40603 
L 428.91934 196.022263 
L 447.369574 214.472497 
L 448.98397 212.858101 
z
" clip-path="url(#pa38ad4a1f8)" style="fill: #cc0000; stroke: #cc0000; stroke-linejoin: miter"/>
   </g>
   <g id="patch_12">
    <path d="M 365.251214 154.506306 
L 358.106185 155.968429 
L 358.697095 153.763123 
L 346.095351 150.386496 
L 346.601845 148.496235 
L 359.203589 151.872862 
L 359.794499 149.667557 
z
" clip-path="url(#pa38ad4a1f8)" style="fill: #cc0000; stroke: #cc0000; stroke-linejoin: miter"/>
   </g>
   <g id="patch_13">
    <path d="M 232.90042 154.506306 
L 238.357135 149.667557 
L 238.948045 151.872862 
L 251.549789 148.496235 
L 252.056283 150.386496 
L 239.454539 153.763123 
L 240.045449 155.968429 
z
" clip-path="url(#pa38ad4a1f8)" style="fill: #009933; stroke: #009933; stroke-linejoin: miter"/>
   </g>
   <g id="patch_14">
    <path d="M 146.861385 219.776939 
L 149.167664 212.858101 
L 150.78206 214.472497 
L 169.232294 196.022263 
L 170.616061 197.40603 
L 152.165827 215.856264 
L 153.780223 217.47066 
z
" clip-path="url(#pa38ad4a1f8)" style="fill: #009933; stroke: #009933; stroke-linejoin: miter"/>
   </g>
   <g id="patch_15">
    <path d="M 117.586456 297.495621 
L 116.124333 290.350592 
L 118.329639 290.941502 
L 121.706266 278.339758 
L 123.596527 278.846252 
L 120.2199 291.447996 
L 122.425206 292.038906 
z
" clip-path="url(#pa38ad4a1f8)" style="fill: #009933; stroke: #009933; stroke-linejoin: miter"/>
   </g>
   <g id="patch_16">
    <path d="M 117.586456 354.23595 
L 122.425206 359.692666 
L 120.2199 360.283575 
L 123.596527 372.88532 
L 121.706266 373.391814 
L 118.329639 360.790069 
L 116.124333 361.380979 
z
" clip-path="url(#pa38ad4a1f8)" style="fill: #cc0000; stroke: #cc0000; stroke-linejoin: miter"/>
   </g>
   <g id="patch_17">
    <path d="M 146.861385 431.954632 
L 153.780223 434.260912 
L 152.165827 435.875307 
L 170.616061 454.325541 
L 169.232294 455.709309 
L 150.78206 437.259075 
L 149.167664 438.87347 
z
" clip-path="url(#pa38ad4a1f8)" style="fill: #cc0000; stroke: #cc0000; stroke-linejoin: miter"/>
   </g>
   <g id="patch_18">
    <path d="M 232.90042 497.225265 
L 240.045449 495.763143 
L 239.454539 497.968448 
L 252.056283 501.345075 
L 251.549789 503.235337 
L 238.948045 499.85871 
L 238.357135 502.064015 
z
" clip-path="url(#pa38ad4a1f8)" style="fill: #cc0000; stroke: #cc0000; stroke-linejoin: miter"/>
   </g>
   <g id="patch_19">
    <path d="M 365.251214 497.225265 
L 359.794499 502.064015 
L 359.203589 499.85871 
L 346.601845 503.235337 
L 346.095351 501.345075 
L 358.697095 497.968448 
L 358.106185 495.763143 
z
" clip-path="url(#pa38ad4a1f8)" style="fill: #009933; stroke: #009933; stroke-linejoin: miter"/>
   </g>
   <g id="patch_20">
    <path d="M 451.290249 431.954632 
L 448.98397 438.87347 
L 447.369574 437.259075 
L 428.91934 455.709309 
L 427.535573 454.325541 
L 445.985807 435.875307 
L 444.371411 434.260912 
z
" clip-path="url(#pa38ad4a1f8)" style="fill: #009933; stroke: #009933; stroke-linejoin: miter"/>
   </g>
   <g id="patch_21">
    <path d="M 480.565178 354.23595 
L 482.027301 361.380979 
L 479.821995 360.790069 
L 476.445368 373.391814 
L 474.555106 372.88532 
L 477.931734 360.283575 
L 475.726428 359.692666 
z
" clip-path="url(#pa38ad4a1f8)" style="fill: #009933; stroke: #009933; stroke-linejoin: miter"/>
   </g>
   <g id="patch_22">
    <path d="M 428.227456 207.151175 
C 430.995389 207.151175 433.650326 206.051464 435.60755 204.09424 
C 437.564774 202.137016 438.664485 199.482079 438.664485 196.714146 
C 438.664485 193.946214 437.564774 191.291276 435.60755 189.334053 
C 433.650326 187.376829 430.995389 186.277118 428.227456 186.277118 
C 425.459524 186.277118 422.804586 187.376829 420.847363 189.334053 
C 418.890139 191.291276 417.790428 193.946214 417.790428 196.714146 
C 417.790428 199.482079 418.890139 202.137016 420.847363 204.09424 
C 422.804586 206.051464 425.459524 207.151175 428.227456 207.151175 
L 428.227456 207.151175 
z
" clip-path="url(#pa38ad4a1f8)" style="fill: none; stroke-dasharray: 1,1.65; stroke-dashoffset: 0; stroke: #999999; stroke-linejoin: miter"/>
   </g>
   <g id="patch_23">
    <path d="M 169.924178 207.151175 
C 172.69211 207.151175 175.347048 206.051464 177.304271 204.09424 
C 179.261495 202.137016 180.361206 199.482079 180.361206 196.714146 
C 180.361206 193.946214 179.261495 191.291276 177.304271 189.334053 
C 175.347048 187.376829 172.69211 186.277118 169.924178 186.277118 
C 167.156245 186.277118 164.501308 187.376829 162.544084 189.334053 
C 160.58686 191.291276 159.487149 193.946214 159.487149 196.714146 
C 159.487149 199.482079 160.58686 202.137016 162.544084 204.09424 
C 164.501308 206.051464 167.156245 207.151175 169.924178 207.151175 
L 169.924178 207.151175 
z
" clip-path="url(#pa38ad4a1f8)" style="fill: none; stroke-dasharray: 1,1.65; stroke-dashoffset: 0; stroke: #999999; stroke-linejoin: miter"/>
   </g>
   <g id="patch_24">
    <path d="M 169.924178 465.454454 
C 172.69211 465.454454 175.347048 464.354742 177.304271 462.397519 
C 179.261495 460.440295 180.361206 457.785357 180.361206 455.017425 
C 180.361206 452.249493 179.261495 449.594555 177.304271 447.637331 
C 175.347048 445.680108 172.69211 444.580397 169.924178 444.580397 
C 167.156245 444.580397 164.501308 445.680108 162.544084 447.637331 
C 160.58686 449.594555 159.487149 452.249493 159.487149 455.017425 
C 159.487149 457.785357 160.58686 460.440295 162.544084 462.397519 
C 164.501308 464.354742 167.156245 465.454454 169.924178 465.454454 
L 169.924178 465.454454 
z
" clip-path="url(#pa38ad4a1f8)" style="fill: none; stroke-dasharray: 1,1.65; stroke-dashoffset: 0; stroke: #999999; stroke-linejoin: miter"/>
   </g>
   <g id="patch_25">
    <path d="M 428.227456 465.454454 
C 430.995389 465.454454 433.650326 464.354742 435.60755 462.397519 
C 437.564774 460.440295 438.664485 457.785357 438.664485 455.017425 
C 438.664485 452.249493 437.564774 449.594555 435.60755 447.637331 
C 433.650326 445.680108 430.995389 444.580397 428.227456 444.580397 
C 425.459524 444.580397 422.804586 445.680108 420.847363 447.637331 
C 418.890139 449.594555 417.790428 452.249493 417.790428 455.017425 
C 417.790428 457.785357 418.890139 460.440295 420.847363 462.397519 
C 422.804586 464.354742 425.459524 465.454454 428.227456 465.454454 
L 428.227456 465.454454 
z
" clip-path="url(#pa38ad4a1f8)" style="fill: none; stroke-dasharray: 1,1.65; stroke-dashoffset: 0; stroke: #999999; stroke-linejoin: miter"/>
   </g>
   <g id="patch_26">
    <path d="M 299.075817 358.4815 
C 307.725606 358.4815 316.022286 355.044903 322.13861 348.928578 
C 328.254934 342.812254 331.691531 334.515574 331.691531 325.865786 
C 331.691531 317.215997 328.254934 308.919317 322.13861 302.802993 
C 316.022286 296.686669 307.725606 293.250071 299.075817 293.250071 
C 290.426028 293.250071 282.129348 296.686669 276.013024 302.802993 
C 269.8967 308.919317 266.460103 317.215997 266.460103 325.865786 
C 266.460103 334.515574 269.8967 342.812254 276.013024 348.928578 
C 282.129348 355.044903 290.426028 358.4815 299.075817 358.4815 
z
" clip-path="url(#pa38ad4a1f8)" style="fill: #4da6ff; stroke: #004d99; stroke-linejoin: miter"/>
   </g>
   <g id="patch_27">
    <path d="M 481.723817 338.912071 
C 485.183732 338.912071 488.502404 337.537432 490.948934 335.090903 
C 493.395464 332.644373 494.770103 329.325701 494.770103 325.865786 
C 494.770103 322.40587 493.395464 319.087198 490.948934 316.640669 
C 488.502404 314.194139 485.183732 312.8195 481.723817 312.8195 
C 478.263902 312.8195 474.94523 314.194139 472.4987 316.640669 
C 470.05217 319.087198 468.677531 322.40587 468.677531 325.865786 
C 468.677531 329.325701 470.05217 332.644373 472.4987 335.090903 
C 474.94523 337.537432 478.263902 338.912071 481.723817 338.912071 
z
" clip-path="url(#pa38ad4a1f8)" style="fill: #e0e0e0; stroke: #000000; stroke-linejoin: miter"/>
   </g>
   <g id="patch_28">
    <path d="M 390.399817 180.734263 
C 393.859732 180.734263 397.178404 179.359625 399.624934 176.913095 
C 402.071464 174.466565 403.446103 171.147893 403.446103 167.687978 
C 403.446103 164.228062 402.071464 160.90939 399.624934 158.462861 
C 397.178404 156.016331 393.859732 154.641692 390.399817 154.641692 
C 386.939902 154.641692 383.62123 156.016331 381.1747 158.462861 
C 378.72817 160.90939 377.353531 164.228062 377.353531 167.687978 
C 377.353531 171.147893 378.72817 174.466565 381.1747 176.913095 
C 383.62123 179.359625 386.939902 180.734263 390.399817 180.734263 
z
" clip-path="url(#pa38ad4a1f8)" style="fill: #e0e0e0; stroke: #000000; stroke-linejoin: miter"/>
   </g>
   <g id="patch_29">
    <path d="M 299.075817 156.264071 
C 302.535732 156.264071 305.854404 154.889432 308.300934 152.442903 
C 310.747464 149.996373 312.122103 146.677701 312.122103 143.217786 
C 312.122103 139.75787 310.747464 136.439198 308.300934 133.992669 
C 305.854404 131.546139 302.535732 130.1715 299.075817 130.1715 
C 295.615902 130.1715 292.29723 131.546139 289.8507 133.992669 
C 287.40417 136.439198 286.029531 139.75787 286.029531 143.217786 
C 286.029531 146.677701 287.40417 149.996373 289.8507 152.442903 
C 292.29723 154.889432 295.615902 156.264071 299.075817 156.264071 
z
" clip-path="url(#pa38ad4a1f8)" style="fill: #e0e0e0; stroke: #000000; stroke-linejoin: miter"/>
   </g>
   <g id="patch_30">
    <path d="M 207.751817 180.734263 
C 211.211732 180.734263 214.530404 179.359625 216.976934 176.913095 
C 219.423464 174.466565 220.798103 171.147893 220.798103 167.687978 
C 220.798103 164.228062 219.423464 160.90939 216.976934 158.462861 
C 214.530404 156.016331 211.211732 154.641692 207.751817 154.641692 
C 204.291902 154.641692 200.97323 156.016331 198.5267 158.462861 
C 196.08017 160.90939 194.705531 164.228062 194.705531 167.687978 
C 194.705531 171.147893 196.08017 174.466565 198.5267 176.913095 
C 200.97323 179.359625 204.291902 180.734263 207.751817 180.734263 
z
" clip-path="url(#pa38ad4a1f8)" style="fill: #e0e0e0; stroke: #000000; stroke-linejoin: miter"/>
   </g>
   <g id="patch_31">
    <path d="M 116.427817 338.912071 
C 119.887732 338.912071 123.206404 337.537432 125.652934 335.090903 
C 128.099464 332.644373 129.474103 329.325701 129.474103 325.865786 
C 129.474103 322.40587 128.099464 319.087198 125.652934 316.640669 
C 123.206404 314.194139 119.887732 312.8195 116.427817 312.8195 
C 112.967902 312.8195 109.64923 314.194139 107.2027 316.640669 
C 104.75617 319.087198 103.381531 322.40587 103.381531 325.865786 
C 103.381531 329.325701 104.75617 332.644373 107.2027 335.090903 
C 109.64923 337.537432 112.967902 338.912071 116.427817 338.912071 
z
" clip-path="url(#pa38ad4a1f8)" style="fill: #e0e0e0; stroke: #000000; stroke-linejoin: miter"/>
   </g>
   <g id="patch_32">
    <path d="M 207.751817 497.089879 
C 211.211732 497.089879 214.530404 495.71524 216.976934 493.268711 
C 219.423464 490.822181 220.798103 487.503509 220.798103 484.043594 
C 220.798103 480.583678 219.423464 477.265006 216.976934 474.818477 
C 214.530404 472.371947 211.211732 470.997308 207.751817 470.997308 
C 204.291902 470.997308 200.97323 472.371947 198.5267 474.818477 
C 196.08017 477.265006 194.705531 480.583678 194.705531 484.043594 
C 194.705531 487.503509 196.08017 490.822181 198.5267 493.268711 
C 200.97323 495.71524 204.291902 497.089879 207.751817 497.089879 
z
" clip-path="url(#pa38ad4a1f8)" style="fill: #e0e0e0; stroke: #000000; stroke-linejoin: miter"/>
   </g>
   <g id="patch_33">
    <path d="M 299.075817 521.560071 
C 302.535732 521.560071 305.854404 520.185432 308.300934 517.738903 
C 310.747464 515.292373 312.122103 511.973701 312.122103 508.513786 
C 312.122103 505.05387 310.747464 501.735198 308.300934 499.288669 
C 305.854404 496.842139 302.535732 495.4675 299.075817 495.4675 
C 295.615902 495.4675 292.29723 496.842139 289.8507 499.288669 
C 287.40417 501.735198 286.029531 505.05387 286.029531 508.513786 
C 286.029531 511.973701 287.40417 515.292373 289.8507 517.738903 
C 292.29723 520.185432 295.615902 521.560071 299.075817 521.560071 
z
" clip-path="url(#pa38ad4a1f8)" style="fill: #e0e0e0; stroke: #000000; stroke-linejoin: miter"/>
   </g>
   <g id="patch_34">
    <path d="M 390.399817 497.089879 
C 393.859732 497.089879 397.178404 495.71524 399.624934 493.268711 
C 402.071464 490.822181 403.446103 487.503509 403.446103 484.043594 
C 403.446103 480.583678 402.071464 477.265006 399.624934 474.818477 
C 397.178404 472.371947 393.859732 470.997308 390.399817 470.997308 
C 386.939902 470.997308 383.62123 472.371947 381.1747 474.818477 
C 378.72817 477.265006 377.353531 480.583678 377.353531 484.043594 
C 377.353531 487.503509 378.72817 490.822181 381.1747 493.268711 
C 383.62123 495.71524 386.939902 497.089879 390.399817 497.089879 
z
" clip-path="url(#pa38ad4a1f8)" style="fill: #e0e0e0; stroke: #000000; stroke-linejoin: miter"/>
   </g>
  </g>
 </g>
 <defs>
  <clipPath id="pa38ad4a1f8">
   <rect x="12.057531" y="38.8475" width="684.93" height="574.036571"/>
  </clipPath>
 </defs>
</svg>
