<?xml version="1.0" encoding="utf-8" standalone="no"?>
<!DOCTYPE svg PUBLIC "-//W3C//DTD SVG 1.1//EN"
  "http://www.w3.org/Graphics/SVG/1.1/DTD/svg11.dtd">
<svg xmlns:xlink="http://www.w3.org/1999/xlink" width="720pt" height="432pt" viewBox="0 0 720 432" xmlns="http://www.w3.org/2000/svg" version="1.1">
 <metadata>
  <rdf:RDF xmlns:dc="http://purl.org/dc/elements/1.1/" xmlns:cc="http://creativecommons.org/ns#" xmlns:rdf="http://www.w3.org/1999/02/22-rdf-syntax-ns#">
   <cc:Work>
    <dc:type rdf:resource="http://purl.org/dc/dcmitype/StillImage"/>
    <dc:date>2025-11-24T01:09:39.632393</dc:date>
    <dc:format>image/svg+xml</dc:format>
    <dc:creator>
     <cc:Agent>
      <dc:title>Matplotlib v3.10.7, https://matplotlib.org/</dc:title>
     </cc:Agent>
    </dc:creator>
   </cc:Work>
  </rdf:RDF>
 </metadata>
 <defs>
  <style type="text/css">*{stroke-linejoin: round; stroke-linecap: butt}</style>
 </defs>
 <g id="figure_1">
  <g id="patch_1">
   <path d="M 0 432 
L 720 432 
L 720 0 
L 0 0 
z
" style="fill: #ffffff"/>
  </g>
  <g id="axes_1">
   <g id="patch_2">
    <path d="M 56.18 390.04 
L 709.2 390.04 
L 709.2 25.44 
L 56.18 25.44 
z
" style="fill: #ffffff"/>
   </g>
   <g id="matplotlib.axis_1">
    <g id="xtick_1">
     <g id="line2d_1">
      <path d="M 85.862727 390.04 
L 85.862727 25.44 
" clip-path="url(#ped41adbc7b)" style="fill: none; stroke: #b0b0b0; stroke-opacity: 0.3; stroke-width: 0.8; stroke-linecap: square"/>
     </g>
     <g id="line2d_2">
      <defs>
       <path id="m2fb341a606" d="M 0 0 
L 0 3.5 
" style="stroke: #000000; stroke-width: 0.8"/>
      </defs>
      <g>
       <use xlink:href="#m2fb341a606" x="85.862727" y="390.04" style="stroke: #000000; stroke-width: 0.8"/>
      </g>
     </g>
     <g id="text_1">
      <!-- 0 -->
      <g transform="translate(82.681477 404.638438) scale(0.1 -0.1)">
       <defs>
        <path id="DejaVuSans-30" d="M 2034 4250 
Q 1547 4250 1301 3770 
Q 1056 3291 1056 2328 
Q 1056 1369 1301 889 
Q 1547 409 2034 409 
Q 2525 409 2770 889 
Q 3016 1369 3016 2328 
Q 3016 3291 2770 3770 
Q 2525 4250 2034 4250 
z
M 2034 4750 
Q 2819 4750 3233 4129 
Q 3647 3509 3647 2328 
Q 3647 1150 3233 529 
Q 2819 -91 2034 -91 
Q 1250 -91 836 529 
Q 422 1150 422 2328 
Q 422 3509 836 4129 
Q 1250 4750 2034 4750 
z
" transform="scale(0.015625)"/>
       </defs>
       <use xlink:href="#DejaVuSans-30"/>
      </g>
     </g>
    </g>
    <g id="xtick_2">
     <g id="line2d_3">
      <path d="M 184.805152 390.04 
L 184.805152 25.44 
" clip-path="url(#ped41adbc7b)" style="fill: none; stroke: #b0b0b0; stroke-opacity: 0.3; stroke-width: 0.8; stroke-linecap: square"/>
     </g>
     <g id="line2d_4">
      <g>
       <use xlink:href="#m2fb341a606" x="184.805152" y="390.04" style="stroke: #000000; stroke-width: 0.8"/>
      </g>
     </g>
     <g id="text_2">
      <!-- 10 -->
      <g transform="translate(178.442652 404.638438) scale(0.1 -0.1)">
       <defs>
        <path id="DejaVuSans-31" d="M 794 531 
L 1825 531 
L 1825 4091 
L 703 3866 
L 703 4441 
L 1819 4666 
L 2450 4666 
L 2450 531 
L 3481 531 
L 3481 0 
L 794 0 
L 794 531 
z
" transform="scale(0.015625)"/>
       </defs>
       <use xlink:href="#DejaVuSans-31"/>
       <use xlink:href="#DejaVuSans-30" transform="translate(63.623047 0)"/>
      </g>
     </g>
    </g>
    <g id="xtick_3">
     <g id="line2d_5">
      <path d="M 283.747576 390.04 
L 283.747576 25.44 
" clip-path="url(#ped41adbc7b)" style="fill: none; stroke: #b0b0b0; stroke-opacity: 0.3; stroke-width: 0.8; stroke-linecap: square"/>
     </g>
     <g id="line2d_6">
      <g>
       <use xlink:href="#m2fb341a606" x="283.747576" y="390.04" style="stroke: #000000; stroke-width: 0.8"/>
      </g>
     </g>
     <g id="text_3">
      <!-- 20 -->
      <g transform="translate(277.385076 404.638438) scale(0.1 -0.1)">
       <defs>
        <path id="DejaVuSans-32" d="M 1228 531 
L 3431 531 
L 3431 0 
L 469 0 
L 469 531 
Q 828 903 1448 1529 
Q 2069 2156 2228 2338 
Q 2531 2678 2651 2914 
Q 2772 3150 2772 3378 
Q 2772 3750 2511 3984 
Q 2250 4219 1831 4219 
Q 1534 4219 1204 4116 
Q 875 4013 500 3803 
L 500 4441 
Q 881 4594 1212 4672 
Q 1544 4750 1819 4750 
Q 2544 4750 2975 4387 
Q 3406 4025 3406 3419 
Q 3406 3131 3298 2873 
Q 3191 2616 2906 2266 
Q 2828 2175 2409 1742 
Q 1991 1309 1228 531 
z
" transform="scale(0.015625)"/>
       </defs>
       <use xlink:href="#DejaVuSans-32"/>
       <use xlink:href="#DejaVuSans-30" transform="translate(63.623047 0)"/>
      </g>
     </g>
    </g>
    <g id="xtick_4">
     <g id="line2d_7">
      <path d="M 382.69 390.04 
L 382.69 25.44 
" clip-path="url(#ped41adbc7b)" style="fill: none; stroke: #b0b0b0; stroke-opacity: 0.3; stroke-width: 0.8; stroke-linecap: square"/>
     </g>
     <g id="line2d_8">
      <g>
       <use xlink:href="#m2fb341a606" x="382.69" y="390.04" style="stroke: #000000; stroke-width: 0.8"/>
      </g>
     </g>
     <g id="text_4">
      <!-- 30 -->
      <g transform="translate(376.3275 404.638438) scale(0.1 -0.1)">
       <defs>
        <path id="DejaVuSans-33" d="M 2597 2516 
Q 3050 2419 3304 2112 
Q 3559 1806 3559 1356 
Q 3559 666 3084 287 
Q 2609 -91 1734 -91 
Q 1441 -91 1130 -33 
Q 819 25 488 141 
L 488 750 
Q 750 597 1062 519 
Q 1375 441 1716 441 
Q 2309 441 2620 675 
Q 2931 909 2931 1356 
Q 2931 1769 2642 2001 
Q 2353 2234 1838 2234 
L 1294 2234 
L 1294 2753 
L 1863 2753 
Q 2328 2753 2575 2939 
Q 2822 3125 2822 3475 
Q 2822 3834 2567 4026 
Q 2313 4219 1838 4219 
Q 1578 4219 1281 4162 
Q 984 4106 628 3988 
L 628 4550 
Q 988 4650 1302 4700 
Q 1616 4750 1894 4750 
Q 2613 4750 3031 4423 
Q 3450 4097 3450 3541 
Q 3450 3153 3228 2886 
Q 3006 2619 2597 2516 
z
" transform="scale(0.015625)"/>
       </defs>
       <use xlink:href="#DejaVuSans-33"/>
       <use xlink:href="#DejaVuSans-30" transform="translate(63.623047 0)"/>
      </g>
     </g>
    </g>
    <g id="xtick_5">
     <g id="line2d_9">
      <path d="M 481.632424 390.04 
L 481.632424 25.44 
" clip-path="url(#ped41adbc7b)" style="fill: none; stroke: #b0b0b0; stroke-opacity: 0.3; stroke-width: 0.8; stroke-linecap: square"/>
     </g>
     <g id="line2d_10">
      <g>
       <use xlink:href="#m2fb341a606" x="481.632424" y="390.04" style="stroke: #000000; stroke-width: 0.8"/>
      </g>
     </g>
     <g id="text_5">
      <!-- 40 -->
      <g transform="translate(475.269924 404.638438) scale(0.1 -0.1)">
       <defs>
        <path id="DejaVuSans-34" d="M 2419 4116 
L 825 1625 
L 2419 1625 
L 2419 4116 
z
M 2253 4666 
L 3047 4666 
L 3047 1625 
L 3713 1625 
L 3713 1100 
L 3047 1100 
L 3047 0 
L 2419 0 
L 2419 1100 
L 313 1100 
L 313 1709 
L 2253 4666 
z
" transform="scale(0.015625)"/>
       </defs>
       <use xlink:href="#DejaVuSans-34"/>
       <use xlink:href="#DejaVuSans-30" transform="translate(63.623047 0)"/>
      </g>
     </g>
    </g>
    <g id="xtick_6">
     <g id="line2d_11">
      <path d="M 580.574848 390.04 
L 580.574848 25.44 
" clip-path="url(#ped41adbc7b)" style="fill: none; stroke: #b0b0b0; stroke-opacity: 0.3; stroke-width: 0.8; stroke-linecap: square"/>
     </g>
     <g id="line2d_12">
      <g>
       <use xlink:href="#m2fb341a606" x="580.574848" y="390.04" style="stroke: #000000; stroke-width: 0.8"/>
      </g>
     </g>
     <g id="text_6">
      <!-- 50 -->
      <g transform="translate(574.212348 404.638438) scale(0.1 -0.1)">
       <defs>
        <path id="DejaVuSans-35" d="M 691 4666 
L 3169 4666 
L 3169 4134 
L 1269 4134 
L 1269 2991 
Q 1406 3038 1543 3061 
Q 1681 3084 1819 3084 
Q 2600 3084 3056 2656 
Q 3513 2228 3513 1497 
Q 3513 744 3044 326 
Q 2575 -91 1722 -91 
Q 1428 -91 1123 -41 
Q 819 9 494 109 
L 494 744 
Q 775 591 1075 516 
Q 1375 441 1709 441 
Q 2250 441 2565 725 
Q 2881 1009 2881 1497 
Q 2881 1984 2565 2268 
Q 2250 2553 1709 2553 
Q 1456 2553 1204 2497 
Q 953 2441 691 2322 
L 691 4666 
z
" transform="scale(0.015625)"/>
       </defs>
       <use xlink:href="#DejaVuSans-35"/>
       <use xlink:href="#DejaVuSans-30" transform="translate(63.623047 0)"/>
      </g>
     </g>
    </g>
    <g id="xtick_7">
     <g id="line2d_13">
      <path d="M 679.517273 390.04 
L 679.517273 25.44 
" clip-path="url(#ped41adbc7b)" style="fill: none; stroke: #b0b0b0; stroke-opacity: 0.3; stroke-width: 0.8; stroke-linecap: square"/>
     </g>
     <g id="line2d_14">
      <g>
       <use xlink:href="#m2fb341a606" x="679.517273" y="390.04" style="stroke: #000000; stroke-width: 0.8"/>
      </g>
     </g>
     <g id="text_7">
      <!-- 60 -->
      <g transform="translate(673.154773 404.638438) scale(0.1 -0.1)">
       <defs>
        <path id="DejaVuSans-36" d="M 2113 2584 
Q 1688 2584 1439 2293 
Q 1191 2003 1191 1497 
Q 1191 994 1439 701 
Q 1688 409 2113 409 
Q 2538 409 2786 701 
Q 3034 994 3034 1497 
Q 3034 2003 2786 2293 
Q 2538 2584 2113 2584 
z
M 3366 4563 
L 3366 3988 
Q 3128 4100 2886 4159 
Q 2644 4219 2406 4219 
Q 1781 4219 1451 3797 
Q 1122 3375 1075 2522 
Q 1259 2794 1537 2939 
Q 1816 3084 2150 3084 
Q 2853 3084 3261 2657 
Q 3669 2231 3669 1497 
Q 3669 778 3244 343 
Q 2819 -91 2113 -91 
Q 1303 -91 875 529 
Q 447 1150 447 2328 
Q 447 3434 972 4092 
Q 1497 4750 2381 4750 
Q 2619 4750 2861 4703 
Q 3103 4656 3366 4563 
z
" transform="scale(0.015625)"/>
       </defs>
       <use xlink:href="#DejaVuSans-36"/>
       <use xlink:href="#DejaVuSans-30" transform="translate(63.623047 0)"/>
      </g>
     </g>
    </g>
    <g id="text_8">
     <!-- Time (Days) -->
     <g transform="translate(352.487656 418.316562) scale(0.1 -0.1)">
      <defs>
       <path id="DejaVuSans-54" d="M -19 4666 
L 3928 4666 
L 3928 4134 
L 2272 4134 
L 2272 0 
L 1638 0 
L 1638 4134 
L -19 4134 
L -19 4666 
z
" transform="scale(0.015625)"/>
       <path id="DejaVuSans-69" d="M 603 3500 
L 1178 3500 
L 1178 0 
L 603 0 
L 603 3500 
z
M 603 4863 
L 1178 4863 
L 1178 4134 
L 603 4134 
L 603 4863 
z
" transform="scale(0.015625)"/>
       <path id="DejaVuSans-6d" d="M 3328 2828 
Q 3544 3216 3844 3400 
Q 4144 3584 4550 3584 
Q 5097 3584 5394 3201 
Q 5691 2819 5691 2113 
L 5691 0 
L 5113 0 
L 5113 2094 
Q 5113 2597 4934 2840 
Q 4756 3084 4391 3084 
Q 3944 3084 3684 2787 
Q 3425 2491 3425 1978 
L 3425 0 
L 2847 0 
L 2847 2094 
Q 2847 2600 2669 2842 
Q 2491 3084 2119 3084 
Q 1678 3084 1418 2786 
Q 1159 2488 1159 1978 
L 1159 0 
L 581 0 
L 581 3500 
L 1159 3500 
L 1159 2956 
Q 1356 3278 1631 3431 
Q 1906 3584 2284 3584 
Q 2666 3584 2933 3390 
Q 3200 3197 3328 2828 
z
" transform="scale(0.015625)"/>
       <path id="DejaVuSans-65" d="M 3597 1894 
L 3597 1613 
L 953 1613 
Q 991 1019 1311 708 
Q 1631 397 2203 397 
Q 2534 397 2845 478 
Q 3156 559 3463 722 
L 3463 178 
Q 3153 47 2828 -22 
Q 2503 -91 2169 -91 
Q 1331 -91 842 396 
Q 353 884 353 1716 
Q 353 2575 817 3079 
Q 1281 3584 2069 3584 
Q 2775 3584 3186 3129 
Q 3597 2675 3597 1894 
z
M 3022 2063 
Q 3016 2534 2758 2815 
Q 2500 3097 2075 3097 
Q 1594 3097 1305 2825 
Q 1016 2553 972 2059 
L 3022 2063 
z
" transform="scale(0.015625)"/>
       <path id="DejaVuSans-20" transform="scale(0.015625)"/>
       <path id="DejaVuSans-28" d="M 1984 4856 
Q 1566 4138 1362 3434 
Q 1159 2731 1159 2009 
Q 1159 1288 1364 580 
Q 1569 -128 1984 -844 
L 1484 -844 
Q 1016 -109 783 600 
Q 550 1309 550 2009 
Q 550 2706 781 3412 
Q 1013 4119 1484 4856 
L 1984 4856 
z
" transform="scale(0.015625)"/>
       <path id="DejaVuSans-44" d="M 1259 4147 
L 1259 519 
L 2022 519 
Q 2988 519 3436 956 
Q 3884 1394 3884 2338 
Q 3884 3275 3436 3711 
Q 2988 4147 2022 4147 
L 1259 4147 
z
M 628 4666 
L 1925 4666 
Q 3281 4666 3915 4102 
Q 4550 3538 4550 2338 
Q 4550 1131 3912 565 
Q 3275 0 1925 0 
L 628 0 
L 628 4666 
z
" transform="scale(0.015625)"/>
       <path id="DejaVuSans-61" d="M 2194 1759 
Q 1497 1759 1228 1600 
Q 959 1441 959 1056 
Q 959 750 1161 570 
Q 1363 391 1709 391 
Q 2188 391 2477 730 
Q 2766 1069 2766 1631 
L 2766 1759 
L 2194 1759 
z
M 3341 1997 
L 3341 0 
L 2766 0 
L 2766 531 
Q 2569 213 2275 61 
Q 1981 -91 1556 -91 
Q 1019 -91 701 211 
Q 384 513 384 1019 
Q 384 1609 779 1909 
Q 1175 2209 1959 2209 
L 2766 2209 
L 2766 2266 
Q 2766 2663 2505 2880 
Q 2244 3097 1772 3097 
Q 1472 3097 1187 3025 
Q 903 2953 641 2809 
L 641 3341 
Q 956 3463 1253 3523 
Q 1550 3584 1831 3584 
Q 2591 3584 2966 3190 
Q 3341 2797 3341 1997 
z
" transform="scale(0.015625)"/>
       <path id="DejaVuSans-79" d="M 2059 -325 
Q 1816 -950 1584 -1140 
Q 1353 -1331 966 -1331 
L 506 -1331 
L 506 -850 
L 844 -850 
Q 1081 -850 1212 -737 
Q 1344 -625 1503 -206 
L 1606 56 
L 191 3500 
L 800 3500 
L 1894 763 
L 2988 3500 
L 3597 3500 
L 2059 -325 
z
" transform="scale(0.015625)"/>
       <path id="DejaVuSans-73" d="M 2834 3397 
L 2834 2853 
Q 2591 2978 2328 3040 
Q 2066 3103 1784 3103 
Q 1356 3103 1142 2972 
Q 928 2841 928 2578 
Q 928 2378 1081 2264 
Q 1234 2150 1697 2047 
L 1894 2003 
Q 2506 1872 2764 1633 
Q 3022 1394 3022 966 
Q 3022 478 2636 193 
Q 2250 -91 1575 -91 
Q 1294 -91 989 -36 
Q 684 19 347 128 
L 347 722 
Q 666 556 975 473 
Q 1284 391 1588 391 
Q 1994 391 2212 530 
Q 2431 669 2431 922 
Q 2431 1156 2273 1281 
Q 2116 1406 1581 1522 
L 1381 1569 
Q 847 1681 609 1914 
Q 372 2147 372 2553 
Q 372 3047 722 3315 
Q 1072 3584 1716 3584 
Q 2034 3584 2315 3537 
Q 2597 3491 2834 3397 
z
" transform="scale(0.015625)"/>
       <path id="DejaVuSans-29" d="M 513 4856 
L 1013 4856 
Q 1481 4119 1714 3412 
Q 1947 2706 1947 2009 
Q 1947 1309 1714 600 
Q 1481 -109 1013 -844 
L 513 -844 
Q 928 -128 1133 580 
Q 1338 1288 1338 2009 
Q 1338 2731 1133 3434 
Q 928 4138 513 4856 
z
" transform="scale(0.015625)"/>
      </defs>
      <use xlink:href="#DejaVuSans-54"/>
      <use xlink:href="#DejaVuSans-69" transform="translate(57.958984 0)"/>
      <use xlink:href="#DejaVuSans-6d" transform="translate(85.742188 0)"/>
      <use xlink:href="#DejaVuSans-65" transform="translate(183.154297 0)"/>
      <use xlink:href="#DejaVuSans-20" transform="translate(244.677734 0)"/>
      <use xlink:href="#DejaVuSans-28" transform="translate(276.464844 0)"/>
      <use xlink:href="#DejaVuSans-44" transform="translate(315.478516 0)"/>
      <use xlink:href="#DejaVuSans-61" transform="translate(392.480469 0)"/>
      <use xlink:href="#DejaVuSans-79" transform="translate(453.759766 0)"/>
      <use xlink:href="#DejaVuSans-73" transform="translate(512.939453 0)"/>
      <use xlink:href="#DejaVuSans-29" transform="translate(565.039062 0)"/>
     </g>
    </g>
   </g>
   <g id="matplotlib.axis_2">
    <g id="ytick_1">
     <g id="line2d_15">
      <path d="M 56.18 337.825267 
L 709.2 337.825267 
" clip-path="url(#ped41adbc7b)" style="fill: none; stroke: #b0b0b0; stroke-opacity: 0.3; stroke-width: 0.8; stroke-linecap: square"/>
     </g>
     <g id="line2d_16">
      <defs>
       <path id="m145ca0559a" d="M 0 0 
L -3.5 0 
" style="stroke: #000000; stroke-width: 0.8"/>
      </defs>
      <g>
       <use xlink:href="#m145ca0559a" x="56.18" y="337.825267" style="stroke: #000000; stroke-width: 0.8"/>
      </g>
     </g>
     <g id="text_9">
      <!-- −1.0 -->
      <g transform="translate(24.897188 341.624486) scale(0.1 -0.1)">
       <defs>
        <path id="DejaVuSans-2212" d="M 678 2272 
L 4684 2272 
L 4684 1741 
L 678 1741 
L 678 2272 
z
" transform="scale(0.015625)"/>
        <path id="DejaVuSans-2e" d="M 684 794 
L 1344 794 
L 1344 0 
L 684 0 
L 684 794 
z
" transform="scale(0.015625)"/>
       </defs>
       <use xlink:href="#DejaVuSans-2212"/>
       <use xlink:href="#DejaVuSans-31" transform="translate(83.789062 0)"/>
       <use xlink:href="#DejaVuSans-2e" transform="translate(147.412109 0)"/>
       <use xlink:href="#DejaVuSans-30" transform="translate(179.199219 0)"/>
      </g>
     </g>
    </g>
    <g id="ytick_2">
     <g id="line2d_17">
      <path d="M 56.18 272.782931 
L 709.2 272.782931 
" clip-path="url(#ped41adbc7b)" style="fill: none; stroke: #b0b0b0; stroke-opacity: 0.3; stroke-width: 0.8; stroke-linecap: square"/>
     </g>
     <g id="line2d_18">
      <g>
       <use xlink:href="#m145ca0559a" x="56.18" y="272.782931" style="stroke: #000000; stroke-width: 0.8"/>
      </g>
     </g>
     <g id="text_10">
      <!-- −0.5 -->
      <g transform="translate(24.897188 276.582149) scale(0.1 -0.1)">
       <use xlink:href="#DejaVuSans-2212"/>
       <use xlink:href="#DejaVuSans-30" transform="translate(83.789062 0)"/>
       <use xlink:href="#DejaVuSans-2e" transform="translate(147.412109 0)"/>
       <use xlink:href="#DejaVuSans-35" transform="translate(179.199219 0)"/>
      </g>
     </g>
    </g>
    <g id="ytick_3">
     <g id="line2d_19">
      <path d="M 56.18 207.740594 
L 709.2 207.740594 
" clip-path="url(#ped41adbc7b)" style="fill: none; stroke: #b0b0b0; stroke-opacity: 0.3; stroke-width: 0.8; stroke-linecap: square"/>
     </g>
     <g id="line2d_20">
      <g>
       <use xlink:href="#m145ca0559a" x="56.18" y="207.740594" style="stroke: #000000; stroke-width: 0.8"/>
      </g>
     </g>
     <g id="text_11">
      <!-- 0.0 -->
      <g transform="translate(33.276875 211.539813) scale(0.1 -0.1)">
       <use xlink:href="#DejaVuSans-30"/>
       <use xlink:href="#DejaVuSans-2e" transform="translate(63.623047 0)"/>
       <use xlink:href="#DejaVuSans-30" transform="translate(95.410156 0)"/>
      </g>
     </g>
    </g>
    <g id="ytick_4">
     <g id="line2d_21">
      <path d="M 56.18 142.698258 
L 709.2 142.698258 
" clip-path="url(#ped41adbc7b)" style="fill: none; stroke: #b0b0b0; stroke-opacity: 0.3; stroke-width: 0.8; stroke-linecap: square"/>
     </g>
     <g id="line2d_22">
      <g>
       <use xlink:href="#m145ca0559a" x="56.18" y="142.698258" style="stroke: #000000; stroke-width: 0.8"/>
      </g>
     </g>
     <g id="text_12">
      <!-- 0.5 -->
      <g transform="translate(33.276875 146.497477) scale(0.1 -0.1)">
       <use xlink:href="#DejaVuSans-30"/>
       <use xlink:href="#DejaVuSans-2e" transform="translate(63.623047 0)"/>
       <use xlink:href="#DejaVuSans-35" transform="translate(95.410156 0)"/>
      </g>
     </g>
    </g>
    <g id="ytick_5">
     <g id="line2d_23">
      <path d="M 56.18 77.655922 
L 709.2 77.655922 
" clip-path="url(#ped41adbc7b)" style="fill: none; stroke: #b0b0b0; stroke-opacity: 0.3; stroke-width: 0.8; stroke-linecap: square"/>
     </g>
     <g id="line2d_24">
      <g>
       <use xlink:href="#m145ca0559a" x="56.18" y="77.655922" style="stroke: #000000; stroke-width: 0.8"/>
      </g>
     </g>
     <g id="text_13">
      <!-- 1.0 -->
      <g transform="translate(33.276875 81.45514) scale(0.1 -0.1)">
       <use xlink:href="#DejaVuSans-31"/>
       <use xlink:href="#DejaVuSans-2e" transform="translate(63.623047 0)"/>
       <use xlink:href="#DejaVuSans-30" transform="translate(95.410156 0)"/>
      </g>
     </g>
    </g>
    <g id="text_14">
     <!-- Perturbation in Longitude (Degrees) -->
     <g transform="translate(18.8175 297.603281) rotate(-90) scale(0.1 -0.1)">
      <defs>
       <path id="DejaVuSans-50" d="M 1259 4147 
L 1259 2394 
L 2053 2394 
Q 2494 2394 2734 2622 
Q 2975 2850 2975 3272 
Q 2975 3691 2734 3919 
Q 2494 4147 2053 4147 
L 1259 4147 
z
M 628 4666 
L 2053 4666 
Q 2838 4666 3239 4311 
Q 3641 3956 3641 3272 
Q 3641 2581 3239 2228 
Q 2838 1875 2053 1875 
L 1259 1875 
L 1259 0 
L 628 0 
L 628 4666 
z
" transform="scale(0.015625)"/>
       <path id="DejaVuSans-72" d="M 2631 2963 
Q 2534 3019 2420 3045 
Q 2306 3072 2169 3072 
Q 1681 3072 1420 2755 
Q 1159 2438 1159 1844 
L 1159 0 
L 581 0 
L 581 3500 
L 1159 3500 
L 1159 2956 
Q 1341 3275 1631 3429 
Q 1922 3584 2338 3584 
Q 2397 3584 2469 3576 
Q 2541 3569 2628 3553 
L 2631 2963 
z
" transform="scale(0.015625)"/>
       <path id="DejaVuSans-74" d="M 1172 4494 
L 1172 3500 
L 2356 3500 
L 2356 3053 
L 1172 3053 
L 1172 1153 
Q 1172 725 1289 603 
Q 1406 481 1766 481 
L 2356 481 
L 2356 0 
L 1766 0 
Q 1100 0 847 248 
Q 594 497 594 1153 
L 594 3053 
L 172 3053 
L 172 3500 
L 594 3500 
L 594 4494 
L 1172 4494 
z
" transform="scale(0.015625)"/>
       <path id="DejaVuSans-75" d="M 544 1381 
L 544 3500 
L 1119 3500 
L 1119 1403 
Q 1119 906 1312 657 
Q 1506 409 1894 409 
Q 2359 409 2629 706 
Q 2900 1003 2900 1516 
L 2900 3500 
L 3475 3500 
L 3475 0 
L 2900 0 
L 2900 538 
Q 2691 219 2414 64 
Q 2138 -91 1772 -91 
Q 1169 -91 856 284 
Q 544 659 544 1381 
z
M 1991 3584 
L 1991 3584 
z
" transform="scale(0.015625)"/>
       <path id="DejaVuSans-62" d="M 3116 1747 
Q 3116 2381 2855 2742 
Q 2594 3103 2138 3103 
Q 1681 3103 1420 2742 
Q 1159 2381 1159 1747 
Q 1159 1113 1420 752 
Q 1681 391 2138 391 
Q 2594 391 2855 752 
Q 3116 1113 3116 1747 
z
M 1159 2969 
Q 1341 3281 1617 3432 
Q 1894 3584 2278 3584 
Q 2916 3584 3314 3078 
Q 3713 2572 3713 1747 
Q 3713 922 3314 415 
Q 2916 -91 2278 -91 
Q 1894 -91 1617 61 
Q 1341 213 1159 525 
L 1159 0 
L 581 0 
L 581 4863 
L 1159 4863 
L 1159 2969 
z
" transform="scale(0.015625)"/>
       <path id="DejaVuSans-6f" d="M 1959 3097 
Q 1497 3097 1228 2736 
Q 959 2375 959 1747 
Q 959 1119 1226 758 
Q 1494 397 1959 397 
Q 2419 397 2687 759 
Q 2956 1122 2956 1747 
Q 2956 2369 2687 2733 
Q 2419 3097 1959 3097 
z
M 1959 3584 
Q 2709 3584 3137 3096 
Q 3566 2609 3566 1747 
Q 3566 888 3137 398 
Q 2709 -91 1959 -91 
Q 1206 -91 779 398 
Q 353 888 353 1747 
Q 353 2609 779 3096 
Q 1206 3584 1959 3584 
z
" transform="scale(0.015625)"/>
       <path id="DejaVuSans-6e" d="M 3513 2113 
L 3513 0 
L 2938 0 
L 2938 2094 
Q 2938 2591 2744 2837 
Q 2550 3084 2163 3084 
Q 1697 3084 1428 2787 
Q 1159 2491 1159 1978 
L 1159 0 
L 581 0 
L 581 3500 
L 1159 3500 
L 1159 2956 
Q 1366 3272 1645 3428 
Q 1925 3584 2291 3584 
Q 2894 3584 3203 3211 
Q 3513 2838 3513 2113 
z
" transform="scale(0.015625)"/>
       <path id="DejaVuSans-4c" d="M 628 4666 
L 1259 4666 
L 1259 531 
L 3531 531 
L 3531 0 
L 628 0 
L 628 4666 
z
" transform="scale(0.015625)"/>
       <path id="DejaVuSans-67" d="M 2906 1791 
Q 2906 2416 2648 2759 
Q 2391 3103 1925 3103 
Q 1463 3103 1205 2759 
Q 947 2416 947 1791 
Q 947 1169 1205 825 
Q 1463 481 1925 481 
Q 2391 481 2648 825 
Q 2906 1169 2906 1791 
z
M 3481 434 
Q 3481 -459 3084 -895 
Q 2688 -1331 1869 -1331 
Q 1566 -1331 1297 -1286 
Q 1028 -1241 775 -1147 
L 775 -588 
Q 1028 -725 1275 -790 
Q 1522 -856 1778 -856 
Q 2344 -856 2625 -561 
Q 2906 -266 2906 331 
L 2906 616 
Q 2728 306 2450 153 
Q 2172 0 1784 0 
Q 1141 0 747 490 
Q 353 981 353 1791 
Q 353 2603 747 3093 
Q 1141 3584 1784 3584 
Q 2172 3584 2450 3431 
Q 2728 3278 2906 2969 
L 2906 3500 
L 3481 3500 
L 3481 434 
z
" transform="scale(0.015625)"/>
       <path id="DejaVuSans-64" d="M 2906 2969 
L 2906 4863 
L 3481 4863 
L 3481 0 
L 2906 0 
L 2906 525 
Q 2725 213 2448 61 
Q 2172 -91 1784 -91 
Q 1150 -91 751 415 
Q 353 922 353 1747 
Q 353 2572 751 3078 
Q 1150 3584 1784 3584 
Q 2172 3584 2448 3432 
Q 2725 3281 2906 2969 
z
M 947 1747 
Q 947 1113 1208 752 
Q 1469 391 1925 391 
Q 2381 391 2643 752 
Q 2906 1113 2906 1747 
Q 2906 2381 2643 2742 
Q 2381 3103 1925 3103 
Q 1469 3103 1208 2742 
Q 947 2381 947 1747 
z
" transform="scale(0.015625)"/>
      </defs>
      <use xlink:href="#DejaVuSans-50"/>
      <use xlink:href="#DejaVuSans-65" transform="translate(56.677734 0)"/>
      <use xlink:href="#DejaVuSans-72" transform="translate(118.201172 0)"/>
      <use xlink:href="#DejaVuSans-74" transform="translate(159.314453 0)"/>
      <use xlink:href="#DejaVuSans-75" transform="translate(198.523438 0)"/>
      <use xlink:href="#DejaVuSans-72" transform="translate(261.902344 0)"/>
      <use xlink:href="#DejaVuSans-62" transform="translate(303.015625 0)"/>
      <use xlink:href="#DejaVuSans-61" transform="translate(366.492188 0)"/>
      <use xlink:href="#DejaVuSans-74" transform="translate(427.771484 0)"/>
      <use xlink:href="#DejaVuSans-69" transform="translate(466.980469 0)"/>
      <use xlink:href="#DejaVuSans-6f" transform="translate(494.763672 0)"/>
      <use xlink:href="#DejaVuSans-6e" transform="translate(555.945312 0)"/>
      <use xlink:href="#DejaVuSans-20" transform="translate(619.324219 0)"/>
      <use xlink:href="#DejaVuSans-69" transform="translate(651.111328 0)"/>
      <use xlink:href="#DejaVuSans-6e" transform="translate(678.894531 0)"/>
      <use xlink:href="#DejaVuSans-20" transform="translate(742.273438 0)"/>
      <use xlink:href="#DejaVuSans-4c" transform="translate(774.060547 0)"/>
      <use xlink:href="#DejaVuSans-6f" transform="translate(828.023438 0)"/>
      <use xlink:href="#DejaVuSans-6e" transform="translate(889.205078 0)"/>
      <use xlink:href="#DejaVuSans-67" transform="translate(952.583984 0)"/>
      <use xlink:href="#DejaVuSans-69" transform="translate(1016.060547 0)"/>
      <use xlink:href="#DejaVuSans-74" transform="translate(1043.84375 0)"/>
      <use xlink:href="#DejaVuSans-75" transform="translate(1083.052734 0)"/>
      <use xlink:href="#DejaVuSans-64" transform="translate(1146.431641 0)"/>
      <use xlink:href="#DejaVuSans-65" transform="translate(1209.908203 0)"/>
      <use xlink:href="#DejaVuSans-20" transform="translate(1271.431641 0)"/>
      <use xlink:href="#DejaVuSans-28" transform="translate(1303.21875 0)"/>
      <use xlink:href="#DejaVuSans-44" transform="translate(1342.232422 0)"/>
      <use xlink:href="#DejaVuSans-65" transform="translate(1419.234375 0)"/>
      <use xlink:href="#DejaVuSans-67" transform="translate(1480.757812 0)"/>
      <use xlink:href="#DejaVuSans-72" transform="translate(1544.234375 0)"/>
      <use xlink:href="#DejaVuSans-65" transform="translate(1583.097656 0)"/>
      <use xlink:href="#DejaVuSans-65" transform="translate(1644.621094 0)"/>
      <use xlink:href="#DejaVuSans-73" transform="translate(1706.144531 0)"/>
      <use xlink:href="#DejaVuSans-29" transform="translate(1758.244141 0)"/>
     </g>
    </g>
   </g>
   <g id="line2d_25">
    <path d="M 85.862727 207.740594 
L 97.75564 168.764026 
L 103.702096 149.962415 
L 108.657476 134.90467 
L 113.612856 120.559056 
L 117.57716 109.689823 
L 121.541465 99.434313 
L 125.505769 89.856719 
L 128.478997 83.154637 
L 131.452225 76.891301 
L 134.425453 71.088767 
L 137.398681 65.76747 
L 140.371909 60.94615 
L 143.345137 56.641784 
L 146.318365 52.869532 
L 148.300518 50.656955 
L 150.28267 48.69028 
L 152.264822 46.972586 
L 154.246974 45.506562 
L 156.229126 44.294503 
L 158.211278 43.338306 
L 160.19343 42.639468 
L 162.175582 42.199083 
L 164.157734 42.017841 
L 166.139886 42.096025 
L 168.122038 42.433512 
L 170.10419 43.029775 
L 172.086342 43.88388 
L 174.068494 44.99449 
L 176.050647 46.359866 
L 178.032799 47.977872 
L 180.014951 49.845973 
L 181.997103 51.961247 
L 183.979255 54.320381 
L 186.952483 58.308139 
L 189.925711 62.822142 
L 192.898939 67.846494 
L 195.872167 73.363501 
L 198.845395 79.353733 
L 201.818623 85.796096 
L 204.791852 92.667903 
L 208.756156 102.456299 
L 212.72046 112.903695 
L 216.684764 123.944698 
L 221.640144 138.47511 
L 226.595524 153.682744 
L 232.541981 172.616105 
L 241.461665 201.857765 
L 255.336729 247.371404 
L 261.283186 266.149498 
L 266.238566 281.180845 
L 271.193946 295.494153 
L 275.15825 306.333497 
L 279.122554 316.555725 
L 283.086858 326.096853 
L 286.060087 332.769631 
L 289.033315 339.002102 
L 292.006543 344.77232 
L 294.979771 350.059964 
L 297.952999 354.846411 
L 300.926227 359.114807 
L 303.899455 362.85012 
L 305.881607 365.037596 
L 307.863759 366.978836 
L 309.845911 368.670801 
L 311.828063 370.110841 
L 313.810216 371.296704 
L 315.792368 372.226533 
L 317.77452 372.898871 
L 319.756672 373.312667 
L 321.738824 373.467273 
L 323.720976 373.362446 
L 325.703128 372.998351 
L 327.68528 372.375558 
L 329.667432 371.495042 
L 331.649584 370.35818 
L 333.631736 368.966754 
L 335.613888 367.32294 
L 337.59604 365.429313 
L 339.578192 363.288836 
L 341.560345 360.90486 
L 344.533573 356.880603 
L 347.506801 352.33113 
L 350.480029 347.272464 
L 353.453257 341.722418 
L 356.426485 335.700538 
L 359.399713 329.228031 
L 362.372941 322.327691 
L 366.337245 312.503926 
L 370.30155 302.024422 
L 374.265854 290.954773 
L 379.221234 276.393693 
L 384.176614 261.161378 
L 390.12307 242.206639 
L 399.042755 212.950345 
L 411.926743 170.644294 
L 417.873199 151.776943 
L 422.828579 136.644856 
L 427.78396 122.207887 
L 431.748264 111.253914 
L 435.712568 100.903875 
L 439.676872 91.222552 
L 442.6501 84.437026 
L 445.623328 78.08573 
L 448.596556 72.19103 
L 451.569784 66.773685 
L 454.543013 61.852773 
L 457.516241 57.445623 
L 460.489469 53.567755 
L 462.471621 51.283379 
L 464.453773 49.243924 
L 466.435925 47.452583 
L 468.418077 45.912161 
L 470.400229 44.625068 
L 472.382381 43.593321 
L 474.364533 42.818533 
L 476.346685 42.301918 
L 478.328837 42.044284 
L 480.31099 42.046035 
L 482.293142 42.307168 
L 484.275294 42.827275 
L 486.257446 43.60554 
L 488.239598 44.640746 
L 490.22175 45.931273 
L 492.203902 47.475099 
L 494.186054 49.269809 
L 496.168206 51.312592 
L 498.150358 53.600251 
L 500.13251 56.129205 
L 503.105738 60.366302 
L 506.078966 65.122397 
L 509.052195 70.380739 
L 512.025423 76.122811 
L 514.998651 82.328392 
L 517.971879 88.975628 
L 521.936183 98.484954 
L 525.900487 108.678138 
L 529.864791 119.491377 
L 534.820171 133.776433 
L 539.775552 148.784651 
L 545.722008 167.542066 
L 553.650616 193.385172 
L 571.489985 251.846854 
L 577.436441 270.455052 
L 582.391821 285.298403 
L 587.347201 299.383457 
L 591.311506 310.012699 
L 595.27581 320.001795 
L 599.240114 329.288222 
L 602.213342 335.756773 
L 605.18657 341.774499 
L 608.159798 347.320207 
L 611.133026 352.374368 
L 614.106254 356.919183 
L 617.079482 360.938646 
L 619.061635 363.319359 
L 621.043787 365.456525 
L 623.025939 367.346799 
L 625.008091 368.987222 
L 626.990243 370.375226 
L 628.972395 371.508638 
L 630.954547 372.385684 
L 632.936699 373.00499 
L 634.918851 373.365588 
L 636.901003 373.466913 
L 638.883155 373.308806 
L 640.865307 372.891515 
L 642.847459 372.215693 
L 644.829611 371.282398 
L 646.811764 370.09309 
L 648.793916 368.649633 
L 650.776068 366.954285 
L 652.75822 365.0097 
L 654.740372 362.818922 
L 656.722524 360.385382 
L 659.695752 356.288326 
L 662.66898 351.66814 
L 665.642208 346.541095 
L 668.615436 340.925247 
L 671.588664 334.840372 
L 674.561893 328.307899 
L 678.526197 318.941651 
L 679.517273 316.488944 
L 679.517273 316.488944 
" clip-path="url(#ped41adbc7b)" style="fill: none; stroke: #1f77b4; stroke-width: 2; stroke-linecap: square"/>
   </g>
   <g id="line2d_26">
    <path d="M 85.862727 207.740594 
L 92.80026 182.566897 
L 96.764564 169.043895 
L 99.737792 159.617754 
L 102.71102 150.97744 
L 104.693172 145.724075 
L 106.675324 140.921141 
L 108.657476 136.603523 
L 110.639628 132.80258 
L 112.62178 129.545918 
L 114.603932 126.857191 
L 116.586084 124.755927 
L 117.57716 123.930533 
L 118.568236 123.257388 
L 119.559312 122.737715 
L 120.550389 122.372458 
L 121.541465 122.162281 
L 122.532541 122.107565 
L 123.523617 122.208409 
L 124.514693 122.464632 
L 125.505769 122.875766 
L 126.496845 123.441065 
L 127.487921 124.159503 
L 128.478997 125.029774 
L 130.461149 127.219218 
L 132.443301 129.993497 
L 134.425453 133.332459 
L 136.407605 137.211854 
L 138.389757 141.603506 
L 140.371909 146.475517 
L 142.354061 151.792502 
L 145.327289 160.517014 
L 148.300518 170.012666 
L 152.264822 183.603585 
L 157.220202 201.528266 
L 166.139886 233.946956 
L 170.10419 247.399882 
L 173.077418 256.755003 
L 176.050647 265.30974 
L 178.032799 270.498646 
L 180.014951 275.231734 
L 181.997103 279.474629 
L 183.979255 283.196513 
L 185.961407 286.370354 
L 187.943559 288.9731 
L 189.925711 290.985847 
L 190.916787 291.766232 
L 191.907863 292.393977 
L 192.898939 292.86794 
L 193.890015 293.187262 
L 194.881091 293.351361 
L 195.872167 293.359939 
L 196.863243 293.212982 
L 197.854319 292.910757 
L 198.845395 292.453811 
L 199.836471 291.842975 
L 200.827547 291.079359 
L 202.809699 289.099611 
L 204.791852 286.528946 
L 206.774004 283.386033 
L 208.756156 279.693701 
L 210.738308 275.478767 
L 212.72046 270.771845 
L 214.702612 265.607121 
L 217.67584 257.084558 
L 220.649068 247.756228 
L 224.613372 234.329911 
L 229.568752 216.510609 
L 239.479513 180.505755 
L 243.443817 167.125056 
L 246.417045 157.842449 
L 249.390273 149.374657 
L 251.372425 144.251039 
L 253.354577 139.588552 
L 255.336729 135.421059 
L 257.318881 131.778829 
L 259.301034 128.688316 
L 261.283186 126.171967 
L 263.265338 124.248058 
L 264.256414 123.512806 
L 265.24749 122.930563 
L 266.238566 122.502385 
L 267.229642 122.22905 
L 268.220718 122.111055 
L 269.211794 122.148615 
L 270.20287 122.341661 
L 271.193946 122.689843 
L 272.185022 123.192527 
L 273.176098 123.848801 
L 274.167174 124.657473 
L 276.149326 126.725859 
L 278.131478 129.382662 
L 280.11363 132.608585 
L 282.095782 136.380199 
L 284.077934 140.67011 
L 286.060087 145.44716 
L 288.042239 150.676652 
L 291.015467 159.285304 
L 293.988695 168.68521 
L 297.952999 182.182405 
L 302.908379 200.048094 
L 311.828063 232.529243 
L 315.792368 246.077754 
L 318.765596 255.52992 
L 321.738824 264.201706 
L 323.720976 269.478828 
L 325.703128 274.30754 
L 327.68528 278.65277 
L 329.667432 282.482958 
L 331.649584 285.770287 
L 333.631736 288.490878 
L 335.613888 290.624973 
L 336.604964 291.467071 
L 337.59604 292.157072 
L 338.587116 292.693722 
L 339.578192 293.076046 
L 340.569268 293.303351 
L 341.560345 293.375222 
L 342.551421 293.291529 
L 343.542497 293.052425 
L 344.533573 292.658344 
L 345.524649 292.110002 
L 346.515725 291.408394 
L 347.506801 290.554795 
L 349.488953 288.398102 
L 351.471105 285.655586 
L 353.453257 282.347167 
L 355.435409 278.496874 
L 357.417561 274.132672 
L 359.399713 269.286258 
L 361.381865 263.992832 
L 364.355093 255.299469 
L 367.328321 245.829489 
L 371.292626 232.263573 
L 376.248006 214.35435 
L 385.16769 181.917766 
L 389.131994 168.438529 
L 392.105222 159.056823 
L 395.07845 150.470103 
L 397.060603 145.257129 
L 399.042755 140.497978 
L 401.024907 136.227217 
L 403.007059 132.475863 
L 404.989211 129.271164 
L 406.971363 126.636395 
L 408.953515 124.590693 
L 409.944591 123.793556 
L 410.935667 123.148916 
L 411.926743 122.657946 
L 412.917819 122.321536 
L 413.908895 122.140299 
L 414.899971 122.114562 
L 415.891047 122.244374 
L 416.882123 122.529498 
L 417.873199 122.969416 
L 418.864275 123.563329 
L 419.855351 124.310158 
L 421.837503 126.256864 
L 423.819655 128.795392 
L 425.801808 131.907307 
L 427.78396 135.570005 
L 429.766112 139.756885 
L 431.748264 144.437537 
L 433.730416 149.577964 
L 436.703644 158.068166 
L 439.676872 167.369499 
L 443.641176 180.768911 
L 448.596556 198.570236 
L 458.507317 234.593476 
L 462.471621 248.001284 
L 465.444849 257.311031 
L 468.418077 265.811314 
L 470.400229 270.959306 
L 472.382381 275.648135 
L 474.364533 279.843746 
L 476.346685 283.515665 
L 478.328837 286.637224 
L 480.31099 289.185749 
L 482.293142 291.14273 
L 483.284218 291.89478 
L 484.275294 292.493955 
L 485.26637 292.939167 
L 486.257446 293.229608 
L 487.248522 293.36475 
L 488.239598 293.344348 
L 489.230674 293.168437 
L 490.22175 292.837339 
L 491.212826 292.351654 
L 492.203902 291.712266 
L 493.194978 290.920334 
L 495.17713 288.884872 
L 497.159282 286.260051 
L 499.141434 283.064937 
L 501.123586 279.322736 
L 503.105738 275.060627 
L 505.08789 270.309567 
L 507.070042 265.104063 
L 510.043271 256.527265 
L 513.016499 247.153801 
L 516.980803 233.682711 
L 521.936183 215.833939 
L 530.855867 183.337542 
L 534.820171 169.763822 
L 537.7934 160.285839 
L 540.766628 151.582772 
L 542.74878 146.28201 
L 544.730932 141.427627 
L 546.713084 137.054881 
L 548.695236 133.195532 
L 550.677388 129.87761 
L 552.65954 127.125214 
L 554.641692 124.958335 
L 555.632768 124.099551 
L 556.623844 123.39271 
L 557.61492 122.839095 
L 558.605996 122.439711 
L 559.597072 122.195285 
L 560.588148 122.106261 
L 561.579224 122.172799 
L 562.570301 122.39478 
L 563.561377 122.771799 
L 564.552453 123.303173 
L 565.543529 123.987935 
L 566.534605 124.824843 
L 568.516757 126.948737 
L 570.498909 129.659429 
L 572.481061 132.937232 
L 574.463213 136.758338 
L 576.445365 141.094995 
L 578.427517 145.915705 
L 580.409669 151.185454 
L 583.382897 159.847477 
L 586.356125 169.291575 
L 590.32043 182.832188 
L 595.27581 200.725557 
L 604.195494 233.179319 
L 608.159798 246.684568 
L 611.133026 256.092652 
L 614.106254 264.711167 
L 616.088406 269.948093 
L 618.070559 274.7332 
L 620.052711 279.031734 
L 622.034863 282.812475 
L 624.017015 286.047962 
L 625.999167 288.714695 
L 627.981319 290.793306 
L 628.972395 291.607178 
L 629.963471 292.268699 
L 630.954547 292.776665 
L 631.945623 293.130156 
L 632.936699 293.328528 
L 633.927775 293.371421 
L 634.918851 293.258757 
L 635.909927 292.990742 
L 636.901003 292.567861 
L 637.892079 291.990883 
L 638.883155 291.260857 
L 639.874231 290.379108 
L 641.856383 288.167121 
L 643.838535 285.37099 
L 645.820688 282.011022 
L 647.80284 278.111621 
L 649.784992 273.70111 
L 651.767144 268.811521 
L 653.749296 263.478369 
L 656.722524 254.732505 
L 659.695752 245.219282 
L 663.660056 231.611308 
L 668.615436 213.676204 
L 677.535121 181.270262 
L 679.517273 174.43199 
L 679.517273 174.43199 
" clip-path="url(#ped41adbc7b)" style="fill: none; stroke-dasharray: 7.4,3.2; stroke-dashoffset: 0; stroke: #ff7f0e; stroke-width: 2"/>
   </g>
   <g id="line2d_27">
    <path d="M 85.862727 207.740594 
L 259.301034 214.910994 
L 352.462181 218.534923 
L 431.748264 221.40007 
L 503.105738 223.758591 
L 569.507833 225.732859 
L 631.945623 227.37119 
L 679.517273 228.465259 
L 679.517273 228.465259 
" clip-path="url(#ped41adbc7b)" style="fill: none; stroke-dasharray: 12.8,3.2,2,3.2; stroke-dashoffset: 0; stroke: #2ca02c; stroke-width: 2"/>
   </g>
   <g id="patch_3">
    <path d="M 56.18 390.04 
L 56.18 25.44 
" style="fill: none; stroke: #000000; stroke-width: 0.8; stroke-linejoin: miter; stroke-linecap: square"/>
   </g>
   <g id="patch_4">
    <path d="M 709.2 390.04 
L 709.2 25.44 
" style="fill: none; stroke: #000000; stroke-width: 0.8; stroke-linejoin: miter; stroke-linecap: square"/>
   </g>
   <g id="patch_5">
    <path d="M 56.18 390.04 
L 709.2 390.04 
" style="fill: none; stroke: #000000; stroke-width: 0.8; stroke-linejoin: miter; stroke-linecap: square"/>
   </g>
   <g id="patch_6">
    <path d="M 56.18 25.44 
L 709.2 25.44 
" style="fill: none; stroke: #000000; stroke-width: 0.8; stroke-linejoin: miter; stroke-linecap: square"/>
   </g>
   <g id="text_15">
    <g id="patch_7">
     <path d="M 65.2404 377.889687 
L 324.060713 377.889687 
L 324.060713 337.815937 
L 65.2404 337.815937 
z
" style="fill: #ffffff; opacity: 0.8"/>
    </g>
    <!-- Evection: Depends on 2D - M' (Period ~31.8 days) -->
    <g transform="translate(69.2404 349.414375) scale(0.1 -0.1)">
     <defs>
      <path id="DejaVuSans-45" d="M 628 4666 
L 3578 4666 
L 3578 4134 
L 1259 4134 
L 1259 2753 
L 3481 2753 
L 3481 2222 
L 1259 2222 
L 1259 531 
L 3634 531 
L 3634 0 
L 628 0 
L 628 4666 
z
" transform="scale(0.015625)"/>
      <path id="DejaVuSans-76" d="M 191 3500 
L 800 3500 
L 1894 563 
L 2988 3500 
L 3597 3500 
L 2284 0 
L 1503 0 
L 191 3500 
z
" transform="scale(0.015625)"/>
      <path id="DejaVuSans-63" d="M 3122 3366 
L 3122 2828 
Q 2878 2963 2633 3030 
Q 2388 3097 2138 3097 
Q 1578 3097 1268 2742 
Q 959 2388 959 1747 
Q 959 1106 1268 751 
Q 1578 397 2138 397 
Q 2388 397 2633 464 
Q 2878 531 3122 666 
L 3122 134 
Q 2881 22 2623 -34 
Q 2366 -91 2075 -91 
Q 1284 -91 818 406 
Q 353 903 353 1747 
Q 353 2603 823 3093 
Q 1294 3584 2113 3584 
Q 2378 3584 2631 3529 
Q 2884 3475 3122 3366 
z
" transform="scale(0.015625)"/>
      <path id="DejaVuSans-3a" d="M 750 794 
L 1409 794 
L 1409 0 
L 750 0 
L 750 794 
z
M 750 3309 
L 1409 3309 
L 1409 2516 
L 750 2516 
L 750 3309 
z
" transform="scale(0.015625)"/>
      <path id="DejaVuSans-70" d="M 1159 525 
L 1159 -1331 
L 581 -1331 
L 581 3500 
L 1159 3500 
L 1159 2969 
Q 1341 3281 1617 3432 
Q 1894 3584 2278 3584 
Q 2916 3584 3314 3078 
Q 3713 2572 3713 1747 
Q 3713 922 3314 415 
Q 2916 -91 2278 -91 
Q 1894 -91 1617 61 
Q 1341 213 1159 525 
z
M 3116 1747 
Q 3116 2381 2855 2742 
Q 2594 3103 2138 3103 
Q 1681 3103 1420 2742 
Q 1159 2381 1159 1747 
Q 1159 1113 1420 752 
Q 1681 391 2138 391 
Q 2594 391 2855 752 
Q 3116 1113 3116 1747 
z
" transform="scale(0.015625)"/>
      <path id="DejaVuSans-2d" d="M 313 2009 
L 1997 2009 
L 1997 1497 
L 313 1497 
L 313 2009 
z
" transform="scale(0.015625)"/>
      <path id="DejaVuSans-4d" d="M 628 4666 
L 1569 4666 
L 2759 1491 
L 3956 4666 
L 4897 4666 
L 4897 0 
L 4281 0 
L 4281 4097 
L 3078 897 
L 2444 897 
L 1241 4097 
L 1241 0 
L 628 0 
L 628 4666 
z
" transform="scale(0.015625)"/>
      <path id="DejaVuSans-27" d="M 1147 4666 
L 1147 2931 
L 616 2931 
L 616 4666 
L 1147 4666 
z
" transform="scale(0.015625)"/>
      <path id="DejaVuSans-7e" d="M 4684 2553 
L 4684 1997 
Q 4356 1750 4076 1644 
Q 3797 1538 3494 1538 
Q 3150 1538 2694 1722 
Q 2659 1734 2644 1741 
Q 2622 1750 2575 1766 
Q 2091 1959 1797 1959 
Q 1522 1959 1253 1839 
Q 984 1719 678 1459 
L 678 2016 
Q 1006 2263 1286 2370 
Q 1566 2478 1869 2478 
Q 2213 2478 2672 2291 
Q 2703 2278 2719 2272 
Q 2744 2263 2788 2247 
Q 3272 2053 3566 2053 
Q 3834 2053 4098 2172 
Q 4363 2291 4684 2553 
z
" transform="scale(0.015625)"/>
      <path id="DejaVuSans-38" d="M 2034 2216 
Q 1584 2216 1326 1975 
Q 1069 1734 1069 1313 
Q 1069 891 1326 650 
Q 1584 409 2034 409 
Q 2484 409 2743 651 
Q 3003 894 3003 1313 
Q 3003 1734 2745 1975 
Q 2488 2216 2034 2216 
z
M 1403 2484 
Q 997 2584 770 2862 
Q 544 3141 544 3541 
Q 544 4100 942 4425 
Q 1341 4750 2034 4750 
Q 2731 4750 3128 4425 
Q 3525 4100 3525 3541 
Q 3525 3141 3298 2862 
Q 3072 2584 2669 2484 
Q 3125 2378 3379 2068 
Q 3634 1759 3634 1313 
Q 3634 634 3220 271 
Q 2806 -91 2034 -91 
Q 1263 -91 848 271 
Q 434 634 434 1313 
Q 434 1759 690 2068 
Q 947 2378 1403 2484 
z
M 1172 3481 
Q 1172 3119 1398 2916 
Q 1625 2713 2034 2713 
Q 2441 2713 2670 2916 
Q 2900 3119 2900 3481 
Q 2900 3844 2670 4047 
Q 2441 4250 2034 4250 
Q 1625 4250 1398 4047 
Q 1172 3844 1172 3481 
z
" transform="scale(0.015625)"/>
     </defs>
     <use xlink:href="#DejaVuSans-45"/>
     <use xlink:href="#DejaVuSans-76" transform="translate(63.183594 0)"/>
     <use xlink:href="#DejaVuSans-65" transform="translate(122.363281 0)"/>
     <use xlink:href="#DejaVuSans-63" transform="translate(183.886719 0)"/>
     <use xlink:href="#DejaVuSans-74" transform="translate(238.867188 0)"/>
     <use xlink:href="#DejaVuSans-69" transform="translate(278.076172 0)"/>
     <use xlink:href="#DejaVuSans-6f" transform="translate(305.859375 0)"/>
     <use xlink:href="#DejaVuSans-6e" transform="translate(367.041016 0)"/>
     <use xlink:href="#DejaVuSans-3a" transform="translate(430.419922 0)"/>
     <use xlink:href="#DejaVuSans-20" transform="translate(464.111328 0)"/>
     <use xlink:href="#DejaVuSans-44" transform="translate(495.898438 0)"/>
     <use xlink:href="#DejaVuSans-65" transform="translate(572.900391 0)"/>
     <use xlink:href="#DejaVuSans-70" transform="translate(634.423828 0)"/>
     <use xlink:href="#DejaVuSans-65" transform="translate(697.900391 0)"/>
     <use xlink:href="#DejaVuSans-6e" transform="translate(759.423828 0)"/>
     <use xlink:href="#DejaVuSans-64" transform="translate(822.802734 0)"/>
     <use xlink:href="#DejaVuSans-73" transform="translate(886.279297 0)"/>
     <use xlink:href="#DejaVuSans-20" transform="translate(938.378906 0)"/>
     <use xlink:href="#DejaVuSans-6f" transform="translate(970.166016 0)"/>
     <use xlink:href="#DejaVuSans-6e" transform="translate(1031.347656 0)"/>
     <use xlink:href="#DejaVuSans-20" transform="translate(1094.726562 0)"/>
     <use xlink:href="#DejaVuSans-32" transform="translate(1126.513672 0)"/>
     <use xlink:href="#DejaVuSans-44" transform="translate(1190.136719 0)"/>
     <use xlink:href="#DejaVuSans-20" transform="translate(1267.138672 0)"/>
     <use xlink:href="#DejaVuSans-2d" transform="translate(1298.925781 0)"/>
     <use xlink:href="#DejaVuSans-20" transform="translate(1335.009766 0)"/>
     <use xlink:href="#DejaVuSans-4d" transform="translate(1366.796875 0)"/>
     <use xlink:href="#DejaVuSans-27" transform="translate(1453.076172 0)"/>
     <use xlink:href="#DejaVuSans-20" transform="translate(1480.566406 0)"/>
     <use xlink:href="#DejaVuSans-28" transform="translate(1512.353516 0)"/>
     <use xlink:href="#DejaVuSans-50" transform="translate(1551.367188 0)"/>
     <use xlink:href="#DejaVuSans-65" transform="translate(1608.044922 0)"/>
     <use xlink:href="#DejaVuSans-72" transform="translate(1669.568359 0)"/>
     <use xlink:href="#DejaVuSans-69" transform="translate(1710.681641 0)"/>
     <use xlink:href="#DejaVuSans-6f" transform="translate(1738.464844 0)"/>
     <use xlink:href="#DejaVuSans-64" transform="translate(1799.646484 0)"/>
     <use xlink:href="#DejaVuSans-20" transform="translate(1863.123047 0)"/>
     <use xlink:href="#DejaVuSans-7e" transform="translate(1894.910156 0)"/>
     <use xlink:href="#DejaVuSans-33" transform="translate(1978.699219 0)"/>
     <use xlink:href="#DejaVuSans-31" transform="translate(2042.322266 0)"/>
     <use xlink:href="#DejaVuSans-2e" transform="translate(2105.945312 0)"/>
     <use xlink:href="#DejaVuSans-38" transform="translate(2137.732422 0)"/>
     <use xlink:href="#DejaVuSans-20" transform="translate(2201.355469 0)"/>
     <use xlink:href="#DejaVuSans-64" transform="translate(2233.142578 0)"/>
     <use xlink:href="#DejaVuSans-61" transform="translate(2296.619141 0)"/>
     <use xlink:href="#DejaVuSans-79" transform="translate(2357.898438 0)"/>
     <use xlink:href="#DejaVuSans-73" transform="translate(2417.078125 0)"/>
     <use xlink:href="#DejaVuSans-29" transform="translate(2469.177734 0)"/>
    </g>
    <!-- Variation: Depends on 2D (Period ~14.8 days) -->
    <g transform="translate(69.2404 360.612188) scale(0.1 -0.1)">
     <defs>
      <path id="DejaVuSans-56" d="M 1831 0 
L 50 4666 
L 709 4666 
L 2188 738 
L 3669 4666 
L 4325 4666 
L 2547 0 
L 1831 0 
z
" transform="scale(0.015625)"/>
     </defs>
     <use xlink:href="#DejaVuSans-56"/>
     <use xlink:href="#DejaVuSans-61" transform="translate(60.658203 0)"/>
     <use xlink:href="#DejaVuSans-72" transform="translate(121.9375 0)"/>
     <use xlink:href="#DejaVuSans-69" transform="translate(163.050781 0)"/>
     <use xlink:href="#DejaVuSans-61" transform="translate(190.833984 0)"/>
     <use xlink:href="#DejaVuSans-74" transform="translate(252.113281 0)"/>
     <use xlink:href="#DejaVuSans-69" transform="translate(291.322266 0)"/>
     <use xlink:href="#DejaVuSans-6f" transform="translate(319.105469 0)"/>
     <use xlink:href="#DejaVuSans-6e" transform="translate(380.287109 0)"/>
     <use xlink:href="#DejaVuSans-3a" transform="translate(443.666016 0)"/>
     <use xlink:href="#DejaVuSans-20" transform="translate(477.357422 0)"/>
     <use xlink:href="#DejaVuSans-44" transform="translate(509.144531 0)"/>
     <use xlink:href="#DejaVuSans-65" transform="translate(586.146484 0)"/>
     <use xlink:href="#DejaVuSans-70" transform="translate(647.669922 0)"/>
     <use xlink:href="#DejaVuSans-65" transform="translate(711.146484 0)"/>
     <use xlink:href="#DejaVuSans-6e" transform="translate(772.669922 0)"/>
     <use xlink:href="#DejaVuSans-64" transform="translate(836.048828 0)"/>
     <use xlink:href="#DejaVuSans-73" transform="translate(899.525391 0)"/>
     <use xlink:href="#DejaVuSans-20" transform="translate(951.625 0)"/>
     <use xlink:href="#DejaVuSans-6f" transform="translate(983.412109 0)"/>
     <use xlink:href="#DejaVuSans-6e" transform="translate(1044.59375 0)"/>
     <use xlink:href="#DejaVuSans-20" transform="translate(1107.972656 0)"/>
     <use xlink:href="#DejaVuSans-32" transform="translate(1139.759766 0)"/>
     <use xlink:href="#DejaVuSans-44" transform="translate(1203.382812 0)"/>
     <use xlink:href="#DejaVuSans-20" transform="translate(1280.384766 0)"/>
     <use xlink:href="#DejaVuSans-28" transform="translate(1312.171875 0)"/>
     <use xlink:href="#DejaVuSans-50" transform="translate(1351.185547 0)"/>
     <use xlink:href="#DejaVuSans-65" transform="translate(1407.863281 0)"/>
     <use xlink:href="#DejaVuSans-72" transform="translate(1469.386719 0)"/>
     <use xlink:href="#DejaVuSans-69" transform="translate(1510.5 0)"/>
     <use xlink:href="#DejaVuSans-6f" transform="translate(1538.283203 0)"/>
     <use xlink:href="#DejaVuSans-64" transform="translate(1599.464844 0)"/>
     <use xlink:href="#DejaVuSans-20" transform="translate(1662.941406 0)"/>
     <use xlink:href="#DejaVuSans-7e" transform="translate(1694.728516 0)"/>
     <use xlink:href="#DejaVuSans-31" transform="translate(1778.517578 0)"/>
     <use xlink:href="#DejaVuSans-34" transform="translate(1842.140625 0)"/>
     <use xlink:href="#DejaVuSans-2e" transform="translate(1905.763672 0)"/>
     <use xlink:href="#DejaVuSans-38" transform="translate(1937.550781 0)"/>
     <use xlink:href="#DejaVuSans-20" transform="translate(2001.173828 0)"/>
     <use xlink:href="#DejaVuSans-64" transform="translate(2032.960938 0)"/>
     <use xlink:href="#DejaVuSans-61" transform="translate(2096.4375 0)"/>
     <use xlink:href="#DejaVuSans-79" transform="translate(2157.716797 0)"/>
     <use xlink:href="#DejaVuSans-73" transform="translate(2216.896484 0)"/>
     <use xlink:href="#DejaVuSans-29" transform="translate(2268.996094 0)"/>
    </g>
    <!-- Annual Eq: Depends on M (Period ~1 year) -->
    <g transform="translate(69.2404 371.81) scale(0.1 -0.1)">
     <defs>
      <path id="DejaVuSans-41" d="M 2188 4044 
L 1331 1722 
L 3047 1722 
L 2188 4044 
z
M 1831 4666 
L 2547 4666 
L 4325 0 
L 3669 0 
L 3244 1197 
L 1141 1197 
L 716 0 
L 50 0 
L 1831 4666 
z
" transform="scale(0.015625)"/>
      <path id="DejaVuSans-6c" d="M 603 4863 
L 1178 4863 
L 1178 0 
L 603 0 
L 603 4863 
z
" transform="scale(0.015625)"/>
      <path id="DejaVuSans-71" d="M 947 1747 
Q 947 1113 1208 752 
Q 1469 391 1925 391 
Q 2381 391 2643 752 
Q 2906 1113 2906 1747 
Q 2906 2381 2643 2742 
Q 2381 3103 1925 3103 
Q 1469 3103 1208 2742 
Q 947 2381 947 1747 
z
M 2906 525 
Q 2725 213 2448 61 
Q 2172 -91 1784 -91 
Q 1150 -91 751 415 
Q 353 922 353 1747 
Q 353 2572 751 3078 
Q 1150 3584 1784 3584 
Q 2172 3584 2448 3432 
Q 2725 3281 2906 2969 
L 2906 3500 
L 3481 3500 
L 3481 -1331 
L 2906 -1331 
L 2906 525 
z
" transform="scale(0.015625)"/>
     </defs>
     <use xlink:href="#DejaVuSans-41"/>
     <use xlink:href="#DejaVuSans-6e" transform="translate(68.408203 0)"/>
     <use xlink:href="#DejaVuSans-6e" transform="translate(131.787109 0)"/>
     <use xlink:href="#DejaVuSans-75" transform="translate(195.166016 0)"/>
     <use xlink:href="#DejaVuSans-61" transform="translate(258.544922 0)"/>
     <use xlink:href="#DejaVuSans-6c" transform="translate(319.824219 0)"/>
     <use xlink:href="#DejaVuSans-20" transform="translate(347.607422 0)"/>
     <use xlink:href="#DejaVuSans-45" transform="translate(379.394531 0)"/>
     <use xlink:href="#DejaVuSans-71" transform="translate(442.578125 0)"/>
     <use xlink:href="#DejaVuSans-3a" transform="translate(506.054688 0)"/>
     <use xlink:href="#DejaVuSans-20" transform="translate(539.746094 0)"/>
     <use xlink:href="#DejaVuSans-44" transform="translate(571.533203 0)"/>
     <use xlink:href="#DejaVuSans-65" transform="translate(648.535156 0)"/>
     <use xlink:href="#DejaVuSans-70" transform="translate(710.058594 0)"/>
     <use xlink:href="#DejaVuSans-65" transform="translate(773.535156 0)"/>
     <use xlink:href="#DejaVuSans-6e" transform="translate(835.058594 0)"/>
     <use xlink:href="#DejaVuSans-64" transform="translate(898.4375 0)"/>
     <use xlink:href="#DejaVuSans-73" transform="translate(961.914062 0)"/>
     <use xlink:href="#DejaVuSans-20" transform="translate(1014.013672 0)"/>
     <use xlink:href="#DejaVuSans-6f" transform="translate(1045.800781 0)"/>
     <use xlink:href="#DejaVuSans-6e" transform="translate(1106.982422 0)"/>
     <use xlink:href="#DejaVuSans-20" transform="translate(1170.361328 0)"/>
     <use xlink:href="#DejaVuSans-4d" transform="translate(1202.148438 0)"/>
     <use xlink:href="#DejaVuSans-20" transform="translate(1288.427734 0)"/>
     <use xlink:href="#DejaVuSans-28" transform="translate(1320.214844 0)"/>
     <use xlink:href="#DejaVuSans-50" transform="translate(1359.228516 0)"/>
     <use xlink:href="#DejaVuSans-65" transform="translate(1415.90625 0)"/>
     <use xlink:href="#DejaVuSans-72" transform="translate(1477.429688 0)"/>
     <use xlink:href="#DejaVuSans-69" transform="translate(1518.542969 0)"/>
     <use xlink:href="#DejaVuSans-6f" transform="translate(1546.326172 0)"/>
     <use xlink:href="#DejaVuSans-64" transform="translate(1607.507812 0)"/>
     <use xlink:href="#DejaVuSans-20" transform="translate(1670.984375 0)"/>
     <use xlink:href="#DejaVuSans-7e" transform="translate(1702.771484 0)"/>
     <use xlink:href="#DejaVuSans-31" transform="translate(1786.560547 0)"/>
     <use xlink:href="#DejaVuSans-20" transform="translate(1850.183594 0)"/>
     <use xlink:href="#DejaVuSans-79" transform="translate(1881.970703 0)"/>
     <use xlink:href="#DejaVuSans-65" transform="translate(1941.150391 0)"/>
     <use xlink:href="#DejaVuSans-61" transform="translate(2002.673828 0)"/>
     <use xlink:href="#DejaVuSans-72" transform="translate(2063.953125 0)"/>
     <use xlink:href="#DejaVuSans-29" transform="translate(2105.066406 0)"/>
    </g>
   </g>
   <g id="text_16">
    <!-- Major Lunar Perturbations over 60 Days -->
    <g transform="translate(263.236562 19.44) scale(0.12 -0.12)">
     <defs>
      <path id="DejaVuSans-6a" d="M 603 3500 
L 1178 3500 
L 1178 -63 
Q 1178 -731 923 -1031 
Q 669 -1331 103 -1331 
L -116 -1331 
L -116 -844 
L 38 -844 
Q 366 -844 484 -692 
Q 603 -541 603 -63 
L 603 3500 
z
M 603 4863 
L 1178 4863 
L 1178 4134 
L 603 4134 
L 603 4863 
z
" transform="scale(0.015625)"/>
     </defs>
     <use xlink:href="#DejaVuSans-4d"/>
     <use xlink:href="#DejaVuSans-61" transform="translate(86.279297 0)"/>
     <use xlink:href="#DejaVuSans-6a" transform="translate(147.558594 0)"/>
     <use xlink:href="#DejaVuSans-6f" transform="translate(175.341797 0)"/>
     <use xlink:href="#DejaVuSans-72" transform="translate(236.523438 0)"/>
     <use xlink:href="#DejaVuSans-20" transform="translate(277.636719 0)"/>
     <use xlink:href="#DejaVuSans-4c" transform="translate(309.423828 0)"/>
     <use xlink:href="#DejaVuSans-75" transform="translate(363.386719 0)"/>
     <use xlink:href="#DejaVuSans-6e" transform="translate(426.765625 0)"/>
     <use xlink:href="#DejaVuSans-61" transform="translate(490.144531 0)"/>
     <use xlink:href="#DejaVuSans-72" transform="translate(551.423828 0)"/>
     <use xlink:href="#DejaVuSans-20" transform="translate(592.537109 0)"/>
     <use xlink:href="#DejaVuSans-50" transform="translate(624.324219 0)"/>
     <use xlink:href="#DejaVuSans-65" transform="translate(681.001953 0)"/>
     <use xlink:href="#DejaVuSans-72" transform="translate(742.525391 0)"/>
     <use xlink:href="#DejaVuSans-74" transform="translate(783.638672 0)"/>
     <use xlink:href="#DejaVuSans-75" transform="translate(822.847656 0)"/>
     <use xlink:href="#DejaVuSans-72" transform="translate(886.226562 0)"/>
     <use xlink:href="#DejaVuSans-62" transform="translate(927.339844 0)"/>
     <use xlink:href="#DejaVuSans-61" transform="translate(990.816406 0)"/>
     <use xlink:href="#DejaVuSans-74" transform="translate(1052.095703 0)"/>
     <use xlink:href="#DejaVuSans-69" transform="translate(1091.304688 0)"/>
     <use xlink:href="#DejaVuSans-6f" transform="translate(1119.087891 0)"/>
     <use xlink:href="#DejaVuSans-6e" transform="translate(1180.269531 0)"/>
     <use xlink:href="#DejaVuSans-73" transform="translate(1243.648438 0)"/>
     <use xlink:href="#DejaVuSans-20" transform="translate(1295.748047 0)"/>
     <use xlink:href="#DejaVuSans-6f" transform="translate(1327.535156 0)"/>
     <use xlink:href="#DejaVuSans-76" transform="translate(1388.716797 0)"/>
     <use xlink:href="#DejaVuSans-65" transform="translate(1447.896484 0)"/>
     <use xlink:href="#DejaVuSans-72" transform="translate(1509.419922 0)"/>
     <use xlink:href="#DejaVuSans-20" transform="translate(1550.533203 0)"/>
     <use xlink:href="#DejaVuSans-36" transform="translate(1582.320312 0)"/>
     <use xlink:href="#DejaVuSans-30" transform="translate(1645.943359 0)"/>
     <use xlink:href="#DejaVuSans-20" transform="translate(1709.566406 0)"/>
     <use xlink:href="#DejaVuSans-44" transform="translate(1741.353516 0)"/>
     <use xlink:href="#DejaVuSans-61" transform="translate(1818.355469 0)"/>
     <use xlink:href="#DejaVuSans-79" transform="translate(1879.634766 0)"/>
     <use xlink:href="#DejaVuSans-73" transform="translate(1938.814453 0)"/>
    </g>
   </g>
   <g id="legend_1">
    <g id="patch_8">
     <path d="M 587.975 77.474375 
L 702.2 77.474375 
Q 704.2 77.474375 704.2 75.474375 
L 704.2 32.44 
Q 704.2 30.44 702.2 30.44 
L 587.975 30.44 
Q 585.975 30.44 585.975 32.44 
L 585.975 75.474375 
Q 585.975 77.474375 587.975 77.474375 
z
" style="fill: #ffffff; opacity: 0.8; stroke: #cccccc; stroke-linejoin: miter"/>
    </g>
    <g id="line2d_28">
     <path d="M 589.975 38.538437 
L 599.975 38.538437 
L 609.975 38.538437 
" style="fill: none; stroke: #1f77b4; stroke-width: 2; stroke-linecap: square"/>
    </g>
    <g id="text_17">
     <!-- Evection -->
     <g transform="translate(617.975 42.038437) scale(0.1 -0.1)">
      <use xlink:href="#DejaVuSans-45"/>
      <use xlink:href="#DejaVuSans-76" transform="translate(63.183594 0)"/>
      <use xlink:href="#DejaVuSans-65" transform="translate(122.363281 0)"/>
      <use xlink:href="#DejaVuSans-63" transform="translate(183.886719 0)"/>
      <use xlink:href="#DejaVuSans-74" transform="translate(238.867188 0)"/>
      <use xlink:href="#DejaVuSans-69" transform="translate(278.076172 0)"/>
      <use xlink:href="#DejaVuSans-6f" transform="translate(305.859375 0)"/>
      <use xlink:href="#DejaVuSans-6e" transform="translate(367.041016 0)"/>
     </g>
    </g>
    <g id="line2d_29">
     <path d="M 589.975 53.216563 
L 599.975 53.216563 
L 609.975 53.216563 
" style="fill: none; stroke-dasharray: 7.4,3.2; stroke-dashoffset: 0; stroke: #ff7f0e; stroke-width: 2"/>
    </g>
    <g id="text_18">
     <!-- Variation -->
     <g transform="translate(617.975 56.716563) scale(0.1 -0.1)">
      <use xlink:href="#DejaVuSans-56"/>
      <use xlink:href="#DejaVuSans-61" transform="translate(60.658203 0)"/>
      <use xlink:href="#DejaVuSans-72" transform="translate(121.9375 0)"/>
      <use xlink:href="#DejaVuSans-69" transform="translate(163.050781 0)"/>
      <use xlink:href="#DejaVuSans-61" transform="translate(190.833984 0)"/>
      <use xlink:href="#DejaVuSans-74" transform="translate(252.113281 0)"/>
      <use xlink:href="#DejaVuSans-69" transform="translate(291.322266 0)"/>
      <use xlink:href="#DejaVuSans-6f" transform="translate(319.105469 0)"/>
      <use xlink:href="#DejaVuSans-6e" transform="translate(380.287109 0)"/>
     </g>
    </g>
    <g id="line2d_30">
     <path d="M 589.975 67.894687 
L 599.975 67.894687 
L 609.975 67.894687 
" style="fill: none; stroke-dasharray: 12.8,3.2,2,3.2; stroke-dashoffset: 0; stroke: #2ca02c; stroke-width: 2"/>
    </g>
    <g id="text_19">
     <!-- Annual Equation -->
     <g transform="translate(617.975 71.394687) scale(0.1 -0.1)">
      <use xlink:href="#DejaVuSans-41"/>
      <use xlink:href="#DejaVuSans-6e" transform="translate(68.408203 0)"/>
      <use xlink:href="#DejaVuSans-6e" transform="translate(131.787109 0)"/>
      <use xlink:href="#DejaVuSans-75" transform="translate(195.166016 0)"/>
      <use xlink:href="#DejaVuSans-61" transform="translate(258.544922 0)"/>
      <use xlink:href="#DejaVuSans-6c" transform="translate(319.824219 0)"/>
      <use xlink:href="#DejaVuSans-20" transform="translate(347.607422 0)"/>
      <use xlink:href="#DejaVuSans-45" transform="translate(379.394531 0)"/>
      <use xlink:href="#DejaVuSans-71" transform="translate(442.578125 0)"/>
      <use xlink:href="#DejaVuSans-75" transform="translate(506.054688 0)"/>
      <use xlink:href="#DejaVuSans-61" transform="translate(569.433594 0)"/>
      <use xlink:href="#DejaVuSans-74" transform="translate(630.712891 0)"/>
      <use xlink:href="#DejaVuSans-69" transform="translate(669.921875 0)"/>
      <use xlink:href="#DejaVuSans-6f" transform="translate(697.705078 0)"/>
      <use xlink:href="#DejaVuSans-6e" transform="translate(758.886719 0)"/>
     </g>
    </g>
   </g>
  </g>
 </g>
 <defs>
  <clipPath id="ped41adbc7b">
   <rect x="56.18" y="25.44" width="653.02" height="364.6"/>
  </clipPath>
 </defs>
</svg>
