<?xml version="1.0" encoding="utf-8" standalone="no"?>
<!DOCTYPE svg PUBLIC "-//W3C//DTD SVG 1.1//EN"
  "http://www.w3.org/Graphics/SVG/1.1/DTD/svg11.dtd">
<svg xmlns:xlink="http://www.w3.org/1999/xlink" width="576pt" height="576pt" viewBox="0 0 576 576" xmlns="http://www.w3.org/2000/svg" version="1.1">
 <metadata>
  <rdf:RDF xmlns:dc="http://purl.org/dc/elements/1.1/" xmlns:cc="http://creativecommons.org/ns#" xmlns:rdf="http://www.w3.org/1999/02/22-rdf-syntax-ns#">
   <cc:Work>
    <dc:type rdf:resource="http://purl.org/dc/dcmitype/StillImage"/>
    <dc:date>2025-11-24T01:35:47.752050</dc:date>
    <dc:format>image/svg+xml</dc:format>
    <dc:creator>
     <cc:Agent>
      <dc:title>Matplotlib v3.10.7, https://matplotlib.org/</dc:title>
     </cc:Agent>
    </dc:creator>
   </cc:Work>
  </rdf:RDF>
 </metadata>
 <defs>
  <style type="text/css">*{stroke-linejoin: round; stroke-linecap: butt}</style>
 </defs>
 <g id="figure_1">
  <g id="patch_1">
   <path d="M 0 576 
L 576 576 
L 576 0 
L 0 0 
z
" style="fill: #ffffff"/>
  </g>
  <g id="axes_1">
   <g id="patch_2">
    <path d="M 556.8 296.4 
L 546.048 301.776 
L 546.048 296.45376 
L 503.04 296.45376 
L 503.04 296.34624 
L 546.048 296.34624 
L 546.048 291.024 
z
" clip-path="url(#p6a5651fb7e)" style="fill: #ffa500; stroke: #ffa500; stroke-linejoin: miter"/>
   </g>
   <g id="patch_3">
    <path d="M 288 457.68 
C 330.771956 457.68 371.797842 440.686522 402.042182 410.442182 
C 432.286522 380.197842 449.28 339.171956 449.28 296.4 
C 449.28 253.628044 432.286522 212.602158 402.042182 182.357818 
C 371.797842 152.113478 330.771956 135.12 288 135.12 
C 245.228044 135.12 204.202158 152.113478 173.957818 182.357818 
C 143.713478 212.602158 126.72 253.628044 126.72 296.4 
C 126.72 339.171956 143.713478 380.197842 173.957818 410.442182 
C 204.202158 440.686522 245.228044 457.68 288 457.68 
L 288 457.68 
z
" clip-path="url(#p6a5651fb7e)" style="fill: none; stroke-dasharray: 3.7,1.6; stroke-dashoffset: 0; stroke: #808080; stroke-linejoin: miter"/>
   </g>
   <g id="text_1">
    <!-- Earth -->
    <g style="fill: #0066cc" transform="translate(272.795313 347.006437) scale(0.1 -0.1)">
     <defs>
      <path id="DejaVuSans-Bold-45" d="M 588 4666 
L 3834 4666 
L 3834 3756 
L 1791 3756 
L 1791 2888 
L 3713 2888 
L 3713 1978 
L 1791 1978 
L 1791 909 
L 3903 909 
L 3903 0 
L 588 0 
L 588 4666 
z
" transform="scale(0.015625)"/>
      <path id="DejaVuSans-Bold-61" d="M 2106 1575 
Q 1756 1575 1579 1456 
Q 1403 1338 1403 1106 
Q 1403 894 1545 773 
Q 1688 653 1941 653 
Q 2256 653 2472 879 
Q 2688 1106 2688 1447 
L 2688 1575 
L 2106 1575 
z
M 3816 1997 
L 3816 0 
L 2688 0 
L 2688 519 
Q 2463 200 2181 54 
Q 1900 -91 1497 -91 
Q 953 -91 614 226 
Q 275 544 275 1050 
Q 275 1666 698 1953 
Q 1122 2241 2028 2241 
L 2688 2241 
L 2688 2328 
Q 2688 2594 2478 2717 
Q 2269 2841 1825 2841 
Q 1466 2841 1156 2769 
Q 847 2697 581 2553 
L 581 3406 
Q 941 3494 1303 3539 
Q 1666 3584 2028 3584 
Q 2975 3584 3395 3211 
Q 3816 2838 3816 1997 
z
" transform="scale(0.015625)"/>
      <path id="DejaVuSans-Bold-72" d="M 3138 2547 
Q 2991 2616 2845 2648 
Q 2700 2681 2553 2681 
Q 2122 2681 1889 2404 
Q 1656 2128 1656 1613 
L 1656 0 
L 538 0 
L 538 3500 
L 1656 3500 
L 1656 2925 
Q 1872 3269 2151 3426 
Q 2431 3584 2822 3584 
Q 2878 3584 2943 3579 
Q 3009 3575 3134 3559 
L 3138 2547 
z
" transform="scale(0.015625)"/>
      <path id="DejaVuSans-Bold-74" d="M 1759 4494 
L 1759 3500 
L 2913 3500 
L 2913 2700 
L 1759 2700 
L 1759 1216 
Q 1759 972 1856 886 
Q 1953 800 2241 800 
L 2816 800 
L 2816 0 
L 1856 0 
Q 1194 0 917 276 
Q 641 553 641 1216 
L 641 2700 
L 84 2700 
L 84 3500 
L 641 3500 
L 641 4494 
L 1759 4494 
z
" transform="scale(0.015625)"/>
      <path id="DejaVuSans-Bold-68" d="M 4056 2131 
L 4056 0 
L 2931 0 
L 2931 347 
L 2931 1625 
Q 2931 2084 2911 2256 
Q 2891 2428 2841 2509 
Q 2775 2619 2662 2680 
Q 2550 2741 2406 2741 
Q 2056 2741 1856 2470 
Q 1656 2200 1656 1722 
L 1656 0 
L 538 0 
L 538 4863 
L 1656 4863 
L 1656 2988 
Q 1909 3294 2193 3439 
Q 2478 3584 2822 3584 
Q 3428 3584 3742 3212 
Q 4056 2841 4056 2131 
z
" transform="scale(0.015625)"/>
     </defs>
     <use xlink:href="#DejaVuSans-Bold-45"/>
     <use xlink:href="#DejaVuSans-Bold-61" transform="translate(68.310547 0)"/>
     <use xlink:href="#DejaVuSans-Bold-72" transform="translate(135.791016 0)"/>
     <use xlink:href="#DejaVuSans-Bold-74" transform="translate(185.107422 0)"/>
     <use xlink:href="#DejaVuSans-Bold-68" transform="translate(232.910156 0)"/>
    </g>
   </g>
   <g id="text_2">
    <!-- To Sun -->
    <g style="fill: #ffa500" transform="translate(505.90025 280.272) scale(0.1 -0.1)">
     <defs>
      <path id="DejaVuSans-Bold-54" d="M 31 4666 
L 4331 4666 
L 4331 3756 
L 2784 3756 
L 2784 0 
L 1581 0 
L 1581 3756 
L 31 3756 
L 31 4666 
z
" transform="scale(0.015625)"/>
      <path id="DejaVuSans-Bold-6f" d="M 2203 2784 
Q 1831 2784 1636 2517 
Q 1441 2250 1441 1747 
Q 1441 1244 1636 976 
Q 1831 709 2203 709 
Q 2569 709 2762 976 
Q 2956 1244 2956 1747 
Q 2956 2250 2762 2517 
Q 2569 2784 2203 2784 
z
M 2203 3584 
Q 3106 3584 3614 3096 
Q 4122 2609 4122 1747 
Q 4122 884 3614 396 
Q 3106 -91 2203 -91 
Q 1297 -91 786 396 
Q 275 884 275 1747 
Q 275 2609 786 3096 
Q 1297 3584 2203 3584 
z
" transform="scale(0.015625)"/>
      <path id="DejaVuSans-Bold-20" transform="scale(0.015625)"/>
      <path id="DejaVuSans-Bold-53" d="M 3834 4519 
L 3834 3531 
Q 3450 3703 3084 3790 
Q 2719 3878 2394 3878 
Q 1963 3878 1756 3759 
Q 1550 3641 1550 3391 
Q 1550 3203 1689 3098 
Q 1828 2994 2194 2919 
L 2706 2816 
Q 3484 2659 3812 2340 
Q 4141 2022 4141 1434 
Q 4141 663 3683 286 
Q 3225 -91 2284 -91 
Q 1841 -91 1394 -6 
Q 947 78 500 244 
L 500 1259 
Q 947 1022 1364 901 
Q 1781 781 2169 781 
Q 2563 781 2772 912 
Q 2981 1044 2981 1288 
Q 2981 1506 2839 1625 
Q 2697 1744 2272 1838 
L 1806 1941 
Q 1106 2091 782 2419 
Q 459 2747 459 3303 
Q 459 4000 909 4375 
Q 1359 4750 2203 4750 
Q 2588 4750 2994 4692 
Q 3400 4634 3834 4519 
z
" transform="scale(0.015625)"/>
      <path id="DejaVuSans-Bold-75" d="M 500 1363 
L 500 3500 
L 1625 3500 
L 1625 3150 
Q 1625 2866 1622 2436 
Q 1619 2006 1619 1863 
Q 1619 1441 1641 1255 
Q 1663 1069 1716 984 
Q 1784 875 1895 815 
Q 2006 756 2150 756 
Q 2500 756 2700 1025 
Q 2900 1294 2900 1772 
L 2900 3500 
L 4019 3500 
L 4019 0 
L 2900 0 
L 2900 506 
Q 2647 200 2364 54 
Q 2081 -91 1741 -91 
Q 1134 -91 817 281 
Q 500 653 500 1363 
z
" transform="scale(0.015625)"/>
      <path id="DejaVuSans-Bold-6e" d="M 4056 2131 
L 4056 0 
L 2931 0 
L 2931 347 
L 2931 1631 
Q 2931 2084 2911 2256 
Q 2891 2428 2841 2509 
Q 2775 2619 2662 2680 
Q 2550 2741 2406 2741 
Q 2056 2741 1856 2470 
Q 1656 2200 1656 1722 
L 1656 0 
L 538 0 
L 538 3500 
L 1656 3500 
L 1656 2988 
Q 1909 3294 2193 3439 
Q 2478 3584 2822 3584 
Q 3428 3584 3742 3212 
Q 4056 2841 4056 2131 
z
" transform="scale(0.015625)"/>
     </defs>
     <use xlink:href="#DejaVuSans-Bold-54"/>
     <use xlink:href="#DejaVuSans-Bold-6f" transform="translate(54.962891 0)"/>
     <use xlink:href="#DejaVuSans-Bold-20" transform="translate(123.664062 0)"/>
     <use xlink:href="#DejaVuSans-Bold-53" transform="translate(158.478516 0)"/>
     <use xlink:href="#DejaVuSans-Bold-75" transform="translate(230.5 0)"/>
     <use xlink:href="#DejaVuSans-Bold-6e" transform="translate(301.691406 0)"/>
    </g>
   </g>
   <g id="text_3">
    <!-- Accelerating -->
    <g style="fill: #008000" transform="translate(360.143438 185.962344) scale(0.1 -0.1)">
     <defs>
      <path id="DejaVuSans-Bold-41" d="M 3419 850 
L 1538 850 
L 1241 0 
L 31 0 
L 1759 4666 
L 3194 4666 
L 4922 0 
L 3713 0 
L 3419 850 
z
M 1838 1716 
L 3116 1716 
L 2478 3572 
L 1838 1716 
z
" transform="scale(0.015625)"/>
      <path id="DejaVuSans-Bold-63" d="M 3366 3391 
L 3366 2478 
Q 3138 2634 2908 2709 
Q 2678 2784 2431 2784 
Q 1963 2784 1702 2511 
Q 1441 2238 1441 1747 
Q 1441 1256 1702 982 
Q 1963 709 2431 709 
Q 2694 709 2930 787 
Q 3166 866 3366 1019 
L 3366 103 
Q 3103 6 2833 -42 
Q 2563 -91 2291 -91 
Q 1344 -91 809 395 
Q 275 881 275 1747 
Q 275 2613 809 3098 
Q 1344 3584 2291 3584 
Q 2566 3584 2833 3536 
Q 3100 3488 3366 3391 
z
" transform="scale(0.015625)"/>
      <path id="DejaVuSans-Bold-65" d="M 4031 1759 
L 4031 1441 
L 1416 1441 
Q 1456 1047 1700 850 
Q 1944 653 2381 653 
Q 2734 653 3104 758 
Q 3475 863 3866 1075 
L 3866 213 
Q 3469 63 3072 -14 
Q 2675 -91 2278 -91 
Q 1328 -91 801 392 
Q 275 875 275 1747 
Q 275 2603 792 3093 
Q 1309 3584 2216 3584 
Q 3041 3584 3536 3087 
Q 4031 2591 4031 1759 
z
M 2881 2131 
Q 2881 2450 2695 2645 
Q 2509 2841 2209 2841 
Q 1884 2841 1681 2658 
Q 1478 2475 1428 2131 
L 2881 2131 
z
" transform="scale(0.015625)"/>
      <path id="DejaVuSans-Bold-6c" d="M 538 4863 
L 1656 4863 
L 1656 0 
L 538 0 
L 538 4863 
z
" transform="scale(0.015625)"/>
      <path id="DejaVuSans-Bold-69" d="M 538 3500 
L 1656 3500 
L 1656 0 
L 538 0 
L 538 3500 
z
M 538 4863 
L 1656 4863 
L 1656 3950 
L 538 3950 
L 538 4863 
z
" transform="scale(0.015625)"/>
      <path id="DejaVuSans-Bold-67" d="M 2919 594 
Q 2688 288 2409 144 
Q 2131 0 1766 0 
Q 1125 0 706 504 
Q 288 1009 288 1791 
Q 288 2575 706 3076 
Q 1125 3578 1766 3578 
Q 2131 3578 2409 3434 
Q 2688 3291 2919 2981 
L 2919 3500 
L 4044 3500 
L 4044 353 
Q 4044 -491 3511 -936 
Q 2978 -1381 1966 -1381 
Q 1638 -1381 1331 -1331 
Q 1025 -1281 716 -1178 
L 716 -306 
Q 1009 -475 1290 -558 
Q 1572 -641 1856 -641 
Q 2406 -641 2662 -400 
Q 2919 -159 2919 353 
L 2919 594 
z
M 2181 2772 
Q 1834 2772 1640 2515 
Q 1447 2259 1447 1791 
Q 1447 1309 1634 1061 
Q 1822 813 2181 813 
Q 2531 813 2725 1069 
Q 2919 1325 2919 1791 
Q 2919 2259 2725 2515 
Q 2531 2772 2181 2772 
z
" transform="scale(0.015625)"/>
     </defs>
     <use xlink:href="#DejaVuSans-Bold-41"/>
     <use xlink:href="#DejaVuSans-Bold-63" transform="translate(77.392578 0)"/>
     <use xlink:href="#DejaVuSans-Bold-63" transform="translate(136.669922 0)"/>
     <use xlink:href="#DejaVuSans-Bold-65" transform="translate(195.947266 0)"/>
     <use xlink:href="#DejaVuSans-Bold-6c" transform="translate(263.769531 0)"/>
     <use xlink:href="#DejaVuSans-Bold-65" transform="translate(298.046875 0)"/>
     <use xlink:href="#DejaVuSans-Bold-72" transform="translate(365.869141 0)"/>
     <use xlink:href="#DejaVuSans-Bold-61" transform="translate(415.185547 0)"/>
     <use xlink:href="#DejaVuSans-Bold-74" transform="translate(482.666016 0)"/>
     <use xlink:href="#DejaVuSans-Bold-69" transform="translate(530.46875 0)"/>
     <use xlink:href="#DejaVuSans-Bold-6e" transform="translate(564.746094 0)"/>
     <use xlink:href="#DejaVuSans-Bold-67" transform="translate(635.9375 0)"/>
    </g>
    <!-- (Speeding up) -->
    <g style="fill: #008000" transform="translate(355.677031 197.238281) scale(0.1 -0.1)">
     <defs>
      <path id="DejaVuSans-Bold-28" d="M 2413 -844 
L 1484 -844 
Q 1006 -72 778 623 
Q 550 1319 550 2003 
Q 550 2688 779 3389 
Q 1009 4091 1484 4856 
L 2413 4856 
Q 2013 4116 1813 3408 
Q 1613 2700 1613 2009 
Q 1613 1319 1811 609 
Q 2009 -100 2413 -844 
z
" transform="scale(0.015625)"/>
      <path id="DejaVuSans-Bold-70" d="M 1656 506 
L 1656 -1331 
L 538 -1331 
L 538 3500 
L 1656 3500 
L 1656 2988 
Q 1888 3294 2169 3439 
Q 2450 3584 2816 3584 
Q 3463 3584 3878 3070 
Q 4294 2556 4294 1747 
Q 4294 938 3878 423 
Q 3463 -91 2816 -91 
Q 2450 -91 2169 54 
Q 1888 200 1656 506 
z
M 2400 2772 
Q 2041 2772 1848 2508 
Q 1656 2244 1656 1747 
Q 1656 1250 1848 986 
Q 2041 722 2400 722 
Q 2759 722 2948 984 
Q 3138 1247 3138 1747 
Q 3138 2247 2948 2509 
Q 2759 2772 2400 2772 
z
" transform="scale(0.015625)"/>
      <path id="DejaVuSans-Bold-64" d="M 2919 2988 
L 2919 4863 
L 4044 4863 
L 4044 0 
L 2919 0 
L 2919 506 
Q 2688 197 2409 53 
Q 2131 -91 1766 -91 
Q 1119 -91 703 423 
Q 288 938 288 1747 
Q 288 2556 703 3070 
Q 1119 3584 1766 3584 
Q 2128 3584 2408 3439 
Q 2688 3294 2919 2988 
z
M 2181 722 
Q 2541 722 2730 984 
Q 2919 1247 2919 1747 
Q 2919 2247 2730 2509 
Q 2541 2772 2181 2772 
Q 1825 2772 1636 2509 
Q 1447 2247 1447 1747 
Q 1447 1247 1636 984 
Q 1825 722 2181 722 
z
" transform="scale(0.015625)"/>
      <path id="DejaVuSans-Bold-29" d="M 513 -844 
Q 913 -100 1113 609 
Q 1313 1319 1313 2009 
Q 1313 2700 1113 3408 
Q 913 4116 513 4856 
L 1441 4856 
Q 1916 4091 2145 3389 
Q 2375 2688 2375 2003 
Q 2375 1319 2147 623 
Q 1919 -72 1441 -844 
L 513 -844 
z
" transform="scale(0.015625)"/>
     </defs>
     <use xlink:href="#DejaVuSans-Bold-28"/>
     <use xlink:href="#DejaVuSans-Bold-53" transform="translate(45.703125 0)"/>
     <use xlink:href="#DejaVuSans-Bold-70" transform="translate(117.724609 0)"/>
     <use xlink:href="#DejaVuSans-Bold-65" transform="translate(189.306641 0)"/>
     <use xlink:href="#DejaVuSans-Bold-65" transform="translate(257.128906 0)"/>
     <use xlink:href="#DejaVuSans-Bold-64" transform="translate(324.951172 0)"/>
     <use xlink:href="#DejaVuSans-Bold-69" transform="translate(396.533203 0)"/>
     <use xlink:href="#DejaVuSans-Bold-6e" transform="translate(430.810547 0)"/>
     <use xlink:href="#DejaVuSans-Bold-67" transform="translate(502.001953 0)"/>
     <use xlink:href="#DejaVuSans-Bold-20" transform="translate(573.583984 0)"/>
     <use xlink:href="#DejaVuSans-Bold-75" transform="translate(608.398438 0)"/>
     <use xlink:href="#DejaVuSans-Bold-70" transform="translate(679.589844 0)"/>
     <use xlink:href="#DejaVuSans-Bold-29" transform="translate(751.171875 0)"/>
    </g>
   </g>
   <g id="text_4">
    <!-- Decelerating -->
    <g style="fill: #ff0000" transform="translate(144.394844 185.962344) scale(0.1 -0.1)">
     <defs>
      <path id="DejaVuSans-Bold-44" d="M 1791 3756 
L 1791 909 
L 2222 909 
Q 2959 909 3348 1275 
Q 3738 1641 3738 2338 
Q 3738 3031 3350 3393 
Q 2963 3756 2222 3756 
L 1791 3756 
z
M 588 4666 
L 1856 4666 
Q 2919 4666 3439 4514 
Q 3959 4363 4331 4000 
Q 4659 3684 4818 3271 
Q 4978 2859 4978 2338 
Q 4978 1809 4818 1395 
Q 4659 981 4331 666 
Q 3956 303 3431 151 
Q 2906 0 1856 0 
L 588 0 
L 588 4666 
z
" transform="scale(0.015625)"/>
     </defs>
     <use xlink:href="#DejaVuSans-Bold-44"/>
     <use xlink:href="#DejaVuSans-Bold-65" transform="translate(83.007812 0)"/>
     <use xlink:href="#DejaVuSans-Bold-63" transform="translate(150.830078 0)"/>
     <use xlink:href="#DejaVuSans-Bold-65" transform="translate(210.107422 0)"/>
     <use xlink:href="#DejaVuSans-Bold-6c" transform="translate(277.929688 0)"/>
     <use xlink:href="#DejaVuSans-Bold-65" transform="translate(312.207031 0)"/>
     <use xlink:href="#DejaVuSans-Bold-72" transform="translate(380.029297 0)"/>
     <use xlink:href="#DejaVuSans-Bold-61" transform="translate(429.345703 0)"/>
     <use xlink:href="#DejaVuSans-Bold-74" transform="translate(496.826172 0)"/>
     <use xlink:href="#DejaVuSans-Bold-69" transform="translate(544.628906 0)"/>
     <use xlink:href="#DejaVuSans-Bold-6e" transform="translate(578.90625 0)"/>
     <use xlink:href="#DejaVuSans-Bold-67" transform="translate(650.097656 0)"/>
    </g>
    <!-- (Slowing down) -->
    <g style="fill: #ff0000" transform="translate(136.754219 197.238281) scale(0.1 -0.1)">
     <defs>
      <path id="DejaVuSans-Bold-77" d="M 225 3500 
L 1313 3500 
L 1900 1088 
L 2491 3500 
L 3425 3500 
L 4013 1113 
L 4603 3500 
L 5691 3500 
L 4769 0 
L 3547 0 
L 2956 2406 
L 2369 0 
L 1147 0 
L 225 3500 
z
" transform="scale(0.015625)"/>
     </defs>
     <use xlink:href="#DejaVuSans-Bold-28"/>
     <use xlink:href="#DejaVuSans-Bold-53" transform="translate(45.703125 0)"/>
     <use xlink:href="#DejaVuSans-Bold-6c" transform="translate(117.724609 0)"/>
     <use xlink:href="#DejaVuSans-Bold-6f" transform="translate(152.001953 0)"/>
     <use xlink:href="#DejaVuSans-Bold-77" transform="translate(220.703125 0)"/>
     <use xlink:href="#DejaVuSans-Bold-69" transform="translate(313.085938 0)"/>
     <use xlink:href="#DejaVuSans-Bold-6e" transform="translate(347.363281 0)"/>
     <use xlink:href="#DejaVuSans-Bold-67" transform="translate(418.554688 0)"/>
     <use xlink:href="#DejaVuSans-Bold-20" transform="translate(490.136719 0)"/>
     <use xlink:href="#DejaVuSans-Bold-64" transform="translate(524.951172 0)"/>
     <use xlink:href="#DejaVuSans-Bold-6f" transform="translate(596.533203 0)"/>
     <use xlink:href="#DejaVuSans-Bold-77" transform="translate(665.234375 0)"/>
     <use xlink:href="#DejaVuSans-Bold-6e" transform="translate(757.617188 0)"/>
     <use xlink:href="#DejaVuSans-Bold-29" transform="translate(828.808594 0)"/>
    </g>
   </g>
   <g id="text_5">
    <!-- Accelerating -->
    <g style="fill: #008000" transform="translate(145.103437 401.002344) scale(0.1 -0.1)">
     <use xlink:href="#DejaVuSans-Bold-41"/>
     <use xlink:href="#DejaVuSans-Bold-63" transform="translate(77.392578 0)"/>
     <use xlink:href="#DejaVuSans-Bold-63" transform="translate(136.669922 0)"/>
     <use xlink:href="#DejaVuSans-Bold-65" transform="translate(195.947266 0)"/>
     <use xlink:href="#DejaVuSans-Bold-6c" transform="translate(263.769531 0)"/>
     <use xlink:href="#DejaVuSans-Bold-65" transform="translate(298.046875 0)"/>
     <use xlink:href="#DejaVuSans-Bold-72" transform="translate(365.869141 0)"/>
     <use xlink:href="#DejaVuSans-Bold-61" transform="translate(415.185547 0)"/>
     <use xlink:href="#DejaVuSans-Bold-74" transform="translate(482.666016 0)"/>
     <use xlink:href="#DejaVuSans-Bold-69" transform="translate(530.46875 0)"/>
     <use xlink:href="#DejaVuSans-Bold-6e" transform="translate(564.746094 0)"/>
     <use xlink:href="#DejaVuSans-Bold-67" transform="translate(635.9375 0)"/>
    </g>
    <!-- (Speeding up) -->
    <g style="fill: #008000" transform="translate(140.637031 412.278281) scale(0.1 -0.1)">
     <use xlink:href="#DejaVuSans-Bold-28"/>
     <use xlink:href="#DejaVuSans-Bold-53" transform="translate(45.703125 0)"/>
     <use xlink:href="#DejaVuSans-Bold-70" transform="translate(117.724609 0)"/>
     <use xlink:href="#DejaVuSans-Bold-65" transform="translate(189.306641 0)"/>
     <use xlink:href="#DejaVuSans-Bold-65" transform="translate(257.128906 0)"/>
     <use xlink:href="#DejaVuSans-Bold-64" transform="translate(324.951172 0)"/>
     <use xlink:href="#DejaVuSans-Bold-69" transform="translate(396.533203 0)"/>
     <use xlink:href="#DejaVuSans-Bold-6e" transform="translate(430.810547 0)"/>
     <use xlink:href="#DejaVuSans-Bold-67" transform="translate(502.001953 0)"/>
     <use xlink:href="#DejaVuSans-Bold-20" transform="translate(573.583984 0)"/>
     <use xlink:href="#DejaVuSans-Bold-75" transform="translate(608.398438 0)"/>
     <use xlink:href="#DejaVuSans-Bold-70" transform="translate(679.589844 0)"/>
     <use xlink:href="#DejaVuSans-Bold-29" transform="translate(751.171875 0)"/>
    </g>
   </g>
   <g id="text_6">
    <!-- Decelerating -->
    <g style="fill: #ff0000" transform="translate(359.434844 401.002344) scale(0.1 -0.1)">
     <use xlink:href="#DejaVuSans-Bold-44"/>
     <use xlink:href="#DejaVuSans-Bold-65" transform="translate(83.007812 0)"/>
     <use xlink:href="#DejaVuSans-Bold-63" transform="translate(150.830078 0)"/>
     <use xlink:href="#DejaVuSans-Bold-65" transform="translate(210.107422 0)"/>
     <use xlink:href="#DejaVuSans-Bold-6c" transform="translate(277.929688 0)"/>
     <use xlink:href="#DejaVuSans-Bold-65" transform="translate(312.207031 0)"/>
     <use xlink:href="#DejaVuSans-Bold-72" transform="translate(380.029297 0)"/>
     <use xlink:href="#DejaVuSans-Bold-61" transform="translate(429.345703 0)"/>
     <use xlink:href="#DejaVuSans-Bold-74" transform="translate(496.826172 0)"/>
     <use xlink:href="#DejaVuSans-Bold-69" transform="translate(544.628906 0)"/>
     <use xlink:href="#DejaVuSans-Bold-6e" transform="translate(578.90625 0)"/>
     <use xlink:href="#DejaVuSans-Bold-67" transform="translate(650.097656 0)"/>
    </g>
    <!-- (Slowing down) -->
    <g style="fill: #ff0000" transform="translate(351.794219 412.278281) scale(0.1 -0.1)">
     <use xlink:href="#DejaVuSans-Bold-28"/>
     <use xlink:href="#DejaVuSans-Bold-53" transform="translate(45.703125 0)"/>
     <use xlink:href="#DejaVuSans-Bold-6c" transform="translate(117.724609 0)"/>
     <use xlink:href="#DejaVuSans-Bold-6f" transform="translate(152.001953 0)"/>
     <use xlink:href="#DejaVuSans-Bold-77" transform="translate(220.703125 0)"/>
     <use xlink:href="#DejaVuSans-Bold-69" transform="translate(313.085938 0)"/>
     <use xlink:href="#DejaVuSans-Bold-6e" transform="translate(347.363281 0)"/>
     <use xlink:href="#DejaVuSans-Bold-67" transform="translate(418.554688 0)"/>
     <use xlink:href="#DejaVuSans-Bold-20" transform="translate(490.136719 0)"/>
     <use xlink:href="#DejaVuSans-Bold-64" transform="translate(524.951172 0)"/>
     <use xlink:href="#DejaVuSans-Bold-6f" transform="translate(596.533203 0)"/>
     <use xlink:href="#DejaVuSans-Bold-77" transform="translate(665.234375 0)"/>
     <use xlink:href="#DejaVuSans-Bold-6e" transform="translate(757.617188 0)"/>
     <use xlink:href="#DejaVuSans-Bold-29" transform="translate(828.808594 0)"/>
    </g>
   </g>
   <g id="text_7">
    <!-- New Moon -->
    <g transform="translate(470.784 293.844422) scale(0.09 -0.09)">
     <defs>
      <path id="DejaVuSans-4e" d="M 628 4666 
L 1478 4666 
L 3547 763 
L 3547 4666 
L 4159 4666 
L 4159 0 
L 3309 0 
L 1241 3903 
L 1241 0 
L 628 0 
L 628 4666 
z
" transform="scale(0.015625)"/>
      <path id="DejaVuSans-65" d="M 3597 1894 
L 3597 1613 
L 953 1613 
Q 991 1019 1311 708 
Q 1631 397 2203 397 
Q 2534 397 2845 478 
Q 3156 559 3463 722 
L 3463 178 
Q 3153 47 2828 -22 
Q 2503 -91 2169 -91 
Q 1331 -91 842 396 
Q 353 884 353 1716 
Q 353 2575 817 3079 
Q 1281 3584 2069 3584 
Q 2775 3584 3186 3129 
Q 3597 2675 3597 1894 
z
M 3022 2063 
Q 3016 2534 2758 2815 
Q 2500 3097 2075 3097 
Q 1594 3097 1305 2825 
Q 1016 2553 972 2059 
L 3022 2063 
z
" transform="scale(0.015625)"/>
      <path id="DejaVuSans-77" d="M 269 3500 
L 844 3500 
L 1563 769 
L 2278 3500 
L 2956 3500 
L 3675 769 
L 4391 3500 
L 4966 3500 
L 4050 0 
L 3372 0 
L 2619 2869 
L 1863 0 
L 1184 0 
L 269 3500 
z
" transform="scale(0.015625)"/>
      <path id="DejaVuSans-20" transform="scale(0.015625)"/>
      <path id="DejaVuSans-4d" d="M 628 4666 
L 1569 4666 
L 2759 1491 
L 3956 4666 
L 4897 4666 
L 4897 0 
L 4281 0 
L 4281 4097 
L 3078 897 
L 2444 897 
L 1241 4097 
L 1241 0 
L 628 0 
L 628 4666 
z
" transform="scale(0.015625)"/>
      <path id="DejaVuSans-6f" d="M 1959 3097 
Q 1497 3097 1228 2736 
Q 959 2375 959 1747 
Q 959 1119 1226 758 
Q 1494 397 1959 397 
Q 2419 397 2687 759 
Q 2956 1122 2956 1747 
Q 2956 2369 2687 2733 
Q 2419 3097 1959 3097 
z
M 1959 3584 
Q 2709 3584 3137 3096 
Q 3566 2609 3566 1747 
Q 3566 888 3137 398 
Q 2709 -91 1959 -91 
Q 1206 -91 779 398 
Q 353 888 353 1747 
Q 353 2609 779 3096 
Q 1206 3584 1959 3584 
z
" transform="scale(0.015625)"/>
      <path id="DejaVuSans-6e" d="M 3513 2113 
L 3513 0 
L 2938 0 
L 2938 2094 
Q 2938 2591 2744 2837 
Q 2550 3084 2163 3084 
Q 1697 3084 1428 2787 
Q 1159 2491 1159 1978 
L 1159 0 
L 581 0 
L 581 3500 
L 1159 3500 
L 1159 2956 
Q 1366 3272 1645 3428 
Q 1925 3584 2291 3584 
Q 2894 3584 3203 3211 
Q 3513 2838 3513 2113 
z
" transform="scale(0.015625)"/>
     </defs>
     <use xlink:href="#DejaVuSans-4e"/>
     <use xlink:href="#DejaVuSans-65" transform="translate(74.804688 0)"/>
     <use xlink:href="#DejaVuSans-77" transform="translate(136.328125 0)"/>
     <use xlink:href="#DejaVuSans-20" transform="translate(218.115234 0)"/>
     <use xlink:href="#DejaVuSans-4d" transform="translate(249.902344 0)"/>
     <use xlink:href="#DejaVuSans-6f" transform="translate(336.181641 0)"/>
     <use xlink:href="#DejaVuSans-6f" transform="translate(397.363281 0)"/>
     <use xlink:href="#DejaVuSans-6e" transform="translate(458.544922 0)"/>
    </g>
    <!-- (Syzygy) -->
    <g transform="translate(470.784 303.922453) scale(0.09 -0.09)">
     <defs>
      <path id="DejaVuSans-28" d="M 1984 4856 
Q 1566 4138 1362 3434 
Q 1159 2731 1159 2009 
Q 1159 1288 1364 580 
Q 1569 -128 1984 -844 
L 1484 -844 
Q 1016 -109 783 600 
Q 550 1309 550 2009 
Q 550 2706 781 3412 
Q 1013 4119 1484 4856 
L 1984 4856 
z
" transform="scale(0.015625)"/>
      <path id="DejaVuSans-53" d="M 3425 4513 
L 3425 3897 
Q 3066 4069 2747 4153 
Q 2428 4238 2131 4238 
Q 1616 4238 1336 4038 
Q 1056 3838 1056 3469 
Q 1056 3159 1242 3001 
Q 1428 2844 1947 2747 
L 2328 2669 
Q 3034 2534 3370 2195 
Q 3706 1856 3706 1288 
Q 3706 609 3251 259 
Q 2797 -91 1919 -91 
Q 1588 -91 1214 -16 
Q 841 59 441 206 
L 441 856 
Q 825 641 1194 531 
Q 1563 422 1919 422 
Q 2459 422 2753 634 
Q 3047 847 3047 1241 
Q 3047 1584 2836 1778 
Q 2625 1972 2144 2069 
L 1759 2144 
Q 1053 2284 737 2584 
Q 422 2884 422 3419 
Q 422 4038 858 4394 
Q 1294 4750 2059 4750 
Q 2388 4750 2728 4690 
Q 3069 4631 3425 4513 
z
" transform="scale(0.015625)"/>
      <path id="DejaVuSans-79" d="M 2059 -325 
Q 1816 -950 1584 -1140 
Q 1353 -1331 966 -1331 
L 506 -1331 
L 506 -850 
L 844 -850 
Q 1081 -850 1212 -737 
Q 1344 -625 1503 -206 
L 1606 56 
L 191 3500 
L 800 3500 
L 1894 763 
L 2988 3500 
L 3597 3500 
L 2059 -325 
z
" transform="scale(0.015625)"/>
      <path id="DejaVuSans-7a" d="M 353 3500 
L 3084 3500 
L 3084 2975 
L 922 459 
L 3084 459 
L 3084 0 
L 275 0 
L 275 525 
L 2438 3041 
L 353 3041 
L 353 3500 
z
" transform="scale(0.015625)"/>
      <path id="DejaVuSans-67" d="M 2906 1791 
Q 2906 2416 2648 2759 
Q 2391 3103 1925 3103 
Q 1463 3103 1205 2759 
Q 947 2416 947 1791 
Q 947 1169 1205 825 
Q 1463 481 1925 481 
Q 2391 481 2648 825 
Q 2906 1169 2906 1791 
z
M 3481 434 
Q 3481 -459 3084 -895 
Q 2688 -1331 1869 -1331 
Q 1566 -1331 1297 -1286 
Q 1028 -1241 775 -1147 
L 775 -588 
Q 1028 -725 1275 -790 
Q 1522 -856 1778 -856 
Q 2344 -856 2625 -561 
Q 2906 -266 2906 331 
L 2906 616 
Q 2728 306 2450 153 
Q 2172 0 1784 0 
Q 1141 0 747 490 
Q 353 981 353 1791 
Q 353 2603 747 3093 
Q 1141 3584 1784 3584 
Q 2172 3584 2450 3431 
Q 2728 3278 2906 2969 
L 2906 3500 
L 3481 3500 
L 3481 434 
z
" transform="scale(0.015625)"/>
      <path id="DejaVuSans-29" d="M 513 4856 
L 1013 4856 
Q 1481 4119 1714 3412 
Q 1947 2706 1947 2009 
Q 1947 1309 1714 600 
Q 1481 -109 1013 -844 
L 513 -844 
Q 928 -128 1133 580 
Q 1338 1288 1338 2009 
Q 1338 2731 1133 3434 
Q 928 4138 513 4856 
z
" transform="scale(0.015625)"/>
     </defs>
     <use xlink:href="#DejaVuSans-28"/>
     <use xlink:href="#DejaVuSans-53" transform="translate(39.013672 0)"/>
     <use xlink:href="#DejaVuSans-79" transform="translate(102.490234 0)"/>
     <use xlink:href="#DejaVuSans-7a" transform="translate(161.669922 0)"/>
     <use xlink:href="#DejaVuSans-79" transform="translate(214.160156 0)"/>
     <use xlink:href="#DejaVuSans-67" transform="translate(273.339844 0)"/>
     <use xlink:href="#DejaVuSans-79" transform="translate(336.816406 0)"/>
     <use xlink:href="#DejaVuSans-29" transform="translate(395.996094 0)"/>
    </g>
   </g>
   <g id="text_8">
    <!-- Full Moon -->
    <g transform="translate(62.487094 293.844422) scale(0.09 -0.09)">
     <defs>
      <path id="DejaVuSans-46" d="M 628 4666 
L 3309 4666 
L 3309 4134 
L 1259 4134 
L 1259 2759 
L 3109 2759 
L 3109 2228 
L 1259 2228 
L 1259 0 
L 628 0 
L 628 4666 
z
" transform="scale(0.015625)"/>
      <path id="DejaVuSans-75" d="M 544 1381 
L 544 3500 
L 1119 3500 
L 1119 1403 
Q 1119 906 1312 657 
Q 1506 409 1894 409 
Q 2359 409 2629 706 
Q 2900 1003 2900 1516 
L 2900 3500 
L 3475 3500 
L 3475 0 
L 2900 0 
L 2900 538 
Q 2691 219 2414 64 
Q 2138 -91 1772 -91 
Q 1169 -91 856 284 
Q 544 659 544 1381 
z
M 1991 3584 
L 1991 3584 
z
" transform="scale(0.015625)"/>
      <path id="DejaVuSans-6c" d="M 603 4863 
L 1178 4863 
L 1178 0 
L 603 0 
L 603 4863 
z
" transform="scale(0.015625)"/>
     </defs>
     <use xlink:href="#DejaVuSans-46"/>
     <use xlink:href="#DejaVuSans-75" transform="translate(52.019531 0)"/>
     <use xlink:href="#DejaVuSans-6c" transform="translate(115.398438 0)"/>
     <use xlink:href="#DejaVuSans-6c" transform="translate(143.181641 0)"/>
     <use xlink:href="#DejaVuSans-20" transform="translate(170.964844 0)"/>
     <use xlink:href="#DejaVuSans-4d" transform="translate(202.751953 0)"/>
     <use xlink:href="#DejaVuSans-6f" transform="translate(289.03125 0)"/>
     <use xlink:href="#DejaVuSans-6f" transform="translate(350.212891 0)"/>
     <use xlink:href="#DejaVuSans-6e" transform="translate(411.394531 0)"/>
    </g>
    <!-- (Syzygy) -->
    <g transform="translate(66.061781 303.922453) scale(0.09 -0.09)">
     <use xlink:href="#DejaVuSans-28"/>
     <use xlink:href="#DejaVuSans-53" transform="translate(39.013672 0)"/>
     <use xlink:href="#DejaVuSans-79" transform="translate(102.490234 0)"/>
     <use xlink:href="#DejaVuSans-7a" transform="translate(161.669922 0)"/>
     <use xlink:href="#DejaVuSans-79" transform="translate(214.160156 0)"/>
     <use xlink:href="#DejaVuSans-67" transform="translate(273.339844 0)"/>
     <use xlink:href="#DejaVuSans-79" transform="translate(336.816406 0)"/>
     <use xlink:href="#DejaVuSans-29" transform="translate(395.996094 0)"/>
    </g>
   </g>
   <g id="text_9">
    <!-- First Quarter -->
    <g transform="translate(259.714688 101.66625) scale(0.09 -0.09)">
     <defs>
      <path id="DejaVuSans-69" d="M 603 3500 
L 1178 3500 
L 1178 0 
L 603 0 
L 603 3500 
z
M 603 4863 
L 1178 4863 
L 1178 4134 
L 603 4134 
L 603 4863 
z
" transform="scale(0.015625)"/>
      <path id="DejaVuSans-72" d="M 2631 2963 
Q 2534 3019 2420 3045 
Q 2306 3072 2169 3072 
Q 1681 3072 1420 2755 
Q 1159 2438 1159 1844 
L 1159 0 
L 581 0 
L 581 3500 
L 1159 3500 
L 1159 2956 
Q 1341 3275 1631 3429 
Q 1922 3584 2338 3584 
Q 2397 3584 2469 3576 
Q 2541 3569 2628 3553 
L 2631 2963 
z
" transform="scale(0.015625)"/>
      <path id="DejaVuSans-73" d="M 2834 3397 
L 2834 2853 
Q 2591 2978 2328 3040 
Q 2066 3103 1784 3103 
Q 1356 3103 1142 2972 
Q 928 2841 928 2578 
Q 928 2378 1081 2264 
Q 1234 2150 1697 2047 
L 1894 2003 
Q 2506 1872 2764 1633 
Q 3022 1394 3022 966 
Q 3022 478 2636 193 
Q 2250 -91 1575 -91 
Q 1294 -91 989 -36 
Q 684 19 347 128 
L 347 722 
Q 666 556 975 473 
Q 1284 391 1588 391 
Q 1994 391 2212 530 
Q 2431 669 2431 922 
Q 2431 1156 2273 1281 
Q 2116 1406 1581 1522 
L 1381 1569 
Q 847 1681 609 1914 
Q 372 2147 372 2553 
Q 372 3047 722 3315 
Q 1072 3584 1716 3584 
Q 2034 3584 2315 3537 
Q 2597 3491 2834 3397 
z
" transform="scale(0.015625)"/>
      <path id="DejaVuSans-74" d="M 1172 4494 
L 1172 3500 
L 2356 3500 
L 2356 3053 
L 1172 3053 
L 1172 1153 
Q 1172 725 1289 603 
Q 1406 481 1766 481 
L 2356 481 
L 2356 0 
L 1766 0 
Q 1100 0 847 248 
Q 594 497 594 1153 
L 594 3053 
L 172 3053 
L 172 3500 
L 594 3500 
L 594 4494 
L 1172 4494 
z
" transform="scale(0.015625)"/>
      <path id="DejaVuSans-51" d="M 2522 4238 
Q 1834 4238 1429 3725 
Q 1025 3213 1025 2328 
Q 1025 1447 1429 934 
Q 1834 422 2522 422 
Q 3209 422 3611 934 
Q 4013 1447 4013 2328 
Q 4013 3213 3611 3725 
Q 3209 4238 2522 4238 
z
M 3406 84 
L 4238 -825 
L 3475 -825 
L 2784 -78 
Q 2681 -84 2626 -87 
Q 2572 -91 2522 -91 
Q 1538 -91 948 567 
Q 359 1225 359 2328 
Q 359 3434 948 4092 
Q 1538 4750 2522 4750 
Q 3503 4750 4090 4092 
Q 4678 3434 4678 2328 
Q 4678 1516 4351 937 
Q 4025 359 3406 84 
z
" transform="scale(0.015625)"/>
      <path id="DejaVuSans-61" d="M 2194 1759 
Q 1497 1759 1228 1600 
Q 959 1441 959 1056 
Q 959 750 1161 570 
Q 1363 391 1709 391 
Q 2188 391 2477 730 
Q 2766 1069 2766 1631 
L 2766 1759 
L 2194 1759 
z
M 3341 1997 
L 3341 0 
L 2766 0 
L 2766 531 
Q 2569 213 2275 61 
Q 1981 -91 1556 -91 
Q 1019 -91 701 211 
Q 384 513 384 1019 
Q 384 1609 779 1909 
Q 1175 2209 1959 2209 
L 2766 2209 
L 2766 2266 
Q 2766 2663 2505 2880 
Q 2244 3097 1772 3097 
Q 1472 3097 1187 3025 
Q 903 2953 641 2809 
L 641 3341 
Q 956 3463 1253 3523 
Q 1550 3584 1831 3584 
Q 2591 3584 2966 3190 
Q 3341 2797 3341 1997 
z
" transform="scale(0.015625)"/>
     </defs>
     <use xlink:href="#DejaVuSans-46"/>
     <use xlink:href="#DejaVuSans-69" transform="translate(50.269531 0)"/>
     <use xlink:href="#DejaVuSans-72" transform="translate(78.052734 0)"/>
     <use xlink:href="#DejaVuSans-73" transform="translate(119.166016 0)"/>
     <use xlink:href="#DejaVuSans-74" transform="translate(171.265625 0)"/>
     <use xlink:href="#DejaVuSans-20" transform="translate(210.474609 0)"/>
     <use xlink:href="#DejaVuSans-51" transform="translate(242.261719 0)"/>
     <use xlink:href="#DejaVuSans-75" transform="translate(320.972656 0)"/>
     <use xlink:href="#DejaVuSans-61" transform="translate(384.351562 0)"/>
     <use xlink:href="#DejaVuSans-72" transform="translate(445.630859 0)"/>
     <use xlink:href="#DejaVuSans-74" transform="translate(486.744141 0)"/>
     <use xlink:href="#DejaVuSans-65" transform="translate(525.953125 0)"/>
     <use xlink:href="#DejaVuSans-72" transform="translate(587.476562 0)"/>
    </g>
    <!-- (Quadrature) -->
    <g transform="translate(258.73875 111.744281) scale(0.09 -0.09)">
     <defs>
      <path id="DejaVuSans-64" d="M 2906 2969 
L 2906 4863 
L 3481 4863 
L 3481 0 
L 2906 0 
L 2906 525 
Q 2725 213 2448 61 
Q 2172 -91 1784 -91 
Q 1150 -91 751 415 
Q 353 922 353 1747 
Q 353 2572 751 3078 
Q 1150 3584 1784 3584 
Q 2172 3584 2448 3432 
Q 2725 3281 2906 2969 
z
M 947 1747 
Q 947 1113 1208 752 
Q 1469 391 1925 391 
Q 2381 391 2643 752 
Q 2906 1113 2906 1747 
Q 2906 2381 2643 2742 
Q 2381 3103 1925 3103 
Q 1469 3103 1208 2742 
Q 947 2381 947 1747 
z
" transform="scale(0.015625)"/>
     </defs>
     <use xlink:href="#DejaVuSans-28"/>
     <use xlink:href="#DejaVuSans-51" transform="translate(39.013672 0)"/>
     <use xlink:href="#DejaVuSans-75" transform="translate(117.724609 0)"/>
     <use xlink:href="#DejaVuSans-61" transform="translate(181.103516 0)"/>
     <use xlink:href="#DejaVuSans-64" transform="translate(242.382812 0)"/>
     <use xlink:href="#DejaVuSans-72" transform="translate(305.859375 0)"/>
     <use xlink:href="#DejaVuSans-61" transform="translate(346.972656 0)"/>
     <use xlink:href="#DejaVuSans-74" transform="translate(408.251953 0)"/>
     <use xlink:href="#DejaVuSans-75" transform="translate(447.460938 0)"/>
     <use xlink:href="#DejaVuSans-72" transform="translate(510.839844 0)"/>
     <use xlink:href="#DejaVuSans-65" transform="translate(549.703125 0)"/>
     <use xlink:href="#DejaVuSans-29" transform="translate(611.226562 0)"/>
    </g>
   </g>
   <g id="text_10">
    <!-- Last Quarter -->
    <g transform="translate(259.811719 486.022594) scale(0.09 -0.09)">
     <defs>
      <path id="DejaVuSans-4c" d="M 628 4666 
L 1259 4666 
L 1259 531 
L 3531 531 
L 3531 0 
L 628 0 
L 628 4666 
z
" transform="scale(0.015625)"/>
     </defs>
     <use xlink:href="#DejaVuSans-4c"/>
     <use xlink:href="#DejaVuSans-61" transform="translate(55.712891 0)"/>
     <use xlink:href="#DejaVuSans-73" transform="translate(116.992188 0)"/>
     <use xlink:href="#DejaVuSans-74" transform="translate(169.091797 0)"/>
     <use xlink:href="#DejaVuSans-20" transform="translate(208.300781 0)"/>
     <use xlink:href="#DejaVuSans-51" transform="translate(240.087891 0)"/>
     <use xlink:href="#DejaVuSans-75" transform="translate(318.798828 0)"/>
     <use xlink:href="#DejaVuSans-61" transform="translate(382.177734 0)"/>
     <use xlink:href="#DejaVuSans-72" transform="translate(443.457031 0)"/>
     <use xlink:href="#DejaVuSans-74" transform="translate(484.570312 0)"/>
     <use xlink:href="#DejaVuSans-65" transform="translate(523.779297 0)"/>
     <use xlink:href="#DejaVuSans-72" transform="translate(585.302734 0)"/>
    </g>
    <!-- (Quadrature) -->
    <g transform="translate(258.73875 496.100625) scale(0.09 -0.09)">
     <use xlink:href="#DejaVuSans-28"/>
     <use xlink:href="#DejaVuSans-51" transform="translate(39.013672 0)"/>
     <use xlink:href="#DejaVuSans-75" transform="translate(117.724609 0)"/>
     <use xlink:href="#DejaVuSans-61" transform="translate(181.103516 0)"/>
     <use xlink:href="#DejaVuSans-64" transform="translate(242.382812 0)"/>
     <use xlink:href="#DejaVuSans-72" transform="translate(305.859375 0)"/>
     <use xlink:href="#DejaVuSans-61" transform="translate(346.972656 0)"/>
     <use xlink:href="#DejaVuSans-74" transform="translate(408.251953 0)"/>
     <use xlink:href="#DejaVuSans-75" transform="translate(447.460938 0)"/>
     <use xlink:href="#DejaVuSans-72" transform="translate(510.839844 0)"/>
     <use xlink:href="#DejaVuSans-65" transform="translate(549.703125 0)"/>
     <use xlink:href="#DejaVuSans-29" transform="translate(611.226562 0)"/>
    </g>
   </g>
   <g id="text_11">
    <!-- Variation: Tangential Perturbing Forces -->
    <g transform="translate(132.487344 21.6) scale(0.14 -0.14)">
     <defs>
      <path id="DejaVuSans-Bold-56" d="M 31 4666 
L 1241 4666 
L 2478 1222 
L 3713 4666 
L 4922 4666 
L 3194 0 
L 1759 0 
L 31 4666 
z
" transform="scale(0.015625)"/>
      <path id="DejaVuSans-Bold-3a" d="M 716 3500 
L 1844 3500 
L 1844 2291 
L 716 2291 
L 716 3500 
z
M 716 1209 
L 1844 1209 
L 1844 0 
L 716 0 
L 716 1209 
z
" transform="scale(0.015625)"/>
      <path id="DejaVuSans-Bold-50" d="M 588 4666 
L 2584 4666 
Q 3475 4666 3951 4270 
Q 4428 3875 4428 3144 
Q 4428 2409 3951 2014 
Q 3475 1619 2584 1619 
L 1791 1619 
L 1791 0 
L 588 0 
L 588 4666 
z
M 1791 3794 
L 1791 2491 
L 2456 2491 
Q 2806 2491 2997 2661 
Q 3188 2831 3188 3144 
Q 3188 3456 2997 3625 
Q 2806 3794 2456 3794 
L 1791 3794 
z
" transform="scale(0.015625)"/>
      <path id="DejaVuSans-Bold-62" d="M 2400 722 
Q 2759 722 2948 984 
Q 3138 1247 3138 1747 
Q 3138 2247 2948 2509 
Q 2759 2772 2400 2772 
Q 2041 2772 1848 2508 
Q 1656 2244 1656 1747 
Q 1656 1250 1848 986 
Q 2041 722 2400 722 
z
M 1656 2988 
Q 1888 3294 2169 3439 
Q 2450 3584 2816 3584 
Q 3463 3584 3878 3070 
Q 4294 2556 4294 1747 
Q 4294 938 3878 423 
Q 3463 -91 2816 -91 
Q 2450 -91 2169 54 
Q 1888 200 1656 506 
L 1656 0 
L 538 0 
L 538 4863 
L 1656 4863 
L 1656 2988 
z
" transform="scale(0.015625)"/>
      <path id="DejaVuSans-Bold-46" d="M 588 4666 
L 3834 4666 
L 3834 3756 
L 1791 3756 
L 1791 2888 
L 3713 2888 
L 3713 1978 
L 1791 1978 
L 1791 0 
L 588 0 
L 588 4666 
z
" transform="scale(0.015625)"/>
      <path id="DejaVuSans-Bold-73" d="M 3272 3391 
L 3272 2541 
Q 2913 2691 2578 2766 
Q 2244 2841 1947 2841 
Q 1628 2841 1473 2761 
Q 1319 2681 1319 2516 
Q 1319 2381 1436 2309 
Q 1553 2238 1856 2203 
L 2053 2175 
Q 2913 2066 3209 1816 
Q 3506 1566 3506 1031 
Q 3506 472 3093 190 
Q 2681 -91 1863 -91 
Q 1516 -91 1145 -36 
Q 775 19 384 128 
L 384 978 
Q 719 816 1070 734 
Q 1422 653 1784 653 
Q 2113 653 2278 743 
Q 2444 834 2444 1013 
Q 2444 1163 2330 1236 
Q 2216 1309 1875 1350 
L 1678 1375 
Q 931 1469 631 1722 
Q 331 1975 331 2491 
Q 331 3047 712 3315 
Q 1094 3584 1881 3584 
Q 2191 3584 2531 3537 
Q 2872 3491 3272 3391 
z
" transform="scale(0.015625)"/>
     </defs>
     <use xlink:href="#DejaVuSans-Bold-56"/>
     <use xlink:href="#DejaVuSans-Bold-61" transform="translate(71.892578 0)"/>
     <use xlink:href="#DejaVuSans-Bold-72" transform="translate(139.373047 0)"/>
     <use xlink:href="#DejaVuSans-Bold-69" transform="translate(188.689453 0)"/>
     <use xlink:href="#DejaVuSans-Bold-61" transform="translate(222.966797 0)"/>
     <use xlink:href="#DejaVuSans-Bold-74" transform="translate(290.447266 0)"/>
     <use xlink:href="#DejaVuSans-Bold-69" transform="translate(338.25 0)"/>
     <use xlink:href="#DejaVuSans-Bold-6f" transform="translate(372.527344 0)"/>
     <use xlink:href="#DejaVuSans-Bold-6e" transform="translate(441.228516 0)"/>
     <use xlink:href="#DejaVuSans-Bold-3a" transform="translate(512.419922 0)"/>
     <use xlink:href="#DejaVuSans-Bold-20" transform="translate(552.410156 0)"/>
     <use xlink:href="#DejaVuSans-Bold-54" transform="translate(587.224609 0)"/>
     <use xlink:href="#DejaVuSans-Bold-61" transform="translate(642.5625 0)"/>
     <use xlink:href="#DejaVuSans-Bold-6e" transform="translate(710.042969 0)"/>
     <use xlink:href="#DejaVuSans-Bold-67" transform="translate(781.234375 0)"/>
     <use xlink:href="#DejaVuSans-Bold-65" transform="translate(852.816406 0)"/>
     <use xlink:href="#DejaVuSans-Bold-6e" transform="translate(920.638672 0)"/>
     <use xlink:href="#DejaVuSans-Bold-74" transform="translate(991.830078 0)"/>
     <use xlink:href="#DejaVuSans-Bold-69" transform="translate(1039.632812 0)"/>
     <use xlink:href="#DejaVuSans-Bold-61" transform="translate(1073.910156 0)"/>
     <use xlink:href="#DejaVuSans-Bold-6c" transform="translate(1141.390625 0)"/>
     <use xlink:href="#DejaVuSans-Bold-20" transform="translate(1175.667969 0)"/>
     <use xlink:href="#DejaVuSans-Bold-50" transform="translate(1210.482422 0)"/>
     <use xlink:href="#DejaVuSans-Bold-65" transform="translate(1283.773438 0)"/>
     <use xlink:href="#DejaVuSans-Bold-72" transform="translate(1351.595703 0)"/>
     <use xlink:href="#DejaVuSans-Bold-74" transform="translate(1400.912109 0)"/>
     <use xlink:href="#DejaVuSans-Bold-75" transform="translate(1448.714844 0)"/>
     <use xlink:href="#DejaVuSans-Bold-72" transform="translate(1519.90625 0)"/>
     <use xlink:href="#DejaVuSans-Bold-62" transform="translate(1569.222656 0)"/>
     <use xlink:href="#DejaVuSans-Bold-69" transform="translate(1640.804688 0)"/>
     <use xlink:href="#DejaVuSans-Bold-6e" transform="translate(1675.082031 0)"/>
     <use xlink:href="#DejaVuSans-Bold-67" transform="translate(1746.273438 0)"/>
     <use xlink:href="#DejaVuSans-Bold-20" transform="translate(1817.855469 0)"/>
     <use xlink:href="#DejaVuSans-Bold-46" transform="translate(1852.669922 0)"/>
     <use xlink:href="#DejaVuSans-Bold-6f" transform="translate(1916.980469 0)"/>
     <use xlink:href="#DejaVuSans-Bold-72" transform="translate(1985.681641 0)"/>
     <use xlink:href="#DejaVuSans-Bold-63" transform="translate(2034.998047 0)"/>
     <use xlink:href="#DejaVuSans-Bold-65" transform="translate(2094.275391 0)"/>
     <use xlink:href="#DejaVuSans-Bold-73" transform="translate(2162.097656 0)"/>
    </g>
   </g>
   <g id="patch_4">
    <path d="M 449.28 307.152 
C 452.131464 307.152 454.866523 306.019101 456.882812 304.002812 
C 458.899101 301.986523 460.032 299.251464 460.032 296.4 
C 460.032 293.548536 458.899101 290.813477 456.882812 288.797188 
C 454.866523 286.780899 452.131464 285.648 449.28 285.648 
C 446.428536 285.648 443.693477 286.780899 441.677188 288.797188 
C 439.660899 290.813477 438.528 293.548536 438.528 296.4 
C 438.528 299.251464 439.660899 301.986523 441.677188 304.002812 
C 443.693477 306.019101 446.428536 307.152 449.28 307.152 
z
" clip-path="url(#p6a5651fb7e)" style="fill: #808080; stroke: #000000; stroke-linejoin: miter"/>
   </g>
   <g id="patch_5">
    <path d="M 402.042182 193.109818 
C 404.893645 193.109818 407.628704 191.97692 409.644994 189.96063 
C 411.661283 187.944341 412.794182 185.209282 412.794182 182.357818 
C 412.794182 179.506355 411.661283 176.771296 409.644994 174.755006 
C 407.628704 172.738717 404.893645 171.605818 402.042182 171.605818 
C 399.190718 171.605818 396.455659 172.738717 394.43937 174.755006 
C 392.42308 176.771296 391.290182 179.506355 391.290182 182.357818 
C 391.290182 185.209282 392.42308 187.944341 394.43937 189.96063 
C 396.455659 191.97692 399.190718 193.109818 402.042182 193.109818 
z
" clip-path="url(#p6a5651fb7e)" style="fill: #808080; stroke: #000000; stroke-linejoin: miter"/>
   </g>
   <g id="patch_6">
    <path d="M 288 145.872 
C 290.851464 145.872 293.586523 144.739101 295.602812 142.722812 
C 297.619101 140.706523 298.752 137.971464 298.752 135.12 
C 298.752 132.268536 297.619101 129.533477 295.602812 127.517188 
C 293.586523 125.500899 290.851464 124.368 288 124.368 
C 285.148536 124.368 282.413477 125.500899 280.397188 127.517188 
C 278.380899 129.533477 277.248 132.268536 277.248 135.12 
C 277.248 137.971464 278.380899 140.706523 280.397188 142.722812 
C 282.413477 144.739101 285.148536 145.872 288 145.872 
z
" clip-path="url(#p6a5651fb7e)" style="fill: #808080; stroke: #000000; stroke-linejoin: miter"/>
   </g>
   <g id="patch_7">
    <path d="M 173.957818 193.109818 
C 176.809282 193.109818 179.544341 191.97692 181.56063 189.96063 
C 183.57692 187.944341 184.709818 185.209282 184.709818 182.357818 
C 184.709818 179.506355 183.57692 176.771296 181.56063 174.755006 
C 179.544341 172.738717 176.809282 171.605818 173.957818 171.605818 
C 171.106355 171.605818 168.371296 172.738717 166.355006 174.755006 
C 164.338717 176.771296 163.205818 179.506355 163.205818 182.357818 
C 163.205818 185.209282 164.338717 187.944341 166.355006 189.96063 
C 168.371296 191.97692 171.106355 193.109818 173.957818 193.109818 
z
" clip-path="url(#p6a5651fb7e)" style="fill: #808080; stroke: #000000; stroke-linejoin: miter"/>
   </g>
   <g id="patch_8">
    <path d="M 126.72 307.152 
C 129.571464 307.152 132.306523 306.019101 134.322812 304.002812 
C 136.339101 301.986523 137.472 299.251464 137.472 296.4 
C 137.472 293.548536 136.339101 290.813477 134.322812 288.797188 
C 132.306523 286.780899 129.571464 285.648 126.72 285.648 
C 123.868536 285.648 121.133477 286.780899 119.117188 288.797188 
C 117.100899 290.813477 115.968 293.548536 115.968 296.4 
C 115.968 299.251464 117.100899 301.986523 119.117188 304.002812 
C 121.133477 306.019101 123.868536 307.152 126.72 307.152 
z
" clip-path="url(#p6a5651fb7e)" style="fill: #808080; stroke: #000000; stroke-linejoin: miter"/>
   </g>
   <g id="patch_9">
    <path d="M 173.957818 421.194182 
C 176.809282 421.194182 179.544341 420.061283 181.56063 418.044994 
C 183.57692 416.028704 184.709818 413.293645 184.709818 410.442182 
C 184.709818 407.590718 183.57692 404.855659 181.56063 402.83937 
C 179.544341 400.82308 176.809282 399.690182 173.957818 399.690182 
C 171.106355 399.690182 168.371296 400.82308 166.355006 402.83937 
C 164.338717 404.855659 163.205818 407.590718 163.205818 410.442182 
C 163.205818 413.293645 164.338717 416.028704 166.355006 418.044994 
C 168.371296 420.061283 171.106355 421.194182 173.957818 421.194182 
z
" clip-path="url(#p6a5651fb7e)" style="fill: #808080; stroke: #000000; stroke-linejoin: miter"/>
   </g>
   <g id="patch_10">
    <path d="M 288 468.432 
C 290.851464 468.432 293.586523 467.299101 295.602812 465.282812 
C 297.619101 463.266523 298.752 460.531464 298.752 457.68 
C 298.752 454.828536 297.619101 452.093477 295.602812 450.077188 
C 293.586523 448.060899 290.851464 446.928 288 446.928 
C 285.148536 446.928 282.413477 448.060899 280.397188 450.077188 
C 278.380899 452.093477 277.248 454.828536 277.248 457.68 
C 277.248 460.531464 278.380899 463.266523 280.397188 465.282812 
C 282.413477 467.299101 285.148536 468.432 288 468.432 
z
" clip-path="url(#p6a5651fb7e)" style="fill: #808080; stroke: #000000; stroke-linejoin: miter"/>
   </g>
   <g id="patch_11">
    <path d="M 402.042182 421.194182 
C 404.893645 421.194182 407.628704 420.061283 409.644994 418.044994 
C 411.661283 416.028704 412.794182 413.293645 412.794182 410.442182 
C 412.794182 407.590718 411.661283 404.855659 409.644994 402.83937 
C 407.628704 400.82308 404.893645 399.690182 402.042182 399.690182 
C 399.190718 399.690182 396.455659 400.82308 394.43937 402.83937 
C 392.42308 404.855659 391.290182 407.590718 391.290182 410.442182 
C 391.290182 413.293645 392.42308 416.028704 394.43937 418.044994 
C 396.455659 420.061283 399.190718 421.194182 402.042182 421.194182 
z
" clip-path="url(#p6a5651fb7e)" style="fill: #808080; stroke: #000000; stroke-linejoin: miter"/>
   </g>
   <g id="patch_12">
    <path d="M 364.028121 144.343758 
L 374.672058 148.905445 
L 372.391214 151.186289 
L 402.802463 181.597537 
L 401.2819 183.1181 
L 370.870652 152.706851 
L 368.589808 154.987695 
z
" clip-path="url(#p6a5651fb7e)" style="fill: #008000; stroke: #008000; stroke-linejoin: miter"/>
   </g>
   <g id="patch_13">
    <path d="M 211.971879 144.343758 
L 207.410192 154.987695 
L 205.129348 152.706851 
L 174.7181 183.1181 
L 173.197537 181.597537 
L 203.608786 151.186289 
L 201.327942 148.905445 
z
" clip-path="url(#p6a5651fb7e)" style="fill: #ff0000; stroke: #ff0000; stroke-linejoin: miter"/>
   </g>
   <g id="patch_14">
    <path d="M 211.971879 448.456242 
L 201.327942 443.894555 
L 203.608786 441.613711 
L 173.197537 411.202463 
L 174.7181 409.6819 
L 205.129348 440.093149 
L 207.410192 437.812305 
z
" clip-path="url(#p6a5651fb7e)" style="fill: #008000; stroke: #008000; stroke-linejoin: miter"/>
   </g>
   <g id="patch_15">
    <path d="M 364.028121 448.456242 
L 368.589808 437.812305 
L 370.870652 440.093149 
L 401.2819 409.6819 
L 402.802463 411.202463 
L 372.391214 441.613711 
L 374.672058 443.894555 
z
" clip-path="url(#p6a5651fb7e)" style="fill: #ff0000; stroke: #ff0000; stroke-linejoin: miter"/>
   </g>
   <g id="patch_16">
    <path d="M 288 328.656 
C 296.554391 328.656 304.759568 325.257304 310.808436 319.208436 
C 316.857304 313.159568 320.256 304.954391 320.256 296.4 
C 320.256 287.845609 316.857304 279.640432 310.808436 273.591564 
C 304.759568 267.542696 296.554391 264.144 288 264.144 
C 279.445609 264.144 271.240432 267.542696 265.191564 273.591564 
C 259.142696 279.640432 255.744 287.845609 255.744 296.4 
C 255.744 304.954391 259.142696 313.159568 265.191564 319.208436 
C 271.240432 325.257304 279.445609 328.656 288 328.656 
z
" clip-path="url(#p6a5651fb7e)" style="fill: #e6f3ff; stroke: #0066cc; stroke-linejoin: miter"/>
   </g>
  </g>
 </g>
 <defs>
  <clipPath id="p6a5651fb7e">
   <rect x="19.2" y="27.6" width="537.6" height="537.6"/>
  </clipPath>
 </defs>
</svg>
