<?xml version="1.0" encoding="utf-8" standalone="no"?>
<!DOCTYPE svg PUBLIC "-//W3C//DTD SVG 1.1//EN"
  "http://www.w3.org/Graphics/SVG/1.1/DTD/svg11.dtd">
<svg xmlns:xlink="http://www.w3.org/1999/xlink" width="864pt" height="504pt" viewBox="0 0 864 504" xmlns="http://www.w3.org/2000/svg" version="1.1">
 <metadata>
  <rdf:RDF xmlns:dc="http://purl.org/dc/elements/1.1/" xmlns:cc="http://creativecommons.org/ns#" xmlns:rdf="http://www.w3.org/1999/02/22-rdf-syntax-ns#">
   <cc:Work>
    <dc:type rdf:resource="http://purl.org/dc/dcmitype/StillImage"/>
    <dc:date>2025-11-25T21:53:09.518774</dc:date>
    <dc:format>image/svg+xml</dc:format>
    <dc:creator>
     <cc:Agent>
      <dc:title>Matplotlib v3.10.8, https://matplotlib.org/</dc:title>
     </cc:Agent>
    </dc:creator>
   </cc:Work>
  </rdf:RDF>
 </metadata>
 <defs>
  <style type="text/css">*{stroke-linejoin: round; stroke-linecap: butt}</style>
 </defs>
 <g id="figure_1">
  <g id="patch_1">
   <path d="M 0 504 
L 864 504 
L 864 0 
L 0 0 
z
" style="fill: #ffffff"/>
  </g>
  <g id="axes_1">
   <g id="line2d_1">
    <path d="M 64.653268 252 
L 291.181443 252 
" clip-path="url(#p9414501289)" style="fill: none; stroke-dasharray: 3.7,1.6; stroke-dashoffset: 0; stroke: #000000; stroke-opacity: 0.3"/>
   </g>
   <g id="patch_2">
    <path d="M 423.322878 252 
L 411.996469 257.663204 
L 411.996469 253.887735 
L 374.241773 253.887735 
L 374.241773 250.112265 
L 411.996469 250.112265 
L 411.996469 246.336796 
z
" clip-path="url(#p9414501289)" style="fill: #ffa500; stroke: #ffa500; stroke-linejoin: miter"/>
   </g>
   <g id="patch_3">
    <path d="M 177.917355 342.61127 
C 207.955342 342.61127 236.767095 333.063895 258.007159 316.071843 
C 279.247224 299.079792 291.181443 276.03039 291.181443 252 
C 291.181443 227.96961 279.247224 204.920208 258.007159 187.928157 
C 236.767095 170.936105 207.955342 161.38873 177.917355 161.38873 
C 147.879368 161.38873 119.067616 170.936105 97.827551 187.928157 
C 76.587487 204.920208 64.653268 227.96961 64.653268 252 
C 64.653268 276.03039 76.587487 299.079792 97.827551 316.071843 
C 119.067616 333.063895 147.879368 342.61127 177.917355 342.61127 
L 177.917355 342.61127 
z
" clip-path="url(#p9414501289)" style="fill: none; stroke: #ff0000; stroke-width: 2; stroke-linejoin: miter"/>
   </g>
   <g id="line2d_2">
    <defs>
     <path id="mec1ace108a" d="M 0 2 
C 0.530406 2 1.03916 1.789267 1.414214 1.414214 
C 1.789267 1.03916 2 0.530406 2 0 
C 2 -0.530406 1.789267 -1.03916 1.414214 -1.414214 
C 1.03916 -1.789267 0.530406 -2 0 -2 
C -0.530406 -2 -1.03916 -1.789267 -1.414214 -1.414214 
C -1.789267 -1.03916 -2 -0.530406 -2 0 
C -2 0.530406 -1.789267 1.03916 -1.414214 1.414214 
C -1.03916 1.789267 -0.530406 2 0 2 
z
" style="stroke: #000000"/>
    </defs>
    <g clip-path="url(#p9414501289)">
     <use xlink:href="#mec1ace108a" x="291.181443" y="252" style="stroke: #000000"/>
    </g>
   </g>
   <g id="line2d_3">
    <g clip-path="url(#p9414501289)">
     <use xlink:href="#mec1ace108a" x="64.653268" y="252" style="stroke: #000000"/>
    </g>
   </g>
   <g id="text_1">
    <!-- Earth -->
    <g style="fill: #0066cc" transform="translate(230.67112 297.353133) scale(0.1 -0.1)">
     <defs>
      <path id="DejaVuSans-Bold-45" d="M 588 4666 
L 3834 4666 
L 3834 3756 
L 1791 3756 
L 1791 2888 
L 3713 2888 
L 3713 1978 
L 1791 1978 
L 1791 909 
L 3903 909 
L 3903 0 
L 588 0 
L 588 4666 
z
" transform="scale(0.015625)"/>
      <path id="DejaVuSans-Bold-61" d="M 2106 1575 
Q 1756 1575 1579 1456 
Q 1403 1338 1403 1106 
Q 1403 894 1545 773 
Q 1688 653 1941 653 
Q 2256 653 2472 879 
Q 2688 1106 2688 1447 
L 2688 1575 
L 2106 1575 
z
M 3816 1997 
L 3816 0 
L 2688 0 
L 2688 519 
Q 2463 200 2181 54 
Q 1900 -91 1497 -91 
Q 953 -91 614 226 
Q 275 544 275 1050 
Q 275 1666 698 1953 
Q 1122 2241 2028 2241 
L 2688 2241 
L 2688 2328 
Q 2688 2594 2478 2717 
Q 2269 2841 1825 2841 
Q 1466 2841 1156 2769 
Q 847 2697 581 2553 
L 581 3406 
Q 941 3494 1303 3539 
Q 1666 3584 2028 3584 
Q 2975 3584 3395 3211 
Q 3816 2838 3816 1997 
z
" transform="scale(0.015625)"/>
      <path id="DejaVuSans-Bold-72" d="M 3138 2547 
Q 2991 2616 2845 2648 
Q 2700 2681 2553 2681 
Q 2122 2681 1889 2404 
Q 1656 2128 1656 1613 
L 1656 0 
L 538 0 
L 538 3500 
L 1656 3500 
L 1656 2925 
Q 1872 3269 2151 3426 
Q 2431 3584 2822 3584 
Q 2878 3584 2943 3579 
Q 3009 3575 3134 3559 
L 3138 2547 
z
" transform="scale(0.015625)"/>
      <path id="DejaVuSans-Bold-74" d="M 1759 4494 
L 1759 3500 
L 2913 3500 
L 2913 2700 
L 1759 2700 
L 1759 1216 
Q 1759 972 1856 886 
Q 1953 800 2241 800 
L 2816 800 
L 2816 0 
L 1856 0 
Q 1194 0 917 276 
Q 641 553 641 1216 
L 641 2700 
L 84 2700 
L 84 3500 
L 641 3500 
L 641 4494 
L 1759 4494 
z
" transform="scale(0.015625)"/>
      <path id="DejaVuSans-Bold-68" d="M 4056 2131 
L 4056 0 
L 2931 0 
L 2931 347 
L 2931 1625 
Q 2931 2084 2911 2256 
Q 2891 2428 2841 2509 
Q 2775 2619 2662 2680 
Q 2550 2741 2406 2741 
Q 2056 2741 1856 2470 
Q 1656 2200 1656 1722 
L 1656 0 
L 538 0 
L 538 4863 
L 1656 4863 
L 1656 2988 
Q 1909 3294 2193 3439 
Q 2478 3584 2822 3584 
Q 3428 3584 3742 3212 
Q 4056 2841 4056 2131 
z
" transform="scale(0.015625)"/>
     </defs>
     <use xlink:href="#DejaVuSans-Bold-45"/>
     <use xlink:href="#DejaVuSans-Bold-61" transform="translate(68.310547 0)"/>
     <use xlink:href="#DejaVuSans-Bold-72" transform="translate(135.791016 0)"/>
     <use xlink:href="#DejaVuSans-Bold-74" transform="translate(185.107422 0)"/>
     <use xlink:href="#DejaVuSans-Bold-68" transform="translate(232.910156 0)"/>
    </g>
   </g>
   <g id="text_2">
    <!-- To Sun -->
    <g style="fill: #ffa500" transform="translate(378.250841 236.898122) scale(0.1 -0.1)">
     <defs>
      <path id="DejaVuSans-Bold-54" d="M 31 4666 
L 4331 4666 
L 4331 3756 
L 2784 3756 
L 2784 0 
L 1581 0 
L 1581 3756 
L 31 3756 
L 31 4666 
z
" transform="scale(0.015625)"/>
      <path id="DejaVuSans-Bold-6f" d="M 2203 2784 
Q 1831 2784 1636 2517 
Q 1441 2250 1441 1747 
Q 1441 1244 1636 976 
Q 1831 709 2203 709 
Q 2569 709 2762 976 
Q 2956 1244 2956 1747 
Q 2956 2250 2762 2517 
Q 2569 2784 2203 2784 
z
M 2203 3584 
Q 3106 3584 3614 3096 
Q 4122 2609 4122 1747 
Q 4122 884 3614 396 
Q 3106 -91 2203 -91 
Q 1297 -91 786 396 
Q 275 884 275 1747 
Q 275 2609 786 3096 
Q 1297 3584 2203 3584 
z
" transform="scale(0.015625)"/>
      <path id="DejaVuSans-Bold-20" transform="scale(0.015625)"/>
      <path id="DejaVuSans-Bold-53" d="M 3834 4519 
L 3834 3531 
Q 3450 3703 3084 3790 
Q 2719 3878 2394 3878 
Q 1963 3878 1756 3759 
Q 1550 3641 1550 3391 
Q 1550 3203 1689 3098 
Q 1828 2994 2194 2919 
L 2706 2816 
Q 3484 2659 3812 2340 
Q 4141 2022 4141 1434 
Q 4141 663 3683 286 
Q 3225 -91 2284 -91 
Q 1841 -91 1394 -6 
Q 947 78 500 244 
L 500 1259 
Q 947 1022 1364 901 
Q 1781 781 2169 781 
Q 2563 781 2772 912 
Q 2981 1044 2981 1288 
Q 2981 1506 2839 1625 
Q 2697 1744 2272 1838 
L 1806 1941 
Q 1106 2091 782 2419 
Q 459 2747 459 3303 
Q 459 4000 909 4375 
Q 1359 4750 2203 4750 
Q 2588 4750 2994 4692 
Q 3400 4634 3834 4519 
z
" transform="scale(0.015625)"/>
      <path id="DejaVuSans-Bold-75" d="M 500 1363 
L 500 3500 
L 1625 3500 
L 1625 3150 
Q 1625 2866 1622 2436 
Q 1619 2006 1619 1863 
Q 1619 1441 1641 1255 
Q 1663 1069 1716 984 
Q 1784 875 1895 815 
Q 2006 756 2150 756 
Q 2500 756 2700 1025 
Q 2900 1294 2900 1772 
L 2900 3500 
L 4019 3500 
L 4019 0 
L 2900 0 
L 2900 506 
Q 2647 200 2364 54 
Q 2081 -91 1741 -91 
Q 1134 -91 817 281 
Q 500 653 500 1363 
z
" transform="scale(0.015625)"/>
      <path id="DejaVuSans-Bold-6e" d="M 4056 2131 
L 4056 0 
L 2931 0 
L 2931 347 
L 2931 1631 
Q 2931 2084 2911 2256 
Q 2891 2428 2841 2509 
Q 2775 2619 2662 2680 
Q 2550 2741 2406 2741 
Q 2056 2741 1856 2470 
Q 1656 2200 1656 1722 
L 1656 0 
L 538 0 
L 538 3500 
L 1656 3500 
L 1656 2988 
Q 1909 3294 2193 3439 
Q 2478 3584 2822 3584 
Q 3428 3584 3742 3212 
Q 4056 2841 4056 2131 
z
" transform="scale(0.015625)"/>
     </defs>
     <use xlink:href="#DejaVuSans-Bold-54"/>
     <use xlink:href="#DejaVuSans-Bold-6f" transform="translate(54.962891 0)"/>
     <use xlink:href="#DejaVuSans-Bold-20" transform="translate(123.664062 0)"/>
     <use xlink:href="#DejaVuSans-Bold-53" transform="translate(158.478516 0)"/>
     <use xlink:href="#DejaVuSans-Bold-75" transform="translate(230.5 0)"/>
     <use xlink:href="#DejaVuSans-Bold-6e" transform="translate(301.691406 0)"/>
    </g>
   </g>
   <g id="text_3">
    <!-- Perigee -->
    <g transform="translate(298.732382 254.483438) scale(0.09 -0.09)">
     <defs>
      <path id="DejaVuSans-50" d="M 1259 4147 
L 1259 2394 
L 2053 2394 
Q 2494 2394 2734 2622 
Q 2975 2850 2975 3272 
Q 2975 3691 2734 3919 
Q 2494 4147 2053 4147 
L 1259 4147 
z
M 628 4666 
L 2053 4666 
Q 2838 4666 3239 4311 
Q 3641 3956 3641 3272 
Q 3641 2581 3239 2228 
Q 2838 1875 2053 1875 
L 1259 1875 
L 1259 0 
L 628 0 
L 628 4666 
z
" transform="scale(0.015625)"/>
      <path id="DejaVuSans-65" d="M 3597 1894 
L 3597 1613 
L 953 1613 
Q 991 1019 1311 708 
Q 1631 397 2203 397 
Q 2534 397 2845 478 
Q 3156 559 3463 722 
L 3463 178 
Q 3153 47 2828 -22 
Q 2503 -91 2169 -91 
Q 1331 -91 842 396 
Q 353 884 353 1716 
Q 353 2575 817 3079 
Q 1281 3584 2069 3584 
Q 2775 3584 3186 3129 
Q 3597 2675 3597 1894 
z
M 3022 2063 
Q 3016 2534 2758 2815 
Q 2500 3097 2075 3097 
Q 1594 3097 1305 2825 
Q 1016 2553 972 2059 
L 3022 2063 
z
" transform="scale(0.015625)"/>
      <path id="DejaVuSans-72" d="M 2631 2963 
Q 2534 3019 2420 3045 
Q 2306 3072 2169 3072 
Q 1681 3072 1420 2755 
Q 1159 2438 1159 1844 
L 1159 0 
L 581 0 
L 581 3500 
L 1159 3500 
L 1159 2956 
Q 1341 3275 1631 3429 
Q 1922 3584 2338 3584 
Q 2397 3584 2469 3576 
Q 2541 3569 2628 3553 
L 2631 2963 
z
" transform="scale(0.015625)"/>
      <path id="DejaVuSans-69" d="M 603 3500 
L 1178 3500 
L 1178 0 
L 603 0 
L 603 3500 
z
M 603 4863 
L 1178 4863 
L 1178 4134 
L 603 4134 
L 603 4863 
z
" transform="scale(0.015625)"/>
      <path id="DejaVuSans-67" d="M 2906 1791 
Q 2906 2416 2648 2759 
Q 2391 3103 1925 3103 
Q 1463 3103 1205 2759 
Q 947 2416 947 1791 
Q 947 1169 1205 825 
Q 1463 481 1925 481 
Q 2391 481 2648 825 
Q 2906 1169 2906 1791 
z
M 3481 434 
Q 3481 -459 3084 -895 
Q 2688 -1331 1869 -1331 
Q 1566 -1331 1297 -1286 
Q 1028 -1241 775 -1147 
L 775 -588 
Q 1028 -725 1275 -790 
Q 1522 -856 1778 -856 
Q 2344 -856 2625 -561 
Q 2906 -266 2906 331 
L 2906 616 
Q 2728 306 2450 153 
Q 2172 0 1784 0 
Q 1141 0 747 490 
Q 353 981 353 1791 
Q 353 2603 747 3093 
Q 1141 3584 1784 3584 
Q 2172 3584 2450 3431 
Q 2728 3278 2906 2969 
L 2906 3500 
L 3481 3500 
L 3481 434 
z
" transform="scale(0.015625)"/>
     </defs>
     <use xlink:href="#DejaVuSans-50"/>
     <use xlink:href="#DejaVuSans-65" transform="translate(56.677734 0)"/>
     <use xlink:href="#DejaVuSans-72" transform="translate(118.201172 0)"/>
     <use xlink:href="#DejaVuSans-69" transform="translate(159.314453 0)"/>
     <use xlink:href="#DejaVuSans-67" transform="translate(187.097656 0)"/>
     <use xlink:href="#DejaVuSans-65" transform="translate(250.574219 0)"/>
     <use xlink:href="#DejaVuSans-65" transform="translate(312.097656 0)"/>
    </g>
   </g>
   <g id="text_4">
    <!-- Apogee -->
    <g transform="translate(22.936079 254.483438) scale(0.09 -0.09)">
     <defs>
      <path id="DejaVuSans-41" d="M 2188 4044 
L 1331 1722 
L 3047 1722 
L 2188 4044 
z
M 1831 4666 
L 2547 4666 
L 4325 0 
L 3669 0 
L 3244 1197 
L 1141 1197 
L 716 0 
L 50 0 
L 1831 4666 
z
" transform="scale(0.015625)"/>
      <path id="DejaVuSans-70" d="M 1159 525 
L 1159 -1331 
L 581 -1331 
L 581 3500 
L 1159 3500 
L 1159 2969 
Q 1341 3281 1617 3432 
Q 1894 3584 2278 3584 
Q 2916 3584 3314 3078 
Q 3713 2572 3713 1747 
Q 3713 922 3314 415 
Q 2916 -91 2278 -91 
Q 1894 -91 1617 61 
Q 1341 213 1159 525 
z
M 3116 1747 
Q 3116 2381 2855 2742 
Q 2594 3103 2138 3103 
Q 1681 3103 1420 2742 
Q 1159 2381 1159 1747 
Q 1159 1113 1420 752 
Q 1681 391 2138 391 
Q 2594 391 2855 752 
Q 3116 1113 3116 1747 
z
" transform="scale(0.015625)"/>
      <path id="DejaVuSans-6f" d="M 1959 3097 
Q 1497 3097 1228 2736 
Q 959 2375 959 1747 
Q 959 1119 1226 758 
Q 1494 397 1959 397 
Q 2419 397 2687 759 
Q 2956 1122 2956 1747 
Q 2956 2369 2687 2733 
Q 2419 3097 1959 3097 
z
M 1959 3584 
Q 2709 3584 3137 3096 
Q 3566 2609 3566 1747 
Q 3566 888 3137 398 
Q 2709 -91 1959 -91 
Q 1206 -91 779 398 
Q 353 888 353 1747 
Q 353 2609 779 3096 
Q 1206 3584 1959 3584 
z
" transform="scale(0.015625)"/>
     </defs>
     <use xlink:href="#DejaVuSans-41"/>
     <use xlink:href="#DejaVuSans-70" transform="translate(68.408203 0)"/>
     <use xlink:href="#DejaVuSans-6f" transform="translate(131.884766 0)"/>
     <use xlink:href="#DejaVuSans-67" transform="translate(193.066406 0)"/>
     <use xlink:href="#DejaVuSans-65" transform="translate(256.542969 0)"/>
     <use xlink:href="#DejaVuSans-65" transform="translate(318.066406 0)"/>
    </g>
   </g>
   <g id="text_5">
    <!-- Eccentricity INCREASES -->
    <g style="fill: #8b0000" transform="translate(186.65237 422.024727) scale(0.1 -0.1)">
     <defs>
      <path id="DejaVuSans-45" d="M 628 4666 
L 3578 4666 
L 3578 4134 
L 1259 4134 
L 1259 2753 
L 3481 2753 
L 3481 2222 
L 1259 2222 
L 1259 531 
L 3634 531 
L 3634 0 
L 628 0 
L 628 4666 
z
" transform="scale(0.015625)"/>
      <path id="DejaVuSans-63" d="M 3122 3366 
L 3122 2828 
Q 2878 2963 2633 3030 
Q 2388 3097 2138 3097 
Q 1578 3097 1268 2742 
Q 959 2388 959 1747 
Q 959 1106 1268 751 
Q 1578 397 2138 397 
Q 2388 397 2633 464 
Q 2878 531 3122 666 
L 3122 134 
Q 2881 22 2623 -34 
Q 2366 -91 2075 -91 
Q 1284 -91 818 406 
Q 353 903 353 1747 
Q 353 2603 823 3093 
Q 1294 3584 2113 3584 
Q 2378 3584 2631 3529 
Q 2884 3475 3122 3366 
z
" transform="scale(0.015625)"/>
      <path id="DejaVuSans-6e" d="M 3513 2113 
L 3513 0 
L 2938 0 
L 2938 2094 
Q 2938 2591 2744 2837 
Q 2550 3084 2163 3084 
Q 1697 3084 1428 2787 
Q 1159 2491 1159 1978 
L 1159 0 
L 581 0 
L 581 3500 
L 1159 3500 
L 1159 2956 
Q 1366 3272 1645 3428 
Q 1925 3584 2291 3584 
Q 2894 3584 3203 3211 
Q 3513 2838 3513 2113 
z
" transform="scale(0.015625)"/>
      <path id="DejaVuSans-74" d="M 1172 4494 
L 1172 3500 
L 2356 3500 
L 2356 3053 
L 1172 3053 
L 1172 1153 
Q 1172 725 1289 603 
Q 1406 481 1766 481 
L 2356 481 
L 2356 0 
L 1766 0 
Q 1100 0 847 248 
Q 594 497 594 1153 
L 594 3053 
L 172 3053 
L 172 3500 
L 594 3500 
L 594 4494 
L 1172 4494 
z
" transform="scale(0.015625)"/>
      <path id="DejaVuSans-79" d="M 2059 -325 
Q 1816 -950 1584 -1140 
Q 1353 -1331 966 -1331 
L 506 -1331 
L 506 -850 
L 844 -850 
Q 1081 -850 1212 -737 
Q 1344 -625 1503 -206 
L 1606 56 
L 191 3500 
L 800 3500 
L 1894 763 
L 2988 3500 
L 3597 3500 
L 2059 -325 
z
" transform="scale(0.015625)"/>
      <path id="DejaVuSans-20" transform="scale(0.015625)"/>
      <path id="DejaVuSans-49" d="M 628 4666 
L 1259 4666 
L 1259 0 
L 628 0 
L 628 4666 
z
" transform="scale(0.015625)"/>
      <path id="DejaVuSans-4e" d="M 628 4666 
L 1478 4666 
L 3547 763 
L 3547 4666 
L 4159 4666 
L 4159 0 
L 3309 0 
L 1241 3903 
L 1241 0 
L 628 0 
L 628 4666 
z
" transform="scale(0.015625)"/>
      <path id="DejaVuSans-43" d="M 4122 4306 
L 4122 3641 
Q 3803 3938 3442 4084 
Q 3081 4231 2675 4231 
Q 1875 4231 1450 3742 
Q 1025 3253 1025 2328 
Q 1025 1406 1450 917 
Q 1875 428 2675 428 
Q 3081 428 3442 575 
Q 3803 722 4122 1019 
L 4122 359 
Q 3791 134 3420 21 
Q 3050 -91 2638 -91 
Q 1578 -91 968 557 
Q 359 1206 359 2328 
Q 359 3453 968 4101 
Q 1578 4750 2638 4750 
Q 3056 4750 3426 4639 
Q 3797 4528 4122 4306 
z
" transform="scale(0.015625)"/>
      <path id="DejaVuSans-52" d="M 2841 2188 
Q 3044 2119 3236 1894 
Q 3428 1669 3622 1275 
L 4263 0 
L 3584 0 
L 2988 1197 
Q 2756 1666 2539 1819 
Q 2322 1972 1947 1972 
L 1259 1972 
L 1259 0 
L 628 0 
L 628 4666 
L 2053 4666 
Q 2853 4666 3247 4331 
Q 3641 3997 3641 3322 
Q 3641 2881 3436 2590 
Q 3231 2300 2841 2188 
z
M 1259 4147 
L 1259 2491 
L 2053 2491 
Q 2509 2491 2742 2702 
Q 2975 2913 2975 3322 
Q 2975 3731 2742 3939 
Q 2509 4147 2053 4147 
L 1259 4147 
z
" transform="scale(0.015625)"/>
      <path id="DejaVuSans-53" d="M 3425 4513 
L 3425 3897 
Q 3066 4069 2747 4153 
Q 2428 4238 2131 4238 
Q 1616 4238 1336 4038 
Q 1056 3838 1056 3469 
Q 1056 3159 1242 3001 
Q 1428 2844 1947 2747 
L 2328 2669 
Q 3034 2534 3370 2195 
Q 3706 1856 3706 1288 
Q 3706 609 3251 259 
Q 2797 -91 1919 -91 
Q 1588 -91 1214 -16 
Q 841 59 441 206 
L 441 856 
Q 825 641 1194 531 
Q 1563 422 1919 422 
Q 2459 422 2753 634 
Q 3047 847 3047 1241 
Q 3047 1584 2836 1778 
Q 2625 1972 2144 2069 
L 1759 2144 
Q 1053 2284 737 2584 
Q 422 2884 422 3419 
Q 422 4038 858 4394 
Q 1294 4750 2059 4750 
Q 2388 4750 2728 4690 
Q 3069 4631 3425 4513 
z
" transform="scale(0.015625)"/>
     </defs>
     <use xlink:href="#DejaVuSans-45"/>
     <use xlink:href="#DejaVuSans-63" transform="translate(63.183594 0)"/>
     <use xlink:href="#DejaVuSans-63" transform="translate(118.164062 0)"/>
     <use xlink:href="#DejaVuSans-65" transform="translate(173.144531 0)"/>
     <use xlink:href="#DejaVuSans-6e" transform="translate(234.667969 0)"/>
     <use xlink:href="#DejaVuSans-74" transform="translate(298.046875 0)"/>
     <use xlink:href="#DejaVuSans-72" transform="translate(337.255859 0)"/>
     <use xlink:href="#DejaVuSans-69" transform="translate(378.369141 0)"/>
     <use xlink:href="#DejaVuSans-63" transform="translate(406.152344 0)"/>
     <use xlink:href="#DejaVuSans-69" transform="translate(461.132812 0)"/>
     <use xlink:href="#DejaVuSans-74" transform="translate(488.916016 0)"/>
     <use xlink:href="#DejaVuSans-79" transform="translate(528.125 0)"/>
     <use xlink:href="#DejaVuSans-20" transform="translate(587.304688 0)"/>
     <use xlink:href="#DejaVuSans-49" transform="translate(619.091797 0)"/>
     <use xlink:href="#DejaVuSans-4e" transform="translate(648.583984 0)"/>
     <use xlink:href="#DejaVuSans-43" transform="translate(723.388672 0)"/>
     <use xlink:href="#DejaVuSans-52" transform="translate(793.212891 0)"/>
     <use xlink:href="#DejaVuSans-45" transform="translate(862.695312 0)"/>
     <use xlink:href="#DejaVuSans-41" transform="translate(925.878906 0)"/>
     <use xlink:href="#DejaVuSans-53" transform="translate(994.287109 0)"/>
     <use xlink:href="#DejaVuSans-45" transform="translate(1057.763672 0)"/>
     <use xlink:href="#DejaVuSans-53" transform="translate(1120.947266 0)"/>
    </g>
    <!-- Orbit stretches along Sun-Earth line -->
    <g style="fill: #8b0000" transform="translate(156.25862 433.222539) scale(0.1 -0.1)">
     <defs>
      <path id="DejaVuSans-4f" d="M 2522 4238 
Q 1834 4238 1429 3725 
Q 1025 3213 1025 2328 
Q 1025 1447 1429 934 
Q 1834 422 2522 422 
Q 3209 422 3611 934 
Q 4013 1447 4013 2328 
Q 4013 3213 3611 3725 
Q 3209 4238 2522 4238 
z
M 2522 4750 
Q 3503 4750 4090 4092 
Q 4678 3434 4678 2328 
Q 4678 1225 4090 567 
Q 3503 -91 2522 -91 
Q 1538 -91 948 565 
Q 359 1222 359 2328 
Q 359 3434 948 4092 
Q 1538 4750 2522 4750 
z
" transform="scale(0.015625)"/>
      <path id="DejaVuSans-62" d="M 3116 1747 
Q 3116 2381 2855 2742 
Q 2594 3103 2138 3103 
Q 1681 3103 1420 2742 
Q 1159 2381 1159 1747 
Q 1159 1113 1420 752 
Q 1681 391 2138 391 
Q 2594 391 2855 752 
Q 3116 1113 3116 1747 
z
M 1159 2969 
Q 1341 3281 1617 3432 
Q 1894 3584 2278 3584 
Q 2916 3584 3314 3078 
Q 3713 2572 3713 1747 
Q 3713 922 3314 415 
Q 2916 -91 2278 -91 
Q 1894 -91 1617 61 
Q 1341 213 1159 525 
L 1159 0 
L 581 0 
L 581 4863 
L 1159 4863 
L 1159 2969 
z
" transform="scale(0.015625)"/>
      <path id="DejaVuSans-73" d="M 2834 3397 
L 2834 2853 
Q 2591 2978 2328 3040 
Q 2066 3103 1784 3103 
Q 1356 3103 1142 2972 
Q 928 2841 928 2578 
Q 928 2378 1081 2264 
Q 1234 2150 1697 2047 
L 1894 2003 
Q 2506 1872 2764 1633 
Q 3022 1394 3022 966 
Q 3022 478 2636 193 
Q 2250 -91 1575 -91 
Q 1294 -91 989 -36 
Q 684 19 347 128 
L 347 722 
Q 666 556 975 473 
Q 1284 391 1588 391 
Q 1994 391 2212 530 
Q 2431 669 2431 922 
Q 2431 1156 2273 1281 
Q 2116 1406 1581 1522 
L 1381 1569 
Q 847 1681 609 1914 
Q 372 2147 372 2553 
Q 372 3047 722 3315 
Q 1072 3584 1716 3584 
Q 2034 3584 2315 3537 
Q 2597 3491 2834 3397 
z
" transform="scale(0.015625)"/>
      <path id="DejaVuSans-68" d="M 3513 2113 
L 3513 0 
L 2938 0 
L 2938 2094 
Q 2938 2591 2744 2837 
Q 2550 3084 2163 3084 
Q 1697 3084 1428 2787 
Q 1159 2491 1159 1978 
L 1159 0 
L 581 0 
L 581 4863 
L 1159 4863 
L 1159 2956 
Q 1366 3272 1645 3428 
Q 1925 3584 2291 3584 
Q 2894 3584 3203 3211 
Q 3513 2838 3513 2113 
z
" transform="scale(0.015625)"/>
      <path id="DejaVuSans-61" d="M 2194 1759 
Q 1497 1759 1228 1600 
Q 959 1441 959 1056 
Q 959 750 1161 570 
Q 1363 391 1709 391 
Q 2188 391 2477 730 
Q 2766 1069 2766 1631 
L 2766 1759 
L 2194 1759 
z
M 3341 1997 
L 3341 0 
L 2766 0 
L 2766 531 
Q 2569 213 2275 61 
Q 1981 -91 1556 -91 
Q 1019 -91 701 211 
Q 384 513 384 1019 
Q 384 1609 779 1909 
Q 1175 2209 1959 2209 
L 2766 2209 
L 2766 2266 
Q 2766 2663 2505 2880 
Q 2244 3097 1772 3097 
Q 1472 3097 1187 3025 
Q 903 2953 641 2809 
L 641 3341 
Q 956 3463 1253 3523 
Q 1550 3584 1831 3584 
Q 2591 3584 2966 3190 
Q 3341 2797 3341 1997 
z
" transform="scale(0.015625)"/>
      <path id="DejaVuSans-6c" d="M 603 4863 
L 1178 4863 
L 1178 0 
L 603 0 
L 603 4863 
z
" transform="scale(0.015625)"/>
      <path id="DejaVuSans-75" d="M 544 1381 
L 544 3500 
L 1119 3500 
L 1119 1403 
Q 1119 906 1312 657 
Q 1506 409 1894 409 
Q 2359 409 2629 706 
Q 2900 1003 2900 1516 
L 2900 3500 
L 3475 3500 
L 3475 0 
L 2900 0 
L 2900 538 
Q 2691 219 2414 64 
Q 2138 -91 1772 -91 
Q 1169 -91 856 284 
Q 544 659 544 1381 
z
M 1991 3584 
L 1991 3584 
z
" transform="scale(0.015625)"/>
      <path id="DejaVuSans-2d" d="M 313 2009 
L 1997 2009 
L 1997 1497 
L 313 1497 
L 313 2009 
z
" transform="scale(0.015625)"/>
     </defs>
     <use xlink:href="#DejaVuSans-4f"/>
     <use xlink:href="#DejaVuSans-72" transform="translate(78.710938 0)"/>
     <use xlink:href="#DejaVuSans-62" transform="translate(119.824219 0)"/>
     <use xlink:href="#DejaVuSans-69" transform="translate(183.300781 0)"/>
     <use xlink:href="#DejaVuSans-74" transform="translate(211.083984 0)"/>
     <use xlink:href="#DejaVuSans-20" transform="translate(250.292969 0)"/>
     <use xlink:href="#DejaVuSans-73" transform="translate(282.080078 0)"/>
     <use xlink:href="#DejaVuSans-74" transform="translate(334.179688 0)"/>
     <use xlink:href="#DejaVuSans-72" transform="translate(373.388672 0)"/>
     <use xlink:href="#DejaVuSans-65" transform="translate(412.251953 0)"/>
     <use xlink:href="#DejaVuSans-74" transform="translate(473.775391 0)"/>
     <use xlink:href="#DejaVuSans-63" transform="translate(512.984375 0)"/>
     <use xlink:href="#DejaVuSans-68" transform="translate(567.964844 0)"/>
     <use xlink:href="#DejaVuSans-65" transform="translate(631.34375 0)"/>
     <use xlink:href="#DejaVuSans-73" transform="translate(692.867188 0)"/>
     <use xlink:href="#DejaVuSans-20" transform="translate(744.966797 0)"/>
     <use xlink:href="#DejaVuSans-61" transform="translate(776.753906 0)"/>
     <use xlink:href="#DejaVuSans-6c" transform="translate(838.033203 0)"/>
     <use xlink:href="#DejaVuSans-6f" transform="translate(865.816406 0)"/>
     <use xlink:href="#DejaVuSans-6e" transform="translate(926.998047 0)"/>
     <use xlink:href="#DejaVuSans-67" transform="translate(990.376953 0)"/>
     <use xlink:href="#DejaVuSans-20" transform="translate(1053.853516 0)"/>
     <use xlink:href="#DejaVuSans-53" transform="translate(1085.640625 0)"/>
     <use xlink:href="#DejaVuSans-75" transform="translate(1149.117188 0)"/>
     <use xlink:href="#DejaVuSans-6e" transform="translate(1212.496094 0)"/>
     <use xlink:href="#DejaVuSans-2d" transform="translate(1275.875 0)"/>
     <use xlink:href="#DejaVuSans-45" transform="translate(1311.958984 0)"/>
     <use xlink:href="#DejaVuSans-61" transform="translate(1375.142578 0)"/>
     <use xlink:href="#DejaVuSans-72" transform="translate(1436.421875 0)"/>
     <use xlink:href="#DejaVuSans-74" transform="translate(1477.535156 0)"/>
     <use xlink:href="#DejaVuSans-68" transform="translate(1516.744141 0)"/>
     <use xlink:href="#DejaVuSans-20" transform="translate(1580.123047 0)"/>
     <use xlink:href="#DejaVuSans-6c" transform="translate(1611.910156 0)"/>
     <use xlink:href="#DejaVuSans-69" transform="translate(1639.693359 0)"/>
     <use xlink:href="#DejaVuSans-6e" transform="translate(1667.476562 0)"/>
     <use xlink:href="#DejaVuSans-65" transform="translate(1730.855469 0)"/>
    </g>
   </g>
   <g id="text_6">
    <!-- Case A: Sun aligned with Apsides -->
    <g transform="translate(106.558458 59.797275) scale(0.12 -0.12)">
     <defs>
      <path id="DejaVuSans-Bold-43" d="M 4288 256 
Q 3956 84 3597 -3 
Q 3238 -91 2847 -91 
Q 1681 -91 1000 561 
Q 319 1213 319 2328 
Q 319 3447 1000 4098 
Q 1681 4750 2847 4750 
Q 3238 4750 3597 4662 
Q 3956 4575 4288 4403 
L 4288 3438 
Q 3953 3666 3628 3772 
Q 3303 3878 2944 3878 
Q 2300 3878 1931 3465 
Q 1563 3053 1563 2328 
Q 1563 1606 1931 1193 
Q 2300 781 2944 781 
Q 3303 781 3628 887 
Q 3953 994 4288 1222 
L 4288 256 
z
" transform="scale(0.015625)"/>
      <path id="DejaVuSans-Bold-73" d="M 3272 3391 
L 3272 2541 
Q 2913 2691 2578 2766 
Q 2244 2841 1947 2841 
Q 1628 2841 1473 2761 
Q 1319 2681 1319 2516 
Q 1319 2381 1436 2309 
Q 1553 2238 1856 2203 
L 2053 2175 
Q 2913 2066 3209 1816 
Q 3506 1566 3506 1031 
Q 3506 472 3093 190 
Q 2681 -91 1863 -91 
Q 1516 -91 1145 -36 
Q 775 19 384 128 
L 384 978 
Q 719 816 1070 734 
Q 1422 653 1784 653 
Q 2113 653 2278 743 
Q 2444 834 2444 1013 
Q 2444 1163 2330 1236 
Q 2216 1309 1875 1350 
L 1678 1375 
Q 931 1469 631 1722 
Q 331 1975 331 2491 
Q 331 3047 712 3315 
Q 1094 3584 1881 3584 
Q 2191 3584 2531 3537 
Q 2872 3491 3272 3391 
z
" transform="scale(0.015625)"/>
      <path id="DejaVuSans-Bold-65" d="M 4031 1759 
L 4031 1441 
L 1416 1441 
Q 1456 1047 1700 850 
Q 1944 653 2381 653 
Q 2734 653 3104 758 
Q 3475 863 3866 1075 
L 3866 213 
Q 3469 63 3072 -14 
Q 2675 -91 2278 -91 
Q 1328 -91 801 392 
Q 275 875 275 1747 
Q 275 2603 792 3093 
Q 1309 3584 2216 3584 
Q 3041 3584 3536 3087 
Q 4031 2591 4031 1759 
z
M 2881 2131 
Q 2881 2450 2695 2645 
Q 2509 2841 2209 2841 
Q 1884 2841 1681 2658 
Q 1478 2475 1428 2131 
L 2881 2131 
z
" transform="scale(0.015625)"/>
      <path id="DejaVuSans-Bold-41" d="M 3419 850 
L 1538 850 
L 1241 0 
L 31 0 
L 1759 4666 
L 3194 4666 
L 4922 0 
L 3713 0 
L 3419 850 
z
M 1838 1716 
L 3116 1716 
L 2478 3572 
L 1838 1716 
z
" transform="scale(0.015625)"/>
      <path id="DejaVuSans-Bold-3a" d="M 716 3500 
L 1844 3500 
L 1844 2291 
L 716 2291 
L 716 3500 
z
M 716 1209 
L 1844 1209 
L 1844 0 
L 716 0 
L 716 1209 
z
" transform="scale(0.015625)"/>
      <path id="DejaVuSans-Bold-6c" d="M 538 4863 
L 1656 4863 
L 1656 0 
L 538 0 
L 538 4863 
z
" transform="scale(0.015625)"/>
      <path id="DejaVuSans-Bold-69" d="M 538 3500 
L 1656 3500 
L 1656 0 
L 538 0 
L 538 3500 
z
M 538 4863 
L 1656 4863 
L 1656 3950 
L 538 3950 
L 538 4863 
z
" transform="scale(0.015625)"/>
      <path id="DejaVuSans-Bold-67" d="M 2919 594 
Q 2688 288 2409 144 
Q 2131 0 1766 0 
Q 1125 0 706 504 
Q 288 1009 288 1791 
Q 288 2575 706 3076 
Q 1125 3578 1766 3578 
Q 2131 3578 2409 3434 
Q 2688 3291 2919 2981 
L 2919 3500 
L 4044 3500 
L 4044 353 
Q 4044 -491 3511 -936 
Q 2978 -1381 1966 -1381 
Q 1638 -1381 1331 -1331 
Q 1025 -1281 716 -1178 
L 716 -306 
Q 1009 -475 1290 -558 
Q 1572 -641 1856 -641 
Q 2406 -641 2662 -400 
Q 2919 -159 2919 353 
L 2919 594 
z
M 2181 2772 
Q 1834 2772 1640 2515 
Q 1447 2259 1447 1791 
Q 1447 1309 1634 1061 
Q 1822 813 2181 813 
Q 2531 813 2725 1069 
Q 2919 1325 2919 1791 
Q 2919 2259 2725 2515 
Q 2531 2772 2181 2772 
z
" transform="scale(0.015625)"/>
      <path id="DejaVuSans-Bold-64" d="M 2919 2988 
L 2919 4863 
L 4044 4863 
L 4044 0 
L 2919 0 
L 2919 506 
Q 2688 197 2409 53 
Q 2131 -91 1766 -91 
Q 1119 -91 703 423 
Q 288 938 288 1747 
Q 288 2556 703 3070 
Q 1119 3584 1766 3584 
Q 2128 3584 2408 3439 
Q 2688 3294 2919 2988 
z
M 2181 722 
Q 2541 722 2730 984 
Q 2919 1247 2919 1747 
Q 2919 2247 2730 2509 
Q 2541 2772 2181 2772 
Q 1825 2772 1636 2509 
Q 1447 2247 1447 1747 
Q 1447 1247 1636 984 
Q 1825 722 2181 722 
z
" transform="scale(0.015625)"/>
      <path id="DejaVuSans-Bold-77" d="M 225 3500 
L 1313 3500 
L 1900 1088 
L 2491 3500 
L 3425 3500 
L 4013 1113 
L 4603 3500 
L 5691 3500 
L 4769 0 
L 3547 0 
L 2956 2406 
L 2369 0 
L 1147 0 
L 225 3500 
z
" transform="scale(0.015625)"/>
      <path id="DejaVuSans-Bold-70" d="M 1656 506 
L 1656 -1331 
L 538 -1331 
L 538 3500 
L 1656 3500 
L 1656 2988 
Q 1888 3294 2169 3439 
Q 2450 3584 2816 3584 
Q 3463 3584 3878 3070 
Q 4294 2556 4294 1747 
Q 4294 938 3878 423 
Q 3463 -91 2816 -91 
Q 2450 -91 2169 54 
Q 1888 200 1656 506 
z
M 2400 2772 
Q 2041 2772 1848 2508 
Q 1656 2244 1656 1747 
Q 1656 1250 1848 986 
Q 2041 722 2400 722 
Q 2759 722 2948 984 
Q 3138 1247 3138 1747 
Q 3138 2247 2948 2509 
Q 2759 2772 2400 2772 
z
" transform="scale(0.015625)"/>
     </defs>
     <use xlink:href="#DejaVuSans-Bold-43"/>
     <use xlink:href="#DejaVuSans-Bold-61" transform="translate(73.388672 0)"/>
     <use xlink:href="#DejaVuSans-Bold-73" transform="translate(140.869141 0)"/>
     <use xlink:href="#DejaVuSans-Bold-65" transform="translate(200.390625 0)"/>
     <use xlink:href="#DejaVuSans-Bold-20" transform="translate(268.212891 0)"/>
     <use xlink:href="#DejaVuSans-Bold-41" transform="translate(303.027344 0)"/>
     <use xlink:href="#DejaVuSans-Bold-3a" transform="translate(382.294922 0)"/>
     <use xlink:href="#DejaVuSans-Bold-20" transform="translate(422.285156 0)"/>
     <use xlink:href="#DejaVuSans-Bold-53" transform="translate(457.099609 0)"/>
     <use xlink:href="#DejaVuSans-Bold-75" transform="translate(529.121094 0)"/>
     <use xlink:href="#DejaVuSans-Bold-6e" transform="translate(600.3125 0)"/>
     <use xlink:href="#DejaVuSans-Bold-20" transform="translate(671.503906 0)"/>
     <use xlink:href="#DejaVuSans-Bold-61" transform="translate(706.318359 0)"/>
     <use xlink:href="#DejaVuSans-Bold-6c" transform="translate(773.798828 0)"/>
     <use xlink:href="#DejaVuSans-Bold-69" transform="translate(808.076172 0)"/>
     <use xlink:href="#DejaVuSans-Bold-67" transform="translate(842.353516 0)"/>
     <use xlink:href="#DejaVuSans-Bold-6e" transform="translate(913.935547 0)"/>
     <use xlink:href="#DejaVuSans-Bold-65" transform="translate(985.126953 0)"/>
     <use xlink:href="#DejaVuSans-Bold-64" transform="translate(1052.949219 0)"/>
     <use xlink:href="#DejaVuSans-Bold-20" transform="translate(1124.53125 0)"/>
     <use xlink:href="#DejaVuSans-Bold-77" transform="translate(1159.345703 0)"/>
     <use xlink:href="#DejaVuSans-Bold-69" transform="translate(1251.728516 0)"/>
     <use xlink:href="#DejaVuSans-Bold-74" transform="translate(1286.005859 0)"/>
     <use xlink:href="#DejaVuSans-Bold-68" transform="translate(1333.808594 0)"/>
     <use xlink:href="#DejaVuSans-Bold-20" transform="translate(1405 0)"/>
     <use xlink:href="#DejaVuSans-Bold-41" transform="translate(1439.814453 0)"/>
     <use xlink:href="#DejaVuSans-Bold-70" transform="translate(1517.207031 0)"/>
     <use xlink:href="#DejaVuSans-Bold-73" transform="translate(1588.789062 0)"/>
     <use xlink:href="#DejaVuSans-Bold-69" transform="translate(1648.310547 0)"/>
     <use xlink:href="#DejaVuSans-Bold-64" transform="translate(1682.587891 0)"/>
     <use xlink:href="#DejaVuSans-Bold-65" transform="translate(1754.169922 0)"/>
     <use xlink:href="#DejaVuSans-Bold-73" transform="translate(1821.992188 0)"/>
    </g>
    <!-- (Syzygy at Perigee/Apogee) -->
    <g transform="translate(125.423771 73.3284) scale(0.12 -0.12)">
     <defs>
      <path id="DejaVuSans-Bold-28" d="M 2413 -844 
L 1484 -844 
Q 1006 -72 778 623 
Q 550 1319 550 2003 
Q 550 2688 779 3389 
Q 1009 4091 1484 4856 
L 2413 4856 
Q 2013 4116 1813 3408 
Q 1613 2700 1613 2009 
Q 1613 1319 1811 609 
Q 2009 -100 2413 -844 
z
" transform="scale(0.015625)"/>
      <path id="DejaVuSans-Bold-79" d="M 78 3500 
L 1197 3500 
L 2138 1125 
L 2938 3500 
L 4056 3500 
L 2584 -331 
Q 2363 -916 2067 -1148 
Q 1772 -1381 1288 -1381 
L 641 -1381 
L 641 -647 
L 991 -647 
Q 1275 -647 1404 -556 
Q 1534 -466 1606 -231 
L 1638 -134 
L 78 3500 
z
" transform="scale(0.015625)"/>
      <path id="DejaVuSans-Bold-7a" d="M 366 3500 
L 3419 3500 
L 3419 2719 
L 1575 800 
L 3419 800 
L 3419 0 
L 288 0 
L 288 781 
L 2131 2700 
L 366 2700 
L 366 3500 
z
" transform="scale(0.015625)"/>
      <path id="DejaVuSans-Bold-50" d="M 588 4666 
L 2584 4666 
Q 3475 4666 3951 4270 
Q 4428 3875 4428 3144 
Q 4428 2409 3951 2014 
Q 3475 1619 2584 1619 
L 1791 1619 
L 1791 0 
L 588 0 
L 588 4666 
z
M 1791 3794 
L 1791 2491 
L 2456 2491 
Q 2806 2491 2997 2661 
Q 3188 2831 3188 3144 
Q 3188 3456 2997 3625 
Q 2806 3794 2456 3794 
L 1791 3794 
z
" transform="scale(0.015625)"/>
      <path id="DejaVuSans-Bold-2f" d="M 1644 4666 
L 2338 4666 
L 691 -594 
L 0 -594 
L 1644 4666 
z
" transform="scale(0.015625)"/>
      <path id="DejaVuSans-Bold-29" d="M 513 -844 
Q 913 -100 1113 609 
Q 1313 1319 1313 2009 
Q 1313 2700 1113 3408 
Q 913 4116 513 4856 
L 1441 4856 
Q 1916 4091 2145 3389 
Q 2375 2688 2375 2003 
Q 2375 1319 2147 623 
Q 1919 -72 1441 -844 
L 513 -844 
z
" transform="scale(0.015625)"/>
     </defs>
     <use xlink:href="#DejaVuSans-Bold-28"/>
     <use xlink:href="#DejaVuSans-Bold-53" transform="translate(45.703125 0)"/>
     <use xlink:href="#DejaVuSans-Bold-79" transform="translate(117.724609 0)"/>
     <use xlink:href="#DejaVuSans-Bold-7a" transform="translate(182.910156 0)"/>
     <use xlink:href="#DejaVuSans-Bold-79" transform="translate(241.113281 0)"/>
     <use xlink:href="#DejaVuSans-Bold-67" transform="translate(306.298828 0)"/>
     <use xlink:href="#DejaVuSans-Bold-79" transform="translate(377.880859 0)"/>
     <use xlink:href="#DejaVuSans-Bold-20" transform="translate(443.066406 0)"/>
     <use xlink:href="#DejaVuSans-Bold-61" transform="translate(477.880859 0)"/>
     <use xlink:href="#DejaVuSans-Bold-74" transform="translate(545.361328 0)"/>
     <use xlink:href="#DejaVuSans-Bold-20" transform="translate(593.164062 0)"/>
     <use xlink:href="#DejaVuSans-Bold-50" transform="translate(627.978516 0)"/>
     <use xlink:href="#DejaVuSans-Bold-65" transform="translate(701.269531 0)"/>
     <use xlink:href="#DejaVuSans-Bold-72" transform="translate(769.091797 0)"/>
     <use xlink:href="#DejaVuSans-Bold-69" transform="translate(818.408203 0)"/>
     <use xlink:href="#DejaVuSans-Bold-67" transform="translate(852.685547 0)"/>
     <use xlink:href="#DejaVuSans-Bold-65" transform="translate(924.267578 0)"/>
     <use xlink:href="#DejaVuSans-Bold-65" transform="translate(992.089844 0)"/>
     <use xlink:href="#DejaVuSans-Bold-2f" transform="translate(1059.912109 0)"/>
     <use xlink:href="#DejaVuSans-Bold-41" transform="translate(1096.435547 0)"/>
     <use xlink:href="#DejaVuSans-Bold-70" transform="translate(1173.828125 0)"/>
     <use xlink:href="#DejaVuSans-Bold-6f" transform="translate(1245.410156 0)"/>
     <use xlink:href="#DejaVuSans-Bold-67" transform="translate(1314.111328 0)"/>
     <use xlink:href="#DejaVuSans-Bold-65" transform="translate(1385.693359 0)"/>
     <use xlink:href="#DejaVuSans-Bold-65" transform="translate(1453.515625 0)"/>
     <use xlink:href="#DejaVuSans-Bold-29" transform="translate(1521.337891 0)"/>
    </g>
   </g>
   <g id="patch_4">
    <path d="M 245.875808 274.652817 
C 251.883405 274.652817 257.645756 272.265974 261.893768 268.017961 
C 266.141781 263.769948 268.528625 258.007597 268.528625 252 
C 268.528625 245.992403 266.141781 240.230052 261.893768 235.982039 
C 257.645756 231.734026 251.883405 229.347183 245.875808 229.347183 
C 239.86821 229.347183 234.10586 231.734026 229.857847 235.982039 
C 225.609834 240.230052 223.22299 245.992403 223.22299 252 
C 223.22299 258.007597 225.609834 263.769948 229.857847 268.017961 
C 234.10586 272.265974 239.86821 274.652817 245.875808 274.652817 
z
" clip-path="url(#p9414501289)" style="fill: #e6f3ff; stroke: #0066cc; stroke-linejoin: miter"/>
   </g>
  </g>
  <g id="axes_2">
   <g id="line2d_4">
    <path d="M 626.671826 387.916905 
L 626.671826 161.38873 
" clip-path="url(#p3b27a4b0ad)" style="fill: none; stroke-dasharray: 3.7,1.6; stroke-dashoffset: 0; stroke: #000000; stroke-opacity: 0.3"/>
   </g>
   <g id="patch_5">
    <path d="M 804.118896 252 
L 792.792487 257.663204 
L 792.792487 253.887735 
L 755.037791 253.887735 
L 755.037791 250.112265 
L 792.792487 250.112265 
L 792.792487 246.336796 
z
" clip-path="url(#p3b27a4b0ad)" style="fill: #ffa500; stroke: #ffa500; stroke-linejoin: miter"/>
   </g>
   <g id="patch_6">
    <path d="M 626.671826 387.916905 
C 656.102922 387.916905 684.332559 375.982686 705.143487 354.742622 
C 725.954415 333.502557 737.647514 304.690804 737.647514 274.652817 
C 737.647514 244.61483 725.954415 215.803078 705.143487 194.563013 
C 684.332559 173.322949 656.102922 161.38873 626.671826 161.38873 
C 597.240729 161.38873 569.011092 173.322949 548.200164 194.563013 
C 527.389236 215.803078 515.696138 244.61483 515.696138 274.652817 
C 515.696138 304.690804 527.389236 333.502557 548.200164 354.742622 
C 569.011092 375.982686 597.240729 387.916905 626.671826 387.916905 
L 626.671826 387.916905 
z
" clip-path="url(#p3b27a4b0ad)" style="fill: none; stroke: #008000; stroke-width: 2; stroke-linejoin: miter"/>
   </g>
   <g id="line2d_5">
    <g clip-path="url(#p3b27a4b0ad)">
     <use xlink:href="#mec1ace108a" x="626.671826" y="161.38873" style="stroke: #000000"/>
    </g>
   </g>
   <g id="line2d_6">
    <g clip-path="url(#p3b27a4b0ad)">
     <use xlink:href="#mec1ace108a" x="626.671826" y="387.916905" style="stroke: #000000"/>
    </g>
   </g>
   <g id="text_7">
    <!-- Earth -->
    <g style="fill: #0066cc" transform="translate(611.467138 297.353133) scale(0.1 -0.1)">
     <use xlink:href="#DejaVuSans-Bold-45"/>
     <use xlink:href="#DejaVuSans-Bold-61" transform="translate(68.310547 0)"/>
     <use xlink:href="#DejaVuSans-Bold-72" transform="translate(135.791016 0)"/>
     <use xlink:href="#DejaVuSans-Bold-74" transform="translate(185.107422 0)"/>
     <use xlink:href="#DejaVuSans-Bold-68" transform="translate(232.910156 0)"/>
    </g>
   </g>
   <g id="text_8">
    <!-- To Sun -->
    <g style="fill: #ffa500" transform="translate(759.046859 236.898122) scale(0.1 -0.1)">
     <use xlink:href="#DejaVuSans-Bold-54"/>
     <use xlink:href="#DejaVuSans-Bold-6f" transform="translate(54.962891 0)"/>
     <use xlink:href="#DejaVuSans-Bold-20" transform="translate(123.664062 0)"/>
     <use xlink:href="#DejaVuSans-Bold-53" transform="translate(158.478516 0)"/>
     <use xlink:href="#DejaVuSans-Bold-75" transform="translate(230.5 0)"/>
     <use xlink:href="#DejaVuSans-Bold-6e" transform="translate(301.691406 0)"/>
    </g>
   </g>
   <g id="text_9">
    <!-- Perigee -->
    <g transform="translate(615.345417 152.545759) scale(0.09 -0.09)">
     <use xlink:href="#DejaVuSans-50"/>
     <use xlink:href="#DejaVuSans-65" transform="translate(56.677734 0)"/>
     <use xlink:href="#DejaVuSans-72" transform="translate(118.201172 0)"/>
     <use xlink:href="#DejaVuSans-69" transform="translate(159.314453 0)"/>
     <use xlink:href="#DejaVuSans-67" transform="translate(187.097656 0)"/>
     <use xlink:href="#DejaVuSans-65" transform="translate(250.574219 0)"/>
     <use xlink:href="#DejaVuSans-65" transform="translate(312.097656 0)"/>
    </g>
   </g>
   <g id="text_10">
    <!-- Apogee -->
    <g transform="translate(615.345417 401.726751) scale(0.09 -0.09)">
     <use xlink:href="#DejaVuSans-41"/>
     <use xlink:href="#DejaVuSans-70" transform="translate(68.408203 0)"/>
     <use xlink:href="#DejaVuSans-6f" transform="translate(131.884766 0)"/>
     <use xlink:href="#DejaVuSans-67" transform="translate(193.066406 0)"/>
     <use xlink:href="#DejaVuSans-65" transform="translate(256.542969 0)"/>
     <use xlink:href="#DejaVuSans-65" transform="translate(318.066406 0)"/>
    </g>
   </g>
   <g id="text_11">
    <!-- Eccentricity DECREASES -->
    <g style="fill: #006400" transform="translate(565.654638 422.024727) scale(0.1 -0.1)">
     <defs>
      <path id="DejaVuSans-44" d="M 1259 4147 
L 1259 519 
L 2022 519 
Q 2988 519 3436 956 
Q 3884 1394 3884 2338 
Q 3884 3275 3436 3711 
Q 2988 4147 2022 4147 
L 1259 4147 
z
M 628 4666 
L 1925 4666 
Q 3281 4666 3915 4102 
Q 4550 3538 4550 2338 
Q 4550 1131 3912 565 
Q 3275 0 1925 0 
L 628 0 
L 628 4666 
z
" transform="scale(0.015625)"/>
     </defs>
     <use xlink:href="#DejaVuSans-45"/>
     <use xlink:href="#DejaVuSans-63" transform="translate(63.183594 0)"/>
     <use xlink:href="#DejaVuSans-63" transform="translate(118.164062 0)"/>
     <use xlink:href="#DejaVuSans-65" transform="translate(173.144531 0)"/>
     <use xlink:href="#DejaVuSans-6e" transform="translate(234.667969 0)"/>
     <use xlink:href="#DejaVuSans-74" transform="translate(298.046875 0)"/>
     <use xlink:href="#DejaVuSans-72" transform="translate(337.255859 0)"/>
     <use xlink:href="#DejaVuSans-69" transform="translate(378.369141 0)"/>
     <use xlink:href="#DejaVuSans-63" transform="translate(406.152344 0)"/>
     <use xlink:href="#DejaVuSans-69" transform="translate(461.132812 0)"/>
     <use xlink:href="#DejaVuSans-74" transform="translate(488.916016 0)"/>
     <use xlink:href="#DejaVuSans-79" transform="translate(528.125 0)"/>
     <use xlink:href="#DejaVuSans-20" transform="translate(587.304688 0)"/>
     <use xlink:href="#DejaVuSans-44" transform="translate(619.091797 0)"/>
     <use xlink:href="#DejaVuSans-45" transform="translate(696.09375 0)"/>
     <use xlink:href="#DejaVuSans-43" transform="translate(759.277344 0)"/>
     <use xlink:href="#DejaVuSans-52" transform="translate(829.101562 0)"/>
     <use xlink:href="#DejaVuSans-45" transform="translate(898.583984 0)"/>
     <use xlink:href="#DejaVuSans-41" transform="translate(961.767578 0)"/>
     <use xlink:href="#DejaVuSans-53" transform="translate(1030.175781 0)"/>
     <use xlink:href="#DejaVuSans-45" transform="translate(1093.652344 0)"/>
     <use xlink:href="#DejaVuSans-53" transform="translate(1156.835938 0)"/>
    </g>
    <!-- Orbit becomes more circular -->
    <g style="fill: #006400" transform="translate(555.321826 433.222539) scale(0.1 -0.1)">
     <defs>
      <path id="DejaVuSans-6d" d="M 3328 2828 
Q 3544 3216 3844 3400 
Q 4144 3584 4550 3584 
Q 5097 3584 5394 3201 
Q 5691 2819 5691 2113 
L 5691 0 
L 5113 0 
L 5113 2094 
Q 5113 2597 4934 2840 
Q 4756 3084 4391 3084 
Q 3944 3084 3684 2787 
Q 3425 2491 3425 1978 
L 3425 0 
L 2847 0 
L 2847 2094 
Q 2847 2600 2669 2842 
Q 2491 3084 2119 3084 
Q 1678 3084 1418 2786 
Q 1159 2488 1159 1978 
L 1159 0 
L 581 0 
L 581 3500 
L 1159 3500 
L 1159 2956 
Q 1356 3278 1631 3431 
Q 1906 3584 2284 3584 
Q 2666 3584 2933 3390 
Q 3200 3197 3328 2828 
z
" transform="scale(0.015625)"/>
     </defs>
     <use xlink:href="#DejaVuSans-4f"/>
     <use xlink:href="#DejaVuSans-72" transform="translate(78.710938 0)"/>
     <use xlink:href="#DejaVuSans-62" transform="translate(119.824219 0)"/>
     <use xlink:href="#DejaVuSans-69" transform="translate(183.300781 0)"/>
     <use xlink:href="#DejaVuSans-74" transform="translate(211.083984 0)"/>
     <use xlink:href="#DejaVuSans-20" transform="translate(250.292969 0)"/>
     <use xlink:href="#DejaVuSans-62" transform="translate(282.080078 0)"/>
     <use xlink:href="#DejaVuSans-65" transform="translate(345.556641 0)"/>
     <use xlink:href="#DejaVuSans-63" transform="translate(407.080078 0)"/>
     <use xlink:href="#DejaVuSans-6f" transform="translate(462.060547 0)"/>
     <use xlink:href="#DejaVuSans-6d" transform="translate(523.242188 0)"/>
     <use xlink:href="#DejaVuSans-65" transform="translate(620.654297 0)"/>
     <use xlink:href="#DejaVuSans-73" transform="translate(682.177734 0)"/>
     <use xlink:href="#DejaVuSans-20" transform="translate(734.277344 0)"/>
     <use xlink:href="#DejaVuSans-6d" transform="translate(766.064453 0)"/>
     <use xlink:href="#DejaVuSans-6f" transform="translate(863.476562 0)"/>
     <use xlink:href="#DejaVuSans-72" transform="translate(924.658203 0)"/>
     <use xlink:href="#DejaVuSans-65" transform="translate(963.521484 0)"/>
     <use xlink:href="#DejaVuSans-20" transform="translate(1025.044922 0)"/>
     <use xlink:href="#DejaVuSans-63" transform="translate(1056.832031 0)"/>
     <use xlink:href="#DejaVuSans-69" transform="translate(1111.8125 0)"/>
     <use xlink:href="#DejaVuSans-72" transform="translate(1139.595703 0)"/>
     <use xlink:href="#DejaVuSans-63" transform="translate(1178.458984 0)"/>
     <use xlink:href="#DejaVuSans-75" transform="translate(1233.439453 0)"/>
     <use xlink:href="#DejaVuSans-6c" transform="translate(1296.818359 0)"/>
     <use xlink:href="#DejaVuSans-61" transform="translate(1324.601562 0)"/>
     <use xlink:href="#DejaVuSans-72" transform="translate(1385.880859 0)"/>
    </g>
   </g>
   <g id="text_12">
    <!-- Case B: Sun perpendicular to Apsides -->
    <g transform="translate(518.482299 54.891025) scale(0.12 -0.12)">
     <defs>
      <path id="DejaVuSans-Bold-42" d="M 2456 2859 
Q 2741 2859 2887 2984 
Q 3034 3109 3034 3353 
Q 3034 3594 2887 3720 
Q 2741 3847 2456 3847 
L 1791 3847 
L 1791 2859 
L 2456 2859 
z
M 2497 819 
Q 2859 819 3042 972 
Q 3225 1125 3225 1434 
Q 3225 1738 3044 1889 
Q 2863 2041 2497 2041 
L 1791 2041 
L 1791 819 
L 2497 819 
z
M 3616 2497 
Q 4003 2384 4215 2081 
Q 4428 1778 4428 1338 
Q 4428 663 3972 331 
Q 3516 0 2584 0 
L 588 0 
L 588 4666 
L 2394 4666 
Q 3366 4666 3802 4372 
Q 4238 4078 4238 3431 
Q 4238 3091 4078 2852 
Q 3919 2613 3616 2497 
z
" transform="scale(0.015625)"/>
      <path id="DejaVuSans-Bold-63" d="M 3366 3391 
L 3366 2478 
Q 3138 2634 2908 2709 
Q 2678 2784 2431 2784 
Q 1963 2784 1702 2511 
Q 1441 2238 1441 1747 
Q 1441 1256 1702 982 
Q 1963 709 2431 709 
Q 2694 709 2930 787 
Q 3166 866 3366 1019 
L 3366 103 
Q 3103 6 2833 -42 
Q 2563 -91 2291 -91 
Q 1344 -91 809 395 
Q 275 881 275 1747 
Q 275 2613 809 3098 
Q 1344 3584 2291 3584 
Q 2566 3584 2833 3536 
Q 3100 3488 3366 3391 
z
" transform="scale(0.015625)"/>
     </defs>
     <use xlink:href="#DejaVuSans-Bold-43"/>
     <use xlink:href="#DejaVuSans-Bold-61" transform="translate(73.388672 0)"/>
     <use xlink:href="#DejaVuSans-Bold-73" transform="translate(140.869141 0)"/>
     <use xlink:href="#DejaVuSans-Bold-65" transform="translate(200.390625 0)"/>
     <use xlink:href="#DejaVuSans-Bold-20" transform="translate(268.212891 0)"/>
     <use xlink:href="#DejaVuSans-Bold-42" transform="translate(303.027344 0)"/>
     <use xlink:href="#DejaVuSans-Bold-3a" transform="translate(379.248047 0)"/>
     <use xlink:href="#DejaVuSans-Bold-20" transform="translate(419.238281 0)"/>
     <use xlink:href="#DejaVuSans-Bold-53" transform="translate(454.052734 0)"/>
     <use xlink:href="#DejaVuSans-Bold-75" transform="translate(526.074219 0)"/>
     <use xlink:href="#DejaVuSans-Bold-6e" transform="translate(597.265625 0)"/>
     <use xlink:href="#DejaVuSans-Bold-20" transform="translate(668.457031 0)"/>
     <use xlink:href="#DejaVuSans-Bold-70" transform="translate(703.271484 0)"/>
     <use xlink:href="#DejaVuSans-Bold-65" transform="translate(774.853516 0)"/>
     <use xlink:href="#DejaVuSans-Bold-72" transform="translate(842.675781 0)"/>
     <use xlink:href="#DejaVuSans-Bold-70" transform="translate(891.992188 0)"/>
     <use xlink:href="#DejaVuSans-Bold-65" transform="translate(963.574219 0)"/>
     <use xlink:href="#DejaVuSans-Bold-6e" transform="translate(1031.396484 0)"/>
     <use xlink:href="#DejaVuSans-Bold-64" transform="translate(1102.587891 0)"/>
     <use xlink:href="#DejaVuSans-Bold-69" transform="translate(1174.169922 0)"/>
     <use xlink:href="#DejaVuSans-Bold-63" transform="translate(1208.447266 0)"/>
     <use xlink:href="#DejaVuSans-Bold-75" transform="translate(1267.724609 0)"/>
     <use xlink:href="#DejaVuSans-Bold-6c" transform="translate(1338.916016 0)"/>
     <use xlink:href="#DejaVuSans-Bold-61" transform="translate(1373.193359 0)"/>
     <use xlink:href="#DejaVuSans-Bold-72" transform="translate(1440.673828 0)"/>
     <use xlink:href="#DejaVuSans-Bold-20" transform="translate(1489.990234 0)"/>
     <use xlink:href="#DejaVuSans-Bold-74" transform="translate(1524.804688 0)"/>
     <use xlink:href="#DejaVuSans-Bold-6f" transform="translate(1572.607422 0)"/>
     <use xlink:href="#DejaVuSans-Bold-20" transform="translate(1641.308594 0)"/>
     <use xlink:href="#DejaVuSans-Bold-41" transform="translate(1676.123047 0)"/>
     <use xlink:href="#DejaVuSans-Bold-70" transform="translate(1753.515625 0)"/>
     <use xlink:href="#DejaVuSans-Bold-73" transform="translate(1825.097656 0)"/>
     <use xlink:href="#DejaVuSans-Bold-69" transform="translate(1884.619141 0)"/>
     <use xlink:href="#DejaVuSans-Bold-64" transform="translate(1918.896484 0)"/>
     <use xlink:href="#DejaVuSans-Bold-65" transform="translate(1990.478516 0)"/>
     <use xlink:href="#DejaVuSans-Bold-73" transform="translate(2058.300781 0)"/>
    </g>
    <!-- (Quadrature at Perigee/Apogee) -->
    <g transform="translate(536.475736 68.3284) scale(0.12 -0.12)">
     <defs>
      <path id="DejaVuSans-Bold-51" d="M 2847 -84 
L 2753 -84 
Q 1600 -84 959 553 
Q 319 1191 319 2328 
Q 319 3463 958 4106 
Q 1597 4750 2719 4750 
Q 3853 4750 4486 4112 
Q 5119 3475 5119 2328 
Q 5119 1541 4783 972 
Q 4447 403 3816 116 
L 4756 -934 
L 3609 -934 
L 2847 -84 
z
M 2719 3878 
Q 2169 3878 1866 3472 
Q 1563 3066 1563 2328 
Q 1563 1578 1859 1179 
Q 2156 781 2719 781 
Q 3272 781 3575 1187 
Q 3878 1594 3878 2328 
Q 3878 3066 3575 3472 
Q 3272 3878 2719 3878 
z
" transform="scale(0.015625)"/>
     </defs>
     <use xlink:href="#DejaVuSans-Bold-28"/>
     <use xlink:href="#DejaVuSans-Bold-51" transform="translate(45.703125 0)"/>
     <use xlink:href="#DejaVuSans-Bold-75" transform="translate(130.712891 0)"/>
     <use xlink:href="#DejaVuSans-Bold-61" transform="translate(201.904297 0)"/>
     <use xlink:href="#DejaVuSans-Bold-64" transform="translate(269.384766 0)"/>
     <use xlink:href="#DejaVuSans-Bold-72" transform="translate(340.966797 0)"/>
     <use xlink:href="#DejaVuSans-Bold-61" transform="translate(390.283203 0)"/>
     <use xlink:href="#DejaVuSans-Bold-74" transform="translate(457.763672 0)"/>
     <use xlink:href="#DejaVuSans-Bold-75" transform="translate(505.566406 0)"/>
     <use xlink:href="#DejaVuSans-Bold-72" transform="translate(576.757812 0)"/>
     <use xlink:href="#DejaVuSans-Bold-65" transform="translate(626.074219 0)"/>
     <use xlink:href="#DejaVuSans-Bold-20" transform="translate(693.896484 0)"/>
     <use xlink:href="#DejaVuSans-Bold-61" transform="translate(728.710938 0)"/>
     <use xlink:href="#DejaVuSans-Bold-74" transform="translate(796.191406 0)"/>
     <use xlink:href="#DejaVuSans-Bold-20" transform="translate(843.994141 0)"/>
     <use xlink:href="#DejaVuSans-Bold-50" transform="translate(878.808594 0)"/>
     <use xlink:href="#DejaVuSans-Bold-65" transform="translate(952.099609 0)"/>
     <use xlink:href="#DejaVuSans-Bold-72" transform="translate(1019.921875 0)"/>
     <use xlink:href="#DejaVuSans-Bold-69" transform="translate(1069.238281 0)"/>
     <use xlink:href="#DejaVuSans-Bold-67" transform="translate(1103.515625 0)"/>
     <use xlink:href="#DejaVuSans-Bold-65" transform="translate(1175.097656 0)"/>
     <use xlink:href="#DejaVuSans-Bold-65" transform="translate(1242.919922 0)"/>
     <use xlink:href="#DejaVuSans-Bold-2f" transform="translate(1310.742188 0)"/>
     <use xlink:href="#DejaVuSans-Bold-41" transform="translate(1347.265625 0)"/>
     <use xlink:href="#DejaVuSans-Bold-70" transform="translate(1424.658203 0)"/>
     <use xlink:href="#DejaVuSans-Bold-6f" transform="translate(1496.240234 0)"/>
     <use xlink:href="#DejaVuSans-Bold-67" transform="translate(1564.941406 0)"/>
     <use xlink:href="#DejaVuSans-Bold-65" transform="translate(1636.523438 0)"/>
     <use xlink:href="#DejaVuSans-Bold-65" transform="translate(1704.345703 0)"/>
     <use xlink:href="#DejaVuSans-Bold-29" transform="translate(1772.167969 0)"/>
    </g>
   </g>
   <g id="patch_7">
    <path d="M 626.671826 274.652817 
C 632.679423 274.652817 638.441774 272.265974 642.689787 268.017961 
C 646.937799 263.769948 649.324643 258.007597 649.324643 252 
C 649.324643 245.992403 646.937799 240.230052 642.689787 235.982039 
C 638.441774 231.734026 632.679423 229.347183 626.671826 229.347183 
C 620.664228 229.347183 614.901878 231.734026 610.653865 235.982039 
C 606.405852 240.230052 604.019008 245.992403 604.019008 252 
C 604.019008 258.007597 606.405852 263.769948 610.653865 268.017961 
C 614.901878 272.265974 620.664228 274.652817 626.671826 274.652817 
z
" clip-path="url(#p3b27a4b0ad)" style="fill: #e6f3ff; stroke: #0066cc; stroke-linejoin: miter"/>
   </g>
  </g>
 </g>
 <defs>
  <clipPath id="p9414501289">
   <rect x="11.796694" y="78.3284" width="415.301653" height="347.343201"/>
  </clipPath>
  <clipPath id="p3b27a4b0ad">
   <rect x="437.898347" y="78.3284" width="415.301653" height="347.343201"/>
  </clipPath>
 </defs>
</svg>
