<?xml version="1.0" encoding="utf-8" standalone="no"?>
<!DOCTYPE svg PUBLIC "-//W3C//DTD SVG 1.1//EN"
  "http://www.w3.org/Graphics/SVG/1.1/DTD/svg11.dtd">
<svg xmlns:xlink="http://www.w3.org/1999/xlink" width="720pt" height="576pt" viewBox="0 0 720 576" xmlns="http://www.w3.org/2000/svg" version="1.1">
 <metadata>
  <rdf:RDF xmlns:dc="http://purl.org/dc/elements/1.1/" xmlns:cc="http://creativecommons.org/ns#" xmlns:rdf="http://www.w3.org/1999/02/22-rdf-syntax-ns#">
   <cc:Work>
    <dc:type rdf:resource="http://purl.org/dc/dcmitype/StillImage"/>
    <dc:date>2025-11-24T01:23:04.945352</dc:date>
    <dc:format>image/svg+xml</dc:format>
    <dc:creator>
     <cc:Agent>
      <dc:title>Matplotlib v3.10.7, https://matplotlib.org/</dc:title>
     </cc:Agent>
    </dc:creator>
   </cc:Work>
  </rdf:RDF>
 </metadata>
 <defs>
  <style type="text/css">*{stroke-linejoin: round; stroke-linecap: butt}</style>
 </defs>
 <g id="figure_1">
  <g id="patch_1">
   <path d="M 0 576 
L 720 576 
L 720 0 
L 0 0 
z
" style="fill: #ffffff"/>
  </g>
  <g id="axes_1">
   <g id="patch_2">
    <path d="M 532.40832 449.6328 
L 543.18384 444.24504 
L 543.18384 449.578922 
L 597.06144 449.578922 
L 597.06144 449.686678 
L 543.18384 449.686678 
L 543.18384 455.02056 
z
" clip-path="url(#p6d1bef1e52)" style="fill: #ffa500; stroke: #ffa500; stroke-linejoin: miter"/>
   </g>
   <g id="patch_3">
    <path d="M 532.40832 368.8164 
L 543.18384 363.42864 
L 543.18384 368.762522 
L 597.06144 368.762522 
L 597.06144 368.870278 
L 543.18384 368.870278 
L 543.18384 374.20416 
z
" clip-path="url(#p6d1bef1e52)" style="fill: #ffa500; stroke: #ffa500; stroke-linejoin: miter"/>
   </g>
   <g id="patch_4">
    <path d="M 532.40832 288 
L 543.18384 282.61224 
L 543.18384 287.946122 
L 597.06144 287.946122 
L 597.06144 288.053878 
L 543.18384 288.053878 
L 543.18384 293.38776 
z
" clip-path="url(#p6d1bef1e52)" style="fill: #ffa500; stroke: #ffa500; stroke-linejoin: miter"/>
   </g>
   <g id="patch_5">
    <path d="M 532.40832 207.1836 
L 543.18384 201.79584 
L 543.18384 207.129722 
L 597.06144 207.129722 
L 597.06144 207.237478 
L 543.18384 207.237478 
L 543.18384 212.57136 
z
" clip-path="url(#p6d1bef1e52)" style="fill: #ffa500; stroke: #ffa500; stroke-linejoin: miter"/>
   </g>
   <g id="patch_6">
    <path d="M 532.40832 126.3672 
L 543.18384 120.97944 
L 543.18384 126.313322 
L 597.06144 126.313322 
L 597.06144 126.421078 
L 543.18384 126.421078 
L 543.18384 131.75496 
z
" clip-path="url(#p6d1bef1e52)" style="fill: #ffa500; stroke: #ffa500; stroke-linejoin: miter"/>
   </g>
   <g id="patch_7">
    <path d="M 360 449.6328 
C 402.86552 449.6328 443.981149 432.602149 474.291649 402.291649 
C 504.602149 371.981149 521.6328 330.86552 521.6328 288 
C 521.6328 245.13448 504.602149 204.018851 474.291649 173.708351 
C 443.981149 143.397851 402.86552 126.3672 360 126.3672 
C 317.13448 126.3672 276.018851 143.397851 245.708351 173.708351 
C 215.397851 204.018851 198.3672 245.13448 198.3672 288 
C 198.3672 330.86552 215.397851 371.981149 245.708351 402.291649 
C 276.018851 432.602149 317.13448 449.6328 360 449.6328 
L 360 449.6328 
z
" clip-path="url(#p6d1bef1e52)" style="fill: none; opacity: 0.5; stroke-dasharray: 3.7,1.6; stroke-dashoffset: 0; stroke: #808080; stroke-linejoin: miter"/>
   </g>
   <g id="patch_8">
    <path d="M 521.6328 304.16328 
C 525.917924 304.16328 530.031924 302.459205 533.061965 299.429165 
C 536.092005 296.399124 537.79608 292.285124 537.79608 288 
C 537.79608 283.714876 536.092005 279.600876 533.061965 276.570835 
C 530.031924 273.540795 525.917924 271.83672 521.6328 271.83672 
L 521.6328 288 
z
" clip-path="url(#p6d1bef1e52)" style="fill: #ffffff; stroke: #000000; stroke-linejoin: miter"/>
   </g>
   <g id="patch_9">
    <path d="M 521.6328 271.83672 
C 517.347676 271.83672 513.233676 273.540795 510.203635 276.570835 
C 507.173595 279.600876 505.46952 283.714876 505.46952 288 
C 505.46952 292.285124 507.173595 296.399124 510.203635 299.429165 
C 513.233676 302.459205 517.347676 304.16328 521.6328 304.16328 
L 521.6328 288 
z
" clip-path="url(#p6d1bef1e52)" style="stroke: #000000; stroke-linejoin: miter"/>
   </g>
   <g id="patch_10">
    <path d="M 578.20428 304.16328 
C 582.490832 304.16328 586.602395 302.460215 589.633445 299.429165 
C 592.664495 296.398115 594.36756 292.286552 594.36756 288 
C 594.36756 283.713448 592.664495 279.601885 589.633445 276.570835 
C 586.602395 273.539785 582.490832 271.83672 578.20428 271.83672 
C 573.917728 271.83672 569.806165 273.539785 566.775115 276.570835 
C 563.744065 279.601885 562.041 283.713448 562.041 288 
C 562.041 292.286552 563.744065 296.398115 566.775115 299.429165 
C 569.806165 302.460215 573.917728 304.16328 578.20428 304.16328 
z
" clip-path="url(#p6d1bef1e52)" style="stroke: #000000; stroke-linejoin: miter"/>
   </g>
   <g id="patch_11">
    <path d="M 474.291649 189.871631 
C 478.576773 189.871631 482.690773 188.167556 485.720814 185.137516 
C 488.750854 182.107475 490.454929 177.993475 490.454929 173.708351 
C 490.454929 169.423227 488.750854 165.309227 485.720814 162.279186 
C 482.690773 159.249146 478.576773 157.545071 474.291649 157.545071 
L 474.291649 173.708351 
z
" clip-path="url(#p6d1bef1e52)" style="fill: #ffffff; stroke: #000000; stroke-linejoin: miter"/>
   </g>
   <g id="patch_12">
    <path d="M 474.291649 157.545071 
C 470.006525 157.545071 465.892525 159.249146 462.862484 162.279186 
C 459.832444 165.309227 458.128369 169.423227 458.128369 173.708351 
C 458.128369 177.993475 459.832444 182.107475 462.862484 185.137516 
C 465.892525 188.167556 470.006525 189.871631 474.291649 189.871631 
L 474.291649 173.708351 
z
" clip-path="url(#p6d1bef1e52)" style="stroke: #000000; stroke-linejoin: miter"/>
   </g>
   <g id="patch_13">
    <path d="M 514.293726 149.869554 
C 518.580278 149.869554 522.691841 148.166489 525.722891 145.135439 
C 528.753941 142.104389 530.457006 137.992826 530.457006 133.706274 
C 530.457006 129.419722 528.753941 125.308159 525.722891 122.277109 
C 522.691841 119.246059 518.580278 117.542994 514.293726 117.542994 
C 510.007174 117.542994 505.895611 119.246059 502.864561 122.277109 
C 499.833511 125.308159 498.130446 129.419722 498.130446 133.706274 
C 498.130446 137.992826 499.833511 142.104389 502.864561 145.135439 
C 505.895611 148.166489 510.007174 149.869554 514.293726 149.869554 
z
" clip-path="url(#p6d1bef1e52)" style="stroke: #000000; stroke-linejoin: miter"/>
   </g>
   <g id="patch_14">
    <path d="M 514.293726 149.869554 
C 518.57885 149.869554 522.692851 148.165479 525.722891 145.135439 
C 528.752931 142.105398 530.457006 137.991398 530.457006 133.706274 
C 530.457006 129.42115 528.752931 125.307149 525.722891 122.277109 
C 522.692851 119.247069 518.57885 117.542994 514.293726 117.542994 
L 514.293726 133.706274 
z
" clip-path="url(#p6d1bef1e52)" style="fill: #ffffff"/>
   </g>
   <g id="patch_15">
    <path d="M 514.293726 149.869554 
C 517.324776 149.869554 520.23209 148.166489 522.375366 145.135439 
C 524.518642 142.104389 525.722891 137.992826 525.722891 133.706274 
C 525.722891 129.419722 524.518642 125.308159 522.375366 122.277109 
C 520.23209 119.246059 517.324776 117.542994 514.293726 117.542994 
C 511.262676 117.542994 508.355362 119.246059 506.212086 122.277109 
C 504.06881 125.308159 502.864561 129.419722 502.864561 133.706274 
C 502.864561 137.992826 504.06881 142.104389 506.212086 145.135439 
C 508.355362 148.166489 511.262676 149.869554 514.293726 149.869554 
z
" clip-path="url(#p6d1bef1e52)"/>
   </g>
   <g id="patch_16">
    <path d="M 514.293726 149.869554 
C 518.580278 149.869554 522.691841 148.166489 525.722891 145.135439 
C 528.753941 142.104389 530.457006 137.992826 530.457006 133.706274 
C 530.457006 129.419722 528.753941 125.308159 525.722891 122.277109 
C 522.691841 119.246059 518.580278 117.542994 514.293726 117.542994 
C 510.007174 117.542994 505.895611 119.246059 502.864561 122.277109 
C 499.833511 125.308159 498.130446 129.419722 498.130446 133.706274 
C 498.130446 137.992826 499.833511 142.104389 502.864561 145.135439 
C 505.895611 148.166489 510.007174 149.869554 514.293726 149.869554 
L 514.293726 149.869554 
z
" clip-path="url(#p6d1bef1e52)" style="fill: none; stroke: #000000; stroke-linejoin: miter"/>
   </g>
   <g id="patch_17">
    <path d="M 360 142.53048 
C 364.285124 142.53048 368.399124 140.826405 371.429165 137.796365 
C 374.459205 134.766324 376.16328 130.652324 376.16328 126.3672 
C 376.16328 122.082076 374.459205 117.968076 371.429165 114.938035 
C 368.399124 111.907995 364.285124 110.20392 360 110.20392 
L 360 126.3672 
z
" clip-path="url(#p6d1bef1e52)" style="fill: #ffffff; stroke: #000000; stroke-linejoin: miter"/>
   </g>
   <g id="patch_18">
    <path d="M 360 110.20392 
C 355.714876 110.20392 351.600876 111.907995 348.570835 114.938035 
C 345.540795 117.968076 343.83672 122.082076 343.83672 126.3672 
C 343.83672 130.652324 345.540795 134.766324 348.570835 137.796365 
C 351.600876 140.826405 355.714876 142.53048 360 142.53048 
L 360 126.3672 
z
" clip-path="url(#p6d1bef1e52)" style="stroke: #000000; stroke-linejoin: miter"/>
   </g>
   <g id="patch_19">
    <path d="M 360 85.959 
C 364.286552 85.959 368.398115 84.255935 371.429165 81.224885 
C 374.460215 78.193835 376.16328 74.082272 376.16328 69.79572 
C 376.16328 65.509168 374.460215 61.397605 371.429165 58.366555 
C 368.398115 55.335505 364.286552 53.63244 360 53.63244 
C 355.713448 53.63244 351.601885 55.335505 348.570835 58.366555 
C 345.539785 61.397605 343.83672 65.509168 343.83672 69.79572 
C 343.83672 74.082272 345.539785 78.193835 348.570835 81.224885 
C 351.601885 84.255935 355.713448 85.959 360 85.959 
z
" clip-path="url(#p6d1bef1e52)" style="stroke: #000000; stroke-linejoin: miter"/>
   </g>
   <g id="patch_20">
    <path d="M 360 85.959 
C 364.285124 85.959 368.399124 84.254925 371.429165 81.224885 
C 374.459205 78.194844 376.16328 74.080844 376.16328 69.79572 
C 376.16328 65.510596 374.459205 61.396596 371.429165 58.366555 
C 368.399124 55.336515 364.285124 53.63244 360 53.63244 
L 360 69.79572 
z
" clip-path="url(#p6d1bef1e52)" style="fill: #ffffff; stroke: #000000; stroke-linejoin: miter"/>
   </g>
   <g id="patch_21">
    <path d="M 245.708351 189.871631 
C 249.993475 189.871631 254.107475 188.167556 257.137516 185.137516 
C 260.167556 182.107475 261.871631 177.993475 261.871631 173.708351 
C 261.871631 169.423227 260.167556 165.309227 257.137516 162.279186 
C 254.107475 159.249146 249.993475 157.545071 245.708351 157.545071 
L 245.708351 173.708351 
z
" clip-path="url(#p6d1bef1e52)" style="fill: #ffffff; stroke: #000000; stroke-linejoin: miter"/>
   </g>
   <g id="patch_22">
    <path d="M 245.708351 157.545071 
C 241.423227 157.545071 237.309227 159.249146 234.279186 162.279186 
C 231.249146 165.309227 229.545071 169.423227 229.545071 173.708351 
C 229.545071 177.993475 231.249146 182.107475 234.279186 185.137516 
C 237.309227 188.167556 241.423227 189.871631 245.708351 189.871631 
L 245.708351 173.708351 
z
" clip-path="url(#p6d1bef1e52)" style="stroke: #000000; stroke-linejoin: miter"/>
   </g>
   <g id="patch_23">
    <path d="M 205.706274 149.869554 
C 209.992826 149.869554 214.104389 148.166489 217.135439 145.135439 
C 220.166489 142.104389 221.869554 137.992826 221.869554 133.706274 
C 221.869554 129.419722 220.166489 125.308159 217.135439 122.277109 
C 214.104389 119.246059 209.992826 117.542994 205.706274 117.542994 
C 201.419722 117.542994 197.308159 119.246059 194.277109 122.277109 
C 191.246059 125.308159 189.542994 129.419722 189.542994 133.706274 
C 189.542994 137.992826 191.246059 142.104389 194.277109 145.135439 
C 197.308159 148.166489 201.419722 149.869554 205.706274 149.869554 
z
" clip-path="url(#p6d1bef1e52)" style="stroke: #000000; stroke-linejoin: miter"/>
   </g>
   <g id="patch_24">
    <path d="M 205.706274 149.869554 
C 209.991398 149.869554 214.105398 148.165479 217.135439 145.135439 
C 220.165479 142.105398 221.869554 137.991398 221.869554 133.706274 
C 221.869554 129.42115 220.165479 125.307149 217.135439 122.277109 
C 214.105398 119.247069 209.991398 117.542994 205.706274 117.542994 
L 205.706274 133.706274 
z
" clip-path="url(#p6d1bef1e52)" style="fill: #ffffff"/>
   </g>
   <g id="patch_25">
    <path d="M 205.706274 149.869554 
C 208.737324 149.869554 211.644638 148.166489 213.787914 145.135439 
C 215.93119 142.104389 217.135439 137.992826 217.135439 133.706274 
C 217.135439 129.419722 215.93119 125.308159 213.787914 122.277109 
C 211.644638 119.246059 208.737324 117.542994 205.706274 117.542994 
C 202.675224 117.542994 199.76791 119.246059 197.624634 122.277109 
C 195.481358 125.308159 194.277109 129.419722 194.277109 133.706274 
C 194.277109 137.992826 195.481358 142.104389 197.624634 145.135439 
C 199.76791 148.166489 202.675224 149.869554 205.706274 149.869554 
z
" clip-path="url(#p6d1bef1e52)" style="fill: #ffffff"/>
   </g>
   <g id="patch_26">
    <path d="M 205.706274 149.869554 
C 209.992826 149.869554 214.104389 148.166489 217.135439 145.135439 
C 220.166489 142.104389 221.869554 137.992826 221.869554 133.706274 
C 221.869554 129.419722 220.166489 125.308159 217.135439 122.277109 
C 214.104389 119.246059 209.992826 117.542994 205.706274 117.542994 
C 201.419722 117.542994 197.308159 119.246059 194.277109 122.277109 
C 191.246059 125.308159 189.542994 129.419722 189.542994 133.706274 
C 189.542994 137.992826 191.246059 142.104389 194.277109 145.135439 
C 197.308159 148.166489 201.419722 149.869554 205.706274 149.869554 
L 205.706274 149.869554 
z
" clip-path="url(#p6d1bef1e52)" style="fill: none; stroke: #000000; stroke-linejoin: miter"/>
   </g>
   <g id="patch_27">
    <path d="M 198.3672 304.16328 
C 202.652324 304.16328 206.766324 302.459205 209.796365 299.429165 
C 212.826405 296.399124 214.53048 292.285124 214.53048 288 
C 214.53048 283.714876 212.826405 279.600876 209.796365 276.570835 
C 206.766324 273.540795 202.652324 271.83672 198.3672 271.83672 
L 198.3672 288 
z
" clip-path="url(#p6d1bef1e52)" style="fill: #ffffff; stroke: #000000; stroke-linejoin: miter"/>
   </g>
   <g id="patch_28">
    <path d="M 198.3672 271.83672 
C 194.082076 271.83672 189.968076 273.540795 186.938035 276.570835 
C 183.907995 279.600876 182.20392 283.714876 182.20392 288 
C 182.20392 292.285124 183.907995 296.399124 186.938035 299.429165 
C 189.968076 302.459205 194.082076 304.16328 198.3672 304.16328 
L 198.3672 288 
z
" clip-path="url(#p6d1bef1e52)" style="stroke: #000000; stroke-linejoin: miter"/>
   </g>
   <g id="patch_29">
    <path d="M 141.79572 304.16328 
C 146.082272 304.16328 150.193835 302.460215 153.224885 299.429165 
C 156.255935 296.398115 157.959 292.286552 157.959 288 
C 157.959 283.713448 156.255935 279.601885 153.224885 276.570835 
C 150.193835 273.539785 146.082272 271.83672 141.79572 271.83672 
C 137.509168 271.83672 133.397605 273.539785 130.366555 276.570835 
C 127.335505 279.601885 125.63244 283.713448 125.63244 288 
C 125.63244 292.286552 127.335505 296.398115 130.366555 299.429165 
C 133.397605 302.460215 137.509168 304.16328 141.79572 304.16328 
z
" clip-path="url(#p6d1bef1e52)" style="stroke: #000000; stroke-linejoin: miter"/>
   </g>
   <g id="patch_30">
    <path d="M 141.79572 304.16328 
C 146.082272 304.16328 150.193835 302.460215 153.224885 299.429165 
C 156.255935 296.398115 157.959 292.286552 157.959 288 
C 157.959 283.713448 156.255935 279.601885 153.224885 276.570835 
C 150.193835 273.539785 146.082272 271.83672 141.79572 271.83672 
C 137.509168 271.83672 133.397605 273.539785 130.366555 276.570835 
C 127.335505 279.601885 125.63244 283.713448 125.63244 288 
C 125.63244 292.286552 127.335505 296.398115 130.366555 299.429165 
C 133.397605 302.460215 137.509168 304.16328 141.79572 304.16328 
z
" clip-path="url(#p6d1bef1e52)" style="fill: #ffffff; stroke: #000000; stroke-linejoin: miter"/>
   </g>
   <g id="patch_31">
    <path d="M 245.708351 418.454929 
C 249.993475 418.454929 254.107475 416.750854 257.137516 413.720814 
C 260.167556 410.690773 261.871631 406.576773 261.871631 402.291649 
C 261.871631 398.006525 260.167556 393.892525 257.137516 390.862484 
C 254.107475 387.832444 249.993475 386.128369 245.708351 386.128369 
L 245.708351 402.291649 
z
" clip-path="url(#p6d1bef1e52)" style="fill: #ffffff; stroke: #000000; stroke-linejoin: miter"/>
   </g>
   <g id="patch_32">
    <path d="M 245.708351 386.128369 
C 241.423227 386.128369 237.309227 387.832444 234.279186 390.862484 
C 231.249146 393.892525 229.545071 398.006525 229.545071 402.291649 
C 229.545071 406.576773 231.249146 410.690773 234.279186 413.720814 
C 237.309227 416.750854 241.423227 418.454929 245.708351 418.454929 
L 245.708351 402.291649 
z
" clip-path="url(#p6d1bef1e52)" style="stroke: #000000; stroke-linejoin: miter"/>
   </g>
   <g id="patch_33">
    <path d="M 205.706274 458.457006 
C 209.992826 458.457006 214.104389 456.753941 217.135439 453.722891 
C 220.166489 450.691841 221.869554 446.580278 221.869554 442.293726 
C 221.869554 438.007174 220.166489 433.895611 217.135439 430.864561 
C 214.104389 427.833511 209.992826 426.130446 205.706274 426.130446 
C 201.419722 426.130446 197.308159 427.833511 194.277109 430.864561 
C 191.246059 433.895611 189.542994 438.007174 189.542994 442.293726 
C 189.542994 446.580278 191.246059 450.691841 194.277109 453.722891 
C 197.308159 456.753941 201.419722 458.457006 205.706274 458.457006 
z
" clip-path="url(#p6d1bef1e52)" style="stroke: #000000; stroke-linejoin: miter"/>
   </g>
   <g id="patch_34">
    <path d="M 205.706274 426.130446 
C 201.42115 426.130446 197.307149 427.834521 194.277109 430.864561 
C 191.247069 433.894602 189.542994 438.008602 189.542994 442.293726 
C 189.542994 446.57885 191.247069 450.692851 194.277109 453.722891 
C 197.307149 456.752931 201.42115 458.457006 205.706274 458.457006 
L 205.706274 442.293726 
z
" clip-path="url(#p6d1bef1e52)" style="fill: #ffffff"/>
   </g>
   <g id="patch_35">
    <path d="M 205.706274 458.457006 
C 208.737324 458.457006 211.644638 456.753941 213.787914 453.722891 
C 215.93119 450.691841 217.135439 446.580278 217.135439 442.293726 
C 217.135439 438.007174 215.93119 433.895611 213.787914 430.864561 
C 211.644638 427.833511 208.737324 426.130446 205.706274 426.130446 
C 202.675224 426.130446 199.76791 427.833511 197.624634 430.864561 
C 195.481358 433.895611 194.277109 438.007174 194.277109 442.293726 
C 194.277109 446.580278 195.481358 450.691841 197.624634 453.722891 
C 199.76791 456.753941 202.675224 458.457006 205.706274 458.457006 
z
" clip-path="url(#p6d1bef1e52)" style="fill: #ffffff"/>
   </g>
   <g id="patch_36">
    <path d="M 205.706274 458.457006 
C 209.992826 458.457006 214.104389 456.753941 217.135439 453.722891 
C 220.166489 450.691841 221.869554 446.580278 221.869554 442.293726 
C 221.869554 438.007174 220.166489 433.895611 217.135439 430.864561 
C 214.104389 427.833511 209.992826 426.130446 205.706274 426.130446 
C 201.419722 426.130446 197.308159 427.833511 194.277109 430.864561 
C 191.246059 433.895611 189.542994 438.007174 189.542994 442.293726 
C 189.542994 446.580278 191.246059 450.691841 194.277109 453.722891 
C 197.308159 456.753941 201.419722 458.457006 205.706274 458.457006 
L 205.706274 458.457006 
z
" clip-path="url(#p6d1bef1e52)" style="fill: none; stroke: #000000; stroke-linejoin: miter"/>
   </g>
   <g id="patch_37">
    <path d="M 360 465.79608 
C 364.285124 465.79608 368.399124 464.092005 371.429165 461.061965 
C 374.459205 458.031924 376.16328 453.917924 376.16328 449.6328 
C 376.16328 445.347676 374.459205 441.233676 371.429165 438.203635 
C 368.399124 435.173595 364.285124 433.46952 360 433.46952 
L 360 449.6328 
z
" clip-path="url(#p6d1bef1e52)" style="fill: #ffffff; stroke: #000000; stroke-linejoin: miter"/>
   </g>
   <g id="patch_38">
    <path d="M 360 433.46952 
C 355.714876 433.46952 351.600876 435.173595 348.570835 438.203635 
C 345.540795 441.233676 343.83672 445.347676 343.83672 449.6328 
C 343.83672 453.917924 345.540795 458.031924 348.570835 461.061965 
C 351.600876 464.092005 355.714876 465.79608 360 465.79608 
L 360 449.6328 
z
" clip-path="url(#p6d1bef1e52)" style="stroke: #000000; stroke-linejoin: miter"/>
   </g>
   <g id="patch_39">
    <path d="M 360 522.36756 
C 364.286552 522.36756 368.398115 520.664495 371.429165 517.633445 
C 374.460215 514.602395 376.16328 510.490832 376.16328 506.20428 
C 376.16328 501.917728 374.460215 497.806165 371.429165 494.775115 
C 368.398115 491.744065 364.286552 490.041 360 490.041 
C 355.713448 490.041 351.601885 491.744065 348.570835 494.775115 
C 345.539785 497.806165 343.83672 501.917728 343.83672 506.20428 
C 343.83672 510.490832 345.539785 514.602395 348.570835 517.633445 
C 351.601885 520.664495 355.713448 522.36756 360 522.36756 
z
" clip-path="url(#p6d1bef1e52)" style="stroke: #000000; stroke-linejoin: miter"/>
   </g>
   <g id="patch_40">
    <path d="M 360 490.041 
C 355.714876 490.041 351.600876 491.745075 348.570835 494.775115 
C 345.540795 497.805156 343.83672 501.919156 343.83672 506.20428 
C 343.83672 510.489404 345.540795 514.603404 348.570835 517.633445 
C 351.600876 520.663485 355.714876 522.36756 360 522.36756 
L 360 506.20428 
z
" clip-path="url(#p6d1bef1e52)" style="fill: #ffffff; stroke: #000000; stroke-linejoin: miter"/>
   </g>
   <g id="patch_41">
    <path d="M 474.291649 418.454929 
C 478.576773 418.454929 482.690773 416.750854 485.720814 413.720814 
C 488.750854 410.690773 490.454929 406.576773 490.454929 402.291649 
C 490.454929 398.006525 488.750854 393.892525 485.720814 390.862484 
C 482.690773 387.832444 478.576773 386.128369 474.291649 386.128369 
L 474.291649 402.291649 
z
" clip-path="url(#p6d1bef1e52)" style="fill: #ffffff; stroke: #000000; stroke-linejoin: miter"/>
   </g>
   <g id="patch_42">
    <path d="M 474.291649 386.128369 
C 470.006525 386.128369 465.892525 387.832444 462.862484 390.862484 
C 459.832444 393.892525 458.128369 398.006525 458.128369 402.291649 
C 458.128369 406.576773 459.832444 410.690773 462.862484 413.720814 
C 465.892525 416.750854 470.006525 418.454929 474.291649 418.454929 
L 474.291649 402.291649 
z
" clip-path="url(#p6d1bef1e52)" style="stroke: #000000; stroke-linejoin: miter"/>
   </g>
   <g id="patch_43">
    <path d="M 514.293726 458.457006 
C 518.580278 458.457006 522.691841 456.753941 525.722891 453.722891 
C 528.753941 450.691841 530.457006 446.580278 530.457006 442.293726 
C 530.457006 438.007174 528.753941 433.895611 525.722891 430.864561 
C 522.691841 427.833511 518.580278 426.130446 514.293726 426.130446 
C 510.007174 426.130446 505.895611 427.833511 502.864561 430.864561 
C 499.833511 433.895611 498.130446 438.007174 498.130446 442.293726 
C 498.130446 446.580278 499.833511 450.691841 502.864561 453.722891 
C 505.895611 456.753941 510.007174 458.457006 514.293726 458.457006 
z
" clip-path="url(#p6d1bef1e52)" style="stroke: #000000; stroke-linejoin: miter"/>
   </g>
   <g id="patch_44">
    <path d="M 514.293726 426.130446 
C 510.008602 426.130446 505.894602 427.834521 502.864561 430.864561 
C 499.834521 433.894602 498.130446 438.008602 498.130446 442.293726 
C 498.130446 446.57885 499.834521 450.692851 502.864561 453.722891 
C 505.894602 456.752931 510.008602 458.457006 514.293726 458.457006 
L 514.293726 442.293726 
z
" clip-path="url(#p6d1bef1e52)" style="fill: #ffffff"/>
   </g>
   <g id="patch_45">
    <path d="M 514.293726 458.457006 
C 517.324776 458.457006 520.23209 456.753941 522.375366 453.722891 
C 524.518642 450.691841 525.722891 446.580278 525.722891 442.293726 
C 525.722891 438.007174 524.518642 433.895611 522.375366 430.864561 
C 520.23209 427.833511 517.324776 426.130446 514.293726 426.130446 
C 511.262676 426.130446 508.355362 427.833511 506.212086 430.864561 
C 504.06881 433.895611 502.864561 438.007174 502.864561 442.293726 
C 502.864561 446.580278 504.06881 450.691841 506.212086 453.722891 
C 508.355362 456.753941 511.262676 458.457006 514.293726 458.457006 
z
" clip-path="url(#p6d1bef1e52)"/>
   </g>
   <g id="patch_46">
    <path d="M 514.293726 458.457006 
C 518.580278 458.457006 522.691841 456.753941 525.722891 453.722891 
C 528.753941 450.691841 530.457006 446.580278 530.457006 442.293726 
C 530.457006 438.007174 528.753941 433.895611 525.722891 430.864561 
C 522.691841 427.833511 518.580278 426.130446 514.293726 426.130446 
C 510.007174 426.130446 505.895611 427.833511 502.864561 430.864561 
C 499.833511 433.895611 498.130446 438.007174 498.130446 442.293726 
C 498.130446 446.580278 499.833511 450.691841 502.864561 453.722891 
C 505.895611 456.753941 510.007174 458.457006 514.293726 458.457006 
L 514.293726 458.457006 
z
" clip-path="url(#p6d1bef1e52)" style="fill: none; stroke: #000000; stroke-linejoin: miter"/>
   </g>
   <g id="text_1">
    <!-- Earth -->
    <g style="fill: #0066cc" transform="translate(344.795313 344.088278) scale(0.1 -0.1)">
     <defs>
      <path id="DejaVuSans-Bold-45" d="M 588 4666 
L 3834 4666 
L 3834 3756 
L 1791 3756 
L 1791 2888 
L 3713 2888 
L 3713 1978 
L 1791 1978 
L 1791 909 
L 3903 909 
L 3903 0 
L 588 0 
L 588 4666 
z
" transform="scale(0.015625)"/>
      <path id="DejaVuSans-Bold-61" d="M 2106 1575 
Q 1756 1575 1579 1456 
Q 1403 1338 1403 1106 
Q 1403 894 1545 773 
Q 1688 653 1941 653 
Q 2256 653 2472 879 
Q 2688 1106 2688 1447 
L 2688 1575 
L 2106 1575 
z
M 3816 1997 
L 3816 0 
L 2688 0 
L 2688 519 
Q 2463 200 2181 54 
Q 1900 -91 1497 -91 
Q 953 -91 614 226 
Q 275 544 275 1050 
Q 275 1666 698 1953 
Q 1122 2241 2028 2241 
L 2688 2241 
L 2688 2328 
Q 2688 2594 2478 2717 
Q 2269 2841 1825 2841 
Q 1466 2841 1156 2769 
Q 847 2697 581 2553 
L 581 3406 
Q 941 3494 1303 3539 
Q 1666 3584 2028 3584 
Q 2975 3584 3395 3211 
Q 3816 2838 3816 1997 
z
" transform="scale(0.015625)"/>
      <path id="DejaVuSans-Bold-72" d="M 3138 2547 
Q 2991 2616 2845 2648 
Q 2700 2681 2553 2681 
Q 2122 2681 1889 2404 
Q 1656 2128 1656 1613 
L 1656 0 
L 538 0 
L 538 3500 
L 1656 3500 
L 1656 2925 
Q 1872 3269 2151 3426 
Q 2431 3584 2822 3584 
Q 2878 3584 2943 3579 
Q 3009 3575 3134 3559 
L 3138 2547 
z
" transform="scale(0.015625)"/>
      <path id="DejaVuSans-Bold-74" d="M 1759 4494 
L 1759 3500 
L 2913 3500 
L 2913 2700 
L 1759 2700 
L 1759 1216 
Q 1759 972 1856 886 
Q 1953 800 2241 800 
L 2816 800 
L 2816 0 
L 1856 0 
Q 1194 0 917 276 
Q 641 553 641 1216 
L 641 2700 
L 84 2700 
L 84 3500 
L 641 3500 
L 641 4494 
L 1759 4494 
z
" transform="scale(0.015625)"/>
      <path id="DejaVuSans-Bold-68" d="M 4056 2131 
L 4056 0 
L 2931 0 
L 2931 347 
L 2931 1625 
Q 2931 2084 2911 2256 
Q 2891 2428 2841 2509 
Q 2775 2619 2662 2680 
Q 2550 2741 2406 2741 
Q 2056 2741 1856 2470 
Q 1656 2200 1656 1722 
L 1656 0 
L 538 0 
L 538 4863 
L 1656 4863 
L 1656 2988 
Q 1909 3294 2193 3439 
Q 2478 3584 2822 3584 
Q 3428 3584 3742 3212 
Q 4056 2841 4056 2131 
z
" transform="scale(0.015625)"/>
     </defs>
     <use xlink:href="#DejaVuSans-Bold-45"/>
     <use xlink:href="#DejaVuSans-Bold-61" transform="translate(68.310547 0)"/>
     <use xlink:href="#DejaVuSans-Bold-72" transform="translate(135.791016 0)"/>
     <use xlink:href="#DejaVuSans-Bold-74" transform="translate(185.107422 0)"/>
     <use xlink:href="#DejaVuSans-Bold-68" transform="translate(232.910156 0)"/>
    </g>
   </g>
   <g id="text_2">
    <!-- Sunlight -->
    <g style="fill: #ffa500" transform="translate(547.099462 83.26512) scale(0.12 -0.12)">
     <defs>
      <path id="DejaVuSans-Bold-53" d="M 3834 4519 
L 3834 3531 
Q 3450 3703 3084 3790 
Q 2719 3878 2394 3878 
Q 1963 3878 1756 3759 
Q 1550 3641 1550 3391 
Q 1550 3203 1689 3098 
Q 1828 2994 2194 2919 
L 2706 2816 
Q 3484 2659 3812 2340 
Q 4141 2022 4141 1434 
Q 4141 663 3683 286 
Q 3225 -91 2284 -91 
Q 1841 -91 1394 -6 
Q 947 78 500 244 
L 500 1259 
Q 947 1022 1364 901 
Q 1781 781 2169 781 
Q 2563 781 2772 912 
Q 2981 1044 2981 1288 
Q 2981 1506 2839 1625 
Q 2697 1744 2272 1838 
L 1806 1941 
Q 1106 2091 782 2419 
Q 459 2747 459 3303 
Q 459 4000 909 4375 
Q 1359 4750 2203 4750 
Q 2588 4750 2994 4692 
Q 3400 4634 3834 4519 
z
" transform="scale(0.015625)"/>
      <path id="DejaVuSans-Bold-75" d="M 500 1363 
L 500 3500 
L 1625 3500 
L 1625 3150 
Q 1625 2866 1622 2436 
Q 1619 2006 1619 1863 
Q 1619 1441 1641 1255 
Q 1663 1069 1716 984 
Q 1784 875 1895 815 
Q 2006 756 2150 756 
Q 2500 756 2700 1025 
Q 2900 1294 2900 1772 
L 2900 3500 
L 4019 3500 
L 4019 0 
L 2900 0 
L 2900 506 
Q 2647 200 2364 54 
Q 2081 -91 1741 -91 
Q 1134 -91 817 281 
Q 500 653 500 1363 
z
" transform="scale(0.015625)"/>
      <path id="DejaVuSans-Bold-6e" d="M 4056 2131 
L 4056 0 
L 2931 0 
L 2931 347 
L 2931 1631 
Q 2931 2084 2911 2256 
Q 2891 2428 2841 2509 
Q 2775 2619 2662 2680 
Q 2550 2741 2406 2741 
Q 2056 2741 1856 2470 
Q 1656 2200 1656 1722 
L 1656 0 
L 538 0 
L 538 3500 
L 1656 3500 
L 1656 2988 
Q 1909 3294 2193 3439 
Q 2478 3584 2822 3584 
Q 3428 3584 3742 3212 
Q 4056 2841 4056 2131 
z
" transform="scale(0.015625)"/>
      <path id="DejaVuSans-Bold-6c" d="M 538 4863 
L 1656 4863 
L 1656 0 
L 538 0 
L 538 4863 
z
" transform="scale(0.015625)"/>
      <path id="DejaVuSans-Bold-69" d="M 538 3500 
L 1656 3500 
L 1656 0 
L 538 0 
L 538 3500 
z
M 538 4863 
L 1656 4863 
L 1656 3950 
L 538 3950 
L 538 4863 
z
" transform="scale(0.015625)"/>
      <path id="DejaVuSans-Bold-67" d="M 2919 594 
Q 2688 288 2409 144 
Q 2131 0 1766 0 
Q 1125 0 706 504 
Q 288 1009 288 1791 
Q 288 2575 706 3076 
Q 1125 3578 1766 3578 
Q 2131 3578 2409 3434 
Q 2688 3291 2919 2981 
L 2919 3500 
L 4044 3500 
L 4044 353 
Q 4044 -491 3511 -936 
Q 2978 -1381 1966 -1381 
Q 1638 -1381 1331 -1331 
Q 1025 -1281 716 -1178 
L 716 -306 
Q 1009 -475 1290 -558 
Q 1572 -641 1856 -641 
Q 2406 -641 2662 -400 
Q 2919 -159 2919 353 
L 2919 594 
z
M 2181 2772 
Q 1834 2772 1640 2515 
Q 1447 2259 1447 1791 
Q 1447 1309 1634 1061 
Q 1822 813 2181 813 
Q 2531 813 2725 1069 
Q 2919 1325 2919 1791 
Q 2919 2259 2725 2515 
Q 2531 2772 2181 2772 
z
" transform="scale(0.015625)"/>
     </defs>
     <use xlink:href="#DejaVuSans-Bold-53"/>
     <use xlink:href="#DejaVuSans-Bold-75" transform="translate(72.021484 0)"/>
     <use xlink:href="#DejaVuSans-Bold-6e" transform="translate(143.212891 0)"/>
     <use xlink:href="#DejaVuSans-Bold-6c" transform="translate(214.404297 0)"/>
     <use xlink:href="#DejaVuSans-Bold-69" transform="translate(248.681641 0)"/>
     <use xlink:href="#DejaVuSans-Bold-67" transform="translate(282.958984 0)"/>
     <use xlink:href="#DejaVuSans-Bold-68" transform="translate(354.541016 0)"/>
     <use xlink:href="#DejaVuSans-Bold-74" transform="translate(425.732422 0)"/>
    </g>
   </g>
   <g id="text_3">
    <!-- New Moon -->
    <g transform="translate(603.413944 290.759375) scale(0.1 -0.1)">
     <defs>
      <path id="DejaVuSans-Bold-4e" d="M 588 4666 
L 1931 4666 
L 3628 1466 
L 3628 4666 
L 4769 4666 
L 4769 0 
L 3425 0 
L 1728 3200 
L 1728 0 
L 588 0 
L 588 4666 
z
" transform="scale(0.015625)"/>
      <path id="DejaVuSans-Bold-65" d="M 4031 1759 
L 4031 1441 
L 1416 1441 
Q 1456 1047 1700 850 
Q 1944 653 2381 653 
Q 2734 653 3104 758 
Q 3475 863 3866 1075 
L 3866 213 
Q 3469 63 3072 -14 
Q 2675 -91 2278 -91 
Q 1328 -91 801 392 
Q 275 875 275 1747 
Q 275 2603 792 3093 
Q 1309 3584 2216 3584 
Q 3041 3584 3536 3087 
Q 4031 2591 4031 1759 
z
M 2881 2131 
Q 2881 2450 2695 2645 
Q 2509 2841 2209 2841 
Q 1884 2841 1681 2658 
Q 1478 2475 1428 2131 
L 2881 2131 
z
" transform="scale(0.015625)"/>
      <path id="DejaVuSans-Bold-77" d="M 225 3500 
L 1313 3500 
L 1900 1088 
L 2491 3500 
L 3425 3500 
L 4013 1113 
L 4603 3500 
L 5691 3500 
L 4769 0 
L 3547 0 
L 2956 2406 
L 2369 0 
L 1147 0 
L 225 3500 
z
" transform="scale(0.015625)"/>
      <path id="DejaVuSans-Bold-20" transform="scale(0.015625)"/>
      <path id="DejaVuSans-Bold-4d" d="M 588 4666 
L 2119 4666 
L 3181 2169 
L 4250 4666 
L 5778 4666 
L 5778 0 
L 4641 0 
L 4641 3413 
L 3566 897 
L 2803 897 
L 1728 3413 
L 1728 0 
L 588 0 
L 588 4666 
z
" transform="scale(0.015625)"/>
      <path id="DejaVuSans-Bold-6f" d="M 2203 2784 
Q 1831 2784 1636 2517 
Q 1441 2250 1441 1747 
Q 1441 1244 1636 976 
Q 1831 709 2203 709 
Q 2569 709 2762 976 
Q 2956 1244 2956 1747 
Q 2956 2250 2762 2517 
Q 2569 2784 2203 2784 
z
M 2203 3584 
Q 3106 3584 3614 3096 
Q 4122 2609 4122 1747 
Q 4122 884 3614 396 
Q 3106 -91 2203 -91 
Q 1297 -91 786 396 
Q 275 884 275 1747 
Q 275 2609 786 3096 
Q 1297 3584 2203 3584 
z
" transform="scale(0.015625)"/>
     </defs>
     <use xlink:href="#DejaVuSans-Bold-4e"/>
     <use xlink:href="#DejaVuSans-Bold-65" transform="translate(83.691406 0)"/>
     <use xlink:href="#DejaVuSans-Bold-77" transform="translate(151.513672 0)"/>
     <use xlink:href="#DejaVuSans-Bold-20" transform="translate(243.896484 0)"/>
     <use xlink:href="#DejaVuSans-Bold-4d" transform="translate(278.710938 0)"/>
     <use xlink:href="#DejaVuSans-Bold-6f" transform="translate(378.222656 0)"/>
     <use xlink:href="#DejaVuSans-Bold-6f" transform="translate(446.923828 0)"/>
     <use xlink:href="#DejaVuSans-Bold-6e" transform="translate(515.625 0)"/>
    </g>
   </g>
   <g id="text_4">
    <!-- Waxing Crescent -->
    <g transform="translate(505.534345 97.853155) scale(0.1 -0.1)">
     <defs>
      <path id="DejaVuSans-Bold-57" d="M 191 4666 
L 1344 4666 
L 2150 1275 
L 2950 4666 
L 4109 4666 
L 4909 1275 
L 5716 4666 
L 6859 4666 
L 5759 0 
L 4372 0 
L 3525 3547 
L 2688 0 
L 1300 0 
L 191 4666 
z
" transform="scale(0.015625)"/>
      <path id="DejaVuSans-Bold-78" d="M 1422 1791 
L 159 3500 
L 1344 3500 
L 2059 2463 
L 2784 3500 
L 3969 3500 
L 2706 1797 
L 4031 0 
L 2847 0 
L 2059 1106 
L 1281 0 
L 97 0 
L 1422 1791 
z
" transform="scale(0.015625)"/>
      <path id="DejaVuSans-Bold-43" d="M 4288 256 
Q 3956 84 3597 -3 
Q 3238 -91 2847 -91 
Q 1681 -91 1000 561 
Q 319 1213 319 2328 
Q 319 3447 1000 4098 
Q 1681 4750 2847 4750 
Q 3238 4750 3597 4662 
Q 3956 4575 4288 4403 
L 4288 3438 
Q 3953 3666 3628 3772 
Q 3303 3878 2944 3878 
Q 2300 3878 1931 3465 
Q 1563 3053 1563 2328 
Q 1563 1606 1931 1193 
Q 2300 781 2944 781 
Q 3303 781 3628 887 
Q 3953 994 4288 1222 
L 4288 256 
z
" transform="scale(0.015625)"/>
      <path id="DejaVuSans-Bold-73" d="M 3272 3391 
L 3272 2541 
Q 2913 2691 2578 2766 
Q 2244 2841 1947 2841 
Q 1628 2841 1473 2761 
Q 1319 2681 1319 2516 
Q 1319 2381 1436 2309 
Q 1553 2238 1856 2203 
L 2053 2175 
Q 2913 2066 3209 1816 
Q 3506 1566 3506 1031 
Q 3506 472 3093 190 
Q 2681 -91 1863 -91 
Q 1516 -91 1145 -36 
Q 775 19 384 128 
L 384 978 
Q 719 816 1070 734 
Q 1422 653 1784 653 
Q 2113 653 2278 743 
Q 2444 834 2444 1013 
Q 2444 1163 2330 1236 
Q 2216 1309 1875 1350 
L 1678 1375 
Q 931 1469 631 1722 
Q 331 1975 331 2491 
Q 331 3047 712 3315 
Q 1094 3584 1881 3584 
Q 2191 3584 2531 3537 
Q 2872 3491 3272 3391 
z
" transform="scale(0.015625)"/>
      <path id="DejaVuSans-Bold-63" d="M 3366 3391 
L 3366 2478 
Q 3138 2634 2908 2709 
Q 2678 2784 2431 2784 
Q 1963 2784 1702 2511 
Q 1441 2238 1441 1747 
Q 1441 1256 1702 982 
Q 1963 709 2431 709 
Q 2694 709 2930 787 
Q 3166 866 3366 1019 
L 3366 103 
Q 3103 6 2833 -42 
Q 2563 -91 2291 -91 
Q 1344 -91 809 395 
Q 275 881 275 1747 
Q 275 2613 809 3098 
Q 1344 3584 2291 3584 
Q 2566 3584 2833 3536 
Q 3100 3488 3366 3391 
z
" transform="scale(0.015625)"/>
     </defs>
     <use xlink:href="#DejaVuSans-Bold-57"/>
     <use xlink:href="#DejaVuSans-Bold-61" transform="translate(106.677734 0)"/>
     <use xlink:href="#DejaVuSans-Bold-78" transform="translate(174.158203 0)"/>
     <use xlink:href="#DejaVuSans-Bold-69" transform="translate(238.660156 0)"/>
     <use xlink:href="#DejaVuSans-Bold-6e" transform="translate(272.9375 0)"/>
     <use xlink:href="#DejaVuSans-Bold-67" transform="translate(344.128906 0)"/>
     <use xlink:href="#DejaVuSans-Bold-20" transform="translate(415.710938 0)"/>
     <use xlink:href="#DejaVuSans-Bold-43" transform="translate(450.525391 0)"/>
     <use xlink:href="#DejaVuSans-Bold-72" transform="translate(523.914062 0)"/>
     <use xlink:href="#DejaVuSans-Bold-65" transform="translate(573.230469 0)"/>
     <use xlink:href="#DejaVuSans-Bold-73" transform="translate(641.052734 0)"/>
     <use xlink:href="#DejaVuSans-Bold-63" transform="translate(700.574219 0)"/>
     <use xlink:href="#DejaVuSans-Bold-65" transform="translate(759.851562 0)"/>
     <use xlink:href="#DejaVuSans-Bold-6e" transform="translate(827.673828 0)"/>
     <use xlink:href="#DejaVuSans-Bold-74" transform="translate(898.865234 0)"/>
    </g>
   </g>
   <g id="text_5">
    <!-- First Quarter -->
    <g transform="translate(323.401563 18.004025) scale(0.1 -0.1)">
     <defs>
      <path id="DejaVuSans-Bold-46" d="M 588 4666 
L 3834 4666 
L 3834 3756 
L 1791 3756 
L 1791 2888 
L 3713 2888 
L 3713 1978 
L 1791 1978 
L 1791 0 
L 588 0 
L 588 4666 
z
" transform="scale(0.015625)"/>
      <path id="DejaVuSans-Bold-51" d="M 2847 -84 
L 2753 -84 
Q 1600 -84 959 553 
Q 319 1191 319 2328 
Q 319 3463 958 4106 
Q 1597 4750 2719 4750 
Q 3853 4750 4486 4112 
Q 5119 3475 5119 2328 
Q 5119 1541 4783 972 
Q 4447 403 3816 116 
L 4756 -934 
L 3609 -934 
L 2847 -84 
z
M 2719 3878 
Q 2169 3878 1866 3472 
Q 1563 3066 1563 2328 
Q 1563 1578 1859 1179 
Q 2156 781 2719 781 
Q 3272 781 3575 1187 
Q 3878 1594 3878 2328 
Q 3878 3066 3575 3472 
Q 3272 3878 2719 3878 
z
" transform="scale(0.015625)"/>
     </defs>
     <use xlink:href="#DejaVuSans-Bold-46"/>
     <use xlink:href="#DejaVuSans-Bold-69" transform="translate(68.310547 0)"/>
     <use xlink:href="#DejaVuSans-Bold-72" transform="translate(102.587891 0)"/>
     <use xlink:href="#DejaVuSans-Bold-73" transform="translate(151.904297 0)"/>
     <use xlink:href="#DejaVuSans-Bold-74" transform="translate(211.425781 0)"/>
     <use xlink:href="#DejaVuSans-Bold-20" transform="translate(259.228516 0)"/>
     <use xlink:href="#DejaVuSans-Bold-51" transform="translate(294.042969 0)"/>
     <use xlink:href="#DejaVuSans-Bold-75" transform="translate(379.052734 0)"/>
     <use xlink:href="#DejaVuSans-Bold-61" transform="translate(450.244141 0)"/>
     <use xlink:href="#DejaVuSans-Bold-72" transform="translate(517.724609 0)"/>
     <use xlink:href="#DejaVuSans-Bold-74" transform="translate(567.041016 0)"/>
     <use xlink:href="#DejaVuSans-Bold-65" transform="translate(614.84375 0)"/>
     <use xlink:href="#DejaVuSans-Bold-72" transform="translate(682.666016 0)"/>
    </g>
   </g>
   <g id="text_6">
    <!-- Waxing Gibbous -->
    <g transform="translate(121.660967 97.853155) scale(0.1 -0.1)">
     <defs>
      <path id="DejaVuSans-Bold-47" d="M 4781 347 
Q 4331 128 3847 18 
Q 3363 -91 2847 -91 
Q 1681 -91 1000 561 
Q 319 1213 319 2328 
Q 319 3456 1012 4103 
Q 1706 4750 2913 4750 
Q 3378 4750 3804 4662 
Q 4231 4575 4609 4403 
L 4609 3438 
Q 4219 3659 3833 3768 
Q 3447 3878 3059 3878 
Q 2341 3878 1952 3476 
Q 1563 3075 1563 2328 
Q 1563 1588 1938 1184 
Q 2313 781 3003 781 
Q 3191 781 3352 804 
Q 3513 828 3641 878 
L 3641 1784 
L 2906 1784 
L 2906 2591 
L 4781 2591 
L 4781 347 
z
" transform="scale(0.015625)"/>
      <path id="DejaVuSans-Bold-62" d="M 2400 722 
Q 2759 722 2948 984 
Q 3138 1247 3138 1747 
Q 3138 2247 2948 2509 
Q 2759 2772 2400 2772 
Q 2041 2772 1848 2508 
Q 1656 2244 1656 1747 
Q 1656 1250 1848 986 
Q 2041 722 2400 722 
z
M 1656 2988 
Q 1888 3294 2169 3439 
Q 2450 3584 2816 3584 
Q 3463 3584 3878 3070 
Q 4294 2556 4294 1747 
Q 4294 938 3878 423 
Q 3463 -91 2816 -91 
Q 2450 -91 2169 54 
Q 1888 200 1656 506 
L 1656 0 
L 538 0 
L 538 4863 
L 1656 4863 
L 1656 2988 
z
" transform="scale(0.015625)"/>
     </defs>
     <use xlink:href="#DejaVuSans-Bold-57"/>
     <use xlink:href="#DejaVuSans-Bold-61" transform="translate(106.677734 0)"/>
     <use xlink:href="#DejaVuSans-Bold-78" transform="translate(174.158203 0)"/>
     <use xlink:href="#DejaVuSans-Bold-69" transform="translate(238.660156 0)"/>
     <use xlink:href="#DejaVuSans-Bold-6e" transform="translate(272.9375 0)"/>
     <use xlink:href="#DejaVuSans-Bold-67" transform="translate(344.128906 0)"/>
     <use xlink:href="#DejaVuSans-Bold-20" transform="translate(415.710938 0)"/>
     <use xlink:href="#DejaVuSans-Bold-47" transform="translate(450.525391 0)"/>
     <use xlink:href="#DejaVuSans-Bold-69" transform="translate(532.605469 0)"/>
     <use xlink:href="#DejaVuSans-Bold-62" transform="translate(566.882812 0)"/>
     <use xlink:href="#DejaVuSans-Bold-62" transform="translate(638.464844 0)"/>
     <use xlink:href="#DejaVuSans-Bold-6f" transform="translate(710.046875 0)"/>
     <use xlink:href="#DejaVuSans-Bold-75" transform="translate(778.748047 0)"/>
     <use xlink:href="#DejaVuSans-Bold-73" transform="translate(849.939453 0)"/>
    </g>
   </g>
   <g id="text_7">
    <!-- Full Moon -->
    <g transform="translate(59.945431 290.759375) scale(0.1 -0.1)">
     <use xlink:href="#DejaVuSans-Bold-46"/>
     <use xlink:href="#DejaVuSans-Bold-75" transform="translate(63.310547 0)"/>
     <use xlink:href="#DejaVuSans-Bold-6c" transform="translate(134.501953 0)"/>
     <use xlink:href="#DejaVuSans-Bold-6c" transform="translate(168.779297 0)"/>
     <use xlink:href="#DejaVuSans-Bold-20" transform="translate(203.056641 0)"/>
     <use xlink:href="#DejaVuSans-Bold-4d" transform="translate(237.871094 0)"/>
     <use xlink:href="#DejaVuSans-Bold-6f" transform="translate(337.382812 0)"/>
     <use xlink:href="#DejaVuSans-Bold-6f" transform="translate(406.083984 0)"/>
     <use xlink:href="#DejaVuSans-Bold-6e" transform="translate(474.785156 0)"/>
    </g>
   </g>
   <g id="text_8">
    <!-- Waning Gibbous -->
    <g transform="translate(121.326592 483.58747) scale(0.1 -0.1)">
     <use xlink:href="#DejaVuSans-Bold-57"/>
     <use xlink:href="#DejaVuSans-Bold-61" transform="translate(106.677734 0)"/>
     <use xlink:href="#DejaVuSans-Bold-6e" transform="translate(174.158203 0)"/>
     <use xlink:href="#DejaVuSans-Bold-69" transform="translate(245.349609 0)"/>
     <use xlink:href="#DejaVuSans-Bold-6e" transform="translate(279.626953 0)"/>
     <use xlink:href="#DejaVuSans-Bold-67" transform="translate(350.818359 0)"/>
     <use xlink:href="#DejaVuSans-Bold-20" transform="translate(422.400391 0)"/>
     <use xlink:href="#DejaVuSans-Bold-47" transform="translate(457.214844 0)"/>
     <use xlink:href="#DejaVuSans-Bold-69" transform="translate(539.294922 0)"/>
     <use xlink:href="#DejaVuSans-Bold-62" transform="translate(573.572266 0)"/>
     <use xlink:href="#DejaVuSans-Bold-62" transform="translate(645.154297 0)"/>
     <use xlink:href="#DejaVuSans-Bold-6f" transform="translate(716.736328 0)"/>
     <use xlink:href="#DejaVuSans-Bold-75" transform="translate(785.4375 0)"/>
     <use xlink:href="#DejaVuSans-Bold-73" transform="translate(856.628906 0)"/>
    </g>
   </g>
   <g id="text_9">
    <!-- Last Quarter -->
    <g transform="translate(324.436719 563.514725) scale(0.1 -0.1)">
     <defs>
      <path id="DejaVuSans-Bold-4c" d="M 588 4666 
L 1791 4666 
L 1791 909 
L 3903 909 
L 3903 0 
L 588 0 
L 588 4666 
z
" transform="scale(0.015625)"/>
     </defs>
     <use xlink:href="#DejaVuSans-Bold-4c"/>
     <use xlink:href="#DejaVuSans-Bold-61" transform="translate(63.720703 0)"/>
     <use xlink:href="#DejaVuSans-Bold-73" transform="translate(131.201172 0)"/>
     <use xlink:href="#DejaVuSans-Bold-74" transform="translate(190.722656 0)"/>
     <use xlink:href="#DejaVuSans-Bold-20" transform="translate(238.525391 0)"/>
     <use xlink:href="#DejaVuSans-Bold-51" transform="translate(273.339844 0)"/>
     <use xlink:href="#DejaVuSans-Bold-75" transform="translate(358.349609 0)"/>
     <use xlink:href="#DejaVuSans-Bold-61" transform="translate(429.541016 0)"/>
     <use xlink:href="#DejaVuSans-Bold-72" transform="translate(497.021484 0)"/>
     <use xlink:href="#DejaVuSans-Bold-74" transform="translate(546.337891 0)"/>
     <use xlink:href="#DejaVuSans-Bold-65" transform="translate(594.140625 0)"/>
     <use xlink:href="#DejaVuSans-Bold-72" transform="translate(661.962891 0)"/>
    </g>
   </g>
   <g id="text_10">
    <!-- Waning Crescent -->
    <g transform="translate(505.19997 483.58747) scale(0.1 -0.1)">
     <use xlink:href="#DejaVuSans-Bold-57"/>
     <use xlink:href="#DejaVuSans-Bold-61" transform="translate(106.677734 0)"/>
     <use xlink:href="#DejaVuSans-Bold-6e" transform="translate(174.158203 0)"/>
     <use xlink:href="#DejaVuSans-Bold-69" transform="translate(245.349609 0)"/>
     <use xlink:href="#DejaVuSans-Bold-6e" transform="translate(279.626953 0)"/>
     <use xlink:href="#DejaVuSans-Bold-67" transform="translate(350.818359 0)"/>
     <use xlink:href="#DejaVuSans-Bold-20" transform="translate(422.400391 0)"/>
     <use xlink:href="#DejaVuSans-Bold-43" transform="translate(457.214844 0)"/>
     <use xlink:href="#DejaVuSans-Bold-72" transform="translate(530.603516 0)"/>
     <use xlink:href="#DejaVuSans-Bold-65" transform="translate(579.919922 0)"/>
     <use xlink:href="#DejaVuSans-Bold-73" transform="translate(647.742188 0)"/>
     <use xlink:href="#DejaVuSans-Bold-63" transform="translate(707.263672 0)"/>
     <use xlink:href="#DejaVuSans-Bold-65" transform="translate(766.541016 0)"/>
     <use xlink:href="#DejaVuSans-Bold-6e" transform="translate(834.363281 0)"/>
     <use xlink:href="#DejaVuSans-Bold-74" transform="translate(905.554688 0)"/>
    </g>
   </g>
   <g id="patch_47">
    <path d="M 360 320.32656 
C 368.573104 320.32656 376.79623 316.92043 382.85833 310.85833 
C 388.92043 304.79623 392.32656 296.573104 392.32656 288 
C 392.32656 279.426896 388.92043 271.20377 382.85833 265.14167 
C 376.79623 259.07957 368.573104 255.67344 360 255.67344 
C 351.426896 255.67344 343.20377 259.07957 337.14167 265.14167 
C 331.07957 271.20377 327.67344 279.426896 327.67344 288 
C 327.67344 296.573104 331.07957 304.79623 337.14167 310.85833 
C 343.20377 316.92043 351.426896 320.32656 360 320.32656 
z
" clip-path="url(#p6d1bef1e52)" style="fill: #e6f3ff; stroke: #0066cc; stroke-linejoin: miter"/>
   </g>
  </g>
 </g>
 <defs>
  <clipPath id="p6d1bef1e52">
   <rect x="90.612" y="18.612" width="538.776" height="538.776"/>
  </clipPath>
 </defs>
</svg>
