<?xml version="1.0" encoding="utf-8" standalone="no"?>
<!DOCTYPE svg PUBLIC "-//W3C//DTD SVG 1.1//EN"
  "http://www.w3.org/Graphics/SVG/1.1/DTD/svg11.dtd">
<svg xmlns:xlink="http://www.w3.org/1999/xlink" width="720pt" height="576pt" viewBox="0 0 720 576" xmlns="http://www.w3.org/2000/svg" version="1.1">
 <metadata>
  <rdf:RDF xmlns:dc="http://purl.org/dc/elements/1.1/" xmlns:cc="http://creativecommons.org/ns#" xmlns:rdf="http://www.w3.org/1999/02/22-rdf-syntax-ns#">
   <cc:Work>
    <dc:type rdf:resource="http://purl.org/dc/dcmitype/StillImage"/>
    <dc:date>2025-11-30T12:37:11.590966</dc:date>
    <dc:format>image/svg+xml</dc:format>
    <dc:creator>
     <cc:Agent>
      <dc:title>Matplotlib v3.10.8, https://matplotlib.org/</dc:title>
     </cc:Agent>
    </dc:creator>
   </cc:Work>
  </rdf:RDF>
 </metadata>
 <defs>
  <style type="text/css">*{stroke-linejoin: round; stroke-linecap: butt}</style>
 </defs>
 <g id="figure_1">
  <g id="patch_1">
   <path d="M 0 576 
L 720 576 
L 720 0 
L 0 0 
z
" style="fill: #ffffff"/>
  </g>
  <g id="axes_1">
   <g id="patch_2">
    <path d="M 634.77234 449.6328 
L 645.54786 444.24504 
L 645.54786 449.578922 
L 699.42546 449.578922 
L 699.42546 449.686678 
L 645.54786 449.686678 
L 645.54786 455.02056 
z
" clip-path="url(#p3712b02728)" style="fill: #ffa500; stroke: #ffa500; stroke-linejoin: miter"/>
   </g>
   <g id="patch_3">
    <path d="M 634.77234 368.8164 
L 645.54786 363.42864 
L 645.54786 368.762522 
L 699.42546 368.762522 
L 699.42546 368.870278 
L 645.54786 368.870278 
L 645.54786 374.20416 
z
" clip-path="url(#p3712b02728)" style="fill: #ffa500; stroke: #ffa500; stroke-linejoin: miter"/>
   </g>
   <g id="patch_4">
    <path d="M 634.77234 288 
L 645.54786 282.61224 
L 645.54786 287.946122 
L 699.42546 287.946122 
L 699.42546 288.053878 
L 645.54786 288.053878 
L 645.54786 293.38776 
z
" clip-path="url(#p3712b02728)" style="fill: #ffa500; stroke: #ffa500; stroke-linejoin: miter"/>
   </g>
   <g id="patch_5">
    <path d="M 634.77234 207.1836 
L 645.54786 201.79584 
L 645.54786 207.129722 
L 699.42546 207.129722 
L 699.42546 207.237478 
L 645.54786 207.237478 
L 645.54786 212.57136 
z
" clip-path="url(#p3712b02728)" style="fill: #ffa500; stroke: #ffa500; stroke-linejoin: miter"/>
   </g>
   <g id="patch_6">
    <path d="M 634.77234 126.3672 
L 645.54786 120.97944 
L 645.54786 126.313322 
L 699.42546 126.313322 
L 699.42546 126.421078 
L 645.54786 126.421078 
L 645.54786 131.75496 
z
" clip-path="url(#p3712b02728)" style="fill: #ffa500; stroke: #ffa500; stroke-linejoin: miter"/>
   </g>
   <g id="patch_7">
    <path d="M 311.50674 449.6328 
C 354.37226 449.6328 395.487889 432.602149 425.798389 402.291649 
C 456.108889 371.981149 473.13954 330.86552 473.13954 288 
C 473.13954 245.13448 456.108889 204.018851 425.798389 173.708351 
C 395.487889 143.397851 354.37226 126.3672 311.50674 126.3672 
C 268.64122 126.3672 227.525591 143.397851 197.215091 173.708351 
C 166.904591 204.018851 149.87394 245.13448 149.87394 288 
C 149.87394 330.86552 166.904591 371.981149 197.215091 402.291649 
C 227.525591 432.602149 268.64122 449.6328 311.50674 449.6328 
L 311.50674 449.6328 
z
" clip-path="url(#p3712b02728)" style="fill: none; opacity: 0.5; stroke-dasharray: 3.7,1.6; stroke-dashoffset: 0; stroke: #808080; stroke-linejoin: miter"/>
   </g>
   <g id="patch_8">
    <path d="M 473.13954 304.16328 
C 477.424664 304.16328 481.538664 302.459205 484.568705 299.429165 
C 487.598745 296.399124 489.30282 292.285124 489.30282 288 
C 489.30282 283.714876 487.598745 279.600876 484.568705 276.570835 
C 481.538664 273.540795 477.424664 271.83672 473.13954 271.83672 
L 473.13954 288 
z
" clip-path="url(#p3712b02728)" style="fill: #ffffff; stroke: #000000; stroke-linejoin: miter"/>
   </g>
   <g id="patch_9">
    <path d="M 473.13954 271.83672 
C 468.854416 271.83672 464.740416 273.540795 461.710375 276.570835 
C 458.680335 279.600876 456.97626 283.714876 456.97626 288 
C 456.97626 292.285124 458.680335 296.399124 461.710375 299.429165 
C 464.740416 302.459205 468.854416 304.16328 473.13954 304.16328 
L 473.13954 288 
z
" clip-path="url(#p3712b02728)" style="stroke: #000000; stroke-linejoin: miter"/>
   </g>
   <g id="patch_10">
    <path d="M 529.71102 304.16328 
C 533.997572 304.16328 538.109135 302.460215 541.140185 299.429165 
C 544.171235 296.398115 545.8743 292.286552 545.8743 288 
C 545.8743 283.713448 544.171235 279.601885 541.140185 276.570835 
C 538.109135 273.539785 533.997572 271.83672 529.71102 271.83672 
C 525.424468 271.83672 521.312905 273.539785 518.281855 276.570835 
C 515.250805 279.601885 513.54774 283.713448 513.54774 288 
C 513.54774 292.286552 515.250805 296.398115 518.281855 299.429165 
C 521.312905 302.460215 525.424468 304.16328 529.71102 304.16328 
z
" clip-path="url(#p3712b02728)" style="stroke: #000000; stroke-linejoin: miter"/>
   </g>
   <g id="patch_11">
    <path d="M 425.798389 189.871631 
C 430.083513 189.871631 434.197513 188.167556 437.227554 185.137516 
C 440.257594 182.107475 441.961669 177.993475 441.961669 173.708351 
C 441.961669 169.423227 440.257594 165.309227 437.227554 162.279186 
C 434.197513 159.249146 430.083513 157.545071 425.798389 157.545071 
L 425.798389 173.708351 
z
" clip-path="url(#p3712b02728)" style="fill: #ffffff; stroke: #000000; stroke-linejoin: miter"/>
   </g>
   <g id="patch_12">
    <path d="M 425.798389 157.545071 
C 421.513265 157.545071 417.399265 159.249146 414.369224 162.279186 
C 411.339184 165.309227 409.635109 169.423227 409.635109 173.708351 
C 409.635109 177.993475 411.339184 182.107475 414.369224 185.137516 
C 417.399265 188.167556 421.513265 189.871631 425.798389 189.871631 
L 425.798389 173.708351 
z
" clip-path="url(#p3712b02728)" style="stroke: #000000; stroke-linejoin: miter"/>
   </g>
   <g id="patch_13">
    <path d="M 465.800466 149.869554 
C 470.087018 149.869554 474.198581 148.166489 477.229631 145.135439 
C 480.260681 142.104389 481.963746 137.992826 481.963746 133.706274 
C 481.963746 129.419722 480.260681 125.308159 477.229631 122.277109 
C 474.198581 119.246059 470.087018 117.542994 465.800466 117.542994 
C 461.513914 117.542994 457.402351 119.246059 454.371301 122.277109 
C 451.340251 125.308159 449.637186 129.419722 449.637186 133.706274 
C 449.637186 137.992826 451.340251 142.104389 454.371301 145.135439 
C 457.402351 148.166489 461.513914 149.869554 465.800466 149.869554 
z
" clip-path="url(#p3712b02728)" style="stroke: #000000; stroke-linejoin: miter"/>
   </g>
   <g id="patch_14">
    <path d="M 465.800466 149.869554 
C 470.08559 149.869554 474.199591 148.165479 477.229631 145.135439 
C 480.259671 142.105398 481.963746 137.991398 481.963746 133.706274 
C 481.963746 129.42115 480.259671 125.307149 477.229631 122.277109 
C 474.199591 119.247069 470.08559 117.542994 465.800466 117.542994 
L 465.800466 133.706274 
z
" clip-path="url(#p3712b02728)" style="fill: #ffffff"/>
   </g>
   <g id="patch_15">
    <path d="M 465.800466 149.869554 
C 468.831516 149.869554 471.73883 148.166489 473.882106 145.135439 
C 476.025382 142.104389 477.229631 137.992826 477.229631 133.706274 
C 477.229631 129.419722 476.025382 125.308159 473.882106 122.277109 
C 471.73883 119.246059 468.831516 117.542994 465.800466 117.542994 
C 462.769416 117.542994 459.862102 119.246059 457.718826 122.277109 
C 455.57555 125.308159 454.371301 129.419722 454.371301 133.706274 
C 454.371301 137.992826 455.57555 142.104389 457.718826 145.135439 
C 459.862102 148.166489 462.769416 149.869554 465.800466 149.869554 
z
" clip-path="url(#p3712b02728)"/>
   </g>
   <g id="patch_16">
    <path d="M 465.800466 149.869554 
C 470.087018 149.869554 474.198581 148.166489 477.229631 145.135439 
C 480.260681 142.104389 481.963746 137.992826 481.963746 133.706274 
C 481.963746 129.419722 480.260681 125.308159 477.229631 122.277109 
C 474.198581 119.246059 470.087018 117.542994 465.800466 117.542994 
C 461.513914 117.542994 457.402351 119.246059 454.371301 122.277109 
C 451.340251 125.308159 449.637186 129.419722 449.637186 133.706274 
C 449.637186 137.992826 451.340251 142.104389 454.371301 145.135439 
C 457.402351 148.166489 461.513914 149.869554 465.800466 149.869554 
L 465.800466 149.869554 
z
" clip-path="url(#p3712b02728)" style="fill: none; stroke: #000000; stroke-linejoin: miter"/>
   </g>
   <g id="patch_17">
    <path d="M 311.50674 142.53048 
C 315.791864 142.53048 319.905864 140.826405 322.935905 137.796365 
C 325.965945 134.766324 327.67002 130.652324 327.67002 126.3672 
C 327.67002 122.082076 325.965945 117.968076 322.935905 114.938035 
C 319.905864 111.907995 315.791864 110.20392 311.50674 110.20392 
L 311.50674 126.3672 
z
" clip-path="url(#p3712b02728)" style="fill: #ffffff; stroke: #000000; stroke-linejoin: miter"/>
   </g>
   <g id="patch_18">
    <path d="M 311.50674 110.20392 
C 307.221616 110.20392 303.107616 111.907995 300.077575 114.938035 
C 297.047535 117.968076 295.34346 122.082076 295.34346 126.3672 
C 295.34346 130.652324 297.047535 134.766324 300.077575 137.796365 
C 303.107616 140.826405 307.221616 142.53048 311.50674 142.53048 
L 311.50674 126.3672 
z
" clip-path="url(#p3712b02728)" style="stroke: #000000; stroke-linejoin: miter"/>
   </g>
   <g id="patch_19">
    <path d="M 311.50674 85.959 
C 315.793292 85.959 319.904855 84.255935 322.935905 81.224885 
C 325.966955 78.193835 327.67002 74.082272 327.67002 69.79572 
C 327.67002 65.509168 325.966955 61.397605 322.935905 58.366555 
C 319.904855 55.335505 315.793292 53.63244 311.50674 53.63244 
C 307.220188 53.63244 303.108625 55.335505 300.077575 58.366555 
C 297.046525 61.397605 295.34346 65.509168 295.34346 69.79572 
C 295.34346 74.082272 297.046525 78.193835 300.077575 81.224885 
C 303.108625 84.255935 307.220188 85.959 311.50674 85.959 
z
" clip-path="url(#p3712b02728)" style="stroke: #000000; stroke-linejoin: miter"/>
   </g>
   <g id="patch_20">
    <path d="M 311.50674 85.959 
C 315.791864 85.959 319.905864 84.254925 322.935905 81.224885 
C 325.965945 78.194844 327.67002 74.080844 327.67002 69.79572 
C 327.67002 65.510596 325.965945 61.396596 322.935905 58.366555 
C 319.905864 55.336515 315.791864 53.63244 311.50674 53.63244 
L 311.50674 69.79572 
z
" clip-path="url(#p3712b02728)" style="fill: #ffffff; stroke: #000000; stroke-linejoin: miter"/>
   </g>
   <g id="patch_21">
    <path d="M 197.215091 189.871631 
C 201.500215 189.871631 205.614215 188.167556 208.644256 185.137516 
C 211.674296 182.107475 213.378371 177.993475 213.378371 173.708351 
C 213.378371 169.423227 211.674296 165.309227 208.644256 162.279186 
C 205.614215 159.249146 201.500215 157.545071 197.215091 157.545071 
L 197.215091 173.708351 
z
" clip-path="url(#p3712b02728)" style="fill: #ffffff; stroke: #000000; stroke-linejoin: miter"/>
   </g>
   <g id="patch_22">
    <path d="M 197.215091 157.545071 
C 192.929967 157.545071 188.815967 159.249146 185.785926 162.279186 
C 182.755886 165.309227 181.051811 169.423227 181.051811 173.708351 
C 181.051811 177.993475 182.755886 182.107475 185.785926 185.137516 
C 188.815967 188.167556 192.929967 189.871631 197.215091 189.871631 
L 197.215091 173.708351 
z
" clip-path="url(#p3712b02728)" style="stroke: #000000; stroke-linejoin: miter"/>
   </g>
   <g id="patch_23">
    <path d="M 157.213014 149.869554 
C 161.499566 149.869554 165.611129 148.166489 168.642179 145.135439 
C 171.673229 142.104389 173.376294 137.992826 173.376294 133.706274 
C 173.376294 129.419722 171.673229 125.308159 168.642179 122.277109 
C 165.611129 119.246059 161.499566 117.542994 157.213014 117.542994 
C 152.926462 117.542994 148.814899 119.246059 145.783849 122.277109 
C 142.752799 125.308159 141.049734 129.419722 141.049734 133.706274 
C 141.049734 137.992826 142.752799 142.104389 145.783849 145.135439 
C 148.814899 148.166489 152.926462 149.869554 157.213014 149.869554 
z
" clip-path="url(#p3712b02728)" style="stroke: #000000; stroke-linejoin: miter"/>
   </g>
   <g id="patch_24">
    <path d="M 157.213014 149.869554 
C 161.498138 149.869554 165.612138 148.165479 168.642179 145.135439 
C 171.672219 142.105398 173.376294 137.991398 173.376294 133.706274 
C 173.376294 129.42115 171.672219 125.307149 168.642179 122.277109 
C 165.612138 119.247069 161.498138 117.542994 157.213014 117.542994 
L 157.213014 133.706274 
z
" clip-path="url(#p3712b02728)" style="fill: #ffffff"/>
   </g>
   <g id="patch_25">
    <path d="M 157.213014 149.869554 
C 160.244064 149.869554 163.151378 148.166489 165.294654 145.135439 
C 167.43793 142.104389 168.642179 137.992826 168.642179 133.706274 
C 168.642179 129.419722 167.43793 125.308159 165.294654 122.277109 
C 163.151378 119.246059 160.244064 117.542994 157.213014 117.542994 
C 154.181964 117.542994 151.27465 119.246059 149.131374 122.277109 
C 146.988098 125.308159 145.783849 129.419722 145.783849 133.706274 
C 145.783849 137.992826 146.988098 142.104389 149.131374 145.135439 
C 151.27465 148.166489 154.181964 149.869554 157.213014 149.869554 
z
" clip-path="url(#p3712b02728)" style="fill: #ffffff"/>
   </g>
   <g id="patch_26">
    <path d="M 157.213014 149.869554 
C 161.499566 149.869554 165.611129 148.166489 168.642179 145.135439 
C 171.673229 142.104389 173.376294 137.992826 173.376294 133.706274 
C 173.376294 129.419722 171.673229 125.308159 168.642179 122.277109 
C 165.611129 119.246059 161.499566 117.542994 157.213014 117.542994 
C 152.926462 117.542994 148.814899 119.246059 145.783849 122.277109 
C 142.752799 125.308159 141.049734 129.419722 141.049734 133.706274 
C 141.049734 137.992826 142.752799 142.104389 145.783849 145.135439 
C 148.814899 148.166489 152.926462 149.869554 157.213014 149.869554 
L 157.213014 149.869554 
z
" clip-path="url(#p3712b02728)" style="fill: none; stroke: #000000; stroke-linejoin: miter"/>
   </g>
   <g id="patch_27">
    <path d="M 149.87394 304.16328 
C 154.159064 304.16328 158.273064 302.459205 161.303105 299.429165 
C 164.333145 296.399124 166.03722 292.285124 166.03722 288 
C 166.03722 283.714876 164.333145 279.600876 161.303105 276.570835 
C 158.273064 273.540795 154.159064 271.83672 149.87394 271.83672 
L 149.87394 288 
z
" clip-path="url(#p3712b02728)" style="fill: #ffffff; stroke: #000000; stroke-linejoin: miter"/>
   </g>
   <g id="patch_28">
    <path d="M 149.87394 271.83672 
C 145.588816 271.83672 141.474816 273.540795 138.444775 276.570835 
C 135.414735 279.600876 133.71066 283.714876 133.71066 288 
C 133.71066 292.285124 135.414735 296.399124 138.444775 299.429165 
C 141.474816 302.459205 145.588816 304.16328 149.87394 304.16328 
L 149.87394 288 
z
" clip-path="url(#p3712b02728)" style="stroke: #000000; stroke-linejoin: miter"/>
   </g>
   <g id="patch_29">
    <path d="M 93.30246 304.16328 
C 97.589012 304.16328 101.700575 302.460215 104.731625 299.429165 
C 107.762675 296.398115 109.46574 292.286552 109.46574 288 
C 109.46574 283.713448 107.762675 279.601885 104.731625 276.570835 
C 101.700575 273.539785 97.589012 271.83672 93.30246 271.83672 
C 89.015908 271.83672 84.904345 273.539785 81.873295 276.570835 
C 78.842245 279.601885 77.13918 283.713448 77.13918 288 
C 77.13918 292.286552 78.842245 296.398115 81.873295 299.429165 
C 84.904345 302.460215 89.015908 304.16328 93.30246 304.16328 
z
" clip-path="url(#p3712b02728)" style="stroke: #000000; stroke-linejoin: miter"/>
   </g>
   <g id="patch_30">
    <path d="M 93.30246 304.16328 
C 97.589012 304.16328 101.700575 302.460215 104.731625 299.429165 
C 107.762675 296.398115 109.46574 292.286552 109.46574 288 
C 109.46574 283.713448 107.762675 279.601885 104.731625 276.570835 
C 101.700575 273.539785 97.589012 271.83672 93.30246 271.83672 
C 89.015908 271.83672 84.904345 273.539785 81.873295 276.570835 
C 78.842245 279.601885 77.13918 283.713448 77.13918 288 
C 77.13918 292.286552 78.842245 296.398115 81.873295 299.429165 
C 84.904345 302.460215 89.015908 304.16328 93.30246 304.16328 
z
" clip-path="url(#p3712b02728)" style="fill: #ffffff; stroke: #000000; stroke-linejoin: miter"/>
   </g>
   <g id="patch_31">
    <path d="M 197.215091 418.454929 
C 201.500215 418.454929 205.614215 416.750854 208.644256 413.720814 
C 211.674296 410.690773 213.378371 406.576773 213.378371 402.291649 
C 213.378371 398.006525 211.674296 393.892525 208.644256 390.862484 
C 205.614215 387.832444 201.500215 386.128369 197.215091 386.128369 
L 197.215091 402.291649 
z
" clip-path="url(#p3712b02728)" style="fill: #ffffff; stroke: #000000; stroke-linejoin: miter"/>
   </g>
   <g id="patch_32">
    <path d="M 197.215091 386.128369 
C 192.929967 386.128369 188.815967 387.832444 185.785926 390.862484 
C 182.755886 393.892525 181.051811 398.006525 181.051811 402.291649 
C 181.051811 406.576773 182.755886 410.690773 185.785926 413.720814 
C 188.815967 416.750854 192.929967 418.454929 197.215091 418.454929 
L 197.215091 402.291649 
z
" clip-path="url(#p3712b02728)" style="stroke: #000000; stroke-linejoin: miter"/>
   </g>
   <g id="patch_33">
    <path d="M 157.213014 458.457006 
C 161.499566 458.457006 165.611129 456.753941 168.642179 453.722891 
C 171.673229 450.691841 173.376294 446.580278 173.376294 442.293726 
C 173.376294 438.007174 171.673229 433.895611 168.642179 430.864561 
C 165.611129 427.833511 161.499566 426.130446 157.213014 426.130446 
C 152.926462 426.130446 148.814899 427.833511 145.783849 430.864561 
C 142.752799 433.895611 141.049734 438.007174 141.049734 442.293726 
C 141.049734 446.580278 142.752799 450.691841 145.783849 453.722891 
C 148.814899 456.753941 152.926462 458.457006 157.213014 458.457006 
z
" clip-path="url(#p3712b02728)" style="stroke: #000000; stroke-linejoin: miter"/>
   </g>
   <g id="patch_34">
    <path d="M 157.213014 426.130446 
C 152.92789 426.130446 148.813889 427.834521 145.783849 430.864561 
C 142.753809 433.894602 141.049734 438.008602 141.049734 442.293726 
C 141.049734 446.57885 142.753809 450.692851 145.783849 453.722891 
C 148.813889 456.752931 152.92789 458.457006 157.213014 458.457006 
L 157.213014 442.293726 
z
" clip-path="url(#p3712b02728)" style="fill: #ffffff"/>
   </g>
   <g id="patch_35">
    <path d="M 157.213014 458.457006 
C 160.244064 458.457006 163.151378 456.753941 165.294654 453.722891 
C 167.43793 450.691841 168.642179 446.580278 168.642179 442.293726 
C 168.642179 438.007174 167.43793 433.895611 165.294654 430.864561 
C 163.151378 427.833511 160.244064 426.130446 157.213014 426.130446 
C 154.181964 426.130446 151.27465 427.833511 149.131374 430.864561 
C 146.988098 433.895611 145.783849 438.007174 145.783849 442.293726 
C 145.783849 446.580278 146.988098 450.691841 149.131374 453.722891 
C 151.27465 456.753941 154.181964 458.457006 157.213014 458.457006 
z
" clip-path="url(#p3712b02728)" style="fill: #ffffff"/>
   </g>
   <g id="patch_36">
    <path d="M 157.213014 458.457006 
C 161.499566 458.457006 165.611129 456.753941 168.642179 453.722891 
C 171.673229 450.691841 173.376294 446.580278 173.376294 442.293726 
C 173.376294 438.007174 171.673229 433.895611 168.642179 430.864561 
C 165.611129 427.833511 161.499566 426.130446 157.213014 426.130446 
C 152.926462 426.130446 148.814899 427.833511 145.783849 430.864561 
C 142.752799 433.895611 141.049734 438.007174 141.049734 442.293726 
C 141.049734 446.580278 142.752799 450.691841 145.783849 453.722891 
C 148.814899 456.753941 152.926462 458.457006 157.213014 458.457006 
L 157.213014 458.457006 
z
" clip-path="url(#p3712b02728)" style="fill: none; stroke: #000000; stroke-linejoin: miter"/>
   </g>
   <g id="patch_37">
    <path d="M 311.50674 465.79608 
C 315.791864 465.79608 319.905864 464.092005 322.935905 461.061965 
C 325.965945 458.031924 327.67002 453.917924 327.67002 449.6328 
C 327.67002 445.347676 325.965945 441.233676 322.935905 438.203635 
C 319.905864 435.173595 315.791864 433.46952 311.50674 433.46952 
L 311.50674 449.6328 
z
" clip-path="url(#p3712b02728)" style="fill: #ffffff; stroke: #000000; stroke-linejoin: miter"/>
   </g>
   <g id="patch_38">
    <path d="M 311.50674 433.46952 
C 307.221616 433.46952 303.107616 435.173595 300.077575 438.203635 
C 297.047535 441.233676 295.34346 445.347676 295.34346 449.6328 
C 295.34346 453.917924 297.047535 458.031924 300.077575 461.061965 
C 303.107616 464.092005 307.221616 465.79608 311.50674 465.79608 
L 311.50674 449.6328 
z
" clip-path="url(#p3712b02728)" style="stroke: #000000; stroke-linejoin: miter"/>
   </g>
   <g id="patch_39">
    <path d="M 311.50674 522.36756 
C 315.793292 522.36756 319.904855 520.664495 322.935905 517.633445 
C 325.966955 514.602395 327.67002 510.490832 327.67002 506.20428 
C 327.67002 501.917728 325.966955 497.806165 322.935905 494.775115 
C 319.904855 491.744065 315.793292 490.041 311.50674 490.041 
C 307.220188 490.041 303.108625 491.744065 300.077575 494.775115 
C 297.046525 497.806165 295.34346 501.917728 295.34346 506.20428 
C 295.34346 510.490832 297.046525 514.602395 300.077575 517.633445 
C 303.108625 520.664495 307.220188 522.36756 311.50674 522.36756 
z
" clip-path="url(#p3712b02728)" style="stroke: #000000; stroke-linejoin: miter"/>
   </g>
   <g id="patch_40">
    <path d="M 311.50674 490.041 
C 307.221616 490.041 303.107616 491.745075 300.077575 494.775115 
C 297.047535 497.805156 295.34346 501.919156 295.34346 506.20428 
C 295.34346 510.489404 297.047535 514.603404 300.077575 517.633445 
C 303.107616 520.663485 307.221616 522.36756 311.50674 522.36756 
L 311.50674 506.20428 
z
" clip-path="url(#p3712b02728)" style="fill: #ffffff; stroke: #000000; stroke-linejoin: miter"/>
   </g>
   <g id="patch_41">
    <path d="M 425.798389 418.454929 
C 430.083513 418.454929 434.197513 416.750854 437.227554 413.720814 
C 440.257594 410.690773 441.961669 406.576773 441.961669 402.291649 
C 441.961669 398.006525 440.257594 393.892525 437.227554 390.862484 
C 434.197513 387.832444 430.083513 386.128369 425.798389 386.128369 
L 425.798389 402.291649 
z
" clip-path="url(#p3712b02728)" style="fill: #ffffff; stroke: #000000; stroke-linejoin: miter"/>
   </g>
   <g id="patch_42">
    <path d="M 425.798389 386.128369 
C 421.513265 386.128369 417.399265 387.832444 414.369224 390.862484 
C 411.339184 393.892525 409.635109 398.006525 409.635109 402.291649 
C 409.635109 406.576773 411.339184 410.690773 414.369224 413.720814 
C 417.399265 416.750854 421.513265 418.454929 425.798389 418.454929 
L 425.798389 402.291649 
z
" clip-path="url(#p3712b02728)" style="stroke: #000000; stroke-linejoin: miter"/>
   </g>
   <g id="patch_43">
    <path d="M 465.800466 458.457006 
C 470.087018 458.457006 474.198581 456.753941 477.229631 453.722891 
C 480.260681 450.691841 481.963746 446.580278 481.963746 442.293726 
C 481.963746 438.007174 480.260681 433.895611 477.229631 430.864561 
C 474.198581 427.833511 470.087018 426.130446 465.800466 426.130446 
C 461.513914 426.130446 457.402351 427.833511 454.371301 430.864561 
C 451.340251 433.895611 449.637186 438.007174 449.637186 442.293726 
C 449.637186 446.580278 451.340251 450.691841 454.371301 453.722891 
C 457.402351 456.753941 461.513914 458.457006 465.800466 458.457006 
z
" clip-path="url(#p3712b02728)" style="stroke: #000000; stroke-linejoin: miter"/>
   </g>
   <g id="patch_44">
    <path d="M 465.800466 426.130446 
C 461.515342 426.130446 457.401342 427.834521 454.371301 430.864561 
C 451.341261 433.894602 449.637186 438.008602 449.637186 442.293726 
C 449.637186 446.57885 451.341261 450.692851 454.371301 453.722891 
C 457.401342 456.752931 461.515342 458.457006 465.800466 458.457006 
L 465.800466 442.293726 
z
" clip-path="url(#p3712b02728)" style="fill: #ffffff"/>
   </g>
   <g id="patch_45">
    <path d="M 465.800466 458.457006 
C 468.831516 458.457006 471.73883 456.753941 473.882106 453.722891 
C 476.025382 450.691841 477.229631 446.580278 477.229631 442.293726 
C 477.229631 438.007174 476.025382 433.895611 473.882106 430.864561 
C 471.73883 427.833511 468.831516 426.130446 465.800466 426.130446 
C 462.769416 426.130446 459.862102 427.833511 457.718826 430.864561 
C 455.57555 433.895611 454.371301 438.007174 454.371301 442.293726 
C 454.371301 446.580278 455.57555 450.691841 457.718826 453.722891 
C 459.862102 456.753941 462.769416 458.457006 465.800466 458.457006 
z
" clip-path="url(#p3712b02728)"/>
   </g>
   <g id="patch_46">
    <path d="M 465.800466 458.457006 
C 470.087018 458.457006 474.198581 456.753941 477.229631 453.722891 
C 480.260681 450.691841 481.963746 446.580278 481.963746 442.293726 
C 481.963746 438.007174 480.260681 433.895611 477.229631 430.864561 
C 474.198581 427.833511 470.087018 426.130446 465.800466 426.130446 
C 461.513914 426.130446 457.402351 427.833511 454.371301 430.864561 
C 451.340251 433.895611 449.637186 438.007174 449.637186 442.293726 
C 449.637186 446.580278 451.340251 450.691841 454.371301 453.722891 
C 457.402351 456.753941 461.513914 458.457006 465.800466 458.457006 
L 465.800466 458.457006 
z
" clip-path="url(#p3712b02728)" style="fill: none; stroke: #000000; stroke-linejoin: miter"/>
   </g>
   <g id="text_1">
    <!-- Earth -->
    <g style="fill: #0066cc" transform="translate(296.302053 344.088278) scale(0.1 -0.1)">
     <defs>
      <path id="DejaVuSans-Bold-45" d="M 588 4666 
L 3834 4666 
L 3834 3756 
L 1791 3756 
L 1791 2888 
L 3713 2888 
L 3713 1978 
L 1791 1978 
L 1791 909 
L 3903 909 
L 3903 0 
L 588 0 
L 588 4666 
z
" transform="scale(0.015625)"/>
      <path id="DejaVuSans-Bold-61" d="M 2106 1575 
Q 1756 1575 1579 1456 
Q 1403 1338 1403 1106 
Q 1403 894 1545 773 
Q 1688 653 1941 653 
Q 2256 653 2472 879 
Q 2688 1106 2688 1447 
L 2688 1575 
L 2106 1575 
z
M 3816 1997 
L 3816 0 
L 2688 0 
L 2688 519 
Q 2463 200 2181 54 
Q 1900 -91 1497 -91 
Q 953 -91 614 226 
Q 275 544 275 1050 
Q 275 1666 698 1953 
Q 1122 2241 2028 2241 
L 2688 2241 
L 2688 2328 
Q 2688 2594 2478 2717 
Q 2269 2841 1825 2841 
Q 1466 2841 1156 2769 
Q 847 2697 581 2553 
L 581 3406 
Q 941 3494 1303 3539 
Q 1666 3584 2028 3584 
Q 2975 3584 3395 3211 
Q 3816 2838 3816 1997 
z
" transform="scale(0.015625)"/>
      <path id="DejaVuSans-Bold-72" d="M 3138 2547 
Q 2991 2616 2845 2648 
Q 2700 2681 2553 2681 
Q 2122 2681 1889 2404 
Q 1656 2128 1656 1613 
L 1656 0 
L 538 0 
L 538 3500 
L 1656 3500 
L 1656 2925 
Q 1872 3269 2151 3426 
Q 2431 3584 2822 3584 
Q 2878 3584 2943 3579 
Q 3009 3575 3134 3559 
L 3138 2547 
z
" transform="scale(0.015625)"/>
      <path id="DejaVuSans-Bold-74" d="M 1759 4494 
L 1759 3500 
L 2913 3500 
L 2913 2700 
L 1759 2700 
L 1759 1216 
Q 1759 972 1856 886 
Q 1953 800 2241 800 
L 2816 800 
L 2816 0 
L 1856 0 
Q 1194 0 917 276 
Q 641 553 641 1216 
L 641 2700 
L 84 2700 
L 84 3500 
L 641 3500 
L 641 4494 
L 1759 4494 
z
" transform="scale(0.015625)"/>
      <path id="DejaVuSans-Bold-68" d="M 4056 2131 
L 4056 0 
L 2931 0 
L 2931 347 
L 2931 1625 
Q 2931 2084 2911 2256 
Q 2891 2428 2841 2509 
Q 2775 2619 2662 2680 
Q 2550 2741 2406 2741 
Q 2056 2741 1856 2470 
Q 1656 2200 1656 1722 
L 1656 0 
L 538 0 
L 538 4863 
L 1656 4863 
L 1656 2988 
Q 1909 3294 2193 3439 
Q 2478 3584 2822 3584 
Q 3428 3584 3742 3212 
Q 4056 2841 4056 2131 
z
" transform="scale(0.015625)"/>
     </defs>
     <use xlink:href="#DejaVuSans-Bold-45"/>
     <use xlink:href="#DejaVuSans-Bold-61" transform="translate(68.310547 0)"/>
     <use xlink:href="#DejaVuSans-Bold-72" transform="translate(135.791016 0)"/>
     <use xlink:href="#DejaVuSans-Bold-74" transform="translate(185.107422 0)"/>
     <use xlink:href="#DejaVuSans-Bold-68" transform="translate(232.910156 0)"/>
    </g>
   </g>
   <g id="text_2">
    <!-- Sunlight -->
    <g style="fill: #ffa500" transform="translate(638.687962 83.26512) scale(0.12 -0.12)">
     <defs>
      <path id="DejaVuSans-Bold-53" d="M 3834 4519 
L 3834 3531 
Q 3450 3703 3084 3790 
Q 2719 3878 2394 3878 
Q 1963 3878 1756 3759 
Q 1550 3641 1550 3391 
Q 1550 3203 1689 3098 
Q 1828 2994 2194 2919 
L 2706 2816 
Q 3484 2659 3812 2340 
Q 4141 2022 4141 1434 
Q 4141 663 3683 286 
Q 3225 -91 2284 -91 
Q 1841 -91 1394 -6 
Q 947 78 500 244 
L 500 1259 
Q 947 1022 1364 901 
Q 1781 781 2169 781 
Q 2563 781 2772 912 
Q 2981 1044 2981 1288 
Q 2981 1506 2839 1625 
Q 2697 1744 2272 1838 
L 1806 1941 
Q 1106 2091 782 2419 
Q 459 2747 459 3303 
Q 459 4000 909 4375 
Q 1359 4750 2203 4750 
Q 2588 4750 2994 4692 
Q 3400 4634 3834 4519 
z
" transform="scale(0.015625)"/>
      <path id="DejaVuSans-Bold-75" d="M 500 1363 
L 500 3500 
L 1625 3500 
L 1625 3150 
Q 1625 2866 1622 2436 
Q 1619 2006 1619 1863 
Q 1619 1441 1641 1255 
Q 1663 1069 1716 984 
Q 1784 875 1895 815 
Q 2006 756 2150 756 
Q 2500 756 2700 1025 
Q 2900 1294 2900 1772 
L 2900 3500 
L 4019 3500 
L 4019 0 
L 2900 0 
L 2900 506 
Q 2647 200 2364 54 
Q 2081 -91 1741 -91 
Q 1134 -91 817 281 
Q 500 653 500 1363 
z
" transform="scale(0.015625)"/>
      <path id="DejaVuSans-Bold-6e" d="M 4056 2131 
L 4056 0 
L 2931 0 
L 2931 347 
L 2931 1631 
Q 2931 2084 2911 2256 
Q 2891 2428 2841 2509 
Q 2775 2619 2662 2680 
Q 2550 2741 2406 2741 
Q 2056 2741 1856 2470 
Q 1656 2200 1656 1722 
L 1656 0 
L 538 0 
L 538 3500 
L 1656 3500 
L 1656 2988 
Q 1909 3294 2193 3439 
Q 2478 3584 2822 3584 
Q 3428 3584 3742 3212 
Q 4056 2841 4056 2131 
z
" transform="scale(0.015625)"/>
      <path id="DejaVuSans-Bold-6c" d="M 538 4863 
L 1656 4863 
L 1656 0 
L 538 0 
L 538 4863 
z
" transform="scale(0.015625)"/>
      <path id="DejaVuSans-Bold-69" d="M 538 3500 
L 1656 3500 
L 1656 0 
L 538 0 
L 538 3500 
z
M 538 4863 
L 1656 4863 
L 1656 3950 
L 538 3950 
L 538 4863 
z
" transform="scale(0.015625)"/>
      <path id="DejaVuSans-Bold-67" d="M 2919 594 
Q 2688 288 2409 144 
Q 2131 0 1766 0 
Q 1125 0 706 504 
Q 288 1009 288 1791 
Q 288 2575 706 3076 
Q 1125 3578 1766 3578 
Q 2131 3578 2409 3434 
Q 2688 3291 2919 2981 
L 2919 3500 
L 4044 3500 
L 4044 353 
Q 4044 -491 3511 -936 
Q 2978 -1381 1966 -1381 
Q 1638 -1381 1331 -1331 
Q 1025 -1281 716 -1178 
L 716 -306 
Q 1009 -475 1290 -558 
Q 1572 -641 1856 -641 
Q 2406 -641 2662 -400 
Q 2919 -159 2919 353 
L 2919 594 
z
M 2181 2772 
Q 1834 2772 1640 2515 
Q 1447 2259 1447 1791 
Q 1447 1309 1634 1061 
Q 1822 813 2181 813 
Q 2531 813 2725 1069 
Q 2919 1325 2919 1791 
Q 2919 2259 2725 2515 
Q 2531 2772 2181 2772 
z
" transform="scale(0.015625)"/>
     </defs>
     <use xlink:href="#DejaVuSans-Bold-53"/>
     <use xlink:href="#DejaVuSans-Bold-75" transform="translate(72.021484 0)"/>
     <use xlink:href="#DejaVuSans-Bold-6e" transform="translate(143.212891 0)"/>
     <use xlink:href="#DejaVuSans-Bold-6c" transform="translate(214.404297 0)"/>
     <use xlink:href="#DejaVuSans-Bold-69" transform="translate(248.681641 0)"/>
     <use xlink:href="#DejaVuSans-Bold-67" transform="translate(282.958984 0)"/>
     <use xlink:href="#DejaVuSans-Bold-68" transform="translate(354.541016 0)"/>
     <use xlink:href="#DejaVuSans-Bold-74" transform="translate(425.732422 0)"/>
    </g>
   </g>
   <g id="text_3">
    <!-- New Moon -->
    <g transform="translate(554.920684 290.759375) scale(0.1 -0.1)">
     <defs>
      <path id="DejaVuSans-Bold-4e" d="M 588 4666 
L 1931 4666 
L 3628 1466 
L 3628 4666 
L 4769 4666 
L 4769 0 
L 3425 0 
L 1728 3200 
L 1728 0 
L 588 0 
L 588 4666 
z
" transform="scale(0.015625)"/>
      <path id="DejaVuSans-Bold-65" d="M 4031 1759 
L 4031 1441 
L 1416 1441 
Q 1456 1047 1700 850 
Q 1944 653 2381 653 
Q 2734 653 3104 758 
Q 3475 863 3866 1075 
L 3866 213 
Q 3469 63 3072 -14 
Q 2675 -91 2278 -91 
Q 1328 -91 801 392 
Q 275 875 275 1747 
Q 275 2603 792 3093 
Q 1309 3584 2216 3584 
Q 3041 3584 3536 3087 
Q 4031 2591 4031 1759 
z
M 2881 2131 
Q 2881 2450 2695 2645 
Q 2509 2841 2209 2841 
Q 1884 2841 1681 2658 
Q 1478 2475 1428 2131 
L 2881 2131 
z
" transform="scale(0.015625)"/>
      <path id="DejaVuSans-Bold-77" d="M 225 3500 
L 1313 3500 
L 1900 1088 
L 2491 3500 
L 3425 3500 
L 4013 1113 
L 4603 3500 
L 5691 3500 
L 4769 0 
L 3547 0 
L 2956 2406 
L 2369 0 
L 1147 0 
L 225 3500 
z
" transform="scale(0.015625)"/>
      <path id="DejaVuSans-Bold-20" transform="scale(0.015625)"/>
      <path id="DejaVuSans-Bold-4d" d="M 588 4666 
L 2119 4666 
L 3181 2169 
L 4250 4666 
L 5778 4666 
L 5778 0 
L 4641 0 
L 4641 3413 
L 3566 897 
L 2803 897 
L 1728 3413 
L 1728 0 
L 588 0 
L 588 4666 
z
" transform="scale(0.015625)"/>
      <path id="DejaVuSans-Bold-6f" d="M 2203 2784 
Q 1831 2784 1636 2517 
Q 1441 2250 1441 1747 
Q 1441 1244 1636 976 
Q 1831 709 2203 709 
Q 2569 709 2762 976 
Q 2956 1244 2956 1747 
Q 2956 2250 2762 2517 
Q 2569 2784 2203 2784 
z
M 2203 3584 
Q 3106 3584 3614 3096 
Q 4122 2609 4122 1747 
Q 4122 884 3614 396 
Q 3106 -91 2203 -91 
Q 1297 -91 786 396 
Q 275 884 275 1747 
Q 275 2609 786 3096 
Q 1297 3584 2203 3584 
z
" transform="scale(0.015625)"/>
     </defs>
     <use xlink:href="#DejaVuSans-Bold-4e"/>
     <use xlink:href="#DejaVuSans-Bold-65" transform="translate(83.691406 0)"/>
     <use xlink:href="#DejaVuSans-Bold-77" transform="translate(151.513672 0)"/>
     <use xlink:href="#DejaVuSans-Bold-20" transform="translate(243.896484 0)"/>
     <use xlink:href="#DejaVuSans-Bold-4d" transform="translate(278.710938 0)"/>
     <use xlink:href="#DejaVuSans-Bold-6f" transform="translate(378.222656 0)"/>
     <use xlink:href="#DejaVuSans-Bold-6f" transform="translate(446.923828 0)"/>
     <use xlink:href="#DejaVuSans-Bold-6e" transform="translate(515.625 0)"/>
    </g>
   </g>
   <g id="text_4">
    <!-- Waxing Crescent -->
    <g transform="translate(457.041085 97.853155) scale(0.1 -0.1)">
     <defs>
      <path id="DejaVuSans-Bold-57" d="M 191 4666 
L 1344 4666 
L 2150 1275 
L 2950 4666 
L 4109 4666 
L 4909 1275 
L 5716 4666 
L 6859 4666 
L 5759 0 
L 4372 0 
L 3525 3547 
L 2688 0 
L 1300 0 
L 191 4666 
z
" transform="scale(0.015625)"/>
      <path id="DejaVuSans-Bold-78" d="M 1422 1791 
L 159 3500 
L 1344 3500 
L 2059 2463 
L 2784 3500 
L 3969 3500 
L 2706 1797 
L 4031 0 
L 2847 0 
L 2059 1106 
L 1281 0 
L 97 0 
L 1422 1791 
z
" transform="scale(0.015625)"/>
      <path id="DejaVuSans-Bold-43" d="M 4288 256 
Q 3956 84 3597 -3 
Q 3238 -91 2847 -91 
Q 1681 -91 1000 561 
Q 319 1213 319 2328 
Q 319 3447 1000 4098 
Q 1681 4750 2847 4750 
Q 3238 4750 3597 4662 
Q 3956 4575 4288 4403 
L 4288 3438 
Q 3953 3666 3628 3772 
Q 3303 3878 2944 3878 
Q 2300 3878 1931 3465 
Q 1563 3053 1563 2328 
Q 1563 1606 1931 1193 
Q 2300 781 2944 781 
Q 3303 781 3628 887 
Q 3953 994 4288 1222 
L 4288 256 
z
" transform="scale(0.015625)"/>
      <path id="DejaVuSans-Bold-73" d="M 3272 3391 
L 3272 2541 
Q 2913 2691 2578 2766 
Q 2244 2841 1947 2841 
Q 1628 2841 1473 2761 
Q 1319 2681 1319 2516 
Q 1319 2381 1436 2309 
Q 1553 2238 1856 2203 
L 2053 2175 
Q 2913 2066 3209 1816 
Q 3506 1566 3506 1031 
Q 3506 472 3093 190 
Q 2681 -91 1863 -91 
Q 1516 -91 1145 -36 
Q 775 19 384 128 
L 384 978 
Q 719 816 1070 734 
Q 1422 653 1784 653 
Q 2113 653 2278 743 
Q 2444 834 2444 1013 
Q 2444 1163 2330 1236 
Q 2216 1309 1875 1350 
L 1678 1375 
Q 931 1469 631 1722 
Q 331 1975 331 2491 
Q 331 3047 712 3315 
Q 1094 3584 1881 3584 
Q 2191 3584 2531 3537 
Q 2872 3491 3272 3391 
z
" transform="scale(0.015625)"/>
      <path id="DejaVuSans-Bold-63" d="M 3366 3391 
L 3366 2478 
Q 3138 2634 2908 2709 
Q 2678 2784 2431 2784 
Q 1963 2784 1702 2511 
Q 1441 2238 1441 1747 
Q 1441 1256 1702 982 
Q 1963 709 2431 709 
Q 2694 709 2930 787 
Q 3166 866 3366 1019 
L 3366 103 
Q 3103 6 2833 -42 
Q 2563 -91 2291 -91 
Q 1344 -91 809 395 
Q 275 881 275 1747 
Q 275 2613 809 3098 
Q 1344 3584 2291 3584 
Q 2566 3584 2833 3536 
Q 3100 3488 3366 3391 
z
" transform="scale(0.015625)"/>
     </defs>
     <use xlink:href="#DejaVuSans-Bold-57"/>
     <use xlink:href="#DejaVuSans-Bold-61" transform="translate(106.677734 0)"/>
     <use xlink:href="#DejaVuSans-Bold-78" transform="translate(174.158203 0)"/>
     <use xlink:href="#DejaVuSans-Bold-69" transform="translate(238.660156 0)"/>
     <use xlink:href="#DejaVuSans-Bold-6e" transform="translate(272.9375 0)"/>
     <use xlink:href="#DejaVuSans-Bold-67" transform="translate(344.128906 0)"/>
     <use xlink:href="#DejaVuSans-Bold-20" transform="translate(415.710938 0)"/>
     <use xlink:href="#DejaVuSans-Bold-43" transform="translate(450.525391 0)"/>
     <use xlink:href="#DejaVuSans-Bold-72" transform="translate(523.914062 0)"/>
     <use xlink:href="#DejaVuSans-Bold-65" transform="translate(573.230469 0)"/>
     <use xlink:href="#DejaVuSans-Bold-73" transform="translate(641.052734 0)"/>
     <use xlink:href="#DejaVuSans-Bold-63" transform="translate(700.574219 0)"/>
     <use xlink:href="#DejaVuSans-Bold-65" transform="translate(759.851562 0)"/>
     <use xlink:href="#DejaVuSans-Bold-6e" transform="translate(827.673828 0)"/>
     <use xlink:href="#DejaVuSans-Bold-74" transform="translate(898.865234 0)"/>
    </g>
   </g>
   <g id="text_5">
    <!-- First Quarter -->
    <g transform="translate(274.908303 18.004025) scale(0.1 -0.1)">
     <defs>
      <path id="DejaVuSans-Bold-46" d="M 588 4666 
L 3834 4666 
L 3834 3756 
L 1791 3756 
L 1791 2888 
L 3713 2888 
L 3713 1978 
L 1791 1978 
L 1791 0 
L 588 0 
L 588 4666 
z
" transform="scale(0.015625)"/>
      <path id="DejaVuSans-Bold-51" d="M 2847 -84 
L 2753 -84 
Q 1600 -84 959 553 
Q 319 1191 319 2328 
Q 319 3463 958 4106 
Q 1597 4750 2719 4750 
Q 3853 4750 4486 4112 
Q 5119 3475 5119 2328 
Q 5119 1541 4783 972 
Q 4447 403 3816 116 
L 4756 -934 
L 3609 -934 
L 2847 -84 
z
M 2719 3878 
Q 2169 3878 1866 3472 
Q 1563 3066 1563 2328 
Q 1563 1578 1859 1179 
Q 2156 781 2719 781 
Q 3272 781 3575 1187 
Q 3878 1594 3878 2328 
Q 3878 3066 3575 3472 
Q 3272 3878 2719 3878 
z
" transform="scale(0.015625)"/>
     </defs>
     <use xlink:href="#DejaVuSans-Bold-46"/>
     <use xlink:href="#DejaVuSans-Bold-69" transform="translate(68.310547 0)"/>
     <use xlink:href="#DejaVuSans-Bold-72" transform="translate(102.587891 0)"/>
     <use xlink:href="#DejaVuSans-Bold-73" transform="translate(151.904297 0)"/>
     <use xlink:href="#DejaVuSans-Bold-74" transform="translate(211.425781 0)"/>
     <use xlink:href="#DejaVuSans-Bold-20" transform="translate(259.228516 0)"/>
     <use xlink:href="#DejaVuSans-Bold-51" transform="translate(294.042969 0)"/>
     <use xlink:href="#DejaVuSans-Bold-75" transform="translate(379.052734 0)"/>
     <use xlink:href="#DejaVuSans-Bold-61" transform="translate(450.244141 0)"/>
     <use xlink:href="#DejaVuSans-Bold-72" transform="translate(517.724609 0)"/>
     <use xlink:href="#DejaVuSans-Bold-74" transform="translate(567.041016 0)"/>
     <use xlink:href="#DejaVuSans-Bold-65" transform="translate(614.84375 0)"/>
     <use xlink:href="#DejaVuSans-Bold-72" transform="translate(682.666016 0)"/>
    </g>
   </g>
   <g id="text_6">
    <!-- Waxing Gibbous -->
    <g transform="translate(73.167707 97.853155) scale(0.1 -0.1)">
     <defs>
      <path id="DejaVuSans-Bold-47" d="M 4781 347 
Q 4331 128 3847 18 
Q 3363 -91 2847 -91 
Q 1681 -91 1000 561 
Q 319 1213 319 2328 
Q 319 3456 1012 4103 
Q 1706 4750 2913 4750 
Q 3378 4750 3804 4662 
Q 4231 4575 4609 4403 
L 4609 3438 
Q 4219 3659 3833 3768 
Q 3447 3878 3059 3878 
Q 2341 3878 1952 3476 
Q 1563 3075 1563 2328 
Q 1563 1588 1938 1184 
Q 2313 781 3003 781 
Q 3191 781 3352 804 
Q 3513 828 3641 878 
L 3641 1784 
L 2906 1784 
L 2906 2591 
L 4781 2591 
L 4781 347 
z
" transform="scale(0.015625)"/>
      <path id="DejaVuSans-Bold-62" d="M 2400 722 
Q 2759 722 2948 984 
Q 3138 1247 3138 1747 
Q 3138 2247 2948 2509 
Q 2759 2772 2400 2772 
Q 2041 2772 1848 2508 
Q 1656 2244 1656 1747 
Q 1656 1250 1848 986 
Q 2041 722 2400 722 
z
M 1656 2988 
Q 1888 3294 2169 3439 
Q 2450 3584 2816 3584 
Q 3463 3584 3878 3070 
Q 4294 2556 4294 1747 
Q 4294 938 3878 423 
Q 3463 -91 2816 -91 
Q 2450 -91 2169 54 
Q 1888 200 1656 506 
L 1656 0 
L 538 0 
L 538 4863 
L 1656 4863 
L 1656 2988 
z
" transform="scale(0.015625)"/>
     </defs>
     <use xlink:href="#DejaVuSans-Bold-57"/>
     <use xlink:href="#DejaVuSans-Bold-61" transform="translate(106.677734 0)"/>
     <use xlink:href="#DejaVuSans-Bold-78" transform="translate(174.158203 0)"/>
     <use xlink:href="#DejaVuSans-Bold-69" transform="translate(238.660156 0)"/>
     <use xlink:href="#DejaVuSans-Bold-6e" transform="translate(272.9375 0)"/>
     <use xlink:href="#DejaVuSans-Bold-67" transform="translate(344.128906 0)"/>
     <use xlink:href="#DejaVuSans-Bold-20" transform="translate(415.710938 0)"/>
     <use xlink:href="#DejaVuSans-Bold-47" transform="translate(450.525391 0)"/>
     <use xlink:href="#DejaVuSans-Bold-69" transform="translate(532.605469 0)"/>
     <use xlink:href="#DejaVuSans-Bold-62" transform="translate(566.882812 0)"/>
     <use xlink:href="#DejaVuSans-Bold-62" transform="translate(638.464844 0)"/>
     <use xlink:href="#DejaVuSans-Bold-6f" transform="translate(710.046875 0)"/>
     <use xlink:href="#DejaVuSans-Bold-75" transform="translate(778.748047 0)"/>
     <use xlink:href="#DejaVuSans-Bold-73" transform="translate(849.939453 0)"/>
    </g>
   </g>
   <g id="text_7">
    <!-- Full Moon -->
    <g transform="translate(11.452171 290.759375) scale(0.1 -0.1)">
     <use xlink:href="#DejaVuSans-Bold-46"/>
     <use xlink:href="#DejaVuSans-Bold-75" transform="translate(63.310547 0)"/>
     <use xlink:href="#DejaVuSans-Bold-6c" transform="translate(134.501953 0)"/>
     <use xlink:href="#DejaVuSans-Bold-6c" transform="translate(168.779297 0)"/>
     <use xlink:href="#DejaVuSans-Bold-20" transform="translate(203.056641 0)"/>
     <use xlink:href="#DejaVuSans-Bold-4d" transform="translate(237.871094 0)"/>
     <use xlink:href="#DejaVuSans-Bold-6f" transform="translate(337.382812 0)"/>
     <use xlink:href="#DejaVuSans-Bold-6f" transform="translate(406.083984 0)"/>
     <use xlink:href="#DejaVuSans-Bold-6e" transform="translate(474.785156 0)"/>
    </g>
   </g>
   <g id="text_8">
    <!-- Waning Gibbous -->
    <g transform="translate(72.833332 483.58747) scale(0.1 -0.1)">
     <use xlink:href="#DejaVuSans-Bold-57"/>
     <use xlink:href="#DejaVuSans-Bold-61" transform="translate(106.677734 0)"/>
     <use xlink:href="#DejaVuSans-Bold-6e" transform="translate(174.158203 0)"/>
     <use xlink:href="#DejaVuSans-Bold-69" transform="translate(245.349609 0)"/>
     <use xlink:href="#DejaVuSans-Bold-6e" transform="translate(279.626953 0)"/>
     <use xlink:href="#DejaVuSans-Bold-67" transform="translate(350.818359 0)"/>
     <use xlink:href="#DejaVuSans-Bold-20" transform="translate(422.400391 0)"/>
     <use xlink:href="#DejaVuSans-Bold-47" transform="translate(457.214844 0)"/>
     <use xlink:href="#DejaVuSans-Bold-69" transform="translate(539.294922 0)"/>
     <use xlink:href="#DejaVuSans-Bold-62" transform="translate(573.572266 0)"/>
     <use xlink:href="#DejaVuSans-Bold-62" transform="translate(645.154297 0)"/>
     <use xlink:href="#DejaVuSans-Bold-6f" transform="translate(716.736328 0)"/>
     <use xlink:href="#DejaVuSans-Bold-75" transform="translate(785.4375 0)"/>
     <use xlink:href="#DejaVuSans-Bold-73" transform="translate(856.628906 0)"/>
    </g>
   </g>
   <g id="text_9">
    <!-- Last Quarter -->
    <g transform="translate(275.943459 563.514725) scale(0.1 -0.1)">
     <defs>
      <path id="DejaVuSans-Bold-4c" d="M 588 4666 
L 1791 4666 
L 1791 909 
L 3903 909 
L 3903 0 
L 588 0 
L 588 4666 
z
" transform="scale(0.015625)"/>
     </defs>
     <use xlink:href="#DejaVuSans-Bold-4c"/>
     <use xlink:href="#DejaVuSans-Bold-61" transform="translate(63.720703 0)"/>
     <use xlink:href="#DejaVuSans-Bold-73" transform="translate(131.201172 0)"/>
     <use xlink:href="#DejaVuSans-Bold-74" transform="translate(190.722656 0)"/>
     <use xlink:href="#DejaVuSans-Bold-20" transform="translate(238.525391 0)"/>
     <use xlink:href="#DejaVuSans-Bold-51" transform="translate(273.339844 0)"/>
     <use xlink:href="#DejaVuSans-Bold-75" transform="translate(358.349609 0)"/>
     <use xlink:href="#DejaVuSans-Bold-61" transform="translate(429.541016 0)"/>
     <use xlink:href="#DejaVuSans-Bold-72" transform="translate(497.021484 0)"/>
     <use xlink:href="#DejaVuSans-Bold-74" transform="translate(546.337891 0)"/>
     <use xlink:href="#DejaVuSans-Bold-65" transform="translate(594.140625 0)"/>
     <use xlink:href="#DejaVuSans-Bold-72" transform="translate(661.962891 0)"/>
    </g>
   </g>
   <g id="text_10">
    <!-- Waning Crescent -->
    <g transform="translate(456.70671 483.58747) scale(0.1 -0.1)">
     <use xlink:href="#DejaVuSans-Bold-57"/>
     <use xlink:href="#DejaVuSans-Bold-61" transform="translate(106.677734 0)"/>
     <use xlink:href="#DejaVuSans-Bold-6e" transform="translate(174.158203 0)"/>
     <use xlink:href="#DejaVuSans-Bold-69" transform="translate(245.349609 0)"/>
     <use xlink:href="#DejaVuSans-Bold-6e" transform="translate(279.626953 0)"/>
     <use xlink:href="#DejaVuSans-Bold-67" transform="translate(350.818359 0)"/>
     <use xlink:href="#DejaVuSans-Bold-20" transform="translate(422.400391 0)"/>
     <use xlink:href="#DejaVuSans-Bold-43" transform="translate(457.214844 0)"/>
     <use xlink:href="#DejaVuSans-Bold-72" transform="translate(530.603516 0)"/>
     <use xlink:href="#DejaVuSans-Bold-65" transform="translate(579.919922 0)"/>
     <use xlink:href="#DejaVuSans-Bold-73" transform="translate(647.742188 0)"/>
     <use xlink:href="#DejaVuSans-Bold-63" transform="translate(707.263672 0)"/>
     <use xlink:href="#DejaVuSans-Bold-65" transform="translate(766.541016 0)"/>
     <use xlink:href="#DejaVuSans-Bold-6e" transform="translate(834.363281 0)"/>
     <use xlink:href="#DejaVuSans-Bold-74" transform="translate(905.554688 0)"/>
    </g>
   </g>
   <g id="patch_47">
    <path d="M 311.50674 320.32656 
C 320.079844 320.32656 328.30297 316.92043 334.36507 310.85833 
C 340.42717 304.79623 343.8333 296.573104 343.8333 288 
C 343.8333 279.426896 340.42717 271.20377 334.36507 265.14167 
C 328.30297 259.07957 320.079844 255.67344 311.50674 255.67344 
C 302.933636 255.67344 294.71051 259.07957 288.64841 265.14167 
C 282.58631 271.20377 279.18018 279.426896 279.18018 288 
C 279.18018 296.573104 282.58631 304.79623 288.64841 310.85833 
C 294.71051 316.92043 302.933636 320.32656 311.50674 320.32656 
z
" clip-path="url(#p3712b02728)" style="fill: #e6f3ff; stroke: #0066cc; stroke-linejoin: miter"/>
   </g>
  </g>
 </g>
 <defs>
  <clipPath id="p3712b02728">
   <rect x="42.11874" y="18.612" width="657.30672" height="538.776"/>
  </clipPath>
 </defs>
</svg>
