<?xml version="1.0" encoding="utf-8" standalone="no"?>
<!DOCTYPE svg PUBLIC "-//W3C//DTD SVG 1.1//EN"
  "http://www.w3.org/Graphics/SVG/1.1/DTD/svg11.dtd">
<svg xmlns:xlink="http://www.w3.org/1999/xlink" width="720pt" height="576pt" viewBox="0 0 720 576" xmlns="http://www.w3.org/2000/svg" version="1.1">
 <metadata>
  <rdf:RDF xmlns:dc="http://purl.org/dc/elements/1.1/" xmlns:cc="http://creativecommons.org/ns#" xmlns:rdf="http://www.w3.org/1999/02/22-rdf-syntax-ns#">
   <cc:Work>
    <dc:type rdf:resource="http://purl.org/dc/dcmitype/StillImage"/>
    <dc:date>2025-11-30T12:34:17.317679</dc:date>
    <dc:format>image/svg+xml</dc:format>
    <dc:creator>
     <cc:Agent>
      <dc:title>Matplotlib v3.10.8, https://matplotlib.org/</dc:title>
     </cc:Agent>
    </dc:creator>
   </cc:Work>
  </rdf:RDF>
 </metadata>
 <defs>
  <style type="text/css">*{stroke-linejoin: round; stroke-linecap: butt}</style>
 </defs>
 <g id="figure_1">
  <g id="patch_1">
   <path d="M 0 576 
L 720 576 
L 720 0 
L 0 0 
z
" style="fill: #ffffff"/>
  </g>
  <g id="axes_1">
   <g id="patch_2">
    <path d="M 627.16698 449.6328 
L 637.9425 444.24504 
L 637.9425 449.578922 
L 691.8201 449.578922 
L 691.8201 449.686678 
L 637.9425 449.686678 
L 637.9425 455.02056 
z
" clip-path="url(#p9bd2b51bcc)" style="fill: #ffa500; stroke: #ffa500; stroke-linejoin: miter"/>
   </g>
   <g id="patch_3">
    <path d="M 627.16698 368.8164 
L 637.9425 363.42864 
L 637.9425 368.762522 
L 691.8201 368.762522 
L 691.8201 368.870278 
L 637.9425 368.870278 
L 637.9425 374.20416 
z
" clip-path="url(#p9bd2b51bcc)" style="fill: #ffa500; stroke: #ffa500; stroke-linejoin: miter"/>
   </g>
   <g id="patch_4">
    <path d="M 627.16698 288 
L 637.9425 282.61224 
L 637.9425 287.946122 
L 691.8201 287.946122 
L 691.8201 288.053878 
L 637.9425 288.053878 
L 637.9425 293.38776 
z
" clip-path="url(#p9bd2b51bcc)" style="fill: #ffa500; stroke: #ffa500; stroke-linejoin: miter"/>
   </g>
   <g id="patch_5">
    <path d="M 627.16698 207.1836 
L 637.9425 201.79584 
L 637.9425 207.129722 
L 691.8201 207.129722 
L 691.8201 207.237478 
L 637.9425 207.237478 
L 637.9425 212.57136 
z
" clip-path="url(#p9bd2b51bcc)" style="fill: #ffa500; stroke: #ffa500; stroke-linejoin: miter"/>
   </g>
   <g id="patch_6">
    <path d="M 627.16698 126.3672 
L 637.9425 120.97944 
L 637.9425 126.313322 
L 691.8201 126.313322 
L 691.8201 126.421078 
L 637.9425 126.421078 
L 637.9425 131.75496 
z
" clip-path="url(#p9bd2b51bcc)" style="fill: #ffa500; stroke: #ffa500; stroke-linejoin: miter"/>
   </g>
   <g id="patch_7">
    <path d="M 314.6769 449.6328 
C 357.54242 449.6328 398.658049 432.602149 428.968549 402.291649 
C 459.279049 371.981149 476.3097 330.86552 476.3097 288 
C 476.3097 245.13448 459.279049 204.018851 428.968549 173.708351 
C 398.658049 143.397851 357.54242 126.3672 314.6769 126.3672 
C 271.81138 126.3672 230.695751 143.397851 200.385251 173.708351 
C 170.074751 204.018851 153.0441 245.13448 153.0441 288 
C 153.0441 330.86552 170.074751 371.981149 200.385251 402.291649 
C 230.695751 432.602149 271.81138 449.6328 314.6769 449.6328 
L 314.6769 449.6328 
z
" clip-path="url(#p9bd2b51bcc)" style="fill: none; opacity: 0.5; stroke-dasharray: 3.7,1.6; stroke-dashoffset: 0; stroke: #808080; stroke-linejoin: miter"/>
   </g>
   <g id="patch_8">
    <path d="M 476.3097 304.16328 
C 480.594824 304.16328 484.708824 302.459205 487.738865 299.429165 
C 490.768905 296.399124 492.47298 292.285124 492.47298 288 
C 492.47298 283.714876 490.768905 279.600876 487.738865 276.570835 
C 484.708824 273.540795 480.594824 271.83672 476.3097 271.83672 
L 476.3097 288 
z
" clip-path="url(#p9bd2b51bcc)" style="fill: #ffffff; stroke: #000000; stroke-linejoin: miter"/>
   </g>
   <g id="patch_9">
    <path d="M 476.3097 271.83672 
C 472.024576 271.83672 467.910576 273.540795 464.880535 276.570835 
C 461.850495 279.600876 460.14642 283.714876 460.14642 288 
C 460.14642 292.285124 461.850495 296.399124 464.880535 299.429165 
C 467.910576 302.459205 472.024576 304.16328 476.3097 304.16328 
L 476.3097 288 
z
" clip-path="url(#p9bd2b51bcc)" style="stroke: #000000; stroke-linejoin: miter"/>
   </g>
   <g id="patch_10">
    <path d="M 532.88118 304.16328 
C 537.167732 304.16328 541.279295 302.460215 544.310345 299.429165 
C 547.341395 296.398115 549.04446 292.286552 549.04446 288 
C 549.04446 283.713448 547.341395 279.601885 544.310345 276.570835 
C 541.279295 273.539785 537.167732 271.83672 532.88118 271.83672 
C 528.594628 271.83672 524.483065 273.539785 521.452015 276.570835 
C 518.420965 279.601885 516.7179 283.713448 516.7179 288 
C 516.7179 292.286552 518.420965 296.398115 521.452015 299.429165 
C 524.483065 302.460215 528.594628 304.16328 532.88118 304.16328 
z
" clip-path="url(#p9bd2b51bcc)" style="stroke: #000000; stroke-linejoin: miter"/>
   </g>
   <g id="patch_11">
    <path d="M 428.968549 189.871631 
C 433.253673 189.871631 437.367673 188.167556 440.397714 185.137516 
C 443.427754 182.107475 445.131829 177.993475 445.131829 173.708351 
C 445.131829 169.423227 443.427754 165.309227 440.397714 162.279186 
C 437.367673 159.249146 433.253673 157.545071 428.968549 157.545071 
L 428.968549 173.708351 
z
" clip-path="url(#p9bd2b51bcc)" style="fill: #ffffff; stroke: #000000; stroke-linejoin: miter"/>
   </g>
   <g id="patch_12">
    <path d="M 428.968549 157.545071 
C 424.683425 157.545071 420.569425 159.249146 417.539384 162.279186 
C 414.509344 165.309227 412.805269 169.423227 412.805269 173.708351 
C 412.805269 177.993475 414.509344 182.107475 417.539384 185.137516 
C 420.569425 188.167556 424.683425 189.871631 428.968549 189.871631 
L 428.968549 173.708351 
z
" clip-path="url(#p9bd2b51bcc)" style="stroke: #000000; stroke-linejoin: miter"/>
   </g>
   <g id="patch_13">
    <path d="M 468.970626 149.869554 
C 473.257178 149.869554 477.368741 148.166489 480.399791 145.135439 
C 483.430841 142.104389 485.133906 137.992826 485.133906 133.706274 
C 485.133906 129.419722 483.430841 125.308159 480.399791 122.277109 
C 477.368741 119.246059 473.257178 117.542994 468.970626 117.542994 
C 464.684074 117.542994 460.572511 119.246059 457.541461 122.277109 
C 454.510411 125.308159 452.807346 129.419722 452.807346 133.706274 
C 452.807346 137.992826 454.510411 142.104389 457.541461 145.135439 
C 460.572511 148.166489 464.684074 149.869554 468.970626 149.869554 
z
" clip-path="url(#p9bd2b51bcc)" style="stroke: #000000; stroke-linejoin: miter"/>
   </g>
   <g id="patch_14">
    <path d="M 468.970626 149.869554 
C 473.25575 149.869554 477.369751 148.165479 480.399791 145.135439 
C 483.429831 142.105398 485.133906 137.991398 485.133906 133.706274 
C 485.133906 129.42115 483.429831 125.307149 480.399791 122.277109 
C 477.369751 119.247069 473.25575 117.542994 468.970626 117.542994 
L 468.970626 133.706274 
z
" clip-path="url(#p9bd2b51bcc)" style="fill: #ffffff"/>
   </g>
   <g id="patch_15">
    <path d="M 468.970626 149.869554 
C 472.001676 149.869554 474.90899 148.166489 477.052266 145.135439 
C 479.195542 142.104389 480.399791 137.992826 480.399791 133.706274 
C 480.399791 129.419722 479.195542 125.308159 477.052266 122.277109 
C 474.90899 119.246059 472.001676 117.542994 468.970626 117.542994 
C 465.939576 117.542994 463.032262 119.246059 460.888986 122.277109 
C 458.74571 125.308159 457.541461 129.419722 457.541461 133.706274 
C 457.541461 137.992826 458.74571 142.104389 460.888986 145.135439 
C 463.032262 148.166489 465.939576 149.869554 468.970626 149.869554 
z
" clip-path="url(#p9bd2b51bcc)"/>
   </g>
   <g id="patch_16">
    <path d="M 468.970626 149.869554 
C 473.257178 149.869554 477.368741 148.166489 480.399791 145.135439 
C 483.430841 142.104389 485.133906 137.992826 485.133906 133.706274 
C 485.133906 129.419722 483.430841 125.308159 480.399791 122.277109 
C 477.368741 119.246059 473.257178 117.542994 468.970626 117.542994 
C 464.684074 117.542994 460.572511 119.246059 457.541461 122.277109 
C 454.510411 125.308159 452.807346 129.419722 452.807346 133.706274 
C 452.807346 137.992826 454.510411 142.104389 457.541461 145.135439 
C 460.572511 148.166489 464.684074 149.869554 468.970626 149.869554 
L 468.970626 149.869554 
z
" clip-path="url(#p9bd2b51bcc)" style="fill: none; stroke: #000000; stroke-linejoin: miter"/>
   </g>
   <g id="patch_17">
    <path d="M 314.6769 142.53048 
C 318.962024 142.53048 323.076024 140.826405 326.106065 137.796365 
C 329.136105 134.766324 330.84018 130.652324 330.84018 126.3672 
C 330.84018 122.082076 329.136105 117.968076 326.106065 114.938035 
C 323.076024 111.907995 318.962024 110.20392 314.6769 110.20392 
L 314.6769 126.3672 
z
" clip-path="url(#p9bd2b51bcc)" style="fill: #ffffff; stroke: #000000; stroke-linejoin: miter"/>
   </g>
   <g id="patch_18">
    <path d="M 314.6769 110.20392 
C 310.391776 110.20392 306.277776 111.907995 303.247735 114.938035 
C 300.217695 117.968076 298.51362 122.082076 298.51362 126.3672 
C 298.51362 130.652324 300.217695 134.766324 303.247735 137.796365 
C 306.277776 140.826405 310.391776 142.53048 314.6769 142.53048 
L 314.6769 126.3672 
z
" clip-path="url(#p9bd2b51bcc)" style="stroke: #000000; stroke-linejoin: miter"/>
   </g>
   <g id="patch_19">
    <path d="M 314.6769 85.959 
C 318.963452 85.959 323.075015 84.255935 326.106065 81.224885 
C 329.137115 78.193835 330.84018 74.082272 330.84018 69.79572 
C 330.84018 65.509168 329.137115 61.397605 326.106065 58.366555 
C 323.075015 55.335505 318.963452 53.63244 314.6769 53.63244 
C 310.390348 53.63244 306.278785 55.335505 303.247735 58.366555 
C 300.216685 61.397605 298.51362 65.509168 298.51362 69.79572 
C 298.51362 74.082272 300.216685 78.193835 303.247735 81.224885 
C 306.278785 84.255935 310.390348 85.959 314.6769 85.959 
z
" clip-path="url(#p9bd2b51bcc)" style="stroke: #000000; stroke-linejoin: miter"/>
   </g>
   <g id="patch_20">
    <path d="M 314.6769 85.959 
C 318.962024 85.959 323.076024 84.254925 326.106065 81.224885 
C 329.136105 78.194844 330.84018 74.080844 330.84018 69.79572 
C 330.84018 65.510596 329.136105 61.396596 326.106065 58.366555 
C 323.076024 55.336515 318.962024 53.63244 314.6769 53.63244 
L 314.6769 69.79572 
z
" clip-path="url(#p9bd2b51bcc)" style="fill: #ffffff; stroke: #000000; stroke-linejoin: miter"/>
   </g>
   <g id="patch_21">
    <path d="M 200.385251 189.871631 
C 204.670375 189.871631 208.784375 188.167556 211.814416 185.137516 
C 214.844456 182.107475 216.548531 177.993475 216.548531 173.708351 
C 216.548531 169.423227 214.844456 165.309227 211.814416 162.279186 
C 208.784375 159.249146 204.670375 157.545071 200.385251 157.545071 
L 200.385251 173.708351 
z
" clip-path="url(#p9bd2b51bcc)" style="fill: #ffffff; stroke: #000000; stroke-linejoin: miter"/>
   </g>
   <g id="patch_22">
    <path d="M 200.385251 157.545071 
C 196.100127 157.545071 191.986127 159.249146 188.956086 162.279186 
C 185.926046 165.309227 184.221971 169.423227 184.221971 173.708351 
C 184.221971 177.993475 185.926046 182.107475 188.956086 185.137516 
C 191.986127 188.167556 196.100127 189.871631 200.385251 189.871631 
L 200.385251 173.708351 
z
" clip-path="url(#p9bd2b51bcc)" style="stroke: #000000; stroke-linejoin: miter"/>
   </g>
   <g id="patch_23">
    <path d="M 160.383174 149.869554 
C 164.669726 149.869554 168.781289 148.166489 171.812339 145.135439 
C 174.843389 142.104389 176.546454 137.992826 176.546454 133.706274 
C 176.546454 129.419722 174.843389 125.308159 171.812339 122.277109 
C 168.781289 119.246059 164.669726 117.542994 160.383174 117.542994 
C 156.096622 117.542994 151.985059 119.246059 148.954009 122.277109 
C 145.922959 125.308159 144.219894 129.419722 144.219894 133.706274 
C 144.219894 137.992826 145.922959 142.104389 148.954009 145.135439 
C 151.985059 148.166489 156.096622 149.869554 160.383174 149.869554 
z
" clip-path="url(#p9bd2b51bcc)" style="stroke: #000000; stroke-linejoin: miter"/>
   </g>
   <g id="patch_24">
    <path d="M 160.383174 149.869554 
C 164.668298 149.869554 168.782298 148.165479 171.812339 145.135439 
C 174.842379 142.105398 176.546454 137.991398 176.546454 133.706274 
C 176.546454 129.42115 174.842379 125.307149 171.812339 122.277109 
C 168.782298 119.247069 164.668298 117.542994 160.383174 117.542994 
L 160.383174 133.706274 
z
" clip-path="url(#p9bd2b51bcc)" style="fill: #ffffff"/>
   </g>
   <g id="patch_25">
    <path d="M 160.383174 149.869554 
C 163.414224 149.869554 166.321538 148.166489 168.464814 145.135439 
C 170.60809 142.104389 171.812339 137.992826 171.812339 133.706274 
C 171.812339 129.419722 170.60809 125.308159 168.464814 122.277109 
C 166.321538 119.246059 163.414224 117.542994 160.383174 117.542994 
C 157.352124 117.542994 154.44481 119.246059 152.301534 122.277109 
C 150.158258 125.308159 148.954009 129.419722 148.954009 133.706274 
C 148.954009 137.992826 150.158258 142.104389 152.301534 145.135439 
C 154.44481 148.166489 157.352124 149.869554 160.383174 149.869554 
z
" clip-path="url(#p9bd2b51bcc)" style="fill: #ffffff"/>
   </g>
   <g id="patch_26">
    <path d="M 160.383174 149.869554 
C 164.669726 149.869554 168.781289 148.166489 171.812339 145.135439 
C 174.843389 142.104389 176.546454 137.992826 176.546454 133.706274 
C 176.546454 129.419722 174.843389 125.308159 171.812339 122.277109 
C 168.781289 119.246059 164.669726 117.542994 160.383174 117.542994 
C 156.096622 117.542994 151.985059 119.246059 148.954009 122.277109 
C 145.922959 125.308159 144.219894 129.419722 144.219894 133.706274 
C 144.219894 137.992826 145.922959 142.104389 148.954009 145.135439 
C 151.985059 148.166489 156.096622 149.869554 160.383174 149.869554 
L 160.383174 149.869554 
z
" clip-path="url(#p9bd2b51bcc)" style="fill: none; stroke: #000000; stroke-linejoin: miter"/>
   </g>
   <g id="patch_27">
    <path d="M 153.0441 304.16328 
C 157.329224 304.16328 161.443224 302.459205 164.473265 299.429165 
C 167.503305 296.399124 169.20738 292.285124 169.20738 288 
C 169.20738 283.714876 167.503305 279.600876 164.473265 276.570835 
C 161.443224 273.540795 157.329224 271.83672 153.0441 271.83672 
L 153.0441 288 
z
" clip-path="url(#p9bd2b51bcc)" style="fill: #ffffff; stroke: #000000; stroke-linejoin: miter"/>
   </g>
   <g id="patch_28">
    <path d="M 153.0441 271.83672 
C 148.758976 271.83672 144.644976 273.540795 141.614935 276.570835 
C 138.584895 279.600876 136.88082 283.714876 136.88082 288 
C 136.88082 292.285124 138.584895 296.399124 141.614935 299.429165 
C 144.644976 302.459205 148.758976 304.16328 153.0441 304.16328 
L 153.0441 288 
z
" clip-path="url(#p9bd2b51bcc)" style="stroke: #000000; stroke-linejoin: miter"/>
   </g>
   <g id="patch_29">
    <path d="M 96.47262 304.16328 
C 100.759172 304.16328 104.870735 302.460215 107.901785 299.429165 
C 110.932835 296.398115 112.6359 292.286552 112.6359 288 
C 112.6359 283.713448 110.932835 279.601885 107.901785 276.570835 
C 104.870735 273.539785 100.759172 271.83672 96.47262 271.83672 
C 92.186068 271.83672 88.074505 273.539785 85.043455 276.570835 
C 82.012405 279.601885 80.30934 283.713448 80.30934 288 
C 80.30934 292.286552 82.012405 296.398115 85.043455 299.429165 
C 88.074505 302.460215 92.186068 304.16328 96.47262 304.16328 
z
" clip-path="url(#p9bd2b51bcc)" style="stroke: #000000; stroke-linejoin: miter"/>
   </g>
   <g id="patch_30">
    <path d="M 96.47262 304.16328 
C 100.759172 304.16328 104.870735 302.460215 107.901785 299.429165 
C 110.932835 296.398115 112.6359 292.286552 112.6359 288 
C 112.6359 283.713448 110.932835 279.601885 107.901785 276.570835 
C 104.870735 273.539785 100.759172 271.83672 96.47262 271.83672 
C 92.186068 271.83672 88.074505 273.539785 85.043455 276.570835 
C 82.012405 279.601885 80.30934 283.713448 80.30934 288 
C 80.30934 292.286552 82.012405 296.398115 85.043455 299.429165 
C 88.074505 302.460215 92.186068 304.16328 96.47262 304.16328 
z
" clip-path="url(#p9bd2b51bcc)" style="fill: #ffffff; stroke: #000000; stroke-linejoin: miter"/>
   </g>
   <g id="patch_31">
    <path d="M 200.385251 418.454929 
C 204.670375 418.454929 208.784375 416.750854 211.814416 413.720814 
C 214.844456 410.690773 216.548531 406.576773 216.548531 402.291649 
C 216.548531 398.006525 214.844456 393.892525 211.814416 390.862484 
C 208.784375 387.832444 204.670375 386.128369 200.385251 386.128369 
L 200.385251 402.291649 
z
" clip-path="url(#p9bd2b51bcc)" style="fill: #ffffff; stroke: #000000; stroke-linejoin: miter"/>
   </g>
   <g id="patch_32">
    <path d="M 200.385251 386.128369 
C 196.100127 386.128369 191.986127 387.832444 188.956086 390.862484 
C 185.926046 393.892525 184.221971 398.006525 184.221971 402.291649 
C 184.221971 406.576773 185.926046 410.690773 188.956086 413.720814 
C 191.986127 416.750854 196.100127 418.454929 200.385251 418.454929 
L 200.385251 402.291649 
z
" clip-path="url(#p9bd2b51bcc)" style="stroke: #000000; stroke-linejoin: miter"/>
   </g>
   <g id="patch_33">
    <path d="M 160.383174 458.457006 
C 164.669726 458.457006 168.781289 456.753941 171.812339 453.722891 
C 174.843389 450.691841 176.546454 446.580278 176.546454 442.293726 
C 176.546454 438.007174 174.843389 433.895611 171.812339 430.864561 
C 168.781289 427.833511 164.669726 426.130446 160.383174 426.130446 
C 156.096622 426.130446 151.985059 427.833511 148.954009 430.864561 
C 145.922959 433.895611 144.219894 438.007174 144.219894 442.293726 
C 144.219894 446.580278 145.922959 450.691841 148.954009 453.722891 
C 151.985059 456.753941 156.096622 458.457006 160.383174 458.457006 
z
" clip-path="url(#p9bd2b51bcc)" style="stroke: #000000; stroke-linejoin: miter"/>
   </g>
   <g id="patch_34">
    <path d="M 160.383174 426.130446 
C 156.09805 426.130446 151.984049 427.834521 148.954009 430.864561 
C 145.923969 433.894602 144.219894 438.008602 144.219894 442.293726 
C 144.219894 446.57885 145.923969 450.692851 148.954009 453.722891 
C 151.984049 456.752931 156.09805 458.457006 160.383174 458.457006 
L 160.383174 442.293726 
z
" clip-path="url(#p9bd2b51bcc)" style="fill: #ffffff"/>
   </g>
   <g id="patch_35">
    <path d="M 160.383174 458.457006 
C 163.414224 458.457006 166.321538 456.753941 168.464814 453.722891 
C 170.60809 450.691841 171.812339 446.580278 171.812339 442.293726 
C 171.812339 438.007174 170.60809 433.895611 168.464814 430.864561 
C 166.321538 427.833511 163.414224 426.130446 160.383174 426.130446 
C 157.352124 426.130446 154.44481 427.833511 152.301534 430.864561 
C 150.158258 433.895611 148.954009 438.007174 148.954009 442.293726 
C 148.954009 446.580278 150.158258 450.691841 152.301534 453.722891 
C 154.44481 456.753941 157.352124 458.457006 160.383174 458.457006 
z
" clip-path="url(#p9bd2b51bcc)" style="fill: #ffffff"/>
   </g>
   <g id="patch_36">
    <path d="M 160.383174 458.457006 
C 164.669726 458.457006 168.781289 456.753941 171.812339 453.722891 
C 174.843389 450.691841 176.546454 446.580278 176.546454 442.293726 
C 176.546454 438.007174 174.843389 433.895611 171.812339 430.864561 
C 168.781289 427.833511 164.669726 426.130446 160.383174 426.130446 
C 156.096622 426.130446 151.985059 427.833511 148.954009 430.864561 
C 145.922959 433.895611 144.219894 438.007174 144.219894 442.293726 
C 144.219894 446.580278 145.922959 450.691841 148.954009 453.722891 
C 151.985059 456.753941 156.096622 458.457006 160.383174 458.457006 
L 160.383174 458.457006 
z
" clip-path="url(#p9bd2b51bcc)" style="fill: none; stroke: #000000; stroke-linejoin: miter"/>
   </g>
   <g id="patch_37">
    <path d="M 314.6769 465.79608 
C 318.962024 465.79608 323.076024 464.092005 326.106065 461.061965 
C 329.136105 458.031924 330.84018 453.917924 330.84018 449.6328 
C 330.84018 445.347676 329.136105 441.233676 326.106065 438.203635 
C 323.076024 435.173595 318.962024 433.46952 314.6769 433.46952 
L 314.6769 449.6328 
z
" clip-path="url(#p9bd2b51bcc)" style="fill: #ffffff; stroke: #000000; stroke-linejoin: miter"/>
   </g>
   <g id="patch_38">
    <path d="M 314.6769 433.46952 
C 310.391776 433.46952 306.277776 435.173595 303.247735 438.203635 
C 300.217695 441.233676 298.51362 445.347676 298.51362 449.6328 
C 298.51362 453.917924 300.217695 458.031924 303.247735 461.061965 
C 306.277776 464.092005 310.391776 465.79608 314.6769 465.79608 
L 314.6769 449.6328 
z
" clip-path="url(#p9bd2b51bcc)" style="stroke: #000000; stroke-linejoin: miter"/>
   </g>
   <g id="patch_39">
    <path d="M 314.6769 522.36756 
C 318.963452 522.36756 323.075015 520.664495 326.106065 517.633445 
C 329.137115 514.602395 330.84018 510.490832 330.84018 506.20428 
C 330.84018 501.917728 329.137115 497.806165 326.106065 494.775115 
C 323.075015 491.744065 318.963452 490.041 314.6769 490.041 
C 310.390348 490.041 306.278785 491.744065 303.247735 494.775115 
C 300.216685 497.806165 298.51362 501.917728 298.51362 506.20428 
C 298.51362 510.490832 300.216685 514.602395 303.247735 517.633445 
C 306.278785 520.664495 310.390348 522.36756 314.6769 522.36756 
z
" clip-path="url(#p9bd2b51bcc)" style="stroke: #000000; stroke-linejoin: miter"/>
   </g>
   <g id="patch_40">
    <path d="M 314.6769 490.041 
C 310.391776 490.041 306.277776 491.745075 303.247735 494.775115 
C 300.217695 497.805156 298.51362 501.919156 298.51362 506.20428 
C 298.51362 510.489404 300.217695 514.603404 303.247735 517.633445 
C 306.277776 520.663485 310.391776 522.36756 314.6769 522.36756 
L 314.6769 506.20428 
z
" clip-path="url(#p9bd2b51bcc)" style="fill: #ffffff; stroke: #000000; stroke-linejoin: miter"/>
   </g>
   <g id="patch_41">
    <path d="M 428.968549 418.454929 
C 433.253673 418.454929 437.367673 416.750854 440.397714 413.720814 
C 443.427754 410.690773 445.131829 406.576773 445.131829 402.291649 
C 445.131829 398.006525 443.427754 393.892525 440.397714 390.862484 
C 437.367673 387.832444 433.253673 386.128369 428.968549 386.128369 
L 428.968549 402.291649 
z
" clip-path="url(#p9bd2b51bcc)" style="fill: #ffffff; stroke: #000000; stroke-linejoin: miter"/>
   </g>
   <g id="patch_42">
    <path d="M 428.968549 386.128369 
C 424.683425 386.128369 420.569425 387.832444 417.539384 390.862484 
C 414.509344 393.892525 412.805269 398.006525 412.805269 402.291649 
C 412.805269 406.576773 414.509344 410.690773 417.539384 413.720814 
C 420.569425 416.750854 424.683425 418.454929 428.968549 418.454929 
L 428.968549 402.291649 
z
" clip-path="url(#p9bd2b51bcc)" style="stroke: #000000; stroke-linejoin: miter"/>
   </g>
   <g id="patch_43">
    <path d="M 468.970626 458.457006 
C 473.257178 458.457006 477.368741 456.753941 480.399791 453.722891 
C 483.430841 450.691841 485.133906 446.580278 485.133906 442.293726 
C 485.133906 438.007174 483.430841 433.895611 480.399791 430.864561 
C 477.368741 427.833511 473.257178 426.130446 468.970626 426.130446 
C 464.684074 426.130446 460.572511 427.833511 457.541461 430.864561 
C 454.510411 433.895611 452.807346 438.007174 452.807346 442.293726 
C 452.807346 446.580278 454.510411 450.691841 457.541461 453.722891 
C 460.572511 456.753941 464.684074 458.457006 468.970626 458.457006 
z
" clip-path="url(#p9bd2b51bcc)" style="stroke: #000000; stroke-linejoin: miter"/>
   </g>
   <g id="patch_44">
    <path d="M 468.970626 426.130446 
C 464.685502 426.130446 460.571502 427.834521 457.541461 430.864561 
C 454.511421 433.894602 452.807346 438.008602 452.807346 442.293726 
C 452.807346 446.57885 454.511421 450.692851 457.541461 453.722891 
C 460.571502 456.752931 464.685502 458.457006 468.970626 458.457006 
L 468.970626 442.293726 
z
" clip-path="url(#p9bd2b51bcc)" style="fill: #ffffff"/>
   </g>
   <g id="patch_45">
    <path d="M 468.970626 458.457006 
C 472.001676 458.457006 474.90899 456.753941 477.052266 453.722891 
C 479.195542 450.691841 480.399791 446.580278 480.399791 442.293726 
C 480.399791 438.007174 479.195542 433.895611 477.052266 430.864561 
C 474.90899 427.833511 472.001676 426.130446 468.970626 426.130446 
C 465.939576 426.130446 463.032262 427.833511 460.888986 430.864561 
C 458.74571 433.895611 457.541461 438.007174 457.541461 442.293726 
C 457.541461 446.580278 458.74571 450.691841 460.888986 453.722891 
C 463.032262 456.753941 465.939576 458.457006 468.970626 458.457006 
z
" clip-path="url(#p9bd2b51bcc)"/>
   </g>
   <g id="patch_46">
    <path d="M 468.970626 458.457006 
C 473.257178 458.457006 477.368741 456.753941 480.399791 453.722891 
C 483.430841 450.691841 485.133906 446.580278 485.133906 442.293726 
C 485.133906 438.007174 483.430841 433.895611 480.399791 430.864561 
C 477.368741 427.833511 473.257178 426.130446 468.970626 426.130446 
C 464.684074 426.130446 460.572511 427.833511 457.541461 430.864561 
C 454.510411 433.895611 452.807346 438.007174 452.807346 442.293726 
C 452.807346 446.580278 454.510411 450.691841 457.541461 453.722891 
C 460.572511 456.753941 464.684074 458.457006 468.970626 458.457006 
L 468.970626 458.457006 
z
" clip-path="url(#p9bd2b51bcc)" style="fill: none; stroke: #000000; stroke-linejoin: miter"/>
   </g>
   <g id="text_1">
    <!-- Earth -->
    <g style="fill: #0066cc" transform="translate(299.472213 344.088278) scale(0.1 -0.1)">
     <defs>
      <path id="DejaVuSans-Bold-45" d="M 588 4666 
L 3834 4666 
L 3834 3756 
L 1791 3756 
L 1791 2888 
L 3713 2888 
L 3713 1978 
L 1791 1978 
L 1791 909 
L 3903 909 
L 3903 0 
L 588 0 
L 588 4666 
z
" transform="scale(0.015625)"/>
      <path id="DejaVuSans-Bold-61" d="M 2106 1575 
Q 1756 1575 1579 1456 
Q 1403 1338 1403 1106 
Q 1403 894 1545 773 
Q 1688 653 1941 653 
Q 2256 653 2472 879 
Q 2688 1106 2688 1447 
L 2688 1575 
L 2106 1575 
z
M 3816 1997 
L 3816 0 
L 2688 0 
L 2688 519 
Q 2463 200 2181 54 
Q 1900 -91 1497 -91 
Q 953 -91 614 226 
Q 275 544 275 1050 
Q 275 1666 698 1953 
Q 1122 2241 2028 2241 
L 2688 2241 
L 2688 2328 
Q 2688 2594 2478 2717 
Q 2269 2841 1825 2841 
Q 1466 2841 1156 2769 
Q 847 2697 581 2553 
L 581 3406 
Q 941 3494 1303 3539 
Q 1666 3584 2028 3584 
Q 2975 3584 3395 3211 
Q 3816 2838 3816 1997 
z
" transform="scale(0.015625)"/>
      <path id="DejaVuSans-Bold-72" d="M 3138 2547 
Q 2991 2616 2845 2648 
Q 2700 2681 2553 2681 
Q 2122 2681 1889 2404 
Q 1656 2128 1656 1613 
L 1656 0 
L 538 0 
L 538 3500 
L 1656 3500 
L 1656 2925 
Q 1872 3269 2151 3426 
Q 2431 3584 2822 3584 
Q 2878 3584 2943 3579 
Q 3009 3575 3134 3559 
L 3138 2547 
z
" transform="scale(0.015625)"/>
      <path id="DejaVuSans-Bold-74" d="M 1759 4494 
L 1759 3500 
L 2913 3500 
L 2913 2700 
L 1759 2700 
L 1759 1216 
Q 1759 972 1856 886 
Q 1953 800 2241 800 
L 2816 800 
L 2816 0 
L 1856 0 
Q 1194 0 917 276 
Q 641 553 641 1216 
L 641 2700 
L 84 2700 
L 84 3500 
L 641 3500 
L 641 4494 
L 1759 4494 
z
" transform="scale(0.015625)"/>
      <path id="DejaVuSans-Bold-68" d="M 4056 2131 
L 4056 0 
L 2931 0 
L 2931 347 
L 2931 1625 
Q 2931 2084 2911 2256 
Q 2891 2428 2841 2509 
Q 2775 2619 2662 2680 
Q 2550 2741 2406 2741 
Q 2056 2741 1856 2470 
Q 1656 2200 1656 1722 
L 1656 0 
L 538 0 
L 538 4863 
L 1656 4863 
L 1656 2988 
Q 1909 3294 2193 3439 
Q 2478 3584 2822 3584 
Q 3428 3584 3742 3212 
Q 4056 2841 4056 2131 
z
" transform="scale(0.015625)"/>
     </defs>
     <use xlink:href="#DejaVuSans-Bold-45"/>
     <use xlink:href="#DejaVuSans-Bold-61" transform="translate(68.310547 0)"/>
     <use xlink:href="#DejaVuSans-Bold-72" transform="translate(135.791016 0)"/>
     <use xlink:href="#DejaVuSans-Bold-74" transform="translate(185.107422 0)"/>
     <use xlink:href="#DejaVuSans-Bold-68" transform="translate(232.910156 0)"/>
    </g>
   </g>
   <g id="text_2">
    <!-- Sunlight -->
    <g style="fill: #ffa500" transform="translate(631.082602 83.26512) scale(0.12 -0.12)">
     <defs>
      <path id="DejaVuSans-Bold-53" d="M 3834 4519 
L 3834 3531 
Q 3450 3703 3084 3790 
Q 2719 3878 2394 3878 
Q 1963 3878 1756 3759 
Q 1550 3641 1550 3391 
Q 1550 3203 1689 3098 
Q 1828 2994 2194 2919 
L 2706 2816 
Q 3484 2659 3812 2340 
Q 4141 2022 4141 1434 
Q 4141 663 3683 286 
Q 3225 -91 2284 -91 
Q 1841 -91 1394 -6 
Q 947 78 500 244 
L 500 1259 
Q 947 1022 1364 901 
Q 1781 781 2169 781 
Q 2563 781 2772 912 
Q 2981 1044 2981 1288 
Q 2981 1506 2839 1625 
Q 2697 1744 2272 1838 
L 1806 1941 
Q 1106 2091 782 2419 
Q 459 2747 459 3303 
Q 459 4000 909 4375 
Q 1359 4750 2203 4750 
Q 2588 4750 2994 4692 
Q 3400 4634 3834 4519 
z
" transform="scale(0.015625)"/>
      <path id="DejaVuSans-Bold-75" d="M 500 1363 
L 500 3500 
L 1625 3500 
L 1625 3150 
Q 1625 2866 1622 2436 
Q 1619 2006 1619 1863 
Q 1619 1441 1641 1255 
Q 1663 1069 1716 984 
Q 1784 875 1895 815 
Q 2006 756 2150 756 
Q 2500 756 2700 1025 
Q 2900 1294 2900 1772 
L 2900 3500 
L 4019 3500 
L 4019 0 
L 2900 0 
L 2900 506 
Q 2647 200 2364 54 
Q 2081 -91 1741 -91 
Q 1134 -91 817 281 
Q 500 653 500 1363 
z
" transform="scale(0.015625)"/>
      <path id="DejaVuSans-Bold-6e" d="M 4056 2131 
L 4056 0 
L 2931 0 
L 2931 347 
L 2931 1631 
Q 2931 2084 2911 2256 
Q 2891 2428 2841 2509 
Q 2775 2619 2662 2680 
Q 2550 2741 2406 2741 
Q 2056 2741 1856 2470 
Q 1656 2200 1656 1722 
L 1656 0 
L 538 0 
L 538 3500 
L 1656 3500 
L 1656 2988 
Q 1909 3294 2193 3439 
Q 2478 3584 2822 3584 
Q 3428 3584 3742 3212 
Q 4056 2841 4056 2131 
z
" transform="scale(0.015625)"/>
      <path id="DejaVuSans-Bold-6c" d="M 538 4863 
L 1656 4863 
L 1656 0 
L 538 0 
L 538 4863 
z
" transform="scale(0.015625)"/>
      <path id="DejaVuSans-Bold-69" d="M 538 3500 
L 1656 3500 
L 1656 0 
L 538 0 
L 538 3500 
z
M 538 4863 
L 1656 4863 
L 1656 3950 
L 538 3950 
L 538 4863 
z
" transform="scale(0.015625)"/>
      <path id="DejaVuSans-Bold-67" d="M 2919 594 
Q 2688 288 2409 144 
Q 2131 0 1766 0 
Q 1125 0 706 504 
Q 288 1009 288 1791 
Q 288 2575 706 3076 
Q 1125 3578 1766 3578 
Q 2131 3578 2409 3434 
Q 2688 3291 2919 2981 
L 2919 3500 
L 4044 3500 
L 4044 353 
Q 4044 -491 3511 -936 
Q 2978 -1381 1966 -1381 
Q 1638 -1381 1331 -1331 
Q 1025 -1281 716 -1178 
L 716 -306 
Q 1009 -475 1290 -558 
Q 1572 -641 1856 -641 
Q 2406 -641 2662 -400 
Q 2919 -159 2919 353 
L 2919 594 
z
M 2181 2772 
Q 1834 2772 1640 2515 
Q 1447 2259 1447 1791 
Q 1447 1309 1634 1061 
Q 1822 813 2181 813 
Q 2531 813 2725 1069 
Q 2919 1325 2919 1791 
Q 2919 2259 2725 2515 
Q 2531 2772 2181 2772 
z
" transform="scale(0.015625)"/>
     </defs>
     <use xlink:href="#DejaVuSans-Bold-53"/>
     <use xlink:href="#DejaVuSans-Bold-75" transform="translate(72.021484 0)"/>
     <use xlink:href="#DejaVuSans-Bold-6e" transform="translate(143.212891 0)"/>
     <use xlink:href="#DejaVuSans-Bold-6c" transform="translate(214.404297 0)"/>
     <use xlink:href="#DejaVuSans-Bold-69" transform="translate(248.681641 0)"/>
     <use xlink:href="#DejaVuSans-Bold-67" transform="translate(282.958984 0)"/>
     <use xlink:href="#DejaVuSans-Bold-68" transform="translate(354.541016 0)"/>
     <use xlink:href="#DejaVuSans-Bold-74" transform="translate(425.732422 0)"/>
    </g>
   </g>
   <g id="text_3">
    <!-- New Moon -->
    <g transform="translate(558.090844 290.759375) scale(0.1 -0.1)">
     <defs>
      <path id="DejaVuSans-Bold-4e" d="M 588 4666 
L 1931 4666 
L 3628 1466 
L 3628 4666 
L 4769 4666 
L 4769 0 
L 3425 0 
L 1728 3200 
L 1728 0 
L 588 0 
L 588 4666 
z
" transform="scale(0.015625)"/>
      <path id="DejaVuSans-Bold-65" d="M 4031 1759 
L 4031 1441 
L 1416 1441 
Q 1456 1047 1700 850 
Q 1944 653 2381 653 
Q 2734 653 3104 758 
Q 3475 863 3866 1075 
L 3866 213 
Q 3469 63 3072 -14 
Q 2675 -91 2278 -91 
Q 1328 -91 801 392 
Q 275 875 275 1747 
Q 275 2603 792 3093 
Q 1309 3584 2216 3584 
Q 3041 3584 3536 3087 
Q 4031 2591 4031 1759 
z
M 2881 2131 
Q 2881 2450 2695 2645 
Q 2509 2841 2209 2841 
Q 1884 2841 1681 2658 
Q 1478 2475 1428 2131 
L 2881 2131 
z
" transform="scale(0.015625)"/>
      <path id="DejaVuSans-Bold-77" d="M 225 3500 
L 1313 3500 
L 1900 1088 
L 2491 3500 
L 3425 3500 
L 4013 1113 
L 4603 3500 
L 5691 3500 
L 4769 0 
L 3547 0 
L 2956 2406 
L 2369 0 
L 1147 0 
L 225 3500 
z
" transform="scale(0.015625)"/>
      <path id="DejaVuSans-Bold-20" transform="scale(0.015625)"/>
      <path id="DejaVuSans-Bold-4d" d="M 588 4666 
L 2119 4666 
L 3181 2169 
L 4250 4666 
L 5778 4666 
L 5778 0 
L 4641 0 
L 4641 3413 
L 3566 897 
L 2803 897 
L 1728 3413 
L 1728 0 
L 588 0 
L 588 4666 
z
" transform="scale(0.015625)"/>
      <path id="DejaVuSans-Bold-6f" d="M 2203 2784 
Q 1831 2784 1636 2517 
Q 1441 2250 1441 1747 
Q 1441 1244 1636 976 
Q 1831 709 2203 709 
Q 2569 709 2762 976 
Q 2956 1244 2956 1747 
Q 2956 2250 2762 2517 
Q 2569 2784 2203 2784 
z
M 2203 3584 
Q 3106 3584 3614 3096 
Q 4122 2609 4122 1747 
Q 4122 884 3614 396 
Q 3106 -91 2203 -91 
Q 1297 -91 786 396 
Q 275 884 275 1747 
Q 275 2609 786 3096 
Q 1297 3584 2203 3584 
z
" transform="scale(0.015625)"/>
     </defs>
     <use xlink:href="#DejaVuSans-Bold-4e"/>
     <use xlink:href="#DejaVuSans-Bold-65" transform="translate(83.691406 0)"/>
     <use xlink:href="#DejaVuSans-Bold-77" transform="translate(151.513672 0)"/>
     <use xlink:href="#DejaVuSans-Bold-20" transform="translate(243.896484 0)"/>
     <use xlink:href="#DejaVuSans-Bold-4d" transform="translate(278.710938 0)"/>
     <use xlink:href="#DejaVuSans-Bold-6f" transform="translate(378.222656 0)"/>
     <use xlink:href="#DejaVuSans-Bold-6f" transform="translate(446.923828 0)"/>
     <use xlink:href="#DejaVuSans-Bold-6e" transform="translate(515.625 0)"/>
    </g>
   </g>
   <g id="text_4">
    <!-- Waxing Crescent -->
    <g transform="translate(460.211245 97.853155) scale(0.1 -0.1)">
     <defs>
      <path id="DejaVuSans-Bold-57" d="M 191 4666 
L 1344 4666 
L 2150 1275 
L 2950 4666 
L 4109 4666 
L 4909 1275 
L 5716 4666 
L 6859 4666 
L 5759 0 
L 4372 0 
L 3525 3547 
L 2688 0 
L 1300 0 
L 191 4666 
z
" transform="scale(0.015625)"/>
      <path id="DejaVuSans-Bold-78" d="M 1422 1791 
L 159 3500 
L 1344 3500 
L 2059 2463 
L 2784 3500 
L 3969 3500 
L 2706 1797 
L 4031 0 
L 2847 0 
L 2059 1106 
L 1281 0 
L 97 0 
L 1422 1791 
z
" transform="scale(0.015625)"/>
      <path id="DejaVuSans-Bold-43" d="M 4288 256 
Q 3956 84 3597 -3 
Q 3238 -91 2847 -91 
Q 1681 -91 1000 561 
Q 319 1213 319 2328 
Q 319 3447 1000 4098 
Q 1681 4750 2847 4750 
Q 3238 4750 3597 4662 
Q 3956 4575 4288 4403 
L 4288 3438 
Q 3953 3666 3628 3772 
Q 3303 3878 2944 3878 
Q 2300 3878 1931 3465 
Q 1563 3053 1563 2328 
Q 1563 1606 1931 1193 
Q 2300 781 2944 781 
Q 3303 781 3628 887 
Q 3953 994 4288 1222 
L 4288 256 
z
" transform="scale(0.015625)"/>
      <path id="DejaVuSans-Bold-73" d="M 3272 3391 
L 3272 2541 
Q 2913 2691 2578 2766 
Q 2244 2841 1947 2841 
Q 1628 2841 1473 2761 
Q 1319 2681 1319 2516 
Q 1319 2381 1436 2309 
Q 1553 2238 1856 2203 
L 2053 2175 
Q 2913 2066 3209 1816 
Q 3506 1566 3506 1031 
Q 3506 472 3093 190 
Q 2681 -91 1863 -91 
Q 1516 -91 1145 -36 
Q 775 19 384 128 
L 384 978 
Q 719 816 1070 734 
Q 1422 653 1784 653 
Q 2113 653 2278 743 
Q 2444 834 2444 1013 
Q 2444 1163 2330 1236 
Q 2216 1309 1875 1350 
L 1678 1375 
Q 931 1469 631 1722 
Q 331 1975 331 2491 
Q 331 3047 712 3315 
Q 1094 3584 1881 3584 
Q 2191 3584 2531 3537 
Q 2872 3491 3272 3391 
z
" transform="scale(0.015625)"/>
      <path id="DejaVuSans-Bold-63" d="M 3366 3391 
L 3366 2478 
Q 3138 2634 2908 2709 
Q 2678 2784 2431 2784 
Q 1963 2784 1702 2511 
Q 1441 2238 1441 1747 
Q 1441 1256 1702 982 
Q 1963 709 2431 709 
Q 2694 709 2930 787 
Q 3166 866 3366 1019 
L 3366 103 
Q 3103 6 2833 -42 
Q 2563 -91 2291 -91 
Q 1344 -91 809 395 
Q 275 881 275 1747 
Q 275 2613 809 3098 
Q 1344 3584 2291 3584 
Q 2566 3584 2833 3536 
Q 3100 3488 3366 3391 
z
" transform="scale(0.015625)"/>
     </defs>
     <use xlink:href="#DejaVuSans-Bold-57"/>
     <use xlink:href="#DejaVuSans-Bold-61" transform="translate(106.677734 0)"/>
     <use xlink:href="#DejaVuSans-Bold-78" transform="translate(174.158203 0)"/>
     <use xlink:href="#DejaVuSans-Bold-69" transform="translate(238.660156 0)"/>
     <use xlink:href="#DejaVuSans-Bold-6e" transform="translate(272.9375 0)"/>
     <use xlink:href="#DejaVuSans-Bold-67" transform="translate(344.128906 0)"/>
     <use xlink:href="#DejaVuSans-Bold-20" transform="translate(415.710938 0)"/>
     <use xlink:href="#DejaVuSans-Bold-43" transform="translate(450.525391 0)"/>
     <use xlink:href="#DejaVuSans-Bold-72" transform="translate(523.914062 0)"/>
     <use xlink:href="#DejaVuSans-Bold-65" transform="translate(573.230469 0)"/>
     <use xlink:href="#DejaVuSans-Bold-73" transform="translate(641.052734 0)"/>
     <use xlink:href="#DejaVuSans-Bold-63" transform="translate(700.574219 0)"/>
     <use xlink:href="#DejaVuSans-Bold-65" transform="translate(759.851562 0)"/>
     <use xlink:href="#DejaVuSans-Bold-6e" transform="translate(827.673828 0)"/>
     <use xlink:href="#DejaVuSans-Bold-74" transform="translate(898.865234 0)"/>
    </g>
   </g>
   <g id="text_5">
    <!-- First Quarter -->
    <g transform="translate(278.078463 18.004025) scale(0.1 -0.1)">
     <defs>
      <path id="DejaVuSans-Bold-46" d="M 588 4666 
L 3834 4666 
L 3834 3756 
L 1791 3756 
L 1791 2888 
L 3713 2888 
L 3713 1978 
L 1791 1978 
L 1791 0 
L 588 0 
L 588 4666 
z
" transform="scale(0.015625)"/>
      <path id="DejaVuSans-Bold-51" d="M 2847 -84 
L 2753 -84 
Q 1600 -84 959 553 
Q 319 1191 319 2328 
Q 319 3463 958 4106 
Q 1597 4750 2719 4750 
Q 3853 4750 4486 4112 
Q 5119 3475 5119 2328 
Q 5119 1541 4783 972 
Q 4447 403 3816 116 
L 4756 -934 
L 3609 -934 
L 2847 -84 
z
M 2719 3878 
Q 2169 3878 1866 3472 
Q 1563 3066 1563 2328 
Q 1563 1578 1859 1179 
Q 2156 781 2719 781 
Q 3272 781 3575 1187 
Q 3878 1594 3878 2328 
Q 3878 3066 3575 3472 
Q 3272 3878 2719 3878 
z
" transform="scale(0.015625)"/>
     </defs>
     <use xlink:href="#DejaVuSans-Bold-46"/>
     <use xlink:href="#DejaVuSans-Bold-69" transform="translate(68.310547 0)"/>
     <use xlink:href="#DejaVuSans-Bold-72" transform="translate(102.587891 0)"/>
     <use xlink:href="#DejaVuSans-Bold-73" transform="translate(151.904297 0)"/>
     <use xlink:href="#DejaVuSans-Bold-74" transform="translate(211.425781 0)"/>
     <use xlink:href="#DejaVuSans-Bold-20" transform="translate(259.228516 0)"/>
     <use xlink:href="#DejaVuSans-Bold-51" transform="translate(294.042969 0)"/>
     <use xlink:href="#DejaVuSans-Bold-75" transform="translate(379.052734 0)"/>
     <use xlink:href="#DejaVuSans-Bold-61" transform="translate(450.244141 0)"/>
     <use xlink:href="#DejaVuSans-Bold-72" transform="translate(517.724609 0)"/>
     <use xlink:href="#DejaVuSans-Bold-74" transform="translate(567.041016 0)"/>
     <use xlink:href="#DejaVuSans-Bold-65" transform="translate(614.84375 0)"/>
     <use xlink:href="#DejaVuSans-Bold-72" transform="translate(682.666016 0)"/>
    </g>
   </g>
   <g id="text_6">
    <!-- Waxing Gibbous -->
    <g transform="translate(76.337867 97.853155) scale(0.1 -0.1)">
     <defs>
      <path id="DejaVuSans-Bold-47" d="M 4781 347 
Q 4331 128 3847 18 
Q 3363 -91 2847 -91 
Q 1681 -91 1000 561 
Q 319 1213 319 2328 
Q 319 3456 1012 4103 
Q 1706 4750 2913 4750 
Q 3378 4750 3804 4662 
Q 4231 4575 4609 4403 
L 4609 3438 
Q 4219 3659 3833 3768 
Q 3447 3878 3059 3878 
Q 2341 3878 1952 3476 
Q 1563 3075 1563 2328 
Q 1563 1588 1938 1184 
Q 2313 781 3003 781 
Q 3191 781 3352 804 
Q 3513 828 3641 878 
L 3641 1784 
L 2906 1784 
L 2906 2591 
L 4781 2591 
L 4781 347 
z
" transform="scale(0.015625)"/>
      <path id="DejaVuSans-Bold-62" d="M 2400 722 
Q 2759 722 2948 984 
Q 3138 1247 3138 1747 
Q 3138 2247 2948 2509 
Q 2759 2772 2400 2772 
Q 2041 2772 1848 2508 
Q 1656 2244 1656 1747 
Q 1656 1250 1848 986 
Q 2041 722 2400 722 
z
M 1656 2988 
Q 1888 3294 2169 3439 
Q 2450 3584 2816 3584 
Q 3463 3584 3878 3070 
Q 4294 2556 4294 1747 
Q 4294 938 3878 423 
Q 3463 -91 2816 -91 
Q 2450 -91 2169 54 
Q 1888 200 1656 506 
L 1656 0 
L 538 0 
L 538 4863 
L 1656 4863 
L 1656 2988 
z
" transform="scale(0.015625)"/>
     </defs>
     <use xlink:href="#DejaVuSans-Bold-57"/>
     <use xlink:href="#DejaVuSans-Bold-61" transform="translate(106.677734 0)"/>
     <use xlink:href="#DejaVuSans-Bold-78" transform="translate(174.158203 0)"/>
     <use xlink:href="#DejaVuSans-Bold-69" transform="translate(238.660156 0)"/>
     <use xlink:href="#DejaVuSans-Bold-6e" transform="translate(272.9375 0)"/>
     <use xlink:href="#DejaVuSans-Bold-67" transform="translate(344.128906 0)"/>
     <use xlink:href="#DejaVuSans-Bold-20" transform="translate(415.710938 0)"/>
     <use xlink:href="#DejaVuSans-Bold-47" transform="translate(450.525391 0)"/>
     <use xlink:href="#DejaVuSans-Bold-69" transform="translate(532.605469 0)"/>
     <use xlink:href="#DejaVuSans-Bold-62" transform="translate(566.882812 0)"/>
     <use xlink:href="#DejaVuSans-Bold-62" transform="translate(638.464844 0)"/>
     <use xlink:href="#DejaVuSans-Bold-6f" transform="translate(710.046875 0)"/>
     <use xlink:href="#DejaVuSans-Bold-75" transform="translate(778.748047 0)"/>
     <use xlink:href="#DejaVuSans-Bold-73" transform="translate(849.939453 0)"/>
    </g>
   </g>
   <g id="text_7">
    <!-- Full Moon -->
    <g transform="translate(14.622331 290.759375) scale(0.1 -0.1)">
     <use xlink:href="#DejaVuSans-Bold-46"/>
     <use xlink:href="#DejaVuSans-Bold-75" transform="translate(63.310547 0)"/>
     <use xlink:href="#DejaVuSans-Bold-6c" transform="translate(134.501953 0)"/>
     <use xlink:href="#DejaVuSans-Bold-6c" transform="translate(168.779297 0)"/>
     <use xlink:href="#DejaVuSans-Bold-20" transform="translate(203.056641 0)"/>
     <use xlink:href="#DejaVuSans-Bold-4d" transform="translate(237.871094 0)"/>
     <use xlink:href="#DejaVuSans-Bold-6f" transform="translate(337.382812 0)"/>
     <use xlink:href="#DejaVuSans-Bold-6f" transform="translate(406.083984 0)"/>
     <use xlink:href="#DejaVuSans-Bold-6e" transform="translate(474.785156 0)"/>
    </g>
   </g>
   <g id="text_8">
    <!-- Waning Gibbous -->
    <g transform="translate(76.003492 483.58747) scale(0.1 -0.1)">
     <use xlink:href="#DejaVuSans-Bold-57"/>
     <use xlink:href="#DejaVuSans-Bold-61" transform="translate(106.677734 0)"/>
     <use xlink:href="#DejaVuSans-Bold-6e" transform="translate(174.158203 0)"/>
     <use xlink:href="#DejaVuSans-Bold-69" transform="translate(245.349609 0)"/>
     <use xlink:href="#DejaVuSans-Bold-6e" transform="translate(279.626953 0)"/>
     <use xlink:href="#DejaVuSans-Bold-67" transform="translate(350.818359 0)"/>
     <use xlink:href="#DejaVuSans-Bold-20" transform="translate(422.400391 0)"/>
     <use xlink:href="#DejaVuSans-Bold-47" transform="translate(457.214844 0)"/>
     <use xlink:href="#DejaVuSans-Bold-69" transform="translate(539.294922 0)"/>
     <use xlink:href="#DejaVuSans-Bold-62" transform="translate(573.572266 0)"/>
     <use xlink:href="#DejaVuSans-Bold-62" transform="translate(645.154297 0)"/>
     <use xlink:href="#DejaVuSans-Bold-6f" transform="translate(716.736328 0)"/>
     <use xlink:href="#DejaVuSans-Bold-75" transform="translate(785.4375 0)"/>
     <use xlink:href="#DejaVuSans-Bold-73" transform="translate(856.628906 0)"/>
    </g>
   </g>
   <g id="text_9">
    <!-- Last Quarter -->
    <g transform="translate(279.113619 563.514725) scale(0.1 -0.1)">
     <defs>
      <path id="DejaVuSans-Bold-4c" d="M 588 4666 
L 1791 4666 
L 1791 909 
L 3903 909 
L 3903 0 
L 588 0 
L 588 4666 
z
" transform="scale(0.015625)"/>
     </defs>
     <use xlink:href="#DejaVuSans-Bold-4c"/>
     <use xlink:href="#DejaVuSans-Bold-61" transform="translate(63.720703 0)"/>
     <use xlink:href="#DejaVuSans-Bold-73" transform="translate(131.201172 0)"/>
     <use xlink:href="#DejaVuSans-Bold-74" transform="translate(190.722656 0)"/>
     <use xlink:href="#DejaVuSans-Bold-20" transform="translate(238.525391 0)"/>
     <use xlink:href="#DejaVuSans-Bold-51" transform="translate(273.339844 0)"/>
     <use xlink:href="#DejaVuSans-Bold-75" transform="translate(358.349609 0)"/>
     <use xlink:href="#DejaVuSans-Bold-61" transform="translate(429.541016 0)"/>
     <use xlink:href="#DejaVuSans-Bold-72" transform="translate(497.021484 0)"/>
     <use xlink:href="#DejaVuSans-Bold-74" transform="translate(546.337891 0)"/>
     <use xlink:href="#DejaVuSans-Bold-65" transform="translate(594.140625 0)"/>
     <use xlink:href="#DejaVuSans-Bold-72" transform="translate(661.962891 0)"/>
    </g>
   </g>
   <g id="text_10">
    <!-- Waning Crescent -->
    <g transform="translate(459.87687 483.58747) scale(0.1 -0.1)">
     <use xlink:href="#DejaVuSans-Bold-57"/>
     <use xlink:href="#DejaVuSans-Bold-61" transform="translate(106.677734 0)"/>
     <use xlink:href="#DejaVuSans-Bold-6e" transform="translate(174.158203 0)"/>
     <use xlink:href="#DejaVuSans-Bold-69" transform="translate(245.349609 0)"/>
     <use xlink:href="#DejaVuSans-Bold-6e" transform="translate(279.626953 0)"/>
     <use xlink:href="#DejaVuSans-Bold-67" transform="translate(350.818359 0)"/>
     <use xlink:href="#DejaVuSans-Bold-20" transform="translate(422.400391 0)"/>
     <use xlink:href="#DejaVuSans-Bold-43" transform="translate(457.214844 0)"/>
     <use xlink:href="#DejaVuSans-Bold-72" transform="translate(530.603516 0)"/>
     <use xlink:href="#DejaVuSans-Bold-65" transform="translate(579.919922 0)"/>
     <use xlink:href="#DejaVuSans-Bold-73" transform="translate(647.742188 0)"/>
     <use xlink:href="#DejaVuSans-Bold-63" transform="translate(707.263672 0)"/>
     <use xlink:href="#DejaVuSans-Bold-65" transform="translate(766.541016 0)"/>
     <use xlink:href="#DejaVuSans-Bold-6e" transform="translate(834.363281 0)"/>
     <use xlink:href="#DejaVuSans-Bold-74" transform="translate(905.554688 0)"/>
    </g>
   </g>
   <g id="patch_47">
    <path d="M 314.6769 320.32656 
C 323.250004 320.32656 331.47313 316.92043 337.53523 310.85833 
C 343.59733 304.79623 347.00346 296.573104 347.00346 288 
C 347.00346 279.426896 343.59733 271.20377 337.53523 265.14167 
C 331.47313 259.07957 323.250004 255.67344 314.6769 255.67344 
C 306.103796 255.67344 297.88067 259.07957 291.81857 265.14167 
C 285.75647 271.20377 282.35034 279.426896 282.35034 288 
C 282.35034 296.573104 285.75647 304.79623 291.81857 310.85833 
C 297.88067 316.92043 306.103796 320.32656 314.6769 320.32656 
z
" clip-path="url(#p9bd2b51bcc)" style="fill: #e6f3ff; stroke: #0066cc; stroke-linejoin: miter"/>
   </g>
  </g>
 </g>
 <defs>
  <clipPath id="p9bd2b51bcc">
   <rect x="45.2889" y="18.612" width="646.5312" height="538.776"/>
  </clipPath>
 </defs>
</svg>
