<?xml version="1.0" encoding="utf-8" standalone="no"?>
<!DOCTYPE svg PUBLIC "-//W3C//DTD SVG 1.1//EN"
  "http://www.w3.org/Graphics/SVG/1.1/DTD/svg11.dtd">
<svg xmlns:xlink="http://www.w3.org/1999/xlink" width="998.869295pt" height="426.15625pt" viewBox="0 0 998.869295 426.15625" xmlns="http://www.w3.org/2000/svg" version="1.1">
 <metadata>
  <rdf:RDF xmlns:dc="http://purl.org/dc/elements/1.1/" xmlns:cc="http://creativecommons.org/ns#" xmlns:rdf="http://www.w3.org/1999/02/22-rdf-syntax-ns#">
   <cc:Work>
    <dc:type rdf:resource="http://purl.org/dc/dcmitype/StillImage"/>
    <dc:date>2025-11-25T02:32:40.717990</dc:date>
    <dc:format>image/svg+xml</dc:format>
    <dc:creator>
     <cc:Agent>
      <dc:title>Matplotlib v3.10.8, https://matplotlib.org/</dc:title>
     </cc:Agent>
    </dc:creator>
   </cc:Work>
  </rdf:RDF>
 </metadata>
 <defs>
  <style type="text/css">*{stroke-linejoin: round; stroke-linecap: butt}</style>
 </defs>
 <g id="figure_1">
  <g id="patch_1">
   <path d="M 0 426.15625 
L 998.869295 426.15625 
L 998.869295 0 
L 0 0 
z
" style="fill: #ffffff"/>
  </g>
  <g id="axes_1">
   <g id="patch_2">
    <path d="M 46.965625 388.6 
L 490.223597 388.6 
L 490.223597 45.6 
L 46.965625 45.6 
z
" style="fill: #ffffff"/>
   </g>
   <g id="patch_3">
    <path d="M 67.113715 388.6 
L 72.953741 388.6 
L 72.953741 382.244617 
L 67.113715 382.244617 
z
" clip-path="url(#pb6e8e0bc84)" style="fill: #87ceeb; opacity: 0.7; stroke: #000000; stroke-linejoin: miter"/>
   </g>
   <g id="patch_4">
    <path d="M 72.953741 388.6 
L 78.793767 388.6 
L 78.793767 380.973541 
L 72.953741 380.973541 
z
" clip-path="url(#pb6e8e0bc84)" style="fill: #87ceeb; opacity: 0.7; stroke: #000000; stroke-linejoin: miter"/>
   </g>
   <g id="patch_5">
    <path d="M 78.793767 388.6 
L 84.633793 388.6 
L 84.633793 382.244617 
L 78.793767 382.244617 
z
" clip-path="url(#pb6e8e0bc84)" style="fill: #87ceeb; opacity: 0.7; stroke: #000000; stroke-linejoin: miter"/>
   </g>
   <g id="patch_6">
    <path d="M 84.633793 388.6 
L 90.473819 388.6 
L 90.473819 383.939386 
L 84.633793 383.939386 
z
" clip-path="url(#pb6e8e0bc84)" style="fill: #87ceeb; opacity: 0.7; stroke: #000000; stroke-linejoin: miter"/>
   </g>
   <g id="patch_7">
    <path d="M 90.473819 388.6 
L 96.313845 388.6 
L 96.313845 373.347082 
L 90.473819 373.347082 
z
" clip-path="url(#pb6e8e0bc84)" style="fill: #87ceeb; opacity: 0.7; stroke: #000000; stroke-linejoin: miter"/>
   </g>
   <g id="patch_8">
    <path d="M 96.313845 388.6 
L 102.153871 388.6 
L 102.153871 371.228621 
L 96.313845 371.228621 
z
" clip-path="url(#pb6e8e0bc84)" style="fill: #87ceeb; opacity: 0.7; stroke: #000000; stroke-linejoin: miter"/>
   </g>
   <g id="patch_9">
    <path d="M 102.153871 388.6 
L 107.993897 388.6 
L 107.993897 366.991699 
L 102.153871 366.991699 
z
" clip-path="url(#pb6e8e0bc84)" style="fill: #87ceeb; opacity: 0.7; stroke: #000000; stroke-linejoin: miter"/>
   </g>
   <g id="patch_10">
    <path d="M 107.993897 388.6 
L 113.833922 388.6 
L 113.833922 376.312927 
L 107.993897 376.312927 
z
" clip-path="url(#pb6e8e0bc84)" style="fill: #87ceeb; opacity: 0.7; stroke: #000000; stroke-linejoin: miter"/>
   </g>
   <g id="patch_11">
    <path d="M 113.833922 388.6 
L 119.673948 388.6 
L 119.673948 360.636316 
L 113.833922 360.636316 
z
" clip-path="url(#pb6e8e0bc84)" style="fill: #87ceeb; opacity: 0.7; stroke: #000000; stroke-linejoin: miter"/>
   </g>
   <g id="patch_12">
    <path d="M 119.673948 388.6 
L 125.513974 388.6 
L 125.513974 348.349243 
L 119.673948 348.349243 
z
" clip-path="url(#pb6e8e0bc84)" style="fill: #87ceeb; opacity: 0.7; stroke: #000000; stroke-linejoin: miter"/>
   </g>
   <g id="patch_13">
    <path d="M 125.513974 388.6 
L 131.354 388.6 
L 131.354 369.11016 
L 125.513974 369.11016 
z
" clip-path="url(#pb6e8e0bc84)" style="fill: #87ceeb; opacity: 0.7; stroke: #000000; stroke-linejoin: miter"/>
   </g>
   <g id="patch_14">
    <path d="M 131.354 388.6 
L 137.194026 388.6 
L 137.194026 368.686468 
L 131.354 368.686468 
z
" clip-path="url(#pb6e8e0bc84)" style="fill: #87ceeb; opacity: 0.7; stroke: #000000; stroke-linejoin: miter"/>
   </g>
   <g id="patch_15">
    <path d="M 137.194026 388.6 
L 143.034052 388.6 
L 143.034052 353.009857 
L 137.194026 353.009857 
z
" clip-path="url(#pb6e8e0bc84)" style="fill: #87ceeb; opacity: 0.7; stroke: #000000; stroke-linejoin: miter"/>
   </g>
   <g id="patch_16">
    <path d="M 143.034052 388.6 
L 148.874078 388.6 
L 148.874078 354.704626 
L 143.034052 354.704626 
z
" clip-path="url(#pb6e8e0bc84)" style="fill: #87ceeb; opacity: 0.7; stroke: #000000; stroke-linejoin: miter"/>
   </g>
   <g id="patch_17">
    <path d="M 148.874078 388.6 
L 154.714104 388.6 
L 154.714104 361.060009 
L 148.874078 361.060009 
z
" clip-path="url(#pb6e8e0bc84)" style="fill: #87ceeb; opacity: 0.7; stroke: #000000; stroke-linejoin: miter"/>
   </g>
   <g id="patch_18">
    <path d="M 154.714104 388.6 
L 160.55413 388.6 
L 160.55413 340.722784 
L 154.714104 340.722784 
z
" clip-path="url(#pb6e8e0bc84)" style="fill: #87ceeb; opacity: 0.7; stroke: #000000; stroke-linejoin: miter"/>
   </g>
   <g id="patch_19">
    <path d="M 160.55413 388.6 
L 166.394156 388.6 
L 166.394156 336.485863 
L 160.55413 336.485863 
z
" clip-path="url(#pb6e8e0bc84)" style="fill: #87ceeb; opacity: 0.7; stroke: #000000; stroke-linejoin: miter"/>
   </g>
   <g id="patch_20">
    <path d="M 166.394156 388.6 
L 172.234182 388.6 
L 172.234182 325.893558 
L 166.394156 325.893558 
z
" clip-path="url(#pb6e8e0bc84)" style="fill: #87ceeb; opacity: 0.7; stroke: #000000; stroke-linejoin: miter"/>
   </g>
   <g id="patch_21">
    <path d="M 172.234182 388.6 
L 178.074208 388.6 
L 178.074208 305.980026 
L 172.234182 305.980026 
z
" clip-path="url(#pb6e8e0bc84)" style="fill: #87ceeb; opacity: 0.7; stroke: #000000; stroke-linejoin: miter"/>
   </g>
   <g id="patch_22">
    <path d="M 178.074208 388.6 
L 183.914234 388.6 
L 183.914234 328.435711 
L 178.074208 328.435711 
z
" clip-path="url(#pb6e8e0bc84)" style="fill: #87ceeb; opacity: 0.7; stroke: #000000; stroke-linejoin: miter"/>
   </g>
   <g id="patch_23">
    <path d="M 183.914234 388.6 
L 189.75426 388.6 
L 189.75426 315.724946 
L 183.914234 315.724946 
z
" clip-path="url(#pb6e8e0bc84)" style="fill: #87ceeb; opacity: 0.7; stroke: #000000; stroke-linejoin: miter"/>
   </g>
   <g id="patch_24">
    <path d="M 189.75426 388.6 
L 195.594286 388.6 
L 195.594286 279.287419 
L 189.75426 279.287419 
z
" clip-path="url(#pb6e8e0bc84)" style="fill: #87ceeb; opacity: 0.7; stroke: #000000; stroke-linejoin: miter"/>
   </g>
   <g id="patch_25">
    <path d="M 195.594286 388.6 
L 201.434312 388.6 
L 201.434312 280.134803 
L 195.594286 280.134803 
z
" clip-path="url(#pb6e8e0bc84)" style="fill: #87ceeb; opacity: 0.7; stroke: #000000; stroke-linejoin: miter"/>
   </g>
   <g id="patch_26">
    <path d="M 201.434312 388.6 
L 207.274338 388.6 
L 207.274338 262.763424 
L 201.434312 262.763424 
z
" clip-path="url(#pb6e8e0bc84)" style="fill: #87ceeb; opacity: 0.7; stroke: #000000; stroke-linejoin: miter"/>
   </g>
   <g id="patch_27">
    <path d="M 207.274338 388.6 
L 213.114364 388.6 
L 213.114364 241.155123 
L 207.274338 241.155123 
z
" clip-path="url(#pb6e8e0bc84)" style="fill: #87ceeb; opacity: 0.7; stroke: #000000; stroke-linejoin: miter"/>
   </g>
   <g id="patch_28">
    <path d="M 213.114364 388.6 
L 218.95439 388.6 
L 218.95439 218.275746 
L 213.114364 218.275746 
z
" clip-path="url(#pb6e8e0bc84)" style="fill: #87ceeb; opacity: 0.7; stroke: #000000; stroke-linejoin: miter"/>
   </g>
   <g id="patch_29">
    <path d="M 218.95439 388.6 
L 224.794416 388.6 
L 224.794416 217.852054 
L 218.95439 217.852054 
z
" clip-path="url(#pb6e8e0bc84)" style="fill: #87ceeb; opacity: 0.7; stroke: #000000; stroke-linejoin: miter"/>
   </g>
   <g id="patch_30">
    <path d="M 224.794416 388.6 
L 230.634442 388.6 
L 230.634442 214.886208 
L 224.794416 214.886208 
z
" clip-path="url(#pb6e8e0bc84)" style="fill: #87ceeb; opacity: 0.7; stroke: #000000; stroke-linejoin: miter"/>
   </g>
   <g id="patch_31">
    <path d="M 230.634442 388.6 
L 236.474468 388.6 
L 236.474468 189.464678 
L 230.634442 189.464678 
z
" clip-path="url(#pb6e8e0bc84)" style="fill: #87ceeb; opacity: 0.7; stroke: #000000; stroke-linejoin: miter"/>
   </g>
   <g id="patch_32">
    <path d="M 236.474468 388.6 
L 242.314494 388.6 
L 242.314494 186.498833 
L 236.474468 186.498833 
z
" clip-path="url(#pb6e8e0bc84)" style="fill: #87ceeb; opacity: 0.7; stroke: #000000; stroke-linejoin: miter"/>
   </g>
   <g id="patch_33">
    <path d="M 242.314494 388.6 
L 248.15452 388.6 
L 248.15452 140.740078 
L 242.314494 140.740078 
z
" clip-path="url(#pb6e8e0bc84)" style="fill: #87ceeb; opacity: 0.7; stroke: #000000; stroke-linejoin: miter"/>
   </g>
   <g id="patch_34">
    <path d="M 248.15452 388.6 
L 253.994546 388.6 
L 253.994546 106.421012 
L 248.15452 106.421012 
z
" clip-path="url(#pb6e8e0bc84)" style="fill: #87ceeb; opacity: 0.7; stroke: #000000; stroke-linejoin: miter"/>
   </g>
   <g id="patch_35">
    <path d="M 253.994546 388.6 
L 259.834572 388.6 
L 259.834572 61.933333 
L 253.994546 61.933333 
z
" clip-path="url(#pb6e8e0bc84)" style="fill: #87ceeb; opacity: 0.7; stroke: #000000; stroke-linejoin: miter"/>
   </g>
   <g id="patch_36">
    <path d="M 259.834572 388.6 
L 265.674598 388.6 
L 265.674598 65.322871 
L 259.834572 65.322871 
z
" clip-path="url(#pb6e8e0bc84)" style="fill: #87ceeb; opacity: 0.7; stroke: #000000; stroke-linejoin: miter"/>
   </g>
   <g id="patch_37">
    <path d="M 265.674598 388.6 
L 271.514624 388.6 
L 271.514624 65.322871 
L 265.674598 65.322871 
z
" clip-path="url(#pb6e8e0bc84)" style="fill: #87ceeb; opacity: 0.7; stroke: #000000; stroke-linejoin: miter"/>
   </g>
   <g id="patch_38">
    <path d="M 271.514624 388.6 
L 277.35465 388.6 
L 277.35465 82.69425 
L 271.514624 82.69425 
z
" clip-path="url(#pb6e8e0bc84)" style="fill: #87ceeb; opacity: 0.7; stroke: #000000; stroke-linejoin: miter"/>
   </g>
   <g id="patch_39">
    <path d="M 277.35465 388.6 
L 283.194676 388.6 
L 283.194676 108.11578 
L 277.35465 108.11578 
z
" clip-path="url(#pb6e8e0bc84)" style="fill: #87ceeb; opacity: 0.7; stroke: #000000; stroke-linejoin: miter"/>
   </g>
   <g id="patch_40">
    <path d="M 283.194676 388.6 
L 289.034702 388.6 
L 289.034702 126.334544 
L 283.194676 126.334544 
z
" clip-path="url(#pb6e8e0bc84)" style="fill: #87ceeb; opacity: 0.7; stroke: #000000; stroke-linejoin: miter"/>
   </g>
   <g id="patch_41">
    <path d="M 289.034702 388.6 
L 294.874728 388.6 
L 294.874728 150.90869 
L 289.034702 150.90869 
z
" clip-path="url(#pb6e8e0bc84)" style="fill: #87ceeb; opacity: 0.7; stroke: #000000; stroke-linejoin: miter"/>
   </g>
   <g id="patch_42">
    <path d="M 294.874728 388.6 
L 300.714754 388.6 
L 300.714754 186.498833 
L 294.874728 186.498833 
z
" clip-path="url(#pb6e8e0bc84)" style="fill: #87ceeb; opacity: 0.7; stroke: #000000; stroke-linejoin: miter"/>
   </g>
   <g id="patch_43">
    <path d="M 300.714754 388.6 
L 306.55478 388.6 
L 306.55478 232.257588 
L 300.714754 232.257588 
z
" clip-path="url(#pb6e8e0bc84)" style="fill: #87ceeb; opacity: 0.7; stroke: #000000; stroke-linejoin: miter"/>
   </g>
   <g id="patch_44">
    <path d="M 306.55478 388.6 
L 312.394806 388.6 
L 312.394806 244.968353 
L 306.55478 244.968353 
z
" clip-path="url(#pb6e8e0bc84)" style="fill: #87ceeb; opacity: 0.7; stroke: #000000; stroke-linejoin: miter"/>
   </g>
   <g id="patch_45">
    <path d="M 312.394806 388.6 
L 318.234832 388.6 
L 318.234832 251.747428 
L 312.394806 251.747428 
z
" clip-path="url(#pb6e8e0bc84)" style="fill: #87ceeb; opacity: 0.7; stroke: #000000; stroke-linejoin: miter"/>
   </g>
   <g id="patch_46">
    <path d="M 318.234832 388.6 
L 324.074858 388.6 
L 324.074858 248.35789 
L 318.234832 248.35789 
z
" clip-path="url(#pb6e8e0bc84)" style="fill: #87ceeb; opacity: 0.7; stroke: #000000; stroke-linejoin: miter"/>
   </g>
   <g id="patch_47">
    <path d="M 324.074858 388.6 
L 329.914884 388.6 
L 329.914884 264.034501 
L 324.074858 264.034501 
z
" clip-path="url(#pb6e8e0bc84)" style="fill: #87ceeb; opacity: 0.7; stroke: #000000; stroke-linejoin: miter"/>
   </g>
   <g id="patch_48">
    <path d="M 329.914884 388.6 
L 335.75491 388.6 
L 335.75491 286.490186 
L 329.914884 286.490186 
z
" clip-path="url(#pb6e8e0bc84)" style="fill: #87ceeb; opacity: 0.7; stroke: #000000; stroke-linejoin: miter"/>
   </g>
   <g id="patch_49">
    <path d="M 335.75491 388.6 
L 341.594936 388.6 
L 341.594936 294.116645 
L 335.75491 294.116645 
z
" clip-path="url(#pb6e8e0bc84)" style="fill: #87ceeb; opacity: 0.7; stroke: #000000; stroke-linejoin: miter"/>
   </g>
   <g id="patch_50">
    <path d="M 341.594936 388.6 
L 347.434962 388.6 
L 347.434962 255.984349 
L 341.594936 255.984349 
z
" clip-path="url(#pb6e8e0bc84)" style="fill: #87ceeb; opacity: 0.7; stroke: #000000; stroke-linejoin: miter"/>
   </g>
   <g id="patch_51">
    <path d="M 347.434962 388.6 
L 353.274988 388.6 
L 353.274988 311.488024 
L 347.434962 311.488024 
z
" clip-path="url(#pb6e8e0bc84)" style="fill: #87ceeb; opacity: 0.7; stroke: #000000; stroke-linejoin: miter"/>
   </g>
   <g id="patch_52">
    <path d="M 353.274988 388.6 
L 359.115014 388.6 
L 359.115014 319.961868 
L 353.274988 319.961868 
z
" clip-path="url(#pb6e8e0bc84)" style="fill: #87ceeb; opacity: 0.7; stroke: #000000; stroke-linejoin: miter"/>
   </g>
   <g id="patch_53">
    <path d="M 359.115014 388.6 
L 364.95504 388.6 
L 364.95504 316.996022 
L 359.115014 316.996022 
z
" clip-path="url(#pb6e8e0bc84)" style="fill: #87ceeb; opacity: 0.7; stroke: #000000; stroke-linejoin: miter"/>
   </g>
   <g id="patch_54">
    <path d="M 364.95504 388.6 
L 370.795066 388.6 
L 370.795066 335.214786 
L 364.95504 335.214786 
z
" clip-path="url(#pb6e8e0bc84)" style="fill: #87ceeb; opacity: 0.7; stroke: #000000; stroke-linejoin: miter"/>
   </g>
   <g id="patch_55">
    <path d="M 370.795066 388.6 
L 376.635092 388.6 
L 376.635092 314.453869 
L 370.795066 314.453869 
z
" clip-path="url(#pb6e8e0bc84)" style="fill: #87ceeb; opacity: 0.7; stroke: #000000; stroke-linejoin: miter"/>
   </g>
   <g id="patch_56">
    <path d="M 376.635092 388.6 
L 382.475118 388.6 
L 382.475118 348.772936 
L 376.635092 348.772936 
z
" clip-path="url(#pb6e8e0bc84)" style="fill: #87ceeb; opacity: 0.7; stroke: #000000; stroke-linejoin: miter"/>
   </g>
   <g id="patch_57">
    <path d="M 382.475118 388.6 
L 388.315144 388.6 
L 388.315144 358.094163 
L 382.475118 358.094163 
z
" clip-path="url(#pb6e8e0bc84)" style="fill: #87ceeb; opacity: 0.7; stroke: #000000; stroke-linejoin: miter"/>
   </g>
   <g id="patch_58">
    <path d="M 388.315144 388.6 
L 394.15517 388.6 
L 394.15517 367.839083 
L 388.315144 367.839083 
z
" clip-path="url(#pb6e8e0bc84)" style="fill: #87ceeb; opacity: 0.7; stroke: #000000; stroke-linejoin: miter"/>
   </g>
   <g id="patch_59">
    <path d="M 394.15517 388.6 
L 399.995196 388.6 
L 399.995196 353.43355 
L 394.15517 353.43355 
z
" clip-path="url(#pb6e8e0bc84)" style="fill: #87ceeb; opacity: 0.7; stroke: #000000; stroke-linejoin: miter"/>
   </g>
   <g id="patch_60">
    <path d="M 399.995196 388.6 
L 405.835222 388.6 
L 405.835222 353.857242 
L 399.995196 353.857242 
z
" clip-path="url(#pb6e8e0bc84)" style="fill: #87ceeb; opacity: 0.7; stroke: #000000; stroke-linejoin: miter"/>
   </g>
   <g id="patch_61">
    <path d="M 405.835222 388.6 
L 411.675248 388.6 
L 411.675248 351.738781 
L 405.835222 351.738781 
z
" clip-path="url(#pb6e8e0bc84)" style="fill: #87ceeb; opacity: 0.7; stroke: #000000; stroke-linejoin: miter"/>
   </g>
   <g id="patch_62">
    <path d="M 411.675248 388.6 
L 417.515274 388.6 
L 417.515274 351.315089 
L 411.675248 351.315089 
z
" clip-path="url(#pb6e8e0bc84)" style="fill: #87ceeb; opacity: 0.7; stroke: #000000; stroke-linejoin: miter"/>
   </g>
   <g id="patch_63">
    <path d="M 417.515274 388.6 
L 423.3553 388.6 
L 423.3553 369.533852 
L 417.515274 369.533852 
z
" clip-path="url(#pb6e8e0bc84)" style="fill: #87ceeb; opacity: 0.7; stroke: #000000; stroke-linejoin: miter"/>
   </g>
   <g id="patch_64">
    <path d="M 423.3553 388.6 
L 429.195326 388.6 
L 429.195326 366.568007 
L 423.3553 366.568007 
z
" clip-path="url(#pb6e8e0bc84)" style="fill: #87ceeb; opacity: 0.7; stroke: #000000; stroke-linejoin: miter"/>
   </g>
   <g id="patch_65">
    <path d="M 429.195326 388.6 
L 435.035352 388.6 
L 435.035352 361.907393 
L 429.195326 361.907393 
z
" clip-path="url(#pb6e8e0bc84)" style="fill: #87ceeb; opacity: 0.7; stroke: #000000; stroke-linejoin: miter"/>
   </g>
   <g id="patch_66">
    <path d="M 435.035352 388.6 
L 440.875378 388.6 
L 440.875378 377.584003 
L 435.035352 377.584003 
z
" clip-path="url(#pb6e8e0bc84)" style="fill: #87ceeb; opacity: 0.7; stroke: #000000; stroke-linejoin: miter"/>
   </g>
   <g id="patch_67">
    <path d="M 440.875378 388.6 
L 446.715403 388.6 
L 446.715403 372.076005 
L 440.875378 372.076005 
z
" clip-path="url(#pb6e8e0bc84)" style="fill: #87ceeb; opacity: 0.7; stroke: #000000; stroke-linejoin: miter"/>
   </g>
   <g id="patch_68">
    <path d="M 446.715403 388.6 
L 452.555429 388.6 
L 452.555429 384.78677 
L 446.715403 384.78677 
z
" clip-path="url(#pb6e8e0bc84)" style="fill: #87ceeb; opacity: 0.7; stroke: #000000; stroke-linejoin: miter"/>
   </g>
   <g id="patch_69">
    <path d="M 452.555429 388.6 
L 458.395455 388.6 
L 458.395455 386.481539 
L 452.555429 386.481539 
z
" clip-path="url(#pb6e8e0bc84)" style="fill: #87ceeb; opacity: 0.7; stroke: #000000; stroke-linejoin: miter"/>
   </g>
   <g id="patch_70">
    <path d="M 458.395455 388.6 
L 464.235481 388.6 
L 464.235481 386.057847 
L 458.395455 386.057847 
z
" clip-path="url(#pb6e8e0bc84)" style="fill: #87ceeb; opacity: 0.7; stroke: #000000; stroke-linejoin: miter"/>
   </g>
   <g id="patch_71">
    <path d="M 464.235481 388.6 
L 470.075507 388.6 
L 470.075507 387.328923 
L 464.235481 387.328923 
z
" clip-path="url(#pb6e8e0bc84)" style="fill: #87ceeb; opacity: 0.7; stroke: #000000; stroke-linejoin: miter"/>
   </g>
   <g id="matplotlib.axis_1">
    <g id="xtick_1">
     <g id="line2d_1">
      <path d="M 98.211017 388.6 
L 98.211017 45.6 
" clip-path="url(#pb6e8e0bc84)" style="fill: none; stroke: #b0b0b0; stroke-opacity: 0.3; stroke-width: 0.8; stroke-linecap: square"/>
     </g>
     <g id="line2d_2">
      <defs>
       <path id="mf47ec07021" d="M 0 0 
L 0 3.5 
" style="stroke: #000000; stroke-width: 0.8"/>
      </defs>
      <g>
       <use xlink:href="#mf47ec07021" x="98.211017" y="388.6" style="stroke: #000000; stroke-width: 0.8"/>
      </g>
     </g>
     <g id="text_1">
      <!-- −0.4 -->
      <g transform="translate(86.06961 403.198437) scale(0.1 -0.1)">
       <defs>
        <path id="DejaVuSans-2212" d="M 678 2272 
L 4684 2272 
L 4684 1741 
L 678 1741 
L 678 2272 
z
" transform="scale(0.015625)"/>
        <path id="DejaVuSans-30" d="M 2034 4250 
Q 1547 4250 1301 3770 
Q 1056 3291 1056 2328 
Q 1056 1369 1301 889 
Q 1547 409 2034 409 
Q 2525 409 2770 889 
Q 3016 1369 3016 2328 
Q 3016 3291 2770 3770 
Q 2525 4250 2034 4250 
z
M 2034 4750 
Q 2819 4750 3233 4129 
Q 3647 3509 3647 2328 
Q 3647 1150 3233 529 
Q 2819 -91 2034 -91 
Q 1250 -91 836 529 
Q 422 1150 422 2328 
Q 422 3509 836 4129 
Q 1250 4750 2034 4750 
z
" transform="scale(0.015625)"/>
        <path id="DejaVuSans-2e" d="M 684 794 
L 1344 794 
L 1344 0 
L 684 0 
L 684 794 
z
" transform="scale(0.015625)"/>
        <path id="DejaVuSans-34" d="M 2419 4116 
L 825 1625 
L 2419 1625 
L 2419 4116 
z
M 2253 4666 
L 3047 4666 
L 3047 1625 
L 3713 1625 
L 3713 1100 
L 3047 1100 
L 3047 0 
L 2419 0 
L 2419 1100 
L 313 1100 
L 313 1709 
L 2253 4666 
z
" transform="scale(0.015625)"/>
       </defs>
       <use xlink:href="#DejaVuSans-2212"/>
       <use xlink:href="#DejaVuSans-30" transform="translate(83.789062 0)"/>
       <use xlink:href="#DejaVuSans-2e" transform="translate(147.412109 0)"/>
       <use xlink:href="#DejaVuSans-34" transform="translate(179.199219 0)"/>
      </g>
     </g>
    </g>
    <g id="xtick_2">
     <g id="line2d_3">
      <path d="M 182.301536 388.6 
L 182.301536 45.6 
" clip-path="url(#pb6e8e0bc84)" style="fill: none; stroke: #b0b0b0; stroke-opacity: 0.3; stroke-width: 0.8; stroke-linecap: square"/>
     </g>
     <g id="line2d_4">
      <g>
       <use xlink:href="#mf47ec07021" x="182.301536" y="388.6" style="stroke: #000000; stroke-width: 0.8"/>
      </g>
     </g>
     <g id="text_2">
      <!-- −0.2 -->
      <g transform="translate(170.16013 403.198437) scale(0.1 -0.1)">
       <defs>
        <path id="DejaVuSans-32" d="M 1228 531 
L 3431 531 
L 3431 0 
L 469 0 
L 469 531 
Q 828 903 1448 1529 
Q 2069 2156 2228 2338 
Q 2531 2678 2651 2914 
Q 2772 3150 2772 3378 
Q 2772 3750 2511 3984 
Q 2250 4219 1831 4219 
Q 1534 4219 1204 4116 
Q 875 4013 500 3803 
L 500 4441 
Q 881 4594 1212 4672 
Q 1544 4750 1819 4750 
Q 2544 4750 2975 4387 
Q 3406 4025 3406 3419 
Q 3406 3131 3298 2873 
Q 3191 2616 2906 2266 
Q 2828 2175 2409 1742 
Q 1991 1309 1228 531 
z
" transform="scale(0.015625)"/>
       </defs>
       <use xlink:href="#DejaVuSans-2212"/>
       <use xlink:href="#DejaVuSans-30" transform="translate(83.789062 0)"/>
       <use xlink:href="#DejaVuSans-2e" transform="translate(147.412109 0)"/>
       <use xlink:href="#DejaVuSans-32" transform="translate(179.199219 0)"/>
      </g>
     </g>
    </g>
    <g id="xtick_3">
     <g id="line2d_5">
      <path d="M 266.392055 388.6 
L 266.392055 45.6 
" clip-path="url(#pb6e8e0bc84)" style="fill: none; stroke: #b0b0b0; stroke-opacity: 0.3; stroke-width: 0.8; stroke-linecap: square"/>
     </g>
     <g id="line2d_6">
      <g>
       <use xlink:href="#mf47ec07021" x="266.392055" y="388.6" style="stroke: #000000; stroke-width: 0.8"/>
      </g>
     </g>
     <g id="text_3">
      <!-- 0.0 -->
      <g transform="translate(258.440492 403.198437) scale(0.1 -0.1)">
       <use xlink:href="#DejaVuSans-30"/>
       <use xlink:href="#DejaVuSans-2e" transform="translate(63.623047 0)"/>
       <use xlink:href="#DejaVuSans-30" transform="translate(95.410156 0)"/>
      </g>
     </g>
    </g>
    <g id="xtick_4">
     <g id="line2d_7">
      <path d="M 350.482574 388.6 
L 350.482574 45.6 
" clip-path="url(#pb6e8e0bc84)" style="fill: none; stroke: #b0b0b0; stroke-opacity: 0.3; stroke-width: 0.8; stroke-linecap: square"/>
     </g>
     <g id="line2d_8">
      <g>
       <use xlink:href="#mf47ec07021" x="350.482574" y="388.6" style="stroke: #000000; stroke-width: 0.8"/>
      </g>
     </g>
     <g id="text_4">
      <!-- 0.2 -->
      <g transform="translate(342.531012 403.198437) scale(0.1 -0.1)">
       <use xlink:href="#DejaVuSans-30"/>
       <use xlink:href="#DejaVuSans-2e" transform="translate(63.623047 0)"/>
       <use xlink:href="#DejaVuSans-32" transform="translate(95.410156 0)"/>
      </g>
     </g>
    </g>
    <g id="xtick_5">
     <g id="line2d_9">
      <path d="M 434.573093 388.6 
L 434.573093 45.6 
" clip-path="url(#pb6e8e0bc84)" style="fill: none; stroke: #b0b0b0; stroke-opacity: 0.3; stroke-width: 0.8; stroke-linecap: square"/>
     </g>
     <g id="line2d_10">
      <g>
       <use xlink:href="#mf47ec07021" x="434.573093" y="388.6" style="stroke: #000000; stroke-width: 0.8"/>
      </g>
     </g>
     <g id="text_5">
      <!-- 0.4 -->
      <g transform="translate(426.621531 403.198437) scale(0.1 -0.1)">
       <use xlink:href="#DejaVuSans-30"/>
       <use xlink:href="#DejaVuSans-2e" transform="translate(63.623047 0)"/>
       <use xlink:href="#DejaVuSans-34" transform="translate(95.410156 0)"/>
      </g>
     </g>
    </g>
    <g id="text_6">
     <!-- Error (degrees) -->
     <g transform="translate(230.793049 416.876562) scale(0.1 -0.1)">
      <defs>
       <path id="DejaVuSans-45" d="M 628 4666 
L 3578 4666 
L 3578 4134 
L 1259 4134 
L 1259 2753 
L 3481 2753 
L 3481 2222 
L 1259 2222 
L 1259 531 
L 3634 531 
L 3634 0 
L 628 0 
L 628 4666 
z
" transform="scale(0.015625)"/>
       <path id="DejaVuSans-72" d="M 2631 2963 
Q 2534 3019 2420 3045 
Q 2306 3072 2169 3072 
Q 1681 3072 1420 2755 
Q 1159 2438 1159 1844 
L 1159 0 
L 581 0 
L 581 3500 
L 1159 3500 
L 1159 2956 
Q 1341 3275 1631 3429 
Q 1922 3584 2338 3584 
Q 2397 3584 2469 3576 
Q 2541 3569 2628 3553 
L 2631 2963 
z
" transform="scale(0.015625)"/>
       <path id="DejaVuSans-6f" d="M 1959 3097 
Q 1497 3097 1228 2736 
Q 959 2375 959 1747 
Q 959 1119 1226 758 
Q 1494 397 1959 397 
Q 2419 397 2687 759 
Q 2956 1122 2956 1747 
Q 2956 2369 2687 2733 
Q 2419 3097 1959 3097 
z
M 1959 3584 
Q 2709 3584 3137 3096 
Q 3566 2609 3566 1747 
Q 3566 888 3137 398 
Q 2709 -91 1959 -91 
Q 1206 -91 779 398 
Q 353 888 353 1747 
Q 353 2609 779 3096 
Q 1206 3584 1959 3584 
z
" transform="scale(0.015625)"/>
       <path id="DejaVuSans-20" transform="scale(0.015625)"/>
       <path id="DejaVuSans-28" d="M 1984 4856 
Q 1566 4138 1362 3434 
Q 1159 2731 1159 2009 
Q 1159 1288 1364 580 
Q 1569 -128 1984 -844 
L 1484 -844 
Q 1016 -109 783 600 
Q 550 1309 550 2009 
Q 550 2706 781 3412 
Q 1013 4119 1484 4856 
L 1984 4856 
z
" transform="scale(0.015625)"/>
       <path id="DejaVuSans-64" d="M 2906 2969 
L 2906 4863 
L 3481 4863 
L 3481 0 
L 2906 0 
L 2906 525 
Q 2725 213 2448 61 
Q 2172 -91 1784 -91 
Q 1150 -91 751 415 
Q 353 922 353 1747 
Q 353 2572 751 3078 
Q 1150 3584 1784 3584 
Q 2172 3584 2448 3432 
Q 2725 3281 2906 2969 
z
M 947 1747 
Q 947 1113 1208 752 
Q 1469 391 1925 391 
Q 2381 391 2643 752 
Q 2906 1113 2906 1747 
Q 2906 2381 2643 2742 
Q 2381 3103 1925 3103 
Q 1469 3103 1208 2742 
Q 947 2381 947 1747 
z
" transform="scale(0.015625)"/>
       <path id="DejaVuSans-65" d="M 3597 1894 
L 3597 1613 
L 953 1613 
Q 991 1019 1311 708 
Q 1631 397 2203 397 
Q 2534 397 2845 478 
Q 3156 559 3463 722 
L 3463 178 
Q 3153 47 2828 -22 
Q 2503 -91 2169 -91 
Q 1331 -91 842 396 
Q 353 884 353 1716 
Q 353 2575 817 3079 
Q 1281 3584 2069 3584 
Q 2775 3584 3186 3129 
Q 3597 2675 3597 1894 
z
M 3022 2063 
Q 3016 2534 2758 2815 
Q 2500 3097 2075 3097 
Q 1594 3097 1305 2825 
Q 1016 2553 972 2059 
L 3022 2063 
z
" transform="scale(0.015625)"/>
       <path id="DejaVuSans-67" d="M 2906 1791 
Q 2906 2416 2648 2759 
Q 2391 3103 1925 3103 
Q 1463 3103 1205 2759 
Q 947 2416 947 1791 
Q 947 1169 1205 825 
Q 1463 481 1925 481 
Q 2391 481 2648 825 
Q 2906 1169 2906 1791 
z
M 3481 434 
Q 3481 -459 3084 -895 
Q 2688 -1331 1869 -1331 
Q 1566 -1331 1297 -1286 
Q 1028 -1241 775 -1147 
L 775 -588 
Q 1028 -725 1275 -790 
Q 1522 -856 1778 -856 
Q 2344 -856 2625 -561 
Q 2906 -266 2906 331 
L 2906 616 
Q 2728 306 2450 153 
Q 2172 0 1784 0 
Q 1141 0 747 490 
Q 353 981 353 1791 
Q 353 2603 747 3093 
Q 1141 3584 1784 3584 
Q 2172 3584 2450 3431 
Q 2728 3278 2906 2969 
L 2906 3500 
L 3481 3500 
L 3481 434 
z
" transform="scale(0.015625)"/>
       <path id="DejaVuSans-73" d="M 2834 3397 
L 2834 2853 
Q 2591 2978 2328 3040 
Q 2066 3103 1784 3103 
Q 1356 3103 1142 2972 
Q 928 2841 928 2578 
Q 928 2378 1081 2264 
Q 1234 2150 1697 2047 
L 1894 2003 
Q 2506 1872 2764 1633 
Q 3022 1394 3022 966 
Q 3022 478 2636 193 
Q 2250 -91 1575 -91 
Q 1294 -91 989 -36 
Q 684 19 347 128 
L 347 722 
Q 666 556 975 473 
Q 1284 391 1588 391 
Q 1994 391 2212 530 
Q 2431 669 2431 922 
Q 2431 1156 2273 1281 
Q 2116 1406 1581 1522 
L 1381 1569 
Q 847 1681 609 1914 
Q 372 2147 372 2553 
Q 372 3047 722 3315 
Q 1072 3584 1716 3584 
Q 2034 3584 2315 3537 
Q 2597 3491 2834 3397 
z
" transform="scale(0.015625)"/>
       <path id="DejaVuSans-29" d="M 513 4856 
L 1013 4856 
Q 1481 4119 1714 3412 
Q 1947 2706 1947 2009 
Q 1947 1309 1714 600 
Q 1481 -109 1013 -844 
L 513 -844 
Q 928 -128 1133 580 
Q 1338 1288 1338 2009 
Q 1338 2731 1133 3434 
Q 928 4138 513 4856 
z
" transform="scale(0.015625)"/>
      </defs>
      <use xlink:href="#DejaVuSans-45"/>
      <use xlink:href="#DejaVuSans-72" transform="translate(63.183594 0)"/>
      <use xlink:href="#DejaVuSans-72" transform="translate(102.546875 0)"/>
      <use xlink:href="#DejaVuSans-6f" transform="translate(141.410156 0)"/>
      <use xlink:href="#DejaVuSans-72" transform="translate(202.591797 0)"/>
      <use xlink:href="#DejaVuSans-20" transform="translate(243.705078 0)"/>
      <use xlink:href="#DejaVuSans-28" transform="translate(275.492188 0)"/>
      <use xlink:href="#DejaVuSans-64" transform="translate(314.505859 0)"/>
      <use xlink:href="#DejaVuSans-65" transform="translate(377.982422 0)"/>
      <use xlink:href="#DejaVuSans-67" transform="translate(439.505859 0)"/>
      <use xlink:href="#DejaVuSans-72" transform="translate(502.982422 0)"/>
      <use xlink:href="#DejaVuSans-65" transform="translate(541.845703 0)"/>
      <use xlink:href="#DejaVuSans-65" transform="translate(603.369141 0)"/>
      <use xlink:href="#DejaVuSans-73" transform="translate(664.892578 0)"/>
      <use xlink:href="#DejaVuSans-29" transform="translate(716.992188 0)"/>
     </g>
    </g>
   </g>
   <g id="matplotlib.axis_2">
    <g id="ytick_1">
     <g id="line2d_11">
      <path d="M 46.965625 388.6 
L 490.223597 388.6 
" clip-path="url(#pb6e8e0bc84)" style="fill: none; stroke: #b0b0b0; stroke-opacity: 0.3; stroke-width: 0.8; stroke-linecap: square"/>
     </g>
     <g id="line2d_12">
      <defs>
       <path id="m10a869a73c" d="M 0 0 
L -3.5 0 
" style="stroke: #000000; stroke-width: 0.8"/>
      </defs>
      <g>
       <use xlink:href="#m10a869a73c" x="46.965625" y="388.6" style="stroke: #000000; stroke-width: 0.8"/>
      </g>
     </g>
     <g id="text_7">
      <!-- 0 -->
      <g transform="translate(33.603125 392.399219) scale(0.1 -0.1)">
       <use xlink:href="#DejaVuSans-30"/>
      </g>
     </g>
    </g>
    <g id="ytick_2">
     <g id="line2d_13">
      <path d="M 46.965625 346.230783 
L 490.223597 346.230783 
" clip-path="url(#pb6e8e0bc84)" style="fill: none; stroke: #b0b0b0; stroke-opacity: 0.3; stroke-width: 0.8; stroke-linecap: square"/>
     </g>
     <g id="line2d_14">
      <g>
       <use xlink:href="#m10a869a73c" x="46.965625" y="346.230783" style="stroke: #000000; stroke-width: 0.8"/>
      </g>
     </g>
     <g id="text_8">
      <!-- 100 -->
      <g transform="translate(20.878125 350.030001) scale(0.1 -0.1)">
       <defs>
        <path id="DejaVuSans-31" d="M 794 531 
L 1825 531 
L 1825 4091 
L 703 3866 
L 703 4441 
L 1819 4666 
L 2450 4666 
L 2450 531 
L 3481 531 
L 3481 0 
L 794 0 
L 794 531 
z
" transform="scale(0.015625)"/>
       </defs>
       <use xlink:href="#DejaVuSans-31"/>
       <use xlink:href="#DejaVuSans-30" transform="translate(63.623047 0)"/>
       <use xlink:href="#DejaVuSans-30" transform="translate(127.246094 0)"/>
      </g>
     </g>
    </g>
    <g id="ytick_3">
     <g id="line2d_15">
      <path d="M 46.965625 303.861565 
L 490.223597 303.861565 
" clip-path="url(#pb6e8e0bc84)" style="fill: none; stroke: #b0b0b0; stroke-opacity: 0.3; stroke-width: 0.8; stroke-linecap: square"/>
     </g>
     <g id="line2d_16">
      <g>
       <use xlink:href="#m10a869a73c" x="46.965625" y="303.861565" style="stroke: #000000; stroke-width: 0.8"/>
      </g>
     </g>
     <g id="text_9">
      <!-- 200 -->
      <g transform="translate(20.878125 307.660784) scale(0.1 -0.1)">
       <use xlink:href="#DejaVuSans-32"/>
       <use xlink:href="#DejaVuSans-30" transform="translate(63.623047 0)"/>
       <use xlink:href="#DejaVuSans-30" transform="translate(127.246094 0)"/>
      </g>
     </g>
    </g>
    <g id="ytick_4">
     <g id="line2d_17">
      <path d="M 46.965625 261.492348 
L 490.223597 261.492348 
" clip-path="url(#pb6e8e0bc84)" style="fill: none; stroke: #b0b0b0; stroke-opacity: 0.3; stroke-width: 0.8; stroke-linecap: square"/>
     </g>
     <g id="line2d_18">
      <g>
       <use xlink:href="#m10a869a73c" x="46.965625" y="261.492348" style="stroke: #000000; stroke-width: 0.8"/>
      </g>
     </g>
     <g id="text_10">
      <!-- 300 -->
      <g transform="translate(20.878125 265.291566) scale(0.1 -0.1)">
       <defs>
        <path id="DejaVuSans-33" d="M 2597 2516 
Q 3050 2419 3304 2112 
Q 3559 1806 3559 1356 
Q 3559 666 3084 287 
Q 2609 -91 1734 -91 
Q 1441 -91 1130 -33 
Q 819 25 488 141 
L 488 750 
Q 750 597 1062 519 
Q 1375 441 1716 441 
Q 2309 441 2620 675 
Q 2931 909 2931 1356 
Q 2931 1769 2642 2001 
Q 2353 2234 1838 2234 
L 1294 2234 
L 1294 2753 
L 1863 2753 
Q 2328 2753 2575 2939 
Q 2822 3125 2822 3475 
Q 2822 3834 2567 4026 
Q 2313 4219 1838 4219 
Q 1578 4219 1281 4162 
Q 984 4106 628 3988 
L 628 4550 
Q 988 4650 1302 4700 
Q 1616 4750 1894 4750 
Q 2613 4750 3031 4423 
Q 3450 4097 3450 3541 
Q 3450 3153 3228 2886 
Q 3006 2619 2597 2516 
z
" transform="scale(0.015625)"/>
       </defs>
       <use xlink:href="#DejaVuSans-33"/>
       <use xlink:href="#DejaVuSans-30" transform="translate(63.623047 0)"/>
       <use xlink:href="#DejaVuSans-30" transform="translate(127.246094 0)"/>
      </g>
     </g>
    </g>
    <g id="ytick_5">
     <g id="line2d_19">
      <path d="M 46.965625 219.12313 
L 490.223597 219.12313 
" clip-path="url(#pb6e8e0bc84)" style="fill: none; stroke: #b0b0b0; stroke-opacity: 0.3; stroke-width: 0.8; stroke-linecap: square"/>
     </g>
     <g id="line2d_20">
      <g>
       <use xlink:href="#m10a869a73c" x="46.965625" y="219.12313" style="stroke: #000000; stroke-width: 0.8"/>
      </g>
     </g>
     <g id="text_11">
      <!-- 400 -->
      <g transform="translate(20.878125 222.922349) scale(0.1 -0.1)">
       <use xlink:href="#DejaVuSans-34"/>
       <use xlink:href="#DejaVuSans-30" transform="translate(63.623047 0)"/>
       <use xlink:href="#DejaVuSans-30" transform="translate(127.246094 0)"/>
      </g>
     </g>
    </g>
    <g id="ytick_6">
     <g id="line2d_21">
      <path d="M 46.965625 176.753913 
L 490.223597 176.753913 
" clip-path="url(#pb6e8e0bc84)" style="fill: none; stroke: #b0b0b0; stroke-opacity: 0.3; stroke-width: 0.8; stroke-linecap: square"/>
     </g>
     <g id="line2d_22">
      <g>
       <use xlink:href="#m10a869a73c" x="46.965625" y="176.753913" style="stroke: #000000; stroke-width: 0.8"/>
      </g>
     </g>
     <g id="text_12">
      <!-- 500 -->
      <g transform="translate(20.878125 180.553131) scale(0.1 -0.1)">
       <defs>
        <path id="DejaVuSans-35" d="M 691 4666 
L 3169 4666 
L 3169 4134 
L 1269 4134 
L 1269 2991 
Q 1406 3038 1543 3061 
Q 1681 3084 1819 3084 
Q 2600 3084 3056 2656 
Q 3513 2228 3513 1497 
Q 3513 744 3044 326 
Q 2575 -91 1722 -91 
Q 1428 -91 1123 -41 
Q 819 9 494 109 
L 494 744 
Q 775 591 1075 516 
Q 1375 441 1709 441 
Q 2250 441 2565 725 
Q 2881 1009 2881 1497 
Q 2881 1984 2565 2268 
Q 2250 2553 1709 2553 
Q 1456 2553 1204 2497 
Q 953 2441 691 2322 
L 691 4666 
z
" transform="scale(0.015625)"/>
       </defs>
       <use xlink:href="#DejaVuSans-35"/>
       <use xlink:href="#DejaVuSans-30" transform="translate(63.623047 0)"/>
       <use xlink:href="#DejaVuSans-30" transform="translate(127.246094 0)"/>
      </g>
     </g>
    </g>
    <g id="ytick_7">
     <g id="line2d_23">
      <path d="M 46.965625 134.384695 
L 490.223597 134.384695 
" clip-path="url(#pb6e8e0bc84)" style="fill: none; stroke: #b0b0b0; stroke-opacity: 0.3; stroke-width: 0.8; stroke-linecap: square"/>
     </g>
     <g id="line2d_24">
      <g>
       <use xlink:href="#m10a869a73c" x="46.965625" y="134.384695" style="stroke: #000000; stroke-width: 0.8"/>
      </g>
     </g>
     <g id="text_13">
      <!-- 600 -->
      <g transform="translate(20.878125 138.183914) scale(0.1 -0.1)">
       <defs>
        <path id="DejaVuSans-36" d="M 2113 2584 
Q 1688 2584 1439 2293 
Q 1191 2003 1191 1497 
Q 1191 994 1439 701 
Q 1688 409 2113 409 
Q 2538 409 2786 701 
Q 3034 994 3034 1497 
Q 3034 2003 2786 2293 
Q 2538 2584 2113 2584 
z
M 3366 4563 
L 3366 3988 
Q 3128 4100 2886 4159 
Q 2644 4219 2406 4219 
Q 1781 4219 1451 3797 
Q 1122 3375 1075 2522 
Q 1259 2794 1537 2939 
Q 1816 3084 2150 3084 
Q 2853 3084 3261 2657 
Q 3669 2231 3669 1497 
Q 3669 778 3244 343 
Q 2819 -91 2113 -91 
Q 1303 -91 875 529 
Q 447 1150 447 2328 
Q 447 3434 972 4092 
Q 1497 4750 2381 4750 
Q 2619 4750 2861 4703 
Q 3103 4656 3366 4563 
z
" transform="scale(0.015625)"/>
       </defs>
       <use xlink:href="#DejaVuSans-36"/>
       <use xlink:href="#DejaVuSans-30" transform="translate(63.623047 0)"/>
       <use xlink:href="#DejaVuSans-30" transform="translate(127.246094 0)"/>
      </g>
     </g>
    </g>
    <g id="ytick_8">
     <g id="line2d_25">
      <path d="M 46.965625 92.015478 
L 490.223597 92.015478 
" clip-path="url(#pb6e8e0bc84)" style="fill: none; stroke: #b0b0b0; stroke-opacity: 0.3; stroke-width: 0.8; stroke-linecap: square"/>
     </g>
     <g id="line2d_26">
      <g>
       <use xlink:href="#m10a869a73c" x="46.965625" y="92.015478" style="stroke: #000000; stroke-width: 0.8"/>
      </g>
     </g>
     <g id="text_14">
      <!-- 700 -->
      <g transform="translate(20.878125 95.814696) scale(0.1 -0.1)">
       <defs>
        <path id="DejaVuSans-37" d="M 525 4666 
L 3525 4666 
L 3525 4397 
L 1831 0 
L 1172 0 
L 2766 4134 
L 525 4134 
L 525 4666 
z
" transform="scale(0.015625)"/>
       </defs>
       <use xlink:href="#DejaVuSans-37"/>
       <use xlink:href="#DejaVuSans-30" transform="translate(63.623047 0)"/>
       <use xlink:href="#DejaVuSans-30" transform="translate(127.246094 0)"/>
      </g>
     </g>
    </g>
    <g id="ytick_9">
     <g id="line2d_27">
      <path d="M 46.965625 49.64626 
L 490.223597 49.64626 
" clip-path="url(#pb6e8e0bc84)" style="fill: none; stroke: #b0b0b0; stroke-opacity: 0.3; stroke-width: 0.8; stroke-linecap: square"/>
     </g>
     <g id="line2d_28">
      <g>
       <use xlink:href="#m10a869a73c" x="46.965625" y="49.64626" style="stroke: #000000; stroke-width: 0.8"/>
      </g>
     </g>
     <g id="text_15">
      <!-- 800 -->
      <g transform="translate(20.878125 53.445479) scale(0.1 -0.1)">
       <defs>
        <path id="DejaVuSans-38" d="M 2034 2216 
Q 1584 2216 1326 1975 
Q 1069 1734 1069 1313 
Q 1069 891 1326 650 
Q 1584 409 2034 409 
Q 2484 409 2743 651 
Q 3003 894 3003 1313 
Q 3003 1734 2745 1975 
Q 2488 2216 2034 2216 
z
M 1403 2484 
Q 997 2584 770 2862 
Q 544 3141 544 3541 
Q 544 4100 942 4425 
Q 1341 4750 2034 4750 
Q 2731 4750 3128 4425 
Q 3525 4100 3525 3541 
Q 3525 3141 3298 2862 
Q 3072 2584 2669 2484 
Q 3125 2378 3379 2068 
Q 3634 1759 3634 1313 
Q 3634 634 3220 271 
Q 2806 -91 2034 -91 
Q 1263 -91 848 271 
Q 434 634 434 1313 
Q 434 1759 690 2068 
Q 947 2378 1403 2484 
z
M 1172 3481 
Q 1172 3119 1398 2916 
Q 1625 2713 2034 2713 
Q 2441 2713 2670 2916 
Q 2900 3119 2900 3481 
Q 2900 3844 2670 4047 
Q 2441 4250 2034 4250 
Q 1625 4250 1398 4047 
Q 1172 3844 1172 3481 
z
" transform="scale(0.015625)"/>
       </defs>
       <use xlink:href="#DejaVuSans-38"/>
       <use xlink:href="#DejaVuSans-30" transform="translate(63.623047 0)"/>
       <use xlink:href="#DejaVuSans-30" transform="translate(127.246094 0)"/>
      </g>
     </g>
    </g>
    <g id="text_16">
     <!-- Frequency -->
     <g transform="translate(14.798437 242.929687) rotate(-90) scale(0.1 -0.1)">
      <defs>
       <path id="DejaVuSans-46" d="M 628 4666 
L 3309 4666 
L 3309 4134 
L 1259 4134 
L 1259 2759 
L 3109 2759 
L 3109 2228 
L 1259 2228 
L 1259 0 
L 628 0 
L 628 4666 
z
" transform="scale(0.015625)"/>
       <path id="DejaVuSans-71" d="M 947 1747 
Q 947 1113 1208 752 
Q 1469 391 1925 391 
Q 2381 391 2643 752 
Q 2906 1113 2906 1747 
Q 2906 2381 2643 2742 
Q 2381 3103 1925 3103 
Q 1469 3103 1208 2742 
Q 947 2381 947 1747 
z
M 2906 525 
Q 2725 213 2448 61 
Q 2172 -91 1784 -91 
Q 1150 -91 751 415 
Q 353 922 353 1747 
Q 353 2572 751 3078 
Q 1150 3584 1784 3584 
Q 2172 3584 2448 3432 
Q 2725 3281 2906 2969 
L 2906 3500 
L 3481 3500 
L 3481 -1331 
L 2906 -1331 
L 2906 525 
z
" transform="scale(0.015625)"/>
       <path id="DejaVuSans-75" d="M 544 1381 
L 544 3500 
L 1119 3500 
L 1119 1403 
Q 1119 906 1312 657 
Q 1506 409 1894 409 
Q 2359 409 2629 706 
Q 2900 1003 2900 1516 
L 2900 3500 
L 3475 3500 
L 3475 0 
L 2900 0 
L 2900 538 
Q 2691 219 2414 64 
Q 2138 -91 1772 -91 
Q 1169 -91 856 284 
Q 544 659 544 1381 
z
M 1991 3584 
L 1991 3584 
z
" transform="scale(0.015625)"/>
       <path id="DejaVuSans-6e" d="M 3513 2113 
L 3513 0 
L 2938 0 
L 2938 2094 
Q 2938 2591 2744 2837 
Q 2550 3084 2163 3084 
Q 1697 3084 1428 2787 
Q 1159 2491 1159 1978 
L 1159 0 
L 581 0 
L 581 3500 
L 1159 3500 
L 1159 2956 
Q 1366 3272 1645 3428 
Q 1925 3584 2291 3584 
Q 2894 3584 3203 3211 
Q 3513 2838 3513 2113 
z
" transform="scale(0.015625)"/>
       <path id="DejaVuSans-63" d="M 3122 3366 
L 3122 2828 
Q 2878 2963 2633 3030 
Q 2388 3097 2138 3097 
Q 1578 3097 1268 2742 
Q 959 2388 959 1747 
Q 959 1106 1268 751 
Q 1578 397 2138 397 
Q 2388 397 2633 464 
Q 2878 531 3122 666 
L 3122 134 
Q 2881 22 2623 -34 
Q 2366 -91 2075 -91 
Q 1284 -91 818 406 
Q 353 903 353 1747 
Q 353 2603 823 3093 
Q 1294 3584 2113 3584 
Q 2378 3584 2631 3529 
Q 2884 3475 3122 3366 
z
" transform="scale(0.015625)"/>
       <path id="DejaVuSans-79" d="M 2059 -325 
Q 1816 -950 1584 -1140 
Q 1353 -1331 966 -1331 
L 506 -1331 
L 506 -850 
L 844 -850 
Q 1081 -850 1212 -737 
Q 1344 -625 1503 -206 
L 1606 56 
L 191 3500 
L 800 3500 
L 1894 763 
L 2988 3500 
L 3597 3500 
L 2059 -325 
z
" transform="scale(0.015625)"/>
      </defs>
      <use xlink:href="#DejaVuSans-46"/>
      <use xlink:href="#DejaVuSans-72" transform="translate(50.269531 0)"/>
      <use xlink:href="#DejaVuSans-65" transform="translate(89.132812 0)"/>
      <use xlink:href="#DejaVuSans-71" transform="translate(150.65625 0)"/>
      <use xlink:href="#DejaVuSans-75" transform="translate(214.132812 0)"/>
      <use xlink:href="#DejaVuSans-65" transform="translate(277.511719 0)"/>
      <use xlink:href="#DejaVuSans-6e" transform="translate(339.035156 0)"/>
      <use xlink:href="#DejaVuSans-63" transform="translate(402.414062 0)"/>
      <use xlink:href="#DejaVuSans-79" transform="translate(457.394531 0)"/>
     </g>
    </g>
   </g>
   <g id="line2d_29">
    <path d="M 266.392055 388.6 
L 266.392055 45.6 
" clip-path="url(#pb6e8e0bc84)" style="fill: none; stroke-dasharray: 7.4,3.2; stroke-dashoffset: 0; stroke: #ff0000; stroke-width: 2"/>
   </g>
   <g id="line2d_30">
    <path d="M 267.277839 388.6 
L 267.277839 45.6 
" clip-path="url(#pb6e8e0bc84)" style="fill: none; stroke-dasharray: 7.4,3.2; stroke-dashoffset: 0; stroke: #ffa500; stroke-width: 2"/>
   </g>
   <g id="patch_72">
    <path d="M 46.965625 388.6 
L 46.965625 45.6 
" style="fill: none; stroke: #000000; stroke-width: 0.8; stroke-linejoin: miter; stroke-linecap: square"/>
   </g>
   <g id="patch_73">
    <path d="M 490.223597 388.6 
L 490.223597 45.6 
" style="fill: none; stroke: #000000; stroke-width: 0.8; stroke-linejoin: miter; stroke-linecap: square"/>
   </g>
   <g id="patch_74">
    <path d="M 46.965625 388.6 
L 490.223597 388.6 
" style="fill: none; stroke: #000000; stroke-width: 0.8; stroke-linejoin: miter; stroke-linecap: square"/>
   </g>
   <g id="patch_75">
    <path d="M 46.965625 45.6 
L 490.223597 45.6 
" style="fill: none; stroke: #000000; stroke-width: 0.8; stroke-linejoin: miter; stroke-linecap: square"/>
   </g>
   <g id="text_17">
    <!-- Wikipedia Error Distribution -->
    <g transform="translate(185.896799 39.6) scale(0.12 -0.12)">
     <defs>
      <path id="DejaVuSans-57" d="M 213 4666 
L 850 4666 
L 1831 722 
L 2809 4666 
L 3519 4666 
L 4500 722 
L 5478 4666 
L 6119 4666 
L 4947 0 
L 4153 0 
L 3169 4050 
L 2175 0 
L 1381 0 
L 213 4666 
z
" transform="scale(0.015625)"/>
      <path id="DejaVuSans-69" d="M 603 3500 
L 1178 3500 
L 1178 0 
L 603 0 
L 603 3500 
z
M 603 4863 
L 1178 4863 
L 1178 4134 
L 603 4134 
L 603 4863 
z
" transform="scale(0.015625)"/>
      <path id="DejaVuSans-6b" d="M 581 4863 
L 1159 4863 
L 1159 1991 
L 2875 3500 
L 3609 3500 
L 1753 1863 
L 3688 0 
L 2938 0 
L 1159 1709 
L 1159 0 
L 581 0 
L 581 4863 
z
" transform="scale(0.015625)"/>
      <path id="DejaVuSans-70" d="M 1159 525 
L 1159 -1331 
L 581 -1331 
L 581 3500 
L 1159 3500 
L 1159 2969 
Q 1341 3281 1617 3432 
Q 1894 3584 2278 3584 
Q 2916 3584 3314 3078 
Q 3713 2572 3713 1747 
Q 3713 922 3314 415 
Q 2916 -91 2278 -91 
Q 1894 -91 1617 61 
Q 1341 213 1159 525 
z
M 3116 1747 
Q 3116 2381 2855 2742 
Q 2594 3103 2138 3103 
Q 1681 3103 1420 2742 
Q 1159 2381 1159 1747 
Q 1159 1113 1420 752 
Q 1681 391 2138 391 
Q 2594 391 2855 752 
Q 3116 1113 3116 1747 
z
" transform="scale(0.015625)"/>
      <path id="DejaVuSans-61" d="M 2194 1759 
Q 1497 1759 1228 1600 
Q 959 1441 959 1056 
Q 959 750 1161 570 
Q 1363 391 1709 391 
Q 2188 391 2477 730 
Q 2766 1069 2766 1631 
L 2766 1759 
L 2194 1759 
z
M 3341 1997 
L 3341 0 
L 2766 0 
L 2766 531 
Q 2569 213 2275 61 
Q 1981 -91 1556 -91 
Q 1019 -91 701 211 
Q 384 513 384 1019 
Q 384 1609 779 1909 
Q 1175 2209 1959 2209 
L 2766 2209 
L 2766 2266 
Q 2766 2663 2505 2880 
Q 2244 3097 1772 3097 
Q 1472 3097 1187 3025 
Q 903 2953 641 2809 
L 641 3341 
Q 956 3463 1253 3523 
Q 1550 3584 1831 3584 
Q 2591 3584 2966 3190 
Q 3341 2797 3341 1997 
z
" transform="scale(0.015625)"/>
      <path id="DejaVuSans-44" d="M 1259 4147 
L 1259 519 
L 2022 519 
Q 2988 519 3436 956 
Q 3884 1394 3884 2338 
Q 3884 3275 3436 3711 
Q 2988 4147 2022 4147 
L 1259 4147 
z
M 628 4666 
L 1925 4666 
Q 3281 4666 3915 4102 
Q 4550 3538 4550 2338 
Q 4550 1131 3912 565 
Q 3275 0 1925 0 
L 628 0 
L 628 4666 
z
" transform="scale(0.015625)"/>
      <path id="DejaVuSans-74" d="M 1172 4494 
L 1172 3500 
L 2356 3500 
L 2356 3053 
L 1172 3053 
L 1172 1153 
Q 1172 725 1289 603 
Q 1406 481 1766 481 
L 2356 481 
L 2356 0 
L 1766 0 
Q 1100 0 847 248 
Q 594 497 594 1153 
L 594 3053 
L 172 3053 
L 172 3500 
L 594 3500 
L 594 4494 
L 1172 4494 
z
" transform="scale(0.015625)"/>
      <path id="DejaVuSans-62" d="M 3116 1747 
Q 3116 2381 2855 2742 
Q 2594 3103 2138 3103 
Q 1681 3103 1420 2742 
Q 1159 2381 1159 1747 
Q 1159 1113 1420 752 
Q 1681 391 2138 391 
Q 2594 391 2855 752 
Q 3116 1113 3116 1747 
z
M 1159 2969 
Q 1341 3281 1617 3432 
Q 1894 3584 2278 3584 
Q 2916 3584 3314 3078 
Q 3713 2572 3713 1747 
Q 3713 922 3314 415 
Q 2916 -91 2278 -91 
Q 1894 -91 1617 61 
Q 1341 213 1159 525 
L 1159 0 
L 581 0 
L 581 4863 
L 1159 4863 
L 1159 2969 
z
" transform="scale(0.015625)"/>
     </defs>
     <use xlink:href="#DejaVuSans-57"/>
     <use xlink:href="#DejaVuSans-69" transform="translate(96.626953 0)"/>
     <use xlink:href="#DejaVuSans-6b" transform="translate(124.410156 0)"/>
     <use xlink:href="#DejaVuSans-69" transform="translate(182.320312 0)"/>
     <use xlink:href="#DejaVuSans-70" transform="translate(210.103516 0)"/>
     <use xlink:href="#DejaVuSans-65" transform="translate(273.580078 0)"/>
     <use xlink:href="#DejaVuSans-64" transform="translate(335.103516 0)"/>
     <use xlink:href="#DejaVuSans-69" transform="translate(398.580078 0)"/>
     <use xlink:href="#DejaVuSans-61" transform="translate(426.363281 0)"/>
     <use xlink:href="#DejaVuSans-20" transform="translate(487.642578 0)"/>
     <use xlink:href="#DejaVuSans-45" transform="translate(519.429688 0)"/>
     <use xlink:href="#DejaVuSans-72" transform="translate(582.613281 0)"/>
     <use xlink:href="#DejaVuSans-72" transform="translate(621.976562 0)"/>
     <use xlink:href="#DejaVuSans-6f" transform="translate(660.839844 0)"/>
     <use xlink:href="#DejaVuSans-72" transform="translate(722.021484 0)"/>
     <use xlink:href="#DejaVuSans-20" transform="translate(763.134766 0)"/>
     <use xlink:href="#DejaVuSans-44" transform="translate(794.921875 0)"/>
     <use xlink:href="#DejaVuSans-69" transform="translate(871.923828 0)"/>
     <use xlink:href="#DejaVuSans-73" transform="translate(899.707031 0)"/>
     <use xlink:href="#DejaVuSans-74" transform="translate(951.806641 0)"/>
     <use xlink:href="#DejaVuSans-72" transform="translate(991.015625 0)"/>
     <use xlink:href="#DejaVuSans-69" transform="translate(1032.128906 0)"/>
     <use xlink:href="#DejaVuSans-62" transform="translate(1059.912109 0)"/>
     <use xlink:href="#DejaVuSans-75" transform="translate(1123.388672 0)"/>
     <use xlink:href="#DejaVuSans-74" transform="translate(1186.767578 0)"/>
     <use xlink:href="#DejaVuSans-69" transform="translate(1225.976562 0)"/>
     <use xlink:href="#DejaVuSans-6f" transform="translate(1253.759766 0)"/>
     <use xlink:href="#DejaVuSans-6e" transform="translate(1314.941406 0)"/>
    </g>
   </g>
   <g id="legend_1">
    <g id="patch_76">
     <path d="M 376.648597 82.95625 
L 483.223597 82.95625 
Q 485.223597 82.95625 485.223597 80.95625 
L 485.223597 52.6 
Q 485.223597 50.6 483.223597 50.6 
L 376.648597 50.6 
Q 374.648597 50.6 374.648597 52.6 
L 374.648597 80.95625 
Q 374.648597 82.95625 376.648597 82.95625 
z
" style="fill: #ffffff; opacity: 0.8; stroke: #cccccc; stroke-linejoin: miter"/>
    </g>
    <g id="line2d_31">
     <path d="M 378.648597 58.698437 
L 388.648597 58.698437 
L 398.648597 58.698437 
" style="fill: none; stroke-dasharray: 7.4,3.2; stroke-dashoffset: 0; stroke: #ff0000; stroke-width: 2"/>
    </g>
    <g id="text_18">
     <!-- Zero Error Line -->
     <g transform="translate(406.648597 62.198437) scale(0.1 -0.1)">
      <defs>
       <path id="DejaVuSans-5a" d="M 359 4666 
L 4025 4666 
L 4025 4184 
L 1075 531 
L 4097 531 
L 4097 0 
L 288 0 
L 288 481 
L 3238 4134 
L 359 4134 
L 359 4666 
z
" transform="scale(0.015625)"/>
       <path id="DejaVuSans-4c" d="M 628 4666 
L 1259 4666 
L 1259 531 
L 3531 531 
L 3531 0 
L 628 0 
L 628 4666 
z
" transform="scale(0.015625)"/>
      </defs>
      <use xlink:href="#DejaVuSans-5a"/>
      <use xlink:href="#DejaVuSans-65" transform="translate(68.505859 0)"/>
      <use xlink:href="#DejaVuSans-72" transform="translate(130.029297 0)"/>
      <use xlink:href="#DejaVuSans-6f" transform="translate(168.892578 0)"/>
      <use xlink:href="#DejaVuSans-20" transform="translate(230.074219 0)"/>
      <use xlink:href="#DejaVuSans-45" transform="translate(261.861328 0)"/>
      <use xlink:href="#DejaVuSans-72" transform="translate(325.044922 0)"/>
      <use xlink:href="#DejaVuSans-72" transform="translate(364.408203 0)"/>
      <use xlink:href="#DejaVuSans-6f" transform="translate(403.271484 0)"/>
      <use xlink:href="#DejaVuSans-72" transform="translate(464.453125 0)"/>
      <use xlink:href="#DejaVuSans-20" transform="translate(505.566406 0)"/>
      <use xlink:href="#DejaVuSans-4c" transform="translate(537.353516 0)"/>
      <use xlink:href="#DejaVuSans-69" transform="translate(593.066406 0)"/>
      <use xlink:href="#DejaVuSans-6e" transform="translate(620.849609 0)"/>
      <use xlink:href="#DejaVuSans-65" transform="translate(684.228516 0)"/>
     </g>
    </g>
    <g id="line2d_32">
     <path d="M 378.648597 73.376562 
L 388.648597 73.376562 
L 398.648597 73.376562 
" style="fill: none; stroke-dasharray: 7.4,3.2; stroke-dashoffset: 0; stroke: #ffa500; stroke-width: 2"/>
    </g>
    <g id="text_19">
     <!-- Mean: 0.0021° -->
     <g transform="translate(406.648597 76.876562) scale(0.1 -0.1)">
      <defs>
       <path id="DejaVuSans-4d" d="M 628 4666 
L 1569 4666 
L 2759 1491 
L 3956 4666 
L 4897 4666 
L 4897 0 
L 4281 0 
L 4281 4097 
L 3078 897 
L 2444 897 
L 1241 4097 
L 1241 0 
L 628 0 
L 628 4666 
z
" transform="scale(0.015625)"/>
       <path id="DejaVuSans-3a" d="M 750 794 
L 1409 794 
L 1409 0 
L 750 0 
L 750 794 
z
M 750 3309 
L 1409 3309 
L 1409 2516 
L 750 2516 
L 750 3309 
z
" transform="scale(0.015625)"/>
       <path id="DejaVuSans-b0" d="M 1600 4347 
Q 1350 4347 1178 4173 
Q 1006 4000 1006 3750 
Q 1006 3503 1178 3333 
Q 1350 3163 1600 3163 
Q 1850 3163 2022 3333 
Q 2194 3503 2194 3750 
Q 2194 3997 2020 4172 
Q 1847 4347 1600 4347 
z
M 1600 4750 
Q 1800 4750 1984 4673 
Q 2169 4597 2303 4453 
Q 2447 4313 2519 4134 
Q 2591 3956 2591 3750 
Q 2591 3338 2302 3052 
Q 2013 2766 1594 2766 
Q 1172 2766 890 3047 
Q 609 3328 609 3750 
Q 609 4169 896 4459 
Q 1184 4750 1600 4750 
z
" transform="scale(0.015625)"/>
      </defs>
      <use xlink:href="#DejaVuSans-4d"/>
      <use xlink:href="#DejaVuSans-65" transform="translate(86.279297 0)"/>
      <use xlink:href="#DejaVuSans-61" transform="translate(147.802734 0)"/>
      <use xlink:href="#DejaVuSans-6e" transform="translate(209.082031 0)"/>
      <use xlink:href="#DejaVuSans-3a" transform="translate(272.460938 0)"/>
      <use xlink:href="#DejaVuSans-20" transform="translate(306.152344 0)"/>
      <use xlink:href="#DejaVuSans-30" transform="translate(337.939453 0)"/>
      <use xlink:href="#DejaVuSans-2e" transform="translate(401.5625 0)"/>
      <use xlink:href="#DejaVuSans-30" transform="translate(433.349609 0)"/>
      <use xlink:href="#DejaVuSans-30" transform="translate(496.972656 0)"/>
      <use xlink:href="#DejaVuSans-32" transform="translate(560.595703 0)"/>
      <use xlink:href="#DejaVuSans-31" transform="translate(624.21875 0)"/>
      <use xlink:href="#DejaVuSans-b0" transform="translate(687.841797 0)"/>
     </g>
    </g>
   </g>
  </g>
  <g id="axes_2">
   <g id="patch_77">
    <path d="M 547.663597 388.6 
L 990.921569 388.6 
L 990.921569 45.6 
L 547.663597 45.6 
z
" style="fill: #ffffff"/>
   </g>
   <g id="patch_78">
    <path d="M 567.811687 388.6 
L 576.571726 388.6 
L 576.571726 73.877778 
L 567.811687 73.877778 
z
" clip-path="url(#p4ea795573a)" style="fill: #90ee90; opacity: 0.7; stroke: #000000; stroke-linejoin: miter"/>
   </g>
   <g id="patch_79">
    <path d="M 576.571726 388.6 
L 585.331765 388.6 
L 585.331765 74.433333 
L 576.571726 74.433333 
z
" clip-path="url(#p4ea795573a)" style="fill: #90ee90; opacity: 0.7; stroke: #000000; stroke-linejoin: miter"/>
   </g>
   <g id="patch_80">
    <path d="M 585.331765 388.6 
L 594.091804 388.6 
L 594.091804 61.933333 
L 585.331765 61.933333 
z
" clip-path="url(#p4ea795573a)" style="fill: #90ee90; opacity: 0.7; stroke: #000000; stroke-linejoin: miter"/>
   </g>
   <g id="patch_81">
    <path d="M 594.091804 388.6 
L 602.851843 388.6 
L 602.851843 124.711111 
L 594.091804 124.711111 
z
" clip-path="url(#p4ea795573a)" style="fill: #90ee90; opacity: 0.7; stroke: #000000; stroke-linejoin: miter"/>
   </g>
   <g id="patch_82">
    <path d="M 602.851843 388.6 
L 611.611882 388.6 
L 611.611882 130.822222 
L 602.851843 130.822222 
z
" clip-path="url(#p4ea795573a)" style="fill: #90ee90; opacity: 0.7; stroke: #000000; stroke-linejoin: miter"/>
   </g>
   <g id="patch_83">
    <path d="M 611.611882 388.6 
L 620.371921 388.6 
L 620.371921 175.822222 
L 611.611882 175.822222 
z
" clip-path="url(#p4ea795573a)" style="fill: #90ee90; opacity: 0.7; stroke: #000000; stroke-linejoin: miter"/>
   </g>
   <g id="patch_84">
    <path d="M 620.371921 388.6 
L 629.13196 388.6 
L 629.13196 164.988889 
L 620.371921 164.988889 
z
" clip-path="url(#p4ea795573a)" style="fill: #90ee90; opacity: 0.7; stroke: #000000; stroke-linejoin: miter"/>
   </g>
   <g id="patch_85">
    <path d="M 629.13196 388.6 
L 637.891998 388.6 
L 637.891998 194.433333 
L 629.13196 194.433333 
z
" clip-path="url(#p4ea795573a)" style="fill: #90ee90; opacity: 0.7; stroke: #000000; stroke-linejoin: miter"/>
   </g>
   <g id="patch_86">
    <path d="M 637.891998 388.6 
L 646.652037 388.6 
L 646.652037 224.433333 
L 637.891998 224.433333 
z
" clip-path="url(#p4ea795573a)" style="fill: #90ee90; opacity: 0.7; stroke: #000000; stroke-linejoin: miter"/>
   </g>
   <g id="patch_87">
    <path d="M 646.652037 388.6 
L 655.412076 388.6 
L 655.412076 232.488889 
L 646.652037 232.488889 
z
" clip-path="url(#p4ea795573a)" style="fill: #90ee90; opacity: 0.7; stroke: #000000; stroke-linejoin: miter"/>
   </g>
   <g id="patch_88">
    <path d="M 655.412076 388.6 
L 664.172115 388.6 
L 664.172115 223.6 
L 655.412076 223.6 
z
" clip-path="url(#p4ea795573a)" style="fill: #90ee90; opacity: 0.7; stroke: #000000; stroke-linejoin: miter"/>
   </g>
   <g id="patch_89">
    <path d="M 664.172115 388.6 
L 672.932154 388.6 
L 672.932154 248.044444 
L 664.172115 248.044444 
z
" clip-path="url(#p4ea795573a)" style="fill: #90ee90; opacity: 0.7; stroke: #000000; stroke-linejoin: miter"/>
   </g>
   <g id="patch_90">
    <path d="M 672.932154 388.6 
L 681.692193 388.6 
L 681.692193 243.877778 
L 672.932154 243.877778 
z
" clip-path="url(#p4ea795573a)" style="fill: #90ee90; opacity: 0.7; stroke: #000000; stroke-linejoin: miter"/>
   </g>
   <g id="patch_91">
    <path d="M 681.692193 388.6 
L 690.452232 388.6 
L 690.452232 256.655556 
L 681.692193 256.655556 
z
" clip-path="url(#p4ea795573a)" style="fill: #90ee90; opacity: 0.7; stroke: #000000; stroke-linejoin: miter"/>
   </g>
   <g id="patch_92">
    <path d="M 690.452232 388.6 
L 699.212271 388.6 
L 699.212271 275.822222 
L 690.452232 275.822222 
z
" clip-path="url(#p4ea795573a)" style="fill: #90ee90; opacity: 0.7; stroke: #000000; stroke-linejoin: miter"/>
   </g>
   <g id="patch_93">
    <path d="M 699.212271 388.6 
L 707.97231 388.6 
L 707.97231 290.266667 
L 699.212271 290.266667 
z
" clip-path="url(#p4ea795573a)" style="fill: #90ee90; opacity: 0.7; stroke: #000000; stroke-linejoin: miter"/>
   </g>
   <g id="patch_94">
    <path d="M 707.97231 388.6 
L 716.732349 388.6 
L 716.732349 278.6 
L 707.97231 278.6 
z
" clip-path="url(#p4ea795573a)" style="fill: #90ee90; opacity: 0.7; stroke: #000000; stroke-linejoin: miter"/>
   </g>
   <g id="patch_95">
    <path d="M 716.732349 388.6 
L 725.492388 388.6 
L 725.492388 290.544444 
L 716.732349 290.544444 
z
" clip-path="url(#p4ea795573a)" style="fill: #90ee90; opacity: 0.7; stroke: #000000; stroke-linejoin: miter"/>
   </g>
   <g id="patch_96">
    <path d="M 725.492388 388.6 
L 734.252427 388.6 
L 734.252427 298.6 
L 725.492388 298.6 
z
" clip-path="url(#p4ea795573a)" style="fill: #90ee90; opacity: 0.7; stroke: #000000; stroke-linejoin: miter"/>
   </g>
   <g id="patch_97">
    <path d="M 734.252427 388.6 
L 743.012466 388.6 
L 743.012466 332.211111 
L 734.252427 332.211111 
z
" clip-path="url(#p4ea795573a)" style="fill: #90ee90; opacity: 0.7; stroke: #000000; stroke-linejoin: miter"/>
   </g>
   <g id="patch_98">
    <path d="M 743.012466 388.6 
L 751.772505 388.6 
L 751.772505 313.6 
L 743.012466 313.6 
z
" clip-path="url(#p4ea795573a)" style="fill: #90ee90; opacity: 0.7; stroke: #000000; stroke-linejoin: miter"/>
   </g>
   <g id="patch_99">
    <path d="M 751.772505 388.6 
L 760.532544 388.6 
L 760.532544 309.988889 
L 751.772505 309.988889 
z
" clip-path="url(#p4ea795573a)" style="fill: #90ee90; opacity: 0.7; stroke: #000000; stroke-linejoin: miter"/>
   </g>
   <g id="patch_100">
    <path d="M 760.532544 388.6 
L 769.292583 388.6 
L 769.292583 329.433333 
L 760.532544 329.433333 
z
" clip-path="url(#p4ea795573a)" style="fill: #90ee90; opacity: 0.7; stroke: #000000; stroke-linejoin: miter"/>
   </g>
   <g id="patch_101">
    <path d="M 769.292583 388.6 
L 778.052622 388.6 
L 778.052622 328.044444 
L 769.292583 328.044444 
z
" clip-path="url(#p4ea795573a)" style="fill: #90ee90; opacity: 0.7; stroke: #000000; stroke-linejoin: miter"/>
   </g>
   <g id="patch_102">
    <path d="M 778.052622 388.6 
L 786.812661 388.6 
L 786.812661 334.711111 
L 778.052622 334.711111 
z
" clip-path="url(#p4ea795573a)" style="fill: #90ee90; opacity: 0.7; stroke: #000000; stroke-linejoin: miter"/>
   </g>
   <g id="patch_103">
    <path d="M 786.812661 388.6 
L 795.5727 388.6 
L 795.5727 354.711111 
L 786.812661 354.711111 
z
" clip-path="url(#p4ea795573a)" style="fill: #90ee90; opacity: 0.7; stroke: #000000; stroke-linejoin: miter"/>
   </g>
   <g id="patch_104">
    <path d="M 795.5727 388.6 
L 804.332739 388.6 
L 804.332739 351.377778 
L 795.5727 351.377778 
z
" clip-path="url(#p4ea795573a)" style="fill: #90ee90; opacity: 0.7; stroke: #000000; stroke-linejoin: miter"/>
   </g>
   <g id="patch_105">
    <path d="M 804.332739 388.6 
L 813.092778 388.6 
L 813.092778 366.933333 
L 804.332739 366.933333 
z
" clip-path="url(#p4ea795573a)" style="fill: #90ee90; opacity: 0.7; stroke: #000000; stroke-linejoin: miter"/>
   </g>
   <g id="patch_106">
    <path d="M 813.092778 388.6 
L 821.852817 388.6 
L 821.852817 358.322222 
L 813.092778 358.322222 
z
" clip-path="url(#p4ea795573a)" style="fill: #90ee90; opacity: 0.7; stroke: #000000; stroke-linejoin: miter"/>
   </g>
   <g id="patch_107">
    <path d="M 821.852817 388.6 
L 830.612856 388.6 
L 830.612856 359.155556 
L 821.852817 359.155556 
z
" clip-path="url(#p4ea795573a)" style="fill: #90ee90; opacity: 0.7; stroke: #000000; stroke-linejoin: miter"/>
   </g>
   <g id="patch_108">
    <path d="M 830.612856 388.6 
L 839.372895 388.6 
L 839.372895 362.488889 
L 830.612856 362.488889 
z
" clip-path="url(#p4ea795573a)" style="fill: #90ee90; opacity: 0.7; stroke: #000000; stroke-linejoin: miter"/>
   </g>
   <g id="patch_109">
    <path d="M 839.372895 388.6 
L 848.132934 388.6 
L 848.132934 363.877778 
L 839.372895 363.877778 
z
" clip-path="url(#p4ea795573a)" style="fill: #90ee90; opacity: 0.7; stroke: #000000; stroke-linejoin: miter"/>
   </g>
   <g id="patch_110">
    <path d="M 848.132934 388.6 
L 856.892973 388.6 
L 856.892973 346.655556 
L 848.132934 346.655556 
z
" clip-path="url(#p4ea795573a)" style="fill: #90ee90; opacity: 0.7; stroke: #000000; stroke-linejoin: miter"/>
   </g>
   <g id="patch_111">
    <path d="M 856.892973 388.6 
L 865.653012 388.6 
L 865.653012 362.488889 
L 856.892973 362.488889 
z
" clip-path="url(#p4ea795573a)" style="fill: #90ee90; opacity: 0.7; stroke: #000000; stroke-linejoin: miter"/>
   </g>
   <g id="patch_112">
    <path d="M 865.653012 388.6 
L 874.413051 388.6 
L 874.413051 359.988889 
L 865.653012 359.988889 
z
" clip-path="url(#p4ea795573a)" style="fill: #90ee90; opacity: 0.7; stroke: #000000; stroke-linejoin: miter"/>
   </g>
   <g id="patch_113">
    <path d="M 874.413051 388.6 
L 883.17309 388.6 
L 883.17309 370.266667 
L 874.413051 370.266667 
z
" clip-path="url(#p4ea795573a)" style="fill: #90ee90; opacity: 0.7; stroke: #000000; stroke-linejoin: miter"/>
   </g>
   <g id="patch_114">
    <path d="M 883.17309 388.6 
L 891.933129 388.6 
L 891.933129 368.044444 
L 883.17309 368.044444 
z
" clip-path="url(#p4ea795573a)" style="fill: #90ee90; opacity: 0.7; stroke: #000000; stroke-linejoin: miter"/>
   </g>
   <g id="patch_115">
    <path d="M 891.933129 388.6 
L 900.693168 388.6 
L 900.693168 368.044444 
L 891.933129 368.044444 
z
" clip-path="url(#p4ea795573a)" style="fill: #90ee90; opacity: 0.7; stroke: #000000; stroke-linejoin: miter"/>
   </g>
   <g id="patch_116">
    <path d="M 900.693168 388.6 
L 909.453207 388.6 
L 909.453207 374.988889 
L 900.693168 374.988889 
z
" clip-path="url(#p4ea795573a)" style="fill: #90ee90; opacity: 0.7; stroke: #000000; stroke-linejoin: miter"/>
   </g>
   <g id="patch_117">
    <path d="M 909.453207 388.6 
L 918.213246 388.6 
L 918.213246 368.877778 
L 909.453207 368.877778 
z
" clip-path="url(#p4ea795573a)" style="fill: #90ee90; opacity: 0.7; stroke: #000000; stroke-linejoin: miter"/>
   </g>
   <g id="patch_118">
    <path d="M 918.213246 388.6 
L 926.973285 388.6 
L 926.973285 384.155556 
L 918.213246 384.155556 
z
" clip-path="url(#p4ea795573a)" style="fill: #90ee90; opacity: 0.7; stroke: #000000; stroke-linejoin: miter"/>
   </g>
   <g id="patch_119">
    <path d="M 926.973285 388.6 
L 935.733324 388.6 
L 935.733324 383.322222 
L 926.973285 383.322222 
z
" clip-path="url(#p4ea795573a)" style="fill: #90ee90; opacity: 0.7; stroke: #000000; stroke-linejoin: miter"/>
   </g>
   <g id="patch_120">
    <path d="M 935.733324 388.6 
L 944.493363 388.6 
L 944.493363 385.266667 
L 935.733324 385.266667 
z
" clip-path="url(#p4ea795573a)" style="fill: #90ee90; opacity: 0.7; stroke: #000000; stroke-linejoin: miter"/>
   </g>
   <g id="patch_121">
    <path d="M 944.493363 388.6 
L 953.253402 388.6 
L 953.253402 383.044444 
L 944.493363 383.044444 
z
" clip-path="url(#p4ea795573a)" style="fill: #90ee90; opacity: 0.7; stroke: #000000; stroke-linejoin: miter"/>
   </g>
   <g id="patch_122">
    <path d="M 953.253402 388.6 
L 962.013441 388.6 
L 962.013441 384.155556 
L 953.253402 384.155556 
z
" clip-path="url(#p4ea795573a)" style="fill: #90ee90; opacity: 0.7; stroke: #000000; stroke-linejoin: miter"/>
   </g>
   <g id="patch_123">
    <path d="M 962.013441 388.6 
L 970.773479 388.6 
L 970.773479 387.488889 
L 962.013441 387.488889 
z
" clip-path="url(#p4ea795573a)" style="fill: #90ee90; opacity: 0.7; stroke: #000000; stroke-linejoin: miter"/>
   </g>
   <g id="matplotlib.axis_3">
    <g id="xtick_6">
     <g id="line2d_33">
      <path d="M 567.809655 388.6 
L 567.809655 45.6 
" clip-path="url(#p4ea795573a)" style="fill: none; stroke: #b0b0b0; stroke-opacity: 0.3; stroke-width: 0.8; stroke-linecap: square"/>
     </g>
     <g id="line2d_34">
      <g>
       <use xlink:href="#mf47ec07021" x="567.809655" y="388.6" style="stroke: #000000; stroke-width: 0.8"/>
      </g>
     </g>
     <g id="text_20">
      <!-- 0.0 -->
      <g transform="translate(559.858092 403.198437) scale(0.1 -0.1)">
       <use xlink:href="#DejaVuSans-30"/>
       <use xlink:href="#DejaVuSans-2e" transform="translate(63.623047 0)"/>
       <use xlink:href="#DejaVuSans-30" transform="translate(95.410156 0)"/>
      </g>
     </g>
    </g>
    <g id="xtick_7">
     <g id="line2d_35">
      <path d="M 650.99127 388.6 
L 650.99127 45.6 
" clip-path="url(#p4ea795573a)" style="fill: none; stroke: #b0b0b0; stroke-opacity: 0.3; stroke-width: 0.8; stroke-linecap: square"/>
     </g>
     <g id="line2d_36">
      <g>
       <use xlink:href="#mf47ec07021" x="650.99127" y="388.6" style="stroke: #000000; stroke-width: 0.8"/>
      </g>
     </g>
     <g id="text_21">
      <!-- 0.1 -->
      <g transform="translate(643.039708 403.198437) scale(0.1 -0.1)">
       <use xlink:href="#DejaVuSans-30"/>
       <use xlink:href="#DejaVuSans-2e" transform="translate(63.623047 0)"/>
       <use xlink:href="#DejaVuSans-31" transform="translate(95.410156 0)"/>
      </g>
     </g>
    </g>
    <g id="xtick_8">
     <g id="line2d_37">
      <path d="M 734.172886 388.6 
L 734.172886 45.6 
" clip-path="url(#p4ea795573a)" style="fill: none; stroke: #b0b0b0; stroke-opacity: 0.3; stroke-width: 0.8; stroke-linecap: square"/>
     </g>
     <g id="line2d_38">
      <g>
       <use xlink:href="#mf47ec07021" x="734.172886" y="388.6" style="stroke: #000000; stroke-width: 0.8"/>
      </g>
     </g>
     <g id="text_22">
      <!-- 0.2 -->
      <g transform="translate(726.221323 403.198437) scale(0.1 -0.1)">
       <use xlink:href="#DejaVuSans-30"/>
       <use xlink:href="#DejaVuSans-2e" transform="translate(63.623047 0)"/>
       <use xlink:href="#DejaVuSans-32" transform="translate(95.410156 0)"/>
      </g>
     </g>
    </g>
    <g id="xtick_9">
     <g id="line2d_39">
      <path d="M 817.354501 388.6 
L 817.354501 45.6 
" clip-path="url(#p4ea795573a)" style="fill: none; stroke: #b0b0b0; stroke-opacity: 0.3; stroke-width: 0.8; stroke-linecap: square"/>
     </g>
     <g id="line2d_40">
      <g>
       <use xlink:href="#mf47ec07021" x="817.354501" y="388.6" style="stroke: #000000; stroke-width: 0.8"/>
      </g>
     </g>
     <g id="text_23">
      <!-- 0.3 -->
      <g transform="translate(809.402939 403.198437) scale(0.1 -0.1)">
       <use xlink:href="#DejaVuSans-30"/>
       <use xlink:href="#DejaVuSans-2e" transform="translate(63.623047 0)"/>
       <use xlink:href="#DejaVuSans-33" transform="translate(95.410156 0)"/>
      </g>
     </g>
    </g>
    <g id="xtick_10">
     <g id="line2d_41">
      <path d="M 900.536117 388.6 
L 900.536117 45.6 
" clip-path="url(#p4ea795573a)" style="fill: none; stroke: #b0b0b0; stroke-opacity: 0.3; stroke-width: 0.8; stroke-linecap: square"/>
     </g>
     <g id="line2d_42">
      <g>
       <use xlink:href="#mf47ec07021" x="900.536117" y="388.6" style="stroke: #000000; stroke-width: 0.8"/>
      </g>
     </g>
     <g id="text_24">
      <!-- 0.4 -->
      <g transform="translate(892.584554 403.198437) scale(0.1 -0.1)">
       <use xlink:href="#DejaVuSans-30"/>
       <use xlink:href="#DejaVuSans-2e" transform="translate(63.623047 0)"/>
       <use xlink:href="#DejaVuSans-34" transform="translate(95.410156 0)"/>
      </g>
     </g>
    </g>
    <g id="xtick_11">
     <g id="line2d_43">
      <path d="M 983.717732 388.6 
L 983.717732 45.6 
" clip-path="url(#p4ea795573a)" style="fill: none; stroke: #b0b0b0; stroke-opacity: 0.3; stroke-width: 0.8; stroke-linecap: square"/>
     </g>
     <g id="line2d_44">
      <g>
       <use xlink:href="#mf47ec07021" x="983.717732" y="388.6" style="stroke: #000000; stroke-width: 0.8"/>
      </g>
     </g>
     <g id="text_25">
      <!-- 0.5 -->
      <g transform="translate(975.76617 403.198437) scale(0.1 -0.1)">
       <use xlink:href="#DejaVuSans-30"/>
       <use xlink:href="#DejaVuSans-2e" transform="translate(63.623047 0)"/>
       <use xlink:href="#DejaVuSans-35" transform="translate(95.410156 0)"/>
      </g>
     </g>
    </g>
    <g id="text_26">
     <!-- Absolute Error (degrees) -->
     <g transform="translate(708.048833 416.876562) scale(0.1 -0.1)">
      <defs>
       <path id="DejaVuSans-41" d="M 2188 4044 
L 1331 1722 
L 3047 1722 
L 2188 4044 
z
M 1831 4666 
L 2547 4666 
L 4325 0 
L 3669 0 
L 3244 1197 
L 1141 1197 
L 716 0 
L 50 0 
L 1831 4666 
z
" transform="scale(0.015625)"/>
       <path id="DejaVuSans-6c" d="M 603 4863 
L 1178 4863 
L 1178 0 
L 603 0 
L 603 4863 
z
" transform="scale(0.015625)"/>
      </defs>
      <use xlink:href="#DejaVuSans-41"/>
      <use xlink:href="#DejaVuSans-62" transform="translate(68.408203 0)"/>
      <use xlink:href="#DejaVuSans-73" transform="translate(131.884766 0)"/>
      <use xlink:href="#DejaVuSans-6f" transform="translate(183.984375 0)"/>
      <use xlink:href="#DejaVuSans-6c" transform="translate(245.166016 0)"/>
      <use xlink:href="#DejaVuSans-75" transform="translate(272.949219 0)"/>
      <use xlink:href="#DejaVuSans-74" transform="translate(336.328125 0)"/>
      <use xlink:href="#DejaVuSans-65" transform="translate(375.537109 0)"/>
      <use xlink:href="#DejaVuSans-20" transform="translate(437.060547 0)"/>
      <use xlink:href="#DejaVuSans-45" transform="translate(468.847656 0)"/>
      <use xlink:href="#DejaVuSans-72" transform="translate(532.03125 0)"/>
      <use xlink:href="#DejaVuSans-72" transform="translate(571.394531 0)"/>
      <use xlink:href="#DejaVuSans-6f" transform="translate(610.257812 0)"/>
      <use xlink:href="#DejaVuSans-72" transform="translate(671.439453 0)"/>
      <use xlink:href="#DejaVuSans-20" transform="translate(712.552734 0)"/>
      <use xlink:href="#DejaVuSans-28" transform="translate(744.339844 0)"/>
      <use xlink:href="#DejaVuSans-64" transform="translate(783.353516 0)"/>
      <use xlink:href="#DejaVuSans-65" transform="translate(846.830078 0)"/>
      <use xlink:href="#DejaVuSans-67" transform="translate(908.353516 0)"/>
      <use xlink:href="#DejaVuSans-72" transform="translate(971.830078 0)"/>
      <use xlink:href="#DejaVuSans-65" transform="translate(1010.693359 0)"/>
      <use xlink:href="#DejaVuSans-65" transform="translate(1072.216797 0)"/>
      <use xlink:href="#DejaVuSans-73" transform="translate(1133.740234 0)"/>
      <use xlink:href="#DejaVuSans-29" transform="translate(1185.839844 0)"/>
     </g>
    </g>
   </g>
   <g id="matplotlib.axis_4">
    <g id="ytick_10">
     <g id="line2d_45">
      <path d="M 547.663597 388.6 
L 990.921569 388.6 
" clip-path="url(#p4ea795573a)" style="fill: none; stroke: #b0b0b0; stroke-opacity: 0.3; stroke-width: 0.8; stroke-linecap: square"/>
     </g>
     <g id="line2d_46">
      <g>
       <use xlink:href="#m10a869a73c" x="547.663597" y="388.6" style="stroke: #000000; stroke-width: 0.8"/>
      </g>
     </g>
     <g id="text_27">
      <!-- 0 -->
      <g transform="translate(534.301097 392.399219) scale(0.1 -0.1)">
       <use xlink:href="#DejaVuSans-30"/>
      </g>
     </g>
    </g>
    <g id="ytick_11">
     <g id="line2d_47">
      <path d="M 547.663597 333.044444 
L 990.921569 333.044444 
" clip-path="url(#p4ea795573a)" style="fill: none; stroke: #b0b0b0; stroke-opacity: 0.3; stroke-width: 0.8; stroke-linecap: square"/>
     </g>
     <g id="line2d_48">
      <g>
       <use xlink:href="#m10a869a73c" x="547.663597" y="333.044444" style="stroke: #000000; stroke-width: 0.8"/>
      </g>
     </g>
     <g id="text_28">
      <!-- 200 -->
      <g transform="translate(521.576097 336.843663) scale(0.1 -0.1)">
       <use xlink:href="#DejaVuSans-32"/>
       <use xlink:href="#DejaVuSans-30" transform="translate(63.623047 0)"/>
       <use xlink:href="#DejaVuSans-30" transform="translate(127.246094 0)"/>
      </g>
     </g>
    </g>
    <g id="ytick_12">
     <g id="line2d_49">
      <path d="M 547.663597 277.488889 
L 990.921569 277.488889 
" clip-path="url(#p4ea795573a)" style="fill: none; stroke: #b0b0b0; stroke-opacity: 0.3; stroke-width: 0.8; stroke-linecap: square"/>
     </g>
     <g id="line2d_50">
      <g>
       <use xlink:href="#m10a869a73c" x="547.663597" y="277.488889" style="stroke: #000000; stroke-width: 0.8"/>
      </g>
     </g>
     <g id="text_29">
      <!-- 400 -->
      <g transform="translate(521.576097 281.288108) scale(0.1 -0.1)">
       <use xlink:href="#DejaVuSans-34"/>
       <use xlink:href="#DejaVuSans-30" transform="translate(63.623047 0)"/>
       <use xlink:href="#DejaVuSans-30" transform="translate(127.246094 0)"/>
      </g>
     </g>
    </g>
    <g id="ytick_13">
     <g id="line2d_51">
      <path d="M 547.663597 221.933333 
L 990.921569 221.933333 
" clip-path="url(#p4ea795573a)" style="fill: none; stroke: #b0b0b0; stroke-opacity: 0.3; stroke-width: 0.8; stroke-linecap: square"/>
     </g>
     <g id="line2d_52">
      <g>
       <use xlink:href="#m10a869a73c" x="547.663597" y="221.933333" style="stroke: #000000; stroke-width: 0.8"/>
      </g>
     </g>
     <g id="text_30">
      <!-- 600 -->
      <g transform="translate(521.576097 225.732552) scale(0.1 -0.1)">
       <use xlink:href="#DejaVuSans-36"/>
       <use xlink:href="#DejaVuSans-30" transform="translate(63.623047 0)"/>
       <use xlink:href="#DejaVuSans-30" transform="translate(127.246094 0)"/>
      </g>
     </g>
    </g>
    <g id="ytick_14">
     <g id="line2d_53">
      <path d="M 547.663597 166.377778 
L 990.921569 166.377778 
" clip-path="url(#p4ea795573a)" style="fill: none; stroke: #b0b0b0; stroke-opacity: 0.3; stroke-width: 0.8; stroke-linecap: square"/>
     </g>
     <g id="line2d_54">
      <g>
       <use xlink:href="#m10a869a73c" x="547.663597" y="166.377778" style="stroke: #000000; stroke-width: 0.8"/>
      </g>
     </g>
     <g id="text_31">
      <!-- 800 -->
      <g transform="translate(521.576097 170.176997) scale(0.1 -0.1)">
       <use xlink:href="#DejaVuSans-38"/>
       <use xlink:href="#DejaVuSans-30" transform="translate(63.623047 0)"/>
       <use xlink:href="#DejaVuSans-30" transform="translate(127.246094 0)"/>
      </g>
     </g>
    </g>
    <g id="ytick_15">
     <g id="line2d_55">
      <path d="M 547.663597 110.822222 
L 990.921569 110.822222 
" clip-path="url(#p4ea795573a)" style="fill: none; stroke: #b0b0b0; stroke-opacity: 0.3; stroke-width: 0.8; stroke-linecap: square"/>
     </g>
     <g id="line2d_56">
      <g>
       <use xlink:href="#m10a869a73c" x="547.663597" y="110.822222" style="stroke: #000000; stroke-width: 0.8"/>
      </g>
     </g>
     <g id="text_32">
      <!-- 1000 -->
      <g transform="translate(515.213597 114.621441) scale(0.1 -0.1)">
       <use xlink:href="#DejaVuSans-31"/>
       <use xlink:href="#DejaVuSans-30" transform="translate(63.623047 0)"/>
       <use xlink:href="#DejaVuSans-30" transform="translate(127.246094 0)"/>
       <use xlink:href="#DejaVuSans-30" transform="translate(190.869141 0)"/>
      </g>
     </g>
    </g>
    <g id="ytick_16">
     <g id="line2d_57">
      <path d="M 547.663597 55.266667 
L 990.921569 55.266667 
" clip-path="url(#p4ea795573a)" style="fill: none; stroke: #b0b0b0; stroke-opacity: 0.3; stroke-width: 0.8; stroke-linecap: square"/>
     </g>
     <g id="line2d_58">
      <g>
       <use xlink:href="#m10a869a73c" x="547.663597" y="55.266667" style="stroke: #000000; stroke-width: 0.8"/>
      </g>
     </g>
     <g id="text_33">
      <!-- 1200 -->
      <g transform="translate(515.213597 59.065885) scale(0.1 -0.1)">
       <use xlink:href="#DejaVuSans-31"/>
       <use xlink:href="#DejaVuSans-32" transform="translate(63.623047 0)"/>
       <use xlink:href="#DejaVuSans-30" transform="translate(127.246094 0)"/>
       <use xlink:href="#DejaVuSans-30" transform="translate(190.869141 0)"/>
      </g>
     </g>
    </g>
    <g id="text_34">
     <!-- Frequency -->
     <g transform="translate(509.13391 242.929687) rotate(-90) scale(0.1 -0.1)">
      <use xlink:href="#DejaVuSans-46"/>
      <use xlink:href="#DejaVuSans-72" transform="translate(50.269531 0)"/>
      <use xlink:href="#DejaVuSans-65" transform="translate(89.132812 0)"/>
      <use xlink:href="#DejaVuSans-71" transform="translate(150.65625 0)"/>
      <use xlink:href="#DejaVuSans-75" transform="translate(214.132812 0)"/>
      <use xlink:href="#DejaVuSans-65" transform="translate(277.511719 0)"/>
      <use xlink:href="#DejaVuSans-6e" transform="translate(339.035156 0)"/>
      <use xlink:href="#DejaVuSans-63" transform="translate(402.414062 0)"/>
      <use xlink:href="#DejaVuSans-79" transform="translate(457.394531 0)"/>
     </g>
    </g>
   </g>
   <g id="line2d_59">
    <path d="M 695.353692 388.6 
L 695.353692 45.6 
" clip-path="url(#p4ea795573a)" style="fill: none; stroke: #ffa500; stroke-width: 2; stroke-linecap: square"/>
   </g>
   <g id="line2d_60">
    <path d="M 847.503879 388.6 
L 847.503879 45.6 
" clip-path="url(#p4ea795573a)" style="fill: none; stroke-dasharray: 7.4,3.2; stroke-dashoffset: 0; stroke: #0000ff; stroke-width: 2"/>
   </g>
   <g id="patch_124">
    <path d="M 547.663597 388.6 
L 547.663597 45.6 
" style="fill: none; stroke: #000000; stroke-width: 0.8; stroke-linejoin: miter; stroke-linecap: square"/>
   </g>
   <g id="patch_125">
    <path d="M 990.921569 388.6 
L 990.921569 45.6 
" style="fill: none; stroke: #000000; stroke-width: 0.8; stroke-linejoin: miter; stroke-linecap: square"/>
   </g>
   <g id="patch_126">
    <path d="M 547.663597 388.6 
L 990.921569 388.6 
" style="fill: none; stroke: #000000; stroke-width: 0.8; stroke-linejoin: miter; stroke-linecap: square"/>
   </g>
   <g id="patch_127">
    <path d="M 547.663597 45.6 
L 990.921569 45.6 
" style="fill: none; stroke: #000000; stroke-width: 0.8; stroke-linejoin: miter; stroke-linecap: square"/>
   </g>
   <g id="text_35">
    <!-- Wikipedia Absolute Error Distribution -->
    <g transform="translate(658.464146 39.6) scale(0.12 -0.12)">
     <use xlink:href="#DejaVuSans-57"/>
     <use xlink:href="#DejaVuSans-69" transform="translate(96.626953 0)"/>
     <use xlink:href="#DejaVuSans-6b" transform="translate(124.410156 0)"/>
     <use xlink:href="#DejaVuSans-69" transform="translate(182.320312 0)"/>
     <use xlink:href="#DejaVuSans-70" transform="translate(210.103516 0)"/>
     <use xlink:href="#DejaVuSans-65" transform="translate(273.580078 0)"/>
     <use xlink:href="#DejaVuSans-64" transform="translate(335.103516 0)"/>
     <use xlink:href="#DejaVuSans-69" transform="translate(398.580078 0)"/>
     <use xlink:href="#DejaVuSans-61" transform="translate(426.363281 0)"/>
     <use xlink:href="#DejaVuSans-20" transform="translate(487.642578 0)"/>
     <use xlink:href="#DejaVuSans-41" transform="translate(519.429688 0)"/>
     <use xlink:href="#DejaVuSans-62" transform="translate(587.837891 0)"/>
     <use xlink:href="#DejaVuSans-73" transform="translate(651.314453 0)"/>
     <use xlink:href="#DejaVuSans-6f" transform="translate(703.414062 0)"/>
     <use xlink:href="#DejaVuSans-6c" transform="translate(764.595703 0)"/>
     <use xlink:href="#DejaVuSans-75" transform="translate(792.378906 0)"/>
     <use xlink:href="#DejaVuSans-74" transform="translate(855.757812 0)"/>
     <use xlink:href="#DejaVuSans-65" transform="translate(894.966797 0)"/>
     <use xlink:href="#DejaVuSans-20" transform="translate(956.490234 0)"/>
     <use xlink:href="#DejaVuSans-45" transform="translate(988.277344 0)"/>
     <use xlink:href="#DejaVuSans-72" transform="translate(1051.460938 0)"/>
     <use xlink:href="#DejaVuSans-72" transform="translate(1090.824219 0)"/>
     <use xlink:href="#DejaVuSans-6f" transform="translate(1129.6875 0)"/>
     <use xlink:href="#DejaVuSans-72" transform="translate(1190.869141 0)"/>
     <use xlink:href="#DejaVuSans-20" transform="translate(1231.982422 0)"/>
     <use xlink:href="#DejaVuSans-44" transform="translate(1263.769531 0)"/>
     <use xlink:href="#DejaVuSans-69" transform="translate(1340.771484 0)"/>
     <use xlink:href="#DejaVuSans-73" transform="translate(1368.554688 0)"/>
     <use xlink:href="#DejaVuSans-74" transform="translate(1420.654297 0)"/>
     <use xlink:href="#DejaVuSans-72" transform="translate(1459.863281 0)"/>
     <use xlink:href="#DejaVuSans-69" transform="translate(1500.976562 0)"/>
     <use xlink:href="#DejaVuSans-62" transform="translate(1528.759766 0)"/>
     <use xlink:href="#DejaVuSans-75" transform="translate(1592.236328 0)"/>
     <use xlink:href="#DejaVuSans-74" transform="translate(1655.615234 0)"/>
     <use xlink:href="#DejaVuSans-69" transform="translate(1694.824219 0)"/>
     <use xlink:href="#DejaVuSans-6f" transform="translate(1722.607422 0)"/>
     <use xlink:href="#DejaVuSans-6e" transform="translate(1783.789062 0)"/>
    </g>
   </g>
   <g id="legend_2">
    <g id="patch_128">
     <path d="M 861.580944 82.95625 
L 983.921569 82.95625 
Q 985.921569 82.95625 985.921569 80.95625 
L 985.921569 52.6 
Q 985.921569 50.6 983.921569 50.6 
L 861.580944 50.6 
Q 859.580944 50.6 859.580944 52.6 
L 859.580944 80.95625 
Q 859.580944 82.95625 861.580944 82.95625 
z
" style="fill: #ffffff; opacity: 0.8; stroke: #cccccc; stroke-linejoin: miter"/>
    </g>
    <g id="line2d_61">
     <path d="M 863.580944 58.698437 
L 873.580944 58.698437 
L 883.580944 58.698437 
" style="fill: none; stroke: #ffa500; stroke-width: 2; stroke-linecap: square"/>
    </g>
    <g id="text_36">
     <!-- RMSD: 0.1533° -->
     <g transform="translate(891.580944 62.198437) scale(0.1 -0.1)">
      <defs>
       <path id="DejaVuSans-52" d="M 2841 2188 
Q 3044 2119 3236 1894 
Q 3428 1669 3622 1275 
L 4263 0 
L 3584 0 
L 2988 1197 
Q 2756 1666 2539 1819 
Q 2322 1972 1947 1972 
L 1259 1972 
L 1259 0 
L 628 0 
L 628 4666 
L 2053 4666 
Q 2853 4666 3247 4331 
Q 3641 3997 3641 3322 
Q 3641 2881 3436 2590 
Q 3231 2300 2841 2188 
z
M 1259 4147 
L 1259 2491 
L 2053 2491 
Q 2509 2491 2742 2702 
Q 2975 2913 2975 3322 
Q 2975 3731 2742 3939 
Q 2509 4147 2053 4147 
L 1259 4147 
z
" transform="scale(0.015625)"/>
       <path id="DejaVuSans-53" d="M 3425 4513 
L 3425 3897 
Q 3066 4069 2747 4153 
Q 2428 4238 2131 4238 
Q 1616 4238 1336 4038 
Q 1056 3838 1056 3469 
Q 1056 3159 1242 3001 
Q 1428 2844 1947 2747 
L 2328 2669 
Q 3034 2534 3370 2195 
Q 3706 1856 3706 1288 
Q 3706 609 3251 259 
Q 2797 -91 1919 -91 
Q 1588 -91 1214 -16 
Q 841 59 441 206 
L 441 856 
Q 825 641 1194 531 
Q 1563 422 1919 422 
Q 2459 422 2753 634 
Q 3047 847 3047 1241 
Q 3047 1584 2836 1778 
Q 2625 1972 2144 2069 
L 1759 2144 
Q 1053 2284 737 2584 
Q 422 2884 422 3419 
Q 422 4038 858 4394 
Q 1294 4750 2059 4750 
Q 2388 4750 2728 4690 
Q 3069 4631 3425 4513 
z
" transform="scale(0.015625)"/>
      </defs>
      <use xlink:href="#DejaVuSans-52"/>
      <use xlink:href="#DejaVuSans-4d" transform="translate(69.482422 0)"/>
      <use xlink:href="#DejaVuSans-53" transform="translate(155.761719 0)"/>
      <use xlink:href="#DejaVuSans-44" transform="translate(219.238281 0)"/>
      <use xlink:href="#DejaVuSans-3a" transform="translate(296.240234 0)"/>
      <use xlink:href="#DejaVuSans-20" transform="translate(329.931641 0)"/>
      <use xlink:href="#DejaVuSans-30" transform="translate(361.71875 0)"/>
      <use xlink:href="#DejaVuSans-2e" transform="translate(425.341797 0)"/>
      <use xlink:href="#DejaVuSans-31" transform="translate(457.128906 0)"/>
      <use xlink:href="#DejaVuSans-35" transform="translate(520.751953 0)"/>
      <use xlink:href="#DejaVuSans-33" transform="translate(584.375 0)"/>
      <use xlink:href="#DejaVuSans-33" transform="translate(647.998047 0)"/>
      <use xlink:href="#DejaVuSans-b0" transform="translate(711.621094 0)"/>
     </g>
    </g>
    <g id="line2d_62">
     <path d="M 863.580944 73.376562 
L 873.580944 73.376562 
L 883.580944 73.376562 
" style="fill: none; stroke-dasharray: 7.4,3.2; stroke-dashoffset: 0; stroke: #0000ff; stroke-width: 2"/>
    </g>
    <g id="text_37">
     <!-- 95% Abs: 0.3362° -->
     <g transform="translate(891.580944 76.876562) scale(0.1 -0.1)">
      <defs>
       <path id="DejaVuSans-39" d="M 703 97 
L 703 672 
Q 941 559 1184 500 
Q 1428 441 1663 441 
Q 2288 441 2617 861 
Q 2947 1281 2994 2138 
Q 2813 1869 2534 1725 
Q 2256 1581 1919 1581 
Q 1219 1581 811 2004 
Q 403 2428 403 3163 
Q 403 3881 828 4315 
Q 1253 4750 1959 4750 
Q 2769 4750 3195 4129 
Q 3622 3509 3622 2328 
Q 3622 1225 3098 567 
Q 2575 -91 1691 -91 
Q 1453 -91 1209 -44 
Q 966 3 703 97 
z
M 1959 2075 
Q 2384 2075 2632 2365 
Q 2881 2656 2881 3163 
Q 2881 3666 2632 3958 
Q 2384 4250 1959 4250 
Q 1534 4250 1286 3958 
Q 1038 3666 1038 3163 
Q 1038 2656 1286 2365 
Q 1534 2075 1959 2075 
z
" transform="scale(0.015625)"/>
       <path id="DejaVuSans-25" d="M 4653 2053 
Q 4381 2053 4226 1822 
Q 4072 1591 4072 1178 
Q 4072 772 4226 539 
Q 4381 306 4653 306 
Q 4919 306 5073 539 
Q 5228 772 5228 1178 
Q 5228 1588 5073 1820 
Q 4919 2053 4653 2053 
z
M 4653 2450 
Q 5147 2450 5437 2106 
Q 5728 1763 5728 1178 
Q 5728 594 5436 251 
Q 5144 -91 4653 -91 
Q 4153 -91 3862 251 
Q 3572 594 3572 1178 
Q 3572 1766 3864 2108 
Q 4156 2450 4653 2450 
z
M 1428 4353 
Q 1159 4353 1004 4120 
Q 850 3888 850 3481 
Q 850 3069 1003 2837 
Q 1156 2606 1428 2606 
Q 1700 2606 1854 2837 
Q 2009 3069 2009 3481 
Q 2009 3884 1853 4118 
Q 1697 4353 1428 4353 
z
M 4250 4750 
L 4750 4750 
L 1831 -91 
L 1331 -91 
L 4250 4750 
z
M 1428 4750 
Q 1922 4750 2215 4408 
Q 2509 4066 2509 3481 
Q 2509 2891 2217 2550 
Q 1925 2209 1428 2209 
Q 931 2209 642 2551 
Q 353 2894 353 3481 
Q 353 4063 643 4406 
Q 934 4750 1428 4750 
z
" transform="scale(0.015625)"/>
      </defs>
      <use xlink:href="#DejaVuSans-39"/>
      <use xlink:href="#DejaVuSans-35" transform="translate(63.623047 0)"/>
      <use xlink:href="#DejaVuSans-25" transform="translate(127.246094 0)"/>
      <use xlink:href="#DejaVuSans-20" transform="translate(222.265625 0)"/>
      <use xlink:href="#DejaVuSans-41" transform="translate(254.052734 0)"/>
      <use xlink:href="#DejaVuSans-62" transform="translate(322.460938 0)"/>
      <use xlink:href="#DejaVuSans-73" transform="translate(385.9375 0)"/>
      <use xlink:href="#DejaVuSans-3a" transform="translate(438.037109 0)"/>
      <use xlink:href="#DejaVuSans-20" transform="translate(471.728516 0)"/>
      <use xlink:href="#DejaVuSans-30" transform="translate(503.515625 0)"/>
      <use xlink:href="#DejaVuSans-2e" transform="translate(567.138672 0)"/>
      <use xlink:href="#DejaVuSans-33" transform="translate(598.925781 0)"/>
      <use xlink:href="#DejaVuSans-33" transform="translate(662.548828 0)"/>
      <use xlink:href="#DejaVuSans-36" transform="translate(726.171875 0)"/>
      <use xlink:href="#DejaVuSans-32" transform="translate(789.794922 0)"/>
      <use xlink:href="#DejaVuSans-b0" transform="translate(853.417969 0)"/>
     </g>
    </g>
   </g>
  </g>
  <g id="text_38">
   <!-- Wikipedia Solar Elevation Error Histogram (Full Dataset) -->
   <g transform="translate(331.871563 16.318125) scale(0.12 -0.12)">
    <defs>
     <path id="DejaVuSans-76" d="M 191 3500 
L 800 3500 
L 1894 563 
L 2988 3500 
L 3597 3500 
L 2284 0 
L 1503 0 
L 191 3500 
z
" transform="scale(0.015625)"/>
     <path id="DejaVuSans-48" d="M 628 4666 
L 1259 4666 
L 1259 2753 
L 3553 2753 
L 3553 4666 
L 4184 4666 
L 4184 0 
L 3553 0 
L 3553 2222 
L 1259 2222 
L 1259 0 
L 628 0 
L 628 4666 
z
" transform="scale(0.015625)"/>
     <path id="DejaVuSans-6d" d="M 3328 2828 
Q 3544 3216 3844 3400 
Q 4144 3584 4550 3584 
Q 5097 3584 5394 3201 
Q 5691 2819 5691 2113 
L 5691 0 
L 5113 0 
L 5113 2094 
Q 5113 2597 4934 2840 
Q 4756 3084 4391 3084 
Q 3944 3084 3684 2787 
Q 3425 2491 3425 1978 
L 3425 0 
L 2847 0 
L 2847 2094 
Q 2847 2600 2669 2842 
Q 2491 3084 2119 3084 
Q 1678 3084 1418 2786 
Q 1159 2488 1159 1978 
L 1159 0 
L 581 0 
L 581 3500 
L 1159 3500 
L 1159 2956 
Q 1356 3278 1631 3431 
Q 1906 3584 2284 3584 
Q 2666 3584 2933 3390 
Q 3200 3197 3328 2828 
z
" transform="scale(0.015625)"/>
    </defs>
    <use xlink:href="#DejaVuSans-57"/>
    <use xlink:href="#DejaVuSans-69" transform="translate(96.626953 0)"/>
    <use xlink:href="#DejaVuSans-6b" transform="translate(124.410156 0)"/>
    <use xlink:href="#DejaVuSans-69" transform="translate(182.320312 0)"/>
    <use xlink:href="#DejaVuSans-70" transform="translate(210.103516 0)"/>
    <use xlink:href="#DejaVuSans-65" transform="translate(273.580078 0)"/>
    <use xlink:href="#DejaVuSans-64" transform="translate(335.103516 0)"/>
    <use xlink:href="#DejaVuSans-69" transform="translate(398.580078 0)"/>
    <use xlink:href="#DejaVuSans-61" transform="translate(426.363281 0)"/>
    <use xlink:href="#DejaVuSans-20" transform="translate(487.642578 0)"/>
    <use xlink:href="#DejaVuSans-53" transform="translate(519.429688 0)"/>
    <use xlink:href="#DejaVuSans-6f" transform="translate(582.90625 0)"/>
    <use xlink:href="#DejaVuSans-6c" transform="translate(644.087891 0)"/>
    <use xlink:href="#DejaVuSans-61" transform="translate(671.871094 0)"/>
    <use xlink:href="#DejaVuSans-72" transform="translate(733.150391 0)"/>
    <use xlink:href="#DejaVuSans-20" transform="translate(774.263672 0)"/>
    <use xlink:href="#DejaVuSans-45" transform="translate(806.050781 0)"/>
    <use xlink:href="#DejaVuSans-6c" transform="translate(869.234375 0)"/>
    <use xlink:href="#DejaVuSans-65" transform="translate(897.017578 0)"/>
    <use xlink:href="#DejaVuSans-76" transform="translate(958.541016 0)"/>
    <use xlink:href="#DejaVuSans-61" transform="translate(1017.720703 0)"/>
    <use xlink:href="#DejaVuSans-74" transform="translate(1079 0)"/>
    <use xlink:href="#DejaVuSans-69" transform="translate(1118.208984 0)"/>
    <use xlink:href="#DejaVuSans-6f" transform="translate(1145.992188 0)"/>
    <use xlink:href="#DejaVuSans-6e" transform="translate(1207.173828 0)"/>
    <use xlink:href="#DejaVuSans-20" transform="translate(1270.552734 0)"/>
    <use xlink:href="#DejaVuSans-45" transform="translate(1302.339844 0)"/>
    <use xlink:href="#DejaVuSans-72" transform="translate(1365.523438 0)"/>
    <use xlink:href="#DejaVuSans-72" transform="translate(1404.886719 0)"/>
    <use xlink:href="#DejaVuSans-6f" transform="translate(1443.75 0)"/>
    <use xlink:href="#DejaVuSans-72" transform="translate(1504.931641 0)"/>
    <use xlink:href="#DejaVuSans-20" transform="translate(1546.044922 0)"/>
    <use xlink:href="#DejaVuSans-48" transform="translate(1577.832031 0)"/>
    <use xlink:href="#DejaVuSans-69" transform="translate(1653.027344 0)"/>
    <use xlink:href="#DejaVuSans-73" transform="translate(1680.810547 0)"/>
    <use xlink:href="#DejaVuSans-74" transform="translate(1732.910156 0)"/>
    <use xlink:href="#DejaVuSans-6f" transform="translate(1772.119141 0)"/>
    <use xlink:href="#DejaVuSans-67" transform="translate(1833.300781 0)"/>
    <use xlink:href="#DejaVuSans-72" transform="translate(1896.777344 0)"/>
    <use xlink:href="#DejaVuSans-61" transform="translate(1937.890625 0)"/>
    <use xlink:href="#DejaVuSans-6d" transform="translate(1999.169922 0)"/>
    <use xlink:href="#DejaVuSans-20" transform="translate(2096.582031 0)"/>
    <use xlink:href="#DejaVuSans-28" transform="translate(2128.369141 0)"/>
    <use xlink:href="#DejaVuSans-46" transform="translate(2167.382812 0)"/>
    <use xlink:href="#DejaVuSans-75" transform="translate(2219.402344 0)"/>
    <use xlink:href="#DejaVuSans-6c" transform="translate(2282.78125 0)"/>
    <use xlink:href="#DejaVuSans-6c" transform="translate(2310.564453 0)"/>
    <use xlink:href="#DejaVuSans-20" transform="translate(2338.347656 0)"/>
    <use xlink:href="#DejaVuSans-44" transform="translate(2370.134766 0)"/>
    <use xlink:href="#DejaVuSans-61" transform="translate(2447.136719 0)"/>
    <use xlink:href="#DejaVuSans-74" transform="translate(2508.416016 0)"/>
    <use xlink:href="#DejaVuSans-61" transform="translate(2547.625 0)"/>
    <use xlink:href="#DejaVuSans-73" transform="translate(2608.904297 0)"/>
    <use xlink:href="#DejaVuSans-65" transform="translate(2661.003906 0)"/>
    <use xlink:href="#DejaVuSans-74" transform="translate(2722.527344 0)"/>
    <use xlink:href="#DejaVuSans-29" transform="translate(2761.736328 0)"/>
   </g>
  </g>
 </g>
 <defs>
  <clipPath id="pb6e8e0bc84">
   <rect x="46.965625" y="45.6" width="443.257972" height="343"/>
  </clipPath>
  <clipPath id="p4ea795573a">
   <rect x="547.663597" y="45.6" width="443.257972" height="343"/>
  </clipPath>
 </defs>
</svg>
