<?xml version="1.0" encoding="utf-8" standalone="no"?>
<!DOCTYPE svg PUBLIC "-//W3C//DTD SVG 1.1//EN"
  "http://www.w3.org/Graphics/SVG/1.1/DTD/svg11.dtd">
<svg xmlns:xlink="http://www.w3.org/1999/xlink" width="1000.315625pt" height="426.15625pt" viewBox="0 0 1000.315625 426.15625" xmlns="http://www.w3.org/2000/svg" version="1.1">
 <metadata>
  <rdf:RDF xmlns:dc="http://purl.org/dc/elements/1.1/" xmlns:cc="http://creativecommons.org/ns#" xmlns:rdf="http://www.w3.org/1999/02/22-rdf-syntax-ns#">
   <cc:Work>
    <dc:type rdf:resource="http://purl.org/dc/dcmitype/StillImage"/>
    <dc:date>2025-11-25T02:32:41.671375</dc:date>
    <dc:format>image/svg+xml</dc:format>
    <dc:creator>
     <cc:Agent>
      <dc:title>Matplotlib v3.10.8, https://matplotlib.org/</dc:title>
     </cc:Agent>
    </dc:creator>
   </cc:Work>
  </rdf:RDF>
 </metadata>
 <defs>
  <style type="text/css">*{stroke-linejoin: round; stroke-linecap: butt}</style>
 </defs>
 <g id="figure_1">
  <g id="patch_1">
   <path d="M 0 426.15625 
L 1000.315625 426.15625 
L 1000.315625 0 
L 0 0 
z
" style="fill: #ffffff"/>
  </g>
  <g id="axes_1">
   <g id="patch_2">
    <path d="M 46.965625 388.6 
L 491.320625 388.6 
L 491.320625 45.6 
L 46.965625 45.6 
z
" style="fill: #ffffff"/>
   </g>
   <g id="patch_3">
    <path d="M 67.16358 388.6 
L 73.47544 388.6 
L 73.47544 378.005405 
L 67.16358 378.005405 
z
" clip-path="url(#pfe648999c8)" style="fill: #87ceeb; opacity: 0.7; stroke: #000000; stroke-linejoin: miter"/>
   </g>
   <g id="patch_4">
    <path d="M 73.47544 388.6 
L 79.787301 388.6 
L 79.787301 386.834234 
L 73.47544 386.834234 
z
" clip-path="url(#pfe648999c8)" style="fill: #87ceeb; opacity: 0.7; stroke: #000000; stroke-linejoin: miter"/>
   </g>
   <g id="patch_5">
    <path d="M 79.787301 388.6 
L 86.099162 388.6 
L 86.099162 386.392793 
L 79.787301 386.392793 
z
" clip-path="url(#pfe648999c8)" style="fill: #87ceeb; opacity: 0.7; stroke: #000000; stroke-linejoin: miter"/>
   </g>
   <g id="patch_6">
    <path d="M 86.099162 388.6 
L 92.411023 388.6 
L 92.411023 367.410811 
L 86.099162 367.410811 
z
" clip-path="url(#pfe648999c8)" style="fill: #87ceeb; opacity: 0.7; stroke: #000000; stroke-linejoin: miter"/>
   </g>
   <g id="patch_7">
    <path d="M 92.411023 388.6 
L 98.722884 388.6 
L 98.722884 375.356757 
L 92.411023 375.356757 
z
" clip-path="url(#pfe648999c8)" style="fill: #87ceeb; opacity: 0.7; stroke: #000000; stroke-linejoin: miter"/>
   </g>
   <g id="patch_8">
    <path d="M 98.722884 388.6 
L 105.034744 388.6 
L 105.034744 367.410811 
L 98.722884 367.410811 
z
" clip-path="url(#pfe648999c8)" style="fill: #87ceeb; opacity: 0.7; stroke: #000000; stroke-linejoin: miter"/>
   </g>
   <g id="patch_9">
    <path d="M 105.034744 388.6 
L 111.346605 388.6 
L 111.346605 377.122523 
L 105.034744 377.122523 
z
" clip-path="url(#pfe648999c8)" style="fill: #87ceeb; opacity: 0.7; stroke: #000000; stroke-linejoin: miter"/>
   </g>
   <g id="patch_10">
    <path d="M 111.346605 388.6 
L 117.658466 388.6 
L 117.658466 377.563964 
L 111.346605 377.563964 
z
" clip-path="url(#pfe648999c8)" style="fill: #87ceeb; opacity: 0.7; stroke: #000000; stroke-linejoin: miter"/>
   </g>
   <g id="patch_11">
    <path d="M 117.658466 388.6 
L 123.970327 388.6 
L 123.970327 372.708108 
L 117.658466 372.708108 
z
" clip-path="url(#pfe648999c8)" style="fill: #87ceeb; opacity: 0.7; stroke: #000000; stroke-linejoin: miter"/>
   </g>
   <g id="patch_12">
    <path d="M 123.970327 388.6 
L 130.282188 388.6 
L 130.282188 354.609009 
L 123.970327 354.609009 
z
" clip-path="url(#pfe648999c8)" style="fill: #87ceeb; opacity: 0.7; stroke: #000000; stroke-linejoin: miter"/>
   </g>
   <g id="patch_13">
    <path d="M 130.282188 388.6 
L 136.594048 388.6 
L 136.594048 350.194595 
L 130.282188 350.194595 
z
" clip-path="url(#pfe648999c8)" style="fill: #87ceeb; opacity: 0.7; stroke: #000000; stroke-linejoin: miter"/>
   </g>
   <g id="patch_14">
    <path d="M 136.594048 388.6 
L 142.905909 388.6 
L 142.905909 355.05045 
L 136.594048 355.05045 
z
" clip-path="url(#pfe648999c8)" style="fill: #87ceeb; opacity: 0.7; stroke: #000000; stroke-linejoin: miter"/>
   </g>
   <g id="patch_15">
    <path d="M 142.905909 388.6 
L 149.21777 388.6 
L 149.21777 349.311712 
L 142.905909 349.311712 
z
" clip-path="url(#pfe648999c8)" style="fill: #87ceeb; opacity: 0.7; stroke: #000000; stroke-linejoin: miter"/>
   </g>
   <g id="patch_16">
    <path d="M 149.21777 388.6 
L 155.529631 388.6 
L 155.529631 307.816216 
L 149.21777 307.816216 
z
" clip-path="url(#pfe648999c8)" style="fill: #87ceeb; opacity: 0.7; stroke: #000000; stroke-linejoin: miter"/>
   </g>
   <g id="patch_17">
    <path d="M 155.529631 388.6 
L 161.841491 388.6 
L 161.841491 305.609009 
L 155.529631 305.609009 
z
" clip-path="url(#pfe648999c8)" style="fill: #87ceeb; opacity: 0.7; stroke: #000000; stroke-linejoin: miter"/>
   </g>
   <g id="patch_18">
    <path d="M 161.841491 388.6 
L 168.153352 388.6 
L 168.153352 348.87027 
L 161.841491 348.87027 
z
" clip-path="url(#pfe648999c8)" style="fill: #87ceeb; opacity: 0.7; stroke: #000000; stroke-linejoin: miter"/>
   </g>
   <g id="patch_19">
    <path d="M 168.153352 388.6 
L 174.465213 388.6 
L 174.465213 331.654054 
L 168.153352 331.654054 
z
" clip-path="url(#pfe648999c8)" style="fill: #87ceeb; opacity: 0.7; stroke: #000000; stroke-linejoin: miter"/>
   </g>
   <g id="patch_20">
    <path d="M 174.465213 388.6 
L 180.777074 388.6 
L 180.777074 323.266667 
L 174.465213 323.266667 
z
" clip-path="url(#pfe648999c8)" style="fill: #87ceeb; opacity: 0.7; stroke: #000000; stroke-linejoin: miter"/>
   </g>
   <g id="patch_21">
    <path d="M 180.777074 388.6 
L 187.088935 388.6 
L 187.088935 334.302703 
L 180.777074 334.302703 
z
" clip-path="url(#pfe648999c8)" style="fill: #87ceeb; opacity: 0.7; stroke: #000000; stroke-linejoin: miter"/>
   </g>
   <g id="patch_22">
    <path d="M 187.088935 388.6 
L 193.400795 388.6 
L 193.400795 272.500901 
L 187.088935 272.500901 
z
" clip-path="url(#pfe648999c8)" style="fill: #87ceeb; opacity: 0.7; stroke: #000000; stroke-linejoin: miter"/>
   </g>
   <g id="patch_23">
    <path d="M 193.400795 388.6 
L 199.712656 388.6 
L 199.712656 291.924324 
L 193.400795 291.924324 
z
" clip-path="url(#pfe648999c8)" style="fill: #87ceeb; opacity: 0.7; stroke: #000000; stroke-linejoin: miter"/>
   </g>
   <g id="patch_24">
    <path d="M 199.712656 388.6 
L 206.024517 388.6 
L 206.024517 260.581982 
L 199.712656 260.581982 
z
" clip-path="url(#pfe648999c8)" style="fill: #87ceeb; opacity: 0.7; stroke: #000000; stroke-linejoin: miter"/>
   </g>
   <g id="patch_25">
    <path d="M 206.024517 388.6 
L 212.336378 388.6 
L 212.336378 251.311712 
L 206.024517 251.311712 
z
" clip-path="url(#pfe648999c8)" style="fill: #87ceeb; opacity: 0.7; stroke: #000000; stroke-linejoin: miter"/>
   </g>
   <g id="patch_26">
    <path d="M 212.336378 388.6 
L 218.648239 388.6 
L 218.648239 260.140541 
L 212.336378 260.140541 
z
" clip-path="url(#pfe648999c8)" style="fill: #87ceeb; opacity: 0.7; stroke: #000000; stroke-linejoin: miter"/>
   </g>
   <g id="patch_27">
    <path d="M 218.648239 388.6 
L 224.960099 388.6 
L 224.960099 205.843243 
L 218.648239 205.843243 
z
" clip-path="url(#pfe648999c8)" style="fill: #87ceeb; opacity: 0.7; stroke: #000000; stroke-linejoin: miter"/>
   </g>
   <g id="patch_28">
    <path d="M 224.960099 388.6 
L 231.27196 388.6 
L 231.27196 227.032432 
L 224.960099 227.032432 
z
" clip-path="url(#pfe648999c8)" style="fill: #87ceeb; opacity: 0.7; stroke: #000000; stroke-linejoin: miter"/>
   </g>
   <g id="patch_29">
    <path d="M 231.27196 388.6 
L 237.583821 388.6 
L 237.583821 231.888288 
L 231.27196 231.888288 
z
" clip-path="url(#pfe648999c8)" style="fill: #87ceeb; opacity: 0.7; stroke: #000000; stroke-linejoin: miter"/>
   </g>
   <g id="patch_30">
    <path d="M 237.583821 388.6 
L 243.895682 388.6 
L 243.895682 214.230631 
L 237.583821 214.230631 
z
" clip-path="url(#pfe648999c8)" style="fill: #87ceeb; opacity: 0.7; stroke: #000000; stroke-linejoin: miter"/>
   </g>
   <g id="patch_31">
    <path d="M 243.895682 388.6 
L 250.207543 388.6 
L 250.207543 140.951351 
L 243.895682 140.951351 
z
" clip-path="url(#pfe648999c8)" style="fill: #87ceeb; opacity: 0.7; stroke: #000000; stroke-linejoin: miter"/>
   </g>
   <g id="patch_32">
    <path d="M 250.207543 388.6 
L 256.519403 388.6 
L 256.519403 67.230631 
L 250.207543 67.230631 
z
" clip-path="url(#pfe648999c8)" style="fill: #87ceeb; opacity: 0.7; stroke: #000000; stroke-linejoin: miter"/>
   </g>
   <g id="patch_33">
    <path d="M 256.519403 388.6 
L 262.831264 388.6 
L 262.831264 61.933333 
L 256.519403 61.933333 
z
" clip-path="url(#pfe648999c8)" style="fill: #87ceeb; opacity: 0.7; stroke: #000000; stroke-linejoin: miter"/>
   </g>
   <g id="patch_34">
    <path d="M 262.831264 388.6 
L 269.143125 388.6 
L 269.143125 128.14955 
L 262.831264 128.14955 
z
" clip-path="url(#pfe648999c8)" style="fill: #87ceeb; opacity: 0.7; stroke: #000000; stroke-linejoin: miter"/>
   </g>
   <g id="patch_35">
    <path d="M 269.143125 388.6 
L 275.454986 388.6 
L 275.454986 114.464865 
L 269.143125 114.464865 
z
" clip-path="url(#pfe648999c8)" style="fill: #87ceeb; opacity: 0.7; stroke: #000000; stroke-linejoin: miter"/>
   </g>
   <g id="patch_36">
    <path d="M 275.454986 388.6 
L 281.766847 388.6 
L 281.766847 83.122523 
L 275.454986 83.122523 
z
" clip-path="url(#pfe648999c8)" style="fill: #87ceeb; opacity: 0.7; stroke: #000000; stroke-linejoin: miter"/>
   </g>
   <g id="patch_37">
    <path d="M 281.766847 388.6 
L 288.078707 388.6 
L 288.078707 99.014414 
L 281.766847 99.014414 
z
" clip-path="url(#pfe648999c8)" style="fill: #87ceeb; opacity: 0.7; stroke: #000000; stroke-linejoin: miter"/>
   </g>
   <g id="patch_38">
    <path d="M 288.078707 388.6 
L 294.390568 388.6 
L 294.390568 90.185586 
L 288.078707 90.185586 
z
" clip-path="url(#pfe648999c8)" style="fill: #87ceeb; opacity: 0.7; stroke: #000000; stroke-linejoin: miter"/>
   </g>
   <g id="patch_39">
    <path d="M 294.390568 388.6 
L 300.702429 388.6 
L 300.702429 74.293694 
L 294.390568 74.293694 
z
" clip-path="url(#pfe648999c8)" style="fill: #87ceeb; opacity: 0.7; stroke: #000000; stroke-linejoin: miter"/>
   </g>
   <g id="patch_40">
    <path d="M 300.702429 388.6 
L 307.01429 388.6 
L 307.01429 74.293694 
L 300.702429 74.293694 
z
" clip-path="url(#pfe648999c8)" style="fill: #87ceeb; opacity: 0.7; stroke: #000000; stroke-linejoin: miter"/>
   </g>
   <g id="patch_41">
    <path d="M 307.01429 388.6 
L 313.326151 388.6 
L 313.326151 179.356757 
L 307.01429 179.356757 
z
" clip-path="url(#pfe648999c8)" style="fill: #87ceeb; opacity: 0.7; stroke: #000000; stroke-linejoin: miter"/>
   </g>
   <g id="patch_42">
    <path d="M 313.326151 388.6 
L 319.638011 388.6 
L 319.638011 184.654054 
L 313.326151 184.654054 
z
" clip-path="url(#pfe648999c8)" style="fill: #87ceeb; opacity: 0.7; stroke: #000000; stroke-linejoin: miter"/>
   </g>
   <g id="patch_43">
    <path d="M 319.638011 388.6 
L 325.949872 388.6 
L 325.949872 214.672072 
L 319.638011 214.672072 
z
" clip-path="url(#pfe648999c8)" style="fill: #87ceeb; opacity: 0.7; stroke: #000000; stroke-linejoin: miter"/>
   </g>
   <g id="patch_44">
    <path d="M 325.949872 388.6 
L 332.261733 388.6 
L 332.261733 235.41982 
L 325.949872 235.41982 
z
" clip-path="url(#pfe648999c8)" style="fill: #87ceeb; opacity: 0.7; stroke: #000000; stroke-linejoin: miter"/>
   </g>
   <g id="patch_45">
    <path d="M 332.261733 388.6 
L 338.573594 388.6 
L 338.573594 237.185586 
L 332.261733 237.185586 
z
" clip-path="url(#pfe648999c8)" style="fill: #87ceeb; opacity: 0.7; stroke: #000000; stroke-linejoin: miter"/>
   </g>
   <g id="patch_46">
    <path d="M 338.573594 388.6 
L 344.885455 388.6 
L 344.885455 279.563964 
L 338.573594 279.563964 
z
" clip-path="url(#pfe648999c8)" style="fill: #87ceeb; opacity: 0.7; stroke: #000000; stroke-linejoin: miter"/>
   </g>
   <g id="patch_47">
    <path d="M 344.885455 388.6 
L 351.197315 388.6 
L 351.197315 266.762162 
L 344.885455 266.762162 
z
" clip-path="url(#pfe648999c8)" style="fill: #87ceeb; opacity: 0.7; stroke: #000000; stroke-linejoin: miter"/>
   </g>
   <g id="patch_48">
    <path d="M 351.197315 388.6 
L 357.509176 388.6 
L 357.509176 279.563964 
L 351.197315 279.563964 
z
" clip-path="url(#pfe648999c8)" style="fill: #87ceeb; opacity: 0.7; stroke: #000000; stroke-linejoin: miter"/>
   </g>
   <g id="patch_49">
    <path d="M 357.509176 388.6 
L 363.821037 388.6 
L 363.821037 251.311712 
L 357.509176 251.311712 
z
" clip-path="url(#pfe648999c8)" style="fill: #87ceeb; opacity: 0.7; stroke: #000000; stroke-linejoin: miter"/>
   </g>
   <g id="patch_50">
    <path d="M 363.821037 388.6 
L 370.132898 388.6 
L 370.132898 306.491892 
L 363.821037 306.491892 
z
" clip-path="url(#pfe648999c8)" style="fill: #87ceeb; opacity: 0.7; stroke: #000000; stroke-linejoin: miter"/>
   </g>
   <g id="patch_51">
    <path d="M 370.132898 388.6 
L 376.444759 388.6 
L 376.444759 300.753153 
L 370.132898 300.753153 
z
" clip-path="url(#pfe648999c8)" style="fill: #87ceeb; opacity: 0.7; stroke: #000000; stroke-linejoin: miter"/>
   </g>
   <g id="patch_52">
    <path d="M 376.444759 388.6 
L 382.756619 388.6 
L 382.756619 340.482883 
L 376.444759 340.482883 
z
" clip-path="url(#pfe648999c8)" style="fill: #87ceeb; opacity: 0.7; stroke: #000000; stroke-linejoin: miter"/>
   </g>
   <g id="patch_53">
    <path d="M 382.756619 388.6 
L 389.06848 388.6 
L 389.06848 306.491892 
L 382.756619 306.491892 
z
" clip-path="url(#pfe648999c8)" style="fill: #87ceeb; opacity: 0.7; stroke: #000000; stroke-linejoin: miter"/>
   </g>
   <g id="patch_54">
    <path d="M 389.06848 388.6 
L 395.380341 388.6 
L 395.380341 340.482883 
L 389.06848 340.482883 
z
" clip-path="url(#pfe648999c8)" style="fill: #87ceeb; opacity: 0.7; stroke: #000000; stroke-linejoin: miter"/>
   </g>
   <g id="patch_55">
    <path d="M 395.380341 388.6 
L 401.692202 388.6 
L 401.692202 338.717117 
L 395.380341 338.717117 
z
" clip-path="url(#pfe648999c8)" style="fill: #87ceeb; opacity: 0.7; stroke: #000000; stroke-linejoin: miter"/>
   </g>
   <g id="patch_56">
    <path d="M 401.692202 388.6 
L 408.004063 388.6 
L 408.004063 361.672072 
L 401.692202 361.672072 
z
" clip-path="url(#pfe648999c8)" style="fill: #87ceeb; opacity: 0.7; stroke: #000000; stroke-linejoin: miter"/>
   </g>
   <g id="patch_57">
    <path d="M 408.004063 388.6 
L 414.315923 388.6 
L 414.315923 374.915315 
L 408.004063 374.915315 
z
" clip-path="url(#pfe648999c8)" style="fill: #87ceeb; opacity: 0.7; stroke: #000000; stroke-linejoin: miter"/>
   </g>
   <g id="patch_58">
    <path d="M 414.315923 388.6 
L 420.627784 388.6 
L 420.627784 378.888288 
L 414.315923 378.888288 
z
" clip-path="url(#pfe648999c8)" style="fill: #87ceeb; opacity: 0.7; stroke: #000000; stroke-linejoin: miter"/>
   </g>
   <g id="patch_59">
    <path d="M 420.627784 388.6 
L 426.939645 388.6 
L 426.939645 374.915315 
L 420.627784 374.915315 
z
" clip-path="url(#pfe648999c8)" style="fill: #87ceeb; opacity: 0.7; stroke: #000000; stroke-linejoin: miter"/>
   </g>
   <g id="patch_60">
    <path d="M 426.939645 388.6 
L 433.251506 388.6 
L 433.251506 371.825225 
L 426.939645 371.825225 
z
" clip-path="url(#pfe648999c8)" style="fill: #87ceeb; opacity: 0.7; stroke: #000000; stroke-linejoin: miter"/>
   </g>
   <g id="patch_61">
    <path d="M 433.251506 388.6 
L 439.563366 388.6 
L 439.563366 358.140541 
L 433.251506 358.140541 
z
" clip-path="url(#pfe648999c8)" style="fill: #87ceeb; opacity: 0.7; stroke: #000000; stroke-linejoin: miter"/>
   </g>
   <g id="patch_62">
    <path d="M 439.563366 388.6 
L 445.875227 388.6 
L 445.875227 336.951351 
L 439.563366 336.951351 
z
" clip-path="url(#pfe648999c8)" style="fill: #87ceeb; opacity: 0.7; stroke: #000000; stroke-linejoin: miter"/>
   </g>
   <g id="patch_63">
    <path d="M 445.875227 388.6 
L 452.187088 388.6 
L 452.187088 353.726126 
L 445.875227 353.726126 
z
" clip-path="url(#pfe648999c8)" style="fill: #87ceeb; opacity: 0.7; stroke: #000000; stroke-linejoin: miter"/>
   </g>
   <g id="patch_64">
    <path d="M 452.187088 388.6 
L 458.498949 388.6 
L 458.498949 388.158559 
L 452.187088 388.158559 
z
" clip-path="url(#pfe648999c8)" style="fill: #87ceeb; opacity: 0.7; stroke: #000000; stroke-linejoin: miter"/>
   </g>
   <g id="patch_65">
    <path d="M 458.498949 388.6 
L 464.81081 388.6 
L 464.81081 388.6 
L 458.498949 388.6 
z
" clip-path="url(#pfe648999c8)" style="fill: #87ceeb; opacity: 0.7; stroke: #000000; stroke-linejoin: miter"/>
   </g>
   <g id="patch_66">
    <path d="M 464.81081 388.6 
L 471.12267 388.6 
L 471.12267 356.816216 
L 464.81081 356.816216 
z
" clip-path="url(#pfe648999c8)" style="fill: #87ceeb; opacity: 0.7; stroke: #000000; stroke-linejoin: miter"/>
   </g>
   <g id="matplotlib.axis_1">
    <g id="xtick_1">
     <g id="line2d_1">
      <path d="M 53.26877 388.6 
L 53.26877 45.6 
" clip-path="url(#pfe648999c8)" style="fill: none; stroke: #b0b0b0; stroke-opacity: 0.3; stroke-width: 0.8; stroke-linecap: square"/>
     </g>
     <g id="line2d_2">
      <defs>
       <path id="mdb70b479cc" d="M 0 0 
L 0 3.5 
" style="stroke: #000000; stroke-width: 0.8"/>
      </defs>
      <g>
       <use xlink:href="#mdb70b479cc" x="53.26877" y="388.6" style="stroke: #000000; stroke-width: 0.8"/>
      </g>
     </g>
     <g id="text_1">
      <!-- −0.3 -->
      <g transform="translate(41.127364 403.198437) scale(0.1 -0.1)">
       <defs>
        <path id="DejaVuSans-2212" d="M 678 2272 
L 4684 2272 
L 4684 1741 
L 678 1741 
L 678 2272 
z
" transform="scale(0.015625)"/>
        <path id="DejaVuSans-30" d="M 2034 4250 
Q 1547 4250 1301 3770 
Q 1056 3291 1056 2328 
Q 1056 1369 1301 889 
Q 1547 409 2034 409 
Q 2525 409 2770 889 
Q 3016 1369 3016 2328 
Q 3016 3291 2770 3770 
Q 2525 4250 2034 4250 
z
M 2034 4750 
Q 2819 4750 3233 4129 
Q 3647 3509 3647 2328 
Q 3647 1150 3233 529 
Q 2819 -91 2034 -91 
Q 1250 -91 836 529 
Q 422 1150 422 2328 
Q 422 3509 836 4129 
Q 1250 4750 2034 4750 
z
" transform="scale(0.015625)"/>
        <path id="DejaVuSans-2e" d="M 684 794 
L 1344 794 
L 1344 0 
L 684 0 
L 684 794 
z
" transform="scale(0.015625)"/>
        <path id="DejaVuSans-33" d="M 2597 2516 
Q 3050 2419 3304 2112 
Q 3559 1806 3559 1356 
Q 3559 666 3084 287 
Q 2609 -91 1734 -91 
Q 1441 -91 1130 -33 
Q 819 25 488 141 
L 488 750 
Q 750 597 1062 519 
Q 1375 441 1716 441 
Q 2309 441 2620 675 
Q 2931 909 2931 1356 
Q 2931 1769 2642 2001 
Q 2353 2234 1838 2234 
L 1294 2234 
L 1294 2753 
L 1863 2753 
Q 2328 2753 2575 2939 
Q 2822 3125 2822 3475 
Q 2822 3834 2567 4026 
Q 2313 4219 1838 4219 
Q 1578 4219 1281 4162 
Q 984 4106 628 3988 
L 628 4550 
Q 988 4650 1302 4700 
Q 1616 4750 1894 4750 
Q 2613 4750 3031 4423 
Q 3450 4097 3450 3541 
Q 3450 3153 3228 2886 
Q 3006 2619 2597 2516 
z
" transform="scale(0.015625)"/>
       </defs>
       <use xlink:href="#DejaVuSans-2212"/>
       <use xlink:href="#DejaVuSans-30" transform="translate(83.789062 0)"/>
       <use xlink:href="#DejaVuSans-2e" transform="translate(147.412109 0)"/>
       <use xlink:href="#DejaVuSans-33" transform="translate(179.199219 0)"/>
      </g>
     </g>
    </g>
    <g id="xtick_2">
     <g id="line2d_3">
      <path d="M 127.092472 388.6 
L 127.092472 45.6 
" clip-path="url(#pfe648999c8)" style="fill: none; stroke: #b0b0b0; stroke-opacity: 0.3; stroke-width: 0.8; stroke-linecap: square"/>
     </g>
     <g id="line2d_4">
      <g>
       <use xlink:href="#mdb70b479cc" x="127.092472" y="388.6" style="stroke: #000000; stroke-width: 0.8"/>
      </g>
     </g>
     <g id="text_2">
      <!-- −0.2 -->
      <g transform="translate(114.951066 403.198437) scale(0.1 -0.1)">
       <defs>
        <path id="DejaVuSans-32" d="M 1228 531 
L 3431 531 
L 3431 0 
L 469 0 
L 469 531 
Q 828 903 1448 1529 
Q 2069 2156 2228 2338 
Q 2531 2678 2651 2914 
Q 2772 3150 2772 3378 
Q 2772 3750 2511 3984 
Q 2250 4219 1831 4219 
Q 1534 4219 1204 4116 
Q 875 4013 500 3803 
L 500 4441 
Q 881 4594 1212 4672 
Q 1544 4750 1819 4750 
Q 2544 4750 2975 4387 
Q 3406 4025 3406 3419 
Q 3406 3131 3298 2873 
Q 3191 2616 2906 2266 
Q 2828 2175 2409 1742 
Q 1991 1309 1228 531 
z
" transform="scale(0.015625)"/>
       </defs>
       <use xlink:href="#DejaVuSans-2212"/>
       <use xlink:href="#DejaVuSans-30" transform="translate(83.789062 0)"/>
       <use xlink:href="#DejaVuSans-2e" transform="translate(147.412109 0)"/>
       <use xlink:href="#DejaVuSans-32" transform="translate(179.199219 0)"/>
      </g>
     </g>
    </g>
    <g id="xtick_3">
     <g id="line2d_5">
      <path d="M 200.916174 388.6 
L 200.916174 45.6 
" clip-path="url(#pfe648999c8)" style="fill: none; stroke: #b0b0b0; stroke-opacity: 0.3; stroke-width: 0.8; stroke-linecap: square"/>
     </g>
     <g id="line2d_6">
      <g>
       <use xlink:href="#mdb70b479cc" x="200.916174" y="388.6" style="stroke: #000000; stroke-width: 0.8"/>
      </g>
     </g>
     <g id="text_3">
      <!-- −0.1 -->
      <g transform="translate(188.774768 403.198437) scale(0.1 -0.1)">
       <defs>
        <path id="DejaVuSans-31" d="M 794 531 
L 1825 531 
L 1825 4091 
L 703 3866 
L 703 4441 
L 1819 4666 
L 2450 4666 
L 2450 531 
L 3481 531 
L 3481 0 
L 794 0 
L 794 531 
z
" transform="scale(0.015625)"/>
       </defs>
       <use xlink:href="#DejaVuSans-2212"/>
       <use xlink:href="#DejaVuSans-30" transform="translate(83.789062 0)"/>
       <use xlink:href="#DejaVuSans-2e" transform="translate(147.412109 0)"/>
       <use xlink:href="#DejaVuSans-31" transform="translate(179.199219 0)"/>
      </g>
     </g>
    </g>
    <g id="xtick_4">
     <g id="line2d_7">
      <path d="M 274.739876 388.6 
L 274.739876 45.6 
" clip-path="url(#pfe648999c8)" style="fill: none; stroke: #b0b0b0; stroke-opacity: 0.3; stroke-width: 0.8; stroke-linecap: square"/>
     </g>
     <g id="line2d_8">
      <g>
       <use xlink:href="#mdb70b479cc" x="274.739876" y="388.6" style="stroke: #000000; stroke-width: 0.8"/>
      </g>
     </g>
     <g id="text_4">
      <!-- 0.0 -->
      <g transform="translate(266.788314 403.198437) scale(0.1 -0.1)">
       <use xlink:href="#DejaVuSans-30"/>
       <use xlink:href="#DejaVuSans-2e" transform="translate(63.623047 0)"/>
       <use xlink:href="#DejaVuSans-30" transform="translate(95.410156 0)"/>
      </g>
     </g>
    </g>
    <g id="xtick_5">
     <g id="line2d_9">
      <path d="M 348.563578 388.6 
L 348.563578 45.6 
" clip-path="url(#pfe648999c8)" style="fill: none; stroke: #b0b0b0; stroke-opacity: 0.3; stroke-width: 0.8; stroke-linecap: square"/>
     </g>
     <g id="line2d_10">
      <g>
       <use xlink:href="#mdb70b479cc" x="348.563578" y="388.6" style="stroke: #000000; stroke-width: 0.8"/>
      </g>
     </g>
     <g id="text_5">
      <!-- 0.1 -->
      <g transform="translate(340.612016 403.198437) scale(0.1 -0.1)">
       <use xlink:href="#DejaVuSans-30"/>
       <use xlink:href="#DejaVuSans-2e" transform="translate(63.623047 0)"/>
       <use xlink:href="#DejaVuSans-31" transform="translate(95.410156 0)"/>
      </g>
     </g>
    </g>
    <g id="xtick_6">
     <g id="line2d_11">
      <path d="M 422.38728 388.6 
L 422.38728 45.6 
" clip-path="url(#pfe648999c8)" style="fill: none; stroke: #b0b0b0; stroke-opacity: 0.3; stroke-width: 0.8; stroke-linecap: square"/>
     </g>
     <g id="line2d_12">
      <g>
       <use xlink:href="#mdb70b479cc" x="422.38728" y="388.6" style="stroke: #000000; stroke-width: 0.8"/>
      </g>
     </g>
     <g id="text_6">
      <!-- 0.2 -->
      <g transform="translate(414.435718 403.198437) scale(0.1 -0.1)">
       <use xlink:href="#DejaVuSans-30"/>
       <use xlink:href="#DejaVuSans-2e" transform="translate(63.623047 0)"/>
       <use xlink:href="#DejaVuSans-32" transform="translate(95.410156 0)"/>
      </g>
     </g>
    </g>
    <g id="text_7">
     <!-- Error (degrees) -->
     <g transform="translate(231.341563 416.876562) scale(0.1 -0.1)">
      <defs>
       <path id="DejaVuSans-45" d="M 628 4666 
L 3578 4666 
L 3578 4134 
L 1259 4134 
L 1259 2753 
L 3481 2753 
L 3481 2222 
L 1259 2222 
L 1259 531 
L 3634 531 
L 3634 0 
L 628 0 
L 628 4666 
z
" transform="scale(0.015625)"/>
       <path id="DejaVuSans-72" d="M 2631 2963 
Q 2534 3019 2420 3045 
Q 2306 3072 2169 3072 
Q 1681 3072 1420 2755 
Q 1159 2438 1159 1844 
L 1159 0 
L 581 0 
L 581 3500 
L 1159 3500 
L 1159 2956 
Q 1341 3275 1631 3429 
Q 1922 3584 2338 3584 
Q 2397 3584 2469 3576 
Q 2541 3569 2628 3553 
L 2631 2963 
z
" transform="scale(0.015625)"/>
       <path id="DejaVuSans-6f" d="M 1959 3097 
Q 1497 3097 1228 2736 
Q 959 2375 959 1747 
Q 959 1119 1226 758 
Q 1494 397 1959 397 
Q 2419 397 2687 759 
Q 2956 1122 2956 1747 
Q 2956 2369 2687 2733 
Q 2419 3097 1959 3097 
z
M 1959 3584 
Q 2709 3584 3137 3096 
Q 3566 2609 3566 1747 
Q 3566 888 3137 398 
Q 2709 -91 1959 -91 
Q 1206 -91 779 398 
Q 353 888 353 1747 
Q 353 2609 779 3096 
Q 1206 3584 1959 3584 
z
" transform="scale(0.015625)"/>
       <path id="DejaVuSans-20" transform="scale(0.015625)"/>
       <path id="DejaVuSans-28" d="M 1984 4856 
Q 1566 4138 1362 3434 
Q 1159 2731 1159 2009 
Q 1159 1288 1364 580 
Q 1569 -128 1984 -844 
L 1484 -844 
Q 1016 -109 783 600 
Q 550 1309 550 2009 
Q 550 2706 781 3412 
Q 1013 4119 1484 4856 
L 1984 4856 
z
" transform="scale(0.015625)"/>
       <path id="DejaVuSans-64" d="M 2906 2969 
L 2906 4863 
L 3481 4863 
L 3481 0 
L 2906 0 
L 2906 525 
Q 2725 213 2448 61 
Q 2172 -91 1784 -91 
Q 1150 -91 751 415 
Q 353 922 353 1747 
Q 353 2572 751 3078 
Q 1150 3584 1784 3584 
Q 2172 3584 2448 3432 
Q 2725 3281 2906 2969 
z
M 947 1747 
Q 947 1113 1208 752 
Q 1469 391 1925 391 
Q 2381 391 2643 752 
Q 2906 1113 2906 1747 
Q 2906 2381 2643 2742 
Q 2381 3103 1925 3103 
Q 1469 3103 1208 2742 
Q 947 2381 947 1747 
z
" transform="scale(0.015625)"/>
       <path id="DejaVuSans-65" d="M 3597 1894 
L 3597 1613 
L 953 1613 
Q 991 1019 1311 708 
Q 1631 397 2203 397 
Q 2534 397 2845 478 
Q 3156 559 3463 722 
L 3463 178 
Q 3153 47 2828 -22 
Q 2503 -91 2169 -91 
Q 1331 -91 842 396 
Q 353 884 353 1716 
Q 353 2575 817 3079 
Q 1281 3584 2069 3584 
Q 2775 3584 3186 3129 
Q 3597 2675 3597 1894 
z
M 3022 2063 
Q 3016 2534 2758 2815 
Q 2500 3097 2075 3097 
Q 1594 3097 1305 2825 
Q 1016 2553 972 2059 
L 3022 2063 
z
" transform="scale(0.015625)"/>
       <path id="DejaVuSans-67" d="M 2906 1791 
Q 2906 2416 2648 2759 
Q 2391 3103 1925 3103 
Q 1463 3103 1205 2759 
Q 947 2416 947 1791 
Q 947 1169 1205 825 
Q 1463 481 1925 481 
Q 2391 481 2648 825 
Q 2906 1169 2906 1791 
z
M 3481 434 
Q 3481 -459 3084 -895 
Q 2688 -1331 1869 -1331 
Q 1566 -1331 1297 -1286 
Q 1028 -1241 775 -1147 
L 775 -588 
Q 1028 -725 1275 -790 
Q 1522 -856 1778 -856 
Q 2344 -856 2625 -561 
Q 2906 -266 2906 331 
L 2906 616 
Q 2728 306 2450 153 
Q 2172 0 1784 0 
Q 1141 0 747 490 
Q 353 981 353 1791 
Q 353 2603 747 3093 
Q 1141 3584 1784 3584 
Q 2172 3584 2450 3431 
Q 2728 3278 2906 2969 
L 2906 3500 
L 3481 3500 
L 3481 434 
z
" transform="scale(0.015625)"/>
       <path id="DejaVuSans-73" d="M 2834 3397 
L 2834 2853 
Q 2591 2978 2328 3040 
Q 2066 3103 1784 3103 
Q 1356 3103 1142 2972 
Q 928 2841 928 2578 
Q 928 2378 1081 2264 
Q 1234 2150 1697 2047 
L 1894 2003 
Q 2506 1872 2764 1633 
Q 3022 1394 3022 966 
Q 3022 478 2636 193 
Q 2250 -91 1575 -91 
Q 1294 -91 989 -36 
Q 684 19 347 128 
L 347 722 
Q 666 556 975 473 
Q 1284 391 1588 391 
Q 1994 391 2212 530 
Q 2431 669 2431 922 
Q 2431 1156 2273 1281 
Q 2116 1406 1581 1522 
L 1381 1569 
Q 847 1681 609 1914 
Q 372 2147 372 2553 
Q 372 3047 722 3315 
Q 1072 3584 1716 3584 
Q 2034 3584 2315 3537 
Q 2597 3491 2834 3397 
z
" transform="scale(0.015625)"/>
       <path id="DejaVuSans-29" d="M 513 4856 
L 1013 4856 
Q 1481 4119 1714 3412 
Q 1947 2706 1947 2009 
Q 1947 1309 1714 600 
Q 1481 -109 1013 -844 
L 513 -844 
Q 928 -128 1133 580 
Q 1338 1288 1338 2009 
Q 1338 2731 1133 3434 
Q 928 4138 513 4856 
z
" transform="scale(0.015625)"/>
      </defs>
      <use xlink:href="#DejaVuSans-45"/>
      <use xlink:href="#DejaVuSans-72" transform="translate(63.183594 0)"/>
      <use xlink:href="#DejaVuSans-72" transform="translate(102.546875 0)"/>
      <use xlink:href="#DejaVuSans-6f" transform="translate(141.410156 0)"/>
      <use xlink:href="#DejaVuSans-72" transform="translate(202.591797 0)"/>
      <use xlink:href="#DejaVuSans-20" transform="translate(243.705078 0)"/>
      <use xlink:href="#DejaVuSans-28" transform="translate(275.492188 0)"/>
      <use xlink:href="#DejaVuSans-64" transform="translate(314.505859 0)"/>
      <use xlink:href="#DejaVuSans-65" transform="translate(377.982422 0)"/>
      <use xlink:href="#DejaVuSans-67" transform="translate(439.505859 0)"/>
      <use xlink:href="#DejaVuSans-72" transform="translate(502.982422 0)"/>
      <use xlink:href="#DejaVuSans-65" transform="translate(541.845703 0)"/>
      <use xlink:href="#DejaVuSans-65" transform="translate(603.369141 0)"/>
      <use xlink:href="#DejaVuSans-73" transform="translate(664.892578 0)"/>
      <use xlink:href="#DejaVuSans-29" transform="translate(716.992188 0)"/>
     </g>
    </g>
   </g>
   <g id="matplotlib.axis_2">
    <g id="ytick_1">
     <g id="line2d_13">
      <path d="M 46.965625 388.6 
L 491.320625 388.6 
" clip-path="url(#pfe648999c8)" style="fill: none; stroke: #b0b0b0; stroke-opacity: 0.3; stroke-width: 0.8; stroke-linecap: square"/>
     </g>
     <g id="line2d_14">
      <defs>
       <path id="m395b29a28f" d="M 0 0 
L -3.5 0 
" style="stroke: #000000; stroke-width: 0.8"/>
      </defs>
      <g>
       <use xlink:href="#m395b29a28f" x="46.965625" y="388.6" style="stroke: #000000; stroke-width: 0.8"/>
      </g>
     </g>
     <g id="text_8">
      <!-- 0 -->
      <g transform="translate(33.603125 392.399219) scale(0.1 -0.1)">
       <use xlink:href="#DejaVuSans-30"/>
      </g>
     </g>
    </g>
    <g id="ytick_2">
     <g id="line2d_15">
      <path d="M 46.965625 344.455856 
L 491.320625 344.455856 
" clip-path="url(#pfe648999c8)" style="fill: none; stroke: #b0b0b0; stroke-opacity: 0.3; stroke-width: 0.8; stroke-linecap: square"/>
     </g>
     <g id="line2d_16">
      <g>
       <use xlink:href="#m395b29a28f" x="46.965625" y="344.455856" style="stroke: #000000; stroke-width: 0.8"/>
      </g>
     </g>
     <g id="text_9">
      <!-- 100 -->
      <g transform="translate(20.878125 348.255075) scale(0.1 -0.1)">
       <use xlink:href="#DejaVuSans-31"/>
       <use xlink:href="#DejaVuSans-30" transform="translate(63.623047 0)"/>
       <use xlink:href="#DejaVuSans-30" transform="translate(127.246094 0)"/>
      </g>
     </g>
    </g>
    <g id="ytick_3">
     <g id="line2d_17">
      <path d="M 46.965625 300.311712 
L 491.320625 300.311712 
" clip-path="url(#pfe648999c8)" style="fill: none; stroke: #b0b0b0; stroke-opacity: 0.3; stroke-width: 0.8; stroke-linecap: square"/>
     </g>
     <g id="line2d_18">
      <g>
       <use xlink:href="#m395b29a28f" x="46.965625" y="300.311712" style="stroke: #000000; stroke-width: 0.8"/>
      </g>
     </g>
     <g id="text_10">
      <!-- 200 -->
      <g transform="translate(20.878125 304.11093) scale(0.1 -0.1)">
       <use xlink:href="#DejaVuSans-32"/>
       <use xlink:href="#DejaVuSans-30" transform="translate(63.623047 0)"/>
       <use xlink:href="#DejaVuSans-30" transform="translate(127.246094 0)"/>
      </g>
     </g>
    </g>
    <g id="ytick_4">
     <g id="line2d_19">
      <path d="M 46.965625 256.167568 
L 491.320625 256.167568 
" clip-path="url(#pfe648999c8)" style="fill: none; stroke: #b0b0b0; stroke-opacity: 0.3; stroke-width: 0.8; stroke-linecap: square"/>
     </g>
     <g id="line2d_20">
      <g>
       <use xlink:href="#m395b29a28f" x="46.965625" y="256.167568" style="stroke: #000000; stroke-width: 0.8"/>
      </g>
     </g>
     <g id="text_11">
      <!-- 300 -->
      <g transform="translate(20.878125 259.966786) scale(0.1 -0.1)">
       <use xlink:href="#DejaVuSans-33"/>
       <use xlink:href="#DejaVuSans-30" transform="translate(63.623047 0)"/>
       <use xlink:href="#DejaVuSans-30" transform="translate(127.246094 0)"/>
      </g>
     </g>
    </g>
    <g id="ytick_5">
     <g id="line2d_21">
      <path d="M 46.965625 212.023423 
L 491.320625 212.023423 
" clip-path="url(#pfe648999c8)" style="fill: none; stroke: #b0b0b0; stroke-opacity: 0.3; stroke-width: 0.8; stroke-linecap: square"/>
     </g>
     <g id="line2d_22">
      <g>
       <use xlink:href="#m395b29a28f" x="46.965625" y="212.023423" style="stroke: #000000; stroke-width: 0.8"/>
      </g>
     </g>
     <g id="text_12">
      <!-- 400 -->
      <g transform="translate(20.878125 215.822642) scale(0.1 -0.1)">
       <defs>
        <path id="DejaVuSans-34" d="M 2419 4116 
L 825 1625 
L 2419 1625 
L 2419 4116 
z
M 2253 4666 
L 3047 4666 
L 3047 1625 
L 3713 1625 
L 3713 1100 
L 3047 1100 
L 3047 0 
L 2419 0 
L 2419 1100 
L 313 1100 
L 313 1709 
L 2253 4666 
z
" transform="scale(0.015625)"/>
       </defs>
       <use xlink:href="#DejaVuSans-34"/>
       <use xlink:href="#DejaVuSans-30" transform="translate(63.623047 0)"/>
       <use xlink:href="#DejaVuSans-30" transform="translate(127.246094 0)"/>
      </g>
     </g>
    </g>
    <g id="ytick_6">
     <g id="line2d_23">
      <path d="M 46.965625 167.879279 
L 491.320625 167.879279 
" clip-path="url(#pfe648999c8)" style="fill: none; stroke: #b0b0b0; stroke-opacity: 0.3; stroke-width: 0.8; stroke-linecap: square"/>
     </g>
     <g id="line2d_24">
      <g>
       <use xlink:href="#m395b29a28f" x="46.965625" y="167.879279" style="stroke: #000000; stroke-width: 0.8"/>
      </g>
     </g>
     <g id="text_13">
      <!-- 500 -->
      <g transform="translate(20.878125 171.678498) scale(0.1 -0.1)">
       <defs>
        <path id="DejaVuSans-35" d="M 691 4666 
L 3169 4666 
L 3169 4134 
L 1269 4134 
L 1269 2991 
Q 1406 3038 1543 3061 
Q 1681 3084 1819 3084 
Q 2600 3084 3056 2656 
Q 3513 2228 3513 1497 
Q 3513 744 3044 326 
Q 2575 -91 1722 -91 
Q 1428 -91 1123 -41 
Q 819 9 494 109 
L 494 744 
Q 775 591 1075 516 
Q 1375 441 1709 441 
Q 2250 441 2565 725 
Q 2881 1009 2881 1497 
Q 2881 1984 2565 2268 
Q 2250 2553 1709 2553 
Q 1456 2553 1204 2497 
Q 953 2441 691 2322 
L 691 4666 
z
" transform="scale(0.015625)"/>
       </defs>
       <use xlink:href="#DejaVuSans-35"/>
       <use xlink:href="#DejaVuSans-30" transform="translate(63.623047 0)"/>
       <use xlink:href="#DejaVuSans-30" transform="translate(127.246094 0)"/>
      </g>
     </g>
    </g>
    <g id="ytick_7">
     <g id="line2d_25">
      <path d="M 46.965625 123.735135 
L 491.320625 123.735135 
" clip-path="url(#pfe648999c8)" style="fill: none; stroke: #b0b0b0; stroke-opacity: 0.3; stroke-width: 0.8; stroke-linecap: square"/>
     </g>
     <g id="line2d_26">
      <g>
       <use xlink:href="#m395b29a28f" x="46.965625" y="123.735135" style="stroke: #000000; stroke-width: 0.8"/>
      </g>
     </g>
     <g id="text_14">
      <!-- 600 -->
      <g transform="translate(20.878125 127.534354) scale(0.1 -0.1)">
       <defs>
        <path id="DejaVuSans-36" d="M 2113 2584 
Q 1688 2584 1439 2293 
Q 1191 2003 1191 1497 
Q 1191 994 1439 701 
Q 1688 409 2113 409 
Q 2538 409 2786 701 
Q 3034 994 3034 1497 
Q 3034 2003 2786 2293 
Q 2538 2584 2113 2584 
z
M 3366 4563 
L 3366 3988 
Q 3128 4100 2886 4159 
Q 2644 4219 2406 4219 
Q 1781 4219 1451 3797 
Q 1122 3375 1075 2522 
Q 1259 2794 1537 2939 
Q 1816 3084 2150 3084 
Q 2853 3084 3261 2657 
Q 3669 2231 3669 1497 
Q 3669 778 3244 343 
Q 2819 -91 2113 -91 
Q 1303 -91 875 529 
Q 447 1150 447 2328 
Q 447 3434 972 4092 
Q 1497 4750 2381 4750 
Q 2619 4750 2861 4703 
Q 3103 4656 3366 4563 
z
" transform="scale(0.015625)"/>
       </defs>
       <use xlink:href="#DejaVuSans-36"/>
       <use xlink:href="#DejaVuSans-30" transform="translate(63.623047 0)"/>
       <use xlink:href="#DejaVuSans-30" transform="translate(127.246094 0)"/>
      </g>
     </g>
    </g>
    <g id="ytick_8">
     <g id="line2d_27">
      <path d="M 46.965625 79.590991 
L 491.320625 79.590991 
" clip-path="url(#pfe648999c8)" style="fill: none; stroke: #b0b0b0; stroke-opacity: 0.3; stroke-width: 0.8; stroke-linecap: square"/>
     </g>
     <g id="line2d_28">
      <g>
       <use xlink:href="#m395b29a28f" x="46.965625" y="79.590991" style="stroke: #000000; stroke-width: 0.8"/>
      </g>
     </g>
     <g id="text_15">
      <!-- 700 -->
      <g transform="translate(20.878125 83.39021) scale(0.1 -0.1)">
       <defs>
        <path id="DejaVuSans-37" d="M 525 4666 
L 3525 4666 
L 3525 4397 
L 1831 0 
L 1172 0 
L 2766 4134 
L 525 4134 
L 525 4666 
z
" transform="scale(0.015625)"/>
       </defs>
       <use xlink:href="#DejaVuSans-37"/>
       <use xlink:href="#DejaVuSans-30" transform="translate(63.623047 0)"/>
       <use xlink:href="#DejaVuSans-30" transform="translate(127.246094 0)"/>
      </g>
     </g>
    </g>
    <g id="text_16">
     <!-- Frequency -->
     <g transform="translate(14.798437 242.929687) rotate(-90) scale(0.1 -0.1)">
      <defs>
       <path id="DejaVuSans-46" d="M 628 4666 
L 3309 4666 
L 3309 4134 
L 1259 4134 
L 1259 2759 
L 3109 2759 
L 3109 2228 
L 1259 2228 
L 1259 0 
L 628 0 
L 628 4666 
z
" transform="scale(0.015625)"/>
       <path id="DejaVuSans-71" d="M 947 1747 
Q 947 1113 1208 752 
Q 1469 391 1925 391 
Q 2381 391 2643 752 
Q 2906 1113 2906 1747 
Q 2906 2381 2643 2742 
Q 2381 3103 1925 3103 
Q 1469 3103 1208 2742 
Q 947 2381 947 1747 
z
M 2906 525 
Q 2725 213 2448 61 
Q 2172 -91 1784 -91 
Q 1150 -91 751 415 
Q 353 922 353 1747 
Q 353 2572 751 3078 
Q 1150 3584 1784 3584 
Q 2172 3584 2448 3432 
Q 2725 3281 2906 2969 
L 2906 3500 
L 3481 3500 
L 3481 -1331 
L 2906 -1331 
L 2906 525 
z
" transform="scale(0.015625)"/>
       <path id="DejaVuSans-75" d="M 544 1381 
L 544 3500 
L 1119 3500 
L 1119 1403 
Q 1119 906 1312 657 
Q 1506 409 1894 409 
Q 2359 409 2629 706 
Q 2900 1003 2900 1516 
L 2900 3500 
L 3475 3500 
L 3475 0 
L 2900 0 
L 2900 538 
Q 2691 219 2414 64 
Q 2138 -91 1772 -91 
Q 1169 -91 856 284 
Q 544 659 544 1381 
z
M 1991 3584 
L 1991 3584 
z
" transform="scale(0.015625)"/>
       <path id="DejaVuSans-6e" d="M 3513 2113 
L 3513 0 
L 2938 0 
L 2938 2094 
Q 2938 2591 2744 2837 
Q 2550 3084 2163 3084 
Q 1697 3084 1428 2787 
Q 1159 2491 1159 1978 
L 1159 0 
L 581 0 
L 581 3500 
L 1159 3500 
L 1159 2956 
Q 1366 3272 1645 3428 
Q 1925 3584 2291 3584 
Q 2894 3584 3203 3211 
Q 3513 2838 3513 2113 
z
" transform="scale(0.015625)"/>
       <path id="DejaVuSans-63" d="M 3122 3366 
L 3122 2828 
Q 2878 2963 2633 3030 
Q 2388 3097 2138 3097 
Q 1578 3097 1268 2742 
Q 959 2388 959 1747 
Q 959 1106 1268 751 
Q 1578 397 2138 397 
Q 2388 397 2633 464 
Q 2878 531 3122 666 
L 3122 134 
Q 2881 22 2623 -34 
Q 2366 -91 2075 -91 
Q 1284 -91 818 406 
Q 353 903 353 1747 
Q 353 2603 823 3093 
Q 1294 3584 2113 3584 
Q 2378 3584 2631 3529 
Q 2884 3475 3122 3366 
z
" transform="scale(0.015625)"/>
       <path id="DejaVuSans-79" d="M 2059 -325 
Q 1816 -950 1584 -1140 
Q 1353 -1331 966 -1331 
L 506 -1331 
L 506 -850 
L 844 -850 
Q 1081 -850 1212 -737 
Q 1344 -625 1503 -206 
L 1606 56 
L 191 3500 
L 800 3500 
L 1894 763 
L 2988 3500 
L 3597 3500 
L 2059 -325 
z
" transform="scale(0.015625)"/>
      </defs>
      <use xlink:href="#DejaVuSans-46"/>
      <use xlink:href="#DejaVuSans-72" transform="translate(50.269531 0)"/>
      <use xlink:href="#DejaVuSans-65" transform="translate(89.132812 0)"/>
      <use xlink:href="#DejaVuSans-71" transform="translate(150.65625 0)"/>
      <use xlink:href="#DejaVuSans-75" transform="translate(214.132812 0)"/>
      <use xlink:href="#DejaVuSans-65" transform="translate(277.511719 0)"/>
      <use xlink:href="#DejaVuSans-6e" transform="translate(339.035156 0)"/>
      <use xlink:href="#DejaVuSans-63" transform="translate(402.414062 0)"/>
      <use xlink:href="#DejaVuSans-79" transform="translate(457.394531 0)"/>
     </g>
    </g>
   </g>
   <g id="line2d_29">
    <path d="M 274.739876 388.6 
L 274.739876 45.6 
" clip-path="url(#pfe648999c8)" style="fill: none; stroke-dasharray: 7.4,3.2; stroke-dashoffset: 0; stroke: #ff0000; stroke-width: 2"/>
   </g>
   <g id="line2d_30">
    <path d="M 276.073414 388.6 
L 276.073414 45.6 
" clip-path="url(#pfe648999c8)" style="fill: none; stroke-dasharray: 7.4,3.2; stroke-dashoffset: 0; stroke: #ffa500; stroke-width: 2"/>
   </g>
   <g id="patch_67">
    <path d="M 46.965625 388.6 
L 46.965625 45.6 
" style="fill: none; stroke: #000000; stroke-width: 0.8; stroke-linejoin: miter; stroke-linecap: square"/>
   </g>
   <g id="patch_68">
    <path d="M 491.320625 388.6 
L 491.320625 45.6 
" style="fill: none; stroke: #000000; stroke-width: 0.8; stroke-linejoin: miter; stroke-linecap: square"/>
   </g>
   <g id="patch_69">
    <path d="M 46.965625 388.6 
L 491.320625 388.6 
" style="fill: none; stroke: #000000; stroke-width: 0.8; stroke-linejoin: miter; stroke-linecap: square"/>
   </g>
   <g id="patch_70">
    <path d="M 46.965625 45.6 
L 491.320625 45.6 
" style="fill: none; stroke: #000000; stroke-width: 0.8; stroke-linejoin: miter; stroke-linecap: square"/>
   </g>
   <g id="text_17">
    <!-- WikiImp Error Distribution -->
    <g transform="translate(191.675625 39.6) scale(0.12 -0.12)">
     <defs>
      <path id="DejaVuSans-57" d="M 213 4666 
L 850 4666 
L 1831 722 
L 2809 4666 
L 3519 4666 
L 4500 722 
L 5478 4666 
L 6119 4666 
L 4947 0 
L 4153 0 
L 3169 4050 
L 2175 0 
L 1381 0 
L 213 4666 
z
" transform="scale(0.015625)"/>
      <path id="DejaVuSans-69" d="M 603 3500 
L 1178 3500 
L 1178 0 
L 603 0 
L 603 3500 
z
M 603 4863 
L 1178 4863 
L 1178 4134 
L 603 4134 
L 603 4863 
z
" transform="scale(0.015625)"/>
      <path id="DejaVuSans-6b" d="M 581 4863 
L 1159 4863 
L 1159 1991 
L 2875 3500 
L 3609 3500 
L 1753 1863 
L 3688 0 
L 2938 0 
L 1159 1709 
L 1159 0 
L 581 0 
L 581 4863 
z
" transform="scale(0.015625)"/>
      <path id="DejaVuSans-49" d="M 628 4666 
L 1259 4666 
L 1259 0 
L 628 0 
L 628 4666 
z
" transform="scale(0.015625)"/>
      <path id="DejaVuSans-6d" d="M 3328 2828 
Q 3544 3216 3844 3400 
Q 4144 3584 4550 3584 
Q 5097 3584 5394 3201 
Q 5691 2819 5691 2113 
L 5691 0 
L 5113 0 
L 5113 2094 
Q 5113 2597 4934 2840 
Q 4756 3084 4391 3084 
Q 3944 3084 3684 2787 
Q 3425 2491 3425 1978 
L 3425 0 
L 2847 0 
L 2847 2094 
Q 2847 2600 2669 2842 
Q 2491 3084 2119 3084 
Q 1678 3084 1418 2786 
Q 1159 2488 1159 1978 
L 1159 0 
L 581 0 
L 581 3500 
L 1159 3500 
L 1159 2956 
Q 1356 3278 1631 3431 
Q 1906 3584 2284 3584 
Q 2666 3584 2933 3390 
Q 3200 3197 3328 2828 
z
" transform="scale(0.015625)"/>
      <path id="DejaVuSans-70" d="M 1159 525 
L 1159 -1331 
L 581 -1331 
L 581 3500 
L 1159 3500 
L 1159 2969 
Q 1341 3281 1617 3432 
Q 1894 3584 2278 3584 
Q 2916 3584 3314 3078 
Q 3713 2572 3713 1747 
Q 3713 922 3314 415 
Q 2916 -91 2278 -91 
Q 1894 -91 1617 61 
Q 1341 213 1159 525 
z
M 3116 1747 
Q 3116 2381 2855 2742 
Q 2594 3103 2138 3103 
Q 1681 3103 1420 2742 
Q 1159 2381 1159 1747 
Q 1159 1113 1420 752 
Q 1681 391 2138 391 
Q 2594 391 2855 752 
Q 3116 1113 3116 1747 
z
" transform="scale(0.015625)"/>
      <path id="DejaVuSans-44" d="M 1259 4147 
L 1259 519 
L 2022 519 
Q 2988 519 3436 956 
Q 3884 1394 3884 2338 
Q 3884 3275 3436 3711 
Q 2988 4147 2022 4147 
L 1259 4147 
z
M 628 4666 
L 1925 4666 
Q 3281 4666 3915 4102 
Q 4550 3538 4550 2338 
Q 4550 1131 3912 565 
Q 3275 0 1925 0 
L 628 0 
L 628 4666 
z
" transform="scale(0.015625)"/>
      <path id="DejaVuSans-74" d="M 1172 4494 
L 1172 3500 
L 2356 3500 
L 2356 3053 
L 1172 3053 
L 1172 1153 
Q 1172 725 1289 603 
Q 1406 481 1766 481 
L 2356 481 
L 2356 0 
L 1766 0 
Q 1100 0 847 248 
Q 594 497 594 1153 
L 594 3053 
L 172 3053 
L 172 3500 
L 594 3500 
L 594 4494 
L 1172 4494 
z
" transform="scale(0.015625)"/>
      <path id="DejaVuSans-62" d="M 3116 1747 
Q 3116 2381 2855 2742 
Q 2594 3103 2138 3103 
Q 1681 3103 1420 2742 
Q 1159 2381 1159 1747 
Q 1159 1113 1420 752 
Q 1681 391 2138 391 
Q 2594 391 2855 752 
Q 3116 1113 3116 1747 
z
M 1159 2969 
Q 1341 3281 1617 3432 
Q 1894 3584 2278 3584 
Q 2916 3584 3314 3078 
Q 3713 2572 3713 1747 
Q 3713 922 3314 415 
Q 2916 -91 2278 -91 
Q 1894 -91 1617 61 
Q 1341 213 1159 525 
L 1159 0 
L 581 0 
L 581 4863 
L 1159 4863 
L 1159 2969 
z
" transform="scale(0.015625)"/>
     </defs>
     <use xlink:href="#DejaVuSans-57"/>
     <use xlink:href="#DejaVuSans-69" transform="translate(96.626953 0)"/>
     <use xlink:href="#DejaVuSans-6b" transform="translate(124.410156 0)"/>
     <use xlink:href="#DejaVuSans-69" transform="translate(182.320312 0)"/>
     <use xlink:href="#DejaVuSans-49" transform="translate(210.103516 0)"/>
     <use xlink:href="#DejaVuSans-6d" transform="translate(239.595703 0)"/>
     <use xlink:href="#DejaVuSans-70" transform="translate(337.007812 0)"/>
     <use xlink:href="#DejaVuSans-20" transform="translate(400.484375 0)"/>
     <use xlink:href="#DejaVuSans-45" transform="translate(432.271484 0)"/>
     <use xlink:href="#DejaVuSans-72" transform="translate(495.455078 0)"/>
     <use xlink:href="#DejaVuSans-72" transform="translate(534.818359 0)"/>
     <use xlink:href="#DejaVuSans-6f" transform="translate(573.681641 0)"/>
     <use xlink:href="#DejaVuSans-72" transform="translate(634.863281 0)"/>
     <use xlink:href="#DejaVuSans-20" transform="translate(675.976562 0)"/>
     <use xlink:href="#DejaVuSans-44" transform="translate(707.763672 0)"/>
     <use xlink:href="#DejaVuSans-69" transform="translate(784.765625 0)"/>
     <use xlink:href="#DejaVuSans-73" transform="translate(812.548828 0)"/>
     <use xlink:href="#DejaVuSans-74" transform="translate(864.648438 0)"/>
     <use xlink:href="#DejaVuSans-72" transform="translate(903.857422 0)"/>
     <use xlink:href="#DejaVuSans-69" transform="translate(944.970703 0)"/>
     <use xlink:href="#DejaVuSans-62" transform="translate(972.753906 0)"/>
     <use xlink:href="#DejaVuSans-75" transform="translate(1036.230469 0)"/>
     <use xlink:href="#DejaVuSans-74" transform="translate(1099.609375 0)"/>
     <use xlink:href="#DejaVuSans-69" transform="translate(1138.818359 0)"/>
     <use xlink:href="#DejaVuSans-6f" transform="translate(1166.601562 0)"/>
     <use xlink:href="#DejaVuSans-6e" transform="translate(1227.783203 0)"/>
    </g>
   </g>
   <g id="legend_1">
    <g id="patch_71">
     <path d="M 377.745625 82.95625 
L 484.320625 82.95625 
Q 486.320625 82.95625 486.320625 80.95625 
L 486.320625 52.6 
Q 486.320625 50.6 484.320625 50.6 
L 377.745625 50.6 
Q 375.745625 50.6 375.745625 52.6 
L 375.745625 80.95625 
Q 375.745625 82.95625 377.745625 82.95625 
z
" style="fill: #ffffff; opacity: 0.8; stroke: #cccccc; stroke-linejoin: miter"/>
    </g>
    <g id="line2d_31">
     <path d="M 379.745625 58.698437 
L 389.745625 58.698437 
L 399.745625 58.698437 
" style="fill: none; stroke-dasharray: 7.4,3.2; stroke-dashoffset: 0; stroke: #ff0000; stroke-width: 2"/>
    </g>
    <g id="text_18">
     <!-- Zero Error Line -->
     <g transform="translate(407.745625 62.198437) scale(0.1 -0.1)">
      <defs>
       <path id="DejaVuSans-5a" d="M 359 4666 
L 4025 4666 
L 4025 4184 
L 1075 531 
L 4097 531 
L 4097 0 
L 288 0 
L 288 481 
L 3238 4134 
L 359 4134 
L 359 4666 
z
" transform="scale(0.015625)"/>
       <path id="DejaVuSans-4c" d="M 628 4666 
L 1259 4666 
L 1259 531 
L 3531 531 
L 3531 0 
L 628 0 
L 628 4666 
z
" transform="scale(0.015625)"/>
      </defs>
      <use xlink:href="#DejaVuSans-5a"/>
      <use xlink:href="#DejaVuSans-65" transform="translate(68.505859 0)"/>
      <use xlink:href="#DejaVuSans-72" transform="translate(130.029297 0)"/>
      <use xlink:href="#DejaVuSans-6f" transform="translate(168.892578 0)"/>
      <use xlink:href="#DejaVuSans-20" transform="translate(230.074219 0)"/>
      <use xlink:href="#DejaVuSans-45" transform="translate(261.861328 0)"/>
      <use xlink:href="#DejaVuSans-72" transform="translate(325.044922 0)"/>
      <use xlink:href="#DejaVuSans-72" transform="translate(364.408203 0)"/>
      <use xlink:href="#DejaVuSans-6f" transform="translate(403.271484 0)"/>
      <use xlink:href="#DejaVuSans-72" transform="translate(464.453125 0)"/>
      <use xlink:href="#DejaVuSans-20" transform="translate(505.566406 0)"/>
      <use xlink:href="#DejaVuSans-4c" transform="translate(537.353516 0)"/>
      <use xlink:href="#DejaVuSans-69" transform="translate(593.066406 0)"/>
      <use xlink:href="#DejaVuSans-6e" transform="translate(620.849609 0)"/>
      <use xlink:href="#DejaVuSans-65" transform="translate(684.228516 0)"/>
     </g>
    </g>
    <g id="line2d_32">
     <path d="M 379.745625 73.376562 
L 389.745625 73.376562 
L 399.745625 73.376562 
" style="fill: none; stroke-dasharray: 7.4,3.2; stroke-dashoffset: 0; stroke: #ffa500; stroke-width: 2"/>
    </g>
    <g id="text_19">
     <!-- Mean: 0.0018° -->
     <g transform="translate(407.745625 76.876562) scale(0.1 -0.1)">
      <defs>
       <path id="DejaVuSans-4d" d="M 628 4666 
L 1569 4666 
L 2759 1491 
L 3956 4666 
L 4897 4666 
L 4897 0 
L 4281 0 
L 4281 4097 
L 3078 897 
L 2444 897 
L 1241 4097 
L 1241 0 
L 628 0 
L 628 4666 
z
" transform="scale(0.015625)"/>
       <path id="DejaVuSans-61" d="M 2194 1759 
Q 1497 1759 1228 1600 
Q 959 1441 959 1056 
Q 959 750 1161 570 
Q 1363 391 1709 391 
Q 2188 391 2477 730 
Q 2766 1069 2766 1631 
L 2766 1759 
L 2194 1759 
z
M 3341 1997 
L 3341 0 
L 2766 0 
L 2766 531 
Q 2569 213 2275 61 
Q 1981 -91 1556 -91 
Q 1019 -91 701 211 
Q 384 513 384 1019 
Q 384 1609 779 1909 
Q 1175 2209 1959 2209 
L 2766 2209 
L 2766 2266 
Q 2766 2663 2505 2880 
Q 2244 3097 1772 3097 
Q 1472 3097 1187 3025 
Q 903 2953 641 2809 
L 641 3341 
Q 956 3463 1253 3523 
Q 1550 3584 1831 3584 
Q 2591 3584 2966 3190 
Q 3341 2797 3341 1997 
z
" transform="scale(0.015625)"/>
       <path id="DejaVuSans-3a" d="M 750 794 
L 1409 794 
L 1409 0 
L 750 0 
L 750 794 
z
M 750 3309 
L 1409 3309 
L 1409 2516 
L 750 2516 
L 750 3309 
z
" transform="scale(0.015625)"/>
       <path id="DejaVuSans-38" d="M 2034 2216 
Q 1584 2216 1326 1975 
Q 1069 1734 1069 1313 
Q 1069 891 1326 650 
Q 1584 409 2034 409 
Q 2484 409 2743 651 
Q 3003 894 3003 1313 
Q 3003 1734 2745 1975 
Q 2488 2216 2034 2216 
z
M 1403 2484 
Q 997 2584 770 2862 
Q 544 3141 544 3541 
Q 544 4100 942 4425 
Q 1341 4750 2034 4750 
Q 2731 4750 3128 4425 
Q 3525 4100 3525 3541 
Q 3525 3141 3298 2862 
Q 3072 2584 2669 2484 
Q 3125 2378 3379 2068 
Q 3634 1759 3634 1313 
Q 3634 634 3220 271 
Q 2806 -91 2034 -91 
Q 1263 -91 848 271 
Q 434 634 434 1313 
Q 434 1759 690 2068 
Q 947 2378 1403 2484 
z
M 1172 3481 
Q 1172 3119 1398 2916 
Q 1625 2713 2034 2713 
Q 2441 2713 2670 2916 
Q 2900 3119 2900 3481 
Q 2900 3844 2670 4047 
Q 2441 4250 2034 4250 
Q 1625 4250 1398 4047 
Q 1172 3844 1172 3481 
z
" transform="scale(0.015625)"/>
       <path id="DejaVuSans-b0" d="M 1600 4347 
Q 1350 4347 1178 4173 
Q 1006 4000 1006 3750 
Q 1006 3503 1178 3333 
Q 1350 3163 1600 3163 
Q 1850 3163 2022 3333 
Q 2194 3503 2194 3750 
Q 2194 3997 2020 4172 
Q 1847 4347 1600 4347 
z
M 1600 4750 
Q 1800 4750 1984 4673 
Q 2169 4597 2303 4453 
Q 2447 4313 2519 4134 
Q 2591 3956 2591 3750 
Q 2591 3338 2302 3052 
Q 2013 2766 1594 2766 
Q 1172 2766 890 3047 
Q 609 3328 609 3750 
Q 609 4169 896 4459 
Q 1184 4750 1600 4750 
z
" transform="scale(0.015625)"/>
      </defs>
      <use xlink:href="#DejaVuSans-4d"/>
      <use xlink:href="#DejaVuSans-65" transform="translate(86.279297 0)"/>
      <use xlink:href="#DejaVuSans-61" transform="translate(147.802734 0)"/>
      <use xlink:href="#DejaVuSans-6e" transform="translate(209.082031 0)"/>
      <use xlink:href="#DejaVuSans-3a" transform="translate(272.460938 0)"/>
      <use xlink:href="#DejaVuSans-20" transform="translate(306.152344 0)"/>
      <use xlink:href="#DejaVuSans-30" transform="translate(337.939453 0)"/>
      <use xlink:href="#DejaVuSans-2e" transform="translate(401.5625 0)"/>
      <use xlink:href="#DejaVuSans-30" transform="translate(433.349609 0)"/>
      <use xlink:href="#DejaVuSans-30" transform="translate(496.972656 0)"/>
      <use xlink:href="#DejaVuSans-31" transform="translate(560.595703 0)"/>
      <use xlink:href="#DejaVuSans-38" transform="translate(624.21875 0)"/>
      <use xlink:href="#DejaVuSans-b0" transform="translate(687.841797 0)"/>
     </g>
    </g>
   </g>
  </g>
  <g id="axes_2">
   <g id="patch_72">
    <path d="M 548.760625 388.6 
L 993.115625 388.6 
L 993.115625 45.6 
L 548.760625 45.6 
z
" style="fill: #ffffff"/>
   </g>
   <g id="patch_73">
    <path d="M 568.95858 388.6 
L 577.740299 388.6 
L 577.740299 102.24027 
L 568.95858 102.24027 
z
" clip-path="url(#p213af0444c)" style="fill: #90ee90; opacity: 0.7; stroke: #000000; stroke-linejoin: miter"/>
   </g>
   <g id="patch_74">
    <path d="M 577.740299 388.6 
L 586.522018 388.6 
L 586.522018 126.304113 
L 577.740299 126.304113 
z
" clip-path="url(#p213af0444c)" style="fill: #90ee90; opacity: 0.7; stroke: #000000; stroke-linejoin: miter"/>
   </g>
   <g id="patch_75">
    <path d="M 586.522018 388.6 
L 595.303738 388.6 
L 595.303738 96.224309 
L 586.522018 96.224309 
z
" clip-path="url(#p213af0444c)" style="fill: #90ee90; opacity: 0.7; stroke: #000000; stroke-linejoin: miter"/>
   </g>
   <g id="patch_76">
    <path d="M 595.303738 388.6 
L 604.085457 388.6 
L 604.085457 88.40356 
L 595.303738 88.40356 
z
" clip-path="url(#p213af0444c)" style="fill: #90ee90; opacity: 0.7; stroke: #000000; stroke-linejoin: miter"/>
   </g>
   <g id="patch_77">
    <path d="M 604.085457 388.6 
L 612.867176 388.6 
L 612.867176 110.963413 
L 604.085457 110.963413 
z
" clip-path="url(#p213af0444c)" style="fill: #90ee90; opacity: 0.7; stroke: #000000; stroke-linejoin: miter"/>
   </g>
   <g id="patch_78">
    <path d="M 612.867176 388.6 
L 621.648896 388.6 
L 621.648896 61.933333 
L 612.867176 61.933333 
z
" clip-path="url(#p213af0444c)" style="fill: #90ee90; opacity: 0.7; stroke: #000000; stroke-linejoin: miter"/>
   </g>
   <g id="patch_79">
    <path d="M 621.648896 388.6 
L 630.430615 388.6 
L 630.430615 132.92167 
L 621.648896 132.92167 
z
" clip-path="url(#p213af0444c)" style="fill: #90ee90; opacity: 0.7; stroke: #000000; stroke-linejoin: miter"/>
   </g>
   <g id="patch_80">
    <path d="M 630.430615 388.6 
L 639.212334 388.6 
L 639.212334 178.041375 
L 630.430615 178.041375 
z
" clip-path="url(#p213af0444c)" style="fill: #90ee90; opacity: 0.7; stroke: #000000; stroke-linejoin: miter"/>
   </g>
   <g id="patch_81">
    <path d="M 639.212334 388.6 
L 647.994054 388.6 
L 647.994054 230.681031 
L 639.212334 230.681031 
z
" clip-path="url(#p213af0444c)" style="fill: #90ee90; opacity: 0.7; stroke: #000000; stroke-linejoin: miter"/>
   </g>
   <g id="patch_82">
    <path d="M 647.994054 388.6 
L 656.775773 388.6 
L 656.775773 212.031553 
L 647.994054 212.031553 
z
" clip-path="url(#p213af0444c)" style="fill: #90ee90; opacity: 0.7; stroke: #000000; stroke-linejoin: miter"/>
   </g>
   <g id="patch_83">
    <path d="M 656.775773 388.6 
L 665.557493 388.6 
L 665.557493 221.957888 
L 656.775773 221.957888 
z
" clip-path="url(#p213af0444c)" style="fill: #90ee90; opacity: 0.7; stroke: #000000; stroke-linejoin: miter"/>
   </g>
   <g id="patch_84">
    <path d="M 665.557493 388.6 
L 674.339212 388.6 
L 674.339212 222.860282 
L 665.557493 222.860282 
z
" clip-path="url(#p213af0444c)" style="fill: #90ee90; opacity: 0.7; stroke: #000000; stroke-linejoin: miter"/>
   </g>
   <g id="patch_85">
    <path d="M 674.339212 388.6 
L 683.120931 388.6 
L 683.120931 236.99779 
L 674.339212 236.99779 
z
" clip-path="url(#p213af0444c)" style="fill: #90ee90; opacity: 0.7; stroke: #000000; stroke-linejoin: miter"/>
   </g>
   <g id="patch_86">
    <path d="M 683.120931 388.6 
L 691.902651 388.6 
L 691.902651 252.33849 
L 683.120931 252.33849 
z
" clip-path="url(#p213af0444c)" style="fill: #90ee90; opacity: 0.7; stroke: #000000; stroke-linejoin: miter"/>
   </g>
   <g id="patch_87">
    <path d="M 691.902651 388.6 
L 700.68437 388.6 
L 700.68437 258.053653 
L 691.902651 258.053653 
z
" clip-path="url(#p213af0444c)" style="fill: #90ee90; opacity: 0.7; stroke: #000000; stroke-linejoin: miter"/>
   </g>
   <g id="patch_88">
    <path d="M 700.68437 388.6 
L 709.466089 388.6 
L 709.466089 265.272805 
L 700.68437 265.272805 
z
" clip-path="url(#p213af0444c)" style="fill: #90ee90; opacity: 0.7; stroke: #000000; stroke-linejoin: miter"/>
   </g>
   <g id="patch_89">
    <path d="M 709.466089 388.6 
L 718.247809 388.6 
L 718.247809 281.215101 
L 709.466089 281.215101 
z
" clip-path="url(#p213af0444c)" style="fill: #90ee90; opacity: 0.7; stroke: #000000; stroke-linejoin: miter"/>
   </g>
   <g id="patch_90">
    <path d="M 718.247809 388.6 
L 727.029528 388.6 
L 727.029528 288.434254 
L 718.247809 288.434254 
z
" clip-path="url(#p213af0444c)" style="fill: #90ee90; opacity: 0.7; stroke: #000000; stroke-linejoin: miter"/>
   </g>
   <g id="patch_91">
    <path d="M 727.029528 388.6 
L 735.811248 388.6 
L 735.811248 264.972007 
L 727.029528 264.972007 
z
" clip-path="url(#p213af0444c)" style="fill: #90ee90; opacity: 0.7; stroke: #000000; stroke-linejoin: miter"/>
   </g>
   <g id="patch_92">
    <path d="M 735.811248 388.6 
L 744.592967 388.6 
L 744.592967 296.856599 
L 735.811248 296.856599 
z
" clip-path="url(#p213af0444c)" style="fill: #90ee90; opacity: 0.7; stroke: #000000; stroke-linejoin: miter"/>
   </g>
   <g id="patch_93">
    <path d="M 744.592967 388.6 
L 753.374686 388.6 
L 753.374686 318.514058 
L 744.592967 318.514058 
z
" clip-path="url(#p213af0444c)" style="fill: #90ee90; opacity: 0.7; stroke: #000000; stroke-linejoin: miter"/>
   </g>
   <g id="patch_94">
    <path d="M 753.374686 388.6 
L 762.156406 388.6 
L 762.156406 308.587723 
L 753.374686 308.587723 
z
" clip-path="url(#p213af0444c)" style="fill: #90ee90; opacity: 0.7; stroke: #000000; stroke-linejoin: miter"/>
   </g>
   <g id="patch_95">
    <path d="M 762.156406 388.6 
L 770.938125 388.6 
L 770.938125 334.155556 
L 762.156406 334.155556 
z
" clip-path="url(#p213af0444c)" style="fill: #90ee90; opacity: 0.7; stroke: #000000; stroke-linejoin: miter"/>
   </g>
   <g id="patch_96">
    <path d="M 770.938125 388.6 
L 779.719844 388.6 
L 779.719844 335.659546 
L 770.938125 335.659546 
z
" clip-path="url(#p213af0444c)" style="fill: #90ee90; opacity: 0.7; stroke: #000000; stroke-linejoin: miter"/>
   </g>
   <g id="patch_97">
    <path d="M 779.719844 388.6 
L 788.501564 388.6 
L 788.501564 335.05795 
L 779.719844 335.05795 
z
" clip-path="url(#p213af0444c)" style="fill: #90ee90; opacity: 0.7; stroke: #000000; stroke-linejoin: miter"/>
   </g>
   <g id="patch_98">
    <path d="M 788.501564 388.6 
L 797.283283 388.6 
L 797.283283 315.806875 
L 788.501564 315.806875 
z
" clip-path="url(#p213af0444c)" style="fill: #90ee90; opacity: 0.7; stroke: #000000; stroke-linejoin: miter"/>
   </g>
   <g id="patch_99">
    <path d="M 797.283283 388.6 
L 806.065002 388.6 
L 806.065002 321.822836 
L 797.283283 321.822836 
z
" clip-path="url(#p213af0444c)" style="fill: #90ee90; opacity: 0.7; stroke: #000000; stroke-linejoin: miter"/>
   </g>
   <g id="patch_100">
    <path d="M 806.065002 388.6 
L 814.846722 388.6 
L 814.846722 333.253161 
L 806.065002 333.253161 
z
" clip-path="url(#p213af0444c)" style="fill: #90ee90; opacity: 0.7; stroke: #000000; stroke-linejoin: miter"/>
   </g>
   <g id="patch_101">
    <path d="M 814.846722 388.6 
L 823.628441 388.6 
L 823.628441 355.512216 
L 814.846722 355.512216 
z
" clip-path="url(#p213af0444c)" style="fill: #90ee90; opacity: 0.7; stroke: #000000; stroke-linejoin: miter"/>
   </g>
   <g id="patch_102">
    <path d="M 823.628441 388.6 
L 832.410161 388.6 
L 832.410161 362.129773 
L 823.628441 362.129773 
z
" clip-path="url(#p213af0444c)" style="fill: #90ee90; opacity: 0.7; stroke: #000000; stroke-linejoin: miter"/>
   </g>
   <g id="patch_103">
    <path d="M 832.410161 388.6 
L 841.19188 388.6 
L 841.19188 365.739349 
L 832.410161 365.739349 
z
" clip-path="url(#p213af0444c)" style="fill: #90ee90; opacity: 0.7; stroke: #000000; stroke-linejoin: miter"/>
   </g>
   <g id="patch_104">
    <path d="M 841.19188 388.6 
L 849.973599 388.6 
L 849.973599 364.235359 
L 841.19188 364.235359 
z
" clip-path="url(#p213af0444c)" style="fill: #90ee90; opacity: 0.7; stroke: #000000; stroke-linejoin: miter"/>
   </g>
   <g id="patch_105">
    <path d="M 849.973599 388.6 
L 858.755319 388.6 
L 858.755319 366.641743 
L 849.973599 366.641743 
z
" clip-path="url(#p213af0444c)" style="fill: #90ee90; opacity: 0.7; stroke: #000000; stroke-linejoin: miter"/>
   </g>
   <g id="patch_106">
    <path d="M 858.755319 388.6 
L 867.537038 388.6 
L 867.537038 369.649724 
L 858.755319 369.649724 
z
" clip-path="url(#p213af0444c)" style="fill: #90ee90; opacity: 0.7; stroke: #000000; stroke-linejoin: miter"/>
   </g>
   <g id="patch_107">
    <path d="M 867.537038 388.6 
L 876.318757 388.6 
L 876.318757 372.657704 
L 867.537038 372.657704 
z
" clip-path="url(#p213af0444c)" style="fill: #90ee90; opacity: 0.7; stroke: #000000; stroke-linejoin: miter"/>
   </g>
   <g id="patch_108">
    <path d="M 876.318757 388.6 
L 885.100477 388.6 
L 885.100477 368.145734 
L 876.318757 368.145734 
z
" clip-path="url(#p213af0444c)" style="fill: #90ee90; opacity: 0.7; stroke: #000000; stroke-linejoin: miter"/>
   </g>
   <g id="patch_109">
    <path d="M 885.100477 388.6 
L 893.882196 388.6 
L 893.882196 370.552118 
L 885.100477 370.552118 
z
" clip-path="url(#p213af0444c)" style="fill: #90ee90; opacity: 0.7; stroke: #000000; stroke-linejoin: miter"/>
   </g>
   <g id="patch_110">
    <path d="M 893.882196 388.6 
L 902.663916 388.6 
L 902.663916 352.805034 
L 893.882196 352.805034 
z
" clip-path="url(#p213af0444c)" style="fill: #90ee90; opacity: 0.7; stroke: #000000; stroke-linejoin: miter"/>
   </g>
   <g id="patch_111">
    <path d="M 902.663916 388.6 
L 911.445635 388.6 
L 911.445635 354.008226 
L 902.663916 354.008226 
z
" clip-path="url(#p213af0444c)" style="fill: #90ee90; opacity: 0.7; stroke: #000000; stroke-linejoin: miter"/>
   </g>
   <g id="patch_112">
    <path d="M 911.445635 388.6 
L 920.227354 388.6 
L 920.227354 378.974463 
L 911.445635 378.974463 
z
" clip-path="url(#p213af0444c)" style="fill: #90ee90; opacity: 0.7; stroke: #000000; stroke-linejoin: miter"/>
   </g>
   <g id="patch_113">
    <path d="M 920.227354 388.6 
L 929.009074 388.6 
L 929.009074 376.868877 
L 920.227354 376.868877 
z
" clip-path="url(#p213af0444c)" style="fill: #90ee90; opacity: 0.7; stroke: #000000; stroke-linejoin: miter"/>
   </g>
   <g id="patch_114">
    <path d="M 929.009074 388.6 
L 937.790793 388.6 
L 937.790793 385.291222 
L 929.009074 385.291222 
z
" clip-path="url(#p213af0444c)" style="fill: #90ee90; opacity: 0.7; stroke: #000000; stroke-linejoin: miter"/>
   </g>
   <g id="patch_115">
    <path d="M 937.790793 388.6 
L 946.572512 388.6 
L 946.572512 379.876857 
L 937.790793 379.876857 
z
" clip-path="url(#p213af0444c)" style="fill: #90ee90; opacity: 0.7; stroke: #000000; stroke-linejoin: miter"/>
   </g>
   <g id="patch_116">
    <path d="M 946.572512 388.6 
L 955.354232 388.6 
L 955.354232 373.560098 
L 946.572512 373.560098 
z
" clip-path="url(#p213af0444c)" style="fill: #90ee90; opacity: 0.7; stroke: #000000; stroke-linejoin: miter"/>
   </g>
   <g id="patch_117">
    <path d="M 955.354232 388.6 
L 964.135951 388.6 
L 964.135951 385.892818 
L 955.354232 385.892818 
z
" clip-path="url(#p213af0444c)" style="fill: #90ee90; opacity: 0.7; stroke: #000000; stroke-linejoin: miter"/>
   </g>
   <g id="patch_118">
    <path d="M 964.135951 388.6 
L 972.91767 388.6 
L 972.91767 383.486433 
L 964.135951 383.486433 
z
" clip-path="url(#p213af0444c)" style="fill: #90ee90; opacity: 0.7; stroke: #000000; stroke-linejoin: miter"/>
   </g>
   <g id="matplotlib.axis_3">
    <g id="xtick_7">
     <g id="line2d_33">
      <path d="M 568.953079 388.6 
L 568.953079 45.6 
" clip-path="url(#p213af0444c)" style="fill: none; stroke: #b0b0b0; stroke-opacity: 0.3; stroke-width: 0.8; stroke-linecap: square"/>
     </g>
     <g id="line2d_34">
      <g>
       <use xlink:href="#mdb70b479cc" x="568.953079" y="388.6" style="stroke: #000000; stroke-width: 0.8"/>
      </g>
     </g>
     <g id="text_20">
      <!-- 0.00 -->
      <g transform="translate(557.820266 403.198437) scale(0.1 -0.1)">
       <use xlink:href="#DejaVuSans-30"/>
       <use xlink:href="#DejaVuSans-2e" transform="translate(63.623047 0)"/>
       <use xlink:href="#DejaVuSans-30" transform="translate(95.410156 0)"/>
       <use xlink:href="#DejaVuSans-30" transform="translate(159.033203 0)"/>
      </g>
     </g>
    </g>
    <g id="xtick_8">
     <g id="line2d_35">
      <path d="M 640.787296 388.6 
L 640.787296 45.6 
" clip-path="url(#p213af0444c)" style="fill: none; stroke: #b0b0b0; stroke-opacity: 0.3; stroke-width: 0.8; stroke-linecap: square"/>
     </g>
     <g id="line2d_36">
      <g>
       <use xlink:href="#mdb70b479cc" x="640.787296" y="388.6" style="stroke: #000000; stroke-width: 0.8"/>
      </g>
     </g>
     <g id="text_21">
      <!-- 0.05 -->
      <g transform="translate(629.654483 403.198437) scale(0.1 -0.1)">
       <use xlink:href="#DejaVuSans-30"/>
       <use xlink:href="#DejaVuSans-2e" transform="translate(63.623047 0)"/>
       <use xlink:href="#DejaVuSans-30" transform="translate(95.410156 0)"/>
       <use xlink:href="#DejaVuSans-35" transform="translate(159.033203 0)"/>
      </g>
     </g>
    </g>
    <g id="xtick_9">
     <g id="line2d_37">
      <path d="M 712.621513 388.6 
L 712.621513 45.6 
" clip-path="url(#p213af0444c)" style="fill: none; stroke: #b0b0b0; stroke-opacity: 0.3; stroke-width: 0.8; stroke-linecap: square"/>
     </g>
     <g id="line2d_38">
      <g>
       <use xlink:href="#mdb70b479cc" x="712.621513" y="388.6" style="stroke: #000000; stroke-width: 0.8"/>
      </g>
     </g>
     <g id="text_22">
      <!-- 0.10 -->
      <g transform="translate(701.488701 403.198437) scale(0.1 -0.1)">
       <use xlink:href="#DejaVuSans-30"/>
       <use xlink:href="#DejaVuSans-2e" transform="translate(63.623047 0)"/>
       <use xlink:href="#DejaVuSans-31" transform="translate(95.410156 0)"/>
       <use xlink:href="#DejaVuSans-30" transform="translate(159.033203 0)"/>
      </g>
     </g>
    </g>
    <g id="xtick_10">
     <g id="line2d_39">
      <path d="M 784.455731 388.6 
L 784.455731 45.6 
" clip-path="url(#p213af0444c)" style="fill: none; stroke: #b0b0b0; stroke-opacity: 0.3; stroke-width: 0.8; stroke-linecap: square"/>
     </g>
     <g id="line2d_40">
      <g>
       <use xlink:href="#mdb70b479cc" x="784.455731" y="388.6" style="stroke: #000000; stroke-width: 0.8"/>
      </g>
     </g>
     <g id="text_23">
      <!-- 0.15 -->
      <g transform="translate(773.322918 403.198437) scale(0.1 -0.1)">
       <use xlink:href="#DejaVuSans-30"/>
       <use xlink:href="#DejaVuSans-2e" transform="translate(63.623047 0)"/>
       <use xlink:href="#DejaVuSans-31" transform="translate(95.410156 0)"/>
       <use xlink:href="#DejaVuSans-35" transform="translate(159.033203 0)"/>
      </g>
     </g>
    </g>
    <g id="xtick_11">
     <g id="line2d_41">
      <path d="M 856.289948 388.6 
L 856.289948 45.6 
" clip-path="url(#p213af0444c)" style="fill: none; stroke: #b0b0b0; stroke-opacity: 0.3; stroke-width: 0.8; stroke-linecap: square"/>
     </g>
     <g id="line2d_42">
      <g>
       <use xlink:href="#mdb70b479cc" x="856.289948" y="388.6" style="stroke: #000000; stroke-width: 0.8"/>
      </g>
     </g>
     <g id="text_24">
      <!-- 0.20 -->
      <g transform="translate(845.157135 403.198437) scale(0.1 -0.1)">
       <use xlink:href="#DejaVuSans-30"/>
       <use xlink:href="#DejaVuSans-2e" transform="translate(63.623047 0)"/>
       <use xlink:href="#DejaVuSans-32" transform="translate(95.410156 0)"/>
       <use xlink:href="#DejaVuSans-30" transform="translate(159.033203 0)"/>
      </g>
     </g>
    </g>
    <g id="xtick_12">
     <g id="line2d_43">
      <path d="M 928.124165 388.6 
L 928.124165 45.6 
" clip-path="url(#p213af0444c)" style="fill: none; stroke: #b0b0b0; stroke-opacity: 0.3; stroke-width: 0.8; stroke-linecap: square"/>
     </g>
     <g id="line2d_44">
      <g>
       <use xlink:href="#mdb70b479cc" x="928.124165" y="388.6" style="stroke: #000000; stroke-width: 0.8"/>
      </g>
     </g>
     <g id="text_25">
      <!-- 0.25 -->
      <g transform="translate(916.991353 403.198437) scale(0.1 -0.1)">
       <use xlink:href="#DejaVuSans-30"/>
       <use xlink:href="#DejaVuSans-2e" transform="translate(63.623047 0)"/>
       <use xlink:href="#DejaVuSans-32" transform="translate(95.410156 0)"/>
       <use xlink:href="#DejaVuSans-35" transform="translate(159.033203 0)"/>
      </g>
     </g>
    </g>
    <g id="text_26">
     <!-- Absolute Error (degrees) -->
     <g transform="translate(709.694375 416.876562) scale(0.1 -0.1)">
      <defs>
       <path id="DejaVuSans-41" d="M 2188 4044 
L 1331 1722 
L 3047 1722 
L 2188 4044 
z
M 1831 4666 
L 2547 4666 
L 4325 0 
L 3669 0 
L 3244 1197 
L 1141 1197 
L 716 0 
L 50 0 
L 1831 4666 
z
" transform="scale(0.015625)"/>
       <path id="DejaVuSans-6c" d="M 603 4863 
L 1178 4863 
L 1178 0 
L 603 0 
L 603 4863 
z
" transform="scale(0.015625)"/>
      </defs>
      <use xlink:href="#DejaVuSans-41"/>
      <use xlink:href="#DejaVuSans-62" transform="translate(68.408203 0)"/>
      <use xlink:href="#DejaVuSans-73" transform="translate(131.884766 0)"/>
      <use xlink:href="#DejaVuSans-6f" transform="translate(183.984375 0)"/>
      <use xlink:href="#DejaVuSans-6c" transform="translate(245.166016 0)"/>
      <use xlink:href="#DejaVuSans-75" transform="translate(272.949219 0)"/>
      <use xlink:href="#DejaVuSans-74" transform="translate(336.328125 0)"/>
      <use xlink:href="#DejaVuSans-65" transform="translate(375.537109 0)"/>
      <use xlink:href="#DejaVuSans-20" transform="translate(437.060547 0)"/>
      <use xlink:href="#DejaVuSans-45" transform="translate(468.847656 0)"/>
      <use xlink:href="#DejaVuSans-72" transform="translate(532.03125 0)"/>
      <use xlink:href="#DejaVuSans-72" transform="translate(571.394531 0)"/>
      <use xlink:href="#DejaVuSans-6f" transform="translate(610.257812 0)"/>
      <use xlink:href="#DejaVuSans-72" transform="translate(671.439453 0)"/>
      <use xlink:href="#DejaVuSans-20" transform="translate(712.552734 0)"/>
      <use xlink:href="#DejaVuSans-28" transform="translate(744.339844 0)"/>
      <use xlink:href="#DejaVuSans-64" transform="translate(783.353516 0)"/>
      <use xlink:href="#DejaVuSans-65" transform="translate(846.830078 0)"/>
      <use xlink:href="#DejaVuSans-67" transform="translate(908.353516 0)"/>
      <use xlink:href="#DejaVuSans-72" transform="translate(971.830078 0)"/>
      <use xlink:href="#DejaVuSans-65" transform="translate(1010.693359 0)"/>
      <use xlink:href="#DejaVuSans-65" transform="translate(1072.216797 0)"/>
      <use xlink:href="#DejaVuSans-73" transform="translate(1133.740234 0)"/>
      <use xlink:href="#DejaVuSans-29" transform="translate(1185.839844 0)"/>
     </g>
    </g>
   </g>
   <g id="matplotlib.axis_4">
    <g id="ytick_9">
     <g id="line2d_45">
      <path d="M 548.760625 388.6 
L 993.115625 388.6 
" clip-path="url(#p213af0444c)" style="fill: none; stroke: #b0b0b0; stroke-opacity: 0.3; stroke-width: 0.8; stroke-linecap: square"/>
     </g>
     <g id="line2d_46">
      <g>
       <use xlink:href="#m395b29a28f" x="548.760625" y="388.6" style="stroke: #000000; stroke-width: 0.8"/>
      </g>
     </g>
     <g id="text_27">
      <!-- 0 -->
      <g transform="translate(535.398125 392.399219) scale(0.1 -0.1)">
       <use xlink:href="#DejaVuSans-30"/>
      </g>
     </g>
    </g>
    <g id="ytick_10">
     <g id="line2d_47">
      <path d="M 548.760625 328.440393 
L 993.115625 328.440393 
" clip-path="url(#p213af0444c)" style="fill: none; stroke: #b0b0b0; stroke-opacity: 0.3; stroke-width: 0.8; stroke-linecap: square"/>
     </g>
     <g id="line2d_48">
      <g>
       <use xlink:href="#m395b29a28f" x="548.760625" y="328.440393" style="stroke: #000000; stroke-width: 0.8"/>
      </g>
     </g>
     <g id="text_28">
      <!-- 200 -->
      <g transform="translate(522.673125 332.239612) scale(0.1 -0.1)">
       <use xlink:href="#DejaVuSans-32"/>
       <use xlink:href="#DejaVuSans-30" transform="translate(63.623047 0)"/>
       <use xlink:href="#DejaVuSans-30" transform="translate(127.246094 0)"/>
      </g>
     </g>
    </g>
    <g id="ytick_11">
     <g id="line2d_49">
      <path d="M 548.760625 268.280786 
L 993.115625 268.280786 
" clip-path="url(#p213af0444c)" style="fill: none; stroke: #b0b0b0; stroke-opacity: 0.3; stroke-width: 0.8; stroke-linecap: square"/>
     </g>
     <g id="line2d_50">
      <g>
       <use xlink:href="#m395b29a28f" x="548.760625" y="268.280786" style="stroke: #000000; stroke-width: 0.8"/>
      </g>
     </g>
     <g id="text_29">
      <!-- 400 -->
      <g transform="translate(522.673125 272.080005) scale(0.1 -0.1)">
       <use xlink:href="#DejaVuSans-34"/>
       <use xlink:href="#DejaVuSans-30" transform="translate(63.623047 0)"/>
       <use xlink:href="#DejaVuSans-30" transform="translate(127.246094 0)"/>
      </g>
     </g>
    </g>
    <g id="ytick_12">
     <g id="line2d_51">
      <path d="M 548.760625 208.121179 
L 993.115625 208.121179 
" clip-path="url(#p213af0444c)" style="fill: none; stroke: #b0b0b0; stroke-opacity: 0.3; stroke-width: 0.8; stroke-linecap: square"/>
     </g>
     <g id="line2d_52">
      <g>
       <use xlink:href="#m395b29a28f" x="548.760625" y="208.121179" style="stroke: #000000; stroke-width: 0.8"/>
      </g>
     </g>
     <g id="text_30">
      <!-- 600 -->
      <g transform="translate(522.673125 211.920397) scale(0.1 -0.1)">
       <use xlink:href="#DejaVuSans-36"/>
       <use xlink:href="#DejaVuSans-30" transform="translate(63.623047 0)"/>
       <use xlink:href="#DejaVuSans-30" transform="translate(127.246094 0)"/>
      </g>
     </g>
    </g>
    <g id="ytick_13">
     <g id="line2d_53">
      <path d="M 548.760625 147.961572 
L 993.115625 147.961572 
" clip-path="url(#p213af0444c)" style="fill: none; stroke: #b0b0b0; stroke-opacity: 0.3; stroke-width: 0.8; stroke-linecap: square"/>
     </g>
     <g id="line2d_54">
      <g>
       <use xlink:href="#m395b29a28f" x="548.760625" y="147.961572" style="stroke: #000000; stroke-width: 0.8"/>
      </g>
     </g>
     <g id="text_31">
      <!-- 800 -->
      <g transform="translate(522.673125 151.76079) scale(0.1 -0.1)">
       <use xlink:href="#DejaVuSans-38"/>
       <use xlink:href="#DejaVuSans-30" transform="translate(63.623047 0)"/>
       <use xlink:href="#DejaVuSans-30" transform="translate(127.246094 0)"/>
      </g>
     </g>
    </g>
    <g id="ytick_14">
     <g id="line2d_55">
      <path d="M 548.760625 87.801964 
L 993.115625 87.801964 
" clip-path="url(#p213af0444c)" style="fill: none; stroke: #b0b0b0; stroke-opacity: 0.3; stroke-width: 0.8; stroke-linecap: square"/>
     </g>
     <g id="line2d_56">
      <g>
       <use xlink:href="#m395b29a28f" x="548.760625" y="87.801964" style="stroke: #000000; stroke-width: 0.8"/>
      </g>
     </g>
     <g id="text_32">
      <!-- 1000 -->
      <g transform="translate(516.310625 91.601183) scale(0.1 -0.1)">
       <use xlink:href="#DejaVuSans-31"/>
       <use xlink:href="#DejaVuSans-30" transform="translate(63.623047 0)"/>
       <use xlink:href="#DejaVuSans-30" transform="translate(127.246094 0)"/>
       <use xlink:href="#DejaVuSans-30" transform="translate(190.869141 0)"/>
      </g>
     </g>
    </g>
    <g id="text_33">
     <!-- Frequency -->
     <g transform="translate(510.230938 242.929687) rotate(-90) scale(0.1 -0.1)">
      <use xlink:href="#DejaVuSans-46"/>
      <use xlink:href="#DejaVuSans-72" transform="translate(50.269531 0)"/>
      <use xlink:href="#DejaVuSans-65" transform="translate(89.132812 0)"/>
      <use xlink:href="#DejaVuSans-71" transform="translate(150.65625 0)"/>
      <use xlink:href="#DejaVuSans-75" transform="translate(214.132812 0)"/>
      <use xlink:href="#DejaVuSans-65" transform="translate(277.511719 0)"/>
      <use xlink:href="#DejaVuSans-6e" transform="translate(339.035156 0)"/>
      <use xlink:href="#DejaVuSans-63" transform="translate(402.414062 0)"/>
      <use xlink:href="#DejaVuSans-79" transform="translate(457.394531 0)"/>
     </g>
    </g>
   </g>
   <g id="line2d_57">
    <path d="M 700.92705 388.6 
L 700.92705 45.6 
" clip-path="url(#p213af0444c)" style="fill: none; stroke: #ffa500; stroke-width: 2; stroke-linecap: square"/>
   </g>
   <g id="line2d_58">
    <path d="M 845.909696 388.6 
L 845.909696 45.6 
" clip-path="url(#p213af0444c)" style="fill: none; stroke-dasharray: 7.4,3.2; stroke-dashoffset: 0; stroke: #0000ff; stroke-width: 2"/>
   </g>
   <g id="patch_119">
    <path d="M 548.760625 388.6 
L 548.760625 45.6 
" style="fill: none; stroke: #000000; stroke-width: 0.8; stroke-linejoin: miter; stroke-linecap: square"/>
   </g>
   <g id="patch_120">
    <path d="M 993.115625 388.6 
L 993.115625 45.6 
" style="fill: none; stroke: #000000; stroke-width: 0.8; stroke-linejoin: miter; stroke-linecap: square"/>
   </g>
   <g id="patch_121">
    <path d="M 548.760625 388.6 
L 993.115625 388.6 
" style="fill: none; stroke: #000000; stroke-width: 0.8; stroke-linejoin: miter; stroke-linecap: square"/>
   </g>
   <g id="patch_122">
    <path d="M 548.760625 45.6 
L 993.115625 45.6 
" style="fill: none; stroke: #000000; stroke-width: 0.8; stroke-linejoin: miter; stroke-linecap: square"/>
   </g>
   <g id="text_34">
    <!-- WikiImp Absolute Error Distribution -->
    <g transform="translate(665.34 39.6) scale(0.12 -0.12)">
     <use xlink:href="#DejaVuSans-57"/>
     <use xlink:href="#DejaVuSans-69" transform="translate(96.626953 0)"/>
     <use xlink:href="#DejaVuSans-6b" transform="translate(124.410156 0)"/>
     <use xlink:href="#DejaVuSans-69" transform="translate(182.320312 0)"/>
     <use xlink:href="#DejaVuSans-49" transform="translate(210.103516 0)"/>
     <use xlink:href="#DejaVuSans-6d" transform="translate(239.595703 0)"/>
     <use xlink:href="#DejaVuSans-70" transform="translate(337.007812 0)"/>
     <use xlink:href="#DejaVuSans-20" transform="translate(400.484375 0)"/>
     <use xlink:href="#DejaVuSans-41" transform="translate(432.271484 0)"/>
     <use xlink:href="#DejaVuSans-62" transform="translate(500.679688 0)"/>
     <use xlink:href="#DejaVuSans-73" transform="translate(564.15625 0)"/>
     <use xlink:href="#DejaVuSans-6f" transform="translate(616.255859 0)"/>
     <use xlink:href="#DejaVuSans-6c" transform="translate(677.4375 0)"/>
     <use xlink:href="#DejaVuSans-75" transform="translate(705.220703 0)"/>
     <use xlink:href="#DejaVuSans-74" transform="translate(768.599609 0)"/>
     <use xlink:href="#DejaVuSans-65" transform="translate(807.808594 0)"/>
     <use xlink:href="#DejaVuSans-20" transform="translate(869.332031 0)"/>
     <use xlink:href="#DejaVuSans-45" transform="translate(901.119141 0)"/>
     <use xlink:href="#DejaVuSans-72" transform="translate(964.302734 0)"/>
     <use xlink:href="#DejaVuSans-72" transform="translate(1003.666016 0)"/>
     <use xlink:href="#DejaVuSans-6f" transform="translate(1042.529297 0)"/>
     <use xlink:href="#DejaVuSans-72" transform="translate(1103.710938 0)"/>
     <use xlink:href="#DejaVuSans-20" transform="translate(1144.824219 0)"/>
     <use xlink:href="#DejaVuSans-44" transform="translate(1176.611328 0)"/>
     <use xlink:href="#DejaVuSans-69" transform="translate(1253.613281 0)"/>
     <use xlink:href="#DejaVuSans-73" transform="translate(1281.396484 0)"/>
     <use xlink:href="#DejaVuSans-74" transform="translate(1333.496094 0)"/>
     <use xlink:href="#DejaVuSans-72" transform="translate(1372.705078 0)"/>
     <use xlink:href="#DejaVuSans-69" transform="translate(1413.818359 0)"/>
     <use xlink:href="#DejaVuSans-62" transform="translate(1441.601562 0)"/>
     <use xlink:href="#DejaVuSans-75" transform="translate(1505.078125 0)"/>
     <use xlink:href="#DejaVuSans-74" transform="translate(1568.457031 0)"/>
     <use xlink:href="#DejaVuSans-69" transform="translate(1607.666016 0)"/>
     <use xlink:href="#DejaVuSans-6f" transform="translate(1635.449219 0)"/>
     <use xlink:href="#DejaVuSans-6e" transform="translate(1696.630859 0)"/>
    </g>
   </g>
   <g id="legend_2">
    <g id="patch_123">
     <path d="M 863.775 82.95625 
L 986.115625 82.95625 
Q 988.115625 82.95625 988.115625 80.95625 
L 988.115625 52.6 
Q 988.115625 50.6 986.115625 50.6 
L 863.775 50.6 
Q 861.775 50.6 861.775 52.6 
L 861.775 80.95625 
Q 861.775 82.95625 863.775 82.95625 
z
" style="fill: #ffffff; opacity: 0.8; stroke: #cccccc; stroke-linejoin: miter"/>
    </g>
    <g id="line2d_59">
     <path d="M 865.775 58.698437 
L 875.775 58.698437 
L 885.775 58.698437 
" style="fill: none; stroke: #ffa500; stroke-width: 2; stroke-linecap: square"/>
    </g>
    <g id="text_35">
     <!-- RMSD: 0.0919° -->
     <g transform="translate(893.775 62.198437) scale(0.1 -0.1)">
      <defs>
       <path id="DejaVuSans-52" d="M 2841 2188 
Q 3044 2119 3236 1894 
Q 3428 1669 3622 1275 
L 4263 0 
L 3584 0 
L 2988 1197 
Q 2756 1666 2539 1819 
Q 2322 1972 1947 1972 
L 1259 1972 
L 1259 0 
L 628 0 
L 628 4666 
L 2053 4666 
Q 2853 4666 3247 4331 
Q 3641 3997 3641 3322 
Q 3641 2881 3436 2590 
Q 3231 2300 2841 2188 
z
M 1259 4147 
L 1259 2491 
L 2053 2491 
Q 2509 2491 2742 2702 
Q 2975 2913 2975 3322 
Q 2975 3731 2742 3939 
Q 2509 4147 2053 4147 
L 1259 4147 
z
" transform="scale(0.015625)"/>
       <path id="DejaVuSans-53" d="M 3425 4513 
L 3425 3897 
Q 3066 4069 2747 4153 
Q 2428 4238 2131 4238 
Q 1616 4238 1336 4038 
Q 1056 3838 1056 3469 
Q 1056 3159 1242 3001 
Q 1428 2844 1947 2747 
L 2328 2669 
Q 3034 2534 3370 2195 
Q 3706 1856 3706 1288 
Q 3706 609 3251 259 
Q 2797 -91 1919 -91 
Q 1588 -91 1214 -16 
Q 841 59 441 206 
L 441 856 
Q 825 641 1194 531 
Q 1563 422 1919 422 
Q 2459 422 2753 634 
Q 3047 847 3047 1241 
Q 3047 1584 2836 1778 
Q 2625 1972 2144 2069 
L 1759 2144 
Q 1053 2284 737 2584 
Q 422 2884 422 3419 
Q 422 4038 858 4394 
Q 1294 4750 2059 4750 
Q 2388 4750 2728 4690 
Q 3069 4631 3425 4513 
z
" transform="scale(0.015625)"/>
       <path id="DejaVuSans-39" d="M 703 97 
L 703 672 
Q 941 559 1184 500 
Q 1428 441 1663 441 
Q 2288 441 2617 861 
Q 2947 1281 2994 2138 
Q 2813 1869 2534 1725 
Q 2256 1581 1919 1581 
Q 1219 1581 811 2004 
Q 403 2428 403 3163 
Q 403 3881 828 4315 
Q 1253 4750 1959 4750 
Q 2769 4750 3195 4129 
Q 3622 3509 3622 2328 
Q 3622 1225 3098 567 
Q 2575 -91 1691 -91 
Q 1453 -91 1209 -44 
Q 966 3 703 97 
z
M 1959 2075 
Q 2384 2075 2632 2365 
Q 2881 2656 2881 3163 
Q 2881 3666 2632 3958 
Q 2384 4250 1959 4250 
Q 1534 4250 1286 3958 
Q 1038 3666 1038 3163 
Q 1038 2656 1286 2365 
Q 1534 2075 1959 2075 
z
" transform="scale(0.015625)"/>
      </defs>
      <use xlink:href="#DejaVuSans-52"/>
      <use xlink:href="#DejaVuSans-4d" transform="translate(69.482422 0)"/>
      <use xlink:href="#DejaVuSans-53" transform="translate(155.761719 0)"/>
      <use xlink:href="#DejaVuSans-44" transform="translate(219.238281 0)"/>
      <use xlink:href="#DejaVuSans-3a" transform="translate(296.240234 0)"/>
      <use xlink:href="#DejaVuSans-20" transform="translate(329.931641 0)"/>
      <use xlink:href="#DejaVuSans-30" transform="translate(361.71875 0)"/>
      <use xlink:href="#DejaVuSans-2e" transform="translate(425.341797 0)"/>
      <use xlink:href="#DejaVuSans-30" transform="translate(457.128906 0)"/>
      <use xlink:href="#DejaVuSans-39" transform="translate(520.751953 0)"/>
      <use xlink:href="#DejaVuSans-31" transform="translate(584.375 0)"/>
      <use xlink:href="#DejaVuSans-39" transform="translate(647.998047 0)"/>
      <use xlink:href="#DejaVuSans-b0" transform="translate(711.621094 0)"/>
     </g>
    </g>
    <g id="line2d_60">
     <path d="M 865.775 73.376562 
L 875.775 73.376562 
L 885.775 73.376562 
" style="fill: none; stroke-dasharray: 7.4,3.2; stroke-dashoffset: 0; stroke: #0000ff; stroke-width: 2"/>
    </g>
    <g id="text_36">
     <!-- 95% Abs: 0.1928° -->
     <g transform="translate(893.775 76.876562) scale(0.1 -0.1)">
      <defs>
       <path id="DejaVuSans-25" d="M 4653 2053 
Q 4381 2053 4226 1822 
Q 4072 1591 4072 1178 
Q 4072 772 4226 539 
Q 4381 306 4653 306 
Q 4919 306 5073 539 
Q 5228 772 5228 1178 
Q 5228 1588 5073 1820 
Q 4919 2053 4653 2053 
z
M 4653 2450 
Q 5147 2450 5437 2106 
Q 5728 1763 5728 1178 
Q 5728 594 5436 251 
Q 5144 -91 4653 -91 
Q 4153 -91 3862 251 
Q 3572 594 3572 1178 
Q 3572 1766 3864 2108 
Q 4156 2450 4653 2450 
z
M 1428 4353 
Q 1159 4353 1004 4120 
Q 850 3888 850 3481 
Q 850 3069 1003 2837 
Q 1156 2606 1428 2606 
Q 1700 2606 1854 2837 
Q 2009 3069 2009 3481 
Q 2009 3884 1853 4118 
Q 1697 4353 1428 4353 
z
M 4250 4750 
L 4750 4750 
L 1831 -91 
L 1331 -91 
L 4250 4750 
z
M 1428 4750 
Q 1922 4750 2215 4408 
Q 2509 4066 2509 3481 
Q 2509 2891 2217 2550 
Q 1925 2209 1428 2209 
Q 931 2209 642 2551 
Q 353 2894 353 3481 
Q 353 4063 643 4406 
Q 934 4750 1428 4750 
z
" transform="scale(0.015625)"/>
      </defs>
      <use xlink:href="#DejaVuSans-39"/>
      <use xlink:href="#DejaVuSans-35" transform="translate(63.623047 0)"/>
      <use xlink:href="#DejaVuSans-25" transform="translate(127.246094 0)"/>
      <use xlink:href="#DejaVuSans-20" transform="translate(222.265625 0)"/>
      <use xlink:href="#DejaVuSans-41" transform="translate(254.052734 0)"/>
      <use xlink:href="#DejaVuSans-62" transform="translate(322.460938 0)"/>
      <use xlink:href="#DejaVuSans-73" transform="translate(385.9375 0)"/>
      <use xlink:href="#DejaVuSans-3a" transform="translate(438.037109 0)"/>
      <use xlink:href="#DejaVuSans-20" transform="translate(471.728516 0)"/>
      <use xlink:href="#DejaVuSans-30" transform="translate(503.515625 0)"/>
      <use xlink:href="#DejaVuSans-2e" transform="translate(567.138672 0)"/>
      <use xlink:href="#DejaVuSans-31" transform="translate(598.925781 0)"/>
      <use xlink:href="#DejaVuSans-39" transform="translate(662.548828 0)"/>
      <use xlink:href="#DejaVuSans-32" transform="translate(726.171875 0)"/>
      <use xlink:href="#DejaVuSans-38" transform="translate(789.794922 0)"/>
      <use xlink:href="#DejaVuSans-b0" transform="translate(853.417969 0)"/>
     </g>
    </g>
   </g>
  </g>
  <g id="text_37">
   <!-- WikiImp Solar Elevation Error Histogram (Full Dataset) -->
   <g transform="translate(337.101875 16.318125) scale(0.12 -0.12)">
    <defs>
     <path id="DejaVuSans-76" d="M 191 3500 
L 800 3500 
L 1894 563 
L 2988 3500 
L 3597 3500 
L 2284 0 
L 1503 0 
L 191 3500 
z
" transform="scale(0.015625)"/>
     <path id="DejaVuSans-48" d="M 628 4666 
L 1259 4666 
L 1259 2753 
L 3553 2753 
L 3553 4666 
L 4184 4666 
L 4184 0 
L 3553 0 
L 3553 2222 
L 1259 2222 
L 1259 0 
L 628 0 
L 628 4666 
z
" transform="scale(0.015625)"/>
    </defs>
    <use xlink:href="#DejaVuSans-57"/>
    <use xlink:href="#DejaVuSans-69" transform="translate(96.626953 0)"/>
    <use xlink:href="#DejaVuSans-6b" transform="translate(124.410156 0)"/>
    <use xlink:href="#DejaVuSans-69" transform="translate(182.320312 0)"/>
    <use xlink:href="#DejaVuSans-49" transform="translate(210.103516 0)"/>
    <use xlink:href="#DejaVuSans-6d" transform="translate(239.595703 0)"/>
    <use xlink:href="#DejaVuSans-70" transform="translate(337.007812 0)"/>
    <use xlink:href="#DejaVuSans-20" transform="translate(400.484375 0)"/>
    <use xlink:href="#DejaVuSans-53" transform="translate(432.271484 0)"/>
    <use xlink:href="#DejaVuSans-6f" transform="translate(495.748047 0)"/>
    <use xlink:href="#DejaVuSans-6c" transform="translate(556.929688 0)"/>
    <use xlink:href="#DejaVuSans-61" transform="translate(584.712891 0)"/>
    <use xlink:href="#DejaVuSans-72" transform="translate(645.992188 0)"/>
    <use xlink:href="#DejaVuSans-20" transform="translate(687.105469 0)"/>
    <use xlink:href="#DejaVuSans-45" transform="translate(718.892578 0)"/>
    <use xlink:href="#DejaVuSans-6c" transform="translate(782.076172 0)"/>
    <use xlink:href="#DejaVuSans-65" transform="translate(809.859375 0)"/>
    <use xlink:href="#DejaVuSans-76" transform="translate(871.382812 0)"/>
    <use xlink:href="#DejaVuSans-61" transform="translate(930.5625 0)"/>
    <use xlink:href="#DejaVuSans-74" transform="translate(991.841797 0)"/>
    <use xlink:href="#DejaVuSans-69" transform="translate(1031.050781 0)"/>
    <use xlink:href="#DejaVuSans-6f" transform="translate(1058.833984 0)"/>
    <use xlink:href="#DejaVuSans-6e" transform="translate(1120.015625 0)"/>
    <use xlink:href="#DejaVuSans-20" transform="translate(1183.394531 0)"/>
    <use xlink:href="#DejaVuSans-45" transform="translate(1215.181641 0)"/>
    <use xlink:href="#DejaVuSans-72" transform="translate(1278.365234 0)"/>
    <use xlink:href="#DejaVuSans-72" transform="translate(1317.728516 0)"/>
    <use xlink:href="#DejaVuSans-6f" transform="translate(1356.591797 0)"/>
    <use xlink:href="#DejaVuSans-72" transform="translate(1417.773438 0)"/>
    <use xlink:href="#DejaVuSans-20" transform="translate(1458.886719 0)"/>
    <use xlink:href="#DejaVuSans-48" transform="translate(1490.673828 0)"/>
    <use xlink:href="#DejaVuSans-69" transform="translate(1565.869141 0)"/>
    <use xlink:href="#DejaVuSans-73" transform="translate(1593.652344 0)"/>
    <use xlink:href="#DejaVuSans-74" transform="translate(1645.751953 0)"/>
    <use xlink:href="#DejaVuSans-6f" transform="translate(1684.960938 0)"/>
    <use xlink:href="#DejaVuSans-67" transform="translate(1746.142578 0)"/>
    <use xlink:href="#DejaVuSans-72" transform="translate(1809.619141 0)"/>
    <use xlink:href="#DejaVuSans-61" transform="translate(1850.732422 0)"/>
    <use xlink:href="#DejaVuSans-6d" transform="translate(1912.011719 0)"/>
    <use xlink:href="#DejaVuSans-20" transform="translate(2009.423828 0)"/>
    <use xlink:href="#DejaVuSans-28" transform="translate(2041.210938 0)"/>
    <use xlink:href="#DejaVuSans-46" transform="translate(2080.224609 0)"/>
    <use xlink:href="#DejaVuSans-75" transform="translate(2132.244141 0)"/>
    <use xlink:href="#DejaVuSans-6c" transform="translate(2195.623047 0)"/>
    <use xlink:href="#DejaVuSans-6c" transform="translate(2223.40625 0)"/>
    <use xlink:href="#DejaVuSans-20" transform="translate(2251.189453 0)"/>
    <use xlink:href="#DejaVuSans-44" transform="translate(2282.976562 0)"/>
    <use xlink:href="#DejaVuSans-61" transform="translate(2359.978516 0)"/>
    <use xlink:href="#DejaVuSans-74" transform="translate(2421.257812 0)"/>
    <use xlink:href="#DejaVuSans-61" transform="translate(2460.466797 0)"/>
    <use xlink:href="#DejaVuSans-73" transform="translate(2521.746094 0)"/>
    <use xlink:href="#DejaVuSans-65" transform="translate(2573.845703 0)"/>
    <use xlink:href="#DejaVuSans-74" transform="translate(2635.369141 0)"/>
    <use xlink:href="#DejaVuSans-29" transform="translate(2674.578125 0)"/>
   </g>
  </g>
 </g>
 <defs>
  <clipPath id="pfe648999c8">
   <rect x="46.965625" y="45.6" width="444.355" height="343"/>
  </clipPath>
  <clipPath id="p213af0444c">
   <rect x="548.760625" y="45.6" width="444.355" height="343"/>
  </clipPath>
 </defs>
</svg>
