<?xml version="1.0" encoding="utf-8" standalone="no"?>
<!DOCTYPE svg PUBLIC "-//W3C//DTD SVG 1.1//EN"
  "http://www.w3.org/Graphics/SVG/1.1/DTD/svg11.dtd">
<svg xmlns:xlink="http://www.w3.org/1999/xlink" width="999.320614pt" height="426.15625pt" viewBox="0 0 999.320614 426.15625" xmlns="http://www.w3.org/2000/svg" version="1.1">
 <metadata>
  <rdf:RDF xmlns:dc="http://purl.org/dc/elements/1.1/" xmlns:cc="http://creativecommons.org/ns#" xmlns:rdf="http://www.w3.org/1999/02/22-rdf-syntax-ns#">
   <cc:Work>
    <dc:type rdf:resource="http://purl.org/dc/dcmitype/StillImage"/>
    <dc:date>2025-11-24T11:07:28.809334</dc:date>
    <dc:format>image/svg+xml</dc:format>
    <dc:creator>
     <cc:Agent>
      <dc:title>Matplotlib v3.10.8, https://matplotlib.org/</dc:title>
     </cc:Agent>
    </dc:creator>
   </cc:Work>
  </rdf:RDF>
 </metadata>
 <defs>
  <style type="text/css">*{stroke-linejoin: round; stroke-linecap: butt}</style>
 </defs>
 <g id="figure_1">
  <g id="patch_1">
   <path d="M 0 426.15625 
L 999.320614 426.15625 
L 999.320614 0 
L 0 0 
z
" style="fill: #ffffff"/>
  </g>
  <g id="axes_1">
   <g id="patch_2">
    <path d="M 46.965625 388.6 
L 490.870376 388.6 
L 490.870376 45.6 
L 46.965625 45.6 
z
" style="fill: #ffffff"/>
   </g>
   <g id="patch_3">
    <path d="M 67.143114 388.6 
L 73.077669 388.6 
L 73.077669 373.459551 
L 67.143114 373.459551 
z
" clip-path="url(#p9404ea46b2)" style="fill: #87ceeb; opacity: 0.7; stroke: #000000; stroke-linejoin: miter"/>
   </g>
   <g id="patch_4">
    <path d="M 73.077669 388.6 
L 79.012225 388.6 
L 79.012225 386.305993 
L 73.077669 386.305993 
z
" clip-path="url(#p9404ea46b2)" style="fill: #87ceeb; opacity: 0.7; stroke: #000000; stroke-linejoin: miter"/>
   </g>
   <g id="patch_5">
    <path d="M 79.012225 388.6 
L 84.94678 388.6 
L 84.94678 371.624345 
L 79.012225 371.624345 
z
" clip-path="url(#p9404ea46b2)" style="fill: #87ceeb; opacity: 0.7; stroke: #000000; stroke-linejoin: miter"/>
   </g>
   <g id="patch_6">
    <path d="M 84.94678 388.6 
L 90.881336 388.6 
L 90.881336 369.789139 
L 84.94678 369.789139 
z
" clip-path="url(#p9404ea46b2)" style="fill: #87ceeb; opacity: 0.7; stroke: #000000; stroke-linejoin: miter"/>
   </g>
   <g id="patch_7">
    <path d="M 90.881336 388.6 
L 96.815891 388.6 
L 96.815891 375.753558 
L 90.881336 375.753558 
z
" clip-path="url(#p9404ea46b2)" style="fill: #87ceeb; opacity: 0.7; stroke: #000000; stroke-linejoin: miter"/>
   </g>
   <g id="patch_8">
    <path d="M 96.815891 388.6 
L 102.750447 388.6 
L 102.750447 375.294757 
L 96.815891 375.294757 
z
" clip-path="url(#p9404ea46b2)" style="fill: #87ceeb; opacity: 0.7; stroke: #000000; stroke-linejoin: miter"/>
   </g>
   <g id="patch_9">
    <path d="M 102.750447 388.6 
L 108.685002 388.6 
L 108.685002 372.541948 
L 102.750447 372.541948 
z
" clip-path="url(#p9404ea46b2)" style="fill: #87ceeb; opacity: 0.7; stroke: #000000; stroke-linejoin: miter"/>
   </g>
   <g id="patch_10">
    <path d="M 108.685002 388.6 
L 114.619558 388.6 
L 114.619558 359.236704 
L 108.685002 359.236704 
z
" clip-path="url(#p9404ea46b2)" style="fill: #87ceeb; opacity: 0.7; stroke: #000000; stroke-linejoin: miter"/>
   </g>
   <g id="patch_11">
    <path d="M 114.619558 388.6 
L 120.554113 388.6 
L 120.554113 367.953933 
L 114.619558 367.953933 
z
" clip-path="url(#p9404ea46b2)" style="fill: #87ceeb; opacity: 0.7; stroke: #000000; stroke-linejoin: miter"/>
   </g>
   <g id="patch_12">
    <path d="M 120.554113 388.6 
L 126.488669 388.6 
L 126.488669 381.259176 
L 120.554113 381.259176 
z
" clip-path="url(#p9404ea46b2)" style="fill: #87ceeb; opacity: 0.7; stroke: #000000; stroke-linejoin: miter"/>
   </g>
   <g id="patch_13">
    <path d="M 126.488669 388.6 
L 132.423224 388.6 
L 132.423224 383.553184 
L 126.488669 383.553184 
z
" clip-path="url(#p9404ea46b2)" style="fill: #87ceeb; opacity: 0.7; stroke: #000000; stroke-linejoin: miter"/>
   </g>
   <g id="patch_14">
    <path d="M 132.423224 388.6 
L 138.35778 388.6 
L 138.35778 376.21236 
L 132.423224 376.21236 
z
" clip-path="url(#p9404ea46b2)" style="fill: #87ceeb; opacity: 0.7; stroke: #000000; stroke-linejoin: miter"/>
   </g>
   <g id="patch_15">
    <path d="M 138.35778 388.6 
L 144.292335 388.6 
L 144.292335 352.813483 
L 138.35778 352.813483 
z
" clip-path="url(#p9404ea46b2)" style="fill: #87ceeb; opacity: 0.7; stroke: #000000; stroke-linejoin: miter"/>
   </g>
   <g id="patch_16">
    <path d="M 144.292335 388.6 
L 150.226891 388.6 
L 150.226891 361.989513 
L 144.292335 361.989513 
z
" clip-path="url(#p9404ea46b2)" style="fill: #87ceeb; opacity: 0.7; stroke: #000000; stroke-linejoin: miter"/>
   </g>
   <g id="patch_17">
    <path d="M 150.226891 388.6 
L 156.161446 388.6 
L 156.161446 370.24794 
L 150.226891 370.24794 
z
" clip-path="url(#p9404ea46b2)" style="fill: #87ceeb; opacity: 0.7; stroke: #000000; stroke-linejoin: miter"/>
   </g>
   <g id="patch_18">
    <path d="M 156.161446 388.6 
L 162.096001 388.6 
L 162.096001 361.530712 
L 156.161446 361.530712 
z
" clip-path="url(#p9404ea46b2)" style="fill: #87ceeb; opacity: 0.7; stroke: #000000; stroke-linejoin: miter"/>
   </g>
   <g id="patch_19">
    <path d="M 162.096001 388.6 
L 168.030557 388.6 
L 168.030557 328.497004 
L 162.096001 328.497004 
z
" clip-path="url(#p9404ea46b2)" style="fill: #87ceeb; opacity: 0.7; stroke: #000000; stroke-linejoin: miter"/>
   </g>
   <g id="patch_20">
    <path d="M 168.030557 388.6 
L 173.965112 388.6 
L 173.965112 336.296629 
L 168.030557 336.296629 
z
" clip-path="url(#p9404ea46b2)" style="fill: #87ceeb; opacity: 0.7; stroke: #000000; stroke-linejoin: miter"/>
   </g>
   <g id="patch_21">
    <path d="M 173.965112 388.6 
L 179.899668 388.6 
L 179.899668 333.085019 
L 173.965112 333.085019 
z
" clip-path="url(#p9404ea46b2)" style="fill: #87ceeb; opacity: 0.7; stroke: #000000; stroke-linejoin: miter"/>
   </g>
   <g id="patch_22">
    <path d="M 179.899668 388.6 
L 185.834223 388.6 
L 185.834223 315.19176 
L 179.899668 315.19176 
z
" clip-path="url(#p9404ea46b2)" style="fill: #87ceeb; opacity: 0.7; stroke: #000000; stroke-linejoin: miter"/>
   </g>
   <g id="patch_23">
    <path d="M 185.834223 388.6 
L 191.768779 388.6 
L 191.768779 328.038202 
L 185.834223 328.038202 
z
" clip-path="url(#p9404ea46b2)" style="fill: #87ceeb; opacity: 0.7; stroke: #000000; stroke-linejoin: miter"/>
   </g>
   <g id="patch_24">
    <path d="M 191.768779 388.6 
L 197.703334 388.6 
L 197.703334 299.133708 
L 191.768779 299.133708 
z
" clip-path="url(#p9404ea46b2)" style="fill: #87ceeb; opacity: 0.7; stroke: #000000; stroke-linejoin: miter"/>
   </g>
   <g id="patch_25">
    <path d="M 197.703334 388.6 
L 203.63789 388.6 
L 203.63789 284.910861 
L 197.703334 284.910861 
z
" clip-path="url(#p9404ea46b2)" style="fill: #87ceeb; opacity: 0.7; stroke: #000000; stroke-linejoin: miter"/>
   </g>
   <g id="patch_26">
    <path d="M 203.63789 388.6 
L 209.572445 388.6 
L 209.572445 271.146816 
L 203.63789 271.146816 
z
" clip-path="url(#p9404ea46b2)" style="fill: #87ceeb; opacity: 0.7; stroke: #000000; stroke-linejoin: miter"/>
   </g>
   <g id="patch_27">
    <path d="M 209.572445 388.6 
L 215.507001 388.6 
L 215.507001 265.641199 
L 209.572445 265.641199 
z
" clip-path="url(#p9404ea46b2)" style="fill: #87ceeb; opacity: 0.7; stroke: #000000; stroke-linejoin: miter"/>
   </g>
   <g id="patch_28">
    <path d="M 215.507001 388.6 
L 221.441556 388.6 
L 221.441556 211.961423 
L 215.507001 211.961423 
z
" clip-path="url(#p9404ea46b2)" style="fill: #87ceeb; opacity: 0.7; stroke: #000000; stroke-linejoin: miter"/>
   </g>
   <g id="patch_29">
    <path d="M 221.441556 388.6 
L 227.376112 388.6 
L 227.376112 233.983895 
L 221.441556 233.983895 
z
" clip-path="url(#p9404ea46b2)" style="fill: #87ceeb; opacity: 0.7; stroke: #000000; stroke-linejoin: miter"/>
   </g>
   <g id="patch_30">
    <path d="M 227.376112 388.6 
L 233.310667 388.6 
L 233.310667 186.727341 
L 227.376112 186.727341 
z
" clip-path="url(#p9404ea46b2)" style="fill: #87ceeb; opacity: 0.7; stroke: #000000; stroke-linejoin: miter"/>
   </g>
   <g id="patch_31">
    <path d="M 233.310667 388.6 
L 239.245223 388.6 
L 239.245223 162.869663 
L 233.310667 162.869663 
z
" clip-path="url(#p9404ea46b2)" style="fill: #87ceeb; opacity: 0.7; stroke: #000000; stroke-linejoin: miter"/>
   </g>
   <g id="patch_32">
    <path d="M 239.245223 388.6 
L 245.179778 388.6 
L 245.179778 123.871536 
L 239.245223 123.871536 
z
" clip-path="url(#p9404ea46b2)" style="fill: #87ceeb; opacity: 0.7; stroke: #000000; stroke-linejoin: miter"/>
   </g>
   <g id="patch_33">
    <path d="M 245.179778 388.6 
L 251.114334 388.6 
L 251.114334 88.54382 
L 245.179778 88.54382 
z
" clip-path="url(#p9404ea46b2)" style="fill: #87ceeb; opacity: 0.7; stroke: #000000; stroke-linejoin: miter"/>
   </g>
   <g id="patch_34">
    <path d="M 251.114334 388.6 
L 257.048889 388.6 
L 257.048889 133.965169 
L 251.114334 133.965169 
z
" clip-path="url(#p9404ea46b2)" style="fill: #87ceeb; opacity: 0.7; stroke: #000000; stroke-linejoin: miter"/>
   </g>
   <g id="patch_35">
    <path d="M 257.048889 388.6 
L 262.983445 388.6 
L 262.983445 143.6 
L 257.048889 143.6 
z
" clip-path="url(#p9404ea46b2)" style="fill: #87ceeb; opacity: 0.7; stroke: #000000; stroke-linejoin: miter"/>
   </g>
   <g id="patch_36">
    <path d="M 262.983445 388.6 
L 268.918 388.6 
L 268.918 130.294757 
L 262.983445 130.294757 
z
" clip-path="url(#p9404ea46b2)" style="fill: #87ceeb; opacity: 0.7; stroke: #000000; stroke-linejoin: miter"/>
   </g>
   <g id="patch_37">
    <path d="M 268.918 388.6 
L 274.852556 388.6 
L 274.852556 79.36779 
L 268.918 79.36779 
z
" clip-path="url(#p9404ea46b2)" style="fill: #87ceeb; opacity: 0.7; stroke: #000000; stroke-linejoin: miter"/>
   </g>
   <g id="patch_38">
    <path d="M 274.852556 388.6 
L 280.787111 388.6 
L 280.787111 85.791011 
L 274.852556 85.791011 
z
" clip-path="url(#p9404ea46b2)" style="fill: #87ceeb; opacity: 0.7; stroke: #000000; stroke-linejoin: miter"/>
   </g>
   <g id="patch_39">
    <path d="M 280.787111 388.6 
L 286.721667 388.6 
L 286.721667 111.025094 
L 280.787111 111.025094 
z
" clip-path="url(#p9404ea46b2)" style="fill: #87ceeb; opacity: 0.7; stroke: #000000; stroke-linejoin: miter"/>
   </g>
   <g id="patch_40">
    <path d="M 286.721667 388.6 
L 292.656222 388.6 
L 292.656222 99.096255 
L 286.721667 99.096255 
z
" clip-path="url(#p9404ea46b2)" style="fill: #87ceeb; opacity: 0.7; stroke: #000000; stroke-linejoin: miter"/>
   </g>
   <g id="patch_41">
    <path d="M 292.656222 388.6 
L 298.590778 388.6 
L 298.590778 107.354682 
L 292.656222 107.354682 
z
" clip-path="url(#p9404ea46b2)" style="fill: #87ceeb; opacity: 0.7; stroke: #000000; stroke-linejoin: miter"/>
   </g>
   <g id="patch_42">
    <path d="M 298.590778 388.6 
L 304.525333 388.6 
L 304.525333 61.933333 
L 298.590778 61.933333 
z
" clip-path="url(#p9404ea46b2)" style="fill: #87ceeb; opacity: 0.7; stroke: #000000; stroke-linejoin: miter"/>
   </g>
   <g id="patch_43">
    <path d="M 304.525333 388.6 
L 310.459889 388.6 
L 310.459889 99.555056 
L 304.525333 99.555056 
z
" clip-path="url(#p9404ea46b2)" style="fill: #87ceeb; opacity: 0.7; stroke: #000000; stroke-linejoin: miter"/>
   </g>
   <g id="patch_44">
    <path d="M 310.459889 388.6 
L 316.394444 388.6 
L 316.394444 138.553184 
L 310.459889 138.553184 
z
" clip-path="url(#p9404ea46b2)" style="fill: #87ceeb; opacity: 0.7; stroke: #000000; stroke-linejoin: miter"/>
   </g>
   <g id="patch_45">
    <path d="M 316.394444 388.6 
L 322.329 388.6 
L 322.329 201.408989 
L 316.394444 201.408989 
z
" clip-path="url(#p9404ea46b2)" style="fill: #87ceeb; opacity: 0.7; stroke: #000000; stroke-linejoin: miter"/>
   </g>
   <g id="patch_46">
    <path d="M 322.329 388.6 
L 328.263555 388.6 
L 328.263555 189.48015 
L 322.329 189.48015 
z
" clip-path="url(#p9404ea46b2)" style="fill: #87ceeb; opacity: 0.7; stroke: #000000; stroke-linejoin: miter"/>
   </g>
   <g id="patch_47">
    <path d="M 328.263555 388.6 
L 334.198111 388.6 
L 334.198111 168.834082 
L 328.263555 168.834082 
z
" clip-path="url(#p9404ea46b2)" style="fill: #87ceeb; opacity: 0.7; stroke: #000000; stroke-linejoin: miter"/>
   </g>
   <g id="patch_48">
    <path d="M 334.198111 388.6 
L 340.132666 388.6 
L 340.132666 241.324719 
L 334.198111 241.324719 
z
" clip-path="url(#p9404ea46b2)" style="fill: #87ceeb; opacity: 0.7; stroke: #000000; stroke-linejoin: miter"/>
   </g>
   <g id="patch_49">
    <path d="M 340.132666 388.6 
L 346.067222 388.6 
L 346.067222 243.159925 
L 340.132666 243.159925 
z
" clip-path="url(#p9404ea46b2)" style="fill: #87ceeb; opacity: 0.7; stroke: #000000; stroke-linejoin: miter"/>
   </g>
   <g id="patch_50">
    <path d="M 346.067222 388.6 
L 352.001777 388.6 
L 352.001777 272.982022 
L 346.067222 272.982022 
z
" clip-path="url(#p9404ea46b2)" style="fill: #87ceeb; opacity: 0.7; stroke: #000000; stroke-linejoin: miter"/>
   </g>
   <g id="patch_51">
    <path d="M 352.001777 388.6 
L 357.936333 388.6 
L 357.936333 296.8397 
L 352.001777 296.8397 
z
" clip-path="url(#p9404ea46b2)" style="fill: #87ceeb; opacity: 0.7; stroke: #000000; stroke-linejoin: miter"/>
   </g>
   <g id="patch_52">
    <path d="M 357.936333 388.6 
L 363.870888 388.6 
L 363.870888 314.274157 
L 357.936333 314.274157 
z
" clip-path="url(#p9404ea46b2)" style="fill: #87ceeb; opacity: 0.7; stroke: #000000; stroke-linejoin: miter"/>
   </g>
   <g id="patch_53">
    <path d="M 363.870888 388.6 
L 369.805444 388.6 
L 369.805444 289.957678 
L 363.870888 289.957678 
z
" clip-path="url(#p9404ea46b2)" style="fill: #87ceeb; opacity: 0.7; stroke: #000000; stroke-linejoin: miter"/>
   </g>
   <g id="patch_54">
    <path d="M 369.805444 388.6 
L 375.739999 388.6 
L 375.739999 331.708614 
L 369.805444 331.708614 
z
" clip-path="url(#p9404ea46b2)" style="fill: #87ceeb; opacity: 0.7; stroke: #000000; stroke-linejoin: miter"/>
   </g>
   <g id="patch_55">
    <path d="M 375.739999 388.6 
L 381.674555 388.6 
L 381.674555 350.978277 
L 375.739999 350.978277 
z
" clip-path="url(#p9404ea46b2)" style="fill: #87ceeb; opacity: 0.7; stroke: #000000; stroke-linejoin: miter"/>
   </g>
   <g id="patch_56">
    <path d="M 381.674555 388.6 
L 387.60911 388.6 
L 387.60911 352.354682 
L 381.674555 352.354682 
z
" clip-path="url(#p9404ea46b2)" style="fill: #87ceeb; opacity: 0.7; stroke: #000000; stroke-linejoin: miter"/>
   </g>
   <g id="patch_57">
    <path d="M 387.60911 388.6 
L 393.543666 388.6 
L 393.543666 336.296629 
L 387.60911 336.296629 
z
" clip-path="url(#p9404ea46b2)" style="fill: #87ceeb; opacity: 0.7; stroke: #000000; stroke-linejoin: miter"/>
   </g>
   <g id="patch_58">
    <path d="M 393.543666 388.6 
L 399.478221 388.6 
L 399.478221 334.461423 
L 393.543666 334.461423 
z
" clip-path="url(#p9404ea46b2)" style="fill: #87ceeb; opacity: 0.7; stroke: #000000; stroke-linejoin: miter"/>
   </g>
   <g id="patch_59">
    <path d="M 399.478221 388.6 
L 405.412777 388.6 
L 405.412777 357.8603 
L 399.478221 357.8603 
z
" clip-path="url(#p9404ea46b2)" style="fill: #87ceeb; opacity: 0.7; stroke: #000000; stroke-linejoin: miter"/>
   </g>
   <g id="patch_60">
    <path d="M 405.412777 388.6 
L 411.347332 388.6 
L 411.347332 378.965169 
L 405.412777 378.965169 
z
" clip-path="url(#p9404ea46b2)" style="fill: #87ceeb; opacity: 0.7; stroke: #000000; stroke-linejoin: miter"/>
   </g>
   <g id="patch_61">
    <path d="M 411.347332 388.6 
L 417.281887 388.6 
L 417.281887 383.094382 
L 411.347332 383.094382 
z
" clip-path="url(#p9404ea46b2)" style="fill: #87ceeb; opacity: 0.7; stroke: #000000; stroke-linejoin: miter"/>
   </g>
   <g id="patch_62">
    <path d="M 417.281887 388.6 
L 423.216443 388.6 
L 423.216443 381.717978 
L 417.281887 381.717978 
z
" clip-path="url(#p9404ea46b2)" style="fill: #87ceeb; opacity: 0.7; stroke: #000000; stroke-linejoin: miter"/>
   </g>
   <g id="patch_63">
    <path d="M 423.216443 388.6 
L 429.150998 388.6 
L 429.150998 376.671161 
L 423.216443 376.671161 
z
" clip-path="url(#p9404ea46b2)" style="fill: #87ceeb; opacity: 0.7; stroke: #000000; stroke-linejoin: miter"/>
   </g>
   <g id="patch_64">
    <path d="M 429.150998 388.6 
L 435.085554 388.6 
L 435.085554 376.21236 
L 429.150998 376.21236 
z
" clip-path="url(#p9404ea46b2)" style="fill: #87ceeb; opacity: 0.7; stroke: #000000; stroke-linejoin: miter"/>
   </g>
   <g id="patch_65">
    <path d="M 435.085554 388.6 
L 441.020109 388.6 
L 441.020109 361.989513 
L 435.085554 361.989513 
z
" clip-path="url(#p9404ea46b2)" style="fill: #87ceeb; opacity: 0.7; stroke: #000000; stroke-linejoin: miter"/>
   </g>
   <g id="patch_66">
    <path d="M 441.020109 388.6 
L 446.954665 388.6 
L 446.954665 366.577528 
L 441.020109 366.577528 
z
" clip-path="url(#p9404ea46b2)" style="fill: #87ceeb; opacity: 0.7; stroke: #000000; stroke-linejoin: miter"/>
   </g>
   <g id="patch_67">
    <path d="M 446.954665 388.6 
L 452.88922 388.6 
L 452.88922 366.577528 
L 446.954665 366.577528 
z
" clip-path="url(#p9404ea46b2)" style="fill: #87ceeb; opacity: 0.7; stroke: #000000; stroke-linejoin: miter"/>
   </g>
   <g id="patch_68">
    <path d="M 452.88922 388.6 
L 458.823776 388.6 
L 458.823776 357.8603 
L 452.88922 357.8603 
z
" clip-path="url(#p9404ea46b2)" style="fill: #87ceeb; opacity: 0.7; stroke: #000000; stroke-linejoin: miter"/>
   </g>
   <g id="patch_69">
    <path d="M 458.823776 388.6 
L 464.758331 388.6 
L 464.758331 383.553184 
L 458.823776 383.553184 
z
" clip-path="url(#p9404ea46b2)" style="fill: #87ceeb; opacity: 0.7; stroke: #000000; stroke-linejoin: miter"/>
   </g>
   <g id="patch_70">
    <path d="M 464.758331 388.6 
L 470.692887 388.6 
L 470.692887 374.377154 
L 464.758331 374.377154 
z
" clip-path="url(#p9404ea46b2)" style="fill: #87ceeb; opacity: 0.7; stroke: #000000; stroke-linejoin: miter"/>
   </g>
   <g id="matplotlib.axis_1">
    <g id="xtick_1">
     <g id="line2d_1">
      <path d="M 89.94048 388.6 
L 89.94048 45.6 
" clip-path="url(#p9404ea46b2)" style="fill: none; stroke: #b0b0b0; stroke-opacity: 0.3; stroke-width: 0.8; stroke-linecap: square"/>
     </g>
     <g id="line2d_2">
      <defs>
       <path id="mc7ef1d0faa" d="M 0 0 
L 0 3.5 
" style="stroke: #000000; stroke-width: 0.8"/>
      </defs>
      <g>
       <use xlink:href="#mc7ef1d0faa" x="89.94048" y="388.6" style="stroke: #000000; stroke-width: 0.8"/>
      </g>
     </g>
     <g id="text_1">
      <!-- −0.3 -->
      <g transform="translate(77.799073 403.198437) scale(0.1 -0.1)">
       <defs>
        <path id="DejaVuSans-2212" d="M 678 2272 
L 4684 2272 
L 4684 1741 
L 678 1741 
L 678 2272 
z
" transform="scale(0.015625)"/>
        <path id="DejaVuSans-30" d="M 2034 4250 
Q 1547 4250 1301 3770 
Q 1056 3291 1056 2328 
Q 1056 1369 1301 889 
Q 1547 409 2034 409 
Q 2525 409 2770 889 
Q 3016 1369 3016 2328 
Q 3016 3291 2770 3770 
Q 2525 4250 2034 4250 
z
M 2034 4750 
Q 2819 4750 3233 4129 
Q 3647 3509 3647 2328 
Q 3647 1150 3233 529 
Q 2819 -91 2034 -91 
Q 1250 -91 836 529 
Q 422 1150 422 2328 
Q 422 3509 836 4129 
Q 1250 4750 2034 4750 
z
" transform="scale(0.015625)"/>
        <path id="DejaVuSans-2e" d="M 684 794 
L 1344 794 
L 1344 0 
L 684 0 
L 684 794 
z
" transform="scale(0.015625)"/>
        <path id="DejaVuSans-33" d="M 2597 2516 
Q 3050 2419 3304 2112 
Q 3559 1806 3559 1356 
Q 3559 666 3084 287 
Q 2609 -91 1734 -91 
Q 1441 -91 1130 -33 
Q 819 25 488 141 
L 488 750 
Q 750 597 1062 519 
Q 1375 441 1716 441 
Q 2309 441 2620 675 
Q 2931 909 2931 1356 
Q 2931 1769 2642 2001 
Q 2353 2234 1838 2234 
L 1294 2234 
L 1294 2753 
L 1863 2753 
Q 2328 2753 2575 2939 
Q 2822 3125 2822 3475 
Q 2822 3834 2567 4026 
Q 2313 4219 1838 4219 
Q 1578 4219 1281 4162 
Q 984 4106 628 3988 
L 628 4550 
Q 988 4650 1302 4700 
Q 1616 4750 1894 4750 
Q 2613 4750 3031 4423 
Q 3450 4097 3450 3541 
Q 3450 3153 3228 2886 
Q 3006 2619 2597 2516 
z
" transform="scale(0.015625)"/>
       </defs>
       <use xlink:href="#DejaVuSans-2212"/>
       <use xlink:href="#DejaVuSans-30" transform="translate(83.789062 0)"/>
       <use xlink:href="#DejaVuSans-2e" transform="translate(147.412109 0)"/>
       <use xlink:href="#DejaVuSans-33" transform="translate(179.199219 0)"/>
      </g>
     </g>
    </g>
    <g id="xtick_2">
     <g id="line2d_3">
      <path d="M 151.251834 388.6 
L 151.251834 45.6 
" clip-path="url(#p9404ea46b2)" style="fill: none; stroke: #b0b0b0; stroke-opacity: 0.3; stroke-width: 0.8; stroke-linecap: square"/>
     </g>
     <g id="line2d_4">
      <g>
       <use xlink:href="#mc7ef1d0faa" x="151.251834" y="388.6" style="stroke: #000000; stroke-width: 0.8"/>
      </g>
     </g>
     <g id="text_2">
      <!-- −0.2 -->
      <g transform="translate(139.110428 403.198437) scale(0.1 -0.1)">
       <defs>
        <path id="DejaVuSans-32" d="M 1228 531 
L 3431 531 
L 3431 0 
L 469 0 
L 469 531 
Q 828 903 1448 1529 
Q 2069 2156 2228 2338 
Q 2531 2678 2651 2914 
Q 2772 3150 2772 3378 
Q 2772 3750 2511 3984 
Q 2250 4219 1831 4219 
Q 1534 4219 1204 4116 
Q 875 4013 500 3803 
L 500 4441 
Q 881 4594 1212 4672 
Q 1544 4750 1819 4750 
Q 2544 4750 2975 4387 
Q 3406 4025 3406 3419 
Q 3406 3131 3298 2873 
Q 3191 2616 2906 2266 
Q 2828 2175 2409 1742 
Q 1991 1309 1228 531 
z
" transform="scale(0.015625)"/>
       </defs>
       <use xlink:href="#DejaVuSans-2212"/>
       <use xlink:href="#DejaVuSans-30" transform="translate(83.789062 0)"/>
       <use xlink:href="#DejaVuSans-2e" transform="translate(147.412109 0)"/>
       <use xlink:href="#DejaVuSans-32" transform="translate(179.199219 0)"/>
      </g>
     </g>
    </g>
    <g id="xtick_3">
     <g id="line2d_5">
      <path d="M 212.563189 388.6 
L 212.563189 45.6 
" clip-path="url(#p9404ea46b2)" style="fill: none; stroke: #b0b0b0; stroke-opacity: 0.3; stroke-width: 0.8; stroke-linecap: square"/>
     </g>
     <g id="line2d_6">
      <g>
       <use xlink:href="#mc7ef1d0faa" x="212.563189" y="388.6" style="stroke: #000000; stroke-width: 0.8"/>
      </g>
     </g>
     <g id="text_3">
      <!-- −0.1 -->
      <g transform="translate(200.421783 403.198437) scale(0.1 -0.1)">
       <defs>
        <path id="DejaVuSans-31" d="M 794 531 
L 1825 531 
L 1825 4091 
L 703 3866 
L 703 4441 
L 1819 4666 
L 2450 4666 
L 2450 531 
L 3481 531 
L 3481 0 
L 794 0 
L 794 531 
z
" transform="scale(0.015625)"/>
       </defs>
       <use xlink:href="#DejaVuSans-2212"/>
       <use xlink:href="#DejaVuSans-30" transform="translate(83.789062 0)"/>
       <use xlink:href="#DejaVuSans-2e" transform="translate(147.412109 0)"/>
       <use xlink:href="#DejaVuSans-31" transform="translate(179.199219 0)"/>
      </g>
     </g>
    </g>
    <g id="xtick_4">
     <g id="line2d_7">
      <path d="M 273.874543 388.6 
L 273.874543 45.6 
" clip-path="url(#p9404ea46b2)" style="fill: none; stroke: #b0b0b0; stroke-opacity: 0.3; stroke-width: 0.8; stroke-linecap: square"/>
     </g>
     <g id="line2d_8">
      <g>
       <use xlink:href="#mc7ef1d0faa" x="273.874543" y="388.6" style="stroke: #000000; stroke-width: 0.8"/>
      </g>
     </g>
     <g id="text_4">
      <!-- 0.0 -->
      <g transform="translate(265.922981 403.198437) scale(0.1 -0.1)">
       <use xlink:href="#DejaVuSans-30"/>
       <use xlink:href="#DejaVuSans-2e" transform="translate(63.623047 0)"/>
       <use xlink:href="#DejaVuSans-30" transform="translate(95.410156 0)"/>
      </g>
     </g>
    </g>
    <g id="xtick_5">
     <g id="line2d_9">
      <path d="M 335.185898 388.6 
L 335.185898 45.6 
" clip-path="url(#p9404ea46b2)" style="fill: none; stroke: #b0b0b0; stroke-opacity: 0.3; stroke-width: 0.8; stroke-linecap: square"/>
     </g>
     <g id="line2d_10">
      <g>
       <use xlink:href="#mc7ef1d0faa" x="335.185898" y="388.6" style="stroke: #000000; stroke-width: 0.8"/>
      </g>
     </g>
     <g id="text_5">
      <!-- 0.1 -->
      <g transform="translate(327.234335 403.198437) scale(0.1 -0.1)">
       <use xlink:href="#DejaVuSans-30"/>
       <use xlink:href="#DejaVuSans-2e" transform="translate(63.623047 0)"/>
       <use xlink:href="#DejaVuSans-31" transform="translate(95.410156 0)"/>
      </g>
     </g>
    </g>
    <g id="xtick_6">
     <g id="line2d_11">
      <path d="M 396.497253 388.6 
L 396.497253 45.6 
" clip-path="url(#p9404ea46b2)" style="fill: none; stroke: #b0b0b0; stroke-opacity: 0.3; stroke-width: 0.8; stroke-linecap: square"/>
     </g>
     <g id="line2d_12">
      <g>
       <use xlink:href="#mc7ef1d0faa" x="396.497253" y="388.6" style="stroke: #000000; stroke-width: 0.8"/>
      </g>
     </g>
     <g id="text_6">
      <!-- 0.2 -->
      <g transform="translate(388.54569 403.198437) scale(0.1 -0.1)">
       <use xlink:href="#DejaVuSans-30"/>
       <use xlink:href="#DejaVuSans-2e" transform="translate(63.623047 0)"/>
       <use xlink:href="#DejaVuSans-32" transform="translate(95.410156 0)"/>
      </g>
     </g>
    </g>
    <g id="xtick_7">
     <g id="line2d_13">
      <path d="M 457.808607 388.6 
L 457.808607 45.6 
" clip-path="url(#p9404ea46b2)" style="fill: none; stroke: #b0b0b0; stroke-opacity: 0.3; stroke-width: 0.8; stroke-linecap: square"/>
     </g>
     <g id="line2d_14">
      <g>
       <use xlink:href="#mc7ef1d0faa" x="457.808607" y="388.6" style="stroke: #000000; stroke-width: 0.8"/>
      </g>
     </g>
     <g id="text_7">
      <!-- 0.3 -->
      <g transform="translate(449.857045 403.198437) scale(0.1 -0.1)">
       <use xlink:href="#DejaVuSans-30"/>
       <use xlink:href="#DejaVuSans-2e" transform="translate(63.623047 0)"/>
       <use xlink:href="#DejaVuSans-33" transform="translate(95.410156 0)"/>
      </g>
     </g>
    </g>
    <g id="text_8">
     <!-- Error (degrees) -->
     <g transform="translate(231.116438 416.876562) scale(0.1 -0.1)">
      <defs>
       <path id="DejaVuSans-45" d="M 628 4666 
L 3578 4666 
L 3578 4134 
L 1259 4134 
L 1259 2753 
L 3481 2753 
L 3481 2222 
L 1259 2222 
L 1259 531 
L 3634 531 
L 3634 0 
L 628 0 
L 628 4666 
z
" transform="scale(0.015625)"/>
       <path id="DejaVuSans-72" d="M 2631 2963 
Q 2534 3019 2420 3045 
Q 2306 3072 2169 3072 
Q 1681 3072 1420 2755 
Q 1159 2438 1159 1844 
L 1159 0 
L 581 0 
L 581 3500 
L 1159 3500 
L 1159 2956 
Q 1341 3275 1631 3429 
Q 1922 3584 2338 3584 
Q 2397 3584 2469 3576 
Q 2541 3569 2628 3553 
L 2631 2963 
z
" transform="scale(0.015625)"/>
       <path id="DejaVuSans-6f" d="M 1959 3097 
Q 1497 3097 1228 2736 
Q 959 2375 959 1747 
Q 959 1119 1226 758 
Q 1494 397 1959 397 
Q 2419 397 2687 759 
Q 2956 1122 2956 1747 
Q 2956 2369 2687 2733 
Q 2419 3097 1959 3097 
z
M 1959 3584 
Q 2709 3584 3137 3096 
Q 3566 2609 3566 1747 
Q 3566 888 3137 398 
Q 2709 -91 1959 -91 
Q 1206 -91 779 398 
Q 353 888 353 1747 
Q 353 2609 779 3096 
Q 1206 3584 1959 3584 
z
" transform="scale(0.015625)"/>
       <path id="DejaVuSans-20" transform="scale(0.015625)"/>
       <path id="DejaVuSans-28" d="M 1984 4856 
Q 1566 4138 1362 3434 
Q 1159 2731 1159 2009 
Q 1159 1288 1364 580 
Q 1569 -128 1984 -844 
L 1484 -844 
Q 1016 -109 783 600 
Q 550 1309 550 2009 
Q 550 2706 781 3412 
Q 1013 4119 1484 4856 
L 1984 4856 
z
" transform="scale(0.015625)"/>
       <path id="DejaVuSans-64" d="M 2906 2969 
L 2906 4863 
L 3481 4863 
L 3481 0 
L 2906 0 
L 2906 525 
Q 2725 213 2448 61 
Q 2172 -91 1784 -91 
Q 1150 -91 751 415 
Q 353 922 353 1747 
Q 353 2572 751 3078 
Q 1150 3584 1784 3584 
Q 2172 3584 2448 3432 
Q 2725 3281 2906 2969 
z
M 947 1747 
Q 947 1113 1208 752 
Q 1469 391 1925 391 
Q 2381 391 2643 752 
Q 2906 1113 2906 1747 
Q 2906 2381 2643 2742 
Q 2381 3103 1925 3103 
Q 1469 3103 1208 2742 
Q 947 2381 947 1747 
z
" transform="scale(0.015625)"/>
       <path id="DejaVuSans-65" d="M 3597 1894 
L 3597 1613 
L 953 1613 
Q 991 1019 1311 708 
Q 1631 397 2203 397 
Q 2534 397 2845 478 
Q 3156 559 3463 722 
L 3463 178 
Q 3153 47 2828 -22 
Q 2503 -91 2169 -91 
Q 1331 -91 842 396 
Q 353 884 353 1716 
Q 353 2575 817 3079 
Q 1281 3584 2069 3584 
Q 2775 3584 3186 3129 
Q 3597 2675 3597 1894 
z
M 3022 2063 
Q 3016 2534 2758 2815 
Q 2500 3097 2075 3097 
Q 1594 3097 1305 2825 
Q 1016 2553 972 2059 
L 3022 2063 
z
" transform="scale(0.015625)"/>
       <path id="DejaVuSans-67" d="M 2906 1791 
Q 2906 2416 2648 2759 
Q 2391 3103 1925 3103 
Q 1463 3103 1205 2759 
Q 947 2416 947 1791 
Q 947 1169 1205 825 
Q 1463 481 1925 481 
Q 2391 481 2648 825 
Q 2906 1169 2906 1791 
z
M 3481 434 
Q 3481 -459 3084 -895 
Q 2688 -1331 1869 -1331 
Q 1566 -1331 1297 -1286 
Q 1028 -1241 775 -1147 
L 775 -588 
Q 1028 -725 1275 -790 
Q 1522 -856 1778 -856 
Q 2344 -856 2625 -561 
Q 2906 -266 2906 331 
L 2906 616 
Q 2728 306 2450 153 
Q 2172 0 1784 0 
Q 1141 0 747 490 
Q 353 981 353 1791 
Q 353 2603 747 3093 
Q 1141 3584 1784 3584 
Q 2172 3584 2450 3431 
Q 2728 3278 2906 2969 
L 2906 3500 
L 3481 3500 
L 3481 434 
z
" transform="scale(0.015625)"/>
       <path id="DejaVuSans-73" d="M 2834 3397 
L 2834 2853 
Q 2591 2978 2328 3040 
Q 2066 3103 1784 3103 
Q 1356 3103 1142 2972 
Q 928 2841 928 2578 
Q 928 2378 1081 2264 
Q 1234 2150 1697 2047 
L 1894 2003 
Q 2506 1872 2764 1633 
Q 3022 1394 3022 966 
Q 3022 478 2636 193 
Q 2250 -91 1575 -91 
Q 1294 -91 989 -36 
Q 684 19 347 128 
L 347 722 
Q 666 556 975 473 
Q 1284 391 1588 391 
Q 1994 391 2212 530 
Q 2431 669 2431 922 
Q 2431 1156 2273 1281 
Q 2116 1406 1581 1522 
L 1381 1569 
Q 847 1681 609 1914 
Q 372 2147 372 2553 
Q 372 3047 722 3315 
Q 1072 3584 1716 3584 
Q 2034 3584 2315 3537 
Q 2597 3491 2834 3397 
z
" transform="scale(0.015625)"/>
       <path id="DejaVuSans-29" d="M 513 4856 
L 1013 4856 
Q 1481 4119 1714 3412 
Q 1947 2706 1947 2009 
Q 1947 1309 1714 600 
Q 1481 -109 1013 -844 
L 513 -844 
Q 928 -128 1133 580 
Q 1338 1288 1338 2009 
Q 1338 2731 1133 3434 
Q 928 4138 513 4856 
z
" transform="scale(0.015625)"/>
      </defs>
      <use xlink:href="#DejaVuSans-45"/>
      <use xlink:href="#DejaVuSans-72" transform="translate(63.183594 0)"/>
      <use xlink:href="#DejaVuSans-72" transform="translate(102.546875 0)"/>
      <use xlink:href="#DejaVuSans-6f" transform="translate(141.410156 0)"/>
      <use xlink:href="#DejaVuSans-72" transform="translate(202.591797 0)"/>
      <use xlink:href="#DejaVuSans-20" transform="translate(243.705078 0)"/>
      <use xlink:href="#DejaVuSans-28" transform="translate(275.492188 0)"/>
      <use xlink:href="#DejaVuSans-64" transform="translate(314.505859 0)"/>
      <use xlink:href="#DejaVuSans-65" transform="translate(377.982422 0)"/>
      <use xlink:href="#DejaVuSans-67" transform="translate(439.505859 0)"/>
      <use xlink:href="#DejaVuSans-72" transform="translate(502.982422 0)"/>
      <use xlink:href="#DejaVuSans-65" transform="translate(541.845703 0)"/>
      <use xlink:href="#DejaVuSans-65" transform="translate(603.369141 0)"/>
      <use xlink:href="#DejaVuSans-73" transform="translate(664.892578 0)"/>
      <use xlink:href="#DejaVuSans-29" transform="translate(716.992188 0)"/>
     </g>
    </g>
   </g>
   <g id="matplotlib.axis_2">
    <g id="ytick_1">
     <g id="line2d_15">
      <path d="M 46.965625 388.6 
L 490.870376 388.6 
" clip-path="url(#p9404ea46b2)" style="fill: none; stroke: #b0b0b0; stroke-opacity: 0.3; stroke-width: 0.8; stroke-linecap: square"/>
     </g>
     <g id="line2d_16">
      <defs>
       <path id="m286049fb12" d="M 0 0 
L -3.5 0 
" style="stroke: #000000; stroke-width: 0.8"/>
      </defs>
      <g>
       <use xlink:href="#m286049fb12" x="46.965625" y="388.6" style="stroke: #000000; stroke-width: 0.8"/>
      </g>
     </g>
     <g id="text_9">
      <!-- 0 -->
      <g transform="translate(33.603125 392.399219) scale(0.1 -0.1)">
       <use xlink:href="#DejaVuSans-30"/>
      </g>
     </g>
    </g>
    <g id="ytick_2">
     <g id="line2d_17">
      <path d="M 46.965625 342.71985 
L 490.870376 342.71985 
" clip-path="url(#p9404ea46b2)" style="fill: none; stroke: #b0b0b0; stroke-opacity: 0.3; stroke-width: 0.8; stroke-linecap: square"/>
     </g>
     <g id="line2d_18">
      <g>
       <use xlink:href="#m286049fb12" x="46.965625" y="342.71985" style="stroke: #000000; stroke-width: 0.8"/>
      </g>
     </g>
     <g id="text_10">
      <!-- 100 -->
      <g transform="translate(20.878125 346.519069) scale(0.1 -0.1)">
       <use xlink:href="#DejaVuSans-31"/>
       <use xlink:href="#DejaVuSans-30" transform="translate(63.623047 0)"/>
       <use xlink:href="#DejaVuSans-30" transform="translate(127.246094 0)"/>
      </g>
     </g>
    </g>
    <g id="ytick_3">
     <g id="line2d_19">
      <path d="M 46.965625 296.8397 
L 490.870376 296.8397 
" clip-path="url(#p9404ea46b2)" style="fill: none; stroke: #b0b0b0; stroke-opacity: 0.3; stroke-width: 0.8; stroke-linecap: square"/>
     </g>
     <g id="line2d_20">
      <g>
       <use xlink:href="#m286049fb12" x="46.965625" y="296.8397" style="stroke: #000000; stroke-width: 0.8"/>
      </g>
     </g>
     <g id="text_11">
      <!-- 200 -->
      <g transform="translate(20.878125 300.638919) scale(0.1 -0.1)">
       <use xlink:href="#DejaVuSans-32"/>
       <use xlink:href="#DejaVuSans-30" transform="translate(63.623047 0)"/>
       <use xlink:href="#DejaVuSans-30" transform="translate(127.246094 0)"/>
      </g>
     </g>
    </g>
    <g id="ytick_4">
     <g id="line2d_21">
      <path d="M 46.965625 250.959551 
L 490.870376 250.959551 
" clip-path="url(#p9404ea46b2)" style="fill: none; stroke: #b0b0b0; stroke-opacity: 0.3; stroke-width: 0.8; stroke-linecap: square"/>
     </g>
     <g id="line2d_22">
      <g>
       <use xlink:href="#m286049fb12" x="46.965625" y="250.959551" style="stroke: #000000; stroke-width: 0.8"/>
      </g>
     </g>
     <g id="text_12">
      <!-- 300 -->
      <g transform="translate(20.878125 254.758769) scale(0.1 -0.1)">
       <use xlink:href="#DejaVuSans-33"/>
       <use xlink:href="#DejaVuSans-30" transform="translate(63.623047 0)"/>
       <use xlink:href="#DejaVuSans-30" transform="translate(127.246094 0)"/>
      </g>
     </g>
    </g>
    <g id="ytick_5">
     <g id="line2d_23">
      <path d="M 46.965625 205.079401 
L 490.870376 205.079401 
" clip-path="url(#p9404ea46b2)" style="fill: none; stroke: #b0b0b0; stroke-opacity: 0.3; stroke-width: 0.8; stroke-linecap: square"/>
     </g>
     <g id="line2d_24">
      <g>
       <use xlink:href="#m286049fb12" x="46.965625" y="205.079401" style="stroke: #000000; stroke-width: 0.8"/>
      </g>
     </g>
     <g id="text_13">
      <!-- 400 -->
      <g transform="translate(20.878125 208.878619) scale(0.1 -0.1)">
       <defs>
        <path id="DejaVuSans-34" d="M 2419 4116 
L 825 1625 
L 2419 1625 
L 2419 4116 
z
M 2253 4666 
L 3047 4666 
L 3047 1625 
L 3713 1625 
L 3713 1100 
L 3047 1100 
L 3047 0 
L 2419 0 
L 2419 1100 
L 313 1100 
L 313 1709 
L 2253 4666 
z
" transform="scale(0.015625)"/>
       </defs>
       <use xlink:href="#DejaVuSans-34"/>
       <use xlink:href="#DejaVuSans-30" transform="translate(63.623047 0)"/>
       <use xlink:href="#DejaVuSans-30" transform="translate(127.246094 0)"/>
      </g>
     </g>
    </g>
    <g id="ytick_6">
     <g id="line2d_25">
      <path d="M 46.965625 159.199251 
L 490.870376 159.199251 
" clip-path="url(#p9404ea46b2)" style="fill: none; stroke: #b0b0b0; stroke-opacity: 0.3; stroke-width: 0.8; stroke-linecap: square"/>
     </g>
     <g id="line2d_26">
      <g>
       <use xlink:href="#m286049fb12" x="46.965625" y="159.199251" style="stroke: #000000; stroke-width: 0.8"/>
      </g>
     </g>
     <g id="text_14">
      <!-- 500 -->
      <g transform="translate(20.878125 162.99847) scale(0.1 -0.1)">
       <defs>
        <path id="DejaVuSans-35" d="M 691 4666 
L 3169 4666 
L 3169 4134 
L 1269 4134 
L 1269 2991 
Q 1406 3038 1543 3061 
Q 1681 3084 1819 3084 
Q 2600 3084 3056 2656 
Q 3513 2228 3513 1497 
Q 3513 744 3044 326 
Q 2575 -91 1722 -91 
Q 1428 -91 1123 -41 
Q 819 9 494 109 
L 494 744 
Q 775 591 1075 516 
Q 1375 441 1709 441 
Q 2250 441 2565 725 
Q 2881 1009 2881 1497 
Q 2881 1984 2565 2268 
Q 2250 2553 1709 2553 
Q 1456 2553 1204 2497 
Q 953 2441 691 2322 
L 691 4666 
z
" transform="scale(0.015625)"/>
       </defs>
       <use xlink:href="#DejaVuSans-35"/>
       <use xlink:href="#DejaVuSans-30" transform="translate(63.623047 0)"/>
       <use xlink:href="#DejaVuSans-30" transform="translate(127.246094 0)"/>
      </g>
     </g>
    </g>
    <g id="ytick_7">
     <g id="line2d_27">
      <path d="M 46.965625 113.319101 
L 490.870376 113.319101 
" clip-path="url(#p9404ea46b2)" style="fill: none; stroke: #b0b0b0; stroke-opacity: 0.3; stroke-width: 0.8; stroke-linecap: square"/>
     </g>
     <g id="line2d_28">
      <g>
       <use xlink:href="#m286049fb12" x="46.965625" y="113.319101" style="stroke: #000000; stroke-width: 0.8"/>
      </g>
     </g>
     <g id="text_15">
      <!-- 600 -->
      <g transform="translate(20.878125 117.11832) scale(0.1 -0.1)">
       <defs>
        <path id="DejaVuSans-36" d="M 2113 2584 
Q 1688 2584 1439 2293 
Q 1191 2003 1191 1497 
Q 1191 994 1439 701 
Q 1688 409 2113 409 
Q 2538 409 2786 701 
Q 3034 994 3034 1497 
Q 3034 2003 2786 2293 
Q 2538 2584 2113 2584 
z
M 3366 4563 
L 3366 3988 
Q 3128 4100 2886 4159 
Q 2644 4219 2406 4219 
Q 1781 4219 1451 3797 
Q 1122 3375 1075 2522 
Q 1259 2794 1537 2939 
Q 1816 3084 2150 3084 
Q 2853 3084 3261 2657 
Q 3669 2231 3669 1497 
Q 3669 778 3244 343 
Q 2819 -91 2113 -91 
Q 1303 -91 875 529 
Q 447 1150 447 2328 
Q 447 3434 972 4092 
Q 1497 4750 2381 4750 
Q 2619 4750 2861 4703 
Q 3103 4656 3366 4563 
z
" transform="scale(0.015625)"/>
       </defs>
       <use xlink:href="#DejaVuSans-36"/>
       <use xlink:href="#DejaVuSans-30" transform="translate(63.623047 0)"/>
       <use xlink:href="#DejaVuSans-30" transform="translate(127.246094 0)"/>
      </g>
     </g>
    </g>
    <g id="ytick_8">
     <g id="line2d_29">
      <path d="M 46.965625 67.438951 
L 490.870376 67.438951 
" clip-path="url(#p9404ea46b2)" style="fill: none; stroke: #b0b0b0; stroke-opacity: 0.3; stroke-width: 0.8; stroke-linecap: square"/>
     </g>
     <g id="line2d_30">
      <g>
       <use xlink:href="#m286049fb12" x="46.965625" y="67.438951" style="stroke: #000000; stroke-width: 0.8"/>
      </g>
     </g>
     <g id="text_16">
      <!-- 700 -->
      <g transform="translate(20.878125 71.23817) scale(0.1 -0.1)">
       <defs>
        <path id="DejaVuSans-37" d="M 525 4666 
L 3525 4666 
L 3525 4397 
L 1831 0 
L 1172 0 
L 2766 4134 
L 525 4134 
L 525 4666 
z
" transform="scale(0.015625)"/>
       </defs>
       <use xlink:href="#DejaVuSans-37"/>
       <use xlink:href="#DejaVuSans-30" transform="translate(63.623047 0)"/>
       <use xlink:href="#DejaVuSans-30" transform="translate(127.246094 0)"/>
      </g>
     </g>
    </g>
    <g id="text_17">
     <!-- Frequency -->
     <g transform="translate(14.798437 242.929687) rotate(-90) scale(0.1 -0.1)">
      <defs>
       <path id="DejaVuSans-46" d="M 628 4666 
L 3309 4666 
L 3309 4134 
L 1259 4134 
L 1259 2759 
L 3109 2759 
L 3109 2228 
L 1259 2228 
L 1259 0 
L 628 0 
L 628 4666 
z
" transform="scale(0.015625)"/>
       <path id="DejaVuSans-71" d="M 947 1747 
Q 947 1113 1208 752 
Q 1469 391 1925 391 
Q 2381 391 2643 752 
Q 2906 1113 2906 1747 
Q 2906 2381 2643 2742 
Q 2381 3103 1925 3103 
Q 1469 3103 1208 2742 
Q 947 2381 947 1747 
z
M 2906 525 
Q 2725 213 2448 61 
Q 2172 -91 1784 -91 
Q 1150 -91 751 415 
Q 353 922 353 1747 
Q 353 2572 751 3078 
Q 1150 3584 1784 3584 
Q 2172 3584 2448 3432 
Q 2725 3281 2906 2969 
L 2906 3500 
L 3481 3500 
L 3481 -1331 
L 2906 -1331 
L 2906 525 
z
" transform="scale(0.015625)"/>
       <path id="DejaVuSans-75" d="M 544 1381 
L 544 3500 
L 1119 3500 
L 1119 1403 
Q 1119 906 1312 657 
Q 1506 409 1894 409 
Q 2359 409 2629 706 
Q 2900 1003 2900 1516 
L 2900 3500 
L 3475 3500 
L 3475 0 
L 2900 0 
L 2900 538 
Q 2691 219 2414 64 
Q 2138 -91 1772 -91 
Q 1169 -91 856 284 
Q 544 659 544 1381 
z
M 1991 3584 
L 1991 3584 
z
" transform="scale(0.015625)"/>
       <path id="DejaVuSans-6e" d="M 3513 2113 
L 3513 0 
L 2938 0 
L 2938 2094 
Q 2938 2591 2744 2837 
Q 2550 3084 2163 3084 
Q 1697 3084 1428 2787 
Q 1159 2491 1159 1978 
L 1159 0 
L 581 0 
L 581 3500 
L 1159 3500 
L 1159 2956 
Q 1366 3272 1645 3428 
Q 1925 3584 2291 3584 
Q 2894 3584 3203 3211 
Q 3513 2838 3513 2113 
z
" transform="scale(0.015625)"/>
       <path id="DejaVuSans-63" d="M 3122 3366 
L 3122 2828 
Q 2878 2963 2633 3030 
Q 2388 3097 2138 3097 
Q 1578 3097 1268 2742 
Q 959 2388 959 1747 
Q 959 1106 1268 751 
Q 1578 397 2138 397 
Q 2388 397 2633 464 
Q 2878 531 3122 666 
L 3122 134 
Q 2881 22 2623 -34 
Q 2366 -91 2075 -91 
Q 1284 -91 818 406 
Q 353 903 353 1747 
Q 353 2603 823 3093 
Q 1294 3584 2113 3584 
Q 2378 3584 2631 3529 
Q 2884 3475 3122 3366 
z
" transform="scale(0.015625)"/>
       <path id="DejaVuSans-79" d="M 2059 -325 
Q 1816 -950 1584 -1140 
Q 1353 -1331 966 -1331 
L 506 -1331 
L 506 -850 
L 844 -850 
Q 1081 -850 1212 -737 
Q 1344 -625 1503 -206 
L 1606 56 
L 191 3500 
L 800 3500 
L 1894 763 
L 2988 3500 
L 3597 3500 
L 2059 -325 
z
" transform="scale(0.015625)"/>
      </defs>
      <use xlink:href="#DejaVuSans-46"/>
      <use xlink:href="#DejaVuSans-72" transform="translate(50.269531 0)"/>
      <use xlink:href="#DejaVuSans-65" transform="translate(89.132812 0)"/>
      <use xlink:href="#DejaVuSans-71" transform="translate(150.65625 0)"/>
      <use xlink:href="#DejaVuSans-75" transform="translate(214.132812 0)"/>
      <use xlink:href="#DejaVuSans-65" transform="translate(277.511719 0)"/>
      <use xlink:href="#DejaVuSans-6e" transform="translate(339.035156 0)"/>
      <use xlink:href="#DejaVuSans-63" transform="translate(402.414062 0)"/>
      <use xlink:href="#DejaVuSans-79" transform="translate(457.394531 0)"/>
     </g>
    </g>
   </g>
   <g id="line2d_31">
    <path d="M 273.874543 388.6 
L 273.874543 45.6 
" clip-path="url(#p9404ea46b2)" style="fill: none; stroke-dasharray: 7.4,3.2; stroke-dashoffset: 0; stroke: #ff0000; stroke-width: 2"/>
   </g>
   <g id="line2d_32">
    <path d="M 276.704358 388.6 
L 276.704358 45.6 
" clip-path="url(#p9404ea46b2)" style="fill: none; stroke-dasharray: 7.4,3.2; stroke-dashoffset: 0; stroke: #ffa500; stroke-width: 2"/>
   </g>
   <g id="patch_71">
    <path d="M 46.965625 388.6 
L 46.965625 45.6 
" style="fill: none; stroke: #000000; stroke-width: 0.8; stroke-linejoin: miter; stroke-linecap: square"/>
   </g>
   <g id="patch_72">
    <path d="M 490.870376 388.6 
L 490.870376 45.6 
" style="fill: none; stroke: #000000; stroke-width: 0.8; stroke-linejoin: miter; stroke-linecap: square"/>
   </g>
   <g id="patch_73">
    <path d="M 46.965625 388.6 
L 490.870376 388.6 
" style="fill: none; stroke: #000000; stroke-width: 0.8; stroke-linejoin: miter; stroke-linecap: square"/>
   </g>
   <g id="patch_74">
    <path d="M 46.965625 45.6 
L 490.870376 45.6 
" style="fill: none; stroke: #000000; stroke-width: 0.8; stroke-linejoin: miter; stroke-linecap: square"/>
   </g>
   <g id="text_18">
    <!-- Fourier Error Distribution -->
    <g transform="translate(194.4805 39.6) scale(0.12 -0.12)">
     <defs>
      <path id="DejaVuSans-69" d="M 603 3500 
L 1178 3500 
L 1178 0 
L 603 0 
L 603 3500 
z
M 603 4863 
L 1178 4863 
L 1178 4134 
L 603 4134 
L 603 4863 
z
" transform="scale(0.015625)"/>
      <path id="DejaVuSans-44" d="M 1259 4147 
L 1259 519 
L 2022 519 
Q 2988 519 3436 956 
Q 3884 1394 3884 2338 
Q 3884 3275 3436 3711 
Q 2988 4147 2022 4147 
L 1259 4147 
z
M 628 4666 
L 1925 4666 
Q 3281 4666 3915 4102 
Q 4550 3538 4550 2338 
Q 4550 1131 3912 565 
Q 3275 0 1925 0 
L 628 0 
L 628 4666 
z
" transform="scale(0.015625)"/>
      <path id="DejaVuSans-74" d="M 1172 4494 
L 1172 3500 
L 2356 3500 
L 2356 3053 
L 1172 3053 
L 1172 1153 
Q 1172 725 1289 603 
Q 1406 481 1766 481 
L 2356 481 
L 2356 0 
L 1766 0 
Q 1100 0 847 248 
Q 594 497 594 1153 
L 594 3053 
L 172 3053 
L 172 3500 
L 594 3500 
L 594 4494 
L 1172 4494 
z
" transform="scale(0.015625)"/>
      <path id="DejaVuSans-62" d="M 3116 1747 
Q 3116 2381 2855 2742 
Q 2594 3103 2138 3103 
Q 1681 3103 1420 2742 
Q 1159 2381 1159 1747 
Q 1159 1113 1420 752 
Q 1681 391 2138 391 
Q 2594 391 2855 752 
Q 3116 1113 3116 1747 
z
M 1159 2969 
Q 1341 3281 1617 3432 
Q 1894 3584 2278 3584 
Q 2916 3584 3314 3078 
Q 3713 2572 3713 1747 
Q 3713 922 3314 415 
Q 2916 -91 2278 -91 
Q 1894 -91 1617 61 
Q 1341 213 1159 525 
L 1159 0 
L 581 0 
L 581 4863 
L 1159 4863 
L 1159 2969 
z
" transform="scale(0.015625)"/>
     </defs>
     <use xlink:href="#DejaVuSans-46"/>
     <use xlink:href="#DejaVuSans-6f" transform="translate(53.894531 0)"/>
     <use xlink:href="#DejaVuSans-75" transform="translate(115.076172 0)"/>
     <use xlink:href="#DejaVuSans-72" transform="translate(178.455078 0)"/>
     <use xlink:href="#DejaVuSans-69" transform="translate(219.568359 0)"/>
     <use xlink:href="#DejaVuSans-65" transform="translate(247.351562 0)"/>
     <use xlink:href="#DejaVuSans-72" transform="translate(308.875 0)"/>
     <use xlink:href="#DejaVuSans-20" transform="translate(349.988281 0)"/>
     <use xlink:href="#DejaVuSans-45" transform="translate(381.775391 0)"/>
     <use xlink:href="#DejaVuSans-72" transform="translate(444.958984 0)"/>
     <use xlink:href="#DejaVuSans-72" transform="translate(484.322266 0)"/>
     <use xlink:href="#DejaVuSans-6f" transform="translate(523.185547 0)"/>
     <use xlink:href="#DejaVuSans-72" transform="translate(584.367188 0)"/>
     <use xlink:href="#DejaVuSans-20" transform="translate(625.480469 0)"/>
     <use xlink:href="#DejaVuSans-44" transform="translate(657.267578 0)"/>
     <use xlink:href="#DejaVuSans-69" transform="translate(734.269531 0)"/>
     <use xlink:href="#DejaVuSans-73" transform="translate(762.052734 0)"/>
     <use xlink:href="#DejaVuSans-74" transform="translate(814.152344 0)"/>
     <use xlink:href="#DejaVuSans-72" transform="translate(853.361328 0)"/>
     <use xlink:href="#DejaVuSans-69" transform="translate(894.474609 0)"/>
     <use xlink:href="#DejaVuSans-62" transform="translate(922.257812 0)"/>
     <use xlink:href="#DejaVuSans-75" transform="translate(985.734375 0)"/>
     <use xlink:href="#DejaVuSans-74" transform="translate(1049.113281 0)"/>
     <use xlink:href="#DejaVuSans-69" transform="translate(1088.322266 0)"/>
     <use xlink:href="#DejaVuSans-6f" transform="translate(1116.105469 0)"/>
     <use xlink:href="#DejaVuSans-6e" transform="translate(1177.287109 0)"/>
    </g>
   </g>
   <g id="legend_1">
    <g id="patch_75">
     <path d="M 377.295376 82.95625 
L 483.870376 82.95625 
Q 485.870376 82.95625 485.870376 80.95625 
L 485.870376 52.6 
Q 485.870376 50.6 483.870376 50.6 
L 377.295376 50.6 
Q 375.295376 50.6 375.295376 52.6 
L 375.295376 80.95625 
Q 375.295376 82.95625 377.295376 82.95625 
z
" style="fill: #ffffff; opacity: 0.8; stroke: #cccccc; stroke-linejoin: miter"/>
    </g>
    <g id="line2d_33">
     <path d="M 379.295376 58.698437 
L 389.295376 58.698437 
L 399.295376 58.698437 
" style="fill: none; stroke-dasharray: 7.4,3.2; stroke-dashoffset: 0; stroke: #ff0000; stroke-width: 2"/>
    </g>
    <g id="text_19">
     <!-- Zero Error Line -->
     <g transform="translate(407.295376 62.198437) scale(0.1 -0.1)">
      <defs>
       <path id="DejaVuSans-5a" d="M 359 4666 
L 4025 4666 
L 4025 4184 
L 1075 531 
L 4097 531 
L 4097 0 
L 288 0 
L 288 481 
L 3238 4134 
L 359 4134 
L 359 4666 
z
" transform="scale(0.015625)"/>
       <path id="DejaVuSans-4c" d="M 628 4666 
L 1259 4666 
L 1259 531 
L 3531 531 
L 3531 0 
L 628 0 
L 628 4666 
z
" transform="scale(0.015625)"/>
      </defs>
      <use xlink:href="#DejaVuSans-5a"/>
      <use xlink:href="#DejaVuSans-65" transform="translate(68.505859 0)"/>
      <use xlink:href="#DejaVuSans-72" transform="translate(130.029297 0)"/>
      <use xlink:href="#DejaVuSans-6f" transform="translate(168.892578 0)"/>
      <use xlink:href="#DejaVuSans-20" transform="translate(230.074219 0)"/>
      <use xlink:href="#DejaVuSans-45" transform="translate(261.861328 0)"/>
      <use xlink:href="#DejaVuSans-72" transform="translate(325.044922 0)"/>
      <use xlink:href="#DejaVuSans-72" transform="translate(364.408203 0)"/>
      <use xlink:href="#DejaVuSans-6f" transform="translate(403.271484 0)"/>
      <use xlink:href="#DejaVuSans-72" transform="translate(464.453125 0)"/>
      <use xlink:href="#DejaVuSans-20" transform="translate(505.566406 0)"/>
      <use xlink:href="#DejaVuSans-4c" transform="translate(537.353516 0)"/>
      <use xlink:href="#DejaVuSans-69" transform="translate(593.066406 0)"/>
      <use xlink:href="#DejaVuSans-6e" transform="translate(620.849609 0)"/>
      <use xlink:href="#DejaVuSans-65" transform="translate(684.228516 0)"/>
     </g>
    </g>
    <g id="line2d_34">
     <path d="M 379.295376 73.376562 
L 389.295376 73.376562 
L 399.295376 73.376562 
" style="fill: none; stroke-dasharray: 7.4,3.2; stroke-dashoffset: 0; stroke: #ffa500; stroke-width: 2"/>
    </g>
    <g id="text_20">
     <!-- Mean: 0.0046° -->
     <g transform="translate(407.295376 76.876562) scale(0.1 -0.1)">
      <defs>
       <path id="DejaVuSans-4d" d="M 628 4666 
L 1569 4666 
L 2759 1491 
L 3956 4666 
L 4897 4666 
L 4897 0 
L 4281 0 
L 4281 4097 
L 3078 897 
L 2444 897 
L 1241 4097 
L 1241 0 
L 628 0 
L 628 4666 
z
" transform="scale(0.015625)"/>
       <path id="DejaVuSans-61" d="M 2194 1759 
Q 1497 1759 1228 1600 
Q 959 1441 959 1056 
Q 959 750 1161 570 
Q 1363 391 1709 391 
Q 2188 391 2477 730 
Q 2766 1069 2766 1631 
L 2766 1759 
L 2194 1759 
z
M 3341 1997 
L 3341 0 
L 2766 0 
L 2766 531 
Q 2569 213 2275 61 
Q 1981 -91 1556 -91 
Q 1019 -91 701 211 
Q 384 513 384 1019 
Q 384 1609 779 1909 
Q 1175 2209 1959 2209 
L 2766 2209 
L 2766 2266 
Q 2766 2663 2505 2880 
Q 2244 3097 1772 3097 
Q 1472 3097 1187 3025 
Q 903 2953 641 2809 
L 641 3341 
Q 956 3463 1253 3523 
Q 1550 3584 1831 3584 
Q 2591 3584 2966 3190 
Q 3341 2797 3341 1997 
z
" transform="scale(0.015625)"/>
       <path id="DejaVuSans-3a" d="M 750 794 
L 1409 794 
L 1409 0 
L 750 0 
L 750 794 
z
M 750 3309 
L 1409 3309 
L 1409 2516 
L 750 2516 
L 750 3309 
z
" transform="scale(0.015625)"/>
       <path id="DejaVuSans-b0" d="M 1600 4347 
Q 1350 4347 1178 4173 
Q 1006 4000 1006 3750 
Q 1006 3503 1178 3333 
Q 1350 3163 1600 3163 
Q 1850 3163 2022 3333 
Q 2194 3503 2194 3750 
Q 2194 3997 2020 4172 
Q 1847 4347 1600 4347 
z
M 1600 4750 
Q 1800 4750 1984 4673 
Q 2169 4597 2303 4453 
Q 2447 4313 2519 4134 
Q 2591 3956 2591 3750 
Q 2591 3338 2302 3052 
Q 2013 2766 1594 2766 
Q 1172 2766 890 3047 
Q 609 3328 609 3750 
Q 609 4169 896 4459 
Q 1184 4750 1600 4750 
z
" transform="scale(0.015625)"/>
      </defs>
      <use xlink:href="#DejaVuSans-4d"/>
      <use xlink:href="#DejaVuSans-65" transform="translate(86.279297 0)"/>
      <use xlink:href="#DejaVuSans-61" transform="translate(147.802734 0)"/>
      <use xlink:href="#DejaVuSans-6e" transform="translate(209.082031 0)"/>
      <use xlink:href="#DejaVuSans-3a" transform="translate(272.460938 0)"/>
      <use xlink:href="#DejaVuSans-20" transform="translate(306.152344 0)"/>
      <use xlink:href="#DejaVuSans-30" transform="translate(337.939453 0)"/>
      <use xlink:href="#DejaVuSans-2e" transform="translate(401.5625 0)"/>
      <use xlink:href="#DejaVuSans-30" transform="translate(433.349609 0)"/>
      <use xlink:href="#DejaVuSans-30" transform="translate(496.972656 0)"/>
      <use xlink:href="#DejaVuSans-34" transform="translate(560.595703 0)"/>
      <use xlink:href="#DejaVuSans-36" transform="translate(624.21875 0)"/>
      <use xlink:href="#DejaVuSans-b0" transform="translate(687.841797 0)"/>
     </g>
    </g>
   </g>
  </g>
  <g id="axes_2">
   <g id="patch_76">
    <path d="M 541.920376 388.6 
L 985.825126 388.6 
L 985.825126 45.6 
L 541.920376 45.6 
z
" style="fill: #ffffff"/>
   </g>
   <g id="patch_77">
    <path d="M 562.097864 388.6 
L 569.571008 388.6 
L 569.571008 73.024973 
L 562.097864 73.024973 
z
" clip-path="url(#p948b8e2a06)" style="fill: #90ee90; opacity: 0.7; stroke: #000000; stroke-linejoin: miter"/>
   </g>
   <g id="patch_78">
    <path d="M 569.571008 388.6 
L 577.044152 388.6 
L 577.044152 99.859584 
L 569.571008 99.859584 
z
" clip-path="url(#p948b8e2a06)" style="fill: #90ee90; opacity: 0.7; stroke: #000000; stroke-linejoin: miter"/>
   </g>
   <g id="patch_79">
    <path d="M 577.044152 388.6 
L 584.517296 388.6 
L 584.517296 124.189631 
L 577.044152 124.189631 
z
" clip-path="url(#p948b8e2a06)" style="fill: #90ee90; opacity: 0.7; stroke: #000000; stroke-linejoin: miter"/>
   </g>
   <g id="patch_80">
    <path d="M 584.517296 388.6 
L 591.99044 388.6 
L 591.99044 115.96035 
L 584.517296 115.96035 
z
" clip-path="url(#p948b8e2a06)" style="fill: #90ee90; opacity: 0.7; stroke: #000000; stroke-linejoin: miter"/>
   </g>
   <g id="patch_81">
    <path d="M 591.99044 388.6 
L 599.463584 388.6 
L 599.463584 139.217014 
L 591.99044 139.217014 
z
" clip-path="url(#p948b8e2a06)" style="fill: #90ee90; opacity: 0.7; stroke: #000000; stroke-linejoin: miter"/>
   </g>
   <g id="patch_82">
    <path d="M 599.463584 388.6 
L 606.936728 388.6 
L 606.936728 111.666813 
L 599.463584 111.666813 
z
" clip-path="url(#p948b8e2a06)" style="fill: #90ee90; opacity: 0.7; stroke: #000000; stroke-linejoin: miter"/>
   </g>
   <g id="patch_83">
    <path d="M 606.936728 388.6 
L 614.409872 388.6 
L 614.409872 80.538664 
L 606.936728 80.538664 
z
" clip-path="url(#p948b8e2a06)" style="fill: #90ee90; opacity: 0.7; stroke: #000000; stroke-linejoin: miter"/>
   </g>
   <g id="patch_84">
    <path d="M 614.409872 388.6 
L 621.883016 388.6 
L 621.883016 61.933333 
L 614.409872 61.933333 
z
" clip-path="url(#p948b8e2a06)" style="fill: #90ee90; opacity: 0.7; stroke: #000000; stroke-linejoin: miter"/>
   </g>
   <g id="patch_85">
    <path d="M 621.883016 388.6 
L 629.35616 388.6 
L 629.35616 115.244761 
L 621.883016 115.244761 
z
" clip-path="url(#p948b8e2a06)" style="fill: #90ee90; opacity: 0.7; stroke: #000000; stroke-linejoin: miter"/>
   </g>
   <g id="patch_86">
    <path d="M 629.35616 388.6 
L 636.829304 388.6 
L 636.829304 134.565681 
L 629.35616 134.565681 
z
" clip-path="url(#p948b8e2a06)" style="fill: #90ee90; opacity: 0.7; stroke: #000000; stroke-linejoin: miter"/>
   </g>
   <g id="patch_87">
    <path d="M 636.829304 388.6 
L 644.302448 388.6 
L 644.302448 156.748959 
L 636.829304 156.748959 
z
" clip-path="url(#p948b8e2a06)" style="fill: #90ee90; opacity: 0.7; stroke: #000000; stroke-linejoin: miter"/>
   </g>
   <g id="patch_88">
    <path d="M 644.302448 388.6 
L 651.775592 388.6 
L 651.775592 194.67521 
L 644.302448 194.67521 
z
" clip-path="url(#p948b8e2a06)" style="fill: #90ee90; opacity: 0.7; stroke: #000000; stroke-linejoin: miter"/>
   </g>
   <g id="patch_89">
    <path d="M 651.775592 388.6 
L 659.248736 388.6 
L 659.248736 216.142899 
L 651.775592 216.142899 
z
" clip-path="url(#p948b8e2a06)" style="fill: #90ee90; opacity: 0.7; stroke: #000000; stroke-linejoin: miter"/>
   </g>
   <g id="patch_90">
    <path d="M 659.248736 388.6 
L 666.721879 388.6 
L 666.721879 225.445564 
L 659.248736 225.445564 
z
" clip-path="url(#p948b8e2a06)" style="fill: #90ee90; opacity: 0.7; stroke: #000000; stroke-linejoin: miter"/>
   </g>
   <g id="patch_91">
    <path d="M 666.721879 388.6 
L 674.195023 388.6 
L 674.195023 177.143264 
L 666.721879 177.143264 
z
" clip-path="url(#p948b8e2a06)" style="fill: #90ee90; opacity: 0.7; stroke: #000000; stroke-linejoin: miter"/>
   </g>
   <g id="patch_92">
    <path d="M 674.195023 388.6 
L 681.668167 388.6 
L 681.668167 206.124644 
L 674.195023 206.124644 
z
" clip-path="url(#p948b8e2a06)" style="fill: #90ee90; opacity: 0.7; stroke: #000000; stroke-linejoin: miter"/>
   </g>
   <g id="patch_93">
    <path d="M 681.668167 388.6 
L 689.141311 388.6 
L 689.141311 261.58284 
L 681.668167 261.58284 
z
" clip-path="url(#p948b8e2a06)" style="fill: #90ee90; opacity: 0.7; stroke: #000000; stroke-linejoin: miter"/>
   </g>
   <g id="patch_94">
    <path d="M 689.141311 388.6 
L 696.614455 388.6 
L 696.614455 254.069149 
L 689.141311 254.069149 
z
" clip-path="url(#p948b8e2a06)" style="fill: #90ee90; opacity: 0.7; stroke: #000000; stroke-linejoin: miter"/>
   </g>
   <g id="patch_95">
    <path d="M 696.614455 388.6 
L 704.087599 388.6 
L 704.087599 263.01402 
L 696.614455 263.01402 
z
" clip-path="url(#p948b8e2a06)" style="fill: #90ee90; opacity: 0.7; stroke: #000000; stroke-linejoin: miter"/>
   </g>
   <g id="patch_96">
    <path d="M 704.087599 388.6 
L 711.560743 388.6 
L 711.560743 284.481709 
L 704.087599 284.481709 
z
" clip-path="url(#p948b8e2a06)" style="fill: #90ee90; opacity: 0.7; stroke: #000000; stroke-linejoin: miter"/>
   </g>
   <g id="patch_97">
    <path d="M 711.560743 388.6 
L 719.033887 388.6 
L 719.033887 289.848631 
L 711.560743 289.848631 
z
" clip-path="url(#p948b8e2a06)" style="fill: #90ee90; opacity: 0.7; stroke: #000000; stroke-linejoin: miter"/>
   </g>
   <g id="patch_98">
    <path d="M 719.033887 388.6 
L 726.507031 388.6 
L 726.507031 305.949398 
L 719.033887 305.949398 
z
" clip-path="url(#p948b8e2a06)" style="fill: #90ee90; opacity: 0.7; stroke: #000000; stroke-linejoin: miter"/>
   </g>
   <g id="patch_99">
    <path d="M 726.507031 388.6 
L 733.980175 388.6 
L 733.980175 325.985907 
L 726.507031 325.985907 
z
" clip-path="url(#p948b8e2a06)" style="fill: #90ee90; opacity: 0.7; stroke: #000000; stroke-linejoin: miter"/>
   </g>
   <g id="patch_100">
    <path d="M 733.980175 388.6 
L 741.453319 388.6 
L 741.453319 293.784374 
L 733.980175 293.784374 
z
" clip-path="url(#p948b8e2a06)" style="fill: #90ee90; opacity: 0.7; stroke: #000000; stroke-linejoin: miter"/>
   </g>
   <g id="patch_101">
    <path d="M 741.453319 388.6 
L 748.926463 388.6 
L 748.926463 321.334575 
L 741.453319 321.334575 
z
" clip-path="url(#p948b8e2a06)" style="fill: #90ee90; opacity: 0.7; stroke: #000000; stroke-linejoin: miter"/>
   </g>
   <g id="patch_102">
    <path d="M 748.926463 388.6 
L 756.399607 388.6 
L 756.399607 323.839138 
L 748.926463 323.839138 
z
" clip-path="url(#p948b8e2a06)" style="fill: #90ee90; opacity: 0.7; stroke: #000000; stroke-linejoin: miter"/>
   </g>
   <g id="patch_103">
    <path d="M 756.399607 388.6 
L 763.872751 388.6 
L 763.872751 347.453596 
L 756.399607 347.453596 
z
" clip-path="url(#p948b8e2a06)" style="fill: #90ee90; opacity: 0.7; stroke: #000000; stroke-linejoin: miter"/>
   </g>
   <g id="patch_104">
    <path d="M 763.872751 388.6 
L 771.345895 388.6 
L 771.345895 338.150931 
L 763.872751 338.150931 
z
" clip-path="url(#p948b8e2a06)" style="fill: #90ee90; opacity: 0.7; stroke: #000000; stroke-linejoin: miter"/>
   </g>
   <g id="patch_105">
    <path d="M 771.345895 388.6 
L 778.819039 388.6 
L 778.819039 337.793136 
L 771.345895 337.793136 
z
" clip-path="url(#p948b8e2a06)" style="fill: #90ee90; opacity: 0.7; stroke: #000000; stroke-linejoin: miter"/>
   </g>
   <g id="patch_106">
    <path d="M 778.819039 388.6 
L 786.292183 388.6 
L 786.292183 341.371084 
L 778.819039 341.371084 
z
" clip-path="url(#p948b8e2a06)" style="fill: #90ee90; opacity: 0.7; stroke: #000000; stroke-linejoin: miter"/>
   </g>
   <g id="patch_107">
    <path d="M 786.292183 388.6 
L 793.765327 388.6 
L 793.765327 352.820518 
L 786.292183 352.820518 
z
" clip-path="url(#p948b8e2a06)" style="fill: #90ee90; opacity: 0.7; stroke: #000000; stroke-linejoin: miter"/>
   </g>
   <g id="patch_108">
    <path d="M 793.765327 388.6 
L 801.238471 388.6 
L 801.238471 363.912158 
L 793.765327 363.912158 
z
" clip-path="url(#p948b8e2a06)" style="fill: #90ee90; opacity: 0.7; stroke: #000000; stroke-linejoin: miter"/>
   </g>
   <g id="patch_109">
    <path d="M 801.238471 388.6 
L 808.711615 388.6 
L 808.711615 346.022417 
L 801.238471 346.022417 
z
" clip-path="url(#p948b8e2a06)" style="fill: #90ee90; opacity: 0.7; stroke: #000000; stroke-linejoin: miter"/>
   </g>
   <g id="patch_110">
    <path d="M 808.711615 388.6 
L 816.184758 388.6 
L 816.184758 355.325082 
L 808.711615 355.325082 
z
" clip-path="url(#p948b8e2a06)" style="fill: #90ee90; opacity: 0.7; stroke: #000000; stroke-linejoin: miter"/>
   </g>
   <g id="patch_111">
    <path d="M 816.184758 388.6 
L 823.657902 388.6 
L 823.657902 368.205696 
L 816.184758 368.205696 
z
" clip-path="url(#p948b8e2a06)" style="fill: #90ee90; opacity: 0.7; stroke: #000000; stroke-linejoin: miter"/>
   </g>
   <g id="patch_112">
    <path d="M 823.657902 388.6 
L 831.131046 388.6 
L 831.131046 371.068054 
L 823.657902 371.068054 
z
" clip-path="url(#p948b8e2a06)" style="fill: #90ee90; opacity: 0.7; stroke: #000000; stroke-linejoin: miter"/>
   </g>
   <g id="patch_113">
    <path d="M 831.131046 388.6 
L 838.60419 388.6 
L 838.60419 377.508361 
L 831.131046 377.508361 
z
" clip-path="url(#p948b8e2a06)" style="fill: #90ee90; opacity: 0.7; stroke: #000000; stroke-linejoin: miter"/>
   </g>
   <g id="patch_114">
    <path d="M 838.60419 388.6 
L 846.077334 388.6 
L 846.077334 382.517488 
L 838.60419 382.517488 
z
" clip-path="url(#p948b8e2a06)" style="fill: #90ee90; opacity: 0.7; stroke: #000000; stroke-linejoin: miter"/>
   </g>
   <g id="patch_115">
    <path d="M 846.077334 388.6 
L 853.550478 388.6 
L 853.550478 382.517488 
L 846.077334 382.517488 
z
" clip-path="url(#p948b8e2a06)" style="fill: #90ee90; opacity: 0.7; stroke: #000000; stroke-linejoin: miter"/>
   </g>
   <g id="patch_116">
    <path d="M 853.550478 388.6 
L 861.023622 388.6 
L 861.023622 379.297335 
L 853.550478 379.297335 
z
" clip-path="url(#p948b8e2a06)" style="fill: #90ee90; opacity: 0.7; stroke: #000000; stroke-linejoin: miter"/>
   </g>
   <g id="patch_117">
    <path d="M 861.023622 388.6 
L 868.496766 388.6 
L 868.496766 378.93954 
L 861.023622 378.93954 
z
" clip-path="url(#p948b8e2a06)" style="fill: #90ee90; opacity: 0.7; stroke: #000000; stroke-linejoin: miter"/>
   </g>
   <g id="patch_118">
    <path d="M 868.496766 388.6 
L 875.96991 388.6 
L 875.96991 362.123184 
L 868.496766 362.123184 
z
" clip-path="url(#p948b8e2a06)" style="fill: #90ee90; opacity: 0.7; stroke: #000000; stroke-linejoin: miter"/>
   </g>
   <g id="patch_119">
    <path d="M 875.96991 388.6 
L 883.443054 388.6 
L 883.443054 366.058927 
L 875.96991 366.058927 
z
" clip-path="url(#p948b8e2a06)" style="fill: #90ee90; opacity: 0.7; stroke: #000000; stroke-linejoin: miter"/>
   </g>
   <g id="patch_120">
    <path d="M 883.443054 388.6 
L 890.916198 388.6 
L 890.916198 361.049799 
L 883.443054 361.049799 
z
" clip-path="url(#p948b8e2a06)" style="fill: #90ee90; opacity: 0.7; stroke: #000000; stroke-linejoin: miter"/>
   </g>
   <g id="patch_121">
    <path d="M 890.916198 388.6 
L 898.389342 388.6 
L 898.389342 372.141438 
L 890.916198 372.141438 
z
" clip-path="url(#p948b8e2a06)" style="fill: #90ee90; opacity: 0.7; stroke: #000000; stroke-linejoin: miter"/>
   </g>
   <g id="patch_122">
    <path d="M 898.389342 388.6 
L 905.862486 388.6 
L 905.862486 372.857028 
L 898.389342 372.857028 
z
" clip-path="url(#p948b8e2a06)" style="fill: #90ee90; opacity: 0.7; stroke: #000000; stroke-linejoin: miter"/>
   </g>
   <g id="patch_123">
    <path d="M 905.862486 388.6 
L 913.33563 388.6 
L 913.33563 366.774516 
L 905.862486 366.774516 
z
" clip-path="url(#p948b8e2a06)" style="fill: #90ee90; opacity: 0.7; stroke: #000000; stroke-linejoin: miter"/>
   </g>
   <g id="patch_124">
    <path d="M 913.33563 388.6 
L 920.808774 388.6 
L 920.808774 368.56349 
L 913.33563 368.56349 
z
" clip-path="url(#p948b8e2a06)" style="fill: #90ee90; opacity: 0.7; stroke: #000000; stroke-linejoin: miter"/>
   </g>
   <g id="patch_125">
    <path d="M 920.808774 388.6 
L 928.281918 388.6 
L 928.281918 372.857028 
L 920.808774 372.857028 
z
" clip-path="url(#p948b8e2a06)" style="fill: #90ee90; opacity: 0.7; stroke: #000000; stroke-linejoin: miter"/>
   </g>
   <g id="patch_126">
    <path d="M 928.281918 388.6 
L 935.755062 388.6 
L 935.755062 378.581745 
L 928.281918 378.581745 
z
" clip-path="url(#p948b8e2a06)" style="fill: #90ee90; opacity: 0.7; stroke: #000000; stroke-linejoin: miter"/>
   </g>
   <g id="patch_127">
    <path d="M 935.755062 388.6 
L 943.228206 388.6 
L 943.228206 368.205696 
L 935.755062 368.205696 
z
" clip-path="url(#p948b8e2a06)" style="fill: #90ee90; opacity: 0.7; stroke: #000000; stroke-linejoin: miter"/>
   </g>
   <g id="patch_128">
    <path d="M 943.228206 388.6 
L 950.70135 388.6 
L 950.70135 386.095436 
L 943.228206 386.095436 
z
" clip-path="url(#p948b8e2a06)" style="fill: #90ee90; opacity: 0.7; stroke: #000000; stroke-linejoin: miter"/>
   </g>
   <g id="patch_129">
    <path d="M 950.70135 388.6 
L 958.174493 388.6 
L 958.174493 387.88441 
L 950.70135 387.88441 
z
" clip-path="url(#p948b8e2a06)" style="fill: #90ee90; opacity: 0.7; stroke: #000000; stroke-linejoin: miter"/>
   </g>
   <g id="patch_130">
    <path d="M 958.174493 388.6 
L 965.647637 388.6 
L 965.647637 377.508361 
L 958.174493 377.508361 
z
" clip-path="url(#p948b8e2a06)" style="fill: #90ee90; opacity: 0.7; stroke: #000000; stroke-linejoin: miter"/>
   </g>
   <g id="matplotlib.axis_3">
    <g id="xtick_8">
     <g id="line2d_35">
      <path d="M 562.088406 388.6 
L 562.088406 45.6 
" clip-path="url(#p948b8e2a06)" style="fill: none; stroke: #b0b0b0; stroke-opacity: 0.3; stroke-width: 0.8; stroke-linecap: square"/>
     </g>
     <g id="line2d_36">
      <g>
       <use xlink:href="#mc7ef1d0faa" x="562.088406" y="388.6" style="stroke: #000000; stroke-width: 0.8"/>
      </g>
     </g>
     <g id="text_21">
      <!-- 0.00 -->
      <g transform="translate(550.955593 403.198437) scale(0.1 -0.1)">
       <use xlink:href="#DejaVuSans-30"/>
       <use xlink:href="#DejaVuSans-2e" transform="translate(63.623047 0)"/>
       <use xlink:href="#DejaVuSans-30" transform="translate(95.410156 0)"/>
       <use xlink:href="#DejaVuSans-30" transform="translate(159.033203 0)"/>
      </g>
     </g>
    </g>
    <g id="xtick_9">
     <g id="line2d_37">
      <path d="M 621.931176 388.6 
L 621.931176 45.6 
" clip-path="url(#p948b8e2a06)" style="fill: none; stroke: #b0b0b0; stroke-opacity: 0.3; stroke-width: 0.8; stroke-linecap: square"/>
     </g>
     <g id="line2d_38">
      <g>
       <use xlink:href="#mc7ef1d0faa" x="621.931176" y="388.6" style="stroke: #000000; stroke-width: 0.8"/>
      </g>
     </g>
     <g id="text_22">
      <!-- 0.05 -->
      <g transform="translate(610.798364 403.198437) scale(0.1 -0.1)">
       <use xlink:href="#DejaVuSans-30"/>
       <use xlink:href="#DejaVuSans-2e" transform="translate(63.623047 0)"/>
       <use xlink:href="#DejaVuSans-30" transform="translate(95.410156 0)"/>
       <use xlink:href="#DejaVuSans-35" transform="translate(159.033203 0)"/>
      </g>
     </g>
    </g>
    <g id="xtick_10">
     <g id="line2d_39">
      <path d="M 681.773947 388.6 
L 681.773947 45.6 
" clip-path="url(#p948b8e2a06)" style="fill: none; stroke: #b0b0b0; stroke-opacity: 0.3; stroke-width: 0.8; stroke-linecap: square"/>
     </g>
     <g id="line2d_40">
      <g>
       <use xlink:href="#mc7ef1d0faa" x="681.773947" y="388.6" style="stroke: #000000; stroke-width: 0.8"/>
      </g>
     </g>
     <g id="text_23">
      <!-- 0.10 -->
      <g transform="translate(670.641135 403.198437) scale(0.1 -0.1)">
       <use xlink:href="#DejaVuSans-30"/>
       <use xlink:href="#DejaVuSans-2e" transform="translate(63.623047 0)"/>
       <use xlink:href="#DejaVuSans-31" transform="translate(95.410156 0)"/>
       <use xlink:href="#DejaVuSans-30" transform="translate(159.033203 0)"/>
      </g>
     </g>
    </g>
    <g id="xtick_11">
     <g id="line2d_41">
      <path d="M 741.616718 388.6 
L 741.616718 45.6 
" clip-path="url(#p948b8e2a06)" style="fill: none; stroke: #b0b0b0; stroke-opacity: 0.3; stroke-width: 0.8; stroke-linecap: square"/>
     </g>
     <g id="line2d_42">
      <g>
       <use xlink:href="#mc7ef1d0faa" x="741.616718" y="388.6" style="stroke: #000000; stroke-width: 0.8"/>
      </g>
     </g>
     <g id="text_24">
      <!-- 0.15 -->
      <g transform="translate(730.483906 403.198437) scale(0.1 -0.1)">
       <use xlink:href="#DejaVuSans-30"/>
       <use xlink:href="#DejaVuSans-2e" transform="translate(63.623047 0)"/>
       <use xlink:href="#DejaVuSans-31" transform="translate(95.410156 0)"/>
       <use xlink:href="#DejaVuSans-35" transform="translate(159.033203 0)"/>
      </g>
     </g>
    </g>
    <g id="xtick_12">
     <g id="line2d_43">
      <path d="M 801.459489 388.6 
L 801.459489 45.6 
" clip-path="url(#p948b8e2a06)" style="fill: none; stroke: #b0b0b0; stroke-opacity: 0.3; stroke-width: 0.8; stroke-linecap: square"/>
     </g>
     <g id="line2d_44">
      <g>
       <use xlink:href="#mc7ef1d0faa" x="801.459489" y="388.6" style="stroke: #000000; stroke-width: 0.8"/>
      </g>
     </g>
     <g id="text_25">
      <!-- 0.20 -->
      <g transform="translate(790.326677 403.198437) scale(0.1 -0.1)">
       <use xlink:href="#DejaVuSans-30"/>
       <use xlink:href="#DejaVuSans-2e" transform="translate(63.623047 0)"/>
       <use xlink:href="#DejaVuSans-32" transform="translate(95.410156 0)"/>
       <use xlink:href="#DejaVuSans-30" transform="translate(159.033203 0)"/>
      </g>
     </g>
    </g>
    <g id="xtick_13">
     <g id="line2d_45">
      <path d="M 861.30226 388.6 
L 861.30226 45.6 
" clip-path="url(#p948b8e2a06)" style="fill: none; stroke: #b0b0b0; stroke-opacity: 0.3; stroke-width: 0.8; stroke-linecap: square"/>
     </g>
     <g id="line2d_46">
      <g>
       <use xlink:href="#mc7ef1d0faa" x="861.30226" y="388.6" style="stroke: #000000; stroke-width: 0.8"/>
      </g>
     </g>
     <g id="text_26">
      <!-- 0.25 -->
      <g transform="translate(850.169447 403.198437) scale(0.1 -0.1)">
       <use xlink:href="#DejaVuSans-30"/>
       <use xlink:href="#DejaVuSans-2e" transform="translate(63.623047 0)"/>
       <use xlink:href="#DejaVuSans-32" transform="translate(95.410156 0)"/>
       <use xlink:href="#DejaVuSans-35" transform="translate(159.033203 0)"/>
      </g>
     </g>
    </g>
    <g id="xtick_14">
     <g id="line2d_47">
      <path d="M 921.145031 388.6 
L 921.145031 45.6 
" clip-path="url(#p948b8e2a06)" style="fill: none; stroke: #b0b0b0; stroke-opacity: 0.3; stroke-width: 0.8; stroke-linecap: square"/>
     </g>
     <g id="line2d_48">
      <g>
       <use xlink:href="#mc7ef1d0faa" x="921.145031" y="388.6" style="stroke: #000000; stroke-width: 0.8"/>
      </g>
     </g>
     <g id="text_27">
      <!-- 0.30 -->
      <g transform="translate(910.012218 403.198437) scale(0.1 -0.1)">
       <use xlink:href="#DejaVuSans-30"/>
       <use xlink:href="#DejaVuSans-2e" transform="translate(63.623047 0)"/>
       <use xlink:href="#DejaVuSans-33" transform="translate(95.410156 0)"/>
       <use xlink:href="#DejaVuSans-30" transform="translate(159.033203 0)"/>
      </g>
     </g>
    </g>
    <g id="xtick_15">
     <g id="line2d_49">
      <path d="M 980.987802 388.6 
L 980.987802 45.6 
" clip-path="url(#p948b8e2a06)" style="fill: none; stroke: #b0b0b0; stroke-opacity: 0.3; stroke-width: 0.8; stroke-linecap: square"/>
     </g>
     <g id="line2d_50">
      <g>
       <use xlink:href="#mc7ef1d0faa" x="980.987802" y="388.6" style="stroke: #000000; stroke-width: 0.8"/>
      </g>
     </g>
     <g id="text_28">
      <!-- 0.35 -->
      <g transform="translate(969.854989 403.198437) scale(0.1 -0.1)">
       <use xlink:href="#DejaVuSans-30"/>
       <use xlink:href="#DejaVuSans-2e" transform="translate(63.623047 0)"/>
       <use xlink:href="#DejaVuSans-33" transform="translate(95.410156 0)"/>
       <use xlink:href="#DejaVuSans-35" transform="translate(159.033203 0)"/>
      </g>
     </g>
    </g>
    <g id="text_29">
     <!-- Absolute Error (degrees) -->
     <g transform="translate(702.629001 416.876562) scale(0.1 -0.1)">
      <defs>
       <path id="DejaVuSans-41" d="M 2188 4044 
L 1331 1722 
L 3047 1722 
L 2188 4044 
z
M 1831 4666 
L 2547 4666 
L 4325 0 
L 3669 0 
L 3244 1197 
L 1141 1197 
L 716 0 
L 50 0 
L 1831 4666 
z
" transform="scale(0.015625)"/>
       <path id="DejaVuSans-6c" d="M 603 4863 
L 1178 4863 
L 1178 0 
L 603 0 
L 603 4863 
z
" transform="scale(0.015625)"/>
      </defs>
      <use xlink:href="#DejaVuSans-41"/>
      <use xlink:href="#DejaVuSans-62" transform="translate(68.408203 0)"/>
      <use xlink:href="#DejaVuSans-73" transform="translate(131.884766 0)"/>
      <use xlink:href="#DejaVuSans-6f" transform="translate(183.984375 0)"/>
      <use xlink:href="#DejaVuSans-6c" transform="translate(245.166016 0)"/>
      <use xlink:href="#DejaVuSans-75" transform="translate(272.949219 0)"/>
      <use xlink:href="#DejaVuSans-74" transform="translate(336.328125 0)"/>
      <use xlink:href="#DejaVuSans-65" transform="translate(375.537109 0)"/>
      <use xlink:href="#DejaVuSans-20" transform="translate(437.060547 0)"/>
      <use xlink:href="#DejaVuSans-45" transform="translate(468.847656 0)"/>
      <use xlink:href="#DejaVuSans-72" transform="translate(532.03125 0)"/>
      <use xlink:href="#DejaVuSans-72" transform="translate(571.394531 0)"/>
      <use xlink:href="#DejaVuSans-6f" transform="translate(610.257812 0)"/>
      <use xlink:href="#DejaVuSans-72" transform="translate(671.439453 0)"/>
      <use xlink:href="#DejaVuSans-20" transform="translate(712.552734 0)"/>
      <use xlink:href="#DejaVuSans-28" transform="translate(744.339844 0)"/>
      <use xlink:href="#DejaVuSans-64" transform="translate(783.353516 0)"/>
      <use xlink:href="#DejaVuSans-65" transform="translate(846.830078 0)"/>
      <use xlink:href="#DejaVuSans-67" transform="translate(908.353516 0)"/>
      <use xlink:href="#DejaVuSans-72" transform="translate(971.830078 0)"/>
      <use xlink:href="#DejaVuSans-65" transform="translate(1010.693359 0)"/>
      <use xlink:href="#DejaVuSans-65" transform="translate(1072.216797 0)"/>
      <use xlink:href="#DejaVuSans-73" transform="translate(1133.740234 0)"/>
      <use xlink:href="#DejaVuSans-29" transform="translate(1185.839844 0)"/>
     </g>
    </g>
   </g>
   <g id="matplotlib.axis_4">
    <g id="ytick_9">
     <g id="line2d_51">
      <path d="M 541.920376 388.6 
L 985.825126 388.6 
" clip-path="url(#p948b8e2a06)" style="fill: none; stroke: #b0b0b0; stroke-opacity: 0.3; stroke-width: 0.8; stroke-linecap: square"/>
     </g>
     <g id="line2d_52">
      <g>
       <use xlink:href="#m286049fb12" x="541.920376" y="388.6" style="stroke: #000000; stroke-width: 0.8"/>
      </g>
     </g>
     <g id="text_30">
      <!-- 0 -->
      <g transform="translate(528.557876 392.399219) scale(0.1 -0.1)">
       <use xlink:href="#DejaVuSans-30"/>
      </g>
     </g>
    </g>
    <g id="ytick_10">
     <g id="line2d_53">
      <path d="M 541.920376 317.041037 
L 985.825126 317.041037 
" clip-path="url(#p948b8e2a06)" style="fill: none; stroke: #b0b0b0; stroke-opacity: 0.3; stroke-width: 0.8; stroke-linecap: square"/>
     </g>
     <g id="line2d_54">
      <g>
       <use xlink:href="#m286049fb12" x="541.920376" y="317.041037" style="stroke: #000000; stroke-width: 0.8"/>
      </g>
     </g>
     <g id="text_31">
      <!-- 200 -->
      <g transform="translate(515.832876 320.840256) scale(0.1 -0.1)">
       <use xlink:href="#DejaVuSans-32"/>
       <use xlink:href="#DejaVuSans-30" transform="translate(63.623047 0)"/>
       <use xlink:href="#DejaVuSans-30" transform="translate(127.246094 0)"/>
      </g>
     </g>
    </g>
    <g id="ytick_11">
     <g id="line2d_55">
      <path d="M 541.920376 245.482074 
L 985.825126 245.482074 
" clip-path="url(#p948b8e2a06)" style="fill: none; stroke: #b0b0b0; stroke-opacity: 0.3; stroke-width: 0.8; stroke-linecap: square"/>
     </g>
     <g id="line2d_56">
      <g>
       <use xlink:href="#m286049fb12" x="541.920376" y="245.482074" style="stroke: #000000; stroke-width: 0.8"/>
      </g>
     </g>
     <g id="text_32">
      <!-- 400 -->
      <g transform="translate(515.832876 249.281292) scale(0.1 -0.1)">
       <use xlink:href="#DejaVuSans-34"/>
       <use xlink:href="#DejaVuSans-30" transform="translate(63.623047 0)"/>
       <use xlink:href="#DejaVuSans-30" transform="translate(127.246094 0)"/>
      </g>
     </g>
    </g>
    <g id="ytick_12">
     <g id="line2d_57">
      <path d="M 541.920376 173.923111 
L 985.825126 173.923111 
" clip-path="url(#p948b8e2a06)" style="fill: none; stroke: #b0b0b0; stroke-opacity: 0.3; stroke-width: 0.8; stroke-linecap: square"/>
     </g>
     <g id="line2d_58">
      <g>
       <use xlink:href="#m286049fb12" x="541.920376" y="173.923111" style="stroke: #000000; stroke-width: 0.8"/>
      </g>
     </g>
     <g id="text_33">
      <!-- 600 -->
      <g transform="translate(515.832876 177.722329) scale(0.1 -0.1)">
       <use xlink:href="#DejaVuSans-36"/>
       <use xlink:href="#DejaVuSans-30" transform="translate(63.623047 0)"/>
       <use xlink:href="#DejaVuSans-30" transform="translate(127.246094 0)"/>
      </g>
     </g>
    </g>
    <g id="ytick_13">
     <g id="line2d_59">
      <path d="M 541.920376 102.364147 
L 985.825126 102.364147 
" clip-path="url(#p948b8e2a06)" style="fill: none; stroke: #b0b0b0; stroke-opacity: 0.3; stroke-width: 0.8; stroke-linecap: square"/>
     </g>
     <g id="line2d_60">
      <g>
       <use xlink:href="#m286049fb12" x="541.920376" y="102.364147" style="stroke: #000000; stroke-width: 0.8"/>
      </g>
     </g>
     <g id="text_34">
      <!-- 800 -->
      <g transform="translate(515.832876 106.163366) scale(0.1 -0.1)">
       <defs>
        <path id="DejaVuSans-38" d="M 2034 2216 
Q 1584 2216 1326 1975 
Q 1069 1734 1069 1313 
Q 1069 891 1326 650 
Q 1584 409 2034 409 
Q 2484 409 2743 651 
Q 3003 894 3003 1313 
Q 3003 1734 2745 1975 
Q 2488 2216 2034 2216 
z
M 1403 2484 
Q 997 2584 770 2862 
Q 544 3141 544 3541 
Q 544 4100 942 4425 
Q 1341 4750 2034 4750 
Q 2731 4750 3128 4425 
Q 3525 4100 3525 3541 
Q 3525 3141 3298 2862 
Q 3072 2584 2669 2484 
Q 3125 2378 3379 2068 
Q 3634 1759 3634 1313 
Q 3634 634 3220 271 
Q 2806 -91 2034 -91 
Q 1263 -91 848 271 
Q 434 634 434 1313 
Q 434 1759 690 2068 
Q 947 2378 1403 2484 
z
M 1172 3481 
Q 1172 3119 1398 2916 
Q 1625 2713 2034 2713 
Q 2441 2713 2670 2916 
Q 2900 3119 2900 3481 
Q 2900 3844 2670 4047 
Q 2441 4250 2034 4250 
Q 1625 4250 1398 4047 
Q 1172 3844 1172 3481 
z
" transform="scale(0.015625)"/>
       </defs>
       <use xlink:href="#DejaVuSans-38"/>
       <use xlink:href="#DejaVuSans-30" transform="translate(63.623047 0)"/>
       <use xlink:href="#DejaVuSans-30" transform="translate(127.246094 0)"/>
      </g>
     </g>
    </g>
    <g id="text_35">
     <!-- Frequency -->
     <g transform="translate(509.753188 242.929687) rotate(-90) scale(0.1 -0.1)">
      <use xlink:href="#DejaVuSans-46"/>
      <use xlink:href="#DejaVuSans-72" transform="translate(50.269531 0)"/>
      <use xlink:href="#DejaVuSans-65" transform="translate(89.132812 0)"/>
      <use xlink:href="#DejaVuSans-71" transform="translate(150.65625 0)"/>
      <use xlink:href="#DejaVuSans-75" transform="translate(214.132812 0)"/>
      <use xlink:href="#DejaVuSans-65" transform="translate(277.511719 0)"/>
      <use xlink:href="#DejaVuSans-6e" transform="translate(339.035156 0)"/>
      <use xlink:href="#DejaVuSans-63" transform="translate(402.414062 0)"/>
      <use xlink:href="#DejaVuSans-79" transform="translate(457.394531 0)"/>
     </g>
    </g>
   </g>
   <g id="line2d_61">
    <path d="M 657.225014 388.6 
L 657.225014 45.6 
" clip-path="url(#p948b8e2a06)" style="fill: none; stroke-dasharray: 7.4,3.2; stroke-dashoffset: 0; stroke: #ffa500; stroke-width: 2"/>
   </g>
   <g id="patch_131">
    <path d="M 541.920376 388.6 
L 541.920376 45.6 
" style="fill: none; stroke: #000000; stroke-width: 0.8; stroke-linejoin: miter; stroke-linecap: square"/>
   </g>
   <g id="patch_132">
    <path d="M 985.825126 388.6 
L 985.825126 45.6 
" style="fill: none; stroke: #000000; stroke-width: 0.8; stroke-linejoin: miter; stroke-linecap: square"/>
   </g>
   <g id="patch_133">
    <path d="M 541.920376 388.6 
L 985.825126 388.6 
" style="fill: none; stroke: #000000; stroke-width: 0.8; stroke-linejoin: miter; stroke-linecap: square"/>
   </g>
   <g id="patch_134">
    <path d="M 541.920376 45.6 
L 985.825126 45.6 
" style="fill: none; stroke: #000000; stroke-width: 0.8; stroke-linejoin: miter; stroke-linecap: square"/>
   </g>
   <g id="text_36">
    <!-- Fourier Absolute Error Distribution -->
    <g transform="translate(661.304626 39.6) scale(0.12 -0.12)">
     <use xlink:href="#DejaVuSans-46"/>
     <use xlink:href="#DejaVuSans-6f" transform="translate(53.894531 0)"/>
     <use xlink:href="#DejaVuSans-75" transform="translate(115.076172 0)"/>
     <use xlink:href="#DejaVuSans-72" transform="translate(178.455078 0)"/>
     <use xlink:href="#DejaVuSans-69" transform="translate(219.568359 0)"/>
     <use xlink:href="#DejaVuSans-65" transform="translate(247.351562 0)"/>
     <use xlink:href="#DejaVuSans-72" transform="translate(308.875 0)"/>
     <use xlink:href="#DejaVuSans-20" transform="translate(349.988281 0)"/>
     <use xlink:href="#DejaVuSans-41" transform="translate(381.775391 0)"/>
     <use xlink:href="#DejaVuSans-62" transform="translate(450.183594 0)"/>
     <use xlink:href="#DejaVuSans-73" transform="translate(513.660156 0)"/>
     <use xlink:href="#DejaVuSans-6f" transform="translate(565.759766 0)"/>
     <use xlink:href="#DejaVuSans-6c" transform="translate(626.941406 0)"/>
     <use xlink:href="#DejaVuSans-75" transform="translate(654.724609 0)"/>
     <use xlink:href="#DejaVuSans-74" transform="translate(718.103516 0)"/>
     <use xlink:href="#DejaVuSans-65" transform="translate(757.3125 0)"/>
     <use xlink:href="#DejaVuSans-20" transform="translate(818.835938 0)"/>
     <use xlink:href="#DejaVuSans-45" transform="translate(850.623047 0)"/>
     <use xlink:href="#DejaVuSans-72" transform="translate(913.806641 0)"/>
     <use xlink:href="#DejaVuSans-72" transform="translate(953.169922 0)"/>
     <use xlink:href="#DejaVuSans-6f" transform="translate(992.033203 0)"/>
     <use xlink:href="#DejaVuSans-72" transform="translate(1053.214844 0)"/>
     <use xlink:href="#DejaVuSans-20" transform="translate(1094.328125 0)"/>
     <use xlink:href="#DejaVuSans-44" transform="translate(1126.115234 0)"/>
     <use xlink:href="#DejaVuSans-69" transform="translate(1203.117188 0)"/>
     <use xlink:href="#DejaVuSans-73" transform="translate(1230.900391 0)"/>
     <use xlink:href="#DejaVuSans-74" transform="translate(1283 0)"/>
     <use xlink:href="#DejaVuSans-72" transform="translate(1322.208984 0)"/>
     <use xlink:href="#DejaVuSans-69" transform="translate(1363.322266 0)"/>
     <use xlink:href="#DejaVuSans-62" transform="translate(1391.105469 0)"/>
     <use xlink:href="#DejaVuSans-75" transform="translate(1454.582031 0)"/>
     <use xlink:href="#DejaVuSans-74" transform="translate(1517.960938 0)"/>
     <use xlink:href="#DejaVuSans-69" transform="translate(1557.169922 0)"/>
     <use xlink:href="#DejaVuSans-6f" transform="translate(1584.953125 0)"/>
     <use xlink:href="#DejaVuSans-6e" transform="translate(1646.134766 0)"/>
    </g>
   </g>
   <g id="legend_2">
    <g id="patch_135">
     <path d="M 873.040751 68.278125 
L 978.825126 68.278125 
Q 980.825126 68.278125 980.825126 66.278125 
L 980.825126 52.6 
Q 980.825126 50.6 978.825126 50.6 
L 873.040751 50.6 
Q 871.040751 50.6 871.040751 52.6 
L 871.040751 66.278125 
Q 871.040751 68.278125 873.040751 68.278125 
z
" style="fill: #ffffff; opacity: 0.8; stroke: #cccccc; stroke-linejoin: miter"/>
    </g>
    <g id="line2d_62">
     <path d="M 875.040751 58.698438 
L 885.040751 58.698438 
L 895.040751 58.698438 
" style="fill: none; stroke-dasharray: 7.4,3.2; stroke-dashoffset: 0; stroke: #ffa500; stroke-width: 2"/>
    </g>
    <g id="text_37">
     <!-- Mean: 0.0795° -->
     <g transform="translate(903.040751 62.198438) scale(0.1 -0.1)">
      <defs>
       <path id="DejaVuSans-39" d="M 703 97 
L 703 672 
Q 941 559 1184 500 
Q 1428 441 1663 441 
Q 2288 441 2617 861 
Q 2947 1281 2994 2138 
Q 2813 1869 2534 1725 
Q 2256 1581 1919 1581 
Q 1219 1581 811 2004 
Q 403 2428 403 3163 
Q 403 3881 828 4315 
Q 1253 4750 1959 4750 
Q 2769 4750 3195 4129 
Q 3622 3509 3622 2328 
Q 3622 1225 3098 567 
Q 2575 -91 1691 -91 
Q 1453 -91 1209 -44 
Q 966 3 703 97 
z
M 1959 2075 
Q 2384 2075 2632 2365 
Q 2881 2656 2881 3163 
Q 2881 3666 2632 3958 
Q 2384 4250 1959 4250 
Q 1534 4250 1286 3958 
Q 1038 3666 1038 3163 
Q 1038 2656 1286 2365 
Q 1534 2075 1959 2075 
z
" transform="scale(0.015625)"/>
      </defs>
      <use xlink:href="#DejaVuSans-4d"/>
      <use xlink:href="#DejaVuSans-65" transform="translate(86.279297 0)"/>
      <use xlink:href="#DejaVuSans-61" transform="translate(147.802734 0)"/>
      <use xlink:href="#DejaVuSans-6e" transform="translate(209.082031 0)"/>
      <use xlink:href="#DejaVuSans-3a" transform="translate(272.460938 0)"/>
      <use xlink:href="#DejaVuSans-20" transform="translate(306.152344 0)"/>
      <use xlink:href="#DejaVuSans-30" transform="translate(337.939453 0)"/>
      <use xlink:href="#DejaVuSans-2e" transform="translate(401.5625 0)"/>
      <use xlink:href="#DejaVuSans-30" transform="translate(433.349609 0)"/>
      <use xlink:href="#DejaVuSans-37" transform="translate(496.972656 0)"/>
      <use xlink:href="#DejaVuSans-39" transform="translate(560.595703 0)"/>
      <use xlink:href="#DejaVuSans-35" transform="translate(624.21875 0)"/>
      <use xlink:href="#DejaVuSans-b0" transform="translate(687.841797 0)"/>
     </g>
    </g>
   </g>
  </g>
  <g id="text_38">
   <!-- Fourier Solar Elevation Error Histogram (Full Dataset) -->
   <g transform="translate(340.131875 16.318125) scale(0.12 -0.12)">
    <defs>
     <path id="DejaVuSans-53" d="M 3425 4513 
L 3425 3897 
Q 3066 4069 2747 4153 
Q 2428 4238 2131 4238 
Q 1616 4238 1336 4038 
Q 1056 3838 1056 3469 
Q 1056 3159 1242 3001 
Q 1428 2844 1947 2747 
L 2328 2669 
Q 3034 2534 3370 2195 
Q 3706 1856 3706 1288 
Q 3706 609 3251 259 
Q 2797 -91 1919 -91 
Q 1588 -91 1214 -16 
Q 841 59 441 206 
L 441 856 
Q 825 641 1194 531 
Q 1563 422 1919 422 
Q 2459 422 2753 634 
Q 3047 847 3047 1241 
Q 3047 1584 2836 1778 
Q 2625 1972 2144 2069 
L 1759 2144 
Q 1053 2284 737 2584 
Q 422 2884 422 3419 
Q 422 4038 858 4394 
Q 1294 4750 2059 4750 
Q 2388 4750 2728 4690 
Q 3069 4631 3425 4513 
z
" transform="scale(0.015625)"/>
     <path id="DejaVuSans-76" d="M 191 3500 
L 800 3500 
L 1894 563 
L 2988 3500 
L 3597 3500 
L 2284 0 
L 1503 0 
L 191 3500 
z
" transform="scale(0.015625)"/>
     <path id="DejaVuSans-48" d="M 628 4666 
L 1259 4666 
L 1259 2753 
L 3553 2753 
L 3553 4666 
L 4184 4666 
L 4184 0 
L 3553 0 
L 3553 2222 
L 1259 2222 
L 1259 0 
L 628 0 
L 628 4666 
z
" transform="scale(0.015625)"/>
     <path id="DejaVuSans-6d" d="M 3328 2828 
Q 3544 3216 3844 3400 
Q 4144 3584 4550 3584 
Q 5097 3584 5394 3201 
Q 5691 2819 5691 2113 
L 5691 0 
L 5113 0 
L 5113 2094 
Q 5113 2597 4934 2840 
Q 4756 3084 4391 3084 
Q 3944 3084 3684 2787 
Q 3425 2491 3425 1978 
L 3425 0 
L 2847 0 
L 2847 2094 
Q 2847 2600 2669 2842 
Q 2491 3084 2119 3084 
Q 1678 3084 1418 2786 
Q 1159 2488 1159 1978 
L 1159 0 
L 581 0 
L 581 3500 
L 1159 3500 
L 1159 2956 
Q 1356 3278 1631 3431 
Q 1906 3584 2284 3584 
Q 2666 3584 2933 3390 
Q 3200 3197 3328 2828 
z
" transform="scale(0.015625)"/>
    </defs>
    <use xlink:href="#DejaVuSans-46"/>
    <use xlink:href="#DejaVuSans-6f" transform="translate(53.894531 0)"/>
    <use xlink:href="#DejaVuSans-75" transform="translate(115.076172 0)"/>
    <use xlink:href="#DejaVuSans-72" transform="translate(178.455078 0)"/>
    <use xlink:href="#DejaVuSans-69" transform="translate(219.568359 0)"/>
    <use xlink:href="#DejaVuSans-65" transform="translate(247.351562 0)"/>
    <use xlink:href="#DejaVuSans-72" transform="translate(308.875 0)"/>
    <use xlink:href="#DejaVuSans-20" transform="translate(349.988281 0)"/>
    <use xlink:href="#DejaVuSans-53" transform="translate(381.775391 0)"/>
    <use xlink:href="#DejaVuSans-6f" transform="translate(445.251953 0)"/>
    <use xlink:href="#DejaVuSans-6c" transform="translate(506.433594 0)"/>
    <use xlink:href="#DejaVuSans-61" transform="translate(534.216797 0)"/>
    <use xlink:href="#DejaVuSans-72" transform="translate(595.496094 0)"/>
    <use xlink:href="#DejaVuSans-20" transform="translate(636.609375 0)"/>
    <use xlink:href="#DejaVuSans-45" transform="translate(668.396484 0)"/>
    <use xlink:href="#DejaVuSans-6c" transform="translate(731.580078 0)"/>
    <use xlink:href="#DejaVuSans-65" transform="translate(759.363281 0)"/>
    <use xlink:href="#DejaVuSans-76" transform="translate(820.886719 0)"/>
    <use xlink:href="#DejaVuSans-61" transform="translate(880.066406 0)"/>
    <use xlink:href="#DejaVuSans-74" transform="translate(941.345703 0)"/>
    <use xlink:href="#DejaVuSans-69" transform="translate(980.554688 0)"/>
    <use xlink:href="#DejaVuSans-6f" transform="translate(1008.337891 0)"/>
    <use xlink:href="#DejaVuSans-6e" transform="translate(1069.519531 0)"/>
    <use xlink:href="#DejaVuSans-20" transform="translate(1132.898438 0)"/>
    <use xlink:href="#DejaVuSans-45" transform="translate(1164.685547 0)"/>
    <use xlink:href="#DejaVuSans-72" transform="translate(1227.869141 0)"/>
    <use xlink:href="#DejaVuSans-72" transform="translate(1267.232422 0)"/>
    <use xlink:href="#DejaVuSans-6f" transform="translate(1306.095703 0)"/>
    <use xlink:href="#DejaVuSans-72" transform="translate(1367.277344 0)"/>
    <use xlink:href="#DejaVuSans-20" transform="translate(1408.390625 0)"/>
    <use xlink:href="#DejaVuSans-48" transform="translate(1440.177734 0)"/>
    <use xlink:href="#DejaVuSans-69" transform="translate(1515.373047 0)"/>
    <use xlink:href="#DejaVuSans-73" transform="translate(1543.15625 0)"/>
    <use xlink:href="#DejaVuSans-74" transform="translate(1595.255859 0)"/>
    <use xlink:href="#DejaVuSans-6f" transform="translate(1634.464844 0)"/>
    <use xlink:href="#DejaVuSans-67" transform="translate(1695.646484 0)"/>
    <use xlink:href="#DejaVuSans-72" transform="translate(1759.123047 0)"/>
    <use xlink:href="#DejaVuSans-61" transform="translate(1800.236328 0)"/>
    <use xlink:href="#DejaVuSans-6d" transform="translate(1861.515625 0)"/>
    <use xlink:href="#DejaVuSans-20" transform="translate(1958.927734 0)"/>
    <use xlink:href="#DejaVuSans-28" transform="translate(1990.714844 0)"/>
    <use xlink:href="#DejaVuSans-46" transform="translate(2029.728516 0)"/>
    <use xlink:href="#DejaVuSans-75" transform="translate(2081.748047 0)"/>
    <use xlink:href="#DejaVuSans-6c" transform="translate(2145.126953 0)"/>
    <use xlink:href="#DejaVuSans-6c" transform="translate(2172.910156 0)"/>
    <use xlink:href="#DejaVuSans-20" transform="translate(2200.693359 0)"/>
    <use xlink:href="#DejaVuSans-44" transform="translate(2232.480469 0)"/>
    <use xlink:href="#DejaVuSans-61" transform="translate(2309.482422 0)"/>
    <use xlink:href="#DejaVuSans-74" transform="translate(2370.761719 0)"/>
    <use xlink:href="#DejaVuSans-61" transform="translate(2409.970703 0)"/>
    <use xlink:href="#DejaVuSans-73" transform="translate(2471.25 0)"/>
    <use xlink:href="#DejaVuSans-65" transform="translate(2523.349609 0)"/>
    <use xlink:href="#DejaVuSans-74" transform="translate(2584.873047 0)"/>
    <use xlink:href="#DejaVuSans-29" transform="translate(2624.082031 0)"/>
   </g>
  </g>
 </g>
 <defs>
  <clipPath id="p9404ea46b2">
   <rect x="46.965625" y="45.6" width="443.904751" height="343"/>
  </clipPath>
  <clipPath id="p948b8e2a06">
   <rect x="541.920376" y="45.6" width="443.904751" height="343"/>
  </clipPath>
 </defs>
</svg>
