<?xml version="1.0" encoding="utf-8" standalone="no"?>
<!DOCTYPE svg PUBLIC "-//W3C//DTD SVG 1.1//EN"
  "http://www.w3.org/Graphics/SVG/1.1/DTD/svg11.dtd">
<svg xmlns:xlink="http://www.w3.org/1999/xlink" width="1000.315625pt" height="426.15625pt" viewBox="0 0 1000.315625 426.15625" xmlns="http://www.w3.org/2000/svg" version="1.1">
 <metadata>
  <rdf:RDF xmlns:dc="http://purl.org/dc/elements/1.1/" xmlns:cc="http://creativecommons.org/ns#" xmlns:rdf="http://www.w3.org/1999/02/22-rdf-syntax-ns#">
   <cc:Work>
    <dc:type rdf:resource="http://purl.org/dc/dcmitype/StillImage"/>
    <dc:date>2025-11-25T02:32:38.761854</dc:date>
    <dc:format>image/svg+xml</dc:format>
    <dc:creator>
     <cc:Agent>
      <dc:title>Matplotlib v3.10.8, https://matplotlib.org/</dc:title>
     </cc:Agent>
    </dc:creator>
   </cc:Work>
  </rdf:RDF>
 </metadata>
 <defs>
  <style type="text/css">*{stroke-linejoin: round; stroke-linecap: butt}</style>
 </defs>
 <g id="figure_1">
  <g id="patch_1">
   <path d="M 0 426.15625 
L 1000.315625 426.15625 
L 1000.315625 0 
L 0 0 
z
" style="fill: #ffffff"/>
  </g>
  <g id="axes_1">
   <g id="patch_2">
    <path d="M 46.965625 388.6 
L 491.320625 388.6 
L 491.320625 45.6 
L 46.965625 45.6 
z
" style="fill: #ffffff"/>
   </g>
   <g id="patch_3">
    <path d="M 67.16358 388.6 
L 73.896231 388.6 
L 73.896231 385.232302 
L 67.16358 385.232302 
z
" clip-path="url(#p13e0e132bd)" style="fill: #87ceeb; opacity: 0.7; stroke: #000000; stroke-linejoin: miter"/>
   </g>
   <g id="patch_4">
    <path d="M 73.896231 388.6 
L 80.628883 388.6 
L 80.628883 387.637801 
L 73.896231 387.637801 
z
" clip-path="url(#p13e0e132bd)" style="fill: #87ceeb; opacity: 0.7; stroke: #000000; stroke-linejoin: miter"/>
   </g>
   <g id="patch_5">
    <path d="M 80.628883 388.6 
L 87.361534 388.6 
L 87.361534 384.270103 
L 80.628883 384.270103 
z
" clip-path="url(#p13e0e132bd)" style="fill: #87ceeb; opacity: 0.7; stroke: #000000; stroke-linejoin: miter"/>
   </g>
   <g id="patch_6">
    <path d="M 87.361534 388.6 
L 94.094186 388.6 
L 94.094186 376.091409 
L 87.361534 376.091409 
z
" clip-path="url(#p13e0e132bd)" style="fill: #87ceeb; opacity: 0.7; stroke: #000000; stroke-linejoin: miter"/>
   </g>
   <g id="patch_7">
    <path d="M 94.094186 388.6 
L 100.826837 388.6 
L 100.826837 370.799313 
L 94.094186 370.799313 
z
" clip-path="url(#p13e0e132bd)" style="fill: #87ceeb; opacity: 0.7; stroke: #000000; stroke-linejoin: miter"/>
   </g>
   <g id="patch_8">
    <path d="M 100.826837 388.6 
L 107.559489 388.6 
L 107.559489 375.12921 
L 100.826837 375.12921 
z
" clip-path="url(#p13e0e132bd)" style="fill: #87ceeb; opacity: 0.7; stroke: #000000; stroke-linejoin: miter"/>
   </g>
   <g id="patch_9">
    <path d="M 107.559489 388.6 
L 114.29214 388.6 
L 114.29214 372.723711 
L 107.559489 372.723711 
z
" clip-path="url(#p13e0e132bd)" style="fill: #87ceeb; opacity: 0.7; stroke: #000000; stroke-linejoin: miter"/>
   </g>
   <g id="patch_10">
    <path d="M 114.29214 388.6 
L 121.024792 388.6 
L 121.024792 373.204811 
L 114.29214 373.204811 
z
" clip-path="url(#p13e0e132bd)" style="fill: #87ceeb; opacity: 0.7; stroke: #000000; stroke-linejoin: miter"/>
   </g>
   <g id="patch_11">
    <path d="M 121.024792 388.6 
L 127.757443 388.6 
L 127.757443 371.280412 
L 121.024792 371.280412 
z
" clip-path="url(#p13e0e132bd)" style="fill: #87ceeb; opacity: 0.7; stroke: #000000; stroke-linejoin: miter"/>
   </g>
   <g id="patch_12">
    <path d="M 127.757443 388.6 
L 134.490095 388.6 
L 134.490095 370.318213 
L 127.757443 370.318213 
z
" clip-path="url(#p13e0e132bd)" style="fill: #87ceeb; opacity: 0.7; stroke: #000000; stroke-linejoin: miter"/>
   </g>
   <g id="patch_13">
    <path d="M 134.490095 388.6 
L 141.222746 388.6 
L 141.222746 366.950515 
L 134.490095 366.950515 
z
" clip-path="url(#p13e0e132bd)" style="fill: #87ceeb; opacity: 0.7; stroke: #000000; stroke-linejoin: miter"/>
   </g>
   <g id="patch_14">
    <path d="M 141.222746 388.6 
L 147.955398 388.6 
L 147.955398 363.582818 
L 141.222746 363.582818 
z
" clip-path="url(#p13e0e132bd)" style="fill: #87ceeb; opacity: 0.7; stroke: #000000; stroke-linejoin: miter"/>
   </g>
   <g id="patch_15">
    <path d="M 147.955398 388.6 
L 154.688049 388.6 
L 154.688049 356.847423 
L 147.955398 356.847423 
z
" clip-path="url(#p13e0e132bd)" style="fill: #87ceeb; opacity: 0.7; stroke: #000000; stroke-linejoin: miter"/>
   </g>
   <g id="patch_16">
    <path d="M 154.688049 388.6 
L 161.420701 388.6 
L 161.420701 339.527835 
L 154.688049 339.527835 
z
" clip-path="url(#p13e0e132bd)" style="fill: #87ceeb; opacity: 0.7; stroke: #000000; stroke-linejoin: miter"/>
   </g>
   <g id="patch_17">
    <path d="M 161.420701 388.6 
L 168.153352 388.6 
L 168.153352 326.538144 
L 161.420701 326.538144 
z
" clip-path="url(#p13e0e132bd)" style="fill: #87ceeb; opacity: 0.7; stroke: #000000; stroke-linejoin: miter"/>
   </g>
   <g id="patch_18">
    <path d="M 168.153352 388.6 
L 174.886004 388.6 
L 174.886004 323.651546 
L 168.153352 323.651546 
z
" clip-path="url(#p13e0e132bd)" style="fill: #87ceeb; opacity: 0.7; stroke: #000000; stroke-linejoin: miter"/>
   </g>
   <g id="patch_19">
    <path d="M 174.886004 388.6 
L 181.618655 388.6 
L 181.618655 311.142955 
L 174.886004 311.142955 
z
" clip-path="url(#p13e0e132bd)" style="fill: #87ceeb; opacity: 0.7; stroke: #000000; stroke-linejoin: miter"/>
   </g>
   <g id="patch_20">
    <path d="M 181.618655 388.6 
L 188.351307 388.6 
L 188.351307 285.163574 
L 181.618655 285.163574 
z
" clip-path="url(#p13e0e132bd)" style="fill: #87ceeb; opacity: 0.7; stroke: #000000; stroke-linejoin: miter"/>
   </g>
   <g id="patch_21">
    <path d="M 188.351307 388.6 
L 195.083958 388.6 
L 195.083958 262.07079 
L 188.351307 262.07079 
z
" clip-path="url(#p13e0e132bd)" style="fill: #87ceeb; opacity: 0.7; stroke: #000000; stroke-linejoin: miter"/>
   </g>
   <g id="patch_22">
    <path d="M 195.083958 388.6 
L 201.81661 388.6 
L 201.81661 244.751203 
L 195.083958 244.751203 
z
" clip-path="url(#p13e0e132bd)" style="fill: #87ceeb; opacity: 0.7; stroke: #000000; stroke-linejoin: miter"/>
   </g>
   <g id="patch_23">
    <path d="M 201.81661 388.6 
L 208.549261 388.6 
L 208.549261 213.960825 
L 201.81661 213.960825 
z
" clip-path="url(#p13e0e132bd)" style="fill: #87ceeb; opacity: 0.7; stroke: #000000; stroke-linejoin: miter"/>
   </g>
   <g id="patch_24">
    <path d="M 208.549261 388.6 
L 215.281913 388.6 
L 215.281913 180.764948 
L 208.549261 180.764948 
z
" clip-path="url(#p13e0e132bd)" style="fill: #87ceeb; opacity: 0.7; stroke: #000000; stroke-linejoin: miter"/>
   </g>
   <g id="patch_25">
    <path d="M 215.281913 388.6 
L 222.014564 388.6 
L 222.014564 141.314777 
L 215.281913 141.314777 
z
" clip-path="url(#p13e0e132bd)" style="fill: #87ceeb; opacity: 0.7; stroke: #000000; stroke-linejoin: miter"/>
   </g>
   <g id="patch_26">
    <path d="M 222.014564 388.6 
L 228.747216 388.6 
L 228.747216 100.902405 
L 222.014564 100.902405 
z
" clip-path="url(#p13e0e132bd)" style="fill: #87ceeb; opacity: 0.7; stroke: #000000; stroke-linejoin: miter"/>
   </g>
   <g id="patch_27">
    <path d="M 228.747216 388.6 
L 235.479867 388.6 
L 235.479867 79.734021 
L 228.747216 79.734021 
z
" clip-path="url(#p13e0e132bd)" style="fill: #87ceeb; opacity: 0.7; stroke: #000000; stroke-linejoin: miter"/>
   </g>
   <g id="patch_28">
    <path d="M 235.479867 388.6 
L 242.212519 388.6 
L 242.212519 68.187629 
L 235.479867 68.187629 
z
" clip-path="url(#p13e0e132bd)" style="fill: #87ceeb; opacity: 0.7; stroke: #000000; stroke-linejoin: miter"/>
   </g>
   <g id="patch_29">
    <path d="M 242.212519 388.6 
L 248.94517 388.6 
L 248.94517 77.328522 
L 242.212519 77.328522 
z
" clip-path="url(#p13e0e132bd)" style="fill: #87ceeb; opacity: 0.7; stroke: #000000; stroke-linejoin: miter"/>
   </g>
   <g id="patch_30">
    <path d="M 248.94517 388.6 
L 255.677822 388.6 
L 255.677822 61.933333 
L 248.94517 61.933333 
z
" clip-path="url(#p13e0e132bd)" style="fill: #87ceeb; opacity: 0.7; stroke: #000000; stroke-linejoin: miter"/>
   </g>
   <g id="patch_31">
    <path d="M 255.677822 388.6 
L 262.410473 388.6 
L 262.410473 98.496907 
L 255.677822 98.496907 
z
" clip-path="url(#p13e0e132bd)" style="fill: #87ceeb; opacity: 0.7; stroke: #000000; stroke-linejoin: miter"/>
   </g>
   <g id="patch_32">
    <path d="M 262.410473 388.6 
L 269.143125 388.6 
L 269.143125 88.874914 
L 262.410473 88.874914 
z
" clip-path="url(#p13e0e132bd)" style="fill: #87ceeb; opacity: 0.7; stroke: #000000; stroke-linejoin: miter"/>
   </g>
   <g id="patch_33">
    <path d="M 269.143125 388.6 
L 275.875777 388.6 
L 275.875777 111.486598 
L 269.143125 111.486598 
z
" clip-path="url(#p13e0e132bd)" style="fill: #87ceeb; opacity: 0.7; stroke: #000000; stroke-linejoin: miter"/>
   </g>
   <g id="patch_34">
    <path d="M 275.875777 388.6 
L 282.608428 388.6 
L 282.608428 90.318213 
L 275.875777 90.318213 
z
" clip-path="url(#p13e0e132bd)" style="fill: #87ceeb; opacity: 0.7; stroke: #000000; stroke-linejoin: miter"/>
   </g>
   <g id="patch_35">
    <path d="M 282.608428 388.6 
L 289.34108 388.6 
L 289.34108 122.55189 
L 282.608428 122.55189 
z
" clip-path="url(#p13e0e132bd)" style="fill: #87ceeb; opacity: 0.7; stroke: #000000; stroke-linejoin: miter"/>
   </g>
   <g id="patch_36">
    <path d="M 289.34108 388.6 
L 296.073731 388.6 
L 296.073731 98.978007 
L 289.34108 98.978007 
z
" clip-path="url(#p13e0e132bd)" style="fill: #87ceeb; opacity: 0.7; stroke: #000000; stroke-linejoin: miter"/>
   </g>
   <g id="patch_37">
    <path d="M 296.073731 388.6 
L 302.806383 388.6 
L 302.806383 89.356014 
L 296.073731 89.356014 
z
" clip-path="url(#p13e0e132bd)" style="fill: #87ceeb; opacity: 0.7; stroke: #000000; stroke-linejoin: miter"/>
   </g>
   <g id="patch_38">
    <path d="M 302.806383 388.6 
L 309.539034 388.6 
L 309.539034 86.950515 
L 302.806383 86.950515 
z
" clip-path="url(#p13e0e132bd)" style="fill: #87ceeb; opacity: 0.7; stroke: #000000; stroke-linejoin: miter"/>
   </g>
   <g id="patch_39">
    <path d="M 309.539034 388.6 
L 316.271686 388.6 
L 316.271686 114.854296 
L 309.539034 114.854296 
z
" clip-path="url(#p13e0e132bd)" style="fill: #87ceeb; opacity: 0.7; stroke: #000000; stroke-linejoin: miter"/>
   </g>
   <g id="patch_40">
    <path d="M 316.271686 388.6 
L 323.004337 388.6 
L 323.004337 114.373196 
L 316.271686 114.373196 
z
" clip-path="url(#p13e0e132bd)" style="fill: #87ceeb; opacity: 0.7; stroke: #000000; stroke-linejoin: miter"/>
   </g>
   <g id="patch_41">
    <path d="M 323.004337 388.6 
L 329.736989 388.6 
L 329.736989 98.978007 
L 323.004337 98.978007 
z
" clip-path="url(#p13e0e132bd)" style="fill: #87ceeb; opacity: 0.7; stroke: #000000; stroke-linejoin: miter"/>
   </g>
   <g id="patch_42">
    <path d="M 329.736989 388.6 
L 336.46964 388.6 
L 336.46964 172.586254 
L 329.736989 172.586254 
z
" clip-path="url(#p13e0e132bd)" style="fill: #87ceeb; opacity: 0.7; stroke: #000000; stroke-linejoin: miter"/>
   </g>
   <g id="patch_43">
    <path d="M 336.46964 388.6 
L 343.202292 388.6 
L 343.202292 213.960825 
L 336.46964 213.960825 
z
" clip-path="url(#p13e0e132bd)" style="fill: #87ceeb; opacity: 0.7; stroke: #000000; stroke-linejoin: miter"/>
   </g>
   <g id="patch_44">
    <path d="M 343.202292 388.6 
L 349.934943 388.6 
L 349.934943 224.063918 
L 343.202292 224.063918 
z
" clip-path="url(#p13e0e132bd)" style="fill: #87ceeb; opacity: 0.7; stroke: #000000; stroke-linejoin: miter"/>
   </g>
   <g id="patch_45">
    <path d="M 349.934943 388.6 
L 356.667595 388.6 
L 356.667595 282.758076 
L 349.934943 282.758076 
z
" clip-path="url(#p13e0e132bd)" style="fill: #87ceeb; opacity: 0.7; stroke: #000000; stroke-linejoin: miter"/>
   </g>
   <g id="patch_46">
    <path d="M 356.667595 388.6 
L 363.400246 388.6 
L 363.400246 266.881787 
L 356.667595 266.881787 
z
" clip-path="url(#p13e0e132bd)" style="fill: #87ceeb; opacity: 0.7; stroke: #000000; stroke-linejoin: miter"/>
   </g>
   <g id="patch_47">
    <path d="M 363.400246 388.6 
L 370.132898 388.6 
L 370.132898 283.239175 
L 363.400246 283.239175 
z
" clip-path="url(#p13e0e132bd)" style="fill: #87ceeb; opacity: 0.7; stroke: #000000; stroke-linejoin: miter"/>
   </g>
   <g id="patch_48">
    <path d="M 370.132898 388.6 
L 376.865549 388.6 
L 376.865549 302.002062 
L 370.132898 302.002062 
z
" clip-path="url(#p13e0e132bd)" style="fill: #87ceeb; opacity: 0.7; stroke: #000000; stroke-linejoin: miter"/>
   </g>
   <g id="patch_49">
    <path d="M 376.865549 388.6 
L 383.598201 388.6 
L 383.598201 321.727148 
L 376.865549 321.727148 
z
" clip-path="url(#p13e0e132bd)" style="fill: #87ceeb; opacity: 0.7; stroke: #000000; stroke-linejoin: miter"/>
   </g>
   <g id="patch_50">
    <path d="M 383.598201 388.6 
L 390.330852 388.6 
L 390.330852 314.991753 
L 383.598201 314.991753 
z
" clip-path="url(#p13e0e132bd)" style="fill: #87ceeb; opacity: 0.7; stroke: #000000; stroke-linejoin: miter"/>
   </g>
   <g id="patch_51">
    <path d="M 390.330852 388.6 
L 397.063504 388.6 
L 397.063504 350.593127 
L 390.330852 350.593127 
z
" clip-path="url(#p13e0e132bd)" style="fill: #87ceeb; opacity: 0.7; stroke: #000000; stroke-linejoin: miter"/>
   </g>
   <g id="patch_52">
    <path d="M 397.063504 388.6 
L 403.796155 388.6 
L 403.796155 351.074227 
L 397.063504 351.074227 
z
" clip-path="url(#p13e0e132bd)" style="fill: #87ceeb; opacity: 0.7; stroke: #000000; stroke-linejoin: miter"/>
   </g>
   <g id="patch_53">
    <path d="M 403.796155 388.6 
L 410.528807 388.6 
L 410.528807 360.21512 
L 403.796155 360.21512 
z
" clip-path="url(#p13e0e132bd)" style="fill: #87ceeb; opacity: 0.7; stroke: #000000; stroke-linejoin: miter"/>
   </g>
   <g id="patch_54">
    <path d="M 410.528807 388.6 
L 417.261458 388.6 
L 417.261458 365.026117 
L 410.528807 365.026117 
z
" clip-path="url(#p13e0e132bd)" style="fill: #87ceeb; opacity: 0.7; stroke: #000000; stroke-linejoin: miter"/>
   </g>
   <g id="patch_55">
    <path d="M 417.261458 388.6 
L 423.99411 388.6 
L 423.99411 373.685911 
L 417.261458 373.685911 
z
" clip-path="url(#p13e0e132bd)" style="fill: #87ceeb; opacity: 0.7; stroke: #000000; stroke-linejoin: miter"/>
   </g>
   <g id="patch_56">
    <path d="M 423.99411 388.6 
L 430.726761 388.6 
L 430.726761 378.015808 
L 423.99411 378.015808 
z
" clip-path="url(#p13e0e132bd)" style="fill: #87ceeb; opacity: 0.7; stroke: #000000; stroke-linejoin: miter"/>
   </g>
   <g id="patch_57">
    <path d="M 430.726761 388.6 
L 437.459413 388.6 
L 437.459413 378.496907 
L 430.726761 378.496907 
z
" clip-path="url(#p13e0e132bd)" style="fill: #87ceeb; opacity: 0.7; stroke: #000000; stroke-linejoin: miter"/>
   </g>
   <g id="patch_58">
    <path d="M 437.459413 388.6 
L 444.192064 388.6 
L 444.192064 379.459107 
L 437.459413 379.459107 
z
" clip-path="url(#p13e0e132bd)" style="fill: #87ceeb; opacity: 0.7; stroke: #000000; stroke-linejoin: miter"/>
   </g>
   <g id="patch_59">
    <path d="M 444.192064 388.6 
L 450.924716 388.6 
L 450.924716 378.978007 
L 444.192064 378.978007 
z
" clip-path="url(#p13e0e132bd)" style="fill: #87ceeb; opacity: 0.7; stroke: #000000; stroke-linejoin: miter"/>
   </g>
   <g id="patch_60">
    <path d="M 450.924716 388.6 
L 457.657367 388.6 
L 457.657367 383.789003 
L 450.924716 383.789003 
z
" clip-path="url(#p13e0e132bd)" style="fill: #87ceeb; opacity: 0.7; stroke: #000000; stroke-linejoin: miter"/>
   </g>
   <g id="patch_61">
    <path d="M 457.657367 388.6 
L 464.390019 388.6 
L 464.390019 381.383505 
L 457.657367 381.383505 
z
" clip-path="url(#p13e0e132bd)" style="fill: #87ceeb; opacity: 0.7; stroke: #000000; stroke-linejoin: miter"/>
   </g>
   <g id="patch_62">
    <path d="M 464.390019 388.6 
L 471.12267 388.6 
L 471.12267 384.751203 
L 464.390019 384.751203 
z
" clip-path="url(#p13e0e132bd)" style="fill: #87ceeb; opacity: 0.7; stroke: #000000; stroke-linejoin: miter"/>
   </g>
   <g id="matplotlib.axis_1">
    <g id="xtick_1">
     <g id="line2d_1">
      <path d="M 138.77917 388.6 
L 138.77917 45.6 
" clip-path="url(#p13e0e132bd)" style="fill: none; stroke: #b0b0b0; stroke-opacity: 0.3; stroke-width: 0.8; stroke-linecap: square"/>
     </g>
     <g id="line2d_2">
      <defs>
       <path id="m3fba6fdf27" d="M 0 0 
L 0 3.5 
" style="stroke: #000000; stroke-width: 0.8"/>
      </defs>
      <g>
       <use xlink:href="#m3fba6fdf27" x="138.77917" y="388.6" style="stroke: #000000; stroke-width: 0.8"/>
      </g>
     </g>
     <g id="text_1">
      <!-- −0.005 -->
      <g transform="translate(120.275264 403.198437) scale(0.1 -0.1)">
       <defs>
        <path id="DejaVuSans-2212" d="M 678 2272 
L 4684 2272 
L 4684 1741 
L 678 1741 
L 678 2272 
z
" transform="scale(0.015625)"/>
        <path id="DejaVuSans-30" d="M 2034 4250 
Q 1547 4250 1301 3770 
Q 1056 3291 1056 2328 
Q 1056 1369 1301 889 
Q 1547 409 2034 409 
Q 2525 409 2770 889 
Q 3016 1369 3016 2328 
Q 3016 3291 2770 3770 
Q 2525 4250 2034 4250 
z
M 2034 4750 
Q 2819 4750 3233 4129 
Q 3647 3509 3647 2328 
Q 3647 1150 3233 529 
Q 2819 -91 2034 -91 
Q 1250 -91 836 529 
Q 422 1150 422 2328 
Q 422 3509 836 4129 
Q 1250 4750 2034 4750 
z
" transform="scale(0.015625)"/>
        <path id="DejaVuSans-2e" d="M 684 794 
L 1344 794 
L 1344 0 
L 684 0 
L 684 794 
z
" transform="scale(0.015625)"/>
        <path id="DejaVuSans-35" d="M 691 4666 
L 3169 4666 
L 3169 4134 
L 1269 4134 
L 1269 2991 
Q 1406 3038 1543 3061 
Q 1681 3084 1819 3084 
Q 2600 3084 3056 2656 
Q 3513 2228 3513 1497 
Q 3513 744 3044 326 
Q 2575 -91 1722 -91 
Q 1428 -91 1123 -41 
Q 819 9 494 109 
L 494 744 
Q 775 591 1075 516 
Q 1375 441 1709 441 
Q 2250 441 2565 725 
Q 2881 1009 2881 1497 
Q 2881 1984 2565 2268 
Q 2250 2553 1709 2553 
Q 1456 2553 1204 2497 
Q 953 2441 691 2322 
L 691 4666 
z
" transform="scale(0.015625)"/>
       </defs>
       <use xlink:href="#DejaVuSans-2212"/>
       <use xlink:href="#DejaVuSans-30" transform="translate(83.789062 0)"/>
       <use xlink:href="#DejaVuSans-2e" transform="translate(147.412109 0)"/>
       <use xlink:href="#DejaVuSans-30" transform="translate(179.199219 0)"/>
       <use xlink:href="#DejaVuSans-30" transform="translate(242.822266 0)"/>
       <use xlink:href="#DejaVuSans-35" transform="translate(306.445312 0)"/>
      </g>
     </g>
    </g>
    <g id="xtick_2">
     <g id="line2d_3">
      <path d="M 235.154554 388.6 
L 235.154554 45.6 
" clip-path="url(#p13e0e132bd)" style="fill: none; stroke: #b0b0b0; stroke-opacity: 0.3; stroke-width: 0.8; stroke-linecap: square"/>
     </g>
     <g id="line2d_4">
      <g>
       <use xlink:href="#m3fba6fdf27" x="235.154554" y="388.6" style="stroke: #000000; stroke-width: 0.8"/>
      </g>
     </g>
     <g id="text_2">
      <!-- 0.000 -->
      <g transform="translate(220.840492 403.198437) scale(0.1 -0.1)">
       <use xlink:href="#DejaVuSans-30"/>
       <use xlink:href="#DejaVuSans-2e" transform="translate(63.623047 0)"/>
       <use xlink:href="#DejaVuSans-30" transform="translate(95.410156 0)"/>
       <use xlink:href="#DejaVuSans-30" transform="translate(159.033203 0)"/>
       <use xlink:href="#DejaVuSans-30" transform="translate(222.65625 0)"/>
      </g>
     </g>
    </g>
    <g id="xtick_3">
     <g id="line2d_5">
      <path d="M 331.529939 388.6 
L 331.529939 45.6 
" clip-path="url(#p13e0e132bd)" style="fill: none; stroke: #b0b0b0; stroke-opacity: 0.3; stroke-width: 0.8; stroke-linecap: square"/>
     </g>
     <g id="line2d_6">
      <g>
       <use xlink:href="#m3fba6fdf27" x="331.529939" y="388.6" style="stroke: #000000; stroke-width: 0.8"/>
      </g>
     </g>
     <g id="text_3">
      <!-- 0.005 -->
      <g transform="translate(317.215876 403.198437) scale(0.1 -0.1)">
       <use xlink:href="#DejaVuSans-30"/>
       <use xlink:href="#DejaVuSans-2e" transform="translate(63.623047 0)"/>
       <use xlink:href="#DejaVuSans-30" transform="translate(95.410156 0)"/>
       <use xlink:href="#DejaVuSans-30" transform="translate(159.033203 0)"/>
       <use xlink:href="#DejaVuSans-35" transform="translate(222.65625 0)"/>
      </g>
     </g>
    </g>
    <g id="xtick_4">
     <g id="line2d_7">
      <path d="M 427.905323 388.6 
L 427.905323 45.6 
" clip-path="url(#p13e0e132bd)" style="fill: none; stroke: #b0b0b0; stroke-opacity: 0.3; stroke-width: 0.8; stroke-linecap: square"/>
     </g>
     <g id="line2d_8">
      <g>
       <use xlink:href="#m3fba6fdf27" x="427.905323" y="388.6" style="stroke: #000000; stroke-width: 0.8"/>
      </g>
     </g>
     <g id="text_4">
      <!-- 0.010 -->
      <g transform="translate(413.59126 403.198437) scale(0.1 -0.1)">
       <defs>
        <path id="DejaVuSans-31" d="M 794 531 
L 1825 531 
L 1825 4091 
L 703 3866 
L 703 4441 
L 1819 4666 
L 2450 4666 
L 2450 531 
L 3481 531 
L 3481 0 
L 794 0 
L 794 531 
z
" transform="scale(0.015625)"/>
       </defs>
       <use xlink:href="#DejaVuSans-30"/>
       <use xlink:href="#DejaVuSans-2e" transform="translate(63.623047 0)"/>
       <use xlink:href="#DejaVuSans-30" transform="translate(95.410156 0)"/>
       <use xlink:href="#DejaVuSans-31" transform="translate(159.033203 0)"/>
       <use xlink:href="#DejaVuSans-30" transform="translate(222.65625 0)"/>
      </g>
     </g>
    </g>
    <g id="text_5">
     <!-- Error (degrees) -->
     <g transform="translate(231.341563 416.876562) scale(0.1 -0.1)">
      <defs>
       <path id="DejaVuSans-45" d="M 628 4666 
L 3578 4666 
L 3578 4134 
L 1259 4134 
L 1259 2753 
L 3481 2753 
L 3481 2222 
L 1259 2222 
L 1259 531 
L 3634 531 
L 3634 0 
L 628 0 
L 628 4666 
z
" transform="scale(0.015625)"/>
       <path id="DejaVuSans-72" d="M 2631 2963 
Q 2534 3019 2420 3045 
Q 2306 3072 2169 3072 
Q 1681 3072 1420 2755 
Q 1159 2438 1159 1844 
L 1159 0 
L 581 0 
L 581 3500 
L 1159 3500 
L 1159 2956 
Q 1341 3275 1631 3429 
Q 1922 3584 2338 3584 
Q 2397 3584 2469 3576 
Q 2541 3569 2628 3553 
L 2631 2963 
z
" transform="scale(0.015625)"/>
       <path id="DejaVuSans-6f" d="M 1959 3097 
Q 1497 3097 1228 2736 
Q 959 2375 959 1747 
Q 959 1119 1226 758 
Q 1494 397 1959 397 
Q 2419 397 2687 759 
Q 2956 1122 2956 1747 
Q 2956 2369 2687 2733 
Q 2419 3097 1959 3097 
z
M 1959 3584 
Q 2709 3584 3137 3096 
Q 3566 2609 3566 1747 
Q 3566 888 3137 398 
Q 2709 -91 1959 -91 
Q 1206 -91 779 398 
Q 353 888 353 1747 
Q 353 2609 779 3096 
Q 1206 3584 1959 3584 
z
" transform="scale(0.015625)"/>
       <path id="DejaVuSans-20" transform="scale(0.015625)"/>
       <path id="DejaVuSans-28" d="M 1984 4856 
Q 1566 4138 1362 3434 
Q 1159 2731 1159 2009 
Q 1159 1288 1364 580 
Q 1569 -128 1984 -844 
L 1484 -844 
Q 1016 -109 783 600 
Q 550 1309 550 2009 
Q 550 2706 781 3412 
Q 1013 4119 1484 4856 
L 1984 4856 
z
" transform="scale(0.015625)"/>
       <path id="DejaVuSans-64" d="M 2906 2969 
L 2906 4863 
L 3481 4863 
L 3481 0 
L 2906 0 
L 2906 525 
Q 2725 213 2448 61 
Q 2172 -91 1784 -91 
Q 1150 -91 751 415 
Q 353 922 353 1747 
Q 353 2572 751 3078 
Q 1150 3584 1784 3584 
Q 2172 3584 2448 3432 
Q 2725 3281 2906 2969 
z
M 947 1747 
Q 947 1113 1208 752 
Q 1469 391 1925 391 
Q 2381 391 2643 752 
Q 2906 1113 2906 1747 
Q 2906 2381 2643 2742 
Q 2381 3103 1925 3103 
Q 1469 3103 1208 2742 
Q 947 2381 947 1747 
z
" transform="scale(0.015625)"/>
       <path id="DejaVuSans-65" d="M 3597 1894 
L 3597 1613 
L 953 1613 
Q 991 1019 1311 708 
Q 1631 397 2203 397 
Q 2534 397 2845 478 
Q 3156 559 3463 722 
L 3463 178 
Q 3153 47 2828 -22 
Q 2503 -91 2169 -91 
Q 1331 -91 842 396 
Q 353 884 353 1716 
Q 353 2575 817 3079 
Q 1281 3584 2069 3584 
Q 2775 3584 3186 3129 
Q 3597 2675 3597 1894 
z
M 3022 2063 
Q 3016 2534 2758 2815 
Q 2500 3097 2075 3097 
Q 1594 3097 1305 2825 
Q 1016 2553 972 2059 
L 3022 2063 
z
" transform="scale(0.015625)"/>
       <path id="DejaVuSans-67" d="M 2906 1791 
Q 2906 2416 2648 2759 
Q 2391 3103 1925 3103 
Q 1463 3103 1205 2759 
Q 947 2416 947 1791 
Q 947 1169 1205 825 
Q 1463 481 1925 481 
Q 2391 481 2648 825 
Q 2906 1169 2906 1791 
z
M 3481 434 
Q 3481 -459 3084 -895 
Q 2688 -1331 1869 -1331 
Q 1566 -1331 1297 -1286 
Q 1028 -1241 775 -1147 
L 775 -588 
Q 1028 -725 1275 -790 
Q 1522 -856 1778 -856 
Q 2344 -856 2625 -561 
Q 2906 -266 2906 331 
L 2906 616 
Q 2728 306 2450 153 
Q 2172 0 1784 0 
Q 1141 0 747 490 
Q 353 981 353 1791 
Q 353 2603 747 3093 
Q 1141 3584 1784 3584 
Q 2172 3584 2450 3431 
Q 2728 3278 2906 2969 
L 2906 3500 
L 3481 3500 
L 3481 434 
z
" transform="scale(0.015625)"/>
       <path id="DejaVuSans-73" d="M 2834 3397 
L 2834 2853 
Q 2591 2978 2328 3040 
Q 2066 3103 1784 3103 
Q 1356 3103 1142 2972 
Q 928 2841 928 2578 
Q 928 2378 1081 2264 
Q 1234 2150 1697 2047 
L 1894 2003 
Q 2506 1872 2764 1633 
Q 3022 1394 3022 966 
Q 3022 478 2636 193 
Q 2250 -91 1575 -91 
Q 1294 -91 989 -36 
Q 684 19 347 128 
L 347 722 
Q 666 556 975 473 
Q 1284 391 1588 391 
Q 1994 391 2212 530 
Q 2431 669 2431 922 
Q 2431 1156 2273 1281 
Q 2116 1406 1581 1522 
L 1381 1569 
Q 847 1681 609 1914 
Q 372 2147 372 2553 
Q 372 3047 722 3315 
Q 1072 3584 1716 3584 
Q 2034 3584 2315 3537 
Q 2597 3491 2834 3397 
z
" transform="scale(0.015625)"/>
       <path id="DejaVuSans-29" d="M 513 4856 
L 1013 4856 
Q 1481 4119 1714 3412 
Q 1947 2706 1947 2009 
Q 1947 1309 1714 600 
Q 1481 -109 1013 -844 
L 513 -844 
Q 928 -128 1133 580 
Q 1338 1288 1338 2009 
Q 1338 2731 1133 3434 
Q 928 4138 513 4856 
z
" transform="scale(0.015625)"/>
      </defs>
      <use xlink:href="#DejaVuSans-45"/>
      <use xlink:href="#DejaVuSans-72" transform="translate(63.183594 0)"/>
      <use xlink:href="#DejaVuSans-72" transform="translate(102.546875 0)"/>
      <use xlink:href="#DejaVuSans-6f" transform="translate(141.410156 0)"/>
      <use xlink:href="#DejaVuSans-72" transform="translate(202.591797 0)"/>
      <use xlink:href="#DejaVuSans-20" transform="translate(243.705078 0)"/>
      <use xlink:href="#DejaVuSans-28" transform="translate(275.492188 0)"/>
      <use xlink:href="#DejaVuSans-64" transform="translate(314.505859 0)"/>
      <use xlink:href="#DejaVuSans-65" transform="translate(377.982422 0)"/>
      <use xlink:href="#DejaVuSans-67" transform="translate(439.505859 0)"/>
      <use xlink:href="#DejaVuSans-72" transform="translate(502.982422 0)"/>
      <use xlink:href="#DejaVuSans-65" transform="translate(541.845703 0)"/>
      <use xlink:href="#DejaVuSans-65" transform="translate(603.369141 0)"/>
      <use xlink:href="#DejaVuSans-73" transform="translate(664.892578 0)"/>
      <use xlink:href="#DejaVuSans-29" transform="translate(716.992188 0)"/>
     </g>
    </g>
   </g>
   <g id="matplotlib.axis_2">
    <g id="ytick_1">
     <g id="line2d_9">
      <path d="M 46.965625 388.6 
L 491.320625 388.6 
" clip-path="url(#p13e0e132bd)" style="fill: none; stroke: #b0b0b0; stroke-opacity: 0.3; stroke-width: 0.8; stroke-linecap: square"/>
     </g>
     <g id="line2d_10">
      <defs>
       <path id="mf3525e6db3" d="M 0 0 
L -3.5 0 
" style="stroke: #000000; stroke-width: 0.8"/>
      </defs>
      <g>
       <use xlink:href="#mf3525e6db3" x="46.965625" y="388.6" style="stroke: #000000; stroke-width: 0.8"/>
      </g>
     </g>
     <g id="text_6">
      <!-- 0 -->
      <g transform="translate(33.603125 392.399219) scale(0.1 -0.1)">
       <use xlink:href="#DejaVuSans-30"/>
      </g>
     </g>
    </g>
    <g id="ytick_2">
     <g id="line2d_11">
      <path d="M 46.965625 340.490034 
L 491.320625 340.490034 
" clip-path="url(#p13e0e132bd)" style="fill: none; stroke: #b0b0b0; stroke-opacity: 0.3; stroke-width: 0.8; stroke-linecap: square"/>
     </g>
     <g id="line2d_12">
      <g>
       <use xlink:href="#mf3525e6db3" x="46.965625" y="340.490034" style="stroke: #000000; stroke-width: 0.8"/>
      </g>
     </g>
     <g id="text_7">
      <!-- 100 -->
      <g transform="translate(20.878125 344.289253) scale(0.1 -0.1)">
       <use xlink:href="#DejaVuSans-31"/>
       <use xlink:href="#DejaVuSans-30" transform="translate(63.623047 0)"/>
       <use xlink:href="#DejaVuSans-30" transform="translate(127.246094 0)"/>
      </g>
     </g>
    </g>
    <g id="ytick_3">
     <g id="line2d_13">
      <path d="M 46.965625 292.380069 
L 491.320625 292.380069 
" clip-path="url(#p13e0e132bd)" style="fill: none; stroke: #b0b0b0; stroke-opacity: 0.3; stroke-width: 0.8; stroke-linecap: square"/>
     </g>
     <g id="line2d_14">
      <g>
       <use xlink:href="#mf3525e6db3" x="46.965625" y="292.380069" style="stroke: #000000; stroke-width: 0.8"/>
      </g>
     </g>
     <g id="text_8">
      <!-- 200 -->
      <g transform="translate(20.878125 296.179287) scale(0.1 -0.1)">
       <defs>
        <path id="DejaVuSans-32" d="M 1228 531 
L 3431 531 
L 3431 0 
L 469 0 
L 469 531 
Q 828 903 1448 1529 
Q 2069 2156 2228 2338 
Q 2531 2678 2651 2914 
Q 2772 3150 2772 3378 
Q 2772 3750 2511 3984 
Q 2250 4219 1831 4219 
Q 1534 4219 1204 4116 
Q 875 4013 500 3803 
L 500 4441 
Q 881 4594 1212 4672 
Q 1544 4750 1819 4750 
Q 2544 4750 2975 4387 
Q 3406 4025 3406 3419 
Q 3406 3131 3298 2873 
Q 3191 2616 2906 2266 
Q 2828 2175 2409 1742 
Q 1991 1309 1228 531 
z
" transform="scale(0.015625)"/>
       </defs>
       <use xlink:href="#DejaVuSans-32"/>
       <use xlink:href="#DejaVuSans-30" transform="translate(63.623047 0)"/>
       <use xlink:href="#DejaVuSans-30" transform="translate(127.246094 0)"/>
      </g>
     </g>
    </g>
    <g id="ytick_4">
     <g id="line2d_15">
      <path d="M 46.965625 244.270103 
L 491.320625 244.270103 
" clip-path="url(#p13e0e132bd)" style="fill: none; stroke: #b0b0b0; stroke-opacity: 0.3; stroke-width: 0.8; stroke-linecap: square"/>
     </g>
     <g id="line2d_16">
      <g>
       <use xlink:href="#mf3525e6db3" x="46.965625" y="244.270103" style="stroke: #000000; stroke-width: 0.8"/>
      </g>
     </g>
     <g id="text_9">
      <!-- 300 -->
      <g transform="translate(20.878125 248.069322) scale(0.1 -0.1)">
       <defs>
        <path id="DejaVuSans-33" d="M 2597 2516 
Q 3050 2419 3304 2112 
Q 3559 1806 3559 1356 
Q 3559 666 3084 287 
Q 2609 -91 1734 -91 
Q 1441 -91 1130 -33 
Q 819 25 488 141 
L 488 750 
Q 750 597 1062 519 
Q 1375 441 1716 441 
Q 2309 441 2620 675 
Q 2931 909 2931 1356 
Q 2931 1769 2642 2001 
Q 2353 2234 1838 2234 
L 1294 2234 
L 1294 2753 
L 1863 2753 
Q 2328 2753 2575 2939 
Q 2822 3125 2822 3475 
Q 2822 3834 2567 4026 
Q 2313 4219 1838 4219 
Q 1578 4219 1281 4162 
Q 984 4106 628 3988 
L 628 4550 
Q 988 4650 1302 4700 
Q 1616 4750 1894 4750 
Q 2613 4750 3031 4423 
Q 3450 4097 3450 3541 
Q 3450 3153 3228 2886 
Q 3006 2619 2597 2516 
z
" transform="scale(0.015625)"/>
       </defs>
       <use xlink:href="#DejaVuSans-33"/>
       <use xlink:href="#DejaVuSans-30" transform="translate(63.623047 0)"/>
       <use xlink:href="#DejaVuSans-30" transform="translate(127.246094 0)"/>
      </g>
     </g>
    </g>
    <g id="ytick_5">
     <g id="line2d_17">
      <path d="M 46.965625 196.160137 
L 491.320625 196.160137 
" clip-path="url(#p13e0e132bd)" style="fill: none; stroke: #b0b0b0; stroke-opacity: 0.3; stroke-width: 0.8; stroke-linecap: square"/>
     </g>
     <g id="line2d_18">
      <g>
       <use xlink:href="#mf3525e6db3" x="46.965625" y="196.160137" style="stroke: #000000; stroke-width: 0.8"/>
      </g>
     </g>
     <g id="text_10">
      <!-- 400 -->
      <g transform="translate(20.878125 199.959356) scale(0.1 -0.1)">
       <defs>
        <path id="DejaVuSans-34" d="M 2419 4116 
L 825 1625 
L 2419 1625 
L 2419 4116 
z
M 2253 4666 
L 3047 4666 
L 3047 1625 
L 3713 1625 
L 3713 1100 
L 3047 1100 
L 3047 0 
L 2419 0 
L 2419 1100 
L 313 1100 
L 313 1709 
L 2253 4666 
z
" transform="scale(0.015625)"/>
       </defs>
       <use xlink:href="#DejaVuSans-34"/>
       <use xlink:href="#DejaVuSans-30" transform="translate(63.623047 0)"/>
       <use xlink:href="#DejaVuSans-30" transform="translate(127.246094 0)"/>
      </g>
     </g>
    </g>
    <g id="ytick_6">
     <g id="line2d_19">
      <path d="M 46.965625 148.050172 
L 491.320625 148.050172 
" clip-path="url(#p13e0e132bd)" style="fill: none; stroke: #b0b0b0; stroke-opacity: 0.3; stroke-width: 0.8; stroke-linecap: square"/>
     </g>
     <g id="line2d_20">
      <g>
       <use xlink:href="#mf3525e6db3" x="46.965625" y="148.050172" style="stroke: #000000; stroke-width: 0.8"/>
      </g>
     </g>
     <g id="text_11">
      <!-- 500 -->
      <g transform="translate(20.878125 151.849391) scale(0.1 -0.1)">
       <use xlink:href="#DejaVuSans-35"/>
       <use xlink:href="#DejaVuSans-30" transform="translate(63.623047 0)"/>
       <use xlink:href="#DejaVuSans-30" transform="translate(127.246094 0)"/>
      </g>
     </g>
    </g>
    <g id="ytick_7">
     <g id="line2d_21">
      <path d="M 46.965625 99.940206 
L 491.320625 99.940206 
" clip-path="url(#p13e0e132bd)" style="fill: none; stroke: #b0b0b0; stroke-opacity: 0.3; stroke-width: 0.8; stroke-linecap: square"/>
     </g>
     <g id="line2d_22">
      <g>
       <use xlink:href="#mf3525e6db3" x="46.965625" y="99.940206" style="stroke: #000000; stroke-width: 0.8"/>
      </g>
     </g>
     <g id="text_12">
      <!-- 600 -->
      <g transform="translate(20.878125 103.739425) scale(0.1 -0.1)">
       <defs>
        <path id="DejaVuSans-36" d="M 2113 2584 
Q 1688 2584 1439 2293 
Q 1191 2003 1191 1497 
Q 1191 994 1439 701 
Q 1688 409 2113 409 
Q 2538 409 2786 701 
Q 3034 994 3034 1497 
Q 3034 2003 2786 2293 
Q 2538 2584 2113 2584 
z
M 3366 4563 
L 3366 3988 
Q 3128 4100 2886 4159 
Q 2644 4219 2406 4219 
Q 1781 4219 1451 3797 
Q 1122 3375 1075 2522 
Q 1259 2794 1537 2939 
Q 1816 3084 2150 3084 
Q 2853 3084 3261 2657 
Q 3669 2231 3669 1497 
Q 3669 778 3244 343 
Q 2819 -91 2113 -91 
Q 1303 -91 875 529 
Q 447 1150 447 2328 
Q 447 3434 972 4092 
Q 1497 4750 2381 4750 
Q 2619 4750 2861 4703 
Q 3103 4656 3366 4563 
z
" transform="scale(0.015625)"/>
       </defs>
       <use xlink:href="#DejaVuSans-36"/>
       <use xlink:href="#DejaVuSans-30" transform="translate(63.623047 0)"/>
       <use xlink:href="#DejaVuSans-30" transform="translate(127.246094 0)"/>
      </g>
     </g>
    </g>
    <g id="ytick_8">
     <g id="line2d_23">
      <path d="M 46.965625 51.830241 
L 491.320625 51.830241 
" clip-path="url(#p13e0e132bd)" style="fill: none; stroke: #b0b0b0; stroke-opacity: 0.3; stroke-width: 0.8; stroke-linecap: square"/>
     </g>
     <g id="line2d_24">
      <g>
       <use xlink:href="#mf3525e6db3" x="46.965625" y="51.830241" style="stroke: #000000; stroke-width: 0.8"/>
      </g>
     </g>
     <g id="text_13">
      <!-- 700 -->
      <g transform="translate(20.878125 55.629459) scale(0.1 -0.1)">
       <defs>
        <path id="DejaVuSans-37" d="M 525 4666 
L 3525 4666 
L 3525 4397 
L 1831 0 
L 1172 0 
L 2766 4134 
L 525 4134 
L 525 4666 
z
" transform="scale(0.015625)"/>
       </defs>
       <use xlink:href="#DejaVuSans-37"/>
       <use xlink:href="#DejaVuSans-30" transform="translate(63.623047 0)"/>
       <use xlink:href="#DejaVuSans-30" transform="translate(127.246094 0)"/>
      </g>
     </g>
    </g>
    <g id="text_14">
     <!-- Frequency -->
     <g transform="translate(14.798437 242.929687) rotate(-90) scale(0.1 -0.1)">
      <defs>
       <path id="DejaVuSans-46" d="M 628 4666 
L 3309 4666 
L 3309 4134 
L 1259 4134 
L 1259 2759 
L 3109 2759 
L 3109 2228 
L 1259 2228 
L 1259 0 
L 628 0 
L 628 4666 
z
" transform="scale(0.015625)"/>
       <path id="DejaVuSans-71" d="M 947 1747 
Q 947 1113 1208 752 
Q 1469 391 1925 391 
Q 2381 391 2643 752 
Q 2906 1113 2906 1747 
Q 2906 2381 2643 2742 
Q 2381 3103 1925 3103 
Q 1469 3103 1208 2742 
Q 947 2381 947 1747 
z
M 2906 525 
Q 2725 213 2448 61 
Q 2172 -91 1784 -91 
Q 1150 -91 751 415 
Q 353 922 353 1747 
Q 353 2572 751 3078 
Q 1150 3584 1784 3584 
Q 2172 3584 2448 3432 
Q 2725 3281 2906 2969 
L 2906 3500 
L 3481 3500 
L 3481 -1331 
L 2906 -1331 
L 2906 525 
z
" transform="scale(0.015625)"/>
       <path id="DejaVuSans-75" d="M 544 1381 
L 544 3500 
L 1119 3500 
L 1119 1403 
Q 1119 906 1312 657 
Q 1506 409 1894 409 
Q 2359 409 2629 706 
Q 2900 1003 2900 1516 
L 2900 3500 
L 3475 3500 
L 3475 0 
L 2900 0 
L 2900 538 
Q 2691 219 2414 64 
Q 2138 -91 1772 -91 
Q 1169 -91 856 284 
Q 544 659 544 1381 
z
M 1991 3584 
L 1991 3584 
z
" transform="scale(0.015625)"/>
       <path id="DejaVuSans-6e" d="M 3513 2113 
L 3513 0 
L 2938 0 
L 2938 2094 
Q 2938 2591 2744 2837 
Q 2550 3084 2163 3084 
Q 1697 3084 1428 2787 
Q 1159 2491 1159 1978 
L 1159 0 
L 581 0 
L 581 3500 
L 1159 3500 
L 1159 2956 
Q 1366 3272 1645 3428 
Q 1925 3584 2291 3584 
Q 2894 3584 3203 3211 
Q 3513 2838 3513 2113 
z
" transform="scale(0.015625)"/>
       <path id="DejaVuSans-63" d="M 3122 3366 
L 3122 2828 
Q 2878 2963 2633 3030 
Q 2388 3097 2138 3097 
Q 1578 3097 1268 2742 
Q 959 2388 959 1747 
Q 959 1106 1268 751 
Q 1578 397 2138 397 
Q 2388 397 2633 464 
Q 2878 531 3122 666 
L 3122 134 
Q 2881 22 2623 -34 
Q 2366 -91 2075 -91 
Q 1284 -91 818 406 
Q 353 903 353 1747 
Q 353 2603 823 3093 
Q 1294 3584 2113 3584 
Q 2378 3584 2631 3529 
Q 2884 3475 3122 3366 
z
" transform="scale(0.015625)"/>
       <path id="DejaVuSans-79" d="M 2059 -325 
Q 1816 -950 1584 -1140 
Q 1353 -1331 966 -1331 
L 506 -1331 
L 506 -850 
L 844 -850 
Q 1081 -850 1212 -737 
Q 1344 -625 1503 -206 
L 1606 56 
L 191 3500 
L 800 3500 
L 1894 763 
L 2988 3500 
L 3597 3500 
L 2059 -325 
z
" transform="scale(0.015625)"/>
      </defs>
      <use xlink:href="#DejaVuSans-46"/>
      <use xlink:href="#DejaVuSans-72" transform="translate(50.269531 0)"/>
      <use xlink:href="#DejaVuSans-65" transform="translate(89.132812 0)"/>
      <use xlink:href="#DejaVuSans-71" transform="translate(150.65625 0)"/>
      <use xlink:href="#DejaVuSans-75" transform="translate(214.132812 0)"/>
      <use xlink:href="#DejaVuSans-65" transform="translate(277.511719 0)"/>
      <use xlink:href="#DejaVuSans-6e" transform="translate(339.035156 0)"/>
      <use xlink:href="#DejaVuSans-63" transform="translate(402.414062 0)"/>
      <use xlink:href="#DejaVuSans-79" transform="translate(457.394531 0)"/>
     </g>
    </g>
   </g>
   <g id="line2d_25">
    <path d="M 235.154554 388.6 
L 235.154554 45.6 
" clip-path="url(#p13e0e132bd)" style="fill: none; stroke-dasharray: 7.4,3.2; stroke-dashoffset: 0; stroke: #ff0000; stroke-width: 2"/>
   </g>
   <g id="line2d_26">
    <path d="M 273.475802 388.6 
L 273.475802 45.6 
" clip-path="url(#p13e0e132bd)" style="fill: none; stroke-dasharray: 7.4,3.2; stroke-dashoffset: 0; stroke: #ffa500; stroke-width: 2"/>
   </g>
   <g id="patch_63">
    <path d="M 46.965625 388.6 
L 46.965625 45.6 
" style="fill: none; stroke: #000000; stroke-width: 0.8; stroke-linejoin: miter; stroke-linecap: square"/>
   </g>
   <g id="patch_64">
    <path d="M 491.320625 388.6 
L 491.320625 45.6 
" style="fill: none; stroke: #000000; stroke-width: 0.8; stroke-linejoin: miter; stroke-linecap: square"/>
   </g>
   <g id="patch_65">
    <path d="M 46.965625 388.6 
L 491.320625 388.6 
" style="fill: none; stroke: #000000; stroke-width: 0.8; stroke-linejoin: miter; stroke-linecap: square"/>
   </g>
   <g id="patch_66">
    <path d="M 46.965625 45.6 
L 491.320625 45.6 
" style="fill: none; stroke: #000000; stroke-width: 0.8; stroke-linejoin: miter; stroke-linecap: square"/>
   </g>
   <g id="text_15">
    <!-- Meeus Error Distribution -->
    <g transform="translate(196.215938 39.6) scale(0.12 -0.12)">
     <defs>
      <path id="DejaVuSans-4d" d="M 628 4666 
L 1569 4666 
L 2759 1491 
L 3956 4666 
L 4897 4666 
L 4897 0 
L 4281 0 
L 4281 4097 
L 3078 897 
L 2444 897 
L 1241 4097 
L 1241 0 
L 628 0 
L 628 4666 
z
" transform="scale(0.015625)"/>
      <path id="DejaVuSans-44" d="M 1259 4147 
L 1259 519 
L 2022 519 
Q 2988 519 3436 956 
Q 3884 1394 3884 2338 
Q 3884 3275 3436 3711 
Q 2988 4147 2022 4147 
L 1259 4147 
z
M 628 4666 
L 1925 4666 
Q 3281 4666 3915 4102 
Q 4550 3538 4550 2338 
Q 4550 1131 3912 565 
Q 3275 0 1925 0 
L 628 0 
L 628 4666 
z
" transform="scale(0.015625)"/>
      <path id="DejaVuSans-69" d="M 603 3500 
L 1178 3500 
L 1178 0 
L 603 0 
L 603 3500 
z
M 603 4863 
L 1178 4863 
L 1178 4134 
L 603 4134 
L 603 4863 
z
" transform="scale(0.015625)"/>
      <path id="DejaVuSans-74" d="M 1172 4494 
L 1172 3500 
L 2356 3500 
L 2356 3053 
L 1172 3053 
L 1172 1153 
Q 1172 725 1289 603 
Q 1406 481 1766 481 
L 2356 481 
L 2356 0 
L 1766 0 
Q 1100 0 847 248 
Q 594 497 594 1153 
L 594 3053 
L 172 3053 
L 172 3500 
L 594 3500 
L 594 4494 
L 1172 4494 
z
" transform="scale(0.015625)"/>
      <path id="DejaVuSans-62" d="M 3116 1747 
Q 3116 2381 2855 2742 
Q 2594 3103 2138 3103 
Q 1681 3103 1420 2742 
Q 1159 2381 1159 1747 
Q 1159 1113 1420 752 
Q 1681 391 2138 391 
Q 2594 391 2855 752 
Q 3116 1113 3116 1747 
z
M 1159 2969 
Q 1341 3281 1617 3432 
Q 1894 3584 2278 3584 
Q 2916 3584 3314 3078 
Q 3713 2572 3713 1747 
Q 3713 922 3314 415 
Q 2916 -91 2278 -91 
Q 1894 -91 1617 61 
Q 1341 213 1159 525 
L 1159 0 
L 581 0 
L 581 4863 
L 1159 4863 
L 1159 2969 
z
" transform="scale(0.015625)"/>
     </defs>
     <use xlink:href="#DejaVuSans-4d"/>
     <use xlink:href="#DejaVuSans-65" transform="translate(86.279297 0)"/>
     <use xlink:href="#DejaVuSans-65" transform="translate(147.802734 0)"/>
     <use xlink:href="#DejaVuSans-75" transform="translate(209.326172 0)"/>
     <use xlink:href="#DejaVuSans-73" transform="translate(272.705078 0)"/>
     <use xlink:href="#DejaVuSans-20" transform="translate(324.804688 0)"/>
     <use xlink:href="#DejaVuSans-45" transform="translate(356.591797 0)"/>
     <use xlink:href="#DejaVuSans-72" transform="translate(419.775391 0)"/>
     <use xlink:href="#DejaVuSans-72" transform="translate(459.138672 0)"/>
     <use xlink:href="#DejaVuSans-6f" transform="translate(498.001953 0)"/>
     <use xlink:href="#DejaVuSans-72" transform="translate(559.183594 0)"/>
     <use xlink:href="#DejaVuSans-20" transform="translate(600.296875 0)"/>
     <use xlink:href="#DejaVuSans-44" transform="translate(632.083984 0)"/>
     <use xlink:href="#DejaVuSans-69" transform="translate(709.085938 0)"/>
     <use xlink:href="#DejaVuSans-73" transform="translate(736.869141 0)"/>
     <use xlink:href="#DejaVuSans-74" transform="translate(788.96875 0)"/>
     <use xlink:href="#DejaVuSans-72" transform="translate(828.177734 0)"/>
     <use xlink:href="#DejaVuSans-69" transform="translate(869.291016 0)"/>
     <use xlink:href="#DejaVuSans-62" transform="translate(897.074219 0)"/>
     <use xlink:href="#DejaVuSans-75" transform="translate(960.550781 0)"/>
     <use xlink:href="#DejaVuSans-74" transform="translate(1023.929688 0)"/>
     <use xlink:href="#DejaVuSans-69" transform="translate(1063.138672 0)"/>
     <use xlink:href="#DejaVuSans-6f" transform="translate(1090.921875 0)"/>
     <use xlink:href="#DejaVuSans-6e" transform="translate(1152.103516 0)"/>
    </g>
   </g>
   <g id="legend_1">
    <g id="patch_67">
     <path d="M 377.745625 82.95625 
L 484.320625 82.95625 
Q 486.320625 82.95625 486.320625 80.95625 
L 486.320625 52.6 
Q 486.320625 50.6 484.320625 50.6 
L 377.745625 50.6 
Q 375.745625 50.6 375.745625 52.6 
L 375.745625 80.95625 
Q 375.745625 82.95625 377.745625 82.95625 
z
" style="fill: #ffffff; opacity: 0.8; stroke: #cccccc; stroke-linejoin: miter"/>
    </g>
    <g id="line2d_27">
     <path d="M 379.745625 58.698437 
L 389.745625 58.698437 
L 399.745625 58.698437 
" style="fill: none; stroke-dasharray: 7.4,3.2; stroke-dashoffset: 0; stroke: #ff0000; stroke-width: 2"/>
    </g>
    <g id="text_16">
     <!-- Zero Error Line -->
     <g transform="translate(407.745625 62.198437) scale(0.1 -0.1)">
      <defs>
       <path id="DejaVuSans-5a" d="M 359 4666 
L 4025 4666 
L 4025 4184 
L 1075 531 
L 4097 531 
L 4097 0 
L 288 0 
L 288 481 
L 3238 4134 
L 359 4134 
L 359 4666 
z
" transform="scale(0.015625)"/>
       <path id="DejaVuSans-4c" d="M 628 4666 
L 1259 4666 
L 1259 531 
L 3531 531 
L 3531 0 
L 628 0 
L 628 4666 
z
" transform="scale(0.015625)"/>
      </defs>
      <use xlink:href="#DejaVuSans-5a"/>
      <use xlink:href="#DejaVuSans-65" transform="translate(68.505859 0)"/>
      <use xlink:href="#DejaVuSans-72" transform="translate(130.029297 0)"/>
      <use xlink:href="#DejaVuSans-6f" transform="translate(168.892578 0)"/>
      <use xlink:href="#DejaVuSans-20" transform="translate(230.074219 0)"/>
      <use xlink:href="#DejaVuSans-45" transform="translate(261.861328 0)"/>
      <use xlink:href="#DejaVuSans-72" transform="translate(325.044922 0)"/>
      <use xlink:href="#DejaVuSans-72" transform="translate(364.408203 0)"/>
      <use xlink:href="#DejaVuSans-6f" transform="translate(403.271484 0)"/>
      <use xlink:href="#DejaVuSans-72" transform="translate(464.453125 0)"/>
      <use xlink:href="#DejaVuSans-20" transform="translate(505.566406 0)"/>
      <use xlink:href="#DejaVuSans-4c" transform="translate(537.353516 0)"/>
      <use xlink:href="#DejaVuSans-69" transform="translate(593.066406 0)"/>
      <use xlink:href="#DejaVuSans-6e" transform="translate(620.849609 0)"/>
      <use xlink:href="#DejaVuSans-65" transform="translate(684.228516 0)"/>
     </g>
    </g>
    <g id="line2d_28">
     <path d="M 379.745625 73.376562 
L 389.745625 73.376562 
L 399.745625 73.376562 
" style="fill: none; stroke-dasharray: 7.4,3.2; stroke-dashoffset: 0; stroke: #ffa500; stroke-width: 2"/>
    </g>
    <g id="text_17">
     <!-- Mean: 0.0020° -->
     <g transform="translate(407.745625 76.876562) scale(0.1 -0.1)">
      <defs>
       <path id="DejaVuSans-61" d="M 2194 1759 
Q 1497 1759 1228 1600 
Q 959 1441 959 1056 
Q 959 750 1161 570 
Q 1363 391 1709 391 
Q 2188 391 2477 730 
Q 2766 1069 2766 1631 
L 2766 1759 
L 2194 1759 
z
M 3341 1997 
L 3341 0 
L 2766 0 
L 2766 531 
Q 2569 213 2275 61 
Q 1981 -91 1556 -91 
Q 1019 -91 701 211 
Q 384 513 384 1019 
Q 384 1609 779 1909 
Q 1175 2209 1959 2209 
L 2766 2209 
L 2766 2266 
Q 2766 2663 2505 2880 
Q 2244 3097 1772 3097 
Q 1472 3097 1187 3025 
Q 903 2953 641 2809 
L 641 3341 
Q 956 3463 1253 3523 
Q 1550 3584 1831 3584 
Q 2591 3584 2966 3190 
Q 3341 2797 3341 1997 
z
" transform="scale(0.015625)"/>
       <path id="DejaVuSans-3a" d="M 750 794 
L 1409 794 
L 1409 0 
L 750 0 
L 750 794 
z
M 750 3309 
L 1409 3309 
L 1409 2516 
L 750 2516 
L 750 3309 
z
" transform="scale(0.015625)"/>
       <path id="DejaVuSans-b0" d="M 1600 4347 
Q 1350 4347 1178 4173 
Q 1006 4000 1006 3750 
Q 1006 3503 1178 3333 
Q 1350 3163 1600 3163 
Q 1850 3163 2022 3333 
Q 2194 3503 2194 3750 
Q 2194 3997 2020 4172 
Q 1847 4347 1600 4347 
z
M 1600 4750 
Q 1800 4750 1984 4673 
Q 2169 4597 2303 4453 
Q 2447 4313 2519 4134 
Q 2591 3956 2591 3750 
Q 2591 3338 2302 3052 
Q 2013 2766 1594 2766 
Q 1172 2766 890 3047 
Q 609 3328 609 3750 
Q 609 4169 896 4459 
Q 1184 4750 1600 4750 
z
" transform="scale(0.015625)"/>
      </defs>
      <use xlink:href="#DejaVuSans-4d"/>
      <use xlink:href="#DejaVuSans-65" transform="translate(86.279297 0)"/>
      <use xlink:href="#DejaVuSans-61" transform="translate(147.802734 0)"/>
      <use xlink:href="#DejaVuSans-6e" transform="translate(209.082031 0)"/>
      <use xlink:href="#DejaVuSans-3a" transform="translate(272.460938 0)"/>
      <use xlink:href="#DejaVuSans-20" transform="translate(306.152344 0)"/>
      <use xlink:href="#DejaVuSans-30" transform="translate(337.939453 0)"/>
      <use xlink:href="#DejaVuSans-2e" transform="translate(401.5625 0)"/>
      <use xlink:href="#DejaVuSans-30" transform="translate(433.349609 0)"/>
      <use xlink:href="#DejaVuSans-30" transform="translate(496.972656 0)"/>
      <use xlink:href="#DejaVuSans-32" transform="translate(560.595703 0)"/>
      <use xlink:href="#DejaVuSans-30" transform="translate(624.21875 0)"/>
      <use xlink:href="#DejaVuSans-b0" transform="translate(687.841797 0)"/>
     </g>
    </g>
   </g>
  </g>
  <g id="axes_2">
   <g id="patch_68">
    <path d="M 548.760625 388.6 
L 993.115625 388.6 
L 993.115625 45.6 
L 548.760625 45.6 
z
" style="fill: #ffffff"/>
   </g>
   <g id="patch_69">
    <path d="M 568.95858 388.6 
L 577.740299 388.6 
L 577.740299 62.591935 
L 568.95858 62.591935 
z
" clip-path="url(#p5c62831c17)" style="fill: #90ee90; opacity: 0.7; stroke: #000000; stroke-linejoin: miter"/>
   </g>
   <g id="patch_70">
    <path d="M 577.740299 388.6 
L 586.522018 388.6 
L 586.522018 61.933333 
L 577.740299 61.933333 
z
" clip-path="url(#p5c62831c17)" style="fill: #90ee90; opacity: 0.7; stroke: #000000; stroke-linejoin: miter"/>
   </g>
   <g id="patch_71">
    <path d="M 586.522018 388.6 
L 595.303738 388.6 
L 595.303738 89.923925 
L 586.522018 89.923925 
z
" clip-path="url(#p5c62831c17)" style="fill: #90ee90; opacity: 0.7; stroke: #000000; stroke-linejoin: miter"/>
   </g>
   <g id="patch_72">
    <path d="M 595.303738 388.6 
L 604.085457 388.6 
L 604.085457 94.863441 
L 595.303738 94.863441 
z
" clip-path="url(#p5c62831c17)" style="fill: #90ee90; opacity: 0.7; stroke: #000000; stroke-linejoin: miter"/>
   </g>
   <g id="patch_73">
    <path d="M 604.085457 388.6 
L 612.867176 388.6 
L 612.867176 132.403763 
L 604.085457 132.403763 
z
" clip-path="url(#p5c62831c17)" style="fill: #90ee90; opacity: 0.7; stroke: #000000; stroke-linejoin: miter"/>
   </g>
   <g id="patch_74">
    <path d="M 612.867176 388.6 
L 621.648896 388.6 
L 621.648896 139.648387 
L 612.867176 139.648387 
z
" clip-path="url(#p5c62831c17)" style="fill: #90ee90; opacity: 0.7; stroke: #000000; stroke-linejoin: miter"/>
   </g>
   <g id="patch_75">
    <path d="M 621.648896 388.6 
L 630.430615 388.6 
L 630.430615 146.893011 
L 621.648896 146.893011 
z
" clip-path="url(#p5c62831c17)" style="fill: #90ee90; opacity: 0.7; stroke: #000000; stroke-linejoin: miter"/>
   </g>
   <g id="patch_76">
    <path d="M 630.430615 388.6 
L 639.212334 388.6 
L 639.212334 169.944086 
L 630.430615 169.944086 
z
" clip-path="url(#p5c62831c17)" style="fill: #90ee90; opacity: 0.7; stroke: #000000; stroke-linejoin: miter"/>
   </g>
   <g id="patch_77">
    <path d="M 639.212334 388.6 
L 647.994054 388.6 
L 647.994054 161.052957 
L 639.212334 161.052957 
z
" clip-path="url(#p5c62831c17)" style="fill: #90ee90; opacity: 0.7; stroke: #000000; stroke-linejoin: miter"/>
   </g>
   <g id="patch_78">
    <path d="M 647.994054 388.6 
L 656.775773 388.6 
L 656.775773 195.62957 
L 647.994054 195.62957 
z
" clip-path="url(#p5c62831c17)" style="fill: #90ee90; opacity: 0.7; stroke: #000000; stroke-linejoin: miter"/>
   </g>
   <g id="patch_79">
    <path d="M 656.775773 388.6 
L 665.557493 388.6 
L 665.557493 196.946774 
L 656.775773 196.946774 
z
" clip-path="url(#p5c62831c17)" style="fill: #90ee90; opacity: 0.7; stroke: #000000; stroke-linejoin: miter"/>
   </g>
   <g id="patch_80">
    <path d="M 665.557493 388.6 
L 674.339212 388.6 
L 674.339212 195.300269 
L 665.557493 195.300269 
z
" clip-path="url(#p5c62831c17)" style="fill: #90ee90; opacity: 0.7; stroke: #000000; stroke-linejoin: miter"/>
   </g>
   <g id="patch_81">
    <path d="M 674.339212 388.6 
L 683.120931 388.6 
L 683.120931 196.946774 
L 674.339212 196.946774 
z
" clip-path="url(#p5c62831c17)" style="fill: #90ee90; opacity: 0.7; stroke: #000000; stroke-linejoin: miter"/>
   </g>
   <g id="patch_82">
    <path d="M 683.120931 388.6 
L 691.902651 388.6 
L 691.902651 201.88629 
L 683.120931 201.88629 
z
" clip-path="url(#p5c62831c17)" style="fill: #90ee90; opacity: 0.7; stroke: #000000; stroke-linejoin: miter"/>
   </g>
   <g id="patch_83">
    <path d="M 691.902651 388.6 
L 700.68437 388.6 
L 700.68437 207.484409 
L 691.902651 207.484409 
z
" clip-path="url(#p5c62831c17)" style="fill: #90ee90; opacity: 0.7; stroke: #000000; stroke-linejoin: miter"/>
   </g>
   <g id="patch_84">
    <path d="M 700.68437 388.6 
L 709.466089 388.6 
L 709.466089 234.487097 
L 700.68437 234.487097 
z
" clip-path="url(#p5c62831c17)" style="fill: #90ee90; opacity: 0.7; stroke: #000000; stroke-linejoin: miter"/>
   </g>
   <g id="patch_85">
    <path d="M 709.466089 388.6 
L 718.247809 388.6 
L 718.247809 221.973656 
L 709.466089 221.973656 
z
" clip-path="url(#p5c62831c17)" style="fill: #90ee90; opacity: 0.7; stroke: #000000; stroke-linejoin: miter"/>
   </g>
   <g id="patch_86">
    <path d="M 718.247809 388.6 
L 727.029528 388.6 
L 727.029528 234.157796 
L 718.247809 234.157796 
z
" clip-path="url(#p5c62831c17)" style="fill: #90ee90; opacity: 0.7; stroke: #000000; stroke-linejoin: miter"/>
   </g>
   <g id="patch_87">
    <path d="M 727.029528 388.6 
L 735.811248 388.6 
L 735.811248 227.242473 
L 727.029528 227.242473 
z
" clip-path="url(#p5c62831c17)" style="fill: #90ee90; opacity: 0.7; stroke: #000000; stroke-linejoin: miter"/>
   </g>
   <g id="patch_88">
    <path d="M 735.811248 388.6 
L 744.592967 388.6 
L 744.592967 287.175269 
L 735.811248 287.175269 
z
" clip-path="url(#p5c62831c17)" style="fill: #90ee90; opacity: 0.7; stroke: #000000; stroke-linejoin: miter"/>
   </g>
   <g id="patch_89">
    <path d="M 744.592967 388.6 
L 753.374686 388.6 
L 753.374686 286.187366 
L 744.592967 286.187366 
z
" clip-path="url(#p5c62831c17)" style="fill: #90ee90; opacity: 0.7; stroke: #000000; stroke-linejoin: miter"/>
   </g>
   <g id="patch_90">
    <path d="M 753.374686 388.6 
L 762.156406 388.6 
L 762.156406 294.090591 
L 753.374686 294.090591 
z
" clip-path="url(#p5c62831c17)" style="fill: #90ee90; opacity: 0.7; stroke: #000000; stroke-linejoin: miter"/>
   </g>
   <g id="patch_91">
    <path d="M 762.156406 388.6 
L 770.938125 388.6 
L 770.938125 312.531452 
L 762.156406 312.531452 
z
" clip-path="url(#p5c62831c17)" style="fill: #90ee90; opacity: 0.7; stroke: #000000; stroke-linejoin: miter"/>
   </g>
   <g id="patch_92">
    <path d="M 770.938125 388.6 
L 779.719844 388.6 
L 779.719844 326.362097 
L 770.938125 326.362097 
z
" clip-path="url(#p5c62831c17)" style="fill: #90ee90; opacity: 0.7; stroke: #000000; stroke-linejoin: miter"/>
   </g>
   <g id="patch_93">
    <path d="M 779.719844 388.6 
L 788.501564 388.6 
L 788.501564 314.177957 
L 779.719844 314.177957 
z
" clip-path="url(#p5c62831c17)" style="fill: #90ee90; opacity: 0.7; stroke: #000000; stroke-linejoin: miter"/>
   </g>
   <g id="patch_94">
    <path d="M 788.501564 388.6 
L 797.283283 388.6 
L 797.283283 319.446774 
L 788.501564 319.446774 
z
" clip-path="url(#p5c62831c17)" style="fill: #90ee90; opacity: 0.7; stroke: #000000; stroke-linejoin: miter"/>
   </g>
   <g id="patch_95">
    <path d="M 797.283283 388.6 
L 806.065002 388.6 
L 806.065002 340.192742 
L 797.283283 340.192742 
z
" clip-path="url(#p5c62831c17)" style="fill: #90ee90; opacity: 0.7; stroke: #000000; stroke-linejoin: miter"/>
   </g>
   <g id="patch_96">
    <path d="M 806.065002 388.6 
L 814.846722 388.6 
L 814.846722 333.936022 
L 806.065002 333.936022 
z
" clip-path="url(#p5c62831c17)" style="fill: #90ee90; opacity: 0.7; stroke: #000000; stroke-linejoin: miter"/>
   </g>
   <g id="patch_97">
    <path d="M 814.846722 388.6 
L 823.628441 388.6 
L 823.628441 352.706183 
L 814.846722 352.706183 
z
" clip-path="url(#p5c62831c17)" style="fill: #90ee90; opacity: 0.7; stroke: #000000; stroke-linejoin: miter"/>
   </g>
   <g id="patch_98">
    <path d="M 823.628441 388.6 
L 832.410161 388.6 
L 832.410161 350.730376 
L 823.628441 350.730376 
z
" clip-path="url(#p5c62831c17)" style="fill: #90ee90; opacity: 0.7; stroke: #000000; stroke-linejoin: miter"/>
   </g>
   <g id="patch_99">
    <path d="M 832.410161 388.6 
L 841.19188 388.6 
L 841.19188 358.633602 
L 832.410161 358.633602 
z
" clip-path="url(#p5c62831c17)" style="fill: #90ee90; opacity: 0.7; stroke: #000000; stroke-linejoin: miter"/>
   </g>
   <g id="patch_100">
    <path d="M 841.19188 388.6 
L 849.973599 388.6 
L 849.973599 367.854032 
L 841.19188 367.854032 
z
" clip-path="url(#p5c62831c17)" style="fill: #90ee90; opacity: 0.7; stroke: #000000; stroke-linejoin: miter"/>
   </g>
   <g id="patch_101">
    <path d="M 849.973599 388.6 
L 858.755319 388.6 
L 858.755319 369.171237 
L 849.973599 369.171237 
z
" clip-path="url(#p5c62831c17)" style="fill: #90ee90; opacity: 0.7; stroke: #000000; stroke-linejoin: miter"/>
   </g>
   <g id="patch_102">
    <path d="M 858.755319 388.6 
L 867.537038 388.6 
L 867.537038 373.781452 
L 858.755319 373.781452 
z
" clip-path="url(#p5c62831c17)" style="fill: #90ee90; opacity: 0.7; stroke: #000000; stroke-linejoin: miter"/>
   </g>
   <g id="patch_103">
    <path d="M 867.537038 388.6 
L 876.318757 388.6 
L 876.318757 373.452151 
L 867.537038 373.452151 
z
" clip-path="url(#p5c62831c17)" style="fill: #90ee90; opacity: 0.7; stroke: #000000; stroke-linejoin: miter"/>
   </g>
   <g id="patch_104">
    <path d="M 876.318757 388.6 
L 885.100477 388.6 
L 885.100477 381.026075 
L 876.318757 381.026075 
z
" clip-path="url(#p5c62831c17)" style="fill: #90ee90; opacity: 0.7; stroke: #000000; stroke-linejoin: miter"/>
   </g>
   <g id="patch_105">
    <path d="M 885.100477 388.6 
L 893.882196 388.6 
L 893.882196 381.026075 
L 885.100477 381.026075 
z
" clip-path="url(#p5c62831c17)" style="fill: #90ee90; opacity: 0.7; stroke: #000000; stroke-linejoin: miter"/>
   </g>
   <g id="patch_106">
    <path d="M 893.882196 388.6 
L 902.663916 388.6 
L 902.663916 382.672581 
L 893.882196 382.672581 
z
" clip-path="url(#p5c62831c17)" style="fill: #90ee90; opacity: 0.7; stroke: #000000; stroke-linejoin: miter"/>
   </g>
   <g id="patch_107">
    <path d="M 902.663916 388.6 
L 911.445635 388.6 
L 911.445635 384.319086 
L 902.663916 384.319086 
z
" clip-path="url(#p5c62831c17)" style="fill: #90ee90; opacity: 0.7; stroke: #000000; stroke-linejoin: miter"/>
   </g>
   <g id="patch_108">
    <path d="M 911.445635 388.6 
L 920.227354 388.6 
L 920.227354 383.660484 
L 911.445635 383.660484 
z
" clip-path="url(#p5c62831c17)" style="fill: #90ee90; opacity: 0.7; stroke: #000000; stroke-linejoin: miter"/>
   </g>
   <g id="patch_109">
    <path d="M 920.227354 388.6 
L 929.009074 388.6 
L 929.009074 382.013978 
L 920.227354 382.013978 
z
" clip-path="url(#p5c62831c17)" style="fill: #90ee90; opacity: 0.7; stroke: #000000; stroke-linejoin: miter"/>
   </g>
   <g id="patch_110">
    <path d="M 929.009074 388.6 
L 937.790793 388.6 
L 937.790793 384.977688 
L 929.009074 384.977688 
z
" clip-path="url(#p5c62831c17)" style="fill: #90ee90; opacity: 0.7; stroke: #000000; stroke-linejoin: miter"/>
   </g>
   <g id="patch_111">
    <path d="M 937.790793 388.6 
L 946.572512 388.6 
L 946.572512 385.306989 
L 937.790793 385.306989 
z
" clip-path="url(#p5c62831c17)" style="fill: #90ee90; opacity: 0.7; stroke: #000000; stroke-linejoin: miter"/>
   </g>
   <g id="patch_112">
    <path d="M 946.572512 388.6 
L 955.354232 388.6 
L 955.354232 385.63629 
L 946.572512 385.63629 
z
" clip-path="url(#p5c62831c17)" style="fill: #90ee90; opacity: 0.7; stroke: #000000; stroke-linejoin: miter"/>
   </g>
   <g id="patch_113">
    <path d="M 955.354232 388.6 
L 964.135951 388.6 
L 964.135951 385.63629 
L 955.354232 385.63629 
z
" clip-path="url(#p5c62831c17)" style="fill: #90ee90; opacity: 0.7; stroke: #000000; stroke-linejoin: miter"/>
   </g>
   <g id="patch_114">
    <path d="M 964.135951 388.6 
L 972.91767 388.6 
L 972.91767 386.294892 
L 964.135951 386.294892 
z
" clip-path="url(#p5c62831c17)" style="fill: #90ee90; opacity: 0.7; stroke: #000000; stroke-linejoin: miter"/>
   </g>
   <g id="matplotlib.axis_3">
    <g id="xtick_5">
     <g id="line2d_29">
      <path d="M 568.957003 388.6 
L 568.957003 45.6 
" clip-path="url(#p5c62831c17)" style="fill: none; stroke: #b0b0b0; stroke-opacity: 0.3; stroke-width: 0.8; stroke-linecap: square"/>
     </g>
     <g id="line2d_30">
      <g>
       <use xlink:href="#m3fba6fdf27" x="568.957003" y="388.6" style="stroke: #000000; stroke-width: 0.8"/>
      </g>
     </g>
     <g id="text_18">
      <!-- 0.000 -->
      <g transform="translate(554.642941 403.198437) scale(0.1 -0.1)">
       <use xlink:href="#DejaVuSans-30"/>
       <use xlink:href="#DejaVuSans-2e" transform="translate(63.623047 0)"/>
       <use xlink:href="#DejaVuSans-30" transform="translate(95.410156 0)"/>
       <use xlink:href="#DejaVuSans-30" transform="translate(159.033203 0)"/>
       <use xlink:href="#DejaVuSans-30" transform="translate(222.65625 0)"/>
      </g>
     </g>
    </g>
    <g id="xtick_6">
     <g id="line2d_31">
      <path d="M 634.95213 388.6 
L 634.95213 45.6 
" clip-path="url(#p5c62831c17)" style="fill: none; stroke: #b0b0b0; stroke-opacity: 0.3; stroke-width: 0.8; stroke-linecap: square"/>
     </g>
     <g id="line2d_32">
      <g>
       <use xlink:href="#m3fba6fdf27" x="634.95213" y="388.6" style="stroke: #000000; stroke-width: 0.8"/>
      </g>
     </g>
     <g id="text_19">
      <!-- 0.002 -->
      <g transform="translate(620.638068 403.198437) scale(0.1 -0.1)">
       <use xlink:href="#DejaVuSans-30"/>
       <use xlink:href="#DejaVuSans-2e" transform="translate(63.623047 0)"/>
       <use xlink:href="#DejaVuSans-30" transform="translate(95.410156 0)"/>
       <use xlink:href="#DejaVuSans-30" transform="translate(159.033203 0)"/>
       <use xlink:href="#DejaVuSans-32" transform="translate(222.65625 0)"/>
      </g>
     </g>
    </g>
    <g id="xtick_7">
     <g id="line2d_33">
      <path d="M 700.947257 388.6 
L 700.947257 45.6 
" clip-path="url(#p5c62831c17)" style="fill: none; stroke: #b0b0b0; stroke-opacity: 0.3; stroke-width: 0.8; stroke-linecap: square"/>
     </g>
     <g id="line2d_34">
      <g>
       <use xlink:href="#m3fba6fdf27" x="700.947257" y="388.6" style="stroke: #000000; stroke-width: 0.8"/>
      </g>
     </g>
     <g id="text_20">
      <!-- 0.004 -->
      <g transform="translate(686.633195 403.198437) scale(0.1 -0.1)">
       <use xlink:href="#DejaVuSans-30"/>
       <use xlink:href="#DejaVuSans-2e" transform="translate(63.623047 0)"/>
       <use xlink:href="#DejaVuSans-30" transform="translate(95.410156 0)"/>
       <use xlink:href="#DejaVuSans-30" transform="translate(159.033203 0)"/>
       <use xlink:href="#DejaVuSans-34" transform="translate(222.65625 0)"/>
      </g>
     </g>
    </g>
    <g id="xtick_8">
     <g id="line2d_35">
      <path d="M 766.942384 388.6 
L 766.942384 45.6 
" clip-path="url(#p5c62831c17)" style="fill: none; stroke: #b0b0b0; stroke-opacity: 0.3; stroke-width: 0.8; stroke-linecap: square"/>
     </g>
     <g id="line2d_36">
      <g>
       <use xlink:href="#m3fba6fdf27" x="766.942384" y="388.6" style="stroke: #000000; stroke-width: 0.8"/>
      </g>
     </g>
     <g id="text_21">
      <!-- 0.006 -->
      <g transform="translate(752.628322 403.198437) scale(0.1 -0.1)">
       <use xlink:href="#DejaVuSans-30"/>
       <use xlink:href="#DejaVuSans-2e" transform="translate(63.623047 0)"/>
       <use xlink:href="#DejaVuSans-30" transform="translate(95.410156 0)"/>
       <use xlink:href="#DejaVuSans-30" transform="translate(159.033203 0)"/>
       <use xlink:href="#DejaVuSans-36" transform="translate(222.65625 0)"/>
      </g>
     </g>
    </g>
    <g id="xtick_9">
     <g id="line2d_37">
      <path d="M 832.937511 388.6 
L 832.937511 45.6 
" clip-path="url(#p5c62831c17)" style="fill: none; stroke: #b0b0b0; stroke-opacity: 0.3; stroke-width: 0.8; stroke-linecap: square"/>
     </g>
     <g id="line2d_38">
      <g>
       <use xlink:href="#m3fba6fdf27" x="832.937511" y="388.6" style="stroke: #000000; stroke-width: 0.8"/>
      </g>
     </g>
     <g id="text_22">
      <!-- 0.008 -->
      <g transform="translate(818.623449 403.198437) scale(0.1 -0.1)">
       <defs>
        <path id="DejaVuSans-38" d="M 2034 2216 
Q 1584 2216 1326 1975 
Q 1069 1734 1069 1313 
Q 1069 891 1326 650 
Q 1584 409 2034 409 
Q 2484 409 2743 651 
Q 3003 894 3003 1313 
Q 3003 1734 2745 1975 
Q 2488 2216 2034 2216 
z
M 1403 2484 
Q 997 2584 770 2862 
Q 544 3141 544 3541 
Q 544 4100 942 4425 
Q 1341 4750 2034 4750 
Q 2731 4750 3128 4425 
Q 3525 4100 3525 3541 
Q 3525 3141 3298 2862 
Q 3072 2584 2669 2484 
Q 3125 2378 3379 2068 
Q 3634 1759 3634 1313 
Q 3634 634 3220 271 
Q 2806 -91 2034 -91 
Q 1263 -91 848 271 
Q 434 634 434 1313 
Q 434 1759 690 2068 
Q 947 2378 1403 2484 
z
M 1172 3481 
Q 1172 3119 1398 2916 
Q 1625 2713 2034 2713 
Q 2441 2713 2670 2916 
Q 2900 3119 2900 3481 
Q 2900 3844 2670 4047 
Q 2441 4250 2034 4250 
Q 1625 4250 1398 4047 
Q 1172 3844 1172 3481 
z
" transform="scale(0.015625)"/>
       </defs>
       <use xlink:href="#DejaVuSans-30"/>
       <use xlink:href="#DejaVuSans-2e" transform="translate(63.623047 0)"/>
       <use xlink:href="#DejaVuSans-30" transform="translate(95.410156 0)"/>
       <use xlink:href="#DejaVuSans-30" transform="translate(159.033203 0)"/>
       <use xlink:href="#DejaVuSans-38" transform="translate(222.65625 0)"/>
      </g>
     </g>
    </g>
    <g id="xtick_10">
     <g id="line2d_39">
      <path d="M 898.932638 388.6 
L 898.932638 45.6 
" clip-path="url(#p5c62831c17)" style="fill: none; stroke: #b0b0b0; stroke-opacity: 0.3; stroke-width: 0.8; stroke-linecap: square"/>
     </g>
     <g id="line2d_40">
      <g>
       <use xlink:href="#m3fba6fdf27" x="898.932638" y="388.6" style="stroke: #000000; stroke-width: 0.8"/>
      </g>
     </g>
     <g id="text_23">
      <!-- 0.010 -->
      <g transform="translate(884.618576 403.198437) scale(0.1 -0.1)">
       <use xlink:href="#DejaVuSans-30"/>
       <use xlink:href="#DejaVuSans-2e" transform="translate(63.623047 0)"/>
       <use xlink:href="#DejaVuSans-30" transform="translate(95.410156 0)"/>
       <use xlink:href="#DejaVuSans-31" transform="translate(159.033203 0)"/>
       <use xlink:href="#DejaVuSans-30" transform="translate(222.65625 0)"/>
      </g>
     </g>
    </g>
    <g id="xtick_11">
     <g id="line2d_41">
      <path d="M 964.927766 388.6 
L 964.927766 45.6 
" clip-path="url(#p5c62831c17)" style="fill: none; stroke: #b0b0b0; stroke-opacity: 0.3; stroke-width: 0.8; stroke-linecap: square"/>
     </g>
     <g id="line2d_42">
      <g>
       <use xlink:href="#m3fba6fdf27" x="964.927766" y="388.6" style="stroke: #000000; stroke-width: 0.8"/>
      </g>
     </g>
     <g id="text_24">
      <!-- 0.012 -->
      <g transform="translate(950.613703 403.198437) scale(0.1 -0.1)">
       <use xlink:href="#DejaVuSans-30"/>
       <use xlink:href="#DejaVuSans-2e" transform="translate(63.623047 0)"/>
       <use xlink:href="#DejaVuSans-30" transform="translate(95.410156 0)"/>
       <use xlink:href="#DejaVuSans-31" transform="translate(159.033203 0)"/>
       <use xlink:href="#DejaVuSans-32" transform="translate(222.65625 0)"/>
      </g>
     </g>
    </g>
    <g id="text_25">
     <!-- Absolute Error (degrees) -->
     <g transform="translate(709.694375 416.876562) scale(0.1 -0.1)">
      <defs>
       <path id="DejaVuSans-41" d="M 2188 4044 
L 1331 1722 
L 3047 1722 
L 2188 4044 
z
M 1831 4666 
L 2547 4666 
L 4325 0 
L 3669 0 
L 3244 1197 
L 1141 1197 
L 716 0 
L 50 0 
L 1831 4666 
z
" transform="scale(0.015625)"/>
       <path id="DejaVuSans-6c" d="M 603 4863 
L 1178 4863 
L 1178 0 
L 603 0 
L 603 4863 
z
" transform="scale(0.015625)"/>
      </defs>
      <use xlink:href="#DejaVuSans-41"/>
      <use xlink:href="#DejaVuSans-62" transform="translate(68.408203 0)"/>
      <use xlink:href="#DejaVuSans-73" transform="translate(131.884766 0)"/>
      <use xlink:href="#DejaVuSans-6f" transform="translate(183.984375 0)"/>
      <use xlink:href="#DejaVuSans-6c" transform="translate(245.166016 0)"/>
      <use xlink:href="#DejaVuSans-75" transform="translate(272.949219 0)"/>
      <use xlink:href="#DejaVuSans-74" transform="translate(336.328125 0)"/>
      <use xlink:href="#DejaVuSans-65" transform="translate(375.537109 0)"/>
      <use xlink:href="#DejaVuSans-20" transform="translate(437.060547 0)"/>
      <use xlink:href="#DejaVuSans-45" transform="translate(468.847656 0)"/>
      <use xlink:href="#DejaVuSans-72" transform="translate(532.03125 0)"/>
      <use xlink:href="#DejaVuSans-72" transform="translate(571.394531 0)"/>
      <use xlink:href="#DejaVuSans-6f" transform="translate(610.257812 0)"/>
      <use xlink:href="#DejaVuSans-72" transform="translate(671.439453 0)"/>
      <use xlink:href="#DejaVuSans-20" transform="translate(712.552734 0)"/>
      <use xlink:href="#DejaVuSans-28" transform="translate(744.339844 0)"/>
      <use xlink:href="#DejaVuSans-64" transform="translate(783.353516 0)"/>
      <use xlink:href="#DejaVuSans-65" transform="translate(846.830078 0)"/>
      <use xlink:href="#DejaVuSans-67" transform="translate(908.353516 0)"/>
      <use xlink:href="#DejaVuSans-72" transform="translate(971.830078 0)"/>
      <use xlink:href="#DejaVuSans-65" transform="translate(1010.693359 0)"/>
      <use xlink:href="#DejaVuSans-65" transform="translate(1072.216797 0)"/>
      <use xlink:href="#DejaVuSans-73" transform="translate(1133.740234 0)"/>
      <use xlink:href="#DejaVuSans-29" transform="translate(1185.839844 0)"/>
     </g>
    </g>
   </g>
   <g id="matplotlib.axis_4">
    <g id="ytick_9">
     <g id="line2d_43">
      <path d="M 548.760625 388.6 
L 993.115625 388.6 
" clip-path="url(#p5c62831c17)" style="fill: none; stroke: #b0b0b0; stroke-opacity: 0.3; stroke-width: 0.8; stroke-linecap: square"/>
     </g>
     <g id="line2d_44">
      <g>
       <use xlink:href="#mf3525e6db3" x="548.760625" y="388.6" style="stroke: #000000; stroke-width: 0.8"/>
      </g>
     </g>
     <g id="text_26">
      <!-- 0 -->
      <g transform="translate(535.398125 392.399219) scale(0.1 -0.1)">
       <use xlink:href="#DejaVuSans-30"/>
      </g>
     </g>
    </g>
    <g id="ytick_10">
     <g id="line2d_45">
      <path d="M 548.760625 322.739785 
L 993.115625 322.739785 
" clip-path="url(#p5c62831c17)" style="fill: none; stroke: #b0b0b0; stroke-opacity: 0.3; stroke-width: 0.8; stroke-linecap: square"/>
     </g>
     <g id="line2d_46">
      <g>
       <use xlink:href="#mf3525e6db3" x="548.760625" y="322.739785" style="stroke: #000000; stroke-width: 0.8"/>
      </g>
     </g>
     <g id="text_27">
      <!-- 200 -->
      <g transform="translate(522.673125 326.539004) scale(0.1 -0.1)">
       <use xlink:href="#DejaVuSans-32"/>
       <use xlink:href="#DejaVuSans-30" transform="translate(63.623047 0)"/>
       <use xlink:href="#DejaVuSans-30" transform="translate(127.246094 0)"/>
      </g>
     </g>
    </g>
    <g id="ytick_11">
     <g id="line2d_47">
      <path d="M 548.760625 256.87957 
L 993.115625 256.87957 
" clip-path="url(#p5c62831c17)" style="fill: none; stroke: #b0b0b0; stroke-opacity: 0.3; stroke-width: 0.8; stroke-linecap: square"/>
     </g>
     <g id="line2d_48">
      <g>
       <use xlink:href="#mf3525e6db3" x="548.760625" y="256.87957" style="stroke: #000000; stroke-width: 0.8"/>
      </g>
     </g>
     <g id="text_28">
      <!-- 400 -->
      <g transform="translate(522.673125 260.678789) scale(0.1 -0.1)">
       <use xlink:href="#DejaVuSans-34"/>
       <use xlink:href="#DejaVuSans-30" transform="translate(63.623047 0)"/>
       <use xlink:href="#DejaVuSans-30" transform="translate(127.246094 0)"/>
      </g>
     </g>
    </g>
    <g id="ytick_12">
     <g id="line2d_49">
      <path d="M 548.760625 191.019355 
L 993.115625 191.019355 
" clip-path="url(#p5c62831c17)" style="fill: none; stroke: #b0b0b0; stroke-opacity: 0.3; stroke-width: 0.8; stroke-linecap: square"/>
     </g>
     <g id="line2d_50">
      <g>
       <use xlink:href="#mf3525e6db3" x="548.760625" y="191.019355" style="stroke: #000000; stroke-width: 0.8"/>
      </g>
     </g>
     <g id="text_29">
      <!-- 600 -->
      <g transform="translate(522.673125 194.818574) scale(0.1 -0.1)">
       <use xlink:href="#DejaVuSans-36"/>
       <use xlink:href="#DejaVuSans-30" transform="translate(63.623047 0)"/>
       <use xlink:href="#DejaVuSans-30" transform="translate(127.246094 0)"/>
      </g>
     </g>
    </g>
    <g id="ytick_13">
     <g id="line2d_51">
      <path d="M 548.760625 125.15914 
L 993.115625 125.15914 
" clip-path="url(#p5c62831c17)" style="fill: none; stroke: #b0b0b0; stroke-opacity: 0.3; stroke-width: 0.8; stroke-linecap: square"/>
     </g>
     <g id="line2d_52">
      <g>
       <use xlink:href="#mf3525e6db3" x="548.760625" y="125.15914" style="stroke: #000000; stroke-width: 0.8"/>
      </g>
     </g>
     <g id="text_30">
      <!-- 800 -->
      <g transform="translate(522.673125 128.958359) scale(0.1 -0.1)">
       <use xlink:href="#DejaVuSans-38"/>
       <use xlink:href="#DejaVuSans-30" transform="translate(63.623047 0)"/>
       <use xlink:href="#DejaVuSans-30" transform="translate(127.246094 0)"/>
      </g>
     </g>
    </g>
    <g id="ytick_14">
     <g id="line2d_53">
      <path d="M 548.760625 59.298925 
L 993.115625 59.298925 
" clip-path="url(#p5c62831c17)" style="fill: none; stroke: #b0b0b0; stroke-opacity: 0.3; stroke-width: 0.8; stroke-linecap: square"/>
     </g>
     <g id="line2d_54">
      <g>
       <use xlink:href="#mf3525e6db3" x="548.760625" y="59.298925" style="stroke: #000000; stroke-width: 0.8"/>
      </g>
     </g>
     <g id="text_31">
      <!-- 1000 -->
      <g transform="translate(516.310625 63.098143) scale(0.1 -0.1)">
       <use xlink:href="#DejaVuSans-31"/>
       <use xlink:href="#DejaVuSans-30" transform="translate(63.623047 0)"/>
       <use xlink:href="#DejaVuSans-30" transform="translate(127.246094 0)"/>
       <use xlink:href="#DejaVuSans-30" transform="translate(190.869141 0)"/>
      </g>
     </g>
    </g>
    <g id="text_32">
     <!-- Frequency -->
     <g transform="translate(510.230938 242.929687) rotate(-90) scale(0.1 -0.1)">
      <use xlink:href="#DejaVuSans-46"/>
      <use xlink:href="#DejaVuSans-72" transform="translate(50.269531 0)"/>
      <use xlink:href="#DejaVuSans-65" transform="translate(89.132812 0)"/>
      <use xlink:href="#DejaVuSans-71" transform="translate(150.65625 0)"/>
      <use xlink:href="#DejaVuSans-75" transform="translate(214.132812 0)"/>
      <use xlink:href="#DejaVuSans-65" transform="translate(277.511719 0)"/>
      <use xlink:href="#DejaVuSans-6e" transform="translate(339.035156 0)"/>
      <use xlink:href="#DejaVuSans-63" transform="translate(402.414062 0)"/>
      <use xlink:href="#DejaVuSans-79" transform="translate(457.394531 0)"/>
     </g>
    </g>
   </g>
   <g id="line2d_55">
    <path d="M 692.813849 388.6 
L 692.813849 45.6 
" clip-path="url(#p5c62831c17)" style="fill: none; stroke: #ffa500; stroke-width: 2; stroke-linecap: square"/>
   </g>
   <g id="line2d_56">
    <path d="M 809.519369 388.6 
L 809.519369 45.6 
" clip-path="url(#p5c62831c17)" style="fill: none; stroke-dasharray: 7.4,3.2; stroke-dashoffset: 0; stroke: #0000ff; stroke-width: 2"/>
   </g>
   <g id="patch_115">
    <path d="M 548.760625 388.6 
L 548.760625 45.6 
" style="fill: none; stroke: #000000; stroke-width: 0.8; stroke-linejoin: miter; stroke-linecap: square"/>
   </g>
   <g id="patch_116">
    <path d="M 993.115625 388.6 
L 993.115625 45.6 
" style="fill: none; stroke: #000000; stroke-width: 0.8; stroke-linejoin: miter; stroke-linecap: square"/>
   </g>
   <g id="patch_117">
    <path d="M 548.760625 388.6 
L 993.115625 388.6 
" style="fill: none; stroke: #000000; stroke-width: 0.8; stroke-linejoin: miter; stroke-linecap: square"/>
   </g>
   <g id="patch_118">
    <path d="M 548.760625 45.6 
L 993.115625 45.6 
" style="fill: none; stroke: #000000; stroke-width: 0.8; stroke-linejoin: miter; stroke-linecap: square"/>
   </g>
   <g id="text_33">
    <!-- Meeus Absolute Error Distribution -->
    <g transform="translate(669.880313 39.6) scale(0.12 -0.12)">
     <use xlink:href="#DejaVuSans-4d"/>
     <use xlink:href="#DejaVuSans-65" transform="translate(86.279297 0)"/>
     <use xlink:href="#DejaVuSans-65" transform="translate(147.802734 0)"/>
     <use xlink:href="#DejaVuSans-75" transform="translate(209.326172 0)"/>
     <use xlink:href="#DejaVuSans-73" transform="translate(272.705078 0)"/>
     <use xlink:href="#DejaVuSans-20" transform="translate(324.804688 0)"/>
     <use xlink:href="#DejaVuSans-41" transform="translate(356.591797 0)"/>
     <use xlink:href="#DejaVuSans-62" transform="translate(425 0)"/>
     <use xlink:href="#DejaVuSans-73" transform="translate(488.476562 0)"/>
     <use xlink:href="#DejaVuSans-6f" transform="translate(540.576172 0)"/>
     <use xlink:href="#DejaVuSans-6c" transform="translate(601.757812 0)"/>
     <use xlink:href="#DejaVuSans-75" transform="translate(629.541016 0)"/>
     <use xlink:href="#DejaVuSans-74" transform="translate(692.919922 0)"/>
     <use xlink:href="#DejaVuSans-65" transform="translate(732.128906 0)"/>
     <use xlink:href="#DejaVuSans-20" transform="translate(793.652344 0)"/>
     <use xlink:href="#DejaVuSans-45" transform="translate(825.439453 0)"/>
     <use xlink:href="#DejaVuSans-72" transform="translate(888.623047 0)"/>
     <use xlink:href="#DejaVuSans-72" transform="translate(927.986328 0)"/>
     <use xlink:href="#DejaVuSans-6f" transform="translate(966.849609 0)"/>
     <use xlink:href="#DejaVuSans-72" transform="translate(1028.03125 0)"/>
     <use xlink:href="#DejaVuSans-20" transform="translate(1069.144531 0)"/>
     <use xlink:href="#DejaVuSans-44" transform="translate(1100.931641 0)"/>
     <use xlink:href="#DejaVuSans-69" transform="translate(1177.933594 0)"/>
     <use xlink:href="#DejaVuSans-73" transform="translate(1205.716797 0)"/>
     <use xlink:href="#DejaVuSans-74" transform="translate(1257.816406 0)"/>
     <use xlink:href="#DejaVuSans-72" transform="translate(1297.025391 0)"/>
     <use xlink:href="#DejaVuSans-69" transform="translate(1338.138672 0)"/>
     <use xlink:href="#DejaVuSans-62" transform="translate(1365.921875 0)"/>
     <use xlink:href="#DejaVuSans-75" transform="translate(1429.398438 0)"/>
     <use xlink:href="#DejaVuSans-74" transform="translate(1492.777344 0)"/>
     <use xlink:href="#DejaVuSans-69" transform="translate(1531.986328 0)"/>
     <use xlink:href="#DejaVuSans-6f" transform="translate(1559.769531 0)"/>
     <use xlink:href="#DejaVuSans-6e" transform="translate(1620.951172 0)"/>
    </g>
   </g>
   <g id="legend_2">
    <g id="patch_119">
     <path d="M 863.775 82.95625 
L 986.115625 82.95625 
Q 988.115625 82.95625 988.115625 80.95625 
L 988.115625 52.6 
Q 988.115625 50.6 986.115625 50.6 
L 863.775 50.6 
Q 861.775 50.6 861.775 52.6 
L 861.775 80.95625 
Q 861.775 82.95625 863.775 82.95625 
z
" style="fill: #ffffff; opacity: 0.8; stroke: #cccccc; stroke-linejoin: miter"/>
    </g>
    <g id="line2d_57">
     <path d="M 865.775 58.698437 
L 875.775 58.698437 
L 885.775 58.698437 
" style="fill: none; stroke: #ffa500; stroke-width: 2; stroke-linecap: square"/>
    </g>
    <g id="text_34">
     <!-- RMSD: 0.0038° -->
     <g transform="translate(893.775 62.198437) scale(0.1 -0.1)">
      <defs>
       <path id="DejaVuSans-52" d="M 2841 2188 
Q 3044 2119 3236 1894 
Q 3428 1669 3622 1275 
L 4263 0 
L 3584 0 
L 2988 1197 
Q 2756 1666 2539 1819 
Q 2322 1972 1947 1972 
L 1259 1972 
L 1259 0 
L 628 0 
L 628 4666 
L 2053 4666 
Q 2853 4666 3247 4331 
Q 3641 3997 3641 3322 
Q 3641 2881 3436 2590 
Q 3231 2300 2841 2188 
z
M 1259 4147 
L 1259 2491 
L 2053 2491 
Q 2509 2491 2742 2702 
Q 2975 2913 2975 3322 
Q 2975 3731 2742 3939 
Q 2509 4147 2053 4147 
L 1259 4147 
z
" transform="scale(0.015625)"/>
       <path id="DejaVuSans-53" d="M 3425 4513 
L 3425 3897 
Q 3066 4069 2747 4153 
Q 2428 4238 2131 4238 
Q 1616 4238 1336 4038 
Q 1056 3838 1056 3469 
Q 1056 3159 1242 3001 
Q 1428 2844 1947 2747 
L 2328 2669 
Q 3034 2534 3370 2195 
Q 3706 1856 3706 1288 
Q 3706 609 3251 259 
Q 2797 -91 1919 -91 
Q 1588 -91 1214 -16 
Q 841 59 441 206 
L 441 856 
Q 825 641 1194 531 
Q 1563 422 1919 422 
Q 2459 422 2753 634 
Q 3047 847 3047 1241 
Q 3047 1584 2836 1778 
Q 2625 1972 2144 2069 
L 1759 2144 
Q 1053 2284 737 2584 
Q 422 2884 422 3419 
Q 422 4038 858 4394 
Q 1294 4750 2059 4750 
Q 2388 4750 2728 4690 
Q 3069 4631 3425 4513 
z
" transform="scale(0.015625)"/>
      </defs>
      <use xlink:href="#DejaVuSans-52"/>
      <use xlink:href="#DejaVuSans-4d" transform="translate(69.482422 0)"/>
      <use xlink:href="#DejaVuSans-53" transform="translate(155.761719 0)"/>
      <use xlink:href="#DejaVuSans-44" transform="translate(219.238281 0)"/>
      <use xlink:href="#DejaVuSans-3a" transform="translate(296.240234 0)"/>
      <use xlink:href="#DejaVuSans-20" transform="translate(329.931641 0)"/>
      <use xlink:href="#DejaVuSans-30" transform="translate(361.71875 0)"/>
      <use xlink:href="#DejaVuSans-2e" transform="translate(425.341797 0)"/>
      <use xlink:href="#DejaVuSans-30" transform="translate(457.128906 0)"/>
      <use xlink:href="#DejaVuSans-30" transform="translate(520.751953 0)"/>
      <use xlink:href="#DejaVuSans-33" transform="translate(584.375 0)"/>
      <use xlink:href="#DejaVuSans-38" transform="translate(647.998047 0)"/>
      <use xlink:href="#DejaVuSans-b0" transform="translate(711.621094 0)"/>
     </g>
    </g>
    <g id="line2d_58">
     <path d="M 865.775 73.376562 
L 875.775 73.376562 
L 885.775 73.376562 
" style="fill: none; stroke-dasharray: 7.4,3.2; stroke-dashoffset: 0; stroke: #0000ff; stroke-width: 2"/>
    </g>
    <g id="text_35">
     <!-- 95% Abs: 0.0073° -->
     <g transform="translate(893.775 76.876562) scale(0.1 -0.1)">
      <defs>
       <path id="DejaVuSans-39" d="M 703 97 
L 703 672 
Q 941 559 1184 500 
Q 1428 441 1663 441 
Q 2288 441 2617 861 
Q 2947 1281 2994 2138 
Q 2813 1869 2534 1725 
Q 2256 1581 1919 1581 
Q 1219 1581 811 2004 
Q 403 2428 403 3163 
Q 403 3881 828 4315 
Q 1253 4750 1959 4750 
Q 2769 4750 3195 4129 
Q 3622 3509 3622 2328 
Q 3622 1225 3098 567 
Q 2575 -91 1691 -91 
Q 1453 -91 1209 -44 
Q 966 3 703 97 
z
M 1959 2075 
Q 2384 2075 2632 2365 
Q 2881 2656 2881 3163 
Q 2881 3666 2632 3958 
Q 2384 4250 1959 4250 
Q 1534 4250 1286 3958 
Q 1038 3666 1038 3163 
Q 1038 2656 1286 2365 
Q 1534 2075 1959 2075 
z
" transform="scale(0.015625)"/>
       <path id="DejaVuSans-25" d="M 4653 2053 
Q 4381 2053 4226 1822 
Q 4072 1591 4072 1178 
Q 4072 772 4226 539 
Q 4381 306 4653 306 
Q 4919 306 5073 539 
Q 5228 772 5228 1178 
Q 5228 1588 5073 1820 
Q 4919 2053 4653 2053 
z
M 4653 2450 
Q 5147 2450 5437 2106 
Q 5728 1763 5728 1178 
Q 5728 594 5436 251 
Q 5144 -91 4653 -91 
Q 4153 -91 3862 251 
Q 3572 594 3572 1178 
Q 3572 1766 3864 2108 
Q 4156 2450 4653 2450 
z
M 1428 4353 
Q 1159 4353 1004 4120 
Q 850 3888 850 3481 
Q 850 3069 1003 2837 
Q 1156 2606 1428 2606 
Q 1700 2606 1854 2837 
Q 2009 3069 2009 3481 
Q 2009 3884 1853 4118 
Q 1697 4353 1428 4353 
z
M 4250 4750 
L 4750 4750 
L 1831 -91 
L 1331 -91 
L 4250 4750 
z
M 1428 4750 
Q 1922 4750 2215 4408 
Q 2509 4066 2509 3481 
Q 2509 2891 2217 2550 
Q 1925 2209 1428 2209 
Q 931 2209 642 2551 
Q 353 2894 353 3481 
Q 353 4063 643 4406 
Q 934 4750 1428 4750 
z
" transform="scale(0.015625)"/>
      </defs>
      <use xlink:href="#DejaVuSans-39"/>
      <use xlink:href="#DejaVuSans-35" transform="translate(63.623047 0)"/>
      <use xlink:href="#DejaVuSans-25" transform="translate(127.246094 0)"/>
      <use xlink:href="#DejaVuSans-20" transform="translate(222.265625 0)"/>
      <use xlink:href="#DejaVuSans-41" transform="translate(254.052734 0)"/>
      <use xlink:href="#DejaVuSans-62" transform="translate(322.460938 0)"/>
      <use xlink:href="#DejaVuSans-73" transform="translate(385.9375 0)"/>
      <use xlink:href="#DejaVuSans-3a" transform="translate(438.037109 0)"/>
      <use xlink:href="#DejaVuSans-20" transform="translate(471.728516 0)"/>
      <use xlink:href="#DejaVuSans-30" transform="translate(503.515625 0)"/>
      <use xlink:href="#DejaVuSans-2e" transform="translate(567.138672 0)"/>
      <use xlink:href="#DejaVuSans-30" transform="translate(598.925781 0)"/>
      <use xlink:href="#DejaVuSans-30" transform="translate(662.548828 0)"/>
      <use xlink:href="#DejaVuSans-37" transform="translate(726.171875 0)"/>
      <use xlink:href="#DejaVuSans-33" transform="translate(789.794922 0)"/>
      <use xlink:href="#DejaVuSans-b0" transform="translate(853.417969 0)"/>
     </g>
    </g>
   </g>
  </g>
  <g id="text_36">
   <!-- Meeus Solar Elevation Error Histogram (Full Dataset) -->
   <g transform="translate(341.642188 16.318125) scale(0.12 -0.12)">
    <defs>
     <path id="DejaVuSans-76" d="M 191 3500 
L 800 3500 
L 1894 563 
L 2988 3500 
L 3597 3500 
L 2284 0 
L 1503 0 
L 191 3500 
z
" transform="scale(0.015625)"/>
     <path id="DejaVuSans-48" d="M 628 4666 
L 1259 4666 
L 1259 2753 
L 3553 2753 
L 3553 4666 
L 4184 4666 
L 4184 0 
L 3553 0 
L 3553 2222 
L 1259 2222 
L 1259 0 
L 628 0 
L 628 4666 
z
" transform="scale(0.015625)"/>
     <path id="DejaVuSans-6d" d="M 3328 2828 
Q 3544 3216 3844 3400 
Q 4144 3584 4550 3584 
Q 5097 3584 5394 3201 
Q 5691 2819 5691 2113 
L 5691 0 
L 5113 0 
L 5113 2094 
Q 5113 2597 4934 2840 
Q 4756 3084 4391 3084 
Q 3944 3084 3684 2787 
Q 3425 2491 3425 1978 
L 3425 0 
L 2847 0 
L 2847 2094 
Q 2847 2600 2669 2842 
Q 2491 3084 2119 3084 
Q 1678 3084 1418 2786 
Q 1159 2488 1159 1978 
L 1159 0 
L 581 0 
L 581 3500 
L 1159 3500 
L 1159 2956 
Q 1356 3278 1631 3431 
Q 1906 3584 2284 3584 
Q 2666 3584 2933 3390 
Q 3200 3197 3328 2828 
z
" transform="scale(0.015625)"/>
    </defs>
    <use xlink:href="#DejaVuSans-4d"/>
    <use xlink:href="#DejaVuSans-65" transform="translate(86.279297 0)"/>
    <use xlink:href="#DejaVuSans-65" transform="translate(147.802734 0)"/>
    <use xlink:href="#DejaVuSans-75" transform="translate(209.326172 0)"/>
    <use xlink:href="#DejaVuSans-73" transform="translate(272.705078 0)"/>
    <use xlink:href="#DejaVuSans-20" transform="translate(324.804688 0)"/>
    <use xlink:href="#DejaVuSans-53" transform="translate(356.591797 0)"/>
    <use xlink:href="#DejaVuSans-6f" transform="translate(420.068359 0)"/>
    <use xlink:href="#DejaVuSans-6c" transform="translate(481.25 0)"/>
    <use xlink:href="#DejaVuSans-61" transform="translate(509.033203 0)"/>
    <use xlink:href="#DejaVuSans-72" transform="translate(570.3125 0)"/>
    <use xlink:href="#DejaVuSans-20" transform="translate(611.425781 0)"/>
    <use xlink:href="#DejaVuSans-45" transform="translate(643.212891 0)"/>
    <use xlink:href="#DejaVuSans-6c" transform="translate(706.396484 0)"/>
    <use xlink:href="#DejaVuSans-65" transform="translate(734.179688 0)"/>
    <use xlink:href="#DejaVuSans-76" transform="translate(795.703125 0)"/>
    <use xlink:href="#DejaVuSans-61" transform="translate(854.882812 0)"/>
    <use xlink:href="#DejaVuSans-74" transform="translate(916.162109 0)"/>
    <use xlink:href="#DejaVuSans-69" transform="translate(955.371094 0)"/>
    <use xlink:href="#DejaVuSans-6f" transform="translate(983.154297 0)"/>
    <use xlink:href="#DejaVuSans-6e" transform="translate(1044.335938 0)"/>
    <use xlink:href="#DejaVuSans-20" transform="translate(1107.714844 0)"/>
    <use xlink:href="#DejaVuSans-45" transform="translate(1139.501953 0)"/>
    <use xlink:href="#DejaVuSans-72" transform="translate(1202.685547 0)"/>
    <use xlink:href="#DejaVuSans-72" transform="translate(1242.048828 0)"/>
    <use xlink:href="#DejaVuSans-6f" transform="translate(1280.912109 0)"/>
    <use xlink:href="#DejaVuSans-72" transform="translate(1342.09375 0)"/>
    <use xlink:href="#DejaVuSans-20" transform="translate(1383.207031 0)"/>
    <use xlink:href="#DejaVuSans-48" transform="translate(1414.994141 0)"/>
    <use xlink:href="#DejaVuSans-69" transform="translate(1490.189453 0)"/>
    <use xlink:href="#DejaVuSans-73" transform="translate(1517.972656 0)"/>
    <use xlink:href="#DejaVuSans-74" transform="translate(1570.072266 0)"/>
    <use xlink:href="#DejaVuSans-6f" transform="translate(1609.28125 0)"/>
    <use xlink:href="#DejaVuSans-67" transform="translate(1670.462891 0)"/>
    <use xlink:href="#DejaVuSans-72" transform="translate(1733.939453 0)"/>
    <use xlink:href="#DejaVuSans-61" transform="translate(1775.052734 0)"/>
    <use xlink:href="#DejaVuSans-6d" transform="translate(1836.332031 0)"/>
    <use xlink:href="#DejaVuSans-20" transform="translate(1933.744141 0)"/>
    <use xlink:href="#DejaVuSans-28" transform="translate(1965.53125 0)"/>
    <use xlink:href="#DejaVuSans-46" transform="translate(2004.544922 0)"/>
    <use xlink:href="#DejaVuSans-75" transform="translate(2056.564453 0)"/>
    <use xlink:href="#DejaVuSans-6c" transform="translate(2119.943359 0)"/>
    <use xlink:href="#DejaVuSans-6c" transform="translate(2147.726562 0)"/>
    <use xlink:href="#DejaVuSans-20" transform="translate(2175.509766 0)"/>
    <use xlink:href="#DejaVuSans-44" transform="translate(2207.296875 0)"/>
    <use xlink:href="#DejaVuSans-61" transform="translate(2284.298828 0)"/>
    <use xlink:href="#DejaVuSans-74" transform="translate(2345.578125 0)"/>
    <use xlink:href="#DejaVuSans-61" transform="translate(2384.787109 0)"/>
    <use xlink:href="#DejaVuSans-73" transform="translate(2446.066406 0)"/>
    <use xlink:href="#DejaVuSans-65" transform="translate(2498.166016 0)"/>
    <use xlink:href="#DejaVuSans-74" transform="translate(2559.689453 0)"/>
    <use xlink:href="#DejaVuSans-29" transform="translate(2598.898438 0)"/>
   </g>
  </g>
 </g>
 <defs>
  <clipPath id="p13e0e132bd">
   <rect x="46.965625" y="45.6" width="444.355" height="343"/>
  </clipPath>
  <clipPath id="p5c62831c17">
   <rect x="548.760625" y="45.6" width="444.355" height="343"/>
  </clipPath>
 </defs>
</svg>
